%TF.GenerationSoftware,KiCad,Pcbnew,10.0.4*%
%TF.CreationDate,2026-07-23T22:47:19-03:00*%
%TF.ProjectId,pong-retrosc-yd,706f6e67-2d72-4657-9472-6f73632d7964,rev?*%
%TF.SameCoordinates,Original*%
%TF.FileFunction,Copper,L1,Top*%
%TF.FilePolarity,Positive*%
%FSLAX46Y46*%
G04 Gerber Fmt 4.6, Leading zero omitted, Abs format (unit mm)*
G04 Created by KiCad (PCBNEW 10.0.4) date 2026-07-23 22:47:19*
%MOMM*%
%LPD*%
G01*
G04 APERTURE LIST*
G04 Aperture macros list*
%AMRoundRect*
0 Rectangle with rounded corners*
0 $1 Rounding radius*
0 $2 $3 $4 $5 $6 $7 $8 $9 X,Y pos of 4 corners*
0 Add a 4 corners polygon primitive as box body*
4,1,4,$2,$3,$4,$5,$6,$7,$8,$9,$2,$3,0*
0 Add four circle primitives for the rounded corners*
1,1,$1+$1,$2,$3*
1,1,$1+$1,$4,$5*
1,1,$1+$1,$6,$7*
1,1,$1+$1,$8,$9*
0 Add four rect primitives between the rounded corners*
20,1,$1+$1,$2,$3,$4,$5,0*
20,1,$1+$1,$4,$5,$6,$7,0*
20,1,$1+$1,$6,$7,$8,$9,0*
20,1,$1+$1,$8,$9,$2,$3,0*%
%AMFreePoly0*
4,1,37,0.603843,0.796157,0.639018,0.796157,0.711114,0.766294,0.766294,0.711114,0.796157,0.639018,0.796157,0.603843,0.800000,0.600000,0.800000,-0.600000,0.796157,-0.603843,0.796157,-0.639018,0.766294,-0.711114,0.711114,-0.766294,0.639018,-0.796157,0.603843,-0.796157,0.600000,-0.800000,0.000000,-0.800000,0.000000,-0.796148,-0.078414,-0.796148,-0.232228,-0.765552,-0.377117,-0.705537,
-0.507515,-0.618408,-0.618408,-0.507515,-0.705537,-0.377117,-0.765552,-0.232228,-0.796148,-0.078414,-0.796148,0.078414,-0.765552,0.232228,-0.705537,0.377117,-0.618408,0.507515,-0.507515,0.618408,-0.377117,0.705537,-0.232228,0.765552,-0.078414,0.796148,0.000000,0.796148,0.000000,0.800000,0.600000,0.800000,0.603843,0.796157,0.603843,0.796157,$1*%
%AMFreePoly1*
4,1,37,0.000000,0.796148,0.078414,0.796148,0.232228,0.765552,0.377117,0.705537,0.507515,0.618408,0.618408,0.507515,0.705537,0.377117,0.765552,0.232228,0.796148,0.078414,0.796148,-0.078414,0.765552,-0.232228,0.705537,-0.377117,0.618408,-0.507515,0.507515,-0.618408,0.377117,-0.705537,0.232228,-0.765552,0.078414,-0.796148,0.000000,-0.796148,0.000000,-0.800000,-0.600000,-0.800000,
-0.603843,-0.796157,-0.639018,-0.796157,-0.711114,-0.766294,-0.766294,-0.711114,-0.796157,-0.639018,-0.796157,-0.603843,-0.800000,-0.600000,-0.800000,0.600000,-0.796157,0.603843,-0.796157,0.639018,-0.766294,0.711114,-0.711114,0.766294,-0.639018,0.796157,-0.603843,0.796157,-0.600000,0.800000,0.000000,0.800000,0.000000,0.796148,0.000000,0.796148,$1*%
G04 Aperture macros list end*
%TA.AperFunction,ComponentPad*%
%ADD10R,1.900000X1.900000*%
%TD*%
%TA.AperFunction,ComponentPad*%
%ADD11C,1.900000*%
%TD*%
%TA.AperFunction,ComponentPad*%
%ADD12C,1.600000*%
%TD*%
%TA.AperFunction,ComponentPad*%
%ADD13C,2.600000*%
%TD*%
%TA.AperFunction,ComponentPad*%
%ADD14O,3.400000X2.300000*%
%TD*%
%TA.AperFunction,ComponentPad*%
%ADD15O,2.300000X3.400000*%
%TD*%
%TA.AperFunction,ComponentPad*%
%ADD16RoundRect,0.200000X-0.600000X-0.600000X0.600000X-0.600000X0.600000X0.600000X-0.600000X0.600000X0*%
%TD*%
%TA.AperFunction,ComponentPad*%
%ADD17FreePoly0,0.000000*%
%TD*%
%TA.AperFunction,ComponentPad*%
%ADD18FreePoly1,0.000000*%
%TD*%
%TA.AperFunction,ComponentPad*%
%ADD19R,1.700000X1.700000*%
%TD*%
%TA.AperFunction,ComponentPad*%
%ADD20C,1.700000*%
%TD*%
%TA.AperFunction,ComponentPad*%
%ADD21RoundRect,0.250000X-0.550000X-0.550000X0.550000X-0.550000X0.550000X0.550000X-0.550000X0.550000X0*%
%TD*%
%TA.AperFunction,ViaPad*%
%ADD22C,0.700000*%
%TD*%
%TA.AperFunction,Conductor*%
%ADD23C,0.250000*%
%TD*%
G04 APERTURE END LIST*
D10*
%TO.P,U2,1*%
%TO.N,N/C*%
X46300000Y-42000000D03*
D11*
%TO.P,U2,2*%
X48840000Y-42000000D03*
%TO.P,U2,3*%
%TO.N,LOUT_P*%
X51380000Y-42000000D03*
%TO.P,U2,4*%
%TO.N,LOUT_N*%
X53920000Y-42000000D03*
%TO.P,U2,5*%
%TO.N,GND*%
X59000000Y-42000000D03*
%TO.P,U2,6*%
%TO.N,+5V*%
X61540000Y-42000000D03*
%TO.P,U2,7*%
%TO.N,AMP_L*%
X66620000Y-42000000D03*
%TO.P,U2,8*%
%TO.N,GND*%
X69160000Y-42000000D03*
%TO.P,U2,9*%
%TO.N,AMP_R*%
X71700000Y-42000000D03*
%TD*%
D12*
%TO.P,R7,1*%
%TO.N,AUD_C*%
X55000000Y-102000000D03*
%TO.P,R7,2*%
%TO.N,AMP_R*%
X57540000Y-102000000D03*
%TD*%
%TO.P,R1,1*%
%TO.N,SYNC*%
X55000000Y-62000000D03*
%TO.P,R1,2*%
%TO.N,COMPOSITE*%
X57540000Y-62000000D03*
%TD*%
D13*
%TO.P,J1,1*%
%TO.N,COMPOSITE*%
X67500000Y-51500000D03*
D14*
%TO.P,J1,2*%
%TO.N,GND*%
X67500000Y-46500000D03*
D15*
X72500000Y-51500000D03*
D14*
X67500000Y-56500000D03*
%TD*%
D13*
%TO.P,J8,1*%
%TO.N,RCA_C*%
X67500000Y-67500000D03*
D14*
%TO.P,J8,2*%
%TO.N,RCA_S*%
X67500000Y-62500000D03*
D15*
X72500000Y-67500000D03*
D14*
X67500000Y-72500000D03*
%TD*%
D12*
%TO.P,R5,1*%
%TO.N,LINHA*%
X67000000Y-96000000D03*
%TO.P,R5,2*%
%TO.N,GND*%
X69540000Y-96000000D03*
%TD*%
%TO.P,R3,1*%
%TO.N,AUDIO_PWM*%
X55000000Y-74000000D03*
%TO.P,R3,2*%
%TO.N,AUD_F*%
X57540000Y-74000000D03*
%TD*%
D16*
%TO.P,U1,1*%
%TO.N,N/C*%
X23100000Y-22000000D03*
D12*
%TO.P,U1,2*%
X23100000Y-24540000D03*
D17*
%TO.P,U1,3*%
X23100000Y-27080000D03*
D12*
%TO.P,U1,4*%
X23100000Y-29620000D03*
%TO.P,U1,5*%
X23100000Y-32160000D03*
%TO.P,U1,6*%
%TO.N,GND*%
X23100000Y-34700000D03*
%TO.P,U1,7*%
%TO.N,N/C*%
X23100000Y-37240000D03*
D17*
%TO.P,U1,8*%
X23100000Y-39780000D03*
D12*
%TO.P,U1,9*%
X23100000Y-42320000D03*
%TO.P,U1,10*%
X23100000Y-44860000D03*
%TO.P,U1,11*%
X23100000Y-47400000D03*
%TO.P,U1,12*%
X23100000Y-49940000D03*
D17*
%TO.P,U1,13*%
X23100000Y-52480000D03*
D12*
%TO.P,U1,14*%
X23100000Y-55020000D03*
%TO.P,U1,15*%
%TO.N,GND*%
X23100000Y-57560000D03*
%TO.P,U1,16*%
%TO.N,N/C*%
X23100000Y-60100000D03*
%TO.P,U1,17*%
X23100000Y-62640000D03*
D17*
%TO.P,U1,18*%
X23100000Y-65180000D03*
D12*
%TO.P,U1,19*%
%TO.N,SYNC*%
X23100000Y-67720000D03*
%TO.P,U1,20*%
%TO.N,VIDEO*%
X23100000Y-70260000D03*
%TO.P,U1,21*%
%TO.N,AUDIO_PWM*%
X40880000Y-70260000D03*
%TO.P,U1,22*%
%TO.N,N/C*%
X40880000Y-67720000D03*
D18*
%TO.P,U1,23*%
X40880000Y-65180000D03*
D12*
%TO.P,U1,24*%
X40880000Y-62640000D03*
%TO.P,U1,25*%
%TO.N,START*%
X40880000Y-60100000D03*
%TO.P,U1,26*%
%TO.N,N/C*%
X40880000Y-57560000D03*
%TO.P,U1,27*%
X40880000Y-55020000D03*
D18*
%TO.P,U1,28*%
X40880000Y-52480000D03*
D12*
%TO.P,U1,29*%
%TO.N,AGND*%
X40880000Y-49940000D03*
%TO.P,U1,30*%
%TO.N,POT1*%
X40880000Y-47400000D03*
%TO.P,U1,31*%
%TO.N,POT2*%
X40880000Y-44860000D03*
%TO.P,U1,32*%
%TO.N,N/C*%
X40880000Y-42320000D03*
D18*
%TO.P,U1,33*%
X40880000Y-39780000D03*
D12*
%TO.P,U1,34*%
X40880000Y-37240000D03*
%TO.P,U1,35*%
%TO.N,GND*%
X40880000Y-34700000D03*
%TO.P,U1,36*%
%TO.N,+3V3*%
X40880000Y-32160000D03*
%TO.P,U1,37*%
%TO.N,N/C*%
X40880000Y-29620000D03*
D18*
%TO.P,U1,38*%
%TO.N,GND*%
X40880000Y-27080000D03*
D12*
%TO.P,U1,39*%
%TO.N,N/C*%
X40880000Y-24540000D03*
%TO.P,U1,40*%
%TO.N,+5V*%
X40880000Y-22000000D03*
%TD*%
%TO.P,C4,1*%
%TO.N,POT2*%
X55000000Y-55000000D03*
%TO.P,C4,2*%
%TO.N,AGND*%
X60000000Y-55000000D03*
%TD*%
D19*
%TO.P,J6,1*%
%TO.N,+3V3*%
X34160000Y-90000000D03*
D20*
%TO.P,J6,2*%
%TO.N,POT2*%
X36700000Y-90000000D03*
%TO.P,J6,3*%
%TO.N,AGND*%
X39240000Y-90000000D03*
%TD*%
D12*
%TO.P,R2,1*%
%TO.N,VIDEO*%
X55000000Y-68000000D03*
%TO.P,R2,2*%
%TO.N,COMPOSITE*%
X57540000Y-68000000D03*
%TD*%
%TO.P,C1,1*%
%TO.N,AUD_F*%
X55000000Y-81000000D03*
%TO.P,C1,2*%
%TO.N,GND*%
X60000000Y-81000000D03*
%TD*%
D19*
%TO.P,J5,1*%
%TO.N,+3V3*%
X24000000Y-90000000D03*
D20*
%TO.P,J5,2*%
%TO.N,POT1*%
X26540000Y-90000000D03*
%TO.P,J5,3*%
%TO.N,AGND*%
X29080000Y-90000000D03*
%TD*%
D19*
%TO.P,J7,1*%
%TO.N,START*%
X33500000Y-102000000D03*
D20*
%TO.P,J7,2*%
%TO.N,GND*%
X36040000Y-102000000D03*
%TD*%
D12*
%TO.P,R4,1*%
%TO.N,AUD_C*%
X61000000Y-96000000D03*
%TO.P,R4,2*%
%TO.N,LINHA*%
X63540000Y-96000000D03*
%TD*%
D19*
%TO.P,J4,1*%
%TO.N,RCA_C*%
X24000000Y-78000000D03*
D20*
%TO.P,J4,2*%
%TO.N,RCA_S*%
X26540000Y-78000000D03*
%TO.P,J4,3*%
%TO.N,LINHA*%
X29080000Y-78000000D03*
%TO.P,J4,4*%
%TO.N,GND*%
X31620000Y-78000000D03*
%TO.P,J4,5*%
%TO.N,LOUT_P*%
X34160000Y-78000000D03*
%TO.P,J4,6*%
%TO.N,LOUT_N*%
X36700000Y-78000000D03*
%TD*%
D12*
%TO.P,C3,1*%
%TO.N,POT1*%
X55000000Y-48000000D03*
%TO.P,C3,2*%
%TO.N,AGND*%
X60000000Y-48000000D03*
%TD*%
D21*
%TO.P,C2,1*%
%TO.N,AUD_F*%
X52500000Y-89000000D03*
D12*
%TO.P,C2,2*%
%TO.N,AUD_C*%
X55000000Y-89000000D03*
%TD*%
%TO.P,R6,1*%
%TO.N,AUD_C*%
X55000000Y-96000000D03*
%TO.P,R6,2*%
%TO.N,AMP_L*%
X57540000Y-96000000D03*
%TD*%
D13*
%TO.P,J9,1*%
%TO.N,RCA_C*%
X67500000Y-83500000D03*
D14*
%TO.P,J9,2*%
%TO.N,RCA_S*%
X67500000Y-78500000D03*
D15*
X72500000Y-83500000D03*
D14*
X67500000Y-88500000D03*
%TD*%
D22*
%TO.N,LOUT_P*%
X43238400Y-77074200D03*
%TO.N,LOUT_N*%
X53920000Y-77484400D03*
%TO.N,POT2*%
X42541300Y-89038400D03*
%TD*%
%TO.N,LOUT_P*%
D23*
X43238400Y-50141600D02*
X51380000Y-42000000D01*
X43238400Y-77074200D02*
X43238400Y-50141600D01*
%TO.N,LOUT_N*%
X53920000Y-42000000D02*
X53920000Y-77484400D01*
%TO.N,AMP_L*%
X62320100Y-46299900D02*
X62320100Y-91219900D01*
X66620000Y-42000000D02*
X62320100Y-46299900D01*
X62320100Y-91219900D02*
X57540000Y-96000000D01*
%TO.N,AMP_R*%
X64477600Y-90583000D02*
X59270100Y-95790500D01*
X71700000Y-44887600D02*
X64477600Y-52110000D01*
X64477600Y-52110000D02*
X64477600Y-90583000D01*
X59270100Y-100269900D02*
X57540000Y-102000000D01*
X71700000Y-42000000D02*
X71700000Y-44887600D01*
X59270100Y-95790500D02*
X59270100Y-100269900D01*
%TO.N,AUD_C*%
X55000000Y-89000000D02*
X55000000Y-96000000D01*
X55000000Y-96000000D02*
X55000000Y-102000000D01*
%TO.N,COMPOSITE*%
X57540000Y-68000000D02*
X57540000Y-62000000D01*
%TO.N,RCA_C*%
X69517000Y-69517000D02*
X67500000Y-67500000D01*
X69517000Y-81483000D02*
X69517000Y-69517000D01*
X67500000Y-83500000D02*
X69517000Y-81483000D01*
%TO.N,RCA_S*%
X67500000Y-78500000D02*
X67500000Y-72500000D01*
%TO.N,AUD_F*%
X57540000Y-74000000D02*
X57540000Y-78460000D01*
X52500000Y-89000000D02*
X52500000Y-83500000D01*
X52500000Y-83500000D02*
X55000000Y-81000000D01*
X57540000Y-78460000D02*
X55000000Y-81000000D01*
%TO.N,START*%
X36543100Y-103126700D02*
X35471600Y-103126700D01*
X41576900Y-84549500D02*
X37918400Y-88208000D01*
X41977100Y-61197100D02*
X41977100Y-75422200D01*
X41576900Y-75822400D02*
X41576900Y-84549500D01*
X34626700Y-102281800D02*
X34626700Y-102000000D01*
X37918400Y-101751400D02*
X36543100Y-103126700D01*
X33500000Y-102000000D02*
X34626700Y-102000000D01*
X35471600Y-103126700D02*
X34626700Y-102281800D01*
X41977100Y-75422200D02*
X41576900Y-75822400D01*
X37918400Y-88208000D02*
X37918400Y-101751400D01*
X40880000Y-60100000D02*
X41977100Y-61197100D01*
%TO.N,AGND*%
X41978600Y-87261400D02*
X39240000Y-90000000D01*
X41978600Y-75988800D02*
X41978600Y-87261400D01*
X42378800Y-51438800D02*
X42378800Y-75588600D01*
X42378800Y-75588600D02*
X41978600Y-75988800D01*
X40880000Y-49940000D02*
X42378800Y-51438800D01*
X60000000Y-55000000D02*
X60000000Y-48000000D01*
%TO.N,POT2*%
X42541300Y-76194400D02*
X42831200Y-75904500D01*
X42541300Y-89038400D02*
X42541300Y-76194400D01*
X42831200Y-46811200D02*
X40880000Y-44860000D01*
X42831200Y-75904500D02*
X42831200Y-46811200D01*
%TO.N,+3V3*%
X34160000Y-88873300D02*
X39415100Y-83618200D01*
X39415200Y-33624800D02*
X40880000Y-32160000D01*
X39415100Y-83618200D02*
X39415100Y-33624800D01*
X39415100Y-33624800D02*
X39415200Y-33624800D01*
X34160000Y-90000000D02*
X34160000Y-88873300D01*
%TD*%
%TA.AperFunction,Conductor*%
%TO.N,GND*%
G36*
X74442539Y-20520185D02*
G01*
X74488294Y-20572989D01*
X74499500Y-20624500D01*
X74499500Y-107375500D01*
X74479815Y-107442539D01*
X74427011Y-107488294D01*
X74375500Y-107499500D01*
X20624500Y-107499500D01*
X20557461Y-107479815D01*
X20511706Y-107427011D01*
X20500500Y-107375500D01*
X20500500Y-103878711D01*
X23149500Y-103878711D01*
X23149500Y-104121288D01*
X23181161Y-104361785D01*
X23243947Y-104596104D01*
X23336773Y-104820205D01*
X23336776Y-104820212D01*
X23458064Y-105030289D01*
X23458066Y-105030292D01*
X23458067Y-105030293D01*
X23605733Y-105222736D01*
X23605739Y-105222743D01*
X23777256Y-105394260D01*
X23777262Y-105394265D01*
X23969711Y-105541936D01*
X24179788Y-105663224D01*
X24403900Y-105756054D01*
X24638211Y-105818838D01*
X24818586Y-105842584D01*
X24878711Y-105850500D01*
X24878712Y-105850500D01*
X25121289Y-105850500D01*
X25169388Y-105844167D01*
X25361789Y-105818838D01*
X25596100Y-105756054D01*
X25820212Y-105663224D01*
X26030289Y-105541936D01*
X26222738Y-105394265D01*
X26394265Y-105222738D01*
X26541936Y-105030289D01*
X26663224Y-104820212D01*
X26756054Y-104596100D01*
X26818838Y-104361789D01*
X26850500Y-104121288D01*
X26850500Y-103878712D01*
X26850500Y-103878711D01*
X45649500Y-103878711D01*
X45649500Y-104121288D01*
X45681161Y-104361785D01*
X45743947Y-104596104D01*
X45836773Y-104820205D01*
X45836776Y-104820212D01*
X45958064Y-105030289D01*
X45958066Y-105030292D01*
X45958067Y-105030293D01*
X46105733Y-105222736D01*
X46105739Y-105222743D01*
X46277256Y-105394260D01*
X46277262Y-105394265D01*
X46469711Y-105541936D01*
X46679788Y-105663224D01*
X46903900Y-105756054D01*
X47138211Y-105818838D01*
X47318586Y-105842584D01*
X47378711Y-105850500D01*
X47378712Y-105850500D01*
X47621289Y-105850500D01*
X47669388Y-105844167D01*
X47861789Y-105818838D01*
X48096100Y-105756054D01*
X48320212Y-105663224D01*
X48530289Y-105541936D01*
X48722738Y-105394265D01*
X48894265Y-105222738D01*
X49041936Y-105030289D01*
X49163224Y-104820212D01*
X49256054Y-104596100D01*
X49318838Y-104361789D01*
X49350500Y-104121288D01*
X49350500Y-103878712D01*
X49350500Y-103878711D01*
X68149500Y-103878711D01*
X68149500Y-104121288D01*
X68181161Y-104361785D01*
X68243947Y-104596104D01*
X68336773Y-104820205D01*
X68336776Y-104820212D01*
X68458064Y-105030289D01*
X68458066Y-105030292D01*
X68458067Y-105030293D01*
X68605733Y-105222736D01*
X68605739Y-105222743D01*
X68777256Y-105394260D01*
X68777262Y-105394265D01*
X68969711Y-105541936D01*
X69179788Y-105663224D01*
X69403900Y-105756054D01*
X69638211Y-105818838D01*
X69818586Y-105842584D01*
X69878711Y-105850500D01*
X69878712Y-105850500D01*
X70121289Y-105850500D01*
X70169388Y-105844167D01*
X70361789Y-105818838D01*
X70596100Y-105756054D01*
X70820212Y-105663224D01*
X71030289Y-105541936D01*
X71222738Y-105394265D01*
X71394265Y-105222738D01*
X71541936Y-105030289D01*
X71663224Y-104820212D01*
X71756054Y-104596100D01*
X71818838Y-104361789D01*
X71850500Y-104121288D01*
X71850500Y-103878712D01*
X71818838Y-103638211D01*
X71756054Y-103403900D01*
X71663224Y-103179788D01*
X71541936Y-102969711D01*
X71394265Y-102777262D01*
X71394260Y-102777256D01*
X71222743Y-102605739D01*
X71222736Y-102605733D01*
X71030293Y-102458067D01*
X71030292Y-102458066D01*
X71030289Y-102458064D01*
X70820212Y-102336776D01*
X70820205Y-102336773D01*
X70596104Y-102243947D01*
X70478944Y-102212554D01*
X70361789Y-102181162D01*
X70361788Y-102181161D01*
X70361785Y-102181161D01*
X70121289Y-102149500D01*
X70121288Y-102149500D01*
X69878712Y-102149500D01*
X69878711Y-102149500D01*
X69638214Y-102181161D01*
X69403895Y-102243947D01*
X69179794Y-102336773D01*
X69179785Y-102336777D01*
X68969706Y-102458067D01*
X68777263Y-102605733D01*
X68777256Y-102605739D01*
X68605739Y-102777256D01*
X68605733Y-102777263D01*
X68458067Y-102969706D01*
X68336777Y-103179785D01*
X68336773Y-103179794D01*
X68243947Y-103403895D01*
X68181161Y-103638214D01*
X68149500Y-103878711D01*
X49350500Y-103878711D01*
X49318838Y-103638211D01*
X49256054Y-103403900D01*
X49163224Y-103179788D01*
X49041936Y-102969711D01*
X48894265Y-102777262D01*
X48894260Y-102777256D01*
X48722743Y-102605739D01*
X48722736Y-102605733D01*
X48530293Y-102458067D01*
X48530292Y-102458066D01*
X48530289Y-102458064D01*
X48320212Y-102336776D01*
X48320205Y-102336773D01*
X48096104Y-102243947D01*
X47978944Y-102212554D01*
X47861789Y-102181162D01*
X47861788Y-102181161D01*
X47861785Y-102181161D01*
X47621289Y-102149500D01*
X47621288Y-102149500D01*
X47378712Y-102149500D01*
X47378711Y-102149500D01*
X47138214Y-102181161D01*
X46903895Y-102243947D01*
X46679794Y-102336773D01*
X46679785Y-102336777D01*
X46469706Y-102458067D01*
X46277263Y-102605733D01*
X46277256Y-102605739D01*
X46105739Y-102777256D01*
X46105733Y-102777263D01*
X45958067Y-102969706D01*
X45836777Y-103179785D01*
X45836773Y-103179794D01*
X45743947Y-103403895D01*
X45681161Y-103638214D01*
X45649500Y-103878711D01*
X26850500Y-103878711D01*
X26818838Y-103638211D01*
X26756054Y-103403900D01*
X26663224Y-103179788D01*
X26541936Y-102969711D01*
X26394265Y-102777262D01*
X26394260Y-102777256D01*
X26222743Y-102605739D01*
X26222736Y-102605733D01*
X26030293Y-102458067D01*
X26030292Y-102458066D01*
X26030289Y-102458064D01*
X25820212Y-102336776D01*
X25820205Y-102336773D01*
X25596104Y-102243947D01*
X25478944Y-102212554D01*
X25361789Y-102181162D01*
X25361788Y-102181161D01*
X25361785Y-102181161D01*
X25121289Y-102149500D01*
X25121288Y-102149500D01*
X24878712Y-102149500D01*
X24878711Y-102149500D01*
X24638214Y-102181161D01*
X24403895Y-102243947D01*
X24179794Y-102336773D01*
X24179785Y-102336777D01*
X23969706Y-102458067D01*
X23777263Y-102605733D01*
X23777256Y-102605739D01*
X23605739Y-102777256D01*
X23605733Y-102777263D01*
X23458067Y-102969706D01*
X23336777Y-103179785D01*
X23336773Y-103179794D01*
X23243947Y-103403895D01*
X23181161Y-103638214D01*
X23149500Y-103878711D01*
X20500500Y-103878711D01*
X20500500Y-89130247D01*
X22949500Y-89130247D01*
X22949500Y-90869752D01*
X22961131Y-90928229D01*
X22961132Y-90928230D01*
X23005447Y-90994552D01*
X23071769Y-91038867D01*
X23071770Y-91038868D01*
X23130247Y-91050499D01*
X23130250Y-91050500D01*
X23130252Y-91050500D01*
X24869750Y-91050500D01*
X24869751Y-91050499D01*
X24884568Y-91047552D01*
X24928229Y-91038868D01*
X24928229Y-91038867D01*
X24928231Y-91038867D01*
X24994552Y-90994552D01*
X25038867Y-90928231D01*
X25038867Y-90928229D01*
X25038868Y-90928229D01*
X25050499Y-90869752D01*
X25050500Y-90869750D01*
X25050500Y-89896530D01*
X25489500Y-89896530D01*
X25489500Y-90103469D01*
X25529868Y-90306412D01*
X25529870Y-90306420D01*
X25609059Y-90497598D01*
X25666541Y-90583626D01*
X25724024Y-90669657D01*
X25870342Y-90815975D01*
X25870345Y-90815977D01*
X26042402Y-90930941D01*
X26233580Y-91010130D01*
X26378052Y-91038867D01*
X26436530Y-91050499D01*
X26436534Y-91050500D01*
X26436535Y-91050500D01*
X26643466Y-91050500D01*
X26643467Y-91050499D01*
X26846420Y-91010130D01*
X27037598Y-90930941D01*
X27209655Y-90815977D01*
X27355977Y-90669655D01*
X27470941Y-90497598D01*
X27550130Y-90306420D01*
X27590500Y-90103465D01*
X27590500Y-89896535D01*
X27590499Y-89896530D01*
X28029500Y-89896530D01*
X28029500Y-90103469D01*
X28069868Y-90306412D01*
X28069870Y-90306420D01*
X28149059Y-90497598D01*
X28206541Y-90583626D01*
X28264024Y-90669657D01*
X28410342Y-90815975D01*
X28410345Y-90815977D01*
X28582402Y-90930941D01*
X28773580Y-91010130D01*
X28918052Y-91038867D01*
X28976530Y-91050499D01*
X28976534Y-91050500D01*
X28976535Y-91050500D01*
X29183466Y-91050500D01*
X29183467Y-91050499D01*
X29386420Y-91010130D01*
X29577598Y-90930941D01*
X29749655Y-90815977D01*
X29895977Y-90669655D01*
X30010941Y-90497598D01*
X30090130Y-90306420D01*
X30130500Y-90103465D01*
X30130500Y-89896535D01*
X30090130Y-89693580D01*
X30010941Y-89502402D01*
X29895977Y-89330345D01*
X29895975Y-89330342D01*
X29749657Y-89184024D01*
X29663626Y-89126541D01*
X29577598Y-89069059D01*
X29558516Y-89061155D01*
X29386420Y-88989870D01*
X29386412Y-88989868D01*
X29183469Y-88949500D01*
X29183465Y-88949500D01*
X28976535Y-88949500D01*
X28976530Y-88949500D01*
X28773587Y-88989868D01*
X28773579Y-88989870D01*
X28582403Y-89069058D01*
X28410342Y-89184024D01*
X28264024Y-89330342D01*
X28149058Y-89502403D01*
X28069870Y-89693579D01*
X28069868Y-89693587D01*
X28029500Y-89896530D01*
X27590499Y-89896530D01*
X27550130Y-89693580D01*
X27470941Y-89502402D01*
X27355977Y-89330345D01*
X27355975Y-89330342D01*
X27209657Y-89184024D01*
X27123626Y-89126541D01*
X27037598Y-89069059D01*
X27018516Y-89061155D01*
X26846420Y-88989870D01*
X26846412Y-88989868D01*
X26643469Y-88949500D01*
X26643465Y-88949500D01*
X26436535Y-88949500D01*
X26436530Y-88949500D01*
X26233587Y-88989868D01*
X26233579Y-88989870D01*
X26042403Y-89069058D01*
X25870342Y-89184024D01*
X25724024Y-89330342D01*
X25609058Y-89502403D01*
X25529870Y-89693579D01*
X25529868Y-89693587D01*
X25489500Y-89896530D01*
X25050500Y-89896530D01*
X25050500Y-89130249D01*
X25050499Y-89130247D01*
X25038868Y-89071770D01*
X25038867Y-89071769D01*
X24994552Y-89005447D01*
X24928230Y-88961132D01*
X24928229Y-88961131D01*
X24869752Y-88949500D01*
X24869748Y-88949500D01*
X23130252Y-88949500D01*
X23130247Y-88949500D01*
X23071770Y-88961131D01*
X23071769Y-88961132D01*
X23005447Y-89005447D01*
X22961132Y-89071769D01*
X22961131Y-89071770D01*
X22949500Y-89130247D01*
X20500500Y-89130247D01*
X20500500Y-77130247D01*
X22949500Y-77130247D01*
X22949500Y-78869752D01*
X22961131Y-78928229D01*
X22961132Y-78928230D01*
X23005447Y-78994552D01*
X23071769Y-79038867D01*
X23071770Y-79038868D01*
X23130247Y-79050499D01*
X23130250Y-79050500D01*
X23130252Y-79050500D01*
X24869750Y-79050500D01*
X24869751Y-79050499D01*
X24884568Y-79047552D01*
X24928229Y-79038868D01*
X24928229Y-79038867D01*
X24928231Y-79038867D01*
X24994552Y-78994552D01*
X25038867Y-78928231D01*
X25038867Y-78928229D01*
X25038868Y-78928229D01*
X25050499Y-78869752D01*
X25050500Y-78869750D01*
X25050500Y-77896530D01*
X25489500Y-77896530D01*
X25489500Y-78103469D01*
X25529868Y-78306412D01*
X25529870Y-78306420D01*
X25595939Y-78465925D01*
X25609059Y-78497598D01*
X25666541Y-78583626D01*
X25724024Y-78669657D01*
X25870342Y-78815975D01*
X25870345Y-78815977D01*
X26042402Y-78930941D01*
X26233580Y-79010130D01*
X26378052Y-79038867D01*
X26436530Y-79050499D01*
X26436534Y-79050500D01*
X26436535Y-79050500D01*
X26643466Y-79050500D01*
X26643467Y-79050499D01*
X26846420Y-79010130D01*
X27037598Y-78930941D01*
X27209655Y-78815977D01*
X27355977Y-78669655D01*
X27470941Y-78497598D01*
X27550130Y-78306420D01*
X27590500Y-78103465D01*
X27590500Y-77896535D01*
X27590499Y-77896530D01*
X28029500Y-77896530D01*
X28029500Y-78103469D01*
X28069868Y-78306412D01*
X28069870Y-78306420D01*
X28135939Y-78465925D01*
X28149059Y-78497598D01*
X28206541Y-78583626D01*
X28264024Y-78669657D01*
X28410342Y-78815975D01*
X28410345Y-78815977D01*
X28582402Y-78930941D01*
X28773580Y-79010130D01*
X28918052Y-79038867D01*
X28976530Y-79050499D01*
X28976534Y-79050500D01*
X28976535Y-79050500D01*
X29183466Y-79050500D01*
X29183467Y-79050499D01*
X29386420Y-79010130D01*
X29577598Y-78930941D01*
X29749655Y-78815977D01*
X29749658Y-78815974D01*
X29758243Y-78807390D01*
X29895974Y-78669658D01*
X29895975Y-78669657D01*
X29895977Y-78669655D01*
X30010941Y-78497598D01*
X30090130Y-78306420D01*
X30130500Y-78103465D01*
X30130500Y-77909493D01*
X30470000Y-77909493D01*
X30470000Y-78090506D01*
X30498317Y-78269293D01*
X30554251Y-78441444D01*
X30554252Y-78441447D01*
X30636434Y-78602734D01*
X30677667Y-78659487D01*
X30677668Y-78659487D01*
X31151980Y-78185176D01*
X31154075Y-78192993D01*
X31219901Y-78307007D01*
X31312993Y-78400099D01*
X31427007Y-78465925D01*
X31434822Y-78468019D01*
X30960510Y-78942330D01*
X30960511Y-78942331D01*
X31017265Y-78983565D01*
X31178552Y-79065747D01*
X31178555Y-79065748D01*
X31350706Y-79121682D01*
X31529494Y-79150000D01*
X31710506Y-79150000D01*
X31889293Y-79121682D01*
X32061444Y-79065748D01*
X32061447Y-79065747D01*
X32222730Y-78983568D01*
X32279487Y-78942330D01*
X32279488Y-78942329D01*
X31805178Y-78468019D01*
X31812993Y-78465925D01*
X31927007Y-78400099D01*
X32020099Y-78307007D01*
X32085925Y-78192993D01*
X32088019Y-78185177D01*
X32562329Y-78659488D01*
X32562330Y-78659487D01*
X32603568Y-78602730D01*
X32685747Y-78441447D01*
X32685748Y-78441444D01*
X32741682Y-78269293D01*
X32770000Y-78090506D01*
X32770000Y-77909493D01*
X32767947Y-77896530D01*
X33109500Y-77896530D01*
X33109500Y-78103469D01*
X33149868Y-78306412D01*
X33149870Y-78306420D01*
X33215939Y-78465925D01*
X33229059Y-78497598D01*
X33286541Y-78583626D01*
X33344024Y-78669657D01*
X33490342Y-78815975D01*
X33490345Y-78815977D01*
X33662402Y-78930941D01*
X33853580Y-79010130D01*
X33998052Y-79038867D01*
X34056530Y-79050499D01*
X34056534Y-79050500D01*
X34056535Y-79050500D01*
X34263466Y-79050500D01*
X34263467Y-79050499D01*
X34466420Y-79010130D01*
X34657598Y-78930941D01*
X34829655Y-78815977D01*
X34975977Y-78669655D01*
X35090941Y-78497598D01*
X35170130Y-78306420D01*
X35210500Y-78103465D01*
X35210500Y-77896535D01*
X35210499Y-77896530D01*
X35649500Y-77896530D01*
X35649500Y-78103469D01*
X35689868Y-78306412D01*
X35689870Y-78306420D01*
X35755939Y-78465925D01*
X35769059Y-78497598D01*
X35826541Y-78583626D01*
X35884024Y-78669657D01*
X36030342Y-78815975D01*
X36030345Y-78815977D01*
X36202402Y-78930941D01*
X36393580Y-79010130D01*
X36538052Y-79038867D01*
X36596530Y-79050499D01*
X36596534Y-79050500D01*
X36596535Y-79050500D01*
X36803466Y-79050500D01*
X36803467Y-79050499D01*
X37006420Y-79010130D01*
X37197598Y-78930941D01*
X37369655Y-78815977D01*
X37515977Y-78669655D01*
X37630941Y-78497598D01*
X37710130Y-78306420D01*
X37750500Y-78103465D01*
X37750500Y-77896535D01*
X37710130Y-77693580D01*
X37630941Y-77502402D01*
X37515977Y-77330345D01*
X37515975Y-77330342D01*
X37369657Y-77184024D01*
X37283626Y-77126541D01*
X37197598Y-77069059D01*
X37170095Y-77057667D01*
X37006420Y-76989870D01*
X37006412Y-76989868D01*
X36803469Y-76949500D01*
X36803465Y-76949500D01*
X36596535Y-76949500D01*
X36596530Y-76949500D01*
X36393587Y-76989868D01*
X36393579Y-76989870D01*
X36202403Y-77069058D01*
X36030342Y-77184024D01*
X35884024Y-77330342D01*
X35769058Y-77502403D01*
X35689870Y-77693579D01*
X35689868Y-77693587D01*
X35649500Y-77896530D01*
X35210499Y-77896530D01*
X35170130Y-77693580D01*
X35090941Y-77502402D01*
X34975977Y-77330345D01*
X34975975Y-77330342D01*
X34829657Y-77184024D01*
X34743626Y-77126541D01*
X34657598Y-77069059D01*
X34630095Y-77057667D01*
X34466420Y-76989870D01*
X34466412Y-76989868D01*
X34263469Y-76949500D01*
X34263465Y-76949500D01*
X34056535Y-76949500D01*
X34056530Y-76949500D01*
X33853587Y-76989868D01*
X33853579Y-76989870D01*
X33662403Y-77069058D01*
X33490342Y-77184024D01*
X33344024Y-77330342D01*
X33229058Y-77502403D01*
X33149870Y-77693579D01*
X33149868Y-77693587D01*
X33109500Y-77896530D01*
X32767947Y-77896530D01*
X32741682Y-77730706D01*
X32685748Y-77558555D01*
X32685747Y-77558552D01*
X32603565Y-77397265D01*
X32562331Y-77340511D01*
X32562330Y-77340510D01*
X32088018Y-77814821D01*
X32085925Y-77807007D01*
X32020099Y-77692993D01*
X31927007Y-77599901D01*
X31812993Y-77534075D01*
X31805176Y-77531980D01*
X32279487Y-77057668D01*
X32279487Y-77057667D01*
X32222734Y-77016434D01*
X32061447Y-76934252D01*
X32061444Y-76934251D01*
X31889293Y-76878317D01*
X31710506Y-76850000D01*
X31529494Y-76850000D01*
X31350706Y-76878317D01*
X31178555Y-76934251D01*
X31178552Y-76934252D01*
X31017270Y-77016431D01*
X31017268Y-77016432D01*
X30960511Y-77057667D01*
X30960511Y-77057668D01*
X31434823Y-77531980D01*
X31427007Y-77534075D01*
X31312993Y-77599901D01*
X31219901Y-77692993D01*
X31154075Y-77807007D01*
X31151980Y-77814823D01*
X30677668Y-77340511D01*
X30677667Y-77340511D01*
X30636432Y-77397268D01*
X30636431Y-77397270D01*
X30554252Y-77558552D01*
X30554251Y-77558555D01*
X30498317Y-77730706D01*
X30470000Y-77909493D01*
X30130500Y-77909493D01*
X30130500Y-77896535D01*
X30090130Y-77693580D01*
X30010941Y-77502402D01*
X29895977Y-77330345D01*
X29895975Y-77330342D01*
X29749657Y-77184024D01*
X29663626Y-77126541D01*
X29577598Y-77069059D01*
X29550095Y-77057667D01*
X29386420Y-76989870D01*
X29386412Y-76989868D01*
X29183469Y-76949500D01*
X29183465Y-76949500D01*
X28976535Y-76949500D01*
X28976530Y-76949500D01*
X28773587Y-76989868D01*
X28773579Y-76989870D01*
X28582403Y-77069058D01*
X28410342Y-77184024D01*
X28264024Y-77330342D01*
X28149058Y-77502403D01*
X28069870Y-77693579D01*
X28069868Y-77693587D01*
X28029500Y-77896530D01*
X27590499Y-77896530D01*
X27550130Y-77693580D01*
X27470941Y-77502402D01*
X27355977Y-77330345D01*
X27355975Y-77330342D01*
X27209657Y-77184024D01*
X27123626Y-77126541D01*
X27037598Y-77069059D01*
X27010095Y-77057667D01*
X26846420Y-76989870D01*
X26846412Y-76989868D01*
X26643469Y-76949500D01*
X26643465Y-76949500D01*
X26436535Y-76949500D01*
X26436530Y-76949500D01*
X26233587Y-76989868D01*
X26233579Y-76989870D01*
X26042403Y-77069058D01*
X25870342Y-77184024D01*
X25724024Y-77330342D01*
X25609058Y-77502403D01*
X25529870Y-77693579D01*
X25529868Y-77693587D01*
X25489500Y-77896530D01*
X25050500Y-77896530D01*
X25050500Y-77130249D01*
X25050499Y-77130247D01*
X25038868Y-77071770D01*
X25038867Y-77071769D01*
X24994552Y-77005447D01*
X24928230Y-76961132D01*
X24928229Y-76961131D01*
X24869752Y-76949500D01*
X24869748Y-76949500D01*
X23130252Y-76949500D01*
X23130247Y-76949500D01*
X23071770Y-76961131D01*
X23071769Y-76961132D01*
X23005447Y-77005447D01*
X22961132Y-77071769D01*
X22961131Y-77071770D01*
X22949500Y-77130247D01*
X20500500Y-77130247D01*
X20500500Y-70358543D01*
X22099499Y-70358543D01*
X22137947Y-70551829D01*
X22137950Y-70551839D01*
X22213364Y-70733907D01*
X22213371Y-70733920D01*
X22322860Y-70897781D01*
X22322863Y-70897785D01*
X22462214Y-71037136D01*
X22462218Y-71037139D01*
X22626079Y-71146628D01*
X22626092Y-71146635D01*
X22808160Y-71222049D01*
X22808165Y-71222051D01*
X22808169Y-71222051D01*
X22808170Y-71222052D01*
X23001456Y-71260500D01*
X23001459Y-71260500D01*
X23198543Y-71260500D01*
X23328582Y-71234632D01*
X23391835Y-71222051D01*
X23573914Y-71146632D01*
X23737782Y-71037139D01*
X23877139Y-70897782D01*
X23986632Y-70733914D01*
X24062051Y-70551835D01*
X24100500Y-70358541D01*
X24100500Y-70161459D01*
X24100500Y-70161456D01*
X24062052Y-69968170D01*
X24062051Y-69968169D01*
X24062051Y-69968165D01*
X24062049Y-69968160D01*
X23986635Y-69786092D01*
X23986628Y-69786079D01*
X23877139Y-69622218D01*
X23877136Y-69622214D01*
X23737785Y-69482863D01*
X23737781Y-69482860D01*
X23573920Y-69373371D01*
X23573907Y-69373364D01*
X23391839Y-69297950D01*
X23391829Y-69297947D01*
X23198543Y-69259500D01*
X23198541Y-69259500D01*
X23001459Y-69259500D01*
X23001457Y-69259500D01*
X22808170Y-69297947D01*
X22808160Y-69297950D01*
X22626092Y-69373364D01*
X22626079Y-69373371D01*
X22462218Y-69482860D01*
X22462214Y-69482863D01*
X22322863Y-69622214D01*
X22322860Y-69622218D01*
X22213371Y-69786079D01*
X22213364Y-69786092D01*
X22137950Y-69968160D01*
X22137947Y-69968170D01*
X22099500Y-70161456D01*
X22099500Y-70161459D01*
X22099500Y-70358541D01*
X22099500Y-70358543D01*
X22099499Y-70358543D01*
X20500500Y-70358543D01*
X20500500Y-67818543D01*
X22099499Y-67818543D01*
X22137947Y-68011829D01*
X22137950Y-68011839D01*
X22213364Y-68193907D01*
X22213371Y-68193920D01*
X22322860Y-68357781D01*
X22322863Y-68357785D01*
X22462214Y-68497136D01*
X22462218Y-68497139D01*
X22626079Y-68606628D01*
X22626092Y-68606635D01*
X22755945Y-68660421D01*
X22808165Y-68682051D01*
X22808169Y-68682051D01*
X22808170Y-68682052D01*
X23001456Y-68720500D01*
X23001459Y-68720500D01*
X23198543Y-68720500D01*
X23328582Y-68694632D01*
X23391835Y-68682051D01*
X23573914Y-68606632D01*
X23737782Y-68497139D01*
X23877139Y-68357782D01*
X23986632Y-68193914D01*
X24002218Y-68156287D01*
X24012009Y-68132649D01*
X24062051Y-68011835D01*
X24074632Y-67948582D01*
X24100500Y-67818543D01*
X24100500Y-67621456D01*
X24062052Y-67428170D01*
X24062051Y-67428169D01*
X24062051Y-67428165D01*
X24042891Y-67381908D01*
X23986635Y-67246092D01*
X23986628Y-67246079D01*
X23877139Y-67082218D01*
X23877136Y-67082214D01*
X23737785Y-66942863D01*
X23737781Y-66942860D01*
X23573920Y-66833371D01*
X23573907Y-66833364D01*
X23391839Y-66757950D01*
X23391829Y-66757947D01*
X23198543Y-66719500D01*
X23198541Y-66719500D01*
X23001459Y-66719500D01*
X23001457Y-66719500D01*
X22808170Y-66757947D01*
X22808160Y-66757950D01*
X22626092Y-66833364D01*
X22626079Y-66833371D01*
X22462218Y-66942860D01*
X22462214Y-66942863D01*
X22322863Y-67082214D01*
X22322860Y-67082218D01*
X22213371Y-67246079D01*
X22213364Y-67246092D01*
X22137950Y-67428160D01*
X22137947Y-67428170D01*
X22099500Y-67621456D01*
X22099500Y-67621459D01*
X22099500Y-67818541D01*
X22099500Y-67818543D01*
X22099499Y-67818543D01*
X20500500Y-67818543D01*
X20500500Y-65101211D01*
X22094500Y-65101211D01*
X22094500Y-65258788D01*
X22098449Y-65298884D01*
X22129192Y-65453442D01*
X22140887Y-65491997D01*
X22185417Y-65599500D01*
X22201192Y-65637584D01*
X22220182Y-65673112D01*
X22220187Y-65673120D01*
X22220192Y-65673128D01*
X22307725Y-65804131D01*
X22307729Y-65804136D01*
X22307732Y-65804140D01*
X22333289Y-65835280D01*
X22444720Y-65946711D01*
X22475860Y-65972268D01*
X22475863Y-65972270D01*
X22475868Y-65972274D01*
X22606871Y-66059807D01*
X22606874Y-66059809D01*
X22606888Y-66059818D01*
X22642416Y-66078808D01*
X22788007Y-66139114D01*
X22826559Y-66150808D01*
X22981117Y-66181551D01*
X23021207Y-66185500D01*
X23021212Y-66185500D01*
X23739783Y-66185500D01*
X23739783Y-66185499D01*
X23818423Y-66169858D01*
X23864415Y-66150808D01*
X23891925Y-66139413D01*
X23891925Y-66139412D01*
X23891932Y-66139410D01*
X23958601Y-66094862D01*
X24014862Y-66038601D01*
X24059410Y-65971932D01*
X24089858Y-65898423D01*
X24105500Y-65819782D01*
X24105500Y-64540218D01*
X24089858Y-64461577D01*
X24089855Y-64461571D01*
X24089854Y-64461566D01*
X24059413Y-64388074D01*
X24059411Y-64388071D01*
X24059410Y-64388068D01*
X24014862Y-64321399D01*
X23958601Y-64265138D01*
X23891932Y-64220590D01*
X23891929Y-64220588D01*
X23891925Y-64220586D01*
X23818433Y-64190145D01*
X23818417Y-64190140D01*
X23739785Y-64174500D01*
X23739782Y-64174500D01*
X23021207Y-64174500D01*
X22992571Y-64177320D01*
X22981115Y-64178449D01*
X22826557Y-64209192D01*
X22788002Y-64220887D01*
X22642422Y-64281189D01*
X22642415Y-64281192D01*
X22614182Y-64296282D01*
X22606888Y-64300182D01*
X22606885Y-64300183D01*
X22606871Y-64300192D01*
X22475868Y-64387725D01*
X22475863Y-64387729D01*
X22444720Y-64413288D01*
X22333288Y-64524720D01*
X22307729Y-64555863D01*
X22307725Y-64555868D01*
X22220192Y-64686871D01*
X22220180Y-64686892D01*
X22201192Y-64722415D01*
X22201189Y-64722422D01*
X22140887Y-64868002D01*
X22129192Y-64906557D01*
X22098449Y-65061115D01*
X22094500Y-65101211D01*
X20500500Y-65101211D01*
X20500500Y-62738543D01*
X22099499Y-62738543D01*
X22137947Y-62931829D01*
X22137950Y-62931839D01*
X22213364Y-63113907D01*
X22213371Y-63113920D01*
X22322860Y-63277781D01*
X22322863Y-63277785D01*
X22462214Y-63417136D01*
X22462218Y-63417139D01*
X22626079Y-63526628D01*
X22626092Y-63526635D01*
X22808160Y-63602049D01*
X22808165Y-63602051D01*
X22808169Y-63602051D01*
X22808170Y-63602052D01*
X23001456Y-63640500D01*
X23001459Y-63640500D01*
X23198543Y-63640500D01*
X23328582Y-63614632D01*
X23391835Y-63602051D01*
X23573914Y-63526632D01*
X23737782Y-63417139D01*
X23877139Y-63277782D01*
X23975884Y-63130000D01*
X24890000Y-63130000D01*
X24890000Y-67469895D01*
X29542057Y-71082663D01*
X29582931Y-71139327D01*
X29590000Y-71180597D01*
X29590000Y-72130000D01*
X34390000Y-72130000D01*
X34390000Y-71180597D01*
X34409685Y-71113558D01*
X34437941Y-71082664D01*
X38889545Y-67625566D01*
X38954565Y-67599995D01*
X39023090Y-67613636D01*
X39073363Y-67662158D01*
X39089600Y-67723503D01*
X39089600Y-83432011D01*
X39069915Y-83499050D01*
X39053281Y-83519692D01*
X33899537Y-88673435D01*
X33899533Y-88673441D01*
X33856681Y-88747661D01*
X33856682Y-88747662D01*
X33834500Y-88830447D01*
X33833439Y-88838507D01*
X33830783Y-88838157D01*
X33814815Y-88892539D01*
X33762011Y-88938294D01*
X33710500Y-88949500D01*
X33290247Y-88949500D01*
X33231770Y-88961131D01*
X33231769Y-88961132D01*
X33165447Y-89005447D01*
X33121132Y-89071769D01*
X33121131Y-89071770D01*
X33109500Y-89130247D01*
X33109500Y-90869752D01*
X33121131Y-90928229D01*
X33121132Y-90928230D01*
X33165447Y-90994552D01*
X33231769Y-91038867D01*
X33231770Y-91038868D01*
X33290247Y-91050499D01*
X33290250Y-91050500D01*
X33290252Y-91050500D01*
X35029750Y-91050500D01*
X35029751Y-91050499D01*
X35044568Y-91047552D01*
X35088229Y-91038868D01*
X35088229Y-91038867D01*
X35088231Y-91038867D01*
X35154552Y-90994552D01*
X35198867Y-90928231D01*
X35198867Y-90928229D01*
X35198868Y-90928229D01*
X35210499Y-90869752D01*
X35210500Y-90869750D01*
X35210500Y-89130249D01*
X35210499Y-89130247D01*
X35198868Y-89071770D01*
X35198867Y-89071769D01*
X35154552Y-89005447D01*
X35088230Y-88961132D01*
X35088229Y-88961131D01*
X35029752Y-88949500D01*
X35029748Y-88949500D01*
X34843489Y-88949500D01*
X34776450Y-88929815D01*
X34730695Y-88877011D01*
X34720751Y-88807853D01*
X34749776Y-88744297D01*
X34755808Y-88737819D01*
X35328480Y-88165147D01*
X39614959Y-83878666D01*
X39614962Y-83878665D01*
X39675565Y-83818062D01*
X39696991Y-83780950D01*
X39718418Y-83743839D01*
X39740601Y-83661053D01*
X39740601Y-83575347D01*
X39740601Y-83567752D01*
X39740600Y-83567734D01*
X39740600Y-70747068D01*
X39760285Y-70680029D01*
X39813089Y-70634274D01*
X39882247Y-70624330D01*
X39945803Y-70653355D01*
X39979161Y-70699616D01*
X39993364Y-70733907D01*
X39993371Y-70733920D01*
X40102860Y-70897781D01*
X40102863Y-70897785D01*
X40242214Y-71037136D01*
X40242218Y-71037139D01*
X40406079Y-71146628D01*
X40406092Y-71146635D01*
X40588160Y-71222049D01*
X40588165Y-71222051D01*
X40588169Y-71222051D01*
X40588170Y-71222052D01*
X40781456Y-71260500D01*
X40781459Y-71260500D01*
X40978543Y-71260500D01*
X41108582Y-71234632D01*
X41171835Y-71222051D01*
X41353914Y-71146632D01*
X41458709Y-71076609D01*
X41525386Y-71055732D01*
X41592766Y-71074216D01*
X41639457Y-71126195D01*
X41651600Y-71179712D01*
X41651600Y-75236011D01*
X41631915Y-75303050D01*
X41615281Y-75323692D01*
X41316437Y-75622535D01*
X41316435Y-75622538D01*
X41273581Y-75696761D01*
X41273581Y-75696762D01*
X41268898Y-75714236D01*
X41268899Y-75714237D01*
X41251400Y-75779545D01*
X41251400Y-84363311D01*
X41231715Y-84430350D01*
X41215081Y-84450992D01*
X37657937Y-88008135D01*
X37657933Y-88008141D01*
X37615081Y-88082361D01*
X37615082Y-88082362D01*
X37592900Y-88165147D01*
X37592900Y-89107905D01*
X37573215Y-89174944D01*
X37520411Y-89220699D01*
X37451253Y-89230643D01*
X37387697Y-89201618D01*
X37381219Y-89195586D01*
X37369657Y-89184024D01*
X37283626Y-89126541D01*
X37197598Y-89069059D01*
X37178516Y-89061155D01*
X37006420Y-88989870D01*
X37006412Y-88989868D01*
X36803469Y-88949500D01*
X36803465Y-88949500D01*
X36596535Y-88949500D01*
X36596530Y-88949500D01*
X36393587Y-88989868D01*
X36393579Y-88989870D01*
X36202403Y-89069058D01*
X36030342Y-89184024D01*
X35884024Y-89330342D01*
X35769058Y-89502403D01*
X35689870Y-89693579D01*
X35689868Y-89693587D01*
X35649500Y-89896530D01*
X35649500Y-90103469D01*
X35689868Y-90306412D01*
X35689870Y-90306420D01*
X35769059Y-90497598D01*
X35826541Y-90583626D01*
X35884024Y-90669657D01*
X36030342Y-90815975D01*
X36030345Y-90815977D01*
X36202402Y-90930941D01*
X36393580Y-91010130D01*
X36538052Y-91038867D01*
X36596530Y-91050499D01*
X36596534Y-91050500D01*
X36596535Y-91050500D01*
X36803466Y-91050500D01*
X36803467Y-91050499D01*
X37006420Y-91010130D01*
X37197598Y-90930941D01*
X37369655Y-90815977D01*
X37369658Y-90815974D01*
X37381219Y-90804414D01*
X37442542Y-90770929D01*
X37512234Y-90775913D01*
X37568167Y-90817785D01*
X37592584Y-90883249D01*
X37592900Y-90892095D01*
X37592900Y-101565211D01*
X37573215Y-101632250D01*
X37556581Y-101652892D01*
X37377120Y-101832352D01*
X37315797Y-101865837D01*
X37246105Y-101860853D01*
X37190172Y-101818981D01*
X37166965Y-101764066D01*
X37161681Y-101730702D01*
X37105748Y-101558555D01*
X37105747Y-101558552D01*
X37023565Y-101397265D01*
X36982331Y-101340511D01*
X36982330Y-101340510D01*
X36508018Y-101814821D01*
X36505925Y-101807007D01*
X36440099Y-101692993D01*
X36347007Y-101599901D01*
X36232993Y-101534075D01*
X36225176Y-101531980D01*
X36699487Y-101057668D01*
X36699487Y-101057667D01*
X36642734Y-101016434D01*
X36481447Y-100934252D01*
X36481444Y-100934251D01*
X36309293Y-100878317D01*
X36130506Y-100850000D01*
X35949494Y-100850000D01*
X35770706Y-100878317D01*
X35598555Y-100934251D01*
X35598552Y-100934252D01*
X35437270Y-101016431D01*
X35437268Y-101016432D01*
X35380511Y-101057667D01*
X35380511Y-101057668D01*
X35854823Y-101531980D01*
X35847007Y-101534075D01*
X35732993Y-101599901D01*
X35639901Y-101692993D01*
X35574075Y-101807007D01*
X35571980Y-101814823D01*
X35097668Y-101340511D01*
X35097667Y-101340511D01*
X35056432Y-101397268D01*
X35056431Y-101397270D01*
X34974253Y-101558552D01*
X34948726Y-101637115D01*
X34909288Y-101694790D01*
X34844929Y-101721988D01*
X34794186Y-101717269D01*
X34780867Y-101713153D01*
X34752338Y-101696682D01*
X34669553Y-101674500D01*
X34655777Y-101674500D01*
X34637891Y-101668973D01*
X34623743Y-101659596D01*
X34607461Y-101654815D01*
X34595226Y-101640695D01*
X34579652Y-101630373D01*
X34572820Y-101614837D01*
X34561706Y-101602011D01*
X34556347Y-101577378D01*
X34551526Y-101566415D01*
X34552551Y-101559931D01*
X34550500Y-101550500D01*
X34550500Y-101130251D01*
X34550275Y-101129120D01*
X34550275Y-101129118D01*
X34538868Y-101071770D01*
X34538867Y-101071769D01*
X34494552Y-101005447D01*
X34428230Y-100961132D01*
X34428229Y-100961131D01*
X34369752Y-100949500D01*
X34369748Y-100949500D01*
X32630252Y-100949500D01*
X32630247Y-100949500D01*
X32571770Y-100961131D01*
X32571769Y-100961132D01*
X32505447Y-101005447D01*
X32461132Y-101071769D01*
X32461131Y-101071770D01*
X32449500Y-101130247D01*
X32449500Y-102869752D01*
X32461131Y-102928229D01*
X32461132Y-102928230D01*
X32505447Y-102994552D01*
X32571769Y-103038867D01*
X32571770Y-103038868D01*
X32630247Y-103050499D01*
X32630250Y-103050500D01*
X32630252Y-103050500D01*
X34369750Y-103050500D01*
X34369751Y-103050499D01*
X34384568Y-103047552D01*
X34428229Y-103038868D01*
X34428229Y-103038867D01*
X34428231Y-103038867D01*
X34494552Y-102994552D01*
X34538867Y-102928231D01*
X34539057Y-102927276D01*
X34540046Y-102925383D01*
X34543542Y-102916946D01*
X34544296Y-102917258D01*
X34571441Y-102865364D01*
X34632155Y-102830788D01*
X34701925Y-102834526D01*
X34748356Y-102863783D01*
X35271738Y-103387165D01*
X35345961Y-103430018D01*
X35428747Y-103452200D01*
X35428749Y-103452200D01*
X36585951Y-103452200D01*
X36585953Y-103452200D01*
X36668739Y-103430018D01*
X36742962Y-103387165D01*
X38178865Y-101951262D01*
X38221718Y-101877039D01*
X38243900Y-101794253D01*
X38243900Y-101708547D01*
X38243900Y-90788895D01*
X38263585Y-90721856D01*
X38316389Y-90676101D01*
X38385547Y-90666157D01*
X38449103Y-90695182D01*
X38455581Y-90701214D01*
X38570342Y-90815975D01*
X38570345Y-90815977D01*
X38742402Y-90930941D01*
X38933580Y-91010130D01*
X39078052Y-91038867D01*
X39136530Y-91050499D01*
X39136534Y-91050500D01*
X39136535Y-91050500D01*
X39343466Y-91050500D01*
X39343467Y-91050499D01*
X39546420Y-91010130D01*
X39737598Y-90930941D01*
X39909655Y-90815977D01*
X40055977Y-90669655D01*
X40170941Y-90497598D01*
X40250130Y-90306420D01*
X40290500Y-90103465D01*
X40290500Y-89896535D01*
X40250130Y-89693580D01*
X40210550Y-89598028D01*
X40203082Y-89528560D01*
X40234357Y-89466080D01*
X40237431Y-89462895D01*
X41174247Y-88526079D01*
X42004120Y-87696205D01*
X42065442Y-87662722D01*
X42135134Y-87667706D01*
X42191067Y-87709578D01*
X42215484Y-87775042D01*
X42215800Y-87783888D01*
X42215800Y-88534013D01*
X42196115Y-88601052D01*
X42179482Y-88621694D01*
X42100788Y-88700388D01*
X42028317Y-88825911D01*
X42028316Y-88825915D01*
X41990800Y-88965925D01*
X41990800Y-89110875D01*
X42010401Y-89184025D01*
X42028317Y-89250888D01*
X42100788Y-89376411D01*
X42100790Y-89376413D01*
X42100791Y-89376415D01*
X42203285Y-89478909D01*
X42203286Y-89478910D01*
X42203288Y-89478911D01*
X42328811Y-89551382D01*
X42328812Y-89551382D01*
X42328815Y-89551384D01*
X42468825Y-89588900D01*
X42468828Y-89588900D01*
X42613772Y-89588900D01*
X42613775Y-89588900D01*
X42753785Y-89551384D01*
X42879315Y-89478909D01*
X42981809Y-89376415D01*
X43054284Y-89250885D01*
X43091800Y-89110875D01*
X43091800Y-88965925D01*
X43054284Y-88825915D01*
X43009104Y-88747662D01*
X42981811Y-88700388D01*
X42981810Y-88700387D01*
X42981809Y-88700385D01*
X42903118Y-88621694D01*
X42888413Y-88594763D01*
X42871823Y-88568948D01*
X42870931Y-88562745D01*
X42869634Y-88560370D01*
X42866800Y-88534013D01*
X42866800Y-88395730D01*
X51499500Y-88395730D01*
X51499500Y-89604269D01*
X51502353Y-89634699D01*
X51502353Y-89634701D01*
X51543244Y-89751557D01*
X51547207Y-89762882D01*
X51627850Y-89872150D01*
X51737118Y-89952793D01*
X51758398Y-89960239D01*
X51865299Y-89997646D01*
X51895730Y-90000500D01*
X51895734Y-90000500D01*
X53104270Y-90000500D01*
X53134699Y-89997646D01*
X53134701Y-89997646D01*
X53198790Y-89975219D01*
X53262882Y-89952793D01*
X53372150Y-89872150D01*
X53452793Y-89762882D01*
X53490526Y-89655048D01*
X53497646Y-89634701D01*
X53497646Y-89634699D01*
X53500500Y-89604269D01*
X53500500Y-89098543D01*
X53999499Y-89098543D01*
X54037947Y-89291829D01*
X54037950Y-89291839D01*
X54113364Y-89473907D01*
X54113371Y-89473920D01*
X54222860Y-89637781D01*
X54222863Y-89637785D01*
X54362217Y-89777139D01*
X54504412Y-89872150D01*
X54526086Y-89886632D01*
X54597953Y-89916399D01*
X54652355Y-89960239D01*
X54674421Y-90026533D01*
X54674500Y-90030960D01*
X54674500Y-94969038D01*
X54654815Y-95036077D01*
X54602011Y-95081832D01*
X54597953Y-95083599D01*
X54526089Y-95113366D01*
X54526079Y-95113371D01*
X54362218Y-95222860D01*
X54362214Y-95222863D01*
X54222863Y-95362214D01*
X54222860Y-95362218D01*
X54113371Y-95526079D01*
X54113364Y-95526092D01*
X54037950Y-95708160D01*
X54037947Y-95708170D01*
X53999500Y-95901456D01*
X53999500Y-95901459D01*
X53999500Y-96098541D01*
X53999500Y-96098543D01*
X53999499Y-96098543D01*
X54037947Y-96291829D01*
X54037950Y-96291839D01*
X54113364Y-96473907D01*
X54113371Y-96473920D01*
X54222860Y-96637781D01*
X54222863Y-96637785D01*
X54362217Y-96777139D01*
X54526080Y-96886628D01*
X54526086Y-96886632D01*
X54597953Y-96916399D01*
X54652355Y-96960239D01*
X54674421Y-97026533D01*
X54674500Y-97030960D01*
X54674500Y-100969038D01*
X54654815Y-101036077D01*
X54602011Y-101081832D01*
X54597953Y-101083599D01*
X54526089Y-101113366D01*
X54526079Y-101113371D01*
X54362218Y-101222860D01*
X54362214Y-101222863D01*
X54222863Y-101362214D01*
X54222860Y-101362218D01*
X54113371Y-101526079D01*
X54113364Y-101526092D01*
X54037950Y-101708160D01*
X54037947Y-101708170D01*
X53999500Y-101901456D01*
X53999500Y-101901459D01*
X53999500Y-102098541D01*
X53999500Y-102098543D01*
X53999499Y-102098543D01*
X54037947Y-102291829D01*
X54037950Y-102291839D01*
X54113364Y-102473907D01*
X54113371Y-102473920D01*
X54222860Y-102637781D01*
X54222863Y-102637785D01*
X54362214Y-102777136D01*
X54362218Y-102777139D01*
X54526079Y-102886628D01*
X54526092Y-102886635D01*
X54708160Y-102962049D01*
X54708165Y-102962051D01*
X54708169Y-102962051D01*
X54708170Y-102962052D01*
X54901456Y-103000500D01*
X54901459Y-103000500D01*
X55098543Y-103000500D01*
X55253351Y-102969706D01*
X55291835Y-102962051D01*
X55473914Y-102886632D01*
X55637782Y-102777139D01*
X55777139Y-102637782D01*
X55886632Y-102473914D01*
X55962051Y-102291835D01*
X55981712Y-102192993D01*
X56000500Y-102098543D01*
X56000500Y-101901456D01*
X55962052Y-101708170D01*
X55962051Y-101708169D01*
X55962051Y-101708165D01*
X55939953Y-101654815D01*
X55886635Y-101526092D01*
X55886628Y-101526079D01*
X55777139Y-101362218D01*
X55777136Y-101362214D01*
X55637785Y-101222863D01*
X55637781Y-101222860D01*
X55473920Y-101113371D01*
X55473910Y-101113366D01*
X55402047Y-101083599D01*
X55347643Y-101039757D01*
X55325579Y-100973463D01*
X55325500Y-100969038D01*
X55325500Y-97030960D01*
X55345185Y-96963921D01*
X55397989Y-96918166D01*
X55402005Y-96916417D01*
X55473914Y-96886632D01*
X55637782Y-96777139D01*
X55777139Y-96637782D01*
X55886632Y-96473914D01*
X55962051Y-96291835D01*
X56000500Y-96098543D01*
X56539499Y-96098543D01*
X56577947Y-96291829D01*
X56577950Y-96291839D01*
X56653364Y-96473907D01*
X56653371Y-96473920D01*
X56762860Y-96637781D01*
X56762863Y-96637785D01*
X56902214Y-96777136D01*
X56902218Y-96777139D01*
X57066079Y-96886628D01*
X57066092Y-96886635D01*
X57243790Y-96960239D01*
X57248165Y-96962051D01*
X57248169Y-96962051D01*
X57248170Y-96962052D01*
X57441456Y-97000500D01*
X57441459Y-97000500D01*
X57638543Y-97000500D01*
X57768582Y-96974632D01*
X57831835Y-96962051D01*
X58013914Y-96886632D01*
X58177782Y-96777139D01*
X58317139Y-96637782D01*
X58426632Y-96473914D01*
X58502051Y-96291835D01*
X58540500Y-96098541D01*
X58540500Y-95901459D01*
X58540500Y-95901456D01*
X58502052Y-95708170D01*
X58502051Y-95708169D01*
X58502051Y-95708165D01*
X58472281Y-95636295D01*
X58464813Y-95566828D01*
X58496088Y-95504348D01*
X58499133Y-95501192D01*
X62580565Y-91419762D01*
X62623418Y-91345539D01*
X62645600Y-91262753D01*
X62645600Y-91177047D01*
X62645600Y-46486088D01*
X62665285Y-46419049D01*
X62681914Y-46398412D01*
X66005852Y-43074473D01*
X66067173Y-43040990D01*
X66136865Y-43045974D01*
X66149819Y-43051668D01*
X66178361Y-43066211D01*
X66178362Y-43066211D01*
X66178363Y-43066212D01*
X66224625Y-43081243D01*
X66350591Y-43122171D01*
X66433429Y-43135291D01*
X66529449Y-43150500D01*
X66529454Y-43150500D01*
X66710551Y-43150500D01*
X66797259Y-43136765D01*
X66889409Y-43122171D01*
X67061639Y-43066211D01*
X67222994Y-42983996D01*
X67369501Y-42877553D01*
X67497553Y-42749501D01*
X67603996Y-42602994D01*
X67686211Y-42441639D01*
X67719759Y-42338388D01*
X67759196Y-42280712D01*
X67823554Y-42253513D01*
X67892401Y-42265427D01*
X67943877Y-42312671D01*
X67955621Y-42338386D01*
X68001582Y-42479837D01*
X68090904Y-42655143D01*
X68146076Y-42731079D01*
X68146077Y-42731080D01*
X68653844Y-42223312D01*
X68719890Y-42337708D01*
X68822292Y-42440110D01*
X68936686Y-42506154D01*
X68428918Y-43013922D01*
X68504856Y-43069095D01*
X68680164Y-43158418D01*
X68867294Y-43219221D01*
X69061618Y-43250000D01*
X69258382Y-43250000D01*
X69452705Y-43219221D01*
X69639835Y-43158418D01*
X69815143Y-43069095D01*
X69891079Y-43013922D01*
X69891080Y-43013921D01*
X69383313Y-42506154D01*
X69497708Y-42440110D01*
X69600110Y-42337708D01*
X69666154Y-42223313D01*
X70173921Y-42731080D01*
X70173922Y-42731079D01*
X70229095Y-42655143D01*
X70318418Y-42479835D01*
X70364378Y-42338387D01*
X70403815Y-42280712D01*
X70468174Y-42253513D01*
X70537020Y-42265428D01*
X70588496Y-42312672D01*
X70600240Y-42338387D01*
X70633787Y-42441636D01*
X70633788Y-42441639D01*
X70716006Y-42602997D01*
X70822441Y-42749494D01*
X70822445Y-42749499D01*
X70950500Y-42877554D01*
X70950505Y-42877558D01*
X71060924Y-42957781D01*
X71097006Y-42983996D01*
X71183818Y-43028229D01*
X71258360Y-43066211D01*
X71258364Y-43066212D01*
X71288815Y-43076106D01*
X71346491Y-43115540D01*
X71373691Y-43179898D01*
X71374500Y-43194037D01*
X71374500Y-44701410D01*
X71354815Y-44768449D01*
X71338181Y-44789091D01*
X69705088Y-46422183D01*
X69643765Y-46455668D01*
X69574073Y-46450684D01*
X69518140Y-46408812D01*
X69494934Y-46353900D01*
X69464295Y-46160455D01*
X69393769Y-45943395D01*
X69290150Y-45740033D01*
X69155995Y-45555385D01*
X68994614Y-45394004D01*
X68809966Y-45259849D01*
X68606604Y-45156230D01*
X68389544Y-45085704D01*
X68164116Y-45050000D01*
X67700000Y-45050000D01*
X67700000Y-45850000D01*
X67300000Y-45850000D01*
X67300000Y-45050000D01*
X66835884Y-45050000D01*
X66610455Y-45085704D01*
X66393395Y-45156230D01*
X66190033Y-45259849D01*
X66005385Y-45394004D01*
X65844004Y-45555385D01*
X65709849Y-45740033D01*
X65606230Y-45943395D01*
X65535704Y-46160455D01*
X65513603Y-46300000D01*
X66329288Y-46300000D01*
X66324979Y-46310402D01*
X66300000Y-46435981D01*
X66300000Y-46564019D01*
X66324979Y-46689598D01*
X66329288Y-46700000D01*
X65513603Y-46700000D01*
X65535704Y-46839544D01*
X65606230Y-47056604D01*
X65709849Y-47259966D01*
X65844004Y-47444614D01*
X66005385Y-47605995D01*
X66190033Y-47740150D01*
X66393395Y-47843769D01*
X66610455Y-47914295D01*
X66835884Y-47950000D01*
X67300000Y-47950000D01*
X67300000Y-47150000D01*
X67700000Y-47150000D01*
X67700000Y-47950000D01*
X67877910Y-47950000D01*
X67944949Y-47969685D01*
X67990704Y-48022489D01*
X68000648Y-48091647D01*
X67971623Y-48155203D01*
X67965591Y-48161681D01*
X64217137Y-51910135D01*
X64217135Y-51910138D01*
X64174282Y-51984359D01*
X64152100Y-52067147D01*
X64152100Y-90396811D01*
X64132415Y-90463850D01*
X64115781Y-90484492D01*
X59009637Y-95590635D01*
X59009635Y-95590638D01*
X58966782Y-95664860D01*
X58966782Y-95664861D01*
X58959544Y-95691873D01*
X58959544Y-95691874D01*
X58959543Y-95691873D01*
X58944600Y-95747643D01*
X58944600Y-100083710D01*
X58924915Y-100150749D01*
X58908281Y-100171391D01*
X58038835Y-101040836D01*
X57977512Y-101074321D01*
X57907820Y-101069337D01*
X57903703Y-101067717D01*
X57888809Y-101061548D01*
X57831835Y-101037949D01*
X57831831Y-101037948D01*
X57831828Y-101037947D01*
X57638543Y-100999500D01*
X57638541Y-100999500D01*
X57441459Y-100999500D01*
X57441457Y-100999500D01*
X57248170Y-101037947D01*
X57248160Y-101037950D01*
X57066092Y-101113364D01*
X57066079Y-101113371D01*
X56902218Y-101222860D01*
X56902214Y-101222863D01*
X56762863Y-101362214D01*
X56762860Y-101362218D01*
X56653371Y-101526079D01*
X56653364Y-101526092D01*
X56577950Y-101708160D01*
X56577947Y-101708170D01*
X56539500Y-101901456D01*
X56539500Y-101901459D01*
X56539500Y-102098541D01*
X56539500Y-102098543D01*
X56539499Y-102098543D01*
X56577947Y-102291829D01*
X56577950Y-102291839D01*
X56653364Y-102473907D01*
X56653371Y-102473920D01*
X56762860Y-102637781D01*
X56762863Y-102637785D01*
X56902214Y-102777136D01*
X56902218Y-102777139D01*
X57066079Y-102886628D01*
X57066092Y-102886635D01*
X57248160Y-102962049D01*
X57248165Y-102962051D01*
X57248169Y-102962051D01*
X57248170Y-102962052D01*
X57441456Y-103000500D01*
X57441459Y-103000500D01*
X57638543Y-103000500D01*
X57793351Y-102969706D01*
X57831835Y-102962051D01*
X58013914Y-102886632D01*
X58177782Y-102777139D01*
X58317139Y-102637782D01*
X58426632Y-102473914D01*
X58502051Y-102291835D01*
X58521712Y-102192993D01*
X58540500Y-102098543D01*
X58540500Y-101901456D01*
X58502052Y-101708170D01*
X58502051Y-101708169D01*
X58502051Y-101708165D01*
X58472281Y-101636295D01*
X58464813Y-101566828D01*
X58496088Y-101504348D01*
X58499132Y-101501193D01*
X59530565Y-100469762D01*
X59573418Y-100395539D01*
X59595600Y-100312753D01*
X59595600Y-100227047D01*
X59595600Y-95976689D01*
X59615285Y-95909650D01*
X59631919Y-95889008D01*
X59692946Y-95827981D01*
X59804819Y-95716107D01*
X59866140Y-95682624D01*
X59935831Y-95687608D01*
X59991765Y-95729479D01*
X60016182Y-95794944D01*
X60014115Y-95827981D01*
X59999500Y-95901454D01*
X59999500Y-95901459D01*
X59999500Y-96098541D01*
X59999500Y-96098543D01*
X59999499Y-96098543D01*
X60037947Y-96291829D01*
X60037950Y-96291839D01*
X60113364Y-96473907D01*
X60113371Y-96473920D01*
X60222860Y-96637781D01*
X60222863Y-96637785D01*
X60362214Y-96777136D01*
X60362218Y-96777139D01*
X60526079Y-96886628D01*
X60526092Y-96886635D01*
X60703790Y-96960239D01*
X60708165Y-96962051D01*
X60708169Y-96962051D01*
X60708170Y-96962052D01*
X60901456Y-97000500D01*
X60901459Y-97000500D01*
X61098543Y-97000500D01*
X61228582Y-96974632D01*
X61291835Y-96962051D01*
X61473914Y-96886632D01*
X61637782Y-96777139D01*
X61777139Y-96637782D01*
X61886632Y-96473914D01*
X61962051Y-96291835D01*
X62000500Y-96098543D01*
X62539499Y-96098543D01*
X62577947Y-96291829D01*
X62577950Y-96291839D01*
X62653364Y-96473907D01*
X62653371Y-96473920D01*
X62762860Y-96637781D01*
X62762863Y-96637785D01*
X62902214Y-96777136D01*
X62902218Y-96777139D01*
X63066079Y-96886628D01*
X63066092Y-96886635D01*
X63243790Y-96960239D01*
X63248165Y-96962051D01*
X63248169Y-96962051D01*
X63248170Y-96962052D01*
X63441456Y-97000500D01*
X63441459Y-97000500D01*
X63638543Y-97000500D01*
X63768582Y-96974632D01*
X63831835Y-96962051D01*
X64013914Y-96886632D01*
X64177782Y-96777139D01*
X64317139Y-96637782D01*
X64426632Y-96473914D01*
X64502051Y-96291835D01*
X64540500Y-96098543D01*
X65999499Y-96098543D01*
X66037947Y-96291829D01*
X66037950Y-96291839D01*
X66113364Y-96473907D01*
X66113371Y-96473920D01*
X66222860Y-96637781D01*
X66222863Y-96637785D01*
X66362214Y-96777136D01*
X66362218Y-96777139D01*
X66526079Y-96886628D01*
X66526092Y-96886635D01*
X66703790Y-96960239D01*
X66708165Y-96962051D01*
X66708169Y-96962051D01*
X66708170Y-96962052D01*
X66901456Y-97000500D01*
X66901459Y-97000500D01*
X67098543Y-97000500D01*
X67228582Y-96974632D01*
X67291835Y-96962051D01*
X67473914Y-96886632D01*
X67637782Y-96777139D01*
X67637785Y-96777136D01*
X67643327Y-96771595D01*
X67777136Y-96637785D01*
X67777139Y-96637782D01*
X67886632Y-96473914D01*
X67962051Y-96291835D01*
X68000500Y-96098541D01*
X68000500Y-95913428D01*
X68440000Y-95913428D01*
X68440000Y-96086571D01*
X68467085Y-96257584D01*
X68520591Y-96422257D01*
X68599195Y-96576523D01*
X68599196Y-96576525D01*
X68633463Y-96623691D01*
X68633464Y-96623691D01*
X69153629Y-96103527D01*
X69167259Y-96154394D01*
X69219920Y-96245606D01*
X69294394Y-96320080D01*
X69385606Y-96372741D01*
X69436471Y-96386370D01*
X68916307Y-96906534D01*
X68963478Y-96940805D01*
X69117742Y-97019408D01*
X69282415Y-97072914D01*
X69453429Y-97100000D01*
X69626571Y-97100000D01*
X69797584Y-97072914D01*
X69962257Y-97019408D01*
X70116525Y-96940803D01*
X70163691Y-96906534D01*
X70163692Y-96906533D01*
X69643529Y-96386370D01*
X69694394Y-96372741D01*
X69785606Y-96320080D01*
X69860080Y-96245606D01*
X69912741Y-96154394D01*
X69926370Y-96103528D01*
X70446533Y-96623692D01*
X70446534Y-96623691D01*
X70480803Y-96576525D01*
X70559408Y-96422257D01*
X70612914Y-96257584D01*
X70640000Y-96086571D01*
X70640000Y-95913428D01*
X70612914Y-95742415D01*
X70559408Y-95577742D01*
X70480805Y-95423478D01*
X70446534Y-95376307D01*
X69926370Y-95896471D01*
X69912741Y-95845606D01*
X69860080Y-95754394D01*
X69785606Y-95679920D01*
X69694394Y-95627259D01*
X69643527Y-95613629D01*
X70163691Y-95093464D01*
X70163691Y-95093463D01*
X70116525Y-95059196D01*
X70116523Y-95059195D01*
X69962257Y-94980591D01*
X69797584Y-94927085D01*
X69626571Y-94900000D01*
X69453429Y-94900000D01*
X69282415Y-94927085D01*
X69117740Y-94980592D01*
X68963475Y-95059196D01*
X68916307Y-95093463D01*
X68916307Y-95093464D01*
X69436472Y-95613629D01*
X69385606Y-95627259D01*
X69294394Y-95679920D01*
X69219920Y-95754394D01*
X69167259Y-95845606D01*
X69153629Y-95896472D01*
X68633464Y-95376307D01*
X68633463Y-95376307D01*
X68599196Y-95423475D01*
X68520592Y-95577740D01*
X68467085Y-95742415D01*
X68440000Y-95913428D01*
X68000500Y-95913428D01*
X68000500Y-95901459D01*
X68000500Y-95901456D01*
X67962052Y-95708170D01*
X67962051Y-95708169D01*
X67962051Y-95708165D01*
X67913369Y-95590635D01*
X67886635Y-95526092D01*
X67886628Y-95526079D01*
X67777139Y-95362218D01*
X67777136Y-95362214D01*
X67637785Y-95222863D01*
X67637781Y-95222860D01*
X67473920Y-95113371D01*
X67473907Y-95113364D01*
X67291839Y-95037950D01*
X67291829Y-95037947D01*
X67098543Y-94999500D01*
X67098541Y-94999500D01*
X66901459Y-94999500D01*
X66901457Y-94999500D01*
X66708170Y-95037947D01*
X66708160Y-95037950D01*
X66526092Y-95113364D01*
X66526079Y-95113371D01*
X66362218Y-95222860D01*
X66362214Y-95222863D01*
X66222863Y-95362214D01*
X66222860Y-95362218D01*
X66113371Y-95526079D01*
X66113364Y-95526092D01*
X66037950Y-95708160D01*
X66037947Y-95708170D01*
X65999500Y-95901456D01*
X65999500Y-95901459D01*
X65999500Y-96098541D01*
X65999500Y-96098543D01*
X65999499Y-96098543D01*
X64540500Y-96098543D01*
X64540500Y-96098541D01*
X64540500Y-95901459D01*
X64540500Y-95901456D01*
X64502052Y-95708170D01*
X64502051Y-95708169D01*
X64502051Y-95708165D01*
X64453369Y-95590635D01*
X64426635Y-95526092D01*
X64426628Y-95526079D01*
X64317139Y-95362218D01*
X64317136Y-95362214D01*
X64177785Y-95222863D01*
X64177781Y-95222860D01*
X64013920Y-95113371D01*
X64013907Y-95113364D01*
X63831839Y-95037950D01*
X63831829Y-95037947D01*
X63638543Y-94999500D01*
X63638541Y-94999500D01*
X63441459Y-94999500D01*
X63441457Y-94999500D01*
X63248170Y-95037947D01*
X63248160Y-95037950D01*
X63066092Y-95113364D01*
X63066079Y-95113371D01*
X62902218Y-95222860D01*
X62902214Y-95222863D01*
X62762863Y-95362214D01*
X62762860Y-95362218D01*
X62653371Y-95526079D01*
X62653364Y-95526092D01*
X62577950Y-95708160D01*
X62577947Y-95708170D01*
X62539500Y-95901456D01*
X62539500Y-95901459D01*
X62539500Y-96098541D01*
X62539500Y-96098543D01*
X62539499Y-96098543D01*
X62000500Y-96098543D01*
X62000500Y-96098541D01*
X62000500Y-95901459D01*
X62000500Y-95901456D01*
X61962052Y-95708170D01*
X61962051Y-95708169D01*
X61962051Y-95708165D01*
X61913369Y-95590635D01*
X61886635Y-95526092D01*
X61886628Y-95526079D01*
X61777139Y-95362218D01*
X61777136Y-95362214D01*
X61637785Y-95222863D01*
X61637781Y-95222860D01*
X61473920Y-95113371D01*
X61473907Y-95113364D01*
X61291839Y-95037950D01*
X61291829Y-95037947D01*
X61098543Y-94999500D01*
X61098541Y-94999500D01*
X60901459Y-94999500D01*
X60901454Y-94999500D01*
X60827981Y-95014115D01*
X60758390Y-95007888D01*
X60703212Y-94965025D01*
X60679968Y-94899135D01*
X60696036Y-94831138D01*
X60716105Y-94804821D01*
X64738065Y-90782862D01*
X64780918Y-90708639D01*
X64803100Y-90625853D01*
X64803100Y-90540147D01*
X64803100Y-88393713D01*
X65599500Y-88393713D01*
X65599500Y-88606286D01*
X65621891Y-88747661D01*
X65632754Y-88816243D01*
X65694230Y-89005447D01*
X65698444Y-89018414D01*
X65794951Y-89207820D01*
X65919890Y-89379786D01*
X66070213Y-89530109D01*
X66242179Y-89655048D01*
X66242181Y-89655049D01*
X66242184Y-89655051D01*
X66431588Y-89751557D01*
X66633757Y-89817246D01*
X66843713Y-89850500D01*
X66843714Y-89850500D01*
X68156286Y-89850500D01*
X68156287Y-89850500D01*
X68366243Y-89817246D01*
X68568412Y-89751557D01*
X68757816Y-89655051D01*
X68848866Y-89588900D01*
X68929786Y-89530109D01*
X68929788Y-89530106D01*
X68929792Y-89530104D01*
X69080104Y-89379792D01*
X69080106Y-89379788D01*
X69080109Y-89379786D01*
X69205048Y-89207820D01*
X69205047Y-89207820D01*
X69205051Y-89207816D01*
X69301557Y-89018412D01*
X69367246Y-88816243D01*
X69400500Y-88606287D01*
X69400500Y-88393713D01*
X69367246Y-88183757D01*
X69301557Y-87981588D01*
X69205051Y-87792184D01*
X69205049Y-87792181D01*
X69205048Y-87792179D01*
X69080109Y-87620213D01*
X68929786Y-87469890D01*
X68757820Y-87344951D01*
X68568414Y-87248444D01*
X68568413Y-87248443D01*
X68568412Y-87248443D01*
X68366243Y-87182754D01*
X68366241Y-87182753D01*
X68366240Y-87182753D01*
X68204957Y-87157208D01*
X68156287Y-87149500D01*
X66843713Y-87149500D01*
X66795042Y-87157208D01*
X66633760Y-87182753D01*
X66431585Y-87248444D01*
X66242179Y-87344951D01*
X66070213Y-87469890D01*
X65919890Y-87620213D01*
X65794951Y-87792179D01*
X65698444Y-87981585D01*
X65632753Y-88183760D01*
X65599500Y-88393713D01*
X64803100Y-88393713D01*
X64803100Y-72393713D01*
X65599500Y-72393713D01*
X65599500Y-72606286D01*
X65632753Y-72816239D01*
X65698444Y-73018414D01*
X65794951Y-73207820D01*
X65919890Y-73379786D01*
X66070213Y-73530109D01*
X66242179Y-73655048D01*
X66242181Y-73655049D01*
X66242184Y-73655051D01*
X66431588Y-73751557D01*
X66633757Y-73817246D01*
X66843713Y-73850500D01*
X67050500Y-73850500D01*
X67117539Y-73870185D01*
X67163294Y-73922989D01*
X67174500Y-73974500D01*
X67174500Y-77025500D01*
X67154815Y-77092539D01*
X67102011Y-77138294D01*
X67050500Y-77149500D01*
X66843713Y-77149500D01*
X66795042Y-77157208D01*
X66633760Y-77182753D01*
X66431585Y-77248444D01*
X66242179Y-77344951D01*
X66070213Y-77469890D01*
X65919890Y-77620213D01*
X65794951Y-77792179D01*
X65698444Y-77981585D01*
X65632753Y-78183760D01*
X65599500Y-78393713D01*
X65599500Y-78606286D01*
X65632711Y-78815975D01*
X65632754Y-78816243D01*
X65695752Y-79010131D01*
X65698444Y-79018414D01*
X65794951Y-79207820D01*
X65919890Y-79379786D01*
X66070213Y-79530109D01*
X66242179Y-79655048D01*
X66242181Y-79655049D01*
X66242184Y-79655051D01*
X66431588Y-79751557D01*
X66633757Y-79817246D01*
X66843713Y-79850500D01*
X66843714Y-79850500D01*
X68156286Y-79850500D01*
X68156287Y-79850500D01*
X68366243Y-79817246D01*
X68568412Y-79751557D01*
X68757816Y-79655051D01*
X68779789Y-79639086D01*
X68929786Y-79530109D01*
X68929788Y-79530106D01*
X68929792Y-79530104D01*
X68979819Y-79480077D01*
X69041142Y-79446592D01*
X69110834Y-79451576D01*
X69166767Y-79493448D01*
X69191184Y-79558912D01*
X69191500Y-79567758D01*
X69191500Y-81296810D01*
X69171815Y-81363849D01*
X69155181Y-81384491D01*
X68374371Y-82165300D01*
X68313048Y-82198785D01*
X68243356Y-82193801D01*
X68230395Y-82188104D01*
X68075996Y-82109433D01*
X67851368Y-82036446D01*
X67618097Y-81999500D01*
X67618092Y-81999500D01*
X67381908Y-81999500D01*
X67381903Y-81999500D01*
X67148631Y-82036446D01*
X66924003Y-82109433D01*
X66713566Y-82216657D01*
X66678432Y-82242184D01*
X66522490Y-82355483D01*
X66522488Y-82355485D01*
X66522487Y-82355485D01*
X66355485Y-82522487D01*
X66355485Y-82522488D01*
X66355483Y-82522490D01*
X66295862Y-82604550D01*
X66216657Y-82713566D01*
X66109433Y-82924003D01*
X66036446Y-83148631D01*
X65999500Y-83381902D01*
X65999500Y-83618097D01*
X66036446Y-83851368D01*
X66109433Y-84075996D01*
X66150344Y-84156287D01*
X66216657Y-84286433D01*
X66355483Y-84477510D01*
X66522490Y-84644517D01*
X66713567Y-84783343D01*
X66812991Y-84834002D01*
X66924003Y-84890566D01*
X66924005Y-84890566D01*
X66924008Y-84890568D01*
X67044412Y-84929689D01*
X67148631Y-84963553D01*
X67381903Y-85000500D01*
X67381908Y-85000500D01*
X67618097Y-85000500D01*
X67851368Y-84963553D01*
X67943470Y-84933627D01*
X68075992Y-84890568D01*
X68286433Y-84783343D01*
X68477510Y-84644517D01*
X68644517Y-84477510D01*
X68783343Y-84286433D01*
X68890568Y-84075992D01*
X68963553Y-83851368D01*
X68974706Y-83780950D01*
X69000500Y-83618097D01*
X69000500Y-83381902D01*
X68963553Y-83148631D01*
X68890566Y-82924003D01*
X68875857Y-82895136D01*
X68874809Y-82893080D01*
X68849655Y-82843713D01*
X71149500Y-82843713D01*
X71149500Y-84156286D01*
X71182289Y-84363311D01*
X71182754Y-84366243D01*
X71218907Y-84477511D01*
X71248444Y-84568414D01*
X71344951Y-84757820D01*
X71469890Y-84929786D01*
X71620213Y-85080109D01*
X71792179Y-85205048D01*
X71792181Y-85205049D01*
X71792184Y-85205051D01*
X71981588Y-85301557D01*
X72183757Y-85367246D01*
X72393713Y-85400500D01*
X72393714Y-85400500D01*
X72606286Y-85400500D01*
X72606287Y-85400500D01*
X72816243Y-85367246D01*
X73018412Y-85301557D01*
X73207816Y-85205051D01*
X73290046Y-85145308D01*
X73379786Y-85080109D01*
X73379788Y-85080106D01*
X73379792Y-85080104D01*
X73530104Y-84929792D01*
X73530106Y-84929788D01*
X73530109Y-84929786D01*
X73655048Y-84757820D01*
X73655047Y-84757820D01*
X73655051Y-84757816D01*
X73751557Y-84568412D01*
X73817246Y-84366243D01*
X73850500Y-84156287D01*
X73850500Y-82843713D01*
X73817246Y-82633757D01*
X73751557Y-82431588D01*
X73655051Y-82242184D01*
X73655049Y-82242181D01*
X73655048Y-82242179D01*
X73530109Y-82070213D01*
X73379786Y-81919890D01*
X73207820Y-81794951D01*
X73018414Y-81698444D01*
X73018413Y-81698443D01*
X73018412Y-81698443D01*
X72816243Y-81632754D01*
X72816241Y-81632753D01*
X72816240Y-81632753D01*
X72654957Y-81607208D01*
X72606287Y-81599500D01*
X72393713Y-81599500D01*
X72345042Y-81607208D01*
X72183760Y-81632753D01*
X71981585Y-81698444D01*
X71792179Y-81794951D01*
X71620213Y-81919890D01*
X71469890Y-82070213D01*
X71344951Y-82242179D01*
X71248444Y-82431585D01*
X71182753Y-82633760D01*
X71149500Y-82843713D01*
X68849655Y-82843713D01*
X68811893Y-82769600D01*
X68798998Y-82700934D01*
X68825274Y-82636194D01*
X68834690Y-82625635D01*
X69706652Y-81753672D01*
X69706657Y-81753669D01*
X69716860Y-81743465D01*
X69716862Y-81743465D01*
X69777465Y-81682862D01*
X69806395Y-81632754D01*
X69820318Y-81608639D01*
X69842501Y-81525853D01*
X69842501Y-81440147D01*
X69842501Y-81432552D01*
X69842500Y-81432534D01*
X69842500Y-69569855D01*
X69842501Y-69569842D01*
X69842501Y-69474148D01*
X69842501Y-69474147D01*
X69820318Y-69391361D01*
X69798891Y-69354250D01*
X69777465Y-69317138D01*
X69716862Y-69256535D01*
X69716859Y-69256533D01*
X69272221Y-68811895D01*
X68834699Y-68374372D01*
X68801214Y-68313049D01*
X68806198Y-68243357D01*
X68811895Y-68230396D01*
X68857940Y-68140029D01*
X68883729Y-68089414D01*
X68890566Y-68075996D01*
X68890566Y-68075995D01*
X68890568Y-68075992D01*
X68963553Y-67851368D01*
X68983805Y-67723503D01*
X69000500Y-67618097D01*
X69000500Y-67381902D01*
X68963553Y-67148631D01*
X68896694Y-66942863D01*
X68890568Y-66924008D01*
X68890566Y-66924005D01*
X68890566Y-66924003D01*
X68875857Y-66895136D01*
X68849656Y-66843713D01*
X71149500Y-66843713D01*
X71149500Y-68156287D01*
X71155460Y-68193914D01*
X71181413Y-68357781D01*
X71182754Y-68366243D01*
X71218907Y-68477511D01*
X71248444Y-68568414D01*
X71344951Y-68757820D01*
X71469890Y-68929786D01*
X71620213Y-69080109D01*
X71792179Y-69205048D01*
X71792181Y-69205049D01*
X71792184Y-69205051D01*
X71981588Y-69301557D01*
X72183757Y-69367246D01*
X72393713Y-69400500D01*
X72393714Y-69400500D01*
X72606286Y-69400500D01*
X72606287Y-69400500D01*
X72816243Y-69367246D01*
X73018412Y-69301557D01*
X73207816Y-69205051D01*
X73229789Y-69189086D01*
X73379786Y-69080109D01*
X73379788Y-69080106D01*
X73379792Y-69080104D01*
X73530104Y-68929792D01*
X73530106Y-68929788D01*
X73530109Y-68929786D01*
X73655048Y-68757820D01*
X73655047Y-68757820D01*
X73655051Y-68757816D01*
X73751557Y-68568412D01*
X73817246Y-68366243D01*
X73850500Y-68156287D01*
X73850500Y-66843713D01*
X73817246Y-66633757D01*
X73751557Y-66431588D01*
X73655051Y-66242184D01*
X73655049Y-66242181D01*
X73655048Y-66242179D01*
X73530109Y-66070213D01*
X73379786Y-65919890D01*
X73207820Y-65794951D01*
X73018414Y-65698444D01*
X73018413Y-65698443D01*
X73018412Y-65698443D01*
X72816243Y-65632754D01*
X72816241Y-65632753D01*
X72816240Y-65632753D01*
X72654957Y-65607208D01*
X72606287Y-65599500D01*
X72393713Y-65599500D01*
X72345042Y-65607208D01*
X72183760Y-65632753D01*
X71981585Y-65698444D01*
X71792179Y-65794951D01*
X71620213Y-65919890D01*
X71469890Y-66070213D01*
X71344951Y-66242179D01*
X71248444Y-66431585D01*
X71182753Y-66633760D01*
X71156378Y-66800287D01*
X71149500Y-66843713D01*
X68849656Y-66843713D01*
X68844386Y-66833371D01*
X68783343Y-66713567D01*
X68644517Y-66522490D01*
X68477510Y-66355483D01*
X68286433Y-66216657D01*
X68075996Y-66109433D01*
X67851368Y-66036446D01*
X67618097Y-65999500D01*
X67618092Y-65999500D01*
X67381908Y-65999500D01*
X67381903Y-65999500D01*
X67148631Y-66036446D01*
X66924003Y-66109433D01*
X66713566Y-66216657D01*
X66678432Y-66242184D01*
X66522490Y-66355483D01*
X66522488Y-66355485D01*
X66522487Y-66355485D01*
X66355485Y-66522487D01*
X66355485Y-66522488D01*
X66355483Y-66522490D01*
X66295862Y-66604550D01*
X66216657Y-66713566D01*
X66109433Y-66924003D01*
X66036446Y-67148631D01*
X65999500Y-67381902D01*
X65999500Y-67618097D01*
X66036446Y-67851368D01*
X66109433Y-68075996D01*
X66216657Y-68286433D01*
X66355483Y-68477510D01*
X66522490Y-68644517D01*
X66713567Y-68783343D01*
X66795863Y-68825275D01*
X66924003Y-68890566D01*
X66924005Y-68890566D01*
X66924008Y-68890568D01*
X67044412Y-68929689D01*
X67148631Y-68963553D01*
X67381903Y-69000500D01*
X67381908Y-69000500D01*
X67618097Y-69000500D01*
X67851368Y-68963553D01*
X67855997Y-68962049D01*
X68075992Y-68890568D01*
X68230396Y-68811894D01*
X68299065Y-68798999D01*
X68363806Y-68825275D01*
X68374372Y-68834699D01*
X69155181Y-69615507D01*
X69188666Y-69676830D01*
X69191500Y-69703188D01*
X69191500Y-71432242D01*
X69171815Y-71499281D01*
X69119011Y-71545036D01*
X69049853Y-71554980D01*
X68986297Y-71525955D01*
X68979819Y-71519923D01*
X68929786Y-71469890D01*
X68757820Y-71344951D01*
X68568414Y-71248444D01*
X68568413Y-71248443D01*
X68568412Y-71248443D01*
X68366243Y-71182754D01*
X68366241Y-71182753D01*
X68366240Y-71182753D01*
X68204957Y-71157208D01*
X68156287Y-71149500D01*
X66843713Y-71149500D01*
X66795042Y-71157208D01*
X66633760Y-71182753D01*
X66431585Y-71248444D01*
X66242179Y-71344951D01*
X66070213Y-71469890D01*
X65919890Y-71620213D01*
X65794951Y-71792179D01*
X65698444Y-71981585D01*
X65632753Y-72183760D01*
X65599500Y-72393713D01*
X64803100Y-72393713D01*
X64803100Y-62393713D01*
X65599500Y-62393713D01*
X65599500Y-62606286D01*
X65631511Y-62808400D01*
X65632754Y-62816243D01*
X65697098Y-63014274D01*
X65698444Y-63018414D01*
X65794951Y-63207820D01*
X65919890Y-63379786D01*
X66070213Y-63530109D01*
X66242179Y-63655048D01*
X66242181Y-63655049D01*
X66242184Y-63655051D01*
X66431588Y-63751557D01*
X66633757Y-63817246D01*
X66843713Y-63850500D01*
X66843714Y-63850500D01*
X68156286Y-63850500D01*
X68156287Y-63850500D01*
X68366243Y-63817246D01*
X68568412Y-63751557D01*
X68757816Y-63655051D01*
X68779789Y-63639086D01*
X68929786Y-63530109D01*
X68929788Y-63530106D01*
X68929792Y-63530104D01*
X69080104Y-63379792D01*
X69080106Y-63379788D01*
X69080109Y-63379786D01*
X69205048Y-63207820D01*
X69205047Y-63207820D01*
X69205051Y-63207816D01*
X69301557Y-63018412D01*
X69367246Y-62816243D01*
X69400500Y-62606287D01*
X69400500Y-62393713D01*
X69367246Y-62183757D01*
X69301557Y-61981588D01*
X69205051Y-61792184D01*
X69205049Y-61792181D01*
X69205048Y-61792179D01*
X69080109Y-61620213D01*
X68929786Y-61469890D01*
X68757820Y-61344951D01*
X68568414Y-61248444D01*
X68568413Y-61248443D01*
X68568412Y-61248443D01*
X68366243Y-61182754D01*
X68366241Y-61182753D01*
X68366240Y-61182753D01*
X68204957Y-61157208D01*
X68156287Y-61149500D01*
X66843713Y-61149500D01*
X66795042Y-61157208D01*
X66633760Y-61182753D01*
X66431585Y-61248444D01*
X66242179Y-61344951D01*
X66070213Y-61469890D01*
X65919890Y-61620213D01*
X65794951Y-61792179D01*
X65698444Y-61981585D01*
X65632753Y-62183760D01*
X65599500Y-62393713D01*
X64803100Y-62393713D01*
X64803100Y-56300000D01*
X65513603Y-56300000D01*
X66329288Y-56300000D01*
X66324979Y-56310402D01*
X66300000Y-56435981D01*
X66300000Y-56564019D01*
X66324979Y-56689598D01*
X66329288Y-56700000D01*
X65513603Y-56700000D01*
X65535704Y-56839544D01*
X65606230Y-57056604D01*
X65709849Y-57259966D01*
X65844004Y-57444614D01*
X66005385Y-57605995D01*
X66190033Y-57740150D01*
X66393395Y-57843769D01*
X66610455Y-57914295D01*
X66835884Y-57950000D01*
X67300000Y-57950000D01*
X67300000Y-57150000D01*
X67700000Y-57150000D01*
X67700000Y-57950000D01*
X68164116Y-57950000D01*
X68389544Y-57914295D01*
X68606604Y-57843769D01*
X68809966Y-57740150D01*
X68994614Y-57605995D01*
X69155995Y-57444614D01*
X69290150Y-57259966D01*
X69393769Y-57056604D01*
X69464295Y-56839544D01*
X69486397Y-56700000D01*
X68670712Y-56700000D01*
X68675021Y-56689598D01*
X68700000Y-56564019D01*
X68700000Y-56435981D01*
X68675021Y-56310402D01*
X68670712Y-56300000D01*
X69486397Y-56300000D01*
X69464295Y-56160455D01*
X69393769Y-55943395D01*
X69290150Y-55740033D01*
X69155995Y-55555385D01*
X68994614Y-55394004D01*
X68809966Y-55259849D01*
X68606604Y-55156230D01*
X68389544Y-55085704D01*
X68164116Y-55050000D01*
X67700000Y-55050000D01*
X67700000Y-55850000D01*
X67300000Y-55850000D01*
X67300000Y-55050000D01*
X66835884Y-55050000D01*
X66610455Y-55085704D01*
X66393395Y-55156230D01*
X66190033Y-55259849D01*
X66005385Y-55394004D01*
X65844004Y-55555385D01*
X65709849Y-55740033D01*
X65606230Y-55943395D01*
X65535704Y-56160455D01*
X65513603Y-56300000D01*
X64803100Y-56300000D01*
X64803100Y-52296188D01*
X64822785Y-52229149D01*
X64839414Y-52208512D01*
X65792404Y-51255521D01*
X65853725Y-51222038D01*
X65923416Y-51227022D01*
X65979350Y-51268894D01*
X66003767Y-51334358D01*
X66002557Y-51362597D01*
X65999500Y-51381902D01*
X65999500Y-51618097D01*
X66036446Y-51851368D01*
X66109433Y-52075996D01*
X66216657Y-52286433D01*
X66355483Y-52477510D01*
X66522490Y-52644517D01*
X66713567Y-52783343D01*
X66739262Y-52796435D01*
X66924003Y-52890566D01*
X66924005Y-52890566D01*
X66924008Y-52890568D01*
X67044412Y-52929689D01*
X67148631Y-52963553D01*
X67381903Y-53000500D01*
X67381908Y-53000500D01*
X67618097Y-53000500D01*
X67851368Y-52963553D01*
X68075992Y-52890568D01*
X68286433Y-52783343D01*
X68477510Y-52644517D01*
X68644517Y-52477510D01*
X68783343Y-52286433D01*
X68890568Y-52075992D01*
X68963553Y-51851368D01*
X68977774Y-51761582D01*
X68998735Y-51629240D01*
X68998735Y-51629239D01*
X69000500Y-51618096D01*
X69000500Y-51381902D01*
X68963553Y-51148631D01*
X68897540Y-50945467D01*
X68890568Y-50924008D01*
X68890565Y-50924004D01*
X68890565Y-50924001D01*
X68871868Y-50887307D01*
X68871867Y-50887306D01*
X68871192Y-50885981D01*
X68845666Y-50835883D01*
X71050000Y-50835883D01*
X71050000Y-51300000D01*
X71850000Y-51300000D01*
X71850000Y-51700000D01*
X71050000Y-51700000D01*
X71050000Y-52164116D01*
X71085704Y-52389544D01*
X71156230Y-52606604D01*
X71259849Y-52809966D01*
X71394004Y-52994614D01*
X71555385Y-53155995D01*
X71740033Y-53290150D01*
X71943395Y-53393769D01*
X72160455Y-53464295D01*
X72300000Y-53486397D01*
X72300000Y-52670712D01*
X72310402Y-52675021D01*
X72435981Y-52700000D01*
X72564019Y-52700000D01*
X72689598Y-52675021D01*
X72700000Y-52670712D01*
X72700000Y-53486396D01*
X72839544Y-53464295D01*
X73056604Y-53393769D01*
X73259966Y-53290150D01*
X73444614Y-53155995D01*
X73605995Y-52994614D01*
X73740150Y-52809966D01*
X73843769Y-52606604D01*
X73914295Y-52389544D01*
X73950000Y-52164116D01*
X73950000Y-51700000D01*
X73150000Y-51700000D01*
X73150000Y-51300000D01*
X73950000Y-51300000D01*
X73950000Y-50835883D01*
X73914295Y-50610455D01*
X73843769Y-50393395D01*
X73740150Y-50190033D01*
X73605995Y-50005385D01*
X73444614Y-49844004D01*
X73259966Y-49709849D01*
X73056604Y-49606230D01*
X72839545Y-49535704D01*
X72700000Y-49513601D01*
X72700000Y-50329287D01*
X72689598Y-50324979D01*
X72564019Y-50300000D01*
X72435981Y-50300000D01*
X72310402Y-50324979D01*
X72300000Y-50329287D01*
X72300000Y-49513601D01*
X72160455Y-49535704D01*
X72160452Y-49535704D01*
X71943395Y-49606230D01*
X71740033Y-49709849D01*
X71555385Y-49844004D01*
X71394004Y-50005385D01*
X71259849Y-50190033D01*
X71156230Y-50393395D01*
X71085704Y-50610455D01*
X71050000Y-50835883D01*
X68845666Y-50835883D01*
X68783343Y-50713567D01*
X68644517Y-50522490D01*
X68477510Y-50355483D01*
X68286433Y-50216657D01*
X68075996Y-50109433D01*
X67851368Y-50036446D01*
X67618097Y-49999500D01*
X67618092Y-49999500D01*
X67381908Y-49999500D01*
X67381903Y-49999500D01*
X67362597Y-50002557D01*
X67293304Y-49993600D01*
X67239854Y-49948601D01*
X67219217Y-49881849D01*
X67237944Y-49814536D01*
X67255518Y-49792407D01*
X71960465Y-45087462D01*
X72003318Y-45013239D01*
X72025500Y-44930453D01*
X72025500Y-44844747D01*
X72025500Y-43194037D01*
X72045185Y-43126998D01*
X72097989Y-43081243D01*
X72111177Y-43076108D01*
X72141639Y-43066211D01*
X72302994Y-42983996D01*
X72449501Y-42877553D01*
X72577553Y-42749501D01*
X72683996Y-42602994D01*
X72766211Y-42441639D01*
X72822171Y-42269409D01*
X72839954Y-42157131D01*
X72850500Y-42090551D01*
X72850500Y-41909448D01*
X72831217Y-41787708D01*
X72822171Y-41730591D01*
X72766211Y-41558361D01*
X72766211Y-41558360D01*
X72730096Y-41487482D01*
X72683996Y-41397006D01*
X72590936Y-41268919D01*
X72577558Y-41250505D01*
X72577554Y-41250500D01*
X72449499Y-41122445D01*
X72449494Y-41122441D01*
X72302997Y-41016006D01*
X72302996Y-41016005D01*
X72302994Y-41016004D01*
X72244257Y-40986076D01*
X72141639Y-40933788D01*
X72141636Y-40933787D01*
X71969410Y-40877829D01*
X71790551Y-40849500D01*
X71790546Y-40849500D01*
X71609454Y-40849500D01*
X71609449Y-40849500D01*
X71430589Y-40877829D01*
X71258363Y-40933787D01*
X71258360Y-40933788D01*
X71097002Y-41016006D01*
X70950505Y-41122441D01*
X70950500Y-41122445D01*
X70822445Y-41250500D01*
X70822441Y-41250505D01*
X70716006Y-41397002D01*
X70633788Y-41558360D01*
X70633787Y-41558363D01*
X70600240Y-41661612D01*
X70560802Y-41719288D01*
X70496444Y-41746486D01*
X70427597Y-41734571D01*
X70376122Y-41687327D01*
X70364378Y-41661612D01*
X70318418Y-41520164D01*
X70229095Y-41344856D01*
X70173922Y-41268919D01*
X70173922Y-41268918D01*
X69666154Y-41776686D01*
X69600110Y-41662292D01*
X69497708Y-41559890D01*
X69383312Y-41493844D01*
X69891080Y-40986077D01*
X69891079Y-40986076D01*
X69815143Y-40930904D01*
X69639835Y-40841581D01*
X69452705Y-40780778D01*
X69258382Y-40750000D01*
X69061618Y-40750000D01*
X68867294Y-40780778D01*
X68680164Y-40841581D01*
X68504855Y-40930905D01*
X68504846Y-40930911D01*
X68428919Y-40986075D01*
X68428918Y-40986076D01*
X68936687Y-41493844D01*
X68822292Y-41559890D01*
X68719890Y-41662292D01*
X68653844Y-41776686D01*
X68146076Y-41268918D01*
X68146075Y-41268919D01*
X68090911Y-41344846D01*
X68090905Y-41344855D01*
X68001581Y-41520162D01*
X67955621Y-41661613D01*
X67916183Y-41719288D01*
X67851824Y-41746486D01*
X67782978Y-41734571D01*
X67731502Y-41687327D01*
X67719759Y-41661611D01*
X67686213Y-41558366D01*
X67686211Y-41558360D01*
X67650096Y-41487482D01*
X67603996Y-41397006D01*
X67510936Y-41268919D01*
X67497558Y-41250505D01*
X67497554Y-41250500D01*
X67369499Y-41122445D01*
X67369494Y-41122441D01*
X67222997Y-41016006D01*
X67222996Y-41016005D01*
X67222994Y-41016004D01*
X67164257Y-40986076D01*
X67061639Y-40933788D01*
X67061636Y-40933787D01*
X66889410Y-40877829D01*
X66710551Y-40849500D01*
X66710546Y-40849500D01*
X66529454Y-40849500D01*
X66529449Y-40849500D01*
X66350589Y-40877829D01*
X66178363Y-40933787D01*
X66178360Y-40933788D01*
X66017002Y-41016006D01*
X65870505Y-41122441D01*
X65870500Y-41122445D01*
X65742445Y-41250500D01*
X65742441Y-41250505D01*
X65636006Y-41397002D01*
X65553788Y-41558360D01*
X65553787Y-41558363D01*
X65497829Y-41730589D01*
X65469500Y-41909448D01*
X65469500Y-42090551D01*
X65497829Y-42269410D01*
X65553787Y-42441636D01*
X65553791Y-42441644D01*
X65568327Y-42470173D01*
X65581223Y-42538842D01*
X65554946Y-42603582D01*
X65545523Y-42614148D01*
X62059637Y-46100035D01*
X62059633Y-46100041D01*
X62016781Y-46174261D01*
X62016782Y-46174262D01*
X61994600Y-46257047D01*
X61994600Y-91033710D01*
X61974915Y-91100749D01*
X61958281Y-91121391D01*
X58038835Y-95040836D01*
X57977512Y-95074321D01*
X57907820Y-95069337D01*
X57903703Y-95067717D01*
X57865499Y-95051893D01*
X57831835Y-95037949D01*
X57831831Y-95037948D01*
X57831828Y-95037947D01*
X57638543Y-94999500D01*
X57638541Y-94999500D01*
X57441459Y-94999500D01*
X57441457Y-94999500D01*
X57248170Y-95037947D01*
X57248160Y-95037950D01*
X57066092Y-95113364D01*
X57066079Y-95113371D01*
X56902218Y-95222860D01*
X56902214Y-95222863D01*
X56762863Y-95362214D01*
X56762860Y-95362218D01*
X56653371Y-95526079D01*
X56653364Y-95526092D01*
X56577950Y-95708160D01*
X56577947Y-95708170D01*
X56539500Y-95901456D01*
X56539500Y-95901459D01*
X56539500Y-96098541D01*
X56539500Y-96098543D01*
X56539499Y-96098543D01*
X56000500Y-96098543D01*
X56000500Y-96098541D01*
X56000500Y-95901459D01*
X56000500Y-95901456D01*
X55962052Y-95708170D01*
X55962051Y-95708169D01*
X55962051Y-95708165D01*
X55913369Y-95590635D01*
X55886635Y-95526092D01*
X55886628Y-95526079D01*
X55777139Y-95362218D01*
X55777136Y-95362214D01*
X55637785Y-95222863D01*
X55637781Y-95222860D01*
X55473920Y-95113371D01*
X55473910Y-95113366D01*
X55402047Y-95083599D01*
X55347643Y-95039757D01*
X55325579Y-94973463D01*
X55325500Y-94969038D01*
X55325500Y-90030960D01*
X55345185Y-89963921D01*
X55397989Y-89918166D01*
X55402005Y-89916417D01*
X55473914Y-89886632D01*
X55637782Y-89777139D01*
X55777139Y-89637782D01*
X55886632Y-89473914D01*
X55962051Y-89291835D01*
X55978764Y-89207816D01*
X56000500Y-89098543D01*
X56000500Y-88901456D01*
X55962052Y-88708170D01*
X55962051Y-88708169D01*
X55962051Y-88708165D01*
X55958829Y-88700386D01*
X55886635Y-88526092D01*
X55886628Y-88526079D01*
X55777139Y-88362218D01*
X55777136Y-88362214D01*
X55637785Y-88222863D01*
X55637781Y-88222860D01*
X55473920Y-88113371D01*
X55473907Y-88113364D01*
X55291839Y-88037950D01*
X55291829Y-88037947D01*
X55098543Y-87999500D01*
X55098541Y-87999500D01*
X54901459Y-87999500D01*
X54901457Y-87999500D01*
X54708170Y-88037947D01*
X54708160Y-88037950D01*
X54526092Y-88113364D01*
X54526079Y-88113371D01*
X54362218Y-88222860D01*
X54362214Y-88222863D01*
X54222863Y-88362214D01*
X54222860Y-88362218D01*
X54113371Y-88526079D01*
X54113364Y-88526092D01*
X54037950Y-88708160D01*
X54037947Y-88708170D01*
X53999500Y-88901456D01*
X53999500Y-88901459D01*
X53999500Y-89098541D01*
X53999500Y-89098543D01*
X53999499Y-89098543D01*
X53500500Y-89098543D01*
X53500500Y-88395730D01*
X53497646Y-88365300D01*
X53497646Y-88365298D01*
X53452793Y-88237119D01*
X53452792Y-88237117D01*
X53413413Y-88183760D01*
X53372150Y-88127850D01*
X53262882Y-88047207D01*
X53262880Y-88047206D01*
X53134700Y-88002353D01*
X53104270Y-87999500D01*
X53104266Y-87999500D01*
X52949500Y-87999500D01*
X52882461Y-87979815D01*
X52836706Y-87927011D01*
X52825500Y-87875500D01*
X52825500Y-83686188D01*
X52845185Y-83619149D01*
X52861814Y-83598512D01*
X54501165Y-81959160D01*
X54562486Y-81925677D01*
X54632178Y-81930661D01*
X54636270Y-81932271D01*
X54708165Y-81962051D01*
X54708169Y-81962051D01*
X54708170Y-81962052D01*
X54901456Y-82000500D01*
X54901459Y-82000500D01*
X55098543Y-82000500D01*
X55228582Y-81974632D01*
X55291835Y-81962051D01*
X55473914Y-81886632D01*
X55637782Y-81777139D01*
X55637785Y-81777136D01*
X55643327Y-81771595D01*
X55777136Y-81637785D01*
X55777139Y-81637782D01*
X55886632Y-81473914D01*
X55962051Y-81291835D01*
X56000500Y-81098541D01*
X56000500Y-80913428D01*
X58900000Y-80913428D01*
X58900000Y-81086571D01*
X58927085Y-81257584D01*
X58980591Y-81422257D01*
X59059195Y-81576523D01*
X59059196Y-81576525D01*
X59093463Y-81623691D01*
X59093464Y-81623691D01*
X59613629Y-81103527D01*
X59627259Y-81154394D01*
X59679920Y-81245606D01*
X59754394Y-81320080D01*
X59845606Y-81372741D01*
X59896471Y-81386370D01*
X59376307Y-81906534D01*
X59423478Y-81940805D01*
X59577742Y-82019408D01*
X59742415Y-82072914D01*
X59913429Y-82100000D01*
X60086571Y-82100000D01*
X60257584Y-82072914D01*
X60422257Y-82019408D01*
X60576525Y-81940803D01*
X60623691Y-81906534D01*
X60623692Y-81906533D01*
X60103529Y-81386370D01*
X60154394Y-81372741D01*
X60245606Y-81320080D01*
X60320080Y-81245606D01*
X60372741Y-81154394D01*
X60386370Y-81103528D01*
X60906533Y-81623692D01*
X60906534Y-81623691D01*
X60940803Y-81576525D01*
X61019408Y-81422257D01*
X61072914Y-81257584D01*
X61100000Y-81086571D01*
X61100000Y-80913428D01*
X61072914Y-80742415D01*
X61019408Y-80577742D01*
X60940805Y-80423478D01*
X60906534Y-80376307D01*
X60386370Y-80896471D01*
X60372741Y-80845606D01*
X60320080Y-80754394D01*
X60245606Y-80679920D01*
X60154394Y-80627259D01*
X60103527Y-80613629D01*
X60623691Y-80093464D01*
X60623691Y-80093463D01*
X60576525Y-80059196D01*
X60576523Y-80059195D01*
X60422257Y-79980591D01*
X60257584Y-79927085D01*
X60086571Y-79900000D01*
X59913429Y-79900000D01*
X59742415Y-79927085D01*
X59577740Y-79980592D01*
X59423475Y-80059196D01*
X59376307Y-80093463D01*
X59376307Y-80093464D01*
X59896472Y-80613629D01*
X59845606Y-80627259D01*
X59754394Y-80679920D01*
X59679920Y-80754394D01*
X59627259Y-80845606D01*
X59613629Y-80896472D01*
X59093464Y-80376307D01*
X59093463Y-80376307D01*
X59059196Y-80423475D01*
X58980592Y-80577740D01*
X58927085Y-80742415D01*
X58900000Y-80913428D01*
X56000500Y-80913428D01*
X56000500Y-80901459D01*
X56000500Y-80901456D01*
X55962052Y-80708170D01*
X55962051Y-80708169D01*
X55962051Y-80708165D01*
X55932281Y-80636295D01*
X55924813Y-80566828D01*
X55956088Y-80504348D01*
X55959133Y-80501192D01*
X57800465Y-78659862D01*
X57843317Y-78585639D01*
X57843318Y-78585638D01*
X57865500Y-78502853D01*
X57865500Y-75030960D01*
X57885185Y-74963921D01*
X57937989Y-74918166D01*
X57942005Y-74916417D01*
X58013914Y-74886632D01*
X58177782Y-74777139D01*
X58317139Y-74637782D01*
X58426632Y-74473914D01*
X58502051Y-74291835D01*
X58540500Y-74098541D01*
X58540500Y-73901459D01*
X58540500Y-73901456D01*
X58502052Y-73708170D01*
X58502051Y-73708169D01*
X58502051Y-73708165D01*
X58480051Y-73655051D01*
X58426635Y-73526092D01*
X58426628Y-73526079D01*
X58317139Y-73362218D01*
X58317136Y-73362214D01*
X58177785Y-73222863D01*
X58177781Y-73222860D01*
X58013920Y-73113371D01*
X58013907Y-73113364D01*
X57831839Y-73037950D01*
X57831829Y-73037947D01*
X57638543Y-72999500D01*
X57638541Y-72999500D01*
X57441459Y-72999500D01*
X57441457Y-72999500D01*
X57248170Y-73037947D01*
X57248160Y-73037950D01*
X57066092Y-73113364D01*
X57066079Y-73113371D01*
X56902218Y-73222860D01*
X56902214Y-73222863D01*
X56762863Y-73362214D01*
X56762860Y-73362218D01*
X56653371Y-73526079D01*
X56653364Y-73526092D01*
X56577950Y-73708160D01*
X56577947Y-73708170D01*
X56539500Y-73901456D01*
X56539500Y-73901459D01*
X56539500Y-74098541D01*
X56539500Y-74098543D01*
X56539499Y-74098543D01*
X56577947Y-74291829D01*
X56577950Y-74291839D01*
X56653364Y-74473907D01*
X56653371Y-74473920D01*
X56762860Y-74637781D01*
X56762863Y-74637785D01*
X56902217Y-74777139D01*
X57032363Y-74864099D01*
X57066086Y-74886632D01*
X57137953Y-74916399D01*
X57192355Y-74960239D01*
X57214421Y-75026533D01*
X57214500Y-75030960D01*
X57214500Y-78273810D01*
X57194815Y-78340849D01*
X57178181Y-78361491D01*
X55498835Y-80040836D01*
X55437512Y-80074321D01*
X55367820Y-80069337D01*
X55363703Y-80067717D01*
X55328273Y-80053042D01*
X55291835Y-80037949D01*
X55291831Y-80037948D01*
X55291828Y-80037947D01*
X55098543Y-79999500D01*
X55098541Y-79999500D01*
X54901459Y-79999500D01*
X54901457Y-79999500D01*
X54708170Y-80037947D01*
X54708160Y-80037950D01*
X54526092Y-80113364D01*
X54526079Y-80113371D01*
X54362218Y-80222860D01*
X54362214Y-80222863D01*
X54222863Y-80362214D01*
X54222860Y-80362218D01*
X54113371Y-80526079D01*
X54113364Y-80526092D01*
X54037950Y-80708160D01*
X54037947Y-80708170D01*
X53999500Y-80901456D01*
X53999500Y-80901459D01*
X53999500Y-81098541D01*
X53999500Y-81098543D01*
X53999499Y-81098543D01*
X54037947Y-81291828D01*
X54037948Y-81291831D01*
X54037949Y-81291835D01*
X54061285Y-81348173D01*
X54067717Y-81363703D01*
X54075184Y-81433173D01*
X54043909Y-81495651D01*
X54040836Y-81498835D01*
X52239537Y-83300135D01*
X52239533Y-83300141D01*
X52196681Y-83374361D01*
X52196682Y-83374362D01*
X52174500Y-83457147D01*
X52174500Y-87875500D01*
X52154815Y-87942539D01*
X52102011Y-87988294D01*
X52050500Y-87999500D01*
X51895730Y-87999500D01*
X51865300Y-88002353D01*
X51865298Y-88002353D01*
X51737119Y-88047206D01*
X51737117Y-88047207D01*
X51627850Y-88127850D01*
X51547207Y-88237117D01*
X51547206Y-88237119D01*
X51502353Y-88365298D01*
X51502353Y-88365300D01*
X51499500Y-88395730D01*
X42866800Y-88395730D01*
X42866800Y-77706148D01*
X42886485Y-77639109D01*
X42939289Y-77593354D01*
X43008447Y-77583410D01*
X43022895Y-77586373D01*
X43025909Y-77587180D01*
X43025915Y-77587184D01*
X43165925Y-77624700D01*
X43165929Y-77624700D01*
X43310872Y-77624700D01*
X43310875Y-77624700D01*
X43450885Y-77587184D01*
X43576415Y-77514709D01*
X43678909Y-77412215D01*
X43751384Y-77286685D01*
X43788900Y-77146675D01*
X43788900Y-77001725D01*
X43751384Y-76861715D01*
X43744620Y-76850000D01*
X43678911Y-76736188D01*
X43678910Y-76736187D01*
X43678909Y-76736185D01*
X43600218Y-76657494D01*
X43566734Y-76596170D01*
X43563900Y-76569813D01*
X43563900Y-58878711D01*
X45649500Y-58878711D01*
X45649500Y-59121288D01*
X45681161Y-59361785D01*
X45743947Y-59596104D01*
X45795090Y-59719573D01*
X45836776Y-59820212D01*
X45958064Y-60030289D01*
X45958066Y-60030292D01*
X45958067Y-60030293D01*
X46105733Y-60222736D01*
X46105739Y-60222743D01*
X46277256Y-60394260D01*
X46277262Y-60394265D01*
X46469711Y-60541936D01*
X46679788Y-60663224D01*
X46903900Y-60756054D01*
X47138211Y-60818838D01*
X47318586Y-60842584D01*
X47378711Y-60850500D01*
X47378712Y-60850500D01*
X47621289Y-60850500D01*
X47669388Y-60844167D01*
X47861789Y-60818838D01*
X48096100Y-60756054D01*
X48320212Y-60663224D01*
X48530289Y-60541936D01*
X48722738Y-60394265D01*
X48894265Y-60222738D01*
X49041936Y-60030289D01*
X49163224Y-59820212D01*
X49256054Y-59596100D01*
X49318838Y-59361789D01*
X49350500Y-59121288D01*
X49350500Y-58878712D01*
X49318838Y-58638211D01*
X49256054Y-58403900D01*
X49163224Y-58179788D01*
X49041936Y-57969711D01*
X48894265Y-57777262D01*
X48894260Y-57777256D01*
X48722743Y-57605739D01*
X48722736Y-57605733D01*
X48530293Y-57458067D01*
X48530292Y-57458066D01*
X48530289Y-57458064D01*
X48320212Y-57336776D01*
X48320205Y-57336773D01*
X48096104Y-57243947D01*
X47861785Y-57181161D01*
X47621289Y-57149500D01*
X47621288Y-57149500D01*
X47378712Y-57149500D01*
X47378711Y-57149500D01*
X47138214Y-57181161D01*
X46903895Y-57243947D01*
X46679794Y-57336773D01*
X46679785Y-57336777D01*
X46469706Y-57458067D01*
X46277263Y-57605733D01*
X46277256Y-57605739D01*
X46105739Y-57777256D01*
X46105733Y-57777263D01*
X45958067Y-57969706D01*
X45836777Y-58179785D01*
X45836773Y-58179794D01*
X45743947Y-58403895D01*
X45681161Y-58638214D01*
X45649500Y-58878711D01*
X43563900Y-58878711D01*
X43563900Y-50327788D01*
X43583585Y-50260749D01*
X43600214Y-50240112D01*
X50765852Y-43074473D01*
X50827173Y-43040990D01*
X50896865Y-43045974D01*
X50909819Y-43051668D01*
X50938361Y-43066211D01*
X50938362Y-43066211D01*
X50938363Y-43066212D01*
X50984625Y-43081243D01*
X51110591Y-43122171D01*
X51193429Y-43135291D01*
X51289449Y-43150500D01*
X51289454Y-43150500D01*
X51470551Y-43150500D01*
X51557259Y-43136765D01*
X51649409Y-43122171D01*
X51821639Y-43066211D01*
X51982994Y-42983996D01*
X52129501Y-42877553D01*
X52257553Y-42749501D01*
X52363996Y-42602994D01*
X52446211Y-42441639D01*
X52502171Y-42269409D01*
X52519954Y-42157131D01*
X52527527Y-42109321D01*
X52557456Y-42046186D01*
X52616768Y-42009255D01*
X52686630Y-42010253D01*
X52744863Y-42048863D01*
X52772473Y-42109321D01*
X52797829Y-42269410D01*
X52853787Y-42441636D01*
X52853788Y-42441639D01*
X52936006Y-42602997D01*
X53042441Y-42749494D01*
X53042445Y-42749499D01*
X53170500Y-42877554D01*
X53170505Y-42877558D01*
X53280924Y-42957781D01*
X53317006Y-42983996D01*
X53403818Y-43028229D01*
X53478360Y-43066211D01*
X53478364Y-43066212D01*
X53508815Y-43076106D01*
X53566491Y-43115540D01*
X53593691Y-43179898D01*
X53594500Y-43194037D01*
X53594500Y-76980013D01*
X53574815Y-77047052D01*
X53558182Y-77067694D01*
X53479488Y-77146388D01*
X53407017Y-77271911D01*
X53407016Y-77271915D01*
X53369500Y-77411925D01*
X53369500Y-77556875D01*
X53407016Y-77696885D01*
X53407017Y-77696888D01*
X53479488Y-77822411D01*
X53479490Y-77822413D01*
X53479491Y-77822415D01*
X53581985Y-77924909D01*
X53581986Y-77924910D01*
X53581988Y-77924911D01*
X53707511Y-77997382D01*
X53707512Y-77997382D01*
X53707515Y-77997384D01*
X53847525Y-78034900D01*
X53847528Y-78034900D01*
X53992472Y-78034900D01*
X53992475Y-78034900D01*
X54132485Y-77997384D01*
X54258015Y-77924909D01*
X54360509Y-77822415D01*
X54432984Y-77696885D01*
X54470500Y-77556875D01*
X54470500Y-77411925D01*
X54432984Y-77271915D01*
X54419432Y-77248443D01*
X54360511Y-77146388D01*
X54360510Y-77146387D01*
X54360509Y-77146385D01*
X54281818Y-77067694D01*
X54248334Y-77006370D01*
X54245500Y-76980013D01*
X54245500Y-74931138D01*
X54265185Y-74864099D01*
X54317989Y-74818344D01*
X54387147Y-74808400D01*
X54438390Y-74828035D01*
X54526086Y-74886632D01*
X54526088Y-74886633D01*
X54526092Y-74886635D01*
X54703790Y-74960239D01*
X54708165Y-74962051D01*
X54708169Y-74962051D01*
X54708170Y-74962052D01*
X54901456Y-75000500D01*
X54901459Y-75000500D01*
X55098543Y-75000500D01*
X55228582Y-74974632D01*
X55291835Y-74962051D01*
X55473914Y-74886632D01*
X55637782Y-74777139D01*
X55777139Y-74637782D01*
X55886632Y-74473914D01*
X55962051Y-74291835D01*
X56000500Y-74098541D01*
X56000500Y-73901459D01*
X56000500Y-73901456D01*
X55962052Y-73708170D01*
X55962051Y-73708169D01*
X55962051Y-73708165D01*
X55940051Y-73655051D01*
X55886635Y-73526092D01*
X55886628Y-73526079D01*
X55777139Y-73362218D01*
X55777136Y-73362214D01*
X55637785Y-73222863D01*
X55637781Y-73222860D01*
X55473920Y-73113371D01*
X55473907Y-73113364D01*
X55291839Y-73037950D01*
X55291829Y-73037947D01*
X55098543Y-72999500D01*
X55098541Y-72999500D01*
X54901459Y-72999500D01*
X54901457Y-72999500D01*
X54708170Y-73037947D01*
X54708160Y-73037950D01*
X54526092Y-73113364D01*
X54526079Y-73113371D01*
X54438391Y-73171963D01*
X54371713Y-73192841D01*
X54304333Y-73174356D01*
X54257643Y-73122377D01*
X54245500Y-73068861D01*
X54245500Y-68931138D01*
X54265185Y-68864099D01*
X54317989Y-68818344D01*
X54387147Y-68808400D01*
X54438390Y-68828035D01*
X54526086Y-68886632D01*
X54526088Y-68886633D01*
X54526092Y-68886635D01*
X54708160Y-68962049D01*
X54708165Y-68962051D01*
X54708169Y-68962051D01*
X54708170Y-68962052D01*
X54901456Y-69000500D01*
X54901459Y-69000500D01*
X55098543Y-69000500D01*
X55228582Y-68974632D01*
X55291835Y-68962051D01*
X55464412Y-68890568D01*
X55473907Y-68886635D01*
X55473907Y-68886634D01*
X55473914Y-68886632D01*
X55637782Y-68777139D01*
X55777139Y-68637782D01*
X55886632Y-68473914D01*
X55962051Y-68291835D01*
X55987613Y-68163330D01*
X56000500Y-68098543D01*
X56000500Y-67901456D01*
X55962052Y-67708170D01*
X55962051Y-67708169D01*
X55962051Y-67708165D01*
X55962049Y-67708160D01*
X55886635Y-67526092D01*
X55886628Y-67526079D01*
X55777139Y-67362218D01*
X55777136Y-67362214D01*
X55637785Y-67222863D01*
X55637781Y-67222860D01*
X55473920Y-67113371D01*
X55473907Y-67113364D01*
X55291839Y-67037950D01*
X55291829Y-67037947D01*
X55098543Y-66999500D01*
X55098541Y-66999500D01*
X54901459Y-66999500D01*
X54901457Y-66999500D01*
X54708170Y-67037947D01*
X54708160Y-67037950D01*
X54526092Y-67113364D01*
X54526079Y-67113371D01*
X54438391Y-67171963D01*
X54371713Y-67192841D01*
X54304333Y-67174356D01*
X54257643Y-67122377D01*
X54245500Y-67068861D01*
X54245500Y-62931138D01*
X54265185Y-62864099D01*
X54317989Y-62818344D01*
X54387147Y-62808400D01*
X54438390Y-62828035D01*
X54526086Y-62886632D01*
X54526088Y-62886633D01*
X54526092Y-62886635D01*
X54703790Y-62960239D01*
X54708165Y-62962051D01*
X54708169Y-62962051D01*
X54708170Y-62962052D01*
X54901456Y-63000500D01*
X54901459Y-63000500D01*
X55098543Y-63000500D01*
X55228582Y-62974632D01*
X55291835Y-62962051D01*
X55473914Y-62886632D01*
X55637782Y-62777139D01*
X55777139Y-62637782D01*
X55886632Y-62473914D01*
X55962051Y-62291835D01*
X55974632Y-62228582D01*
X56000500Y-62098543D01*
X56539499Y-62098543D01*
X56577947Y-62291829D01*
X56577950Y-62291839D01*
X56653364Y-62473907D01*
X56653371Y-62473920D01*
X56762860Y-62637781D01*
X56762863Y-62637785D01*
X56902217Y-62777139D01*
X57032363Y-62864099D01*
X57066086Y-62886632D01*
X57137953Y-62916399D01*
X57192355Y-62960239D01*
X57214421Y-63026533D01*
X57214500Y-63030960D01*
X57214500Y-66969038D01*
X57194815Y-67036077D01*
X57142011Y-67081832D01*
X57137953Y-67083599D01*
X57066089Y-67113366D01*
X57066079Y-67113371D01*
X56902218Y-67222860D01*
X56902214Y-67222863D01*
X56762863Y-67362214D01*
X56762860Y-67362218D01*
X56653371Y-67526079D01*
X56653364Y-67526092D01*
X56577950Y-67708160D01*
X56577947Y-67708170D01*
X56539500Y-67901456D01*
X56539500Y-67901459D01*
X56539500Y-68098541D01*
X56539500Y-68098543D01*
X56539499Y-68098543D01*
X56577947Y-68291829D01*
X56577950Y-68291839D01*
X56653364Y-68473907D01*
X56653371Y-68473920D01*
X56762860Y-68637781D01*
X56762863Y-68637785D01*
X56902214Y-68777136D01*
X56902218Y-68777139D01*
X57066079Y-68886628D01*
X57066092Y-68886635D01*
X57248160Y-68962049D01*
X57248165Y-68962051D01*
X57248169Y-68962051D01*
X57248170Y-68962052D01*
X57441456Y-69000500D01*
X57441459Y-69000500D01*
X57638543Y-69000500D01*
X57768582Y-68974632D01*
X57831835Y-68962051D01*
X58004412Y-68890568D01*
X58013907Y-68886635D01*
X58013907Y-68886634D01*
X58013914Y-68886632D01*
X58177782Y-68777139D01*
X58317139Y-68637782D01*
X58426632Y-68473914D01*
X58502051Y-68291835D01*
X58527613Y-68163330D01*
X58540500Y-68098543D01*
X58540500Y-67901456D01*
X58502052Y-67708170D01*
X58502051Y-67708169D01*
X58502051Y-67708165D01*
X58502049Y-67708160D01*
X58426635Y-67526092D01*
X58426628Y-67526079D01*
X58317139Y-67362218D01*
X58317136Y-67362214D01*
X58177785Y-67222863D01*
X58177781Y-67222860D01*
X58013920Y-67113371D01*
X58013910Y-67113366D01*
X57942047Y-67083599D01*
X57887643Y-67039757D01*
X57865579Y-66973463D01*
X57865500Y-66969038D01*
X57865500Y-63030960D01*
X57885185Y-62963921D01*
X57937989Y-62918166D01*
X57942005Y-62916417D01*
X58013914Y-62886632D01*
X58177782Y-62777139D01*
X58317139Y-62637782D01*
X58426632Y-62473914D01*
X58502051Y-62291835D01*
X58514632Y-62228582D01*
X58540500Y-62098543D01*
X58540500Y-61901456D01*
X58502052Y-61708170D01*
X58502051Y-61708169D01*
X58502051Y-61708165D01*
X58489535Y-61677949D01*
X58426635Y-61526092D01*
X58426628Y-61526079D01*
X58317139Y-61362218D01*
X58317136Y-61362214D01*
X58177785Y-61222863D01*
X58177781Y-61222860D01*
X58013920Y-61113371D01*
X58013907Y-61113364D01*
X57831839Y-61037950D01*
X57831829Y-61037947D01*
X57638543Y-60999500D01*
X57638541Y-60999500D01*
X57441459Y-60999500D01*
X57441457Y-60999500D01*
X57248170Y-61037947D01*
X57248160Y-61037950D01*
X57066092Y-61113364D01*
X57066079Y-61113371D01*
X56902218Y-61222860D01*
X56902214Y-61222863D01*
X56762863Y-61362214D01*
X56762860Y-61362218D01*
X56653371Y-61526079D01*
X56653364Y-61526092D01*
X56577950Y-61708160D01*
X56577947Y-61708170D01*
X56539500Y-61901456D01*
X56539500Y-61901459D01*
X56539500Y-62098541D01*
X56539500Y-62098543D01*
X56539499Y-62098543D01*
X56000500Y-62098543D01*
X56000500Y-61901456D01*
X55962052Y-61708170D01*
X55962051Y-61708169D01*
X55962051Y-61708165D01*
X55949535Y-61677949D01*
X55886635Y-61526092D01*
X55886628Y-61526079D01*
X55777139Y-61362218D01*
X55777136Y-61362214D01*
X55637785Y-61222863D01*
X55637781Y-61222860D01*
X55473920Y-61113371D01*
X55473907Y-61113364D01*
X55291839Y-61037950D01*
X55291829Y-61037947D01*
X55098543Y-60999500D01*
X55098541Y-60999500D01*
X54901459Y-60999500D01*
X54901457Y-60999500D01*
X54708170Y-61037947D01*
X54708160Y-61037950D01*
X54526092Y-61113364D01*
X54526079Y-61113371D01*
X54438391Y-61171963D01*
X54371713Y-61192841D01*
X54304333Y-61174356D01*
X54257643Y-61122377D01*
X54245500Y-61068861D01*
X54245500Y-55931138D01*
X54265185Y-55864099D01*
X54317989Y-55818344D01*
X54387147Y-55808400D01*
X54438390Y-55828035D01*
X54526086Y-55886632D01*
X54526088Y-55886633D01*
X54526092Y-55886635D01*
X54663125Y-55943395D01*
X54708165Y-55962051D01*
X54708169Y-55962051D01*
X54708170Y-55962052D01*
X54901456Y-56000500D01*
X54901459Y-56000500D01*
X55098543Y-56000500D01*
X55228582Y-55974632D01*
X55291835Y-55962051D01*
X55473914Y-55886632D01*
X55637782Y-55777139D01*
X55777139Y-55637782D01*
X55886632Y-55473914D01*
X55962051Y-55291835D01*
X55989025Y-55156230D01*
X56000500Y-55098543D01*
X56000500Y-54901456D01*
X55962052Y-54708170D01*
X55962051Y-54708169D01*
X55962051Y-54708165D01*
X55940797Y-54656852D01*
X55886635Y-54526092D01*
X55886628Y-54526079D01*
X55777139Y-54362218D01*
X55777136Y-54362214D01*
X55637785Y-54222863D01*
X55637781Y-54222860D01*
X55473920Y-54113371D01*
X55473907Y-54113364D01*
X55291839Y-54037950D01*
X55291829Y-54037947D01*
X55098543Y-53999500D01*
X55098541Y-53999500D01*
X54901459Y-53999500D01*
X54901457Y-53999500D01*
X54708170Y-54037947D01*
X54708160Y-54037950D01*
X54526092Y-54113364D01*
X54526079Y-54113371D01*
X54438391Y-54171963D01*
X54371713Y-54192841D01*
X54304333Y-54174356D01*
X54257643Y-54122377D01*
X54245500Y-54068861D01*
X54245500Y-48931138D01*
X54265185Y-48864099D01*
X54317989Y-48818344D01*
X54387147Y-48808400D01*
X54438390Y-48828035D01*
X54526086Y-48886632D01*
X54526088Y-48886633D01*
X54526092Y-48886635D01*
X54703790Y-48960239D01*
X54708165Y-48962051D01*
X54708169Y-48962051D01*
X54708170Y-48962052D01*
X54901456Y-49000500D01*
X54901459Y-49000500D01*
X55098543Y-49000500D01*
X55228582Y-48974632D01*
X55291835Y-48962051D01*
X55473914Y-48886632D01*
X55637782Y-48777139D01*
X55777139Y-48637782D01*
X55886632Y-48473914D01*
X55962051Y-48291835D01*
X56000500Y-48098543D01*
X58999499Y-48098543D01*
X59037947Y-48291829D01*
X59037950Y-48291839D01*
X59113364Y-48473907D01*
X59113371Y-48473920D01*
X59222860Y-48637781D01*
X59222863Y-48637785D01*
X59362217Y-48777139D01*
X59492363Y-48864099D01*
X59526086Y-48886632D01*
X59597953Y-48916399D01*
X59652355Y-48960239D01*
X59674421Y-49026533D01*
X59674500Y-49030960D01*
X59674500Y-53969038D01*
X59654815Y-54036077D01*
X59602011Y-54081832D01*
X59597953Y-54083599D01*
X59526089Y-54113366D01*
X59526079Y-54113371D01*
X59362218Y-54222860D01*
X59362214Y-54222863D01*
X59222863Y-54362214D01*
X59222860Y-54362218D01*
X59113371Y-54526079D01*
X59113364Y-54526092D01*
X59037950Y-54708160D01*
X59037947Y-54708170D01*
X58999500Y-54901456D01*
X58999500Y-54901459D01*
X58999500Y-55098541D01*
X58999500Y-55098543D01*
X58999499Y-55098543D01*
X59037947Y-55291829D01*
X59037950Y-55291839D01*
X59113364Y-55473907D01*
X59113371Y-55473920D01*
X59222860Y-55637781D01*
X59222863Y-55637785D01*
X59362214Y-55777136D01*
X59362218Y-55777139D01*
X59526079Y-55886628D01*
X59526092Y-55886635D01*
X59663125Y-55943395D01*
X59708165Y-55962051D01*
X59708169Y-55962051D01*
X59708170Y-55962052D01*
X59901456Y-56000500D01*
X59901459Y-56000500D01*
X60098543Y-56000500D01*
X60228582Y-55974632D01*
X60291835Y-55962051D01*
X60473914Y-55886632D01*
X60637782Y-55777139D01*
X60777139Y-55637782D01*
X60886632Y-55473914D01*
X60962051Y-55291835D01*
X60989025Y-55156230D01*
X61000500Y-55098543D01*
X61000500Y-54901456D01*
X60962052Y-54708170D01*
X60962051Y-54708169D01*
X60962051Y-54708165D01*
X60940797Y-54656852D01*
X60886635Y-54526092D01*
X60886628Y-54526079D01*
X60777139Y-54362218D01*
X60777136Y-54362214D01*
X60637785Y-54222863D01*
X60637781Y-54222860D01*
X60473920Y-54113371D01*
X60473910Y-54113366D01*
X60402047Y-54083599D01*
X60347643Y-54039757D01*
X60325579Y-53973463D01*
X60325500Y-53969038D01*
X60325500Y-49030960D01*
X60345185Y-48963921D01*
X60397989Y-48918166D01*
X60402005Y-48916417D01*
X60473914Y-48886632D01*
X60637782Y-48777139D01*
X60777139Y-48637782D01*
X60886632Y-48473914D01*
X60962051Y-48291835D01*
X61000500Y-48098541D01*
X61000500Y-47901459D01*
X61000500Y-47901456D01*
X60962052Y-47708170D01*
X60962051Y-47708169D01*
X60962051Y-47708165D01*
X60955287Y-47691835D01*
X60886635Y-47526092D01*
X60886628Y-47526079D01*
X60777139Y-47362218D01*
X60777136Y-47362214D01*
X60637785Y-47222863D01*
X60637781Y-47222860D01*
X60473920Y-47113371D01*
X60473907Y-47113364D01*
X60291839Y-47037950D01*
X60291829Y-47037947D01*
X60098543Y-46999500D01*
X60098541Y-46999500D01*
X59901459Y-46999500D01*
X59901457Y-46999500D01*
X59708170Y-47037947D01*
X59708160Y-47037950D01*
X59526092Y-47113364D01*
X59526079Y-47113371D01*
X59362218Y-47222860D01*
X59362214Y-47222863D01*
X59222863Y-47362214D01*
X59222860Y-47362218D01*
X59113371Y-47526079D01*
X59113364Y-47526092D01*
X59037950Y-47708160D01*
X59037947Y-47708170D01*
X58999500Y-47901456D01*
X58999500Y-47901459D01*
X58999500Y-48098541D01*
X58999500Y-48098543D01*
X58999499Y-48098543D01*
X56000500Y-48098543D01*
X56000500Y-48098541D01*
X56000500Y-47901459D01*
X56000500Y-47901456D01*
X55962052Y-47708170D01*
X55962051Y-47708169D01*
X55962051Y-47708165D01*
X55955287Y-47691835D01*
X55886635Y-47526092D01*
X55886628Y-47526079D01*
X55777139Y-47362218D01*
X55777136Y-47362214D01*
X55637785Y-47222863D01*
X55637781Y-47222860D01*
X55473920Y-47113371D01*
X55473907Y-47113364D01*
X55291839Y-47037950D01*
X55291829Y-47037947D01*
X55098543Y-46999500D01*
X55098541Y-46999500D01*
X54901459Y-46999500D01*
X54901457Y-46999500D01*
X54708170Y-47037947D01*
X54708160Y-47037950D01*
X54526092Y-47113364D01*
X54526079Y-47113371D01*
X54438391Y-47171963D01*
X54371713Y-47192841D01*
X54304333Y-47174356D01*
X54257643Y-47122377D01*
X54245500Y-47068861D01*
X54245500Y-43194037D01*
X54265185Y-43126998D01*
X54317989Y-43081243D01*
X54331177Y-43076108D01*
X54361639Y-43066211D01*
X54522994Y-42983996D01*
X54669501Y-42877553D01*
X54797553Y-42749501D01*
X54903996Y-42602994D01*
X54986211Y-42441639D01*
X55042171Y-42269409D01*
X55059954Y-42157131D01*
X55070500Y-42090551D01*
X55070500Y-41909449D01*
X55070499Y-41909447D01*
X55069259Y-41901617D01*
X57750000Y-41901617D01*
X57750000Y-42098382D01*
X57780778Y-42292705D01*
X57841581Y-42479835D01*
X57930904Y-42655143D01*
X57986076Y-42731079D01*
X57986077Y-42731080D01*
X58493844Y-42223312D01*
X58559890Y-42337708D01*
X58662292Y-42440110D01*
X58776686Y-42506154D01*
X58268918Y-43013922D01*
X58344856Y-43069095D01*
X58520164Y-43158418D01*
X58707294Y-43219221D01*
X58901618Y-43250000D01*
X59098382Y-43250000D01*
X59292705Y-43219221D01*
X59479835Y-43158418D01*
X59655143Y-43069095D01*
X59731079Y-43013922D01*
X59731080Y-43013921D01*
X59223313Y-42506154D01*
X59337708Y-42440110D01*
X59440110Y-42337708D01*
X59506154Y-42223313D01*
X60013921Y-42731080D01*
X60013922Y-42731079D01*
X60069095Y-42655143D01*
X60158418Y-42479835D01*
X60204378Y-42338387D01*
X60243815Y-42280712D01*
X60308174Y-42253513D01*
X60377020Y-42265428D01*
X60428496Y-42312672D01*
X60440240Y-42338387D01*
X60473787Y-42441636D01*
X60473788Y-42441639D01*
X60556006Y-42602997D01*
X60662441Y-42749494D01*
X60662445Y-42749499D01*
X60790500Y-42877554D01*
X60790505Y-42877558D01*
X60900924Y-42957781D01*
X60937006Y-42983996D01*
X61023818Y-43028229D01*
X61098360Y-43066211D01*
X61098363Y-43066212D01*
X61144625Y-43081243D01*
X61270591Y-43122171D01*
X61353429Y-43135291D01*
X61449449Y-43150500D01*
X61449454Y-43150500D01*
X61630551Y-43150500D01*
X61717259Y-43136765D01*
X61809409Y-43122171D01*
X61981639Y-43066211D01*
X62142994Y-42983996D01*
X62289501Y-42877553D01*
X62417553Y-42749501D01*
X62523996Y-42602994D01*
X62606211Y-42441639D01*
X62662171Y-42269409D01*
X62679954Y-42157131D01*
X62690500Y-42090551D01*
X62690500Y-41909448D01*
X62671217Y-41787708D01*
X62662171Y-41730591D01*
X62606211Y-41558361D01*
X62606211Y-41558360D01*
X62570096Y-41487482D01*
X62523996Y-41397006D01*
X62430936Y-41268919D01*
X62417558Y-41250505D01*
X62417554Y-41250500D01*
X62289499Y-41122445D01*
X62289494Y-41122441D01*
X62142997Y-41016006D01*
X62142996Y-41016005D01*
X62142994Y-41016004D01*
X62084257Y-40986076D01*
X61981639Y-40933788D01*
X61981636Y-40933787D01*
X61809410Y-40877829D01*
X61630551Y-40849500D01*
X61630546Y-40849500D01*
X61449454Y-40849500D01*
X61449449Y-40849500D01*
X61270589Y-40877829D01*
X61098363Y-40933787D01*
X61098360Y-40933788D01*
X60937002Y-41016006D01*
X60790505Y-41122441D01*
X60790500Y-41122445D01*
X60662445Y-41250500D01*
X60662441Y-41250505D01*
X60556006Y-41397002D01*
X60473788Y-41558360D01*
X60473787Y-41558363D01*
X60440240Y-41661612D01*
X60400802Y-41719288D01*
X60336444Y-41746486D01*
X60267597Y-41734571D01*
X60216122Y-41687327D01*
X60204378Y-41661612D01*
X60158418Y-41520164D01*
X60069095Y-41344856D01*
X60013922Y-41268919D01*
X60013922Y-41268918D01*
X59506154Y-41776686D01*
X59440110Y-41662292D01*
X59337708Y-41559890D01*
X59223312Y-41493844D01*
X59731080Y-40986077D01*
X59731079Y-40986076D01*
X59655143Y-40930904D01*
X59479835Y-40841581D01*
X59292705Y-40780778D01*
X59098382Y-40750000D01*
X58901618Y-40750000D01*
X58707294Y-40780778D01*
X58520164Y-40841581D01*
X58344855Y-40930905D01*
X58344846Y-40930911D01*
X58268919Y-40986075D01*
X58268918Y-40986076D01*
X58776687Y-41493844D01*
X58662292Y-41559890D01*
X58559890Y-41662292D01*
X58493844Y-41776686D01*
X57986076Y-41268918D01*
X57986075Y-41268919D01*
X57930911Y-41344846D01*
X57930905Y-41344855D01*
X57841581Y-41520164D01*
X57780778Y-41707294D01*
X57750000Y-41901617D01*
X55069259Y-41901617D01*
X55060464Y-41846089D01*
X55042171Y-41730591D01*
X54986211Y-41558361D01*
X54986211Y-41558360D01*
X54950096Y-41487482D01*
X54903996Y-41397006D01*
X54810936Y-41268919D01*
X54797558Y-41250505D01*
X54797554Y-41250500D01*
X54669499Y-41122445D01*
X54669494Y-41122441D01*
X54522997Y-41016006D01*
X54522996Y-41016005D01*
X54522994Y-41016004D01*
X54464257Y-40986076D01*
X54361639Y-40933788D01*
X54361636Y-40933787D01*
X54189410Y-40877829D01*
X54010551Y-40849500D01*
X54010546Y-40849500D01*
X53829454Y-40849500D01*
X53829449Y-40849500D01*
X53650589Y-40877829D01*
X53478363Y-40933787D01*
X53478360Y-40933788D01*
X53317002Y-41016006D01*
X53170505Y-41122441D01*
X53170500Y-41122445D01*
X53042445Y-41250500D01*
X53042441Y-41250505D01*
X52936006Y-41397002D01*
X52853788Y-41558360D01*
X52853787Y-41558363D01*
X52797829Y-41730589D01*
X52772473Y-41890678D01*
X52742544Y-41953813D01*
X52683232Y-41990744D01*
X52613369Y-41989746D01*
X52555137Y-41951136D01*
X52527527Y-41890678D01*
X52511217Y-41787708D01*
X52502171Y-41730591D01*
X52446211Y-41558361D01*
X52446211Y-41558360D01*
X52410096Y-41487482D01*
X52363996Y-41397006D01*
X52270936Y-41268919D01*
X52257558Y-41250505D01*
X52257554Y-41250500D01*
X52129499Y-41122445D01*
X52129494Y-41122441D01*
X51982997Y-41016006D01*
X51982996Y-41016005D01*
X51982994Y-41016004D01*
X51924257Y-40986076D01*
X51821639Y-40933788D01*
X51821636Y-40933787D01*
X51649410Y-40877829D01*
X51470551Y-40849500D01*
X51470546Y-40849500D01*
X51289454Y-40849500D01*
X51289449Y-40849500D01*
X51110589Y-40877829D01*
X50938363Y-40933787D01*
X50938360Y-40933788D01*
X50777002Y-41016006D01*
X50630505Y-41122441D01*
X50630500Y-41122445D01*
X50502445Y-41250500D01*
X50502441Y-41250505D01*
X50396006Y-41397002D01*
X50313788Y-41558360D01*
X50313787Y-41558363D01*
X50257829Y-41730589D01*
X50232473Y-41890678D01*
X50202544Y-41953813D01*
X50143232Y-41990744D01*
X50073369Y-41989746D01*
X50015137Y-41951136D01*
X49987527Y-41890678D01*
X49971217Y-41787708D01*
X49962171Y-41730591D01*
X49906211Y-41558361D01*
X49906211Y-41558360D01*
X49870096Y-41487482D01*
X49823996Y-41397006D01*
X49730936Y-41268919D01*
X49717558Y-41250505D01*
X49717554Y-41250500D01*
X49589499Y-41122445D01*
X49589494Y-41122441D01*
X49442997Y-41016006D01*
X49442996Y-41016005D01*
X49442994Y-41016004D01*
X49384257Y-40986076D01*
X49281639Y-40933788D01*
X49281636Y-40933787D01*
X49109410Y-40877829D01*
X48930551Y-40849500D01*
X48930546Y-40849500D01*
X48749454Y-40849500D01*
X48749449Y-40849500D01*
X48570589Y-40877829D01*
X48398363Y-40933787D01*
X48398360Y-40933788D01*
X48237002Y-41016006D01*
X48090505Y-41122441D01*
X48090500Y-41122445D01*
X47962445Y-41250500D01*
X47962441Y-41250505D01*
X47856006Y-41397002D01*
X47773788Y-41558360D01*
X47773787Y-41558363D01*
X47717829Y-41730589D01*
X47696973Y-41862266D01*
X47667044Y-41925401D01*
X47607732Y-41962332D01*
X47537869Y-41961334D01*
X47479637Y-41922724D01*
X47451523Y-41858760D01*
X47450500Y-41842868D01*
X47450500Y-41030249D01*
X47450499Y-41030247D01*
X47438868Y-40971770D01*
X47438867Y-40971769D01*
X47394552Y-40905447D01*
X47328230Y-40861132D01*
X47328229Y-40861131D01*
X47269752Y-40849500D01*
X47269748Y-40849500D01*
X45330252Y-40849500D01*
X45330247Y-40849500D01*
X45271770Y-40861131D01*
X45271769Y-40861132D01*
X45205447Y-40905447D01*
X45161132Y-40971769D01*
X45161131Y-40971770D01*
X45149500Y-41030247D01*
X45149500Y-42969752D01*
X45161131Y-43028229D01*
X45161132Y-43028230D01*
X45205447Y-43094552D01*
X45271769Y-43138867D01*
X45271770Y-43138868D01*
X45330247Y-43150499D01*
X45330250Y-43150500D01*
X45330252Y-43150500D01*
X47269750Y-43150500D01*
X47269751Y-43150499D01*
X47284568Y-43147552D01*
X47328229Y-43138868D01*
X47328229Y-43138867D01*
X47328231Y-43138867D01*
X47394552Y-43094552D01*
X47438867Y-43028231D01*
X47438867Y-43028229D01*
X47438868Y-43028229D01*
X47450499Y-42969752D01*
X47450500Y-42969750D01*
X47450500Y-42157131D01*
X47470185Y-42090092D01*
X47522989Y-42044337D01*
X47592147Y-42034393D01*
X47655703Y-42063418D01*
X47693477Y-42122196D01*
X47696973Y-42137733D01*
X47717829Y-42269410D01*
X47773787Y-42441636D01*
X47773788Y-42441639D01*
X47856006Y-42602997D01*
X47962441Y-42749494D01*
X47962445Y-42749499D01*
X48090500Y-42877554D01*
X48090505Y-42877558D01*
X48200924Y-42957781D01*
X48237006Y-42983996D01*
X48323818Y-43028229D01*
X48398360Y-43066211D01*
X48398363Y-43066212D01*
X48444625Y-43081243D01*
X48570591Y-43122171D01*
X48653429Y-43135291D01*
X48749449Y-43150500D01*
X48749454Y-43150500D01*
X48930551Y-43150500D01*
X49017259Y-43136765D01*
X49109409Y-43122171D01*
X49281639Y-43066211D01*
X49442994Y-42983996D01*
X49589501Y-42877553D01*
X49717553Y-42749501D01*
X49823996Y-42602994D01*
X49906211Y-42441639D01*
X49962171Y-42269409D01*
X49979954Y-42157131D01*
X49987527Y-42109321D01*
X50017456Y-42046186D01*
X50076768Y-42009255D01*
X50146630Y-42010253D01*
X50204863Y-42048863D01*
X50232473Y-42109321D01*
X50257829Y-42269410D01*
X50313787Y-42441636D01*
X50313791Y-42441644D01*
X50328327Y-42470173D01*
X50341223Y-42538842D01*
X50314946Y-42603582D01*
X50305523Y-42614148D01*
X43368381Y-49551291D01*
X43307058Y-49584776D01*
X43237366Y-49579792D01*
X43181433Y-49537920D01*
X43157016Y-49472456D01*
X43156700Y-49463610D01*
X43156700Y-46864055D01*
X43156701Y-46864042D01*
X43156701Y-46768349D01*
X43155057Y-46762214D01*
X43134518Y-46685562D01*
X43098318Y-46622861D01*
X43091669Y-46611344D01*
X43091666Y-46611340D01*
X43091665Y-46611338D01*
X43031062Y-46550735D01*
X43031061Y-46550734D01*
X43026731Y-46546404D01*
X43026720Y-46546394D01*
X41839162Y-45358835D01*
X41805677Y-45297512D01*
X41810661Y-45227820D01*
X41812251Y-45223776D01*
X41842051Y-45151835D01*
X41855205Y-45085704D01*
X41880500Y-44958543D01*
X41880500Y-44761456D01*
X41842052Y-44568170D01*
X41842051Y-44568169D01*
X41842051Y-44568165D01*
X41842049Y-44568160D01*
X41766635Y-44386092D01*
X41766628Y-44386079D01*
X41657139Y-44222218D01*
X41657136Y-44222214D01*
X41517785Y-44082863D01*
X41517781Y-44082860D01*
X41353920Y-43973371D01*
X41353907Y-43973364D01*
X41171839Y-43897950D01*
X41171829Y-43897947D01*
X40978543Y-43859500D01*
X40978541Y-43859500D01*
X40781459Y-43859500D01*
X40781457Y-43859500D01*
X40588170Y-43897947D01*
X40588160Y-43897950D01*
X40406092Y-43973364D01*
X40406079Y-43973371D01*
X40242218Y-44082860D01*
X40242214Y-44082863D01*
X40102863Y-44222214D01*
X40102860Y-44222218D01*
X39993371Y-44386079D01*
X39993366Y-44386089D01*
X39979161Y-44420384D01*
X39935320Y-44474787D01*
X39869026Y-44496852D01*
X39801326Y-44479573D01*
X39753716Y-44428435D01*
X39740600Y-44372931D01*
X39740600Y-42807068D01*
X39760285Y-42740029D01*
X39813089Y-42694274D01*
X39882247Y-42684330D01*
X39945803Y-42713355D01*
X39979161Y-42759616D01*
X39993364Y-42793907D01*
X39993371Y-42793920D01*
X40102860Y-42957781D01*
X40102863Y-42957785D01*
X40242214Y-43097136D01*
X40242218Y-43097139D01*
X40406079Y-43206628D01*
X40406092Y-43206635D01*
X40510786Y-43250000D01*
X40588165Y-43282051D01*
X40588169Y-43282051D01*
X40588170Y-43282052D01*
X40781456Y-43320500D01*
X40781459Y-43320500D01*
X40978543Y-43320500D01*
X41108582Y-43294632D01*
X41171835Y-43282051D01*
X41353914Y-43206632D01*
X41517782Y-43097139D01*
X41657139Y-42957782D01*
X41766632Y-42793914D01*
X41842051Y-42611835D01*
X41861807Y-42512518D01*
X41880500Y-42418543D01*
X41880500Y-42221456D01*
X41842052Y-42028170D01*
X41842051Y-42028169D01*
X41842051Y-42028165D01*
X41826551Y-41990744D01*
X41766635Y-41846092D01*
X41766628Y-41846079D01*
X41657139Y-41682218D01*
X41657136Y-41682214D01*
X41517785Y-41542863D01*
X41517781Y-41542860D01*
X41353920Y-41433371D01*
X41353907Y-41433364D01*
X41171839Y-41357950D01*
X41171829Y-41357947D01*
X40978543Y-41319500D01*
X40978541Y-41319500D01*
X40781459Y-41319500D01*
X40781457Y-41319500D01*
X40588170Y-41357947D01*
X40588160Y-41357950D01*
X40406092Y-41433364D01*
X40406079Y-41433371D01*
X40242218Y-41542860D01*
X40242214Y-41542863D01*
X40102863Y-41682214D01*
X40102860Y-41682218D01*
X39993371Y-41846079D01*
X39993366Y-41846089D01*
X39979161Y-41880384D01*
X39935320Y-41934787D01*
X39869026Y-41956852D01*
X39801326Y-41939573D01*
X39753716Y-41888435D01*
X39740600Y-41832931D01*
X39740600Y-40711329D01*
X39760285Y-40644290D01*
X39813089Y-40598535D01*
X39882247Y-40588591D01*
X39945803Y-40617616D01*
X39960625Y-40634418D01*
X39961271Y-40633889D01*
X39965136Y-40638598D01*
X39965138Y-40638601D01*
X40021399Y-40694862D01*
X40088068Y-40739410D01*
X40088071Y-40739411D01*
X40088074Y-40739413D01*
X40161566Y-40769854D01*
X40161571Y-40769855D01*
X40161577Y-40769858D01*
X40240215Y-40785499D01*
X40240217Y-40785500D01*
X40240218Y-40785500D01*
X40958788Y-40785500D01*
X40958793Y-40785500D01*
X40998883Y-40781551D01*
X41153441Y-40750808D01*
X41191993Y-40739114D01*
X41337584Y-40678808D01*
X41373112Y-40659818D01*
X41504140Y-40572268D01*
X41535280Y-40546711D01*
X41646711Y-40435280D01*
X41672268Y-40404140D01*
X41759818Y-40273112D01*
X41778808Y-40237584D01*
X41839114Y-40091993D01*
X41850808Y-40053441D01*
X41881551Y-39898883D01*
X41885500Y-39858793D01*
X41885500Y-39701207D01*
X41881551Y-39661117D01*
X41850808Y-39506559D01*
X41839114Y-39468007D01*
X41778808Y-39322416D01*
X41759818Y-39286888D01*
X41759807Y-39286871D01*
X41672274Y-39155868D01*
X41672270Y-39155863D01*
X41646711Y-39124720D01*
X41535279Y-39013288D01*
X41523197Y-39003372D01*
X41504140Y-38987732D01*
X41504136Y-38987729D01*
X41504131Y-38987725D01*
X41373128Y-38900192D01*
X41373120Y-38900187D01*
X41373112Y-38900182D01*
X41337584Y-38881192D01*
X41298829Y-38865139D01*
X41191997Y-38820887D01*
X41153442Y-38809192D01*
X40998884Y-38778449D01*
X40998885Y-38778449D01*
X40987428Y-38777320D01*
X40958793Y-38774500D01*
X40240218Y-38774500D01*
X40240214Y-38774500D01*
X40161582Y-38790140D01*
X40161566Y-38790145D01*
X40088074Y-38820586D01*
X40021397Y-38865139D01*
X39965140Y-38921396D01*
X39961271Y-38926111D01*
X39959358Y-38924541D01*
X39914059Y-38962379D01*
X39844732Y-38971068D01*
X39781713Y-38940896D01*
X39745009Y-38881444D01*
X39740600Y-38848670D01*
X39740600Y-37727068D01*
X39760285Y-37660029D01*
X39813089Y-37614274D01*
X39882247Y-37604330D01*
X39945803Y-37633355D01*
X39979161Y-37679616D01*
X39993364Y-37713907D01*
X39993371Y-37713920D01*
X40102860Y-37877781D01*
X40102863Y-37877785D01*
X40242214Y-38017136D01*
X40242218Y-38017139D01*
X40406079Y-38126628D01*
X40406092Y-38126635D01*
X40588160Y-38202049D01*
X40588165Y-38202051D01*
X40588169Y-38202051D01*
X40588170Y-38202052D01*
X40781456Y-38240500D01*
X40781459Y-38240500D01*
X40978543Y-38240500D01*
X41108582Y-38214632D01*
X41171835Y-38202051D01*
X41353914Y-38126632D01*
X41517782Y-38017139D01*
X41657139Y-37877782D01*
X41766632Y-37713914D01*
X41842051Y-37531835D01*
X41880500Y-37338541D01*
X41880500Y-37141459D01*
X41880500Y-37141456D01*
X41842052Y-36948170D01*
X41842051Y-36948169D01*
X41842051Y-36948165D01*
X41842049Y-36948160D01*
X41766635Y-36766092D01*
X41766628Y-36766079D01*
X41657139Y-36602218D01*
X41657136Y-36602214D01*
X41517785Y-36462863D01*
X41517781Y-36462860D01*
X41353920Y-36353371D01*
X41353907Y-36353364D01*
X41171839Y-36277950D01*
X41171829Y-36277947D01*
X40978543Y-36239500D01*
X40978541Y-36239500D01*
X40781459Y-36239500D01*
X40781457Y-36239500D01*
X40588170Y-36277947D01*
X40588160Y-36277950D01*
X40406092Y-36353364D01*
X40406079Y-36353371D01*
X40242218Y-36462860D01*
X40242214Y-36462863D01*
X40102863Y-36602214D01*
X40102860Y-36602218D01*
X39993371Y-36766079D01*
X39993366Y-36766089D01*
X39979161Y-36800384D01*
X39935320Y-36854787D01*
X39869026Y-36876852D01*
X39801326Y-36859573D01*
X39753716Y-36808435D01*
X39740600Y-36752931D01*
X39740600Y-35384814D01*
X39760285Y-35317775D01*
X39813089Y-35272020D01*
X39882247Y-35262076D01*
X39945803Y-35291101D01*
X39964920Y-35311931D01*
X39973464Y-35323691D01*
X40411980Y-34885176D01*
X40414075Y-34892993D01*
X40479901Y-35007007D01*
X40572993Y-35100099D01*
X40687007Y-35165925D01*
X40694822Y-35168019D01*
X40256307Y-35606534D01*
X40303478Y-35640805D01*
X40457742Y-35719408D01*
X40622415Y-35772914D01*
X40793429Y-35800000D01*
X40966571Y-35800000D01*
X41137584Y-35772914D01*
X41302257Y-35719408D01*
X41456525Y-35640803D01*
X41503691Y-35606534D01*
X41503692Y-35606533D01*
X41065178Y-35168019D01*
X41072993Y-35165925D01*
X41187007Y-35100099D01*
X41280099Y-35007007D01*
X41345925Y-34892993D01*
X41348019Y-34885177D01*
X41786533Y-35323692D01*
X41786534Y-35323691D01*
X41820803Y-35276525D01*
X41899408Y-35122257D01*
X41952914Y-34957584D01*
X41980000Y-34786571D01*
X41980000Y-34613428D01*
X41952914Y-34442415D01*
X41899408Y-34277742D01*
X41820805Y-34123478D01*
X41786534Y-34076307D01*
X41348019Y-34514822D01*
X41345925Y-34507007D01*
X41280099Y-34392993D01*
X41187007Y-34299901D01*
X41072993Y-34234075D01*
X41065176Y-34231980D01*
X41503691Y-33793464D01*
X41503691Y-33793463D01*
X41456525Y-33759196D01*
X41456523Y-33759195D01*
X41302257Y-33680591D01*
X41137584Y-33627085D01*
X40966571Y-33600000D01*
X40793429Y-33600000D01*
X40622415Y-33627085D01*
X40457740Y-33680592D01*
X40303475Y-33759196D01*
X40256307Y-33793463D01*
X40256307Y-33793464D01*
X40694823Y-34231980D01*
X40687007Y-34234075D01*
X40572993Y-34299901D01*
X40479901Y-34392993D01*
X40414075Y-34507007D01*
X40411980Y-34514823D01*
X39973464Y-34076307D01*
X39973463Y-34076307D01*
X39964920Y-34088067D01*
X39939936Y-34107332D01*
X39916111Y-34127978D01*
X39912489Y-34128498D01*
X39909591Y-34130734D01*
X39878166Y-34133433D01*
X39846953Y-34137922D01*
X39843624Y-34136401D01*
X39839978Y-34136715D01*
X39812089Y-34122000D01*
X39783397Y-34108897D01*
X39781417Y-34105817D01*
X39778182Y-34104110D01*
X39762676Y-34076654D01*
X39745623Y-34050119D01*
X39744917Y-34045209D01*
X39743823Y-34043272D01*
X39740600Y-34015184D01*
X39740600Y-33811088D01*
X39760285Y-33744049D01*
X39776915Y-33723411D01*
X40381165Y-33119160D01*
X40442486Y-33085677D01*
X40512177Y-33090661D01*
X40516270Y-33092271D01*
X40588165Y-33122051D01*
X40588169Y-33122051D01*
X40588170Y-33122052D01*
X40781456Y-33160500D01*
X40781459Y-33160500D01*
X40978543Y-33160500D01*
X41108582Y-33134632D01*
X41171835Y-33122051D01*
X41353914Y-33046632D01*
X41517782Y-32937139D01*
X41657139Y-32797782D01*
X41766632Y-32633914D01*
X41842051Y-32451835D01*
X41880500Y-32258541D01*
X41880500Y-32061459D01*
X41880500Y-32061456D01*
X41842052Y-31868170D01*
X41842051Y-31868169D01*
X41842051Y-31868165D01*
X41842049Y-31868160D01*
X41766635Y-31686092D01*
X41766628Y-31686079D01*
X41657139Y-31522218D01*
X41657136Y-31522214D01*
X41517785Y-31382863D01*
X41517781Y-31382860D01*
X41353920Y-31273371D01*
X41353907Y-31273364D01*
X41171839Y-31197950D01*
X41171829Y-31197947D01*
X40978543Y-31159500D01*
X40978541Y-31159500D01*
X40781459Y-31159500D01*
X40781457Y-31159500D01*
X40588170Y-31197947D01*
X40588160Y-31197950D01*
X40406092Y-31273364D01*
X40406079Y-31273371D01*
X40242218Y-31382860D01*
X40242214Y-31382863D01*
X40102863Y-31522214D01*
X40102860Y-31522218D01*
X39993371Y-31686079D01*
X39993364Y-31686092D01*
X39917950Y-31868160D01*
X39917947Y-31868170D01*
X39879500Y-32061456D01*
X39879500Y-32061459D01*
X39879500Y-32258541D01*
X39879500Y-32258543D01*
X39879499Y-32258543D01*
X39917947Y-32451828D01*
X39917948Y-32451831D01*
X39917949Y-32451835D01*
X39917951Y-32451839D01*
X39947717Y-32523703D01*
X39955184Y-32593173D01*
X39923909Y-32655651D01*
X39920836Y-32658835D01*
X39221362Y-33358309D01*
X39220549Y-33359023D01*
X39154636Y-33424936D01*
X39154630Y-33424944D01*
X39111785Y-33499155D01*
X39111782Y-33499162D01*
X39089600Y-33581947D01*
X39089600Y-63006000D01*
X39069915Y-63073039D01*
X39017111Y-63118794D01*
X38965600Y-63130000D01*
X24890000Y-63130000D01*
X23975884Y-63130000D01*
X23986632Y-63113914D01*
X24008952Y-63060029D01*
X24020899Y-63031186D01*
X24036476Y-62993577D01*
X24062051Y-62931835D01*
X24086604Y-62808400D01*
X24100500Y-62738543D01*
X24100500Y-62541456D01*
X24062052Y-62348170D01*
X24062051Y-62348169D01*
X24062051Y-62348165D01*
X24038716Y-62291829D01*
X23986635Y-62166092D01*
X23986628Y-62166079D01*
X23877139Y-62002218D01*
X23877136Y-62002214D01*
X23737785Y-61862863D01*
X23737781Y-61862860D01*
X23573920Y-61753371D01*
X23573907Y-61753364D01*
X23391839Y-61677950D01*
X23391829Y-61677947D01*
X23198543Y-61639500D01*
X23198541Y-61639500D01*
X23001459Y-61639500D01*
X23001457Y-61639500D01*
X22808170Y-61677947D01*
X22808160Y-61677950D01*
X22626092Y-61753364D01*
X22626079Y-61753371D01*
X22462218Y-61862860D01*
X22462214Y-61862863D01*
X22322863Y-62002214D01*
X22322860Y-62002218D01*
X22213371Y-62166079D01*
X22213364Y-62166092D01*
X22137950Y-62348160D01*
X22137947Y-62348170D01*
X22099500Y-62541456D01*
X22099500Y-62541459D01*
X22099500Y-62738541D01*
X22099500Y-62738543D01*
X22099499Y-62738543D01*
X20500500Y-62738543D01*
X20500500Y-60198543D01*
X22099499Y-60198543D01*
X22137947Y-60391829D01*
X22137950Y-60391839D01*
X22213364Y-60573907D01*
X22213371Y-60573920D01*
X22322860Y-60737781D01*
X22322863Y-60737785D01*
X22462214Y-60877136D01*
X22462218Y-60877139D01*
X22626079Y-60986628D01*
X22626092Y-60986635D01*
X22801190Y-61059162D01*
X22808165Y-61062051D01*
X22808169Y-61062051D01*
X22808170Y-61062052D01*
X23001456Y-61100500D01*
X23001459Y-61100500D01*
X23198543Y-61100500D01*
X23357599Y-61068861D01*
X23391835Y-61062051D01*
X23573914Y-60986632D01*
X23737782Y-60877139D01*
X23877139Y-60737782D01*
X23986632Y-60573914D01*
X24062051Y-60391835D01*
X24095687Y-60222738D01*
X24100500Y-60198543D01*
X24100500Y-60001456D01*
X24062052Y-59808170D01*
X24062051Y-59808169D01*
X24062051Y-59808165D01*
X24042852Y-59761813D01*
X23986635Y-59626092D01*
X23986628Y-59626079D01*
X23877139Y-59462218D01*
X23877136Y-59462214D01*
X23737785Y-59322863D01*
X23737781Y-59322860D01*
X23573920Y-59213371D01*
X23573907Y-59213364D01*
X23391839Y-59137950D01*
X23391829Y-59137947D01*
X23198543Y-59099500D01*
X23198541Y-59099500D01*
X23001459Y-59099500D01*
X23001457Y-59099500D01*
X22808170Y-59137947D01*
X22808160Y-59137950D01*
X22626092Y-59213364D01*
X22626079Y-59213371D01*
X22462218Y-59322860D01*
X22462214Y-59322863D01*
X22322863Y-59462214D01*
X22322860Y-59462218D01*
X22213371Y-59626079D01*
X22213364Y-59626092D01*
X22137950Y-59808160D01*
X22137947Y-59808170D01*
X22099500Y-60001456D01*
X22099500Y-60001459D01*
X22099500Y-60198541D01*
X22099500Y-60198543D01*
X22099499Y-60198543D01*
X20500500Y-60198543D01*
X20500500Y-57473428D01*
X22000000Y-57473428D01*
X22000000Y-57646571D01*
X22027085Y-57817584D01*
X22080591Y-57982257D01*
X22159195Y-58136523D01*
X22159196Y-58136525D01*
X22193463Y-58183691D01*
X22193464Y-58183691D01*
X22631980Y-57745176D01*
X22634075Y-57752993D01*
X22699901Y-57867007D01*
X22792993Y-57960099D01*
X22907007Y-58025925D01*
X22914822Y-58028019D01*
X22476307Y-58466534D01*
X22523478Y-58500805D01*
X22677742Y-58579408D01*
X22842415Y-58632914D01*
X23013429Y-58660000D01*
X23186571Y-58660000D01*
X23357584Y-58632914D01*
X23522257Y-58579408D01*
X23676525Y-58500803D01*
X23723691Y-58466534D01*
X23723692Y-58466533D01*
X23285178Y-58028019D01*
X23292993Y-58025925D01*
X23407007Y-57960099D01*
X23500099Y-57867007D01*
X23565925Y-57752993D01*
X23568019Y-57745177D01*
X24006533Y-58183692D01*
X24006534Y-58183691D01*
X24040803Y-58136525D01*
X24119408Y-57982257D01*
X24172914Y-57817584D01*
X24200000Y-57646571D01*
X24200000Y-57473428D01*
X24172914Y-57302415D01*
X24119408Y-57137742D01*
X24040805Y-56983478D01*
X24006534Y-56936307D01*
X23568019Y-57374822D01*
X23565925Y-57367007D01*
X23500099Y-57252993D01*
X23407007Y-57159901D01*
X23292993Y-57094075D01*
X23285176Y-57091980D01*
X23723691Y-56653464D01*
X23723691Y-56653463D01*
X23676525Y-56619196D01*
X23676523Y-56619195D01*
X23522257Y-56540591D01*
X23357584Y-56487085D01*
X23186571Y-56460000D01*
X23013429Y-56460000D01*
X22842415Y-56487085D01*
X22677740Y-56540592D01*
X22523475Y-56619196D01*
X22476307Y-56653463D01*
X22476307Y-56653464D01*
X22914823Y-57091980D01*
X22907007Y-57094075D01*
X22792993Y-57159901D01*
X22699901Y-57252993D01*
X22634075Y-57367007D01*
X22631980Y-57374823D01*
X22193464Y-56936307D01*
X22193463Y-56936307D01*
X22159196Y-56983475D01*
X22080592Y-57137740D01*
X22027085Y-57302415D01*
X22000000Y-57473428D01*
X20500500Y-57473428D01*
X20500500Y-55118543D01*
X22099499Y-55118543D01*
X22137947Y-55311829D01*
X22137950Y-55311839D01*
X22213364Y-55493907D01*
X22213371Y-55493920D01*
X22322860Y-55657781D01*
X22322863Y-55657785D01*
X22462214Y-55797136D01*
X22462218Y-55797139D01*
X22626079Y-55906628D01*
X22626092Y-55906635D01*
X22808160Y-55982049D01*
X22808165Y-55982051D01*
X22808169Y-55982051D01*
X22808170Y-55982052D01*
X23001456Y-56020500D01*
X23001459Y-56020500D01*
X23198543Y-56020500D01*
X23328582Y-55994632D01*
X23391835Y-55982051D01*
X23573914Y-55906632D01*
X23737782Y-55797139D01*
X23877139Y-55657782D01*
X23986632Y-55493914D01*
X24062051Y-55311835D01*
X24100500Y-55118541D01*
X24100500Y-54921459D01*
X24100500Y-54921456D01*
X24062052Y-54728170D01*
X24062051Y-54728169D01*
X24062051Y-54728165D01*
X24042852Y-54681813D01*
X23986635Y-54546092D01*
X23986628Y-54546079D01*
X23877139Y-54382218D01*
X23877136Y-54382214D01*
X23737785Y-54242863D01*
X23737781Y-54242860D01*
X23573920Y-54133371D01*
X23573907Y-54133364D01*
X23391839Y-54057950D01*
X23391829Y-54057947D01*
X23198543Y-54019500D01*
X23198541Y-54019500D01*
X23001459Y-54019500D01*
X23001457Y-54019500D01*
X22808170Y-54057947D01*
X22808160Y-54057950D01*
X22626092Y-54133364D01*
X22626079Y-54133371D01*
X22462218Y-54242860D01*
X22462214Y-54242863D01*
X22322863Y-54382214D01*
X22322860Y-54382218D01*
X22213371Y-54546079D01*
X22213364Y-54546092D01*
X22137950Y-54728160D01*
X22137947Y-54728170D01*
X22099500Y-54921456D01*
X22099500Y-54921459D01*
X22099500Y-55118541D01*
X22099500Y-55118543D01*
X22099499Y-55118543D01*
X20500500Y-55118543D01*
X20500500Y-52401211D01*
X22094500Y-52401211D01*
X22094500Y-52558788D01*
X22098449Y-52598884D01*
X22129192Y-52753442D01*
X22140887Y-52791997D01*
X22161925Y-52842786D01*
X22201192Y-52937584D01*
X22220182Y-52973112D01*
X22220187Y-52973120D01*
X22220192Y-52973128D01*
X22307725Y-53104131D01*
X22307729Y-53104136D01*
X22307732Y-53104140D01*
X22333289Y-53135280D01*
X22444720Y-53246711D01*
X22475860Y-53272268D01*
X22475863Y-53272270D01*
X22475868Y-53272274D01*
X22606871Y-53359807D01*
X22606874Y-53359809D01*
X22606888Y-53359818D01*
X22642416Y-53378808D01*
X22788007Y-53439114D01*
X22826559Y-53450808D01*
X22981117Y-53481551D01*
X23021207Y-53485500D01*
X23021212Y-53485500D01*
X23739783Y-53485500D01*
X23739783Y-53485499D01*
X23818423Y-53469858D01*
X23831854Y-53464295D01*
X23891925Y-53439413D01*
X23891925Y-53439412D01*
X23891932Y-53439410D01*
X23958601Y-53394862D01*
X24014862Y-53338601D01*
X24059410Y-53271932D01*
X24089858Y-53198423D01*
X24105500Y-53119782D01*
X24105500Y-51840218D01*
X24089858Y-51761577D01*
X24089855Y-51761571D01*
X24089854Y-51761566D01*
X24059413Y-51688074D01*
X24059411Y-51688071D01*
X24059410Y-51688068D01*
X24014862Y-51621399D01*
X23958601Y-51565138D01*
X23891932Y-51520590D01*
X23891929Y-51520588D01*
X23891925Y-51520586D01*
X23818433Y-51490145D01*
X23818417Y-51490140D01*
X23739785Y-51474500D01*
X23739782Y-51474500D01*
X23021207Y-51474500D01*
X22992571Y-51477320D01*
X22981115Y-51478449D01*
X22826557Y-51509192D01*
X22788002Y-51520887D01*
X22642422Y-51581189D01*
X22642415Y-51581192D01*
X22614182Y-51596282D01*
X22606888Y-51600182D01*
X22606885Y-51600183D01*
X22606871Y-51600192D01*
X22475868Y-51687725D01*
X22475863Y-51687729D01*
X22444720Y-51713288D01*
X22333288Y-51824720D01*
X22307729Y-51855863D01*
X22307725Y-51855868D01*
X22220192Y-51986871D01*
X22220180Y-51986892D01*
X22201192Y-52022415D01*
X22201189Y-52022422D01*
X22140887Y-52168002D01*
X22129192Y-52206557D01*
X22098449Y-52361115D01*
X22094500Y-52401211D01*
X20500500Y-52401211D01*
X20500500Y-50038543D01*
X22099499Y-50038543D01*
X22137947Y-50231829D01*
X22137950Y-50231839D01*
X22213364Y-50413907D01*
X22213371Y-50413920D01*
X22322860Y-50577781D01*
X22322863Y-50577785D01*
X22462214Y-50717136D01*
X22462218Y-50717139D01*
X22626079Y-50826628D01*
X22626092Y-50826635D01*
X22801190Y-50899162D01*
X22808165Y-50902051D01*
X22808169Y-50902051D01*
X22808170Y-50902052D01*
X23001456Y-50940500D01*
X23001459Y-50940500D01*
X23198543Y-50940500D01*
X23328582Y-50914632D01*
X23391835Y-50902051D01*
X23573914Y-50826632D01*
X23737782Y-50717139D01*
X23877139Y-50577782D01*
X23986632Y-50413914D01*
X24062051Y-50231835D01*
X24100500Y-50038541D01*
X24100500Y-49841459D01*
X24100500Y-49841456D01*
X24062052Y-49648170D01*
X24062051Y-49648169D01*
X24062051Y-49648165D01*
X24033730Y-49579792D01*
X23986635Y-49466092D01*
X23986628Y-49466079D01*
X23877139Y-49302218D01*
X23877136Y-49302214D01*
X23737785Y-49162863D01*
X23737781Y-49162860D01*
X23573920Y-49053371D01*
X23573907Y-49053364D01*
X23391839Y-48977950D01*
X23391829Y-48977947D01*
X23198543Y-48939500D01*
X23198541Y-48939500D01*
X23001459Y-48939500D01*
X23001457Y-48939500D01*
X22808170Y-48977947D01*
X22808160Y-48977950D01*
X22626092Y-49053364D01*
X22626079Y-49053371D01*
X22462218Y-49162860D01*
X22462214Y-49162863D01*
X22322863Y-49302214D01*
X22322860Y-49302218D01*
X22213371Y-49466079D01*
X22213364Y-49466092D01*
X22137950Y-49648160D01*
X22137947Y-49648170D01*
X22099500Y-49841456D01*
X22099500Y-49841459D01*
X22099500Y-50038541D01*
X22099500Y-50038543D01*
X22099499Y-50038543D01*
X20500500Y-50038543D01*
X20500500Y-47498543D01*
X22099499Y-47498543D01*
X22137947Y-47691829D01*
X22137950Y-47691839D01*
X22213364Y-47873907D01*
X22213371Y-47873920D01*
X22322860Y-48037781D01*
X22322863Y-48037785D01*
X22462214Y-48177136D01*
X22462218Y-48177139D01*
X22626079Y-48286628D01*
X22626092Y-48286635D01*
X22808160Y-48362049D01*
X22808165Y-48362051D01*
X22808169Y-48362051D01*
X22808170Y-48362052D01*
X23001456Y-48400500D01*
X23001459Y-48400500D01*
X23198543Y-48400500D01*
X23328582Y-48374632D01*
X23391835Y-48362051D01*
X23573914Y-48286632D01*
X23737782Y-48177139D01*
X23877139Y-48037782D01*
X23986632Y-47873914D01*
X24062051Y-47691835D01*
X24095021Y-47526086D01*
X24100500Y-47498543D01*
X24100500Y-47301456D01*
X24062052Y-47108170D01*
X24062051Y-47108169D01*
X24062051Y-47108165D01*
X24032966Y-47037947D01*
X23986635Y-46926092D01*
X23986628Y-46926079D01*
X23877139Y-46762218D01*
X23877136Y-46762214D01*
X23737785Y-46622863D01*
X23737781Y-46622860D01*
X23573920Y-46513371D01*
X23573907Y-46513364D01*
X23391839Y-46437950D01*
X23391829Y-46437947D01*
X23198543Y-46399500D01*
X23198541Y-46399500D01*
X23001459Y-46399500D01*
X23001457Y-46399500D01*
X22808170Y-46437947D01*
X22808160Y-46437950D01*
X22626092Y-46513364D01*
X22626079Y-46513371D01*
X22462218Y-46622860D01*
X22462214Y-46622863D01*
X22322863Y-46762214D01*
X22322860Y-46762218D01*
X22213371Y-46926079D01*
X22213364Y-46926092D01*
X22137950Y-47108160D01*
X22137947Y-47108170D01*
X22099500Y-47301456D01*
X22099500Y-47301459D01*
X22099500Y-47498541D01*
X22099500Y-47498543D01*
X22099499Y-47498543D01*
X20500500Y-47498543D01*
X20500500Y-44958543D01*
X22099499Y-44958543D01*
X22137947Y-45151829D01*
X22137950Y-45151839D01*
X22213364Y-45333907D01*
X22213371Y-45333920D01*
X22322860Y-45497781D01*
X22322863Y-45497785D01*
X22462214Y-45637136D01*
X22462218Y-45637139D01*
X22626079Y-45746628D01*
X22626092Y-45746635D01*
X22801190Y-45819162D01*
X22808165Y-45822051D01*
X22808169Y-45822051D01*
X22808170Y-45822052D01*
X23001456Y-45860500D01*
X23001459Y-45860500D01*
X23198543Y-45860500D01*
X23328582Y-45834632D01*
X23391835Y-45822051D01*
X23573914Y-45746632D01*
X23737782Y-45637139D01*
X23877139Y-45497782D01*
X23986632Y-45333914D01*
X24062051Y-45151835D01*
X24075205Y-45085704D01*
X24100500Y-44958543D01*
X24100500Y-44761456D01*
X24062052Y-44568170D01*
X24062051Y-44568169D01*
X24062051Y-44568165D01*
X24062049Y-44568160D01*
X23986635Y-44386092D01*
X23986628Y-44386079D01*
X23877139Y-44222218D01*
X23877136Y-44222214D01*
X23737785Y-44082863D01*
X23737781Y-44082860D01*
X23573920Y-43973371D01*
X23573907Y-43973364D01*
X23391839Y-43897950D01*
X23391829Y-43897947D01*
X23198543Y-43859500D01*
X23198541Y-43859500D01*
X23001459Y-43859500D01*
X23001457Y-43859500D01*
X22808170Y-43897947D01*
X22808160Y-43897950D01*
X22626092Y-43973364D01*
X22626079Y-43973371D01*
X22462218Y-44082860D01*
X22462214Y-44082863D01*
X22322863Y-44222214D01*
X22322860Y-44222218D01*
X22213371Y-44386079D01*
X22213364Y-44386092D01*
X22137950Y-44568160D01*
X22137947Y-44568170D01*
X22099500Y-44761456D01*
X22099500Y-44761459D01*
X22099500Y-44958541D01*
X22099500Y-44958543D01*
X22099499Y-44958543D01*
X20500500Y-44958543D01*
X20500500Y-42418543D01*
X22099499Y-42418543D01*
X22137947Y-42611829D01*
X22137950Y-42611839D01*
X22213364Y-42793907D01*
X22213371Y-42793920D01*
X22322860Y-42957781D01*
X22322863Y-42957785D01*
X22462214Y-43097136D01*
X22462218Y-43097139D01*
X22626079Y-43206628D01*
X22626092Y-43206635D01*
X22730786Y-43250000D01*
X22808165Y-43282051D01*
X22808169Y-43282051D01*
X22808170Y-43282052D01*
X23001456Y-43320500D01*
X23001459Y-43320500D01*
X23198543Y-43320500D01*
X23328582Y-43294632D01*
X23391835Y-43282051D01*
X23573914Y-43206632D01*
X23737782Y-43097139D01*
X23877139Y-42957782D01*
X23986632Y-42793914D01*
X24062051Y-42611835D01*
X24081807Y-42512518D01*
X24100500Y-42418543D01*
X24100500Y-42221456D01*
X24062052Y-42028170D01*
X24062051Y-42028169D01*
X24062051Y-42028165D01*
X24046551Y-41990744D01*
X23986635Y-41846092D01*
X23986628Y-41846079D01*
X23877139Y-41682218D01*
X23877136Y-41682214D01*
X23737785Y-41542863D01*
X23737781Y-41542860D01*
X23573920Y-41433371D01*
X23573907Y-41433364D01*
X23391839Y-41357950D01*
X23391829Y-41357947D01*
X23198543Y-41319500D01*
X23198541Y-41319500D01*
X23001459Y-41319500D01*
X23001457Y-41319500D01*
X22808170Y-41357947D01*
X22808160Y-41357950D01*
X22626092Y-41433364D01*
X22626079Y-41433371D01*
X22462218Y-41542860D01*
X22462214Y-41542863D01*
X22322863Y-41682214D01*
X22322860Y-41682218D01*
X22213371Y-41846079D01*
X22213364Y-41846092D01*
X22137950Y-42028160D01*
X22137947Y-42028170D01*
X22099500Y-42221456D01*
X22099500Y-42221459D01*
X22099500Y-42418541D01*
X22099500Y-42418543D01*
X22099499Y-42418543D01*
X20500500Y-42418543D01*
X20500500Y-39701211D01*
X22094500Y-39701211D01*
X22094500Y-39858788D01*
X22098449Y-39898884D01*
X22129192Y-40053442D01*
X22140887Y-40091997D01*
X22201189Y-40237577D01*
X22201192Y-40237584D01*
X22220182Y-40273112D01*
X22220187Y-40273120D01*
X22220192Y-40273128D01*
X22307725Y-40404131D01*
X22307729Y-40404136D01*
X22307732Y-40404140D01*
X22333289Y-40435280D01*
X22444720Y-40546711D01*
X22475860Y-40572268D01*
X22475863Y-40572270D01*
X22475868Y-40572274D01*
X22606871Y-40659807D01*
X22606874Y-40659809D01*
X22606888Y-40659818D01*
X22642416Y-40678808D01*
X22788007Y-40739114D01*
X22826559Y-40750808D01*
X22981117Y-40781551D01*
X23021207Y-40785500D01*
X23021212Y-40785500D01*
X23739783Y-40785500D01*
X23739783Y-40785499D01*
X23818423Y-40769858D01*
X23864415Y-40750808D01*
X23891925Y-40739413D01*
X23891925Y-40739412D01*
X23891932Y-40739410D01*
X23958601Y-40694862D01*
X24014862Y-40638601D01*
X24059410Y-40571932D01*
X24089858Y-40498423D01*
X24105500Y-40419782D01*
X24105500Y-39140218D01*
X24089858Y-39061577D01*
X24089855Y-39061571D01*
X24089854Y-39061566D01*
X24059413Y-38988074D01*
X24059411Y-38988071D01*
X24059410Y-38988068D01*
X24014862Y-38921399D01*
X23958601Y-38865138D01*
X23891932Y-38820590D01*
X23891929Y-38820588D01*
X23891925Y-38820586D01*
X23818433Y-38790145D01*
X23818417Y-38790140D01*
X23739785Y-38774500D01*
X23739782Y-38774500D01*
X23021207Y-38774500D01*
X22992571Y-38777320D01*
X22981115Y-38778449D01*
X22826557Y-38809192D01*
X22788002Y-38820887D01*
X22642422Y-38881189D01*
X22642415Y-38881192D01*
X22614182Y-38896282D01*
X22606888Y-38900182D01*
X22606885Y-38900183D01*
X22606871Y-38900192D01*
X22475868Y-38987725D01*
X22475863Y-38987729D01*
X22444720Y-39013288D01*
X22333288Y-39124720D01*
X22307729Y-39155863D01*
X22307725Y-39155868D01*
X22220192Y-39286871D01*
X22220180Y-39286892D01*
X22201192Y-39322415D01*
X22201189Y-39322422D01*
X22140887Y-39468002D01*
X22129192Y-39506557D01*
X22098449Y-39661115D01*
X22094500Y-39701211D01*
X20500500Y-39701211D01*
X20500500Y-37338543D01*
X22099499Y-37338543D01*
X22137947Y-37531829D01*
X22137950Y-37531839D01*
X22213364Y-37713907D01*
X22213371Y-37713920D01*
X22322860Y-37877781D01*
X22322863Y-37877785D01*
X22462214Y-38017136D01*
X22462218Y-38017139D01*
X22626079Y-38126628D01*
X22626092Y-38126635D01*
X22808160Y-38202049D01*
X22808165Y-38202051D01*
X22808169Y-38202051D01*
X22808170Y-38202052D01*
X23001456Y-38240500D01*
X23001459Y-38240500D01*
X23198543Y-38240500D01*
X23328582Y-38214632D01*
X23391835Y-38202051D01*
X23573914Y-38126632D01*
X23737782Y-38017139D01*
X23877139Y-37877782D01*
X23986632Y-37713914D01*
X24062051Y-37531835D01*
X24100500Y-37338541D01*
X24100500Y-37141459D01*
X24100500Y-37141456D01*
X24062052Y-36948170D01*
X24062051Y-36948169D01*
X24062051Y-36948165D01*
X24062049Y-36948160D01*
X23986635Y-36766092D01*
X23986628Y-36766079D01*
X23877139Y-36602218D01*
X23877136Y-36602214D01*
X23737785Y-36462863D01*
X23737781Y-36462860D01*
X23573920Y-36353371D01*
X23573907Y-36353364D01*
X23391839Y-36277950D01*
X23391829Y-36277947D01*
X23198543Y-36239500D01*
X23198541Y-36239500D01*
X23001459Y-36239500D01*
X23001457Y-36239500D01*
X22808170Y-36277947D01*
X22808160Y-36277950D01*
X22626092Y-36353364D01*
X22626079Y-36353371D01*
X22462218Y-36462860D01*
X22462214Y-36462863D01*
X22322863Y-36602214D01*
X22322860Y-36602218D01*
X22213371Y-36766079D01*
X22213364Y-36766092D01*
X22137950Y-36948160D01*
X22137947Y-36948170D01*
X22099500Y-37141456D01*
X22099500Y-37141459D01*
X22099500Y-37338541D01*
X22099500Y-37338543D01*
X22099499Y-37338543D01*
X20500500Y-37338543D01*
X20500500Y-34613428D01*
X22000000Y-34613428D01*
X22000000Y-34786571D01*
X22027085Y-34957584D01*
X22080591Y-35122257D01*
X22159195Y-35276523D01*
X22159196Y-35276525D01*
X22193463Y-35323691D01*
X22193464Y-35323691D01*
X22631980Y-34885176D01*
X22634075Y-34892993D01*
X22699901Y-35007007D01*
X22792993Y-35100099D01*
X22907007Y-35165925D01*
X22914822Y-35168019D01*
X22476307Y-35606534D01*
X22523478Y-35640805D01*
X22677742Y-35719408D01*
X22842415Y-35772914D01*
X23013429Y-35800000D01*
X23186571Y-35800000D01*
X23357584Y-35772914D01*
X23522257Y-35719408D01*
X23676525Y-35640803D01*
X23723691Y-35606534D01*
X23723692Y-35606533D01*
X23285178Y-35168019D01*
X23292993Y-35165925D01*
X23407007Y-35100099D01*
X23500099Y-35007007D01*
X23565925Y-34892993D01*
X23568019Y-34885177D01*
X24006533Y-35323692D01*
X24006534Y-35323691D01*
X24040803Y-35276525D01*
X24119408Y-35122257D01*
X24172914Y-34957584D01*
X24200000Y-34786571D01*
X24200000Y-34613428D01*
X24172914Y-34442415D01*
X24119408Y-34277742D01*
X24040805Y-34123478D01*
X24006534Y-34076307D01*
X23568019Y-34514822D01*
X23565925Y-34507007D01*
X23500099Y-34392993D01*
X23407007Y-34299901D01*
X23292993Y-34234075D01*
X23285176Y-34231980D01*
X23723691Y-33793464D01*
X23723691Y-33793463D01*
X23676525Y-33759196D01*
X23676523Y-33759195D01*
X23522257Y-33680591D01*
X23357584Y-33627085D01*
X23186571Y-33600000D01*
X23013429Y-33600000D01*
X22842415Y-33627085D01*
X22677740Y-33680592D01*
X22523475Y-33759196D01*
X22476307Y-33793463D01*
X22476307Y-33793464D01*
X22914823Y-34231980D01*
X22907007Y-34234075D01*
X22792993Y-34299901D01*
X22699901Y-34392993D01*
X22634075Y-34507007D01*
X22631980Y-34514823D01*
X22193464Y-34076307D01*
X22193463Y-34076307D01*
X22159196Y-34123475D01*
X22080592Y-34277740D01*
X22027085Y-34442415D01*
X22000000Y-34613428D01*
X20500500Y-34613428D01*
X20500500Y-32258543D01*
X22099499Y-32258543D01*
X22137947Y-32451829D01*
X22137950Y-32451839D01*
X22213364Y-32633907D01*
X22213371Y-32633920D01*
X22322860Y-32797781D01*
X22322863Y-32797785D01*
X22462214Y-32937136D01*
X22462218Y-32937139D01*
X22626079Y-33046628D01*
X22626092Y-33046635D01*
X22801190Y-33119162D01*
X22808165Y-33122051D01*
X22808169Y-33122051D01*
X22808170Y-33122052D01*
X23001456Y-33160500D01*
X23001459Y-33160500D01*
X23198543Y-33160500D01*
X23328582Y-33134632D01*
X23391835Y-33122051D01*
X23573914Y-33046632D01*
X23737782Y-32937139D01*
X23877139Y-32797782D01*
X23986632Y-32633914D01*
X24062051Y-32451835D01*
X24100500Y-32258541D01*
X24100500Y-32061459D01*
X24100500Y-32061456D01*
X24062052Y-31868170D01*
X24062051Y-31868169D01*
X24062051Y-31868165D01*
X24062049Y-31868160D01*
X23986635Y-31686092D01*
X23986628Y-31686079D01*
X23877139Y-31522218D01*
X23877136Y-31522214D01*
X23737785Y-31382863D01*
X23737781Y-31382860D01*
X23573920Y-31273371D01*
X23573907Y-31273364D01*
X23391839Y-31197950D01*
X23391829Y-31197947D01*
X23198543Y-31159500D01*
X23198541Y-31159500D01*
X23001459Y-31159500D01*
X23001457Y-31159500D01*
X22808170Y-31197947D01*
X22808160Y-31197950D01*
X22626092Y-31273364D01*
X22626079Y-31273371D01*
X22462218Y-31382860D01*
X22462214Y-31382863D01*
X22322863Y-31522214D01*
X22322860Y-31522218D01*
X22213371Y-31686079D01*
X22213364Y-31686092D01*
X22137950Y-31868160D01*
X22137947Y-31868170D01*
X22099500Y-32061456D01*
X22099500Y-32061459D01*
X22099500Y-32258541D01*
X22099500Y-32258543D01*
X22099499Y-32258543D01*
X20500500Y-32258543D01*
X20500500Y-29718543D01*
X22099499Y-29718543D01*
X22137947Y-29911829D01*
X22137950Y-29911839D01*
X22213364Y-30093907D01*
X22213371Y-30093920D01*
X22322860Y-30257781D01*
X22322863Y-30257785D01*
X22462214Y-30397136D01*
X22462218Y-30397139D01*
X22626079Y-30506628D01*
X22626092Y-30506635D01*
X22808160Y-30582049D01*
X22808165Y-30582051D01*
X22808169Y-30582051D01*
X22808170Y-30582052D01*
X23001456Y-30620500D01*
X23001459Y-30620500D01*
X23198543Y-30620500D01*
X23328582Y-30594632D01*
X23391835Y-30582051D01*
X23573914Y-30506632D01*
X23737782Y-30397139D01*
X23877139Y-30257782D01*
X23986632Y-30093914D01*
X24062051Y-29911835D01*
X24100500Y-29718543D01*
X39879499Y-29718543D01*
X39917947Y-29911829D01*
X39917950Y-29911839D01*
X39993364Y-30093907D01*
X39993371Y-30093920D01*
X40102860Y-30257781D01*
X40102863Y-30257785D01*
X40242214Y-30397136D01*
X40242218Y-30397139D01*
X40406079Y-30506628D01*
X40406092Y-30506635D01*
X40588160Y-30582049D01*
X40588165Y-30582051D01*
X40588169Y-30582051D01*
X40588170Y-30582052D01*
X40781456Y-30620500D01*
X40781459Y-30620500D01*
X40978543Y-30620500D01*
X41108582Y-30594632D01*
X41171835Y-30582051D01*
X41353914Y-30506632D01*
X41517782Y-30397139D01*
X41657139Y-30257782D01*
X41766632Y-30093914D01*
X41842051Y-29911835D01*
X41880500Y-29718541D01*
X41880500Y-29521459D01*
X41880500Y-29521456D01*
X41842052Y-29328170D01*
X41842051Y-29328169D01*
X41842051Y-29328165D01*
X41842049Y-29328160D01*
X41766635Y-29146092D01*
X41766628Y-29146079D01*
X41657139Y-28982218D01*
X41657136Y-28982214D01*
X41517785Y-28842863D01*
X41517781Y-28842860D01*
X41353920Y-28733371D01*
X41353907Y-28733364D01*
X41171839Y-28657950D01*
X41171829Y-28657947D01*
X40978543Y-28619500D01*
X40978541Y-28619500D01*
X40781459Y-28619500D01*
X40781457Y-28619500D01*
X40588170Y-28657947D01*
X40588160Y-28657950D01*
X40406092Y-28733364D01*
X40406079Y-28733371D01*
X40242218Y-28842860D01*
X40242214Y-28842863D01*
X40102863Y-28982214D01*
X40102860Y-28982218D01*
X39993371Y-29146079D01*
X39993364Y-29146092D01*
X39917950Y-29328160D01*
X39917947Y-29328170D01*
X39879500Y-29521456D01*
X39879500Y-29521459D01*
X39879500Y-29718541D01*
X39879500Y-29718543D01*
X39879499Y-29718543D01*
X24100500Y-29718543D01*
X24100500Y-29718541D01*
X24100500Y-29521459D01*
X24100500Y-29521456D01*
X24062052Y-29328170D01*
X24062051Y-29328169D01*
X24062051Y-29328165D01*
X24062049Y-29328160D01*
X23986635Y-29146092D01*
X23986628Y-29146079D01*
X23877139Y-28982218D01*
X23877136Y-28982214D01*
X23737785Y-28842863D01*
X23737781Y-28842860D01*
X23573920Y-28733371D01*
X23573907Y-28733364D01*
X23391839Y-28657950D01*
X23391829Y-28657947D01*
X23198543Y-28619500D01*
X23198541Y-28619500D01*
X23001459Y-28619500D01*
X23001457Y-28619500D01*
X22808170Y-28657947D01*
X22808160Y-28657950D01*
X22626092Y-28733364D01*
X22626079Y-28733371D01*
X22462218Y-28842860D01*
X22462214Y-28842863D01*
X22322863Y-28982214D01*
X22322860Y-28982218D01*
X22213371Y-29146079D01*
X22213364Y-29146092D01*
X22137950Y-29328160D01*
X22137947Y-29328170D01*
X22099500Y-29521456D01*
X22099500Y-29521459D01*
X22099500Y-29718541D01*
X22099500Y-29718543D01*
X22099499Y-29718543D01*
X20500500Y-29718543D01*
X20500500Y-27001211D01*
X22094500Y-27001211D01*
X22094500Y-27158788D01*
X22098449Y-27198884D01*
X22129192Y-27353442D01*
X22140887Y-27391997D01*
X22177381Y-27480099D01*
X22201192Y-27537584D01*
X22220182Y-27573112D01*
X22220187Y-27573120D01*
X22220192Y-27573128D01*
X22307725Y-27704131D01*
X22307729Y-27704136D01*
X22307732Y-27704140D01*
X22333289Y-27735280D01*
X22444720Y-27846711D01*
X22475860Y-27872268D01*
X22475863Y-27872270D01*
X22475868Y-27872274D01*
X22606871Y-27959807D01*
X22606874Y-27959809D01*
X22606888Y-27959818D01*
X22642416Y-27978808D01*
X22788007Y-28039114D01*
X22826559Y-28050808D01*
X22981117Y-28081551D01*
X23021207Y-28085500D01*
X23021212Y-28085500D01*
X23739783Y-28085500D01*
X23739783Y-28085499D01*
X23818423Y-28069858D01*
X23891932Y-28039410D01*
X23958601Y-27994862D01*
X24014862Y-27938601D01*
X24059410Y-27871932D01*
X24069857Y-27846711D01*
X24089854Y-27798433D01*
X24089854Y-27798431D01*
X24089858Y-27798423D01*
X24105500Y-27719782D01*
X24105500Y-26440220D01*
X39775000Y-26440220D01*
X39775000Y-27719767D01*
X39775081Y-27726826D01*
X39798216Y-27836500D01*
X39798216Y-27836502D01*
X39810645Y-27866509D01*
X39810647Y-27866510D01*
X40411980Y-27265176D01*
X40414075Y-27272993D01*
X40479901Y-27387007D01*
X40572993Y-27480099D01*
X40687007Y-27545925D01*
X40694823Y-27548019D01*
X40093489Y-28149353D01*
X40123462Y-28161768D01*
X40130035Y-28164402D01*
X40240220Y-28185000D01*
X40958791Y-28185000D01*
X41018281Y-28179141D01*
X41018285Y-28179141D01*
X41172848Y-28148398D01*
X41230072Y-28131039D01*
X41375661Y-28070733D01*
X41428387Y-28042550D01*
X41428397Y-28042544D01*
X41507108Y-27989951D01*
X41065176Y-27548019D01*
X41072993Y-27545925D01*
X41187007Y-27480099D01*
X41280099Y-27387007D01*
X41345925Y-27272993D01*
X41348019Y-27265176D01*
X41789951Y-27707108D01*
X41842544Y-27628397D01*
X41842550Y-27628387D01*
X41870733Y-27575661D01*
X41931039Y-27430072D01*
X41948398Y-27372848D01*
X41979141Y-27218285D01*
X41979141Y-27218281D01*
X41985000Y-27158791D01*
X41985000Y-27001208D01*
X41979141Y-26941718D01*
X41979141Y-26941714D01*
X41948398Y-26787151D01*
X41931039Y-26729927D01*
X41870733Y-26584338D01*
X41842550Y-26531612D01*
X41842544Y-26531602D01*
X41789951Y-26452890D01*
X41348019Y-26894822D01*
X41345925Y-26887007D01*
X41280099Y-26772993D01*
X41187007Y-26679901D01*
X41072993Y-26614075D01*
X41065176Y-26611980D01*
X41507107Y-26170048D01*
X41428397Y-26117455D01*
X41428387Y-26117449D01*
X41375661Y-26089266D01*
X41230072Y-26028960D01*
X41172848Y-26011601D01*
X41018283Y-25980858D01*
X40958791Y-25975000D01*
X40240232Y-25975000D01*
X40233173Y-25975081D01*
X40123500Y-25998216D01*
X40093488Y-26010645D01*
X40093488Y-26010646D01*
X40694823Y-26611980D01*
X40687007Y-26614075D01*
X40572993Y-26679901D01*
X40479901Y-26772993D01*
X40414075Y-26887007D01*
X40411980Y-26894822D01*
X39810646Y-26293488D01*
X39810645Y-26293488D01*
X39798226Y-26323474D01*
X39795597Y-26330035D01*
X39795597Y-26330036D01*
X39775000Y-26440220D01*
X24105500Y-26440220D01*
X24105500Y-26440218D01*
X24089858Y-26361577D01*
X24089855Y-26361571D01*
X24089854Y-26361566D01*
X24059413Y-26288074D01*
X24059411Y-26288071D01*
X24059410Y-26288068D01*
X24014862Y-26221399D01*
X23958601Y-26165138D01*
X23891932Y-26120590D01*
X23891929Y-26120588D01*
X23891925Y-26120586D01*
X23818433Y-26090145D01*
X23818417Y-26090140D01*
X23739785Y-26074500D01*
X23739782Y-26074500D01*
X23021207Y-26074500D01*
X22992571Y-26077320D01*
X22981115Y-26078449D01*
X22826557Y-26109192D01*
X22788002Y-26120887D01*
X22642422Y-26181189D01*
X22642415Y-26181192D01*
X22614182Y-26196282D01*
X22606888Y-26200182D01*
X22606885Y-26200183D01*
X22606871Y-26200192D01*
X22475868Y-26287725D01*
X22475863Y-26287729D01*
X22444720Y-26313288D01*
X22333288Y-26424720D01*
X22307729Y-26455863D01*
X22307725Y-26455868D01*
X22220192Y-26586871D01*
X22220180Y-26586892D01*
X22201192Y-26622415D01*
X22201189Y-26622422D01*
X22140887Y-26768002D01*
X22129192Y-26806557D01*
X22098449Y-26961115D01*
X22094500Y-27001211D01*
X20500500Y-27001211D01*
X20500500Y-24638543D01*
X22099499Y-24638543D01*
X22137947Y-24831829D01*
X22137950Y-24831839D01*
X22213364Y-25013907D01*
X22213371Y-25013920D01*
X22322860Y-25177781D01*
X22322863Y-25177785D01*
X22462214Y-25317136D01*
X22462218Y-25317139D01*
X22626079Y-25426628D01*
X22626092Y-25426635D01*
X22808160Y-25502049D01*
X22808165Y-25502051D01*
X22808169Y-25502051D01*
X22808170Y-25502052D01*
X23001456Y-25540500D01*
X23001459Y-25540500D01*
X23198543Y-25540500D01*
X23328582Y-25514632D01*
X23391835Y-25502051D01*
X23573914Y-25426632D01*
X23737782Y-25317139D01*
X23877139Y-25177782D01*
X23986632Y-25013914D01*
X24062051Y-24831835D01*
X24100500Y-24638543D01*
X39879499Y-24638543D01*
X39917947Y-24831829D01*
X39917950Y-24831839D01*
X39993364Y-25013907D01*
X39993371Y-25013920D01*
X40102860Y-25177781D01*
X40102863Y-25177785D01*
X40242214Y-25317136D01*
X40242218Y-25317139D01*
X40406079Y-25426628D01*
X40406092Y-25426635D01*
X40588160Y-25502049D01*
X40588165Y-25502051D01*
X40588169Y-25502051D01*
X40588170Y-25502052D01*
X40781456Y-25540500D01*
X40781459Y-25540500D01*
X40978543Y-25540500D01*
X41108582Y-25514632D01*
X41171835Y-25502051D01*
X41353914Y-25426632D01*
X41517782Y-25317139D01*
X41657139Y-25177782D01*
X41766632Y-25013914D01*
X41842051Y-24831835D01*
X41880500Y-24638541D01*
X41880500Y-24441459D01*
X41880500Y-24441456D01*
X41842052Y-24248170D01*
X41842051Y-24248169D01*
X41842051Y-24248165D01*
X41842049Y-24248160D01*
X41766635Y-24066092D01*
X41766628Y-24066079D01*
X41657139Y-23902218D01*
X41657136Y-23902214D01*
X41517785Y-23762863D01*
X41517781Y-23762860D01*
X41353920Y-23653371D01*
X41353907Y-23653364D01*
X41171839Y-23577950D01*
X41171829Y-23577947D01*
X40978543Y-23539500D01*
X40978541Y-23539500D01*
X40781459Y-23539500D01*
X40781457Y-23539500D01*
X40588170Y-23577947D01*
X40588160Y-23577950D01*
X40406092Y-23653364D01*
X40406079Y-23653371D01*
X40242218Y-23762860D01*
X40242214Y-23762863D01*
X40102863Y-23902214D01*
X40102860Y-23902218D01*
X39993371Y-24066079D01*
X39993364Y-24066092D01*
X39917950Y-24248160D01*
X39917947Y-24248170D01*
X39879500Y-24441456D01*
X39879500Y-24441459D01*
X39879500Y-24638541D01*
X39879500Y-24638543D01*
X39879499Y-24638543D01*
X24100500Y-24638543D01*
X24100500Y-24638541D01*
X24100500Y-24441459D01*
X24100500Y-24441456D01*
X24062052Y-24248170D01*
X24062051Y-24248169D01*
X24062051Y-24248165D01*
X24062049Y-24248160D01*
X23986635Y-24066092D01*
X23986628Y-24066079D01*
X23877139Y-23902218D01*
X23877136Y-23902214D01*
X23737785Y-23762863D01*
X23737781Y-23762860D01*
X23573920Y-23653371D01*
X23573907Y-23653364D01*
X23391839Y-23577950D01*
X23391829Y-23577947D01*
X23198543Y-23539500D01*
X23198541Y-23539500D01*
X23001459Y-23539500D01*
X23001457Y-23539500D01*
X22808170Y-23577947D01*
X22808160Y-23577950D01*
X22626092Y-23653364D01*
X22626079Y-23653371D01*
X22462218Y-23762860D01*
X22462214Y-23762863D01*
X22322863Y-23902214D01*
X22322860Y-23902218D01*
X22213371Y-24066079D01*
X22213364Y-24066092D01*
X22137950Y-24248160D01*
X22137947Y-24248170D01*
X22099500Y-24441456D01*
X22099500Y-24441459D01*
X22099500Y-24638541D01*
X22099500Y-24638543D01*
X22099499Y-24638543D01*
X20500500Y-24638543D01*
X20500500Y-21368475D01*
X22099500Y-21368475D01*
X22099500Y-22631517D01*
X22110292Y-22699657D01*
X22114354Y-22725304D01*
X22171950Y-22838342D01*
X22171952Y-22838344D01*
X22171954Y-22838347D01*
X22261652Y-22928045D01*
X22261654Y-22928046D01*
X22261658Y-22928050D01*
X22374694Y-22985645D01*
X22374698Y-22985647D01*
X22468475Y-23000499D01*
X22468481Y-23000500D01*
X23731518Y-23000499D01*
X23825304Y-22985646D01*
X23938342Y-22928050D01*
X24028050Y-22838342D01*
X24085646Y-22725304D01*
X24085646Y-22725302D01*
X24085647Y-22725301D01*
X24096282Y-22658147D01*
X24100500Y-22631519D01*
X24100500Y-22098543D01*
X39879499Y-22098543D01*
X39917947Y-22291829D01*
X39917950Y-22291839D01*
X39993364Y-22473907D01*
X39993371Y-22473920D01*
X40102860Y-22637781D01*
X40102863Y-22637785D01*
X40242214Y-22777136D01*
X40242218Y-22777139D01*
X40406079Y-22886628D01*
X40406092Y-22886635D01*
X40588160Y-22962049D01*
X40588165Y-22962051D01*
X40588169Y-22962051D01*
X40588170Y-22962052D01*
X40781456Y-23000500D01*
X40781459Y-23000500D01*
X40978543Y-23000500D01*
X41108582Y-22974632D01*
X41171835Y-22962051D01*
X41353914Y-22886632D01*
X41517782Y-22777139D01*
X41657139Y-22637782D01*
X41766632Y-22473914D01*
X41842051Y-22291835D01*
X41880500Y-22098541D01*
X41880500Y-21901459D01*
X41880500Y-21901456D01*
X41842052Y-21708170D01*
X41842051Y-21708169D01*
X41842051Y-21708165D01*
X41842049Y-21708160D01*
X41766635Y-21526092D01*
X41766628Y-21526079D01*
X41657139Y-21362218D01*
X41657136Y-21362214D01*
X41517785Y-21222863D01*
X41517781Y-21222860D01*
X41353920Y-21113371D01*
X41353907Y-21113364D01*
X41171839Y-21037950D01*
X41171829Y-21037947D01*
X40978543Y-20999500D01*
X40978541Y-20999500D01*
X40781459Y-20999500D01*
X40781457Y-20999500D01*
X40588170Y-21037947D01*
X40588160Y-21037950D01*
X40406092Y-21113364D01*
X40406079Y-21113371D01*
X40242218Y-21222860D01*
X40242214Y-21222863D01*
X40102863Y-21362214D01*
X40102860Y-21362218D01*
X39993371Y-21526079D01*
X39993364Y-21526092D01*
X39917950Y-21708160D01*
X39917947Y-21708170D01*
X39879500Y-21901456D01*
X39879500Y-21901459D01*
X39879500Y-22098541D01*
X39879500Y-22098543D01*
X39879499Y-22098543D01*
X24100500Y-22098543D01*
X24100499Y-21368482D01*
X24085646Y-21274696D01*
X24028050Y-21161658D01*
X24028046Y-21161654D01*
X24028045Y-21161652D01*
X23938347Y-21071954D01*
X23938344Y-21071952D01*
X23938342Y-21071950D01*
X23861517Y-21032805D01*
X23825301Y-21014352D01*
X23731524Y-20999500D01*
X22468482Y-20999500D01*
X22387519Y-21012323D01*
X22374696Y-21014354D01*
X22261658Y-21071950D01*
X22261657Y-21071951D01*
X22261652Y-21071954D01*
X22171954Y-21161652D01*
X22171951Y-21161657D01*
X22114352Y-21274698D01*
X22099500Y-21368475D01*
X20500500Y-21368475D01*
X20500500Y-20624500D01*
X20520185Y-20557461D01*
X20572989Y-20511706D01*
X20624500Y-20500500D01*
X74375500Y-20500500D01*
X74442539Y-20520185D01*
G37*
%TD.AperFunction*%
%TD*%
M02*
