%TF.GenerationSoftware,KiCad,Pcbnew,10.0.4*%
%TF.CreationDate,2026-08-19T00:55:56-03:00*%
%TF.ProjectId,pong-retrosc-yd,706f6e67-2d72-4657-9472-6f73632d7964,rev?*%
%TF.SameCoordinates,Original*%
%TF.FileFunction,Legend,Bot*%
%TF.FilePolarity,Positive*%
%FSLAX46Y46*%
G04 Gerber Fmt 4.6, Leading zero omitted, Abs format (unit mm)*
G04 Created by KiCad (PCBNEW 10.0.4) date 2026-08-19 00:55:56*
%MOMM*%
%LPD*%
G01*
G04 APERTURE LIST*
G04 Aperture macros list*
%AMRoundRect*
0 Rectangle with rounded corners*
0 $1 Rounding radius*
0 $2 $3 $4 $5 $6 $7 $8 $9 X,Y pos of 4 corners*
0 Add a 4 corners polygon primitive as box body*
4,1,4,$2,$3,$4,$5,$6,$7,$8,$9,$2,$3,0*
0 Add four circle primitives for the rounded corners*
1,1,$1+$1,$2,$3*
1,1,$1+$1,$4,$5*
1,1,$1+$1,$6,$7*
1,1,$1+$1,$8,$9*
0 Add four rect primitives between the rounded corners*
20,1,$1+$1,$2,$3,$4,$5,0*
20,1,$1+$1,$4,$5,$6,$7,0*
20,1,$1+$1,$6,$7,$8,$9,0*
20,1,$1+$1,$8,$9,$2,$3,0*%
%AMFreePoly0*
4,1,37,0.603843,0.796157,0.639018,0.796157,0.711114,0.766294,0.766294,0.711114,0.796157,0.639018,0.796157,0.603843,0.800000,0.600000,0.800000,-0.600000,0.796157,-0.603843,0.796157,-0.639018,0.766294,-0.711114,0.711114,-0.766294,0.639018,-0.796157,0.603843,-0.796157,0.600000,-0.800000,0.000000,-0.800000,0.000000,-0.796148,-0.078414,-0.796148,-0.232228,-0.765552,-0.377117,-0.705537,
-0.507515,-0.618408,-0.618408,-0.507515,-0.705537,-0.377117,-0.765552,-0.232228,-0.796148,-0.078414,-0.796148,0.078414,-0.765552,0.232228,-0.705537,0.377117,-0.618408,0.507515,-0.507515,0.618408,-0.377117,0.705537,-0.232228,0.765552,-0.078414,0.796148,0.000000,0.796148,0.000000,0.800000,0.600000,0.800000,0.603843,0.796157,0.603843,0.796157,$1*%
%AMFreePoly1*
4,1,37,0.000000,0.796148,0.078414,0.796148,0.232228,0.765552,0.377117,0.705537,0.507515,0.618408,0.618408,0.507515,0.705537,0.377117,0.765552,0.232228,0.796148,0.078414,0.796148,-0.078414,0.765552,-0.232228,0.705537,-0.377117,0.618408,-0.507515,0.507515,-0.618408,0.377117,-0.705537,0.232228,-0.765552,0.078414,-0.796148,0.000000,-0.796148,0.000000,-0.800000,-0.600000,-0.800000,
-0.603843,-0.796157,-0.639018,-0.796157,-0.711114,-0.766294,-0.766294,-0.711114,-0.796157,-0.639018,-0.796157,-0.603843,-0.800000,-0.600000,-0.800000,0.600000,-0.796157,0.603843,-0.796157,0.639018,-0.766294,0.711114,-0.711114,0.766294,-0.639018,0.796157,-0.603843,0.796157,-0.600000,0.800000,0.000000,0.800000,0.000000,0.796148,0.000000,0.796148,$1*%
G04 Aperture macros list end*
%ADD10C,1.600000*%
%ADD11C,2.600000*%
%ADD12O,3.400000X2.300000*%
%ADD13O,2.300000X3.400000*%
%ADD14RoundRect,0.200000X-0.600000X-0.600000X0.600000X-0.600000X0.600000X0.600000X-0.600000X0.600000X0*%
%ADD15FreePoly0,0.000000*%
%ADD16FreePoly1,0.000000*%
%ADD17RoundRect,0.250000X-0.550000X-0.550000X0.550000X-0.550000X0.550000X0.550000X-0.550000X0.550000X0*%
%ADD18C,3.200000*%
%ADD19R,1.700000X1.700000*%
%ADD20C,1.700000*%
%ADD21R,1.900000X1.900000*%
%ADD22C,1.900000*%
G04 APERTURE END LIST*
%LPC*%
D10*
%TO.C,R2*%
X46000000Y-48000000D03*
X48540000Y-48000000D03*
%TD*%
D11*
%TO.C,J8*%
X92500000Y-66000000D03*
D12*
X92500000Y-61000000D03*
D13*
X97500000Y-66000000D03*
D12*
X92500000Y-71000000D03*
%TD*%
D14*
%TO.C,U1*%
X23100000Y-22000000D03*
D10*
X23100000Y-24540000D03*
D15*
X23100000Y-27080000D03*
D10*
X23100000Y-29620000D03*
X23100000Y-32160000D03*
X23100000Y-34700000D03*
X23100000Y-37240000D03*
D15*
X23100000Y-39780000D03*
D10*
X23100000Y-42320000D03*
X23100000Y-44860000D03*
X23100000Y-47400000D03*
X23100000Y-49940000D03*
D15*
X23100000Y-52480000D03*
D10*
X23100000Y-55020000D03*
X23100000Y-57560000D03*
X23100000Y-60100000D03*
X23100000Y-62640000D03*
D15*
X23100000Y-65180000D03*
D10*
X23100000Y-67720000D03*
X23100000Y-70260000D03*
X40880000Y-70260000D03*
X40880000Y-67720000D03*
D16*
X40880000Y-65180000D03*
D10*
X40880000Y-62640000D03*
X40880000Y-60100000D03*
X40880000Y-57560000D03*
X40880000Y-55020000D03*
D16*
X40880000Y-52480000D03*
D10*
X40880000Y-49940000D03*
X40880000Y-47400000D03*
X40880000Y-44860000D03*
X40880000Y-42320000D03*
D16*
X40880000Y-39780000D03*
D10*
X40880000Y-37240000D03*
X40880000Y-34700000D03*
X40880000Y-32160000D03*
X40880000Y-29620000D03*
D16*
X40880000Y-27080000D03*
D10*
X40880000Y-24540000D03*
X40880000Y-22000000D03*
%TD*%
D11*
%TO.C,J9*%
X92500000Y-79000000D03*
D12*
X92500000Y-74000000D03*
D13*
X97500000Y-79000000D03*
D12*
X92500000Y-84000000D03*
%TD*%
D17*
%TO.C,C2*%
X56000000Y-31000000D03*
D10*
X58500000Y-31000000D03*
%TD*%
%TO.C,R5*%
X56000000Y-44000000D03*
X58540000Y-44000000D03*
%TD*%
D18*
%TO.C,H2*%
X60000000Y-82000000D03*
%TD*%
D10*
%TO.C,C4*%
X46000000Y-36000000D03*
X51000000Y-36000000D03*
%TD*%
D19*
%TO.C,J4*%
X22000000Y-80000000D03*
D20*
X24540000Y-80000000D03*
X27080000Y-80000000D03*
X29620000Y-80000000D03*
X32160000Y-80000000D03*
X34700000Y-80000000D03*
%TD*%
D10*
%TO.C,C1*%
X46000000Y-60000000D03*
X51000000Y-60000000D03*
%TD*%
%TO.C,C3*%
X46000000Y-30000000D03*
X51000000Y-30000000D03*
%TD*%
%TO.C,R6*%
X56000000Y-50000000D03*
X58540000Y-50000000D03*
%TD*%
D11*
%TO.C,J1*%
X92500000Y-53000000D03*
D12*
X92500000Y-48000000D03*
D13*
X97500000Y-53000000D03*
D12*
X92500000Y-58000000D03*
%TD*%
D10*
%TO.C,R7*%
X56000000Y-56000000D03*
X58540000Y-56000000D03*
%TD*%
%TO.C,R4*%
X56000000Y-38000000D03*
X58540000Y-38000000D03*
%TD*%
%TO.C,R3*%
X46000000Y-54000000D03*
X48540000Y-54000000D03*
%TD*%
D19*
%TO.C,J5*%
X67000000Y-80000000D03*
D20*
X69540000Y-80000000D03*
X72080000Y-80000000D03*
%TD*%
D19*
%TO.C,J7*%
X46000000Y-80000000D03*
D20*
X48540000Y-80000000D03*
%TD*%
D10*
%TO.C,R1*%
X46000000Y-42000000D03*
X48540000Y-42000000D03*
%TD*%
D18*
%TO.C,H1*%
X60000000Y-24000000D03*
%TD*%
D19*
%TO.C,J6*%
X77160000Y-80000000D03*
D20*
X79700000Y-80000000D03*
X82240000Y-80000000D03*
%TD*%
D21*
%TO.C,U2*%
X67000000Y-42000000D03*
D22*
X69540000Y-42000000D03*
X72080000Y-42000000D03*
X74620000Y-42000000D03*
X79700000Y-42000000D03*
X82240000Y-42000000D03*
X87320000Y-42000000D03*
X89860000Y-42000000D03*
X92400000Y-42000000D03*
%TD*%
%LPD*%
M02*
