%TF.GenerationSoftware,KiCad,Pcbnew,10.0.4*%
%TF.CreationDate,2026-07-23T22:47:19-03:00*%
%TF.ProjectId,pong-retrosc-yd,706f6e67-2d72-4657-9472-6f73632d7964,rev?*%
%TF.SameCoordinates,Original*%
%TF.FileFunction,Copper,L2,Bot*%
%TF.FilePolarity,Positive*%
%FSLAX46Y46*%
G04 Gerber Fmt 4.6, Leading zero omitted, Abs format (unit mm)*
G04 Created by KiCad (PCBNEW 10.0.4) date 2026-07-23 22:47:19*
%MOMM*%
%LPD*%
G01*
G04 APERTURE LIST*
G04 Aperture macros list*
%AMRoundRect*
0 Rectangle with rounded corners*
0 $1 Rounding radius*
0 $2 $3 $4 $5 $6 $7 $8 $9 X,Y pos of 4 corners*
0 Add a 4 corners polygon primitive as box body*
4,1,4,$2,$3,$4,$5,$6,$7,$8,$9,$2,$3,0*
0 Add four circle primitives for the rounded corners*
1,1,$1+$1,$2,$3*
1,1,$1+$1,$4,$5*
1,1,$1+$1,$6,$7*
1,1,$1+$1,$8,$9*
0 Add four rect primitives between the rounded corners*
20,1,$1+$1,$2,$3,$4,$5,0*
20,1,$1+$1,$4,$5,$6,$7,0*
20,1,$1+$1,$6,$7,$8,$9,0*
20,1,$1+$1,$8,$9,$2,$3,0*%
%AMFreePoly0*
4,1,37,0.603843,0.796157,0.639018,0.796157,0.711114,0.766294,0.766294,0.711114,0.796157,0.639018,0.796157,0.603843,0.800000,0.600000,0.800000,-0.600000,0.796157,-0.603843,0.796157,-0.639018,0.766294,-0.711114,0.711114,-0.766294,0.639018,-0.796157,0.603843,-0.796157,0.600000,-0.800000,0.000000,-0.800000,0.000000,-0.796148,-0.078414,-0.796148,-0.232228,-0.765552,-0.377117,-0.705537,
-0.507515,-0.618408,-0.618408,-0.507515,-0.705537,-0.377117,-0.765552,-0.232228,-0.796148,-0.078414,-0.796148,0.078414,-0.765552,0.232228,-0.705537,0.377117,-0.618408,0.507515,-0.507515,0.618408,-0.377117,0.705537,-0.232228,0.765552,-0.078414,0.796148,0.000000,0.796148,0.000000,0.800000,0.600000,0.800000,0.603843,0.796157,0.603843,0.796157,$1*%
%AMFreePoly1*
4,1,37,0.000000,0.796148,0.078414,0.796148,0.232228,0.765552,0.377117,0.705537,0.507515,0.618408,0.618408,0.507515,0.705537,0.377117,0.765552,0.232228,0.796148,0.078414,0.796148,-0.078414,0.765552,-0.232228,0.705537,-0.377117,0.618408,-0.507515,0.507515,-0.618408,0.377117,-0.705537,0.232228,-0.765552,0.078414,-0.796148,0.000000,-0.796148,0.000000,-0.800000,-0.600000,-0.800000,
-0.603843,-0.796157,-0.639018,-0.796157,-0.711114,-0.766294,-0.766294,-0.711114,-0.796157,-0.639018,-0.796157,-0.603843,-0.800000,-0.600000,-0.800000,0.600000,-0.796157,0.603843,-0.796157,0.639018,-0.766294,0.711114,-0.711114,0.766294,-0.639018,0.796157,-0.603843,0.796157,-0.600000,0.800000,0.000000,0.800000,0.000000,0.796148,0.000000,0.796148,$1*%
G04 Aperture macros list end*
%TA.AperFunction,ComponentPad*%
%ADD10R,1.900000X1.900000*%
%TD*%
%TA.AperFunction,ComponentPad*%
%ADD11C,1.900000*%
%TD*%
%TA.AperFunction,ComponentPad*%
%ADD12C,1.600000*%
%TD*%
%TA.AperFunction,ComponentPad*%
%ADD13C,2.600000*%
%TD*%
%TA.AperFunction,ComponentPad*%
%ADD14O,3.400000X2.300000*%
%TD*%
%TA.AperFunction,ComponentPad*%
%ADD15O,2.300000X3.400000*%
%TD*%
%TA.AperFunction,ComponentPad*%
%ADD16RoundRect,0.200000X-0.600000X-0.600000X0.600000X-0.600000X0.600000X0.600000X-0.600000X0.600000X0*%
%TD*%
%TA.AperFunction,ComponentPad*%
%ADD17FreePoly0,0.000000*%
%TD*%
%TA.AperFunction,ComponentPad*%
%ADD18FreePoly1,0.000000*%
%TD*%
%TA.AperFunction,ComponentPad*%
%ADD19R,1.700000X1.700000*%
%TD*%
%TA.AperFunction,ComponentPad*%
%ADD20C,1.700000*%
%TD*%
%TA.AperFunction,ComponentPad*%
%ADD21RoundRect,0.250000X-0.550000X-0.550000X0.550000X-0.550000X0.550000X0.550000X-0.550000X0.550000X0*%
%TD*%
%TA.AperFunction,ViaPad*%
%ADD22C,0.700000*%
%TD*%
%TA.AperFunction,Conductor*%
%ADD23C,0.250000*%
%TD*%
%TA.AperFunction,Conductor*%
%ADD24C,0.500000*%
%TD*%
G04 APERTURE END LIST*
D10*
%TO.P,U2,1*%
%TO.N,N/C*%
X46300000Y-42000000D03*
D11*
%TO.P,U2,2*%
X48840000Y-42000000D03*
%TO.P,U2,3*%
%TO.N,LOUT_P*%
X51380000Y-42000000D03*
%TO.P,U2,4*%
%TO.N,LOUT_N*%
X53920000Y-42000000D03*
%TO.P,U2,5*%
%TO.N,GND*%
X59000000Y-42000000D03*
%TO.P,U2,6*%
%TO.N,+5V*%
X61540000Y-42000000D03*
%TO.P,U2,7*%
%TO.N,AMP_L*%
X66620000Y-42000000D03*
%TO.P,U2,8*%
%TO.N,GND*%
X69160000Y-42000000D03*
%TO.P,U2,9*%
%TO.N,AMP_R*%
X71700000Y-42000000D03*
%TD*%
D12*
%TO.P,R7,1*%
%TO.N,AUD_C*%
X55000000Y-102000000D03*
%TO.P,R7,2*%
%TO.N,AMP_R*%
X57540000Y-102000000D03*
%TD*%
%TO.P,R1,1*%
%TO.N,SYNC*%
X55000000Y-62000000D03*
%TO.P,R1,2*%
%TO.N,COMPOSITE*%
X57540000Y-62000000D03*
%TD*%
D13*
%TO.P,J1,1*%
%TO.N,COMPOSITE*%
X67500000Y-51500000D03*
D14*
%TO.P,J1,2*%
%TO.N,GND*%
X67500000Y-46500000D03*
D15*
X72500000Y-51500000D03*
D14*
X67500000Y-56500000D03*
%TD*%
D13*
%TO.P,J8,1*%
%TO.N,RCA_C*%
X67500000Y-67500000D03*
D14*
%TO.P,J8,2*%
%TO.N,RCA_S*%
X67500000Y-62500000D03*
D15*
X72500000Y-67500000D03*
D14*
X67500000Y-72500000D03*
%TD*%
D12*
%TO.P,R5,1*%
%TO.N,LINHA*%
X67000000Y-96000000D03*
%TO.P,R5,2*%
%TO.N,GND*%
X69540000Y-96000000D03*
%TD*%
%TO.P,R3,1*%
%TO.N,AUDIO_PWM*%
X55000000Y-74000000D03*
%TO.P,R3,2*%
%TO.N,AUD_F*%
X57540000Y-74000000D03*
%TD*%
D16*
%TO.P,U1,1*%
%TO.N,N/C*%
X23100000Y-22000000D03*
D12*
%TO.P,U1,2*%
X23100000Y-24540000D03*
D17*
%TO.P,U1,3*%
X23100000Y-27080000D03*
D12*
%TO.P,U1,4*%
X23100000Y-29620000D03*
%TO.P,U1,5*%
X23100000Y-32160000D03*
%TO.P,U1,6*%
%TO.N,GND*%
X23100000Y-34700000D03*
%TO.P,U1,7*%
%TO.N,N/C*%
X23100000Y-37240000D03*
D17*
%TO.P,U1,8*%
X23100000Y-39780000D03*
D12*
%TO.P,U1,9*%
X23100000Y-42320000D03*
%TO.P,U1,10*%
X23100000Y-44860000D03*
%TO.P,U1,11*%
X23100000Y-47400000D03*
%TO.P,U1,12*%
X23100000Y-49940000D03*
D17*
%TO.P,U1,13*%
X23100000Y-52480000D03*
D12*
%TO.P,U1,14*%
X23100000Y-55020000D03*
%TO.P,U1,15*%
%TO.N,GND*%
X23100000Y-57560000D03*
%TO.P,U1,16*%
%TO.N,N/C*%
X23100000Y-60100000D03*
%TO.P,U1,17*%
X23100000Y-62640000D03*
D17*
%TO.P,U1,18*%
X23100000Y-65180000D03*
D12*
%TO.P,U1,19*%
%TO.N,SYNC*%
X23100000Y-67720000D03*
%TO.P,U1,20*%
%TO.N,VIDEO*%
X23100000Y-70260000D03*
%TO.P,U1,21*%
%TO.N,AUDIO_PWM*%
X40880000Y-70260000D03*
%TO.P,U1,22*%
%TO.N,N/C*%
X40880000Y-67720000D03*
D18*
%TO.P,U1,23*%
X40880000Y-65180000D03*
D12*
%TO.P,U1,24*%
X40880000Y-62640000D03*
%TO.P,U1,25*%
%TO.N,START*%
X40880000Y-60100000D03*
%TO.P,U1,26*%
%TO.N,N/C*%
X40880000Y-57560000D03*
%TO.P,U1,27*%
X40880000Y-55020000D03*
D18*
%TO.P,U1,28*%
X40880000Y-52480000D03*
D12*
%TO.P,U1,29*%
%TO.N,AGND*%
X40880000Y-49940000D03*
%TO.P,U1,30*%
%TO.N,POT1*%
X40880000Y-47400000D03*
%TO.P,U1,31*%
%TO.N,POT2*%
X40880000Y-44860000D03*
%TO.P,U1,32*%
%TO.N,N/C*%
X40880000Y-42320000D03*
D18*
%TO.P,U1,33*%
X40880000Y-39780000D03*
D12*
%TO.P,U1,34*%
X40880000Y-37240000D03*
%TO.P,U1,35*%
%TO.N,GND*%
X40880000Y-34700000D03*
%TO.P,U1,36*%
%TO.N,+3V3*%
X40880000Y-32160000D03*
%TO.P,U1,37*%
%TO.N,N/C*%
X40880000Y-29620000D03*
D18*
%TO.P,U1,38*%
%TO.N,GND*%
X40880000Y-27080000D03*
D12*
%TO.P,U1,39*%
%TO.N,N/C*%
X40880000Y-24540000D03*
%TO.P,U1,40*%
%TO.N,+5V*%
X40880000Y-22000000D03*
%TD*%
%TO.P,C4,1*%
%TO.N,POT2*%
X55000000Y-55000000D03*
%TO.P,C4,2*%
%TO.N,AGND*%
X60000000Y-55000000D03*
%TD*%
D19*
%TO.P,J6,1*%
%TO.N,+3V3*%
X34160000Y-90000000D03*
D20*
%TO.P,J6,2*%
%TO.N,POT2*%
X36700000Y-90000000D03*
%TO.P,J6,3*%
%TO.N,AGND*%
X39240000Y-90000000D03*
%TD*%
D12*
%TO.P,R2,1*%
%TO.N,VIDEO*%
X55000000Y-68000000D03*
%TO.P,R2,2*%
%TO.N,COMPOSITE*%
X57540000Y-68000000D03*
%TD*%
%TO.P,C1,1*%
%TO.N,AUD_F*%
X55000000Y-81000000D03*
%TO.P,C1,2*%
%TO.N,GND*%
X60000000Y-81000000D03*
%TD*%
D19*
%TO.P,J5,1*%
%TO.N,+3V3*%
X24000000Y-90000000D03*
D20*
%TO.P,J5,2*%
%TO.N,POT1*%
X26540000Y-90000000D03*
%TO.P,J5,3*%
%TO.N,AGND*%
X29080000Y-90000000D03*
%TD*%
D19*
%TO.P,J7,1*%
%TO.N,START*%
X33500000Y-102000000D03*
D20*
%TO.P,J7,2*%
%TO.N,GND*%
X36040000Y-102000000D03*
%TD*%
D12*
%TO.P,R4,1*%
%TO.N,AUD_C*%
X61000000Y-96000000D03*
%TO.P,R4,2*%
%TO.N,LINHA*%
X63540000Y-96000000D03*
%TD*%
D19*
%TO.P,J4,1*%
%TO.N,RCA_C*%
X24000000Y-78000000D03*
D20*
%TO.P,J4,2*%
%TO.N,RCA_S*%
X26540000Y-78000000D03*
%TO.P,J4,3*%
%TO.N,LINHA*%
X29080000Y-78000000D03*
%TO.P,J4,4*%
%TO.N,GND*%
X31620000Y-78000000D03*
%TO.P,J4,5*%
%TO.N,LOUT_P*%
X34160000Y-78000000D03*
%TO.P,J4,6*%
%TO.N,LOUT_N*%
X36700000Y-78000000D03*
%TD*%
D12*
%TO.P,C3,1*%
%TO.N,POT1*%
X55000000Y-48000000D03*
%TO.P,C3,2*%
%TO.N,AGND*%
X60000000Y-48000000D03*
%TD*%
D21*
%TO.P,C2,1*%
%TO.N,AUD_F*%
X52500000Y-89000000D03*
D12*
%TO.P,C2,2*%
%TO.N,AUD_C*%
X55000000Y-89000000D03*
%TD*%
%TO.P,R6,1*%
%TO.N,AUD_C*%
X55000000Y-96000000D03*
%TO.P,R6,2*%
%TO.N,AMP_L*%
X57540000Y-96000000D03*
%TD*%
D13*
%TO.P,J9,1*%
%TO.N,RCA_C*%
X67500000Y-83500000D03*
D14*
%TO.P,J9,2*%
%TO.N,RCA_S*%
X67500000Y-78500000D03*
D15*
X72500000Y-83500000D03*
D14*
X67500000Y-88500000D03*
%TD*%
D22*
%TO.N,LOUT_P*%
X43238400Y-77074200D03*
%TO.N,LOUT_N*%
X53920000Y-77484400D03*
%TO.N,POT2*%
X42541300Y-89038400D03*
%TD*%
%TO.N,LOUT_P*%
D23*
X43037500Y-76873300D02*
X43238400Y-77074200D01*
X34160000Y-78000000D02*
X35286700Y-76873300D01*
X35286700Y-76873300D02*
X43037500Y-76873300D01*
%TO.N,LOUT_N*%
X53404400Y-78000000D02*
X53920000Y-77484400D01*
X36700000Y-78000000D02*
X53404400Y-78000000D01*
%TO.N,+5V*%
D24*
X41540000Y-22000000D02*
X61540000Y-42000000D01*
X40880000Y-22000000D02*
X41540000Y-22000000D01*
%TO.N,AUD_C*%
D23*
X59895200Y-94895200D02*
X61000000Y-96000000D01*
X56104800Y-94895200D02*
X59895200Y-94895200D01*
X55000000Y-96000000D02*
X56104800Y-94895200D01*
%TO.N,SYNC*%
X54546000Y-61546000D02*
X55000000Y-62000000D01*
X23100000Y-67720000D02*
X24536600Y-66283400D01*
X24536600Y-66283400D02*
X24536600Y-63040900D01*
X26031500Y-61546000D02*
X54546000Y-61546000D01*
X24536600Y-63040900D02*
X26031500Y-61546000D01*
%TO.N,COMPOSITE*%
X57540000Y-61460000D02*
X57540000Y-62000000D01*
X67500000Y-51500000D02*
X57540000Y-61460000D01*
%TO.N,RCA_C*%
X25126700Y-78000000D02*
X25126700Y-77718300D01*
X24000000Y-78000000D02*
X25126700Y-78000000D01*
X56270000Y-73720400D02*
X62490400Y-67500000D01*
X26942200Y-75902800D02*
X54661300Y-75902800D01*
X62490400Y-67500000D02*
X67500000Y-67500000D01*
X56270000Y-74294100D02*
X56270000Y-73720400D01*
X25126700Y-77718300D02*
X26942200Y-75902800D01*
X54661300Y-75902800D02*
X56270000Y-74294100D01*
%TO.N,RCA_S*%
X72500000Y-67500000D02*
X71073300Y-67500000D01*
X70666100Y-83907200D02*
X70666100Y-83500000D01*
X67500000Y-88500000D02*
X67500000Y-87073300D01*
X67500000Y-87073300D02*
X70666100Y-83907200D01*
X28094100Y-76445900D02*
X26540000Y-78000000D01*
X67500000Y-78500000D02*
X67500000Y-79926700D01*
X70666100Y-67500000D02*
X70666100Y-67092800D01*
X70666100Y-83092800D02*
X67500000Y-79926700D01*
X70666100Y-67500000D02*
X71073300Y-67500000D01*
X70666100Y-83500000D02*
X70666100Y-83092800D01*
X67500000Y-62500000D02*
X67500000Y-63926700D01*
X70666100Y-67907200D02*
X70666100Y-67500000D01*
X70666100Y-83500000D02*
X71073300Y-83500000D01*
X67500000Y-77073300D02*
X66872600Y-76445900D01*
X67500000Y-78500000D02*
X67500000Y-77073300D01*
X67500000Y-71073300D02*
X70666100Y-67907200D01*
X66872600Y-76445900D02*
X28094100Y-76445900D01*
X67500000Y-72500000D02*
X67500000Y-71073300D01*
X72500000Y-83500000D02*
X71073300Y-83500000D01*
X70666100Y-67092800D02*
X67500000Y-63926700D01*
%TO.N,LINHA*%
X61174200Y-93634200D02*
X58035000Y-93634200D01*
X58035000Y-93634200D02*
X53812100Y-89411300D01*
X52772500Y-87401100D02*
X38481100Y-87401100D01*
X67000000Y-96000000D02*
X63540000Y-96000000D01*
X53812100Y-88440700D02*
X52772500Y-87401100D01*
X63540000Y-96000000D02*
X61174200Y-93634200D01*
X38481100Y-87401100D02*
X29080000Y-78000000D01*
X53812100Y-89411300D02*
X53812100Y-88440700D01*
%TO.N,AUDIO_PWM*%
X40880000Y-70260000D02*
X51260000Y-70260000D01*
X51260000Y-70260000D02*
X55000000Y-74000000D01*
%TO.N,VIDEO*%
X53834900Y-69165100D02*
X55000000Y-68000000D01*
X23100000Y-70260000D02*
X25269500Y-72429500D01*
X35654600Y-72429500D02*
X38919000Y-69165100D01*
X25269500Y-72429500D02*
X35654600Y-72429500D01*
X38919000Y-69165100D02*
X53834900Y-69165100D01*
%TO.N,AGND*%
X58906200Y-56093800D02*
X60000000Y-55000000D01*
X47033800Y-56093800D02*
X58906200Y-56093800D01*
X39240000Y-90000000D02*
X38113300Y-88873300D01*
X30206700Y-88873300D02*
X29080000Y-90000000D01*
X40880000Y-49940000D02*
X47033800Y-56093800D01*
X38113300Y-88873300D02*
X30206700Y-88873300D01*
%TO.N,POT1*%
X39776500Y-47400000D02*
X40880000Y-47400000D01*
X37921000Y-47400000D02*
X39776500Y-47400000D01*
X23951000Y-61370000D02*
X37921000Y-47400000D01*
X26540000Y-90000000D02*
X22016700Y-85476700D01*
X22844300Y-61370000D02*
X23951000Y-61370000D01*
X40408600Y-43782200D02*
X50782200Y-43782200D01*
X22016700Y-62197600D02*
X22844300Y-61370000D01*
X22016700Y-85476700D02*
X22016700Y-62197600D01*
X39776500Y-44414300D02*
X40408600Y-43782200D01*
X39776500Y-47400000D02*
X39776500Y-44414300D01*
X50782200Y-43782200D02*
X55000000Y-48000000D01*
%TO.N,POT2*%
X44860000Y-44860000D02*
X55000000Y-55000000D01*
X36700000Y-90000000D02*
X37873900Y-91173900D01*
X40880000Y-44860000D02*
X44860000Y-44860000D01*
X37873900Y-91173900D02*
X40405800Y-91173900D01*
X40405800Y-91173900D02*
X42541300Y-89038400D01*
%TO.N,+3V3*%
X31906600Y-91126700D02*
X25971600Y-91126700D01*
X25126700Y-90281800D02*
X25126700Y-90000000D01*
X24000000Y-90000000D02*
X25126700Y-90000000D01*
X34160000Y-90000000D02*
X33033300Y-90000000D01*
X25971600Y-91126700D02*
X25126700Y-90281800D01*
X33033300Y-90000000D02*
X31906600Y-91126700D01*
%TD*%
%TA.AperFunction,Conductor*%
%TO.N,GND*%
G36*
X74442539Y-20520185D02*
G01*
X74488294Y-20572989D01*
X74499500Y-20624500D01*
X74499500Y-107375500D01*
X74479815Y-107442539D01*
X74427011Y-107488294D01*
X74375500Y-107499500D01*
X20624500Y-107499500D01*
X20557461Y-107479815D01*
X20511706Y-107427011D01*
X20500500Y-107375500D01*
X20500500Y-103878711D01*
X23149500Y-103878711D01*
X23149500Y-104121288D01*
X23181161Y-104361785D01*
X23243947Y-104596104D01*
X23336773Y-104820205D01*
X23336776Y-104820212D01*
X23458064Y-105030289D01*
X23458066Y-105030292D01*
X23458067Y-105030293D01*
X23605733Y-105222736D01*
X23605739Y-105222743D01*
X23777256Y-105394260D01*
X23777262Y-105394265D01*
X23969711Y-105541936D01*
X24179788Y-105663224D01*
X24403900Y-105756054D01*
X24638211Y-105818838D01*
X24818586Y-105842584D01*
X24878711Y-105850500D01*
X24878712Y-105850500D01*
X25121289Y-105850500D01*
X25169388Y-105844167D01*
X25361789Y-105818838D01*
X25596100Y-105756054D01*
X25820212Y-105663224D01*
X26030289Y-105541936D01*
X26222738Y-105394265D01*
X26394265Y-105222738D01*
X26541936Y-105030289D01*
X26663224Y-104820212D01*
X26756054Y-104596100D01*
X26818838Y-104361789D01*
X26850500Y-104121288D01*
X26850500Y-103878712D01*
X26850500Y-103878711D01*
X45649500Y-103878711D01*
X45649500Y-104121288D01*
X45681161Y-104361785D01*
X45743947Y-104596104D01*
X45836773Y-104820205D01*
X45836776Y-104820212D01*
X45958064Y-105030289D01*
X45958066Y-105030292D01*
X45958067Y-105030293D01*
X46105733Y-105222736D01*
X46105739Y-105222743D01*
X46277256Y-105394260D01*
X46277262Y-105394265D01*
X46469711Y-105541936D01*
X46679788Y-105663224D01*
X46903900Y-105756054D01*
X47138211Y-105818838D01*
X47318586Y-105842584D01*
X47378711Y-105850500D01*
X47378712Y-105850500D01*
X47621289Y-105850500D01*
X47669388Y-105844167D01*
X47861789Y-105818838D01*
X48096100Y-105756054D01*
X48320212Y-105663224D01*
X48530289Y-105541936D01*
X48722738Y-105394265D01*
X48894265Y-105222738D01*
X49041936Y-105030289D01*
X49163224Y-104820212D01*
X49256054Y-104596100D01*
X49318838Y-104361789D01*
X49350500Y-104121288D01*
X49350500Y-103878712D01*
X49350500Y-103878711D01*
X68149500Y-103878711D01*
X68149500Y-104121288D01*
X68181161Y-104361785D01*
X68243947Y-104596104D01*
X68336773Y-104820205D01*
X68336776Y-104820212D01*
X68458064Y-105030289D01*
X68458066Y-105030292D01*
X68458067Y-105030293D01*
X68605733Y-105222736D01*
X68605739Y-105222743D01*
X68777256Y-105394260D01*
X68777262Y-105394265D01*
X68969711Y-105541936D01*
X69179788Y-105663224D01*
X69403900Y-105756054D01*
X69638211Y-105818838D01*
X69818586Y-105842584D01*
X69878711Y-105850500D01*
X69878712Y-105850500D01*
X70121289Y-105850500D01*
X70169388Y-105844167D01*
X70361789Y-105818838D01*
X70596100Y-105756054D01*
X70820212Y-105663224D01*
X71030289Y-105541936D01*
X71222738Y-105394265D01*
X71394265Y-105222738D01*
X71541936Y-105030289D01*
X71663224Y-104820212D01*
X71756054Y-104596100D01*
X71818838Y-104361789D01*
X71850500Y-104121288D01*
X71850500Y-103878712D01*
X71818838Y-103638211D01*
X71756054Y-103403900D01*
X71663224Y-103179788D01*
X71541936Y-102969711D01*
X71394265Y-102777262D01*
X71394260Y-102777256D01*
X71222743Y-102605739D01*
X71222736Y-102605733D01*
X71030293Y-102458067D01*
X71030292Y-102458066D01*
X71030289Y-102458064D01*
X70820212Y-102336776D01*
X70820205Y-102336773D01*
X70596104Y-102243947D01*
X70478944Y-102212554D01*
X70361789Y-102181162D01*
X70361788Y-102181161D01*
X70361785Y-102181161D01*
X70121289Y-102149500D01*
X70121288Y-102149500D01*
X69878712Y-102149500D01*
X69878711Y-102149500D01*
X69638214Y-102181161D01*
X69403895Y-102243947D01*
X69179794Y-102336773D01*
X69179785Y-102336777D01*
X68969706Y-102458067D01*
X68777263Y-102605733D01*
X68777256Y-102605739D01*
X68605739Y-102777256D01*
X68605733Y-102777263D01*
X68458067Y-102969706D01*
X68336777Y-103179785D01*
X68336773Y-103179794D01*
X68243947Y-103403895D01*
X68181161Y-103638214D01*
X68149500Y-103878711D01*
X49350500Y-103878711D01*
X49318838Y-103638211D01*
X49256054Y-103403900D01*
X49163224Y-103179788D01*
X49041936Y-102969711D01*
X48894265Y-102777262D01*
X48894260Y-102777256D01*
X48722743Y-102605739D01*
X48722736Y-102605733D01*
X48530293Y-102458067D01*
X48530292Y-102458066D01*
X48530289Y-102458064D01*
X48320212Y-102336776D01*
X48320205Y-102336773D01*
X48096104Y-102243947D01*
X47978944Y-102212554D01*
X47861789Y-102181162D01*
X47861788Y-102181161D01*
X47861785Y-102181161D01*
X47621289Y-102149500D01*
X47621288Y-102149500D01*
X47378712Y-102149500D01*
X47378711Y-102149500D01*
X47138214Y-102181161D01*
X46903895Y-102243947D01*
X46679794Y-102336773D01*
X46679785Y-102336777D01*
X46469706Y-102458067D01*
X46277263Y-102605733D01*
X46277256Y-102605739D01*
X46105739Y-102777256D01*
X46105733Y-102777263D01*
X45958067Y-102969706D01*
X45836777Y-103179785D01*
X45836773Y-103179794D01*
X45743947Y-103403895D01*
X45681161Y-103638214D01*
X45649500Y-103878711D01*
X26850500Y-103878711D01*
X26818838Y-103638211D01*
X26756054Y-103403900D01*
X26663224Y-103179788D01*
X26541936Y-102969711D01*
X26394265Y-102777262D01*
X26394260Y-102777256D01*
X26222743Y-102605739D01*
X26222736Y-102605733D01*
X26030293Y-102458067D01*
X26030292Y-102458066D01*
X26030289Y-102458064D01*
X25820212Y-102336776D01*
X25820205Y-102336773D01*
X25596104Y-102243947D01*
X25478944Y-102212554D01*
X25361789Y-102181162D01*
X25361788Y-102181161D01*
X25361785Y-102181161D01*
X25121289Y-102149500D01*
X25121288Y-102149500D01*
X24878712Y-102149500D01*
X24878711Y-102149500D01*
X24638214Y-102181161D01*
X24403895Y-102243947D01*
X24179794Y-102336773D01*
X24179785Y-102336777D01*
X23969706Y-102458067D01*
X23777263Y-102605733D01*
X23777256Y-102605739D01*
X23605739Y-102777256D01*
X23605733Y-102777263D01*
X23458067Y-102969706D01*
X23336777Y-103179785D01*
X23336773Y-103179794D01*
X23243947Y-103403895D01*
X23181161Y-103638214D01*
X23149500Y-103878711D01*
X20500500Y-103878711D01*
X20500500Y-101130247D01*
X32449500Y-101130247D01*
X32449500Y-102869752D01*
X32461131Y-102928229D01*
X32461132Y-102928230D01*
X32505447Y-102994552D01*
X32571769Y-103038867D01*
X32571770Y-103038868D01*
X32630247Y-103050499D01*
X32630250Y-103050500D01*
X32630252Y-103050500D01*
X34369750Y-103050500D01*
X34369751Y-103050499D01*
X34384568Y-103047552D01*
X34428229Y-103038868D01*
X34428229Y-103038867D01*
X34428231Y-103038867D01*
X34494552Y-102994552D01*
X34538867Y-102928231D01*
X34542185Y-102911549D01*
X34550276Y-102870879D01*
X34550499Y-102869752D01*
X34550500Y-102869750D01*
X34550500Y-101909493D01*
X34890000Y-101909493D01*
X34890000Y-102090506D01*
X34918317Y-102269293D01*
X34974251Y-102441444D01*
X34974252Y-102441447D01*
X35056434Y-102602734D01*
X35097667Y-102659487D01*
X35097668Y-102659487D01*
X35571980Y-102185176D01*
X35574075Y-102192993D01*
X35639901Y-102307007D01*
X35732993Y-102400099D01*
X35847007Y-102465925D01*
X35854822Y-102468019D01*
X35380510Y-102942330D01*
X35380511Y-102942331D01*
X35437265Y-102983565D01*
X35598552Y-103065747D01*
X35598555Y-103065748D01*
X35770706Y-103121682D01*
X35949494Y-103150000D01*
X36130506Y-103150000D01*
X36309293Y-103121682D01*
X36481444Y-103065748D01*
X36481447Y-103065747D01*
X36642730Y-102983568D01*
X36699487Y-102942330D01*
X36699488Y-102942329D01*
X36225178Y-102468019D01*
X36232993Y-102465925D01*
X36347007Y-102400099D01*
X36440099Y-102307007D01*
X36505925Y-102192993D01*
X36508019Y-102185177D01*
X36982329Y-102659488D01*
X36982330Y-102659487D01*
X37023568Y-102602730D01*
X37105747Y-102441447D01*
X37105748Y-102441444D01*
X37161682Y-102269293D01*
X37188727Y-102098543D01*
X53999499Y-102098543D01*
X54037947Y-102291829D01*
X54037950Y-102291839D01*
X54113364Y-102473907D01*
X54113371Y-102473920D01*
X54222860Y-102637781D01*
X54222863Y-102637785D01*
X54362214Y-102777136D01*
X54362218Y-102777139D01*
X54526079Y-102886628D01*
X54526092Y-102886635D01*
X54660556Y-102942331D01*
X54708165Y-102962051D01*
X54708169Y-102962051D01*
X54708170Y-102962052D01*
X54901456Y-103000500D01*
X54901459Y-103000500D01*
X55098543Y-103000500D01*
X55253351Y-102969706D01*
X55291835Y-102962051D01*
X55473914Y-102886632D01*
X55637782Y-102777139D01*
X55777139Y-102637782D01*
X55886632Y-102473914D01*
X55962051Y-102291835D01*
X55981712Y-102192993D01*
X56000500Y-102098543D01*
X56539499Y-102098543D01*
X56577947Y-102291829D01*
X56577950Y-102291839D01*
X56653364Y-102473907D01*
X56653371Y-102473920D01*
X56762860Y-102637781D01*
X56762863Y-102637785D01*
X56902214Y-102777136D01*
X56902218Y-102777139D01*
X57066079Y-102886628D01*
X57066092Y-102886635D01*
X57200556Y-102942331D01*
X57248165Y-102962051D01*
X57248169Y-102962051D01*
X57248170Y-102962052D01*
X57441456Y-103000500D01*
X57441459Y-103000500D01*
X57638543Y-103000500D01*
X57793351Y-102969706D01*
X57831835Y-102962051D01*
X58013914Y-102886632D01*
X58177782Y-102777139D01*
X58317139Y-102637782D01*
X58426632Y-102473914D01*
X58502051Y-102291835D01*
X58521712Y-102192993D01*
X58540500Y-102098543D01*
X58540500Y-101901456D01*
X58502052Y-101708170D01*
X58502051Y-101708169D01*
X58502051Y-101708165D01*
X58440080Y-101558552D01*
X58426635Y-101526092D01*
X58426628Y-101526079D01*
X58317139Y-101362218D01*
X58317136Y-101362214D01*
X58177785Y-101222863D01*
X58177781Y-101222860D01*
X58013920Y-101113371D01*
X58013907Y-101113364D01*
X57831839Y-101037950D01*
X57831829Y-101037947D01*
X57638543Y-100999500D01*
X57638541Y-100999500D01*
X57441459Y-100999500D01*
X57441457Y-100999500D01*
X57248170Y-101037947D01*
X57248160Y-101037950D01*
X57066092Y-101113364D01*
X57066079Y-101113371D01*
X56902218Y-101222860D01*
X56902214Y-101222863D01*
X56762863Y-101362214D01*
X56762860Y-101362218D01*
X56653371Y-101526079D01*
X56653364Y-101526092D01*
X56577950Y-101708160D01*
X56577947Y-101708170D01*
X56539500Y-101901456D01*
X56539500Y-101901459D01*
X56539500Y-102098541D01*
X56539500Y-102098543D01*
X56539499Y-102098543D01*
X56000500Y-102098543D01*
X56000500Y-101901456D01*
X55962052Y-101708170D01*
X55962051Y-101708169D01*
X55962051Y-101708165D01*
X55900080Y-101558552D01*
X55886635Y-101526092D01*
X55886628Y-101526079D01*
X55777139Y-101362218D01*
X55777136Y-101362214D01*
X55637785Y-101222863D01*
X55637781Y-101222860D01*
X55473920Y-101113371D01*
X55473907Y-101113364D01*
X55291839Y-101037950D01*
X55291829Y-101037947D01*
X55098543Y-100999500D01*
X55098541Y-100999500D01*
X54901459Y-100999500D01*
X54901457Y-100999500D01*
X54708170Y-101037947D01*
X54708160Y-101037950D01*
X54526092Y-101113364D01*
X54526079Y-101113371D01*
X54362218Y-101222860D01*
X54362214Y-101222863D01*
X54222863Y-101362214D01*
X54222860Y-101362218D01*
X54113371Y-101526079D01*
X54113364Y-101526092D01*
X54037950Y-101708160D01*
X54037947Y-101708170D01*
X53999500Y-101901456D01*
X53999500Y-101901459D01*
X53999500Y-102098541D01*
X53999500Y-102098543D01*
X53999499Y-102098543D01*
X37188727Y-102098543D01*
X37190000Y-102090506D01*
X37190000Y-101909497D01*
X37189999Y-101909490D01*
X37161682Y-101730706D01*
X37105748Y-101558555D01*
X37105747Y-101558552D01*
X37023565Y-101397265D01*
X36982331Y-101340511D01*
X36982330Y-101340510D01*
X36508018Y-101814821D01*
X36505925Y-101807007D01*
X36440099Y-101692993D01*
X36347007Y-101599901D01*
X36232993Y-101534075D01*
X36225176Y-101531980D01*
X36699487Y-101057668D01*
X36699487Y-101057667D01*
X36642734Y-101016434D01*
X36481447Y-100934252D01*
X36481444Y-100934251D01*
X36309293Y-100878317D01*
X36130506Y-100850000D01*
X35949494Y-100850000D01*
X35770706Y-100878317D01*
X35598555Y-100934251D01*
X35598552Y-100934252D01*
X35437270Y-101016431D01*
X35437268Y-101016432D01*
X35380511Y-101057667D01*
X35380511Y-101057668D01*
X35854823Y-101531980D01*
X35847007Y-101534075D01*
X35732993Y-101599901D01*
X35639901Y-101692993D01*
X35574075Y-101807007D01*
X35571980Y-101814823D01*
X35097668Y-101340511D01*
X35097667Y-101340511D01*
X35056432Y-101397268D01*
X35056431Y-101397270D01*
X34974252Y-101558552D01*
X34974251Y-101558555D01*
X34918317Y-101730706D01*
X34890000Y-101909493D01*
X34550500Y-101909493D01*
X34550500Y-101130251D01*
X34550275Y-101129120D01*
X34550275Y-101129118D01*
X34538868Y-101071770D01*
X34538867Y-101071769D01*
X34494552Y-101005447D01*
X34428230Y-100961132D01*
X34428229Y-100961131D01*
X34369752Y-100949500D01*
X34369748Y-100949500D01*
X32630252Y-100949500D01*
X32630247Y-100949500D01*
X32571770Y-100961131D01*
X32571769Y-100961132D01*
X32505447Y-101005447D01*
X32461132Y-101071769D01*
X32461131Y-101071770D01*
X32449500Y-101130247D01*
X20500500Y-101130247D01*
X20500500Y-96098543D01*
X53999499Y-96098543D01*
X54037947Y-96291829D01*
X54037950Y-96291839D01*
X54113364Y-96473907D01*
X54113371Y-96473920D01*
X54222860Y-96637781D01*
X54222863Y-96637785D01*
X54362214Y-96777136D01*
X54362218Y-96777139D01*
X54526079Y-96886628D01*
X54526092Y-96886635D01*
X54656867Y-96940803D01*
X54708165Y-96962051D01*
X54708169Y-96962051D01*
X54708170Y-96962052D01*
X54901456Y-97000500D01*
X54901459Y-97000500D01*
X55098543Y-97000500D01*
X55228582Y-96974632D01*
X55291835Y-96962051D01*
X55473914Y-96886632D01*
X55637782Y-96777139D01*
X55777139Y-96637782D01*
X55886632Y-96473914D01*
X55962051Y-96291835D01*
X56000500Y-96098541D01*
X56000500Y-95901459D01*
X56000500Y-95901456D01*
X55962052Y-95708170D01*
X55962051Y-95708169D01*
X55962051Y-95708165D01*
X55932281Y-95636295D01*
X55924813Y-95566828D01*
X55956088Y-95504348D01*
X55959102Y-95501223D01*
X56203309Y-95257016D01*
X56264631Y-95223534D01*
X56290989Y-95220700D01*
X56625432Y-95220700D01*
X56692471Y-95240385D01*
X56738226Y-95293189D01*
X56748170Y-95362347D01*
X56728534Y-95413591D01*
X56653371Y-95526079D01*
X56653364Y-95526092D01*
X56577950Y-95708160D01*
X56577947Y-95708170D01*
X56539500Y-95901456D01*
X56539500Y-95901459D01*
X56539500Y-96098541D01*
X56539500Y-96098543D01*
X56539499Y-96098543D01*
X56577947Y-96291829D01*
X56577950Y-96291839D01*
X56653364Y-96473907D01*
X56653371Y-96473920D01*
X56762860Y-96637781D01*
X56762863Y-96637785D01*
X56902214Y-96777136D01*
X56902218Y-96777139D01*
X57066079Y-96886628D01*
X57066092Y-96886635D01*
X57196867Y-96940803D01*
X57248165Y-96962051D01*
X57248169Y-96962051D01*
X57248170Y-96962052D01*
X57441456Y-97000500D01*
X57441459Y-97000500D01*
X57638543Y-97000500D01*
X57768582Y-96974632D01*
X57831835Y-96962051D01*
X58013914Y-96886632D01*
X58177782Y-96777139D01*
X58317139Y-96637782D01*
X58426632Y-96473914D01*
X58502051Y-96291835D01*
X58540500Y-96098541D01*
X58540500Y-95901459D01*
X58540500Y-95901456D01*
X58502052Y-95708170D01*
X58502051Y-95708169D01*
X58502051Y-95708165D01*
X58479953Y-95654815D01*
X58426635Y-95526092D01*
X58426628Y-95526079D01*
X58351466Y-95413591D01*
X58330588Y-95346913D01*
X58349073Y-95279533D01*
X58401052Y-95232843D01*
X58454568Y-95220700D01*
X59709011Y-95220700D01*
X59776050Y-95240385D01*
X59796692Y-95257019D01*
X60040837Y-95501164D01*
X60074322Y-95562487D01*
X60069338Y-95632179D01*
X60067737Y-95636247D01*
X60037949Y-95708165D01*
X60037947Y-95708171D01*
X59999500Y-95901456D01*
X59999500Y-95901459D01*
X59999500Y-96098541D01*
X59999500Y-96098543D01*
X59999499Y-96098543D01*
X60037947Y-96291829D01*
X60037950Y-96291839D01*
X60113364Y-96473907D01*
X60113371Y-96473920D01*
X60222860Y-96637781D01*
X60222863Y-96637785D01*
X60362214Y-96777136D01*
X60362218Y-96777139D01*
X60526079Y-96886628D01*
X60526092Y-96886635D01*
X60656867Y-96940803D01*
X60708165Y-96962051D01*
X60708169Y-96962051D01*
X60708170Y-96962052D01*
X60901456Y-97000500D01*
X60901459Y-97000500D01*
X61098543Y-97000500D01*
X61228582Y-96974632D01*
X61291835Y-96962051D01*
X61473914Y-96886632D01*
X61637782Y-96777139D01*
X61777139Y-96637782D01*
X61886632Y-96473914D01*
X61962051Y-96291835D01*
X62000500Y-96098541D01*
X62000500Y-95901459D01*
X62000500Y-95901456D01*
X61962052Y-95708170D01*
X61962051Y-95708169D01*
X61962051Y-95708165D01*
X61939953Y-95654815D01*
X61886635Y-95526092D01*
X61886628Y-95526079D01*
X61777139Y-95362218D01*
X61777136Y-95362214D01*
X61637785Y-95222863D01*
X61637781Y-95222860D01*
X61473920Y-95113371D01*
X61473907Y-95113364D01*
X61291839Y-95037950D01*
X61291829Y-95037947D01*
X61098543Y-94999500D01*
X61098541Y-94999500D01*
X60901459Y-94999500D01*
X60901457Y-94999500D01*
X60708171Y-95037947D01*
X60708167Y-95037948D01*
X60708165Y-95037949D01*
X60636293Y-95067718D01*
X60566827Y-95075186D01*
X60504348Y-95043910D01*
X60501164Y-95040837D01*
X60095064Y-94634737D01*
X60095062Y-94634735D01*
X60057950Y-94613308D01*
X60020840Y-94591882D01*
X59979446Y-94580791D01*
X59938053Y-94569700D01*
X56147653Y-94569700D01*
X56061947Y-94569700D01*
X55979159Y-94591882D01*
X55904938Y-94634735D01*
X55904935Y-94634737D01*
X55498835Y-95040836D01*
X55437512Y-95074321D01*
X55367820Y-95069337D01*
X55363703Y-95067717D01*
X55343128Y-95059195D01*
X55291835Y-95037949D01*
X55291831Y-95037948D01*
X55291828Y-95037947D01*
X55098543Y-94999500D01*
X55098541Y-94999500D01*
X54901459Y-94999500D01*
X54901457Y-94999500D01*
X54708170Y-95037947D01*
X54708160Y-95037950D01*
X54526092Y-95113364D01*
X54526079Y-95113371D01*
X54362218Y-95222860D01*
X54362214Y-95222863D01*
X54222863Y-95362214D01*
X54222860Y-95362218D01*
X54113371Y-95526079D01*
X54113364Y-95526092D01*
X54037950Y-95708160D01*
X54037947Y-95708170D01*
X53999500Y-95901456D01*
X53999500Y-95901459D01*
X53999500Y-96098541D01*
X53999500Y-96098543D01*
X53999499Y-96098543D01*
X20500500Y-96098543D01*
X20500500Y-62154747D01*
X21691200Y-62154747D01*
X21691200Y-85519552D01*
X21713382Y-85602340D01*
X21734808Y-85639450D01*
X21756235Y-85676562D01*
X21756237Y-85676564D01*
X24817492Y-88737819D01*
X24850977Y-88799142D01*
X24845993Y-88868834D01*
X24804121Y-88924767D01*
X24738657Y-88949184D01*
X24729811Y-88949500D01*
X23130247Y-88949500D01*
X23071770Y-88961131D01*
X23071769Y-88961132D01*
X23005447Y-89005447D01*
X22961132Y-89071769D01*
X22961131Y-89071770D01*
X22949500Y-89130247D01*
X22949500Y-90869752D01*
X22961131Y-90928229D01*
X22961132Y-90928230D01*
X23005447Y-90994552D01*
X23071769Y-91038867D01*
X23071770Y-91038868D01*
X23130247Y-91050499D01*
X23130250Y-91050500D01*
X23130252Y-91050500D01*
X24869750Y-91050500D01*
X24869751Y-91050499D01*
X24884568Y-91047552D01*
X24928229Y-91038868D01*
X24928229Y-91038867D01*
X24928231Y-91038867D01*
X24994552Y-90994552D01*
X25038867Y-90928231D01*
X25039057Y-90927276D01*
X25040046Y-90925383D01*
X25043542Y-90916946D01*
X25044296Y-90917258D01*
X25071441Y-90865364D01*
X25132155Y-90830788D01*
X25201925Y-90834526D01*
X25248356Y-90863783D01*
X25771738Y-91387165D01*
X25845961Y-91430018D01*
X25928747Y-91452200D01*
X25928749Y-91452200D01*
X31949451Y-91452200D01*
X31949453Y-91452200D01*
X32032239Y-91430018D01*
X32106462Y-91387165D01*
X32897819Y-90595808D01*
X32959142Y-90562323D01*
X33028834Y-90567307D01*
X33084767Y-90609179D01*
X33109184Y-90674643D01*
X33109500Y-90683489D01*
X33109500Y-90869752D01*
X33121131Y-90928229D01*
X33121132Y-90928230D01*
X33165447Y-90994552D01*
X33231769Y-91038867D01*
X33231770Y-91038868D01*
X33290247Y-91050499D01*
X33290250Y-91050500D01*
X33290252Y-91050500D01*
X35029750Y-91050500D01*
X35029751Y-91050499D01*
X35044568Y-91047552D01*
X35088229Y-91038868D01*
X35088229Y-91038867D01*
X35088231Y-91038867D01*
X35154552Y-90994552D01*
X35198867Y-90928231D01*
X35198867Y-90928229D01*
X35198868Y-90928229D01*
X35210499Y-90869752D01*
X35210500Y-90869750D01*
X35210500Y-89322800D01*
X35230185Y-89255761D01*
X35282989Y-89210006D01*
X35334500Y-89198800D01*
X35739931Y-89198800D01*
X35806970Y-89218485D01*
X35852725Y-89271289D01*
X35862669Y-89340447D01*
X35843034Y-89391690D01*
X35769058Y-89502403D01*
X35689870Y-89693579D01*
X35689868Y-89693587D01*
X35649500Y-89896530D01*
X35649500Y-90103469D01*
X35689868Y-90306412D01*
X35689870Y-90306420D01*
X35731154Y-90406089D01*
X35769059Y-90497598D01*
X35795456Y-90537104D01*
X35884024Y-90669657D01*
X36030342Y-90815975D01*
X36030345Y-90815977D01*
X36202402Y-90930941D01*
X36393580Y-91010130D01*
X36538052Y-91038867D01*
X36596530Y-91050499D01*
X36596534Y-91050500D01*
X36596535Y-91050500D01*
X36803466Y-91050500D01*
X36803467Y-91050499D01*
X37006420Y-91010130D01*
X37101970Y-90970550D01*
X37171439Y-90963082D01*
X37233918Y-90994357D01*
X37237104Y-90997431D01*
X37613434Y-91373761D01*
X37613435Y-91373762D01*
X37674038Y-91434365D01*
X37674040Y-91434366D01*
X37674044Y-91434369D01*
X37704929Y-91452200D01*
X37748262Y-91477218D01*
X37831047Y-91499400D01*
X37831049Y-91499400D01*
X40448651Y-91499400D01*
X40448653Y-91499400D01*
X40531439Y-91477218D01*
X40605662Y-91434365D01*
X42414807Y-89625218D01*
X42476130Y-89591734D01*
X42502488Y-89588900D01*
X42613772Y-89588900D01*
X42613775Y-89588900D01*
X42753785Y-89551384D01*
X42879315Y-89478909D01*
X42981809Y-89376415D01*
X43054284Y-89250885D01*
X43091800Y-89110875D01*
X43091800Y-88965925D01*
X43054284Y-88825915D01*
X42981809Y-88700385D01*
X42879315Y-88597891D01*
X42879313Y-88597890D01*
X42879311Y-88597888D01*
X42753788Y-88525417D01*
X42753789Y-88525417D01*
X42742306Y-88522340D01*
X42613775Y-88487900D01*
X42468825Y-88487900D01*
X42340293Y-88522340D01*
X42328811Y-88525417D01*
X42203288Y-88597888D01*
X42203282Y-88597893D01*
X42100793Y-88700382D01*
X42100788Y-88700388D01*
X42028317Y-88825911D01*
X42028316Y-88825915D01*
X41990800Y-88965925D01*
X41990800Y-88965927D01*
X41990800Y-89077210D01*
X41971115Y-89144249D01*
X41954481Y-89164891D01*
X40307292Y-90812081D01*
X40280364Y-90826784D01*
X40254546Y-90843377D01*
X40248345Y-90844268D01*
X40245969Y-90845566D01*
X40219611Y-90848400D01*
X40168531Y-90848400D01*
X40101492Y-90828715D01*
X40055737Y-90775911D01*
X40045793Y-90706753D01*
X40065429Y-90655510D01*
X40170940Y-90497600D01*
X40170940Y-90497599D01*
X40170941Y-90497598D01*
X40250130Y-90306420D01*
X40290500Y-90103465D01*
X40290500Y-89896535D01*
X40250130Y-89693580D01*
X40170941Y-89502402D01*
X40055977Y-89330345D01*
X40055975Y-89330342D01*
X39909657Y-89184024D01*
X39821069Y-89124832D01*
X39737598Y-89069059D01*
X39718516Y-89061155D01*
X39546420Y-88989870D01*
X39546412Y-88989868D01*
X39343469Y-88949500D01*
X39343465Y-88949500D01*
X39136535Y-88949500D01*
X39136530Y-88949500D01*
X38933587Y-88989868D01*
X38933575Y-88989871D01*
X38838028Y-89029448D01*
X38768559Y-89036917D01*
X38706080Y-89005641D01*
X38702895Y-89002568D01*
X38313164Y-88612837D01*
X38313162Y-88612835D01*
X38265524Y-88585331D01*
X38238940Y-88569982D01*
X38197546Y-88558891D01*
X38156153Y-88547800D01*
X30163847Y-88547800D01*
X30081060Y-88569982D01*
X30054479Y-88585330D01*
X30054477Y-88585330D01*
X30006844Y-88612830D01*
X30006836Y-88612836D01*
X29617103Y-89002568D01*
X29555780Y-89036053D01*
X29486088Y-89031069D01*
X29481981Y-89029452D01*
X29386420Y-88989870D01*
X29386412Y-88989868D01*
X29183469Y-88949500D01*
X29183465Y-88949500D01*
X28976535Y-88949500D01*
X28976530Y-88949500D01*
X28773587Y-88989868D01*
X28773579Y-88989870D01*
X28582403Y-89069058D01*
X28410342Y-89184024D01*
X28264024Y-89330342D01*
X28149058Y-89502403D01*
X28069870Y-89693579D01*
X28069868Y-89693587D01*
X28029500Y-89896530D01*
X28029500Y-90103469D01*
X28069868Y-90306412D01*
X28069870Y-90306420D01*
X28111154Y-90406089D01*
X28149059Y-90497598D01*
X28223034Y-90608310D01*
X28243911Y-90674987D01*
X28225426Y-90742367D01*
X28173447Y-90789057D01*
X28119931Y-90801200D01*
X27500069Y-90801200D01*
X27433030Y-90781515D01*
X27387275Y-90728711D01*
X27377331Y-90659553D01*
X27396966Y-90608310D01*
X27470941Y-90497598D01*
X27550130Y-90306420D01*
X27590500Y-90103465D01*
X27590500Y-89896535D01*
X27550130Y-89693580D01*
X27470941Y-89502402D01*
X27355977Y-89330345D01*
X27355975Y-89330342D01*
X27209657Y-89184024D01*
X27121069Y-89124832D01*
X27037598Y-89069059D01*
X27018516Y-89061155D01*
X26846420Y-88989870D01*
X26846412Y-88989868D01*
X26643469Y-88949500D01*
X26643465Y-88949500D01*
X26436535Y-88949500D01*
X26436530Y-88949500D01*
X26233587Y-88989868D01*
X26233575Y-88989871D01*
X26138028Y-89029448D01*
X26068559Y-89036917D01*
X26006080Y-89005641D01*
X26002895Y-89002568D01*
X22378519Y-85378192D01*
X22345034Y-85316869D01*
X22342200Y-85290511D01*
X22342200Y-71188933D01*
X22361885Y-71121894D01*
X22414689Y-71076139D01*
X22483847Y-71066195D01*
X22535090Y-71085830D01*
X22626086Y-71146632D01*
X22626088Y-71146633D01*
X22626092Y-71146635D01*
X22801190Y-71219162D01*
X22808165Y-71222051D01*
X22808169Y-71222051D01*
X22808170Y-71222052D01*
X23001456Y-71260500D01*
X23001459Y-71260500D01*
X23198543Y-71260500D01*
X23328582Y-71234632D01*
X23391835Y-71222051D01*
X23463705Y-71192281D01*
X23533169Y-71184813D01*
X23595649Y-71216087D01*
X23598835Y-71219162D01*
X25009034Y-72629361D01*
X25009035Y-72629362D01*
X25069638Y-72689965D01*
X25069640Y-72689966D01*
X25069644Y-72689969D01*
X25143855Y-72732814D01*
X25143862Y-72732818D01*
X25226647Y-72755000D01*
X25226649Y-72755000D01*
X35697451Y-72755000D01*
X35697453Y-72755000D01*
X35780239Y-72732818D01*
X35854462Y-72689965D01*
X39017507Y-69526918D01*
X39078830Y-69493434D01*
X39105188Y-69490600D01*
X39958817Y-69490600D01*
X40025856Y-69510285D01*
X40071611Y-69563089D01*
X40081555Y-69632247D01*
X40061919Y-69683491D01*
X39993371Y-69786079D01*
X39993364Y-69786092D01*
X39917950Y-69968160D01*
X39917947Y-69968170D01*
X39879500Y-70161456D01*
X39879500Y-70161459D01*
X39879500Y-70358541D01*
X39879500Y-70358543D01*
X39879499Y-70358543D01*
X39917947Y-70551829D01*
X39917950Y-70551839D01*
X39993364Y-70733907D01*
X39993371Y-70733920D01*
X40102860Y-70897781D01*
X40102863Y-70897785D01*
X40242214Y-71037136D01*
X40242218Y-71037139D01*
X40406079Y-71146628D01*
X40406092Y-71146635D01*
X40581190Y-71219162D01*
X40588165Y-71222051D01*
X40588169Y-71222051D01*
X40588170Y-71222052D01*
X40781456Y-71260500D01*
X40781459Y-71260500D01*
X40978543Y-71260500D01*
X41108582Y-71234632D01*
X41171835Y-71222051D01*
X41353914Y-71146632D01*
X41517782Y-71037139D01*
X41657139Y-70897782D01*
X41766632Y-70733914D01*
X41766635Y-70733907D01*
X41796400Y-70662048D01*
X41840240Y-70607644D01*
X41906534Y-70585579D01*
X41910961Y-70585500D01*
X51073811Y-70585500D01*
X51140850Y-70605185D01*
X51161492Y-70621819D01*
X54040837Y-73501164D01*
X54074322Y-73562487D01*
X54069338Y-73632179D01*
X54067737Y-73636247D01*
X54037949Y-73708165D01*
X54037947Y-73708171D01*
X53999500Y-73901456D01*
X53999500Y-73901459D01*
X53999500Y-74098541D01*
X53999500Y-74098543D01*
X53999499Y-74098543D01*
X54037947Y-74291829D01*
X54037950Y-74291839D01*
X54113364Y-74473907D01*
X54113371Y-74473920D01*
X54222860Y-74637781D01*
X54222863Y-74637785D01*
X54362214Y-74777136D01*
X54362218Y-74777139D01*
X54526079Y-74886628D01*
X54526092Y-74886635D01*
X54708160Y-74962049D01*
X54708165Y-74962051D01*
X54842259Y-74988724D01*
X54904170Y-75021108D01*
X54938744Y-75081824D01*
X54935005Y-75151594D01*
X54905749Y-75198022D01*
X54562792Y-75540981D01*
X54501469Y-75574466D01*
X54475111Y-75577300D01*
X26992665Y-75577300D01*
X26992649Y-75577299D01*
X26985053Y-75577299D01*
X26899347Y-75577299D01*
X26844156Y-75592087D01*
X26816560Y-75599482D01*
X26788374Y-75615755D01*
X26788371Y-75615757D01*
X26779450Y-75620908D01*
X26742338Y-75642335D01*
X26681735Y-75702938D01*
X26681733Y-75702940D01*
X26677529Y-75707143D01*
X26677524Y-75707148D01*
X25248372Y-77136300D01*
X25187049Y-77169785D01*
X25117357Y-77164801D01*
X25061424Y-77122929D01*
X25043627Y-77083018D01*
X25043542Y-77083054D01*
X25042220Y-77079863D01*
X25039073Y-77072805D01*
X25038867Y-77071769D01*
X25038866Y-77071767D01*
X24994552Y-77005447D01*
X24928230Y-76961132D01*
X24928229Y-76961131D01*
X24869752Y-76949500D01*
X24869748Y-76949500D01*
X23130252Y-76949500D01*
X23130247Y-76949500D01*
X23071770Y-76961131D01*
X23071769Y-76961132D01*
X23005447Y-77005447D01*
X22961132Y-77071769D01*
X22961131Y-77071770D01*
X22949500Y-77130247D01*
X22949500Y-78869752D01*
X22961131Y-78928229D01*
X22961132Y-78928230D01*
X23005447Y-78994552D01*
X23071769Y-79038867D01*
X23071770Y-79038868D01*
X23130247Y-79050499D01*
X23130250Y-79050500D01*
X23130252Y-79050500D01*
X24869750Y-79050500D01*
X24869751Y-79050499D01*
X24884568Y-79047552D01*
X24928229Y-79038868D01*
X24928229Y-79038867D01*
X24928231Y-79038867D01*
X24994552Y-78994552D01*
X25038867Y-78928231D01*
X25038867Y-78928229D01*
X25038868Y-78928229D01*
X25050499Y-78869752D01*
X25050500Y-78869750D01*
X25050500Y-78449500D01*
X25070185Y-78382461D01*
X25122989Y-78336706D01*
X25161719Y-78328280D01*
X25161493Y-78326561D01*
X25169544Y-78325500D01*
X25169553Y-78325500D01*
X25252338Y-78303318D01*
X25326562Y-78260465D01*
X25326567Y-78260459D01*
X25333007Y-78255519D01*
X25334006Y-78256821D01*
X25386948Y-78227906D01*
X25456641Y-78232883D01*
X25512578Y-78274748D01*
X25527880Y-78301616D01*
X25609057Y-78497596D01*
X25724024Y-78669657D01*
X25870342Y-78815975D01*
X25870345Y-78815977D01*
X26042402Y-78930941D01*
X26233580Y-79010130D01*
X26378052Y-79038867D01*
X26436530Y-79050499D01*
X26436534Y-79050500D01*
X26436535Y-79050500D01*
X26643466Y-79050500D01*
X26643467Y-79050499D01*
X26846420Y-79010130D01*
X27037598Y-78930941D01*
X27209655Y-78815977D01*
X27355977Y-78669655D01*
X27470941Y-78497598D01*
X27550130Y-78306420D01*
X27590500Y-78103465D01*
X27590500Y-77896535D01*
X27550130Y-77693580D01*
X27510550Y-77598028D01*
X27503082Y-77528560D01*
X27534357Y-77466080D01*
X27537431Y-77462895D01*
X27853939Y-77146388D01*
X28192608Y-76807719D01*
X28253931Y-76774234D01*
X28280289Y-76771400D01*
X28677624Y-76771400D01*
X28744663Y-76791085D01*
X28790418Y-76843889D01*
X28800362Y-76913047D01*
X28771337Y-76976603D01*
X28725077Y-77009960D01*
X28679168Y-77028976D01*
X28582403Y-77069058D01*
X28410342Y-77184024D01*
X28264024Y-77330342D01*
X28149058Y-77502403D01*
X28069870Y-77693579D01*
X28069868Y-77693587D01*
X28029500Y-77896530D01*
X28029500Y-78103469D01*
X28069868Y-78306412D01*
X28069870Y-78306420D01*
X28149058Y-78497596D01*
X28264024Y-78669657D01*
X28410342Y-78815975D01*
X28410345Y-78815977D01*
X28582402Y-78930941D01*
X28773580Y-79010130D01*
X28918052Y-79038867D01*
X28976530Y-79050499D01*
X28976534Y-79050500D01*
X28976535Y-79050500D01*
X29183466Y-79050500D01*
X29183467Y-79050499D01*
X29386420Y-79010130D01*
X29481970Y-78970550D01*
X29551439Y-78963082D01*
X29613918Y-78994357D01*
X29617104Y-78997431D01*
X38281238Y-87661565D01*
X38355461Y-87704418D01*
X38438247Y-87726600D01*
X38523953Y-87726600D01*
X52586311Y-87726600D01*
X52615751Y-87735244D01*
X52645738Y-87741768D01*
X52650753Y-87745522D01*
X52653350Y-87746285D01*
X52673992Y-87762919D01*
X52698892Y-87787819D01*
X52732377Y-87849142D01*
X52727393Y-87918834D01*
X52685521Y-87974767D01*
X52620057Y-87999184D01*
X52611211Y-87999500D01*
X51895730Y-87999500D01*
X51865300Y-88002353D01*
X51865298Y-88002353D01*
X51737119Y-88047206D01*
X51737117Y-88047207D01*
X51627850Y-88127850D01*
X51547207Y-88237117D01*
X51547206Y-88237119D01*
X51502353Y-88365298D01*
X51502353Y-88365300D01*
X51499500Y-88395730D01*
X51499500Y-89604269D01*
X51502353Y-89634699D01*
X51502353Y-89634701D01*
X51543244Y-89751557D01*
X51547207Y-89762882D01*
X51627850Y-89872150D01*
X51737118Y-89952793D01*
X51763576Y-89962051D01*
X51865299Y-89997646D01*
X51895730Y-90000500D01*
X51895734Y-90000500D01*
X53104270Y-90000500D01*
X53134699Y-89997646D01*
X53134701Y-89997646D01*
X53198790Y-89975219D01*
X53262882Y-89952793D01*
X53372150Y-89872150D01*
X53452793Y-89762882D01*
X53452794Y-89762876D01*
X53457133Y-89754669D01*
X53458432Y-89755355D01*
X53493282Y-89706764D01*
X53558234Y-89681015D01*
X53626796Y-89694470D01*
X53657285Y-89716812D01*
X57774534Y-93834061D01*
X57774535Y-93834062D01*
X57835138Y-93894665D01*
X57835140Y-93894666D01*
X57835144Y-93894669D01*
X57909355Y-93937514D01*
X57909362Y-93937518D01*
X57992147Y-93959700D01*
X58077852Y-93959700D01*
X60988011Y-93959700D01*
X61055050Y-93979385D01*
X61075692Y-93996019D01*
X62580837Y-95501164D01*
X62614322Y-95562487D01*
X62609338Y-95632179D01*
X62607737Y-95636247D01*
X62577949Y-95708165D01*
X62577947Y-95708171D01*
X62539500Y-95901456D01*
X62539500Y-95901459D01*
X62539500Y-96098541D01*
X62539500Y-96098543D01*
X62539499Y-96098543D01*
X62577947Y-96291829D01*
X62577950Y-96291839D01*
X62653364Y-96473907D01*
X62653371Y-96473920D01*
X62762860Y-96637781D01*
X62762863Y-96637785D01*
X62902214Y-96777136D01*
X62902218Y-96777139D01*
X63066079Y-96886628D01*
X63066092Y-96886635D01*
X63196867Y-96940803D01*
X63248165Y-96962051D01*
X63248169Y-96962051D01*
X63248170Y-96962052D01*
X63441456Y-97000500D01*
X63441459Y-97000500D01*
X63638543Y-97000500D01*
X63768582Y-96974632D01*
X63831835Y-96962051D01*
X64013914Y-96886632D01*
X64177782Y-96777139D01*
X64317139Y-96637782D01*
X64426632Y-96473914D01*
X64456400Y-96402048D01*
X64500240Y-96347644D01*
X64566534Y-96325579D01*
X64570961Y-96325500D01*
X65969039Y-96325500D01*
X66036078Y-96345185D01*
X66081833Y-96397989D01*
X66083600Y-96402048D01*
X66113364Y-96473907D01*
X66113371Y-96473920D01*
X66222860Y-96637781D01*
X66222863Y-96637785D01*
X66362214Y-96777136D01*
X66362218Y-96777139D01*
X66526079Y-96886628D01*
X66526092Y-96886635D01*
X66656867Y-96940803D01*
X66708165Y-96962051D01*
X66708169Y-96962051D01*
X66708170Y-96962052D01*
X66901456Y-97000500D01*
X66901459Y-97000500D01*
X67098543Y-97000500D01*
X67228582Y-96974632D01*
X67291835Y-96962051D01*
X67473914Y-96886632D01*
X67637782Y-96777139D01*
X67637785Y-96777136D01*
X67643327Y-96771595D01*
X67777136Y-96637785D01*
X67777139Y-96637782D01*
X67886632Y-96473914D01*
X67962051Y-96291835D01*
X68000500Y-96098541D01*
X68000500Y-95913428D01*
X68440000Y-95913428D01*
X68440000Y-96086571D01*
X68467085Y-96257584D01*
X68520591Y-96422257D01*
X68599195Y-96576523D01*
X68599196Y-96576525D01*
X68633463Y-96623691D01*
X68633464Y-96623691D01*
X69153629Y-96103527D01*
X69167259Y-96154394D01*
X69219920Y-96245606D01*
X69294394Y-96320080D01*
X69385606Y-96372741D01*
X69436471Y-96386370D01*
X68916307Y-96906534D01*
X68963478Y-96940805D01*
X69117742Y-97019408D01*
X69282415Y-97072914D01*
X69453429Y-97100000D01*
X69626571Y-97100000D01*
X69797584Y-97072914D01*
X69962257Y-97019408D01*
X70116525Y-96940803D01*
X70163691Y-96906534D01*
X70163692Y-96906533D01*
X69643529Y-96386370D01*
X69694394Y-96372741D01*
X69785606Y-96320080D01*
X69860080Y-96245606D01*
X69912741Y-96154394D01*
X69926370Y-96103528D01*
X70446533Y-96623692D01*
X70446534Y-96623691D01*
X70480803Y-96576525D01*
X70559408Y-96422257D01*
X70612914Y-96257584D01*
X70640000Y-96086571D01*
X70640000Y-95913428D01*
X70612914Y-95742415D01*
X70559408Y-95577742D01*
X70480805Y-95423478D01*
X70446534Y-95376307D01*
X69926370Y-95896471D01*
X69912741Y-95845606D01*
X69860080Y-95754394D01*
X69785606Y-95679920D01*
X69694394Y-95627259D01*
X69643527Y-95613629D01*
X70163691Y-95093464D01*
X70163691Y-95093463D01*
X70116525Y-95059196D01*
X70116523Y-95059195D01*
X69962257Y-94980591D01*
X69797584Y-94927085D01*
X69626571Y-94900000D01*
X69453429Y-94900000D01*
X69282415Y-94927085D01*
X69117740Y-94980592D01*
X68963475Y-95059196D01*
X68916307Y-95093463D01*
X68916307Y-95093464D01*
X69436472Y-95613629D01*
X69385606Y-95627259D01*
X69294394Y-95679920D01*
X69219920Y-95754394D01*
X69167259Y-95845606D01*
X69153629Y-95896472D01*
X68633464Y-95376307D01*
X68633463Y-95376307D01*
X68599196Y-95423475D01*
X68520592Y-95577740D01*
X68467085Y-95742415D01*
X68440000Y-95913428D01*
X68000500Y-95913428D01*
X68000500Y-95901459D01*
X68000500Y-95901456D01*
X67962052Y-95708170D01*
X67962051Y-95708169D01*
X67962051Y-95708165D01*
X67939953Y-95654815D01*
X67886635Y-95526092D01*
X67886628Y-95526079D01*
X67777139Y-95362218D01*
X67777136Y-95362214D01*
X67637785Y-95222863D01*
X67637781Y-95222860D01*
X67473920Y-95113371D01*
X67473907Y-95113364D01*
X67291839Y-95037950D01*
X67291829Y-95037947D01*
X67098543Y-94999500D01*
X67098541Y-94999500D01*
X66901459Y-94999500D01*
X66901457Y-94999500D01*
X66708170Y-95037947D01*
X66708160Y-95037950D01*
X66526092Y-95113364D01*
X66526079Y-95113371D01*
X66362218Y-95222860D01*
X66362214Y-95222863D01*
X66222863Y-95362214D01*
X66222860Y-95362218D01*
X66113371Y-95526079D01*
X66113364Y-95526092D01*
X66083600Y-95597952D01*
X66039760Y-95652356D01*
X65973466Y-95674421D01*
X65969039Y-95674500D01*
X64570961Y-95674500D01*
X64503922Y-95654815D01*
X64458167Y-95602011D01*
X64456400Y-95597952D01*
X64426635Y-95526092D01*
X64426628Y-95526079D01*
X64317139Y-95362218D01*
X64317136Y-95362214D01*
X64177785Y-95222863D01*
X64177781Y-95222860D01*
X64013920Y-95113371D01*
X64013907Y-95113364D01*
X63831839Y-95037950D01*
X63831829Y-95037947D01*
X63638543Y-94999500D01*
X63638541Y-94999500D01*
X63441459Y-94999500D01*
X63441457Y-94999500D01*
X63248171Y-95037947D01*
X63248167Y-95037948D01*
X63248165Y-95037949D01*
X63176293Y-95067718D01*
X63106827Y-95075186D01*
X63044348Y-95043910D01*
X63041164Y-95040837D01*
X61374064Y-93373737D01*
X61374062Y-93373735D01*
X61336950Y-93352308D01*
X61299840Y-93330882D01*
X61258446Y-93319791D01*
X61217053Y-93308700D01*
X61217052Y-93308700D01*
X58221189Y-93308700D01*
X58154150Y-93289015D01*
X58133508Y-93272381D01*
X55064973Y-90203846D01*
X55031488Y-90142523D01*
X55036472Y-90072831D01*
X55078344Y-90016898D01*
X55128463Y-89994548D01*
X55291835Y-89962051D01*
X55473914Y-89886632D01*
X55637782Y-89777139D01*
X55777139Y-89637782D01*
X55886632Y-89473914D01*
X55962051Y-89291835D01*
X55983496Y-89184024D01*
X56000500Y-89098543D01*
X56000500Y-88901456D01*
X55962052Y-88708170D01*
X55962051Y-88708169D01*
X55962051Y-88708165D01*
X55958830Y-88700388D01*
X55886635Y-88526092D01*
X55886628Y-88526079D01*
X55777139Y-88362218D01*
X55777136Y-88362214D01*
X55637785Y-88222863D01*
X55637781Y-88222860D01*
X55473920Y-88113371D01*
X55473907Y-88113364D01*
X55291839Y-88037950D01*
X55291829Y-88037947D01*
X55098543Y-87999500D01*
X55098541Y-87999500D01*
X54901459Y-87999500D01*
X54901457Y-87999500D01*
X54708170Y-88037947D01*
X54708160Y-88037950D01*
X54526092Y-88113364D01*
X54526079Y-88113371D01*
X54362218Y-88222860D01*
X54286273Y-88298805D01*
X54224949Y-88332289D01*
X54155258Y-88327304D01*
X54099324Y-88285433D01*
X54091205Y-88273123D01*
X54072567Y-88240841D01*
X54072563Y-88240836D01*
X52972364Y-87140637D01*
X52972362Y-87140635D01*
X52935250Y-87119208D01*
X52898140Y-87097782D01*
X52856746Y-87086691D01*
X52815353Y-87075600D01*
X52815352Y-87075600D01*
X38667289Y-87075600D01*
X38600250Y-87055915D01*
X38579608Y-87039281D01*
X34922229Y-83381902D01*
X65999500Y-83381902D01*
X65999500Y-83618097D01*
X66036446Y-83851368D01*
X66109433Y-84075996D01*
X66216657Y-84286433D01*
X66355483Y-84477510D01*
X66522490Y-84644517D01*
X66713567Y-84783343D01*
X66812991Y-84834002D01*
X66924003Y-84890566D01*
X66924005Y-84890566D01*
X66924008Y-84890568D01*
X67044412Y-84929689D01*
X67148631Y-84963553D01*
X67381903Y-85000500D01*
X67381908Y-85000500D01*
X67618097Y-85000500D01*
X67851368Y-84963553D01*
X68075992Y-84890568D01*
X68286433Y-84783343D01*
X68477510Y-84644517D01*
X68644517Y-84477510D01*
X68783343Y-84286433D01*
X68890568Y-84075992D01*
X68963553Y-83851368D01*
X68973582Y-83788050D01*
X69000500Y-83618097D01*
X69000500Y-83381902D01*
X68963553Y-83148631D01*
X68929689Y-83044412D01*
X68890568Y-82924008D01*
X68890566Y-82924005D01*
X68890566Y-82924003D01*
X68783342Y-82713566D01*
X68644517Y-82522490D01*
X68477510Y-82355483D01*
X68286433Y-82216657D01*
X68075996Y-82109433D01*
X67851368Y-82036446D01*
X67618097Y-81999500D01*
X67618092Y-81999500D01*
X67381908Y-81999500D01*
X67381903Y-81999500D01*
X67148631Y-82036446D01*
X66924003Y-82109433D01*
X66713566Y-82216657D01*
X66678432Y-82242184D01*
X66522490Y-82355483D01*
X66522488Y-82355485D01*
X66522487Y-82355485D01*
X66355485Y-82522487D01*
X66355485Y-82522488D01*
X66355483Y-82522490D01*
X66295862Y-82604550D01*
X66216657Y-82713566D01*
X66109433Y-82924003D01*
X66036446Y-83148631D01*
X65999500Y-83381902D01*
X34922229Y-83381902D01*
X32638870Y-81098543D01*
X53999499Y-81098543D01*
X54037947Y-81291829D01*
X54037950Y-81291839D01*
X54113364Y-81473907D01*
X54113371Y-81473920D01*
X54222860Y-81637781D01*
X54222863Y-81637785D01*
X54362214Y-81777136D01*
X54362218Y-81777139D01*
X54526079Y-81886628D01*
X54526092Y-81886635D01*
X54656867Y-81940803D01*
X54708165Y-81962051D01*
X54708169Y-81962051D01*
X54708170Y-81962052D01*
X54901456Y-82000500D01*
X54901459Y-82000500D01*
X55098543Y-82000500D01*
X55228582Y-81974632D01*
X55291835Y-81962051D01*
X55473914Y-81886632D01*
X55637782Y-81777139D01*
X55637785Y-81777136D01*
X55643327Y-81771595D01*
X55777136Y-81637785D01*
X55777139Y-81637782D01*
X55886632Y-81473914D01*
X55962051Y-81291835D01*
X56000500Y-81098541D01*
X56000500Y-80913428D01*
X58900000Y-80913428D01*
X58900000Y-81086571D01*
X58927085Y-81257584D01*
X58980591Y-81422257D01*
X59059195Y-81576523D01*
X59059196Y-81576525D01*
X59093463Y-81623691D01*
X59093464Y-81623691D01*
X59613629Y-81103527D01*
X59627259Y-81154394D01*
X59679920Y-81245606D01*
X59754394Y-81320080D01*
X59845606Y-81372741D01*
X59896471Y-81386370D01*
X59376307Y-81906534D01*
X59423478Y-81940805D01*
X59577742Y-82019408D01*
X59742415Y-82072914D01*
X59913429Y-82100000D01*
X60086571Y-82100000D01*
X60257584Y-82072914D01*
X60422257Y-82019408D01*
X60576525Y-81940803D01*
X60623691Y-81906534D01*
X60623692Y-81906533D01*
X60103529Y-81386370D01*
X60154394Y-81372741D01*
X60245606Y-81320080D01*
X60320080Y-81245606D01*
X60372741Y-81154394D01*
X60386370Y-81103528D01*
X60906533Y-81623692D01*
X60906534Y-81623691D01*
X60940803Y-81576525D01*
X61019408Y-81422257D01*
X61072914Y-81257584D01*
X61100000Y-81086571D01*
X61100000Y-80913428D01*
X61072914Y-80742415D01*
X61019408Y-80577742D01*
X60940805Y-80423478D01*
X60906534Y-80376307D01*
X60386370Y-80896471D01*
X60372741Y-80845606D01*
X60320080Y-80754394D01*
X60245606Y-80679920D01*
X60154394Y-80627259D01*
X60103527Y-80613629D01*
X60623691Y-80093464D01*
X60623691Y-80093463D01*
X60576525Y-80059196D01*
X60576523Y-80059195D01*
X60422257Y-79980591D01*
X60257584Y-79927085D01*
X60086571Y-79900000D01*
X59913429Y-79900000D01*
X59742415Y-79927085D01*
X59577740Y-79980592D01*
X59423475Y-80059196D01*
X59376307Y-80093463D01*
X59376307Y-80093464D01*
X59896472Y-80613629D01*
X59845606Y-80627259D01*
X59754394Y-80679920D01*
X59679920Y-80754394D01*
X59627259Y-80845606D01*
X59613629Y-80896472D01*
X59093464Y-80376307D01*
X59093463Y-80376307D01*
X59059196Y-80423475D01*
X58980592Y-80577740D01*
X58927085Y-80742415D01*
X58900000Y-80913428D01*
X56000500Y-80913428D01*
X56000500Y-80901459D01*
X56000500Y-80901456D01*
X55962052Y-80708170D01*
X55962051Y-80708169D01*
X55962051Y-80708165D01*
X55917248Y-80600000D01*
X55886635Y-80526092D01*
X55886628Y-80526079D01*
X55777139Y-80362218D01*
X55777136Y-80362214D01*
X55637785Y-80222863D01*
X55637781Y-80222860D01*
X55473920Y-80113371D01*
X55473907Y-80113364D01*
X55291839Y-80037950D01*
X55291829Y-80037947D01*
X55098543Y-79999500D01*
X55098541Y-79999500D01*
X54901459Y-79999500D01*
X54901457Y-79999500D01*
X54708170Y-80037947D01*
X54708160Y-80037950D01*
X54526092Y-80113364D01*
X54526079Y-80113371D01*
X54362218Y-80222860D01*
X54362214Y-80222863D01*
X54222863Y-80362214D01*
X54222860Y-80362218D01*
X54113371Y-80526079D01*
X54113364Y-80526092D01*
X54037950Y-80708160D01*
X54037947Y-80708170D01*
X53999500Y-80901456D01*
X53999500Y-80901459D01*
X53999500Y-81098541D01*
X53999500Y-81098543D01*
X53999499Y-81098543D01*
X32638870Y-81098543D01*
X30077431Y-78537104D01*
X30043946Y-78475781D01*
X30048930Y-78406089D01*
X30050551Y-78401970D01*
X30051326Y-78400099D01*
X30090130Y-78306420D01*
X30130500Y-78103465D01*
X30130500Y-77896535D01*
X30090130Y-77693580D01*
X30010941Y-77502402D01*
X29895977Y-77330345D01*
X29895975Y-77330342D01*
X29749657Y-77184024D01*
X29581655Y-77071770D01*
X29577598Y-77069059D01*
X29550095Y-77057667D01*
X29497915Y-77036053D01*
X29434922Y-77009960D01*
X29380520Y-76966120D01*
X29358455Y-76899826D01*
X29375734Y-76832127D01*
X29426871Y-76784516D01*
X29482376Y-76771400D01*
X30981674Y-76771400D01*
X31048713Y-76791085D01*
X31094468Y-76843889D01*
X31104412Y-76913047D01*
X31075387Y-76976603D01*
X31037969Y-77005885D01*
X31017269Y-77016431D01*
X31017268Y-77016432D01*
X30960511Y-77057667D01*
X30960511Y-77057668D01*
X31434823Y-77531980D01*
X31427007Y-77534075D01*
X31312993Y-77599901D01*
X31219901Y-77692993D01*
X31154075Y-77807007D01*
X31151980Y-77814823D01*
X30677668Y-77340511D01*
X30677667Y-77340511D01*
X30636432Y-77397268D01*
X30636431Y-77397270D01*
X30554252Y-77558552D01*
X30554251Y-77558555D01*
X30498317Y-77730706D01*
X30470000Y-77909493D01*
X30470000Y-78090506D01*
X30498317Y-78269293D01*
X30554251Y-78441444D01*
X30554252Y-78441447D01*
X30636434Y-78602734D01*
X30677667Y-78659487D01*
X30677668Y-78659487D01*
X31151980Y-78185176D01*
X31154075Y-78192993D01*
X31219901Y-78307007D01*
X31312993Y-78400099D01*
X31427007Y-78465925D01*
X31434822Y-78468019D01*
X30960510Y-78942330D01*
X30960511Y-78942331D01*
X31017265Y-78983565D01*
X31178552Y-79065747D01*
X31178555Y-79065748D01*
X31350706Y-79121682D01*
X31529494Y-79150000D01*
X31710506Y-79150000D01*
X31889293Y-79121682D01*
X32061444Y-79065748D01*
X32061447Y-79065747D01*
X32222730Y-78983568D01*
X32279487Y-78942330D01*
X32279488Y-78942329D01*
X31805178Y-78468019D01*
X31812993Y-78465925D01*
X31927007Y-78400099D01*
X32020099Y-78307007D01*
X32085925Y-78192993D01*
X32088019Y-78185177D01*
X32562329Y-78659488D01*
X32562330Y-78659487D01*
X32603568Y-78602730D01*
X32685747Y-78441447D01*
X32685748Y-78441444D01*
X32741682Y-78269293D01*
X32770000Y-78090506D01*
X32770000Y-77909493D01*
X32741682Y-77730706D01*
X32685748Y-77558555D01*
X32685747Y-77558552D01*
X32603565Y-77397265D01*
X32562331Y-77340511D01*
X32562330Y-77340510D01*
X32088018Y-77814821D01*
X32085925Y-77807007D01*
X32020099Y-77692993D01*
X31927007Y-77599901D01*
X31812993Y-77534075D01*
X31805176Y-77531980D01*
X32279487Y-77057668D01*
X32279487Y-77057667D01*
X32222734Y-77016434D01*
X32202031Y-77005885D01*
X32151235Y-76957911D01*
X32134440Y-76890090D01*
X32156977Y-76823955D01*
X32211692Y-76780503D01*
X32258326Y-76771400D01*
X33757624Y-76771400D01*
X33824663Y-76791085D01*
X33870418Y-76843889D01*
X33880362Y-76913047D01*
X33851337Y-76976603D01*
X33805077Y-77009960D01*
X33759168Y-77028976D01*
X33662403Y-77069058D01*
X33490342Y-77184024D01*
X33344024Y-77330342D01*
X33229058Y-77502403D01*
X33149870Y-77693579D01*
X33149868Y-77693587D01*
X33109500Y-77896530D01*
X33109500Y-78103469D01*
X33149868Y-78306412D01*
X33149870Y-78306420D01*
X33229058Y-78497596D01*
X33344024Y-78669657D01*
X33490342Y-78815975D01*
X33490345Y-78815977D01*
X33662402Y-78930941D01*
X33853580Y-79010130D01*
X33998052Y-79038867D01*
X34056530Y-79050499D01*
X34056534Y-79050500D01*
X34056535Y-79050500D01*
X34263466Y-79050500D01*
X34263467Y-79050499D01*
X34466420Y-79010130D01*
X34657598Y-78930941D01*
X34829655Y-78815977D01*
X34975977Y-78669655D01*
X35090941Y-78497598D01*
X35170130Y-78306420D01*
X35210500Y-78103465D01*
X35210500Y-77896535D01*
X35170130Y-77693580D01*
X35130550Y-77598028D01*
X35123082Y-77528560D01*
X35154357Y-77466080D01*
X35157431Y-77462895D01*
X35385208Y-77235119D01*
X35446531Y-77201634D01*
X35472889Y-77198800D01*
X35739931Y-77198800D01*
X35806970Y-77218485D01*
X35852725Y-77271289D01*
X35862669Y-77340447D01*
X35843034Y-77391689D01*
X35829513Y-77411925D01*
X35769058Y-77502403D01*
X35689870Y-77693579D01*
X35689868Y-77693587D01*
X35649500Y-77896530D01*
X35649500Y-78103469D01*
X35689868Y-78306412D01*
X35689870Y-78306420D01*
X35769058Y-78497596D01*
X35884024Y-78669657D01*
X36030342Y-78815975D01*
X36030345Y-78815977D01*
X36202402Y-78930941D01*
X36393580Y-79010130D01*
X36538052Y-79038867D01*
X36596530Y-79050499D01*
X36596534Y-79050500D01*
X36596535Y-79050500D01*
X36803466Y-79050500D01*
X36803467Y-79050499D01*
X37006420Y-79010130D01*
X37197598Y-78930941D01*
X37369655Y-78815977D01*
X37515977Y-78669655D01*
X37630941Y-78497598D01*
X37670520Y-78402047D01*
X37714361Y-78347644D01*
X37780655Y-78325579D01*
X37785081Y-78325500D01*
X53447251Y-78325500D01*
X53447253Y-78325500D01*
X53530039Y-78303318D01*
X53604262Y-78260465D01*
X53793506Y-78071218D01*
X53854829Y-78037734D01*
X53881188Y-78034900D01*
X53992472Y-78034900D01*
X53992475Y-78034900D01*
X54132485Y-77997384D01*
X54258015Y-77924909D01*
X54360509Y-77822415D01*
X54432984Y-77696885D01*
X54470500Y-77556875D01*
X54470500Y-77411925D01*
X54432984Y-77271915D01*
X54424738Y-77257633D01*
X54360511Y-77146388D01*
X54360506Y-77146382D01*
X54258017Y-77043893D01*
X54258015Y-77043891D01*
X54186820Y-77002786D01*
X54138606Y-76952219D01*
X54125384Y-76883612D01*
X54151352Y-76818748D01*
X54208266Y-76778220D01*
X54248822Y-76771400D01*
X66686411Y-76771400D01*
X66715851Y-76780044D01*
X66745838Y-76786568D01*
X66750853Y-76790322D01*
X66753450Y-76791085D01*
X66774092Y-76807719D01*
X66906577Y-76940204D01*
X66940062Y-77001527D01*
X66935078Y-77071219D01*
X66893206Y-77127152D01*
X66838294Y-77150358D01*
X66633760Y-77182753D01*
X66431585Y-77248444D01*
X66242179Y-77344951D01*
X66070213Y-77469890D01*
X65919890Y-77620213D01*
X65794951Y-77792179D01*
X65698444Y-77981585D01*
X65632753Y-78183760D01*
X65599500Y-78393713D01*
X65599500Y-78606286D01*
X65632711Y-78815975D01*
X65632754Y-78816243D01*
X65695752Y-79010131D01*
X65698444Y-79018414D01*
X65794951Y-79207820D01*
X65919890Y-79379786D01*
X66070213Y-79530109D01*
X66242179Y-79655048D01*
X66242181Y-79655049D01*
X66242184Y-79655051D01*
X66431588Y-79751557D01*
X66633757Y-79817246D01*
X66843713Y-79850500D01*
X67050500Y-79850500D01*
X67117539Y-79870185D01*
X67163294Y-79922989D01*
X67171719Y-79961719D01*
X67173439Y-79961493D01*
X67174500Y-79969552D01*
X67196682Y-80052340D01*
X67218108Y-80089450D01*
X67239535Y-80126562D01*
X67239536Y-80126563D01*
X67239537Y-80126564D01*
X70304281Y-83191307D01*
X70337766Y-83252630D01*
X70340600Y-83278988D01*
X70340600Y-83721011D01*
X70320915Y-83788050D01*
X70304281Y-83808692D01*
X67239537Y-86873435D01*
X67239533Y-86873441D01*
X67196681Y-86947661D01*
X67196682Y-86947662D01*
X67174500Y-87030447D01*
X67173439Y-87038507D01*
X67170783Y-87038157D01*
X67154815Y-87092539D01*
X67102011Y-87138294D01*
X67050500Y-87149500D01*
X66843713Y-87149500D01*
X66795042Y-87157208D01*
X66633760Y-87182753D01*
X66431585Y-87248444D01*
X66242179Y-87344951D01*
X66070213Y-87469890D01*
X65919890Y-87620213D01*
X65794951Y-87792179D01*
X65698444Y-87981585D01*
X65632753Y-88183760D01*
X65604000Y-88365300D01*
X65599500Y-88393713D01*
X65599500Y-88606287D01*
X65632754Y-88816243D01*
X65694293Y-89005641D01*
X65698444Y-89018414D01*
X65794951Y-89207820D01*
X65919890Y-89379786D01*
X66070213Y-89530109D01*
X66242179Y-89655048D01*
X66242181Y-89655049D01*
X66242184Y-89655051D01*
X66431588Y-89751557D01*
X66633757Y-89817246D01*
X66843713Y-89850500D01*
X66843714Y-89850500D01*
X68156286Y-89850500D01*
X68156287Y-89850500D01*
X68366243Y-89817246D01*
X68568412Y-89751557D01*
X68757816Y-89655051D01*
X68809447Y-89617539D01*
X68929786Y-89530109D01*
X68929788Y-89530106D01*
X68929792Y-89530104D01*
X69080104Y-89379792D01*
X69080106Y-89379788D01*
X69080109Y-89379786D01*
X69205048Y-89207820D01*
X69205047Y-89207820D01*
X69205051Y-89207816D01*
X69301557Y-89018412D01*
X69367246Y-88816243D01*
X69400500Y-88606287D01*
X69400500Y-88393713D01*
X69367246Y-88183757D01*
X69301557Y-87981588D01*
X69205051Y-87792184D01*
X69205049Y-87792181D01*
X69205048Y-87792179D01*
X69080109Y-87620213D01*
X68929786Y-87469890D01*
X68757820Y-87344951D01*
X68568414Y-87248444D01*
X68568413Y-87248443D01*
X68568412Y-87248443D01*
X68366243Y-87182754D01*
X68366241Y-87182753D01*
X68366239Y-87182753D01*
X68161705Y-87150358D01*
X68098570Y-87120429D01*
X68061639Y-87061117D01*
X68062637Y-86991255D01*
X68093420Y-86940206D01*
X70865959Y-84167666D01*
X70865962Y-84167665D01*
X70926565Y-84107062D01*
X70929334Y-84102265D01*
X70938718Y-84092626D01*
X70963059Y-84078906D01*
X70985622Y-84062431D01*
X70993077Y-84061986D01*
X70999585Y-84058319D01*
X71027479Y-84059937D01*
X71055368Y-84058276D01*
X71061880Y-84061933D01*
X71069338Y-84062366D01*
X71091928Y-84078807D01*
X71116289Y-84092488D01*
X71119790Y-84099086D01*
X71125829Y-84103481D01*
X71135943Y-84129524D01*
X71149042Y-84154205D01*
X71150044Y-84159722D01*
X71182754Y-84366243D01*
X71218907Y-84477511D01*
X71248444Y-84568414D01*
X71344951Y-84757820D01*
X71469890Y-84929786D01*
X71620213Y-85080109D01*
X71792179Y-85205048D01*
X71792181Y-85205049D01*
X71792184Y-85205051D01*
X71981588Y-85301557D01*
X72183757Y-85367246D01*
X72393713Y-85400500D01*
X72393714Y-85400500D01*
X72606286Y-85400500D01*
X72606287Y-85400500D01*
X72816243Y-85367246D01*
X73018412Y-85301557D01*
X73207816Y-85205051D01*
X73229789Y-85189086D01*
X73379786Y-85080109D01*
X73379788Y-85080106D01*
X73379792Y-85080104D01*
X73530104Y-84929792D01*
X73530106Y-84929788D01*
X73530109Y-84929786D01*
X73655048Y-84757820D01*
X73655047Y-84757820D01*
X73655051Y-84757816D01*
X73751557Y-84568412D01*
X73817246Y-84366243D01*
X73850500Y-84156287D01*
X73850500Y-82843713D01*
X73817246Y-82633757D01*
X73751557Y-82431588D01*
X73655051Y-82242184D01*
X73655049Y-82242181D01*
X73655048Y-82242179D01*
X73530109Y-82070213D01*
X73379786Y-81919890D01*
X73207820Y-81794951D01*
X73018414Y-81698444D01*
X73018413Y-81698443D01*
X73018412Y-81698443D01*
X72816243Y-81632754D01*
X72816241Y-81632753D01*
X72816240Y-81632753D01*
X72654957Y-81607208D01*
X72606287Y-81599500D01*
X72393713Y-81599500D01*
X72345042Y-81607208D01*
X72183760Y-81632753D01*
X71981585Y-81698444D01*
X71792179Y-81794951D01*
X71620213Y-81919890D01*
X71469890Y-82070213D01*
X71344951Y-82242179D01*
X71248444Y-82431585D01*
X71182753Y-82633760D01*
X71150044Y-82840277D01*
X71144269Y-82852457D01*
X71143114Y-82865887D01*
X71129596Y-82883410D01*
X71120115Y-82903412D01*
X71108671Y-82910537D01*
X71100439Y-82921210D01*
X71079591Y-82928644D01*
X71060803Y-82940343D01*
X71047324Y-82940150D01*
X71034628Y-82944678D01*
X71013070Y-82939661D01*
X70990941Y-82939345D01*
X70978226Y-82931552D01*
X70966577Y-82928841D01*
X70949262Y-82913799D01*
X70938632Y-82907284D01*
X70929304Y-82897682D01*
X70926565Y-82892938D01*
X70865962Y-82832335D01*
X70865959Y-82832333D01*
X69507533Y-81473907D01*
X68093422Y-80059795D01*
X68059937Y-79998472D01*
X68064921Y-79928780D01*
X68106793Y-79872847D01*
X68161703Y-79849642D01*
X68319812Y-79824599D01*
X68366238Y-79817247D01*
X68366238Y-79817246D01*
X68366243Y-79817246D01*
X68568412Y-79751557D01*
X68757816Y-79655051D01*
X68779789Y-79639086D01*
X68929786Y-79530109D01*
X68929788Y-79530106D01*
X68929792Y-79530104D01*
X69080104Y-79379792D01*
X69080106Y-79379788D01*
X69080109Y-79379786D01*
X69205048Y-79207820D01*
X69205047Y-79207820D01*
X69205051Y-79207816D01*
X69301557Y-79018412D01*
X69367246Y-78816243D01*
X69400500Y-78606287D01*
X69400500Y-78393713D01*
X69367246Y-78183757D01*
X69301557Y-77981588D01*
X69205051Y-77792184D01*
X69205049Y-77792181D01*
X69205048Y-77792179D01*
X69080109Y-77620213D01*
X68929786Y-77469890D01*
X68757820Y-77344951D01*
X68568414Y-77248444D01*
X68568413Y-77248443D01*
X68568412Y-77248443D01*
X68366243Y-77182754D01*
X68366241Y-77182753D01*
X68366240Y-77182753D01*
X68204957Y-77157208D01*
X68156287Y-77149500D01*
X68156286Y-77149500D01*
X67949501Y-77149500D01*
X67882462Y-77129815D01*
X67836707Y-77077011D01*
X67828281Y-77038279D01*
X67826562Y-77038506D01*
X67825501Y-77030449D01*
X67825501Y-77030447D01*
X67803318Y-76947662D01*
X67803317Y-76947661D01*
X67803317Y-76947659D01*
X67803316Y-76947658D01*
X67760467Y-76873441D01*
X67760466Y-76873440D01*
X67760465Y-76873438D01*
X67699862Y-76812835D01*
X67699861Y-76812834D01*
X67695531Y-76808504D01*
X67695520Y-76808494D01*
X67072464Y-76185437D01*
X67072463Y-76185436D01*
X67072462Y-76185435D01*
X67035350Y-76164008D01*
X66998240Y-76142582D01*
X66956846Y-76131491D01*
X66915453Y-76120400D01*
X66915452Y-76120400D01*
X55203389Y-76120400D01*
X55136350Y-76100715D01*
X55090595Y-76047911D01*
X55080651Y-75978753D01*
X55109676Y-75915197D01*
X55115708Y-75908719D01*
X55483446Y-75540981D01*
X56505331Y-74519095D01*
X56566652Y-74485612D01*
X56636344Y-74490596D01*
X56692277Y-74532468D01*
X56696112Y-74537887D01*
X56762860Y-74637781D01*
X56762863Y-74637785D01*
X56902214Y-74777136D01*
X56902218Y-74777139D01*
X57066079Y-74886628D01*
X57066092Y-74886635D01*
X57248160Y-74962049D01*
X57248165Y-74962051D01*
X57248169Y-74962051D01*
X57248170Y-74962052D01*
X57441456Y-75000500D01*
X57441459Y-75000500D01*
X57638543Y-75000500D01*
X57768582Y-74974632D01*
X57831835Y-74962051D01*
X58013914Y-74886632D01*
X58177782Y-74777139D01*
X58317139Y-74637782D01*
X58426632Y-74473914D01*
X58502051Y-74291835D01*
X58540500Y-74098541D01*
X58540500Y-73901459D01*
X58540500Y-73901456D01*
X58502052Y-73708170D01*
X58502051Y-73708169D01*
X58502051Y-73708165D01*
X58480051Y-73655051D01*
X58426635Y-73526092D01*
X58426628Y-73526079D01*
X58317139Y-73362218D01*
X58317136Y-73362214D01*
X58177785Y-73222863D01*
X58177781Y-73222860D01*
X58013920Y-73113371D01*
X58013907Y-73113364D01*
X57831839Y-73037950D01*
X57831829Y-73037947D01*
X57709833Y-73013680D01*
X57647922Y-72981295D01*
X57613348Y-72920579D01*
X57617089Y-72850809D01*
X57646342Y-72804384D01*
X62588908Y-67861819D01*
X62650231Y-67828334D01*
X62676589Y-67825500D01*
X65937950Y-67825500D01*
X66004989Y-67845185D01*
X66050744Y-67897989D01*
X66055881Y-67911181D01*
X66109433Y-68075996D01*
X66169516Y-68193914D01*
X66216657Y-68286433D01*
X66355483Y-68477510D01*
X66522490Y-68644517D01*
X66713567Y-68783343D01*
X66752698Y-68803281D01*
X66924003Y-68890566D01*
X66924005Y-68890566D01*
X66924008Y-68890568D01*
X67032062Y-68925677D01*
X67148631Y-68963553D01*
X67381903Y-69000500D01*
X67381908Y-69000500D01*
X67618097Y-69000500D01*
X67851368Y-68963553D01*
X67864882Y-68959162D01*
X68075992Y-68890568D01*
X68286433Y-68783343D01*
X68477510Y-68644517D01*
X68644517Y-68477510D01*
X68783343Y-68286433D01*
X68890568Y-68075992D01*
X68963553Y-67851368D01*
X68973582Y-67788050D01*
X69000500Y-67618097D01*
X69000500Y-67381902D01*
X68963553Y-67148631D01*
X68915097Y-66999500D01*
X68890568Y-66924008D01*
X68890566Y-66924005D01*
X68890566Y-66924003D01*
X68821124Y-66787717D01*
X68783343Y-66713567D01*
X68644517Y-66522490D01*
X68477510Y-66355483D01*
X68286433Y-66216657D01*
X68075996Y-66109433D01*
X67851368Y-66036446D01*
X67618097Y-65999500D01*
X67618092Y-65999500D01*
X67381908Y-65999500D01*
X67381903Y-65999500D01*
X67148631Y-66036446D01*
X66924003Y-66109433D01*
X66713566Y-66216657D01*
X66678432Y-66242184D01*
X66522490Y-66355483D01*
X66522488Y-66355485D01*
X66522487Y-66355485D01*
X66355485Y-66522487D01*
X66355485Y-66522488D01*
X66355483Y-66522490D01*
X66322039Y-66568522D01*
X66216657Y-66713566D01*
X66109433Y-66924003D01*
X66055881Y-67088819D01*
X66016443Y-67146494D01*
X65952084Y-67173692D01*
X65937950Y-67174500D01*
X62447547Y-67174500D01*
X62364759Y-67196682D01*
X62290538Y-67239535D01*
X62290535Y-67239537D01*
X56040478Y-73489594D01*
X55979155Y-73523079D01*
X55909463Y-73518095D01*
X55853530Y-73476223D01*
X55849695Y-73470804D01*
X55777139Y-73362218D01*
X55777136Y-73362214D01*
X55637785Y-73222863D01*
X55637781Y-73222860D01*
X55473920Y-73113371D01*
X55473907Y-73113364D01*
X55291839Y-73037950D01*
X55291829Y-73037947D01*
X55098543Y-72999500D01*
X55098541Y-72999500D01*
X54901459Y-72999500D01*
X54901457Y-72999500D01*
X54708171Y-73037947D01*
X54708167Y-73037948D01*
X54708165Y-73037949D01*
X54636293Y-73067718D01*
X54566827Y-73075186D01*
X54504348Y-73043910D01*
X54501164Y-73040837D01*
X51459864Y-69999537D01*
X51459862Y-69999535D01*
X51405528Y-69968165D01*
X51385640Y-69956682D01*
X51344246Y-69945591D01*
X51302853Y-69934500D01*
X51302852Y-69934500D01*
X41910961Y-69934500D01*
X41898684Y-69930895D01*
X41885935Y-69931948D01*
X41865802Y-69921239D01*
X41843922Y-69914815D01*
X41834094Y-69904375D01*
X41824248Y-69899138D01*
X41811712Y-69880598D01*
X41802788Y-69871118D01*
X41799204Y-69864723D01*
X41766632Y-69786086D01*
X41695388Y-69679462D01*
X41693010Y-69675218D01*
X41686249Y-69645703D01*
X41677203Y-69616813D01*
X41678526Y-69611989D01*
X41677409Y-69607112D01*
X41687679Y-69578624D01*
X41695688Y-69549433D01*
X41699409Y-69546090D01*
X41701106Y-69541384D01*
X41725143Y-69522974D01*
X41747667Y-69502743D01*
X41753199Y-69501487D01*
X41756577Y-69498901D01*
X41769187Y-69497859D01*
X41801183Y-69490600D01*
X53877751Y-69490600D01*
X53877753Y-69490600D01*
X53960539Y-69468418D01*
X54034762Y-69425565D01*
X54501165Y-68959160D01*
X54562486Y-68925677D01*
X54632177Y-68930661D01*
X54636270Y-68932271D01*
X54708165Y-68962051D01*
X54708169Y-68962051D01*
X54708170Y-68962052D01*
X54901456Y-69000500D01*
X54901459Y-69000500D01*
X55098543Y-69000500D01*
X55228582Y-68974632D01*
X55291835Y-68962051D01*
X55464412Y-68890568D01*
X55473907Y-68886635D01*
X55473907Y-68886634D01*
X55473914Y-68886632D01*
X55637782Y-68777139D01*
X55777139Y-68637782D01*
X55886632Y-68473914D01*
X55962051Y-68291835D01*
X55988330Y-68159722D01*
X56000500Y-68098543D01*
X56539499Y-68098543D01*
X56577947Y-68291829D01*
X56577950Y-68291839D01*
X56653364Y-68473907D01*
X56653371Y-68473920D01*
X56762860Y-68637781D01*
X56762863Y-68637785D01*
X56902214Y-68777136D01*
X56902218Y-68777139D01*
X57066079Y-68886628D01*
X57066092Y-68886635D01*
X57241190Y-68959162D01*
X57248165Y-68962051D01*
X57248169Y-68962051D01*
X57248170Y-68962052D01*
X57441456Y-69000500D01*
X57441459Y-69000500D01*
X57638543Y-69000500D01*
X57768582Y-68974632D01*
X57831835Y-68962051D01*
X58004412Y-68890568D01*
X58013907Y-68886635D01*
X58013907Y-68886634D01*
X58013914Y-68886632D01*
X58177782Y-68777139D01*
X58317139Y-68637782D01*
X58426632Y-68473914D01*
X58502051Y-68291835D01*
X58528330Y-68159722D01*
X58540500Y-68098543D01*
X58540500Y-67901456D01*
X58502052Y-67708170D01*
X58502051Y-67708169D01*
X58502051Y-67708165D01*
X58502049Y-67708160D01*
X58426635Y-67526092D01*
X58426628Y-67526079D01*
X58317139Y-67362218D01*
X58317136Y-67362214D01*
X58177785Y-67222863D01*
X58177781Y-67222860D01*
X58013920Y-67113371D01*
X58013907Y-67113364D01*
X57831839Y-67037950D01*
X57831829Y-67037947D01*
X57638543Y-66999500D01*
X57638541Y-66999500D01*
X57441459Y-66999500D01*
X57441457Y-66999500D01*
X57248170Y-67037947D01*
X57248160Y-67037950D01*
X57066092Y-67113364D01*
X57066079Y-67113371D01*
X56902218Y-67222860D01*
X56902214Y-67222863D01*
X56762863Y-67362214D01*
X56762860Y-67362218D01*
X56653371Y-67526079D01*
X56653364Y-67526092D01*
X56577950Y-67708160D01*
X56577947Y-67708170D01*
X56539500Y-67901456D01*
X56539500Y-67901459D01*
X56539500Y-68098541D01*
X56539500Y-68098543D01*
X56539499Y-68098543D01*
X56000500Y-68098543D01*
X56000500Y-67901456D01*
X55962052Y-67708170D01*
X55962051Y-67708169D01*
X55962051Y-67708165D01*
X55962049Y-67708160D01*
X55886635Y-67526092D01*
X55886628Y-67526079D01*
X55777139Y-67362218D01*
X55777136Y-67362214D01*
X55637785Y-67222863D01*
X55637781Y-67222860D01*
X55473920Y-67113371D01*
X55473907Y-67113364D01*
X55291839Y-67037950D01*
X55291829Y-67037947D01*
X55098543Y-66999500D01*
X55098541Y-66999500D01*
X54901459Y-66999500D01*
X54901457Y-66999500D01*
X54708170Y-67037947D01*
X54708160Y-67037950D01*
X54526092Y-67113364D01*
X54526079Y-67113371D01*
X54362218Y-67222860D01*
X54362214Y-67222863D01*
X54222863Y-67362214D01*
X54222860Y-67362218D01*
X54113371Y-67526079D01*
X54113364Y-67526092D01*
X54037950Y-67708160D01*
X54037947Y-67708170D01*
X53999500Y-67901456D01*
X53999500Y-67901459D01*
X53999500Y-68098541D01*
X53999500Y-68098543D01*
X53999499Y-68098543D01*
X54037947Y-68291828D01*
X54037948Y-68291831D01*
X54037949Y-68291835D01*
X54037951Y-68291839D01*
X54067717Y-68363703D01*
X54075184Y-68433173D01*
X54043909Y-68495651D01*
X54040837Y-68498835D01*
X53736390Y-68803282D01*
X53675069Y-68836766D01*
X53648711Y-68839600D01*
X41413098Y-68839600D01*
X41346059Y-68819915D01*
X41300304Y-68767111D01*
X41290360Y-68697953D01*
X41319385Y-68634397D01*
X41349220Y-68610573D01*
X41348849Y-68610017D01*
X41459414Y-68536139D01*
X41517782Y-68497139D01*
X41657139Y-68357782D01*
X41766632Y-68193914D01*
X41782218Y-68156287D01*
X41806136Y-68098541D01*
X41842051Y-68011835D01*
X41862073Y-67911181D01*
X41880500Y-67818543D01*
X41880500Y-67621456D01*
X41842052Y-67428170D01*
X41842051Y-67428169D01*
X41842051Y-67428165D01*
X41822891Y-67381908D01*
X41766635Y-67246092D01*
X41766628Y-67246079D01*
X41657139Y-67082218D01*
X41657136Y-67082214D01*
X41517785Y-66942863D01*
X41517781Y-66942860D01*
X41353920Y-66833371D01*
X41353907Y-66833364D01*
X41171839Y-66757950D01*
X41171829Y-66757947D01*
X40978543Y-66719500D01*
X40978541Y-66719500D01*
X40781459Y-66719500D01*
X40781457Y-66719500D01*
X40588170Y-66757947D01*
X40588160Y-66757950D01*
X40406092Y-66833364D01*
X40406079Y-66833371D01*
X40242218Y-66942860D01*
X40242214Y-66942863D01*
X40102863Y-67082214D01*
X40102860Y-67082218D01*
X39993371Y-67246079D01*
X39993364Y-67246092D01*
X39917950Y-67428160D01*
X39917947Y-67428170D01*
X39879500Y-67621456D01*
X39879500Y-67621459D01*
X39879500Y-67818541D01*
X39879500Y-67818543D01*
X39879499Y-67818543D01*
X39917947Y-68011829D01*
X39917950Y-68011839D01*
X39993364Y-68193907D01*
X39993371Y-68193920D01*
X40102860Y-68357781D01*
X40102863Y-68357785D01*
X40242214Y-68497136D01*
X40242218Y-68497139D01*
X40411151Y-68610017D01*
X40410376Y-68611175D01*
X40455197Y-68655201D01*
X40470660Y-68723338D01*
X40446831Y-68789018D01*
X40391275Y-68831389D01*
X40346902Y-68839600D01*
X38969465Y-68839600D01*
X38969449Y-68839599D01*
X38961853Y-68839599D01*
X38876147Y-68839599D01*
X38820956Y-68854387D01*
X38793360Y-68861782D01*
X38774805Y-68872495D01*
X38756250Y-68883208D01*
X38726168Y-68900576D01*
X38719138Y-68904635D01*
X38719135Y-68904637D01*
X35556092Y-72067681D01*
X35494769Y-72101166D01*
X35468411Y-72104000D01*
X34514000Y-72104000D01*
X34446961Y-72084315D01*
X34401206Y-72031511D01*
X34390000Y-71980000D01*
X34390000Y-71180597D01*
X34409685Y-71113558D01*
X34437941Y-71082664D01*
X39090000Y-67469895D01*
X39090000Y-64540214D01*
X39874500Y-64540214D01*
X39874500Y-65819785D01*
X39890140Y-65898417D01*
X39890145Y-65898433D01*
X39920586Y-65971925D01*
X39920588Y-65971929D01*
X39920590Y-65971932D01*
X39965138Y-66038601D01*
X40021399Y-66094862D01*
X40088068Y-66139410D01*
X40088071Y-66139411D01*
X40088074Y-66139413D01*
X40161566Y-66169854D01*
X40161571Y-66169855D01*
X40161577Y-66169858D01*
X40240215Y-66185499D01*
X40240217Y-66185500D01*
X40240218Y-66185500D01*
X40958788Y-66185500D01*
X40958793Y-66185500D01*
X40998883Y-66181551D01*
X41153441Y-66150808D01*
X41191993Y-66139114D01*
X41337584Y-66078808D01*
X41373112Y-66059818D01*
X41504140Y-65972268D01*
X41535280Y-65946711D01*
X41646711Y-65835280D01*
X41672268Y-65804140D01*
X41759818Y-65673112D01*
X41778808Y-65637584D01*
X41839114Y-65491993D01*
X41850808Y-65453441D01*
X41881551Y-65298883D01*
X41885500Y-65258793D01*
X41885500Y-65101207D01*
X41881551Y-65061117D01*
X41850808Y-64906559D01*
X41839114Y-64868007D01*
X41778808Y-64722416D01*
X41759818Y-64686888D01*
X41759807Y-64686871D01*
X41672274Y-64555868D01*
X41672270Y-64555863D01*
X41646711Y-64524720D01*
X41535279Y-64413288D01*
X41523197Y-64403372D01*
X41504140Y-64387732D01*
X41504136Y-64387729D01*
X41504131Y-64387725D01*
X41373128Y-64300192D01*
X41373120Y-64300187D01*
X41373112Y-64300182D01*
X41337584Y-64281192D01*
X41298829Y-64265139D01*
X41191997Y-64220887D01*
X41153442Y-64209192D01*
X40998884Y-64178449D01*
X40998885Y-64178449D01*
X40987428Y-64177320D01*
X40958793Y-64174500D01*
X40240218Y-64174500D01*
X40240214Y-64174500D01*
X40161582Y-64190140D01*
X40161566Y-64190145D01*
X40088074Y-64220586D01*
X40021397Y-64265139D01*
X39965139Y-64321397D01*
X39920586Y-64388074D01*
X39890145Y-64461566D01*
X39890140Y-64461582D01*
X39874500Y-64540214D01*
X39090000Y-64540214D01*
X39090000Y-63130000D01*
X25207189Y-63130000D01*
X25140150Y-63110315D01*
X25094395Y-63057511D01*
X25084451Y-62988353D01*
X25113476Y-62924797D01*
X25119508Y-62918319D01*
X26130008Y-61907819D01*
X26191331Y-61874334D01*
X26217689Y-61871500D01*
X39958216Y-61871500D01*
X40025255Y-61891185D01*
X40071010Y-61943989D01*
X40080954Y-62013147D01*
X40061318Y-62064391D01*
X39993371Y-62166079D01*
X39993364Y-62166092D01*
X39917950Y-62348160D01*
X39917947Y-62348170D01*
X39879500Y-62541456D01*
X39879500Y-62541459D01*
X39879500Y-62738541D01*
X39879500Y-62738543D01*
X39879499Y-62738543D01*
X39917947Y-62931829D01*
X39917950Y-62931839D01*
X39993364Y-63113907D01*
X39993371Y-63113920D01*
X40102860Y-63277781D01*
X40102863Y-63277785D01*
X40242214Y-63417136D01*
X40242218Y-63417139D01*
X40406079Y-63526628D01*
X40406092Y-63526635D01*
X40508210Y-63568933D01*
X40588165Y-63602051D01*
X40588169Y-63602051D01*
X40588170Y-63602052D01*
X40781456Y-63640500D01*
X40781459Y-63640500D01*
X40978543Y-63640500D01*
X41108582Y-63614632D01*
X41171835Y-63602051D01*
X41353914Y-63526632D01*
X41517782Y-63417139D01*
X41657139Y-63277782D01*
X41766632Y-63113914D01*
X41842051Y-62931835D01*
X41869942Y-62791621D01*
X41880500Y-62738543D01*
X41880500Y-62541456D01*
X41842052Y-62348170D01*
X41842051Y-62348169D01*
X41842051Y-62348165D01*
X41773952Y-62183757D01*
X41766635Y-62166092D01*
X41766628Y-62166079D01*
X41698682Y-62064391D01*
X41677804Y-61997713D01*
X41696288Y-61930333D01*
X41748267Y-61883643D01*
X41801784Y-61871500D01*
X53875500Y-61871500D01*
X53942539Y-61891185D01*
X53988294Y-61943989D01*
X53999500Y-61995500D01*
X53999500Y-62098541D01*
X53999500Y-62098543D01*
X53999499Y-62098543D01*
X54037947Y-62291829D01*
X54037950Y-62291839D01*
X54113364Y-62473907D01*
X54113371Y-62473920D01*
X54222860Y-62637781D01*
X54222863Y-62637785D01*
X54362214Y-62777136D01*
X54362218Y-62777139D01*
X54526079Y-62886628D01*
X54526092Y-62886635D01*
X54635226Y-62931839D01*
X54708165Y-62962051D01*
X54708169Y-62962051D01*
X54708170Y-62962052D01*
X54901456Y-63000500D01*
X54901459Y-63000500D01*
X55098543Y-63000500D01*
X55228582Y-62974632D01*
X55291835Y-62962051D01*
X55473914Y-62886632D01*
X55637782Y-62777139D01*
X55777139Y-62637782D01*
X55886632Y-62473914D01*
X55962051Y-62291835D01*
X55987063Y-62166092D01*
X56000500Y-62098543D01*
X56539499Y-62098543D01*
X56577947Y-62291829D01*
X56577950Y-62291839D01*
X56653364Y-62473907D01*
X56653371Y-62473920D01*
X56762860Y-62637781D01*
X56762863Y-62637785D01*
X56902214Y-62777136D01*
X56902218Y-62777139D01*
X57066079Y-62886628D01*
X57066092Y-62886635D01*
X57175226Y-62931839D01*
X57248165Y-62962051D01*
X57248169Y-62962051D01*
X57248170Y-62962052D01*
X57441456Y-63000500D01*
X57441459Y-63000500D01*
X57638543Y-63000500D01*
X57768582Y-62974632D01*
X57831835Y-62962051D01*
X58013914Y-62886632D01*
X58177782Y-62777139D01*
X58317139Y-62637782D01*
X58426632Y-62473914D01*
X58459852Y-62393713D01*
X65599500Y-62393713D01*
X65599500Y-62606286D01*
X65617084Y-62717311D01*
X65632754Y-62816243D01*
X65688676Y-62988353D01*
X65698444Y-63018414D01*
X65794951Y-63207820D01*
X65919890Y-63379786D01*
X66070213Y-63530109D01*
X66242179Y-63655048D01*
X66242181Y-63655049D01*
X66242184Y-63655051D01*
X66431588Y-63751557D01*
X66633757Y-63817246D01*
X66843713Y-63850500D01*
X67050500Y-63850500D01*
X67117539Y-63870185D01*
X67163294Y-63922989D01*
X67171719Y-63961719D01*
X67173439Y-63961493D01*
X67174500Y-63969552D01*
X67196682Y-64052340D01*
X67218108Y-64089450D01*
X67239535Y-64126562D01*
X68786101Y-65673128D01*
X70304281Y-67191307D01*
X70337766Y-67252630D01*
X70340600Y-67278988D01*
X70340600Y-67721011D01*
X70320915Y-67788050D01*
X70304281Y-67808692D01*
X67239537Y-70873435D01*
X67239533Y-70873441D01*
X67196681Y-70947661D01*
X67196682Y-70947662D01*
X67174500Y-71030447D01*
X67173439Y-71038507D01*
X67170783Y-71038157D01*
X67154815Y-71092539D01*
X67102011Y-71138294D01*
X67050500Y-71149500D01*
X66843713Y-71149500D01*
X66795042Y-71157208D01*
X66633760Y-71182753D01*
X66431585Y-71248444D01*
X66242179Y-71344951D01*
X66070213Y-71469890D01*
X65919890Y-71620213D01*
X65794951Y-71792179D01*
X65698444Y-71981585D01*
X65632753Y-72183760D01*
X65599500Y-72393713D01*
X65599500Y-72606286D01*
X65619540Y-72732817D01*
X65632754Y-72816243D01*
X65696905Y-73013680D01*
X65698444Y-73018414D01*
X65794951Y-73207820D01*
X65919890Y-73379786D01*
X66070213Y-73530109D01*
X66242179Y-73655048D01*
X66242181Y-73655049D01*
X66242184Y-73655051D01*
X66431588Y-73751557D01*
X66633757Y-73817246D01*
X66843713Y-73850500D01*
X66843714Y-73850500D01*
X68156286Y-73850500D01*
X68156287Y-73850500D01*
X68366243Y-73817246D01*
X68568412Y-73751557D01*
X68757816Y-73655051D01*
X68789297Y-73632179D01*
X68929786Y-73530109D01*
X68929788Y-73530106D01*
X68929792Y-73530104D01*
X69080104Y-73379792D01*
X69080106Y-73379788D01*
X69080109Y-73379786D01*
X69205048Y-73207820D01*
X69205047Y-73207820D01*
X69205051Y-73207816D01*
X69301557Y-73018412D01*
X69367246Y-72816243D01*
X69400500Y-72606287D01*
X69400500Y-72393713D01*
X69367246Y-72183757D01*
X69301557Y-71981588D01*
X69205051Y-71792184D01*
X69205049Y-71792181D01*
X69205048Y-71792179D01*
X69080109Y-71620213D01*
X68929786Y-71469890D01*
X68757820Y-71344951D01*
X68568414Y-71248444D01*
X68568413Y-71248443D01*
X68568412Y-71248443D01*
X68366243Y-71182754D01*
X68366241Y-71182753D01*
X68366239Y-71182753D01*
X68161705Y-71150358D01*
X68098570Y-71120429D01*
X68061639Y-71061117D01*
X68062637Y-70991255D01*
X68093420Y-70940206D01*
X70865959Y-68167666D01*
X70865962Y-68167665D01*
X70926565Y-68107062D01*
X70929334Y-68102265D01*
X70938718Y-68092626D01*
X70963059Y-68078906D01*
X70985622Y-68062431D01*
X70993077Y-68061986D01*
X70999585Y-68058319D01*
X71027479Y-68059937D01*
X71055368Y-68058276D01*
X71061880Y-68061933D01*
X71069338Y-68062366D01*
X71091928Y-68078807D01*
X71116289Y-68092488D01*
X71119790Y-68099086D01*
X71125829Y-68103481D01*
X71135943Y-68129524D01*
X71149042Y-68154205D01*
X71150044Y-68159722D01*
X71182351Y-68363703D01*
X71182754Y-68366243D01*
X71224801Y-68495651D01*
X71248444Y-68568414D01*
X71344951Y-68757820D01*
X71469890Y-68929786D01*
X71620213Y-69080109D01*
X71792179Y-69205048D01*
X71792181Y-69205049D01*
X71792184Y-69205051D01*
X71981588Y-69301557D01*
X72183757Y-69367246D01*
X72393713Y-69400500D01*
X72393714Y-69400500D01*
X72606286Y-69400500D01*
X72606287Y-69400500D01*
X72816243Y-69367246D01*
X73018412Y-69301557D01*
X73207816Y-69205051D01*
X73229789Y-69189086D01*
X73379786Y-69080109D01*
X73379788Y-69080106D01*
X73379792Y-69080104D01*
X73530104Y-68929792D01*
X73530106Y-68929788D01*
X73530109Y-68929786D01*
X73655048Y-68757820D01*
X73655047Y-68757820D01*
X73655051Y-68757816D01*
X73751557Y-68568412D01*
X73817246Y-68366243D01*
X73850500Y-68156287D01*
X73850500Y-66843713D01*
X73817246Y-66633757D01*
X73751557Y-66431588D01*
X73655051Y-66242184D01*
X73655049Y-66242181D01*
X73655048Y-66242179D01*
X73530109Y-66070213D01*
X73379786Y-65919890D01*
X73207820Y-65794951D01*
X73018414Y-65698444D01*
X73018413Y-65698443D01*
X73018412Y-65698443D01*
X72816243Y-65632754D01*
X72816241Y-65632753D01*
X72816240Y-65632753D01*
X72654957Y-65607208D01*
X72606287Y-65599500D01*
X72393713Y-65599500D01*
X72345042Y-65607208D01*
X72183760Y-65632753D01*
X71981585Y-65698444D01*
X71792179Y-65794951D01*
X71620213Y-65919890D01*
X71469890Y-66070213D01*
X71344951Y-66242179D01*
X71248444Y-66431585D01*
X71182753Y-66633760D01*
X71150044Y-66840277D01*
X71144269Y-66852457D01*
X71143114Y-66865887D01*
X71129596Y-66883410D01*
X71120115Y-66903412D01*
X71108671Y-66910537D01*
X71100439Y-66921210D01*
X71079591Y-66928644D01*
X71060803Y-66940343D01*
X71047324Y-66940150D01*
X71034628Y-66944678D01*
X71013070Y-66939661D01*
X70990941Y-66939345D01*
X70978226Y-66931552D01*
X70966577Y-66928841D01*
X70949262Y-66913799D01*
X70938632Y-66907284D01*
X70929304Y-66897682D01*
X70926565Y-66892938D01*
X70865962Y-66832335D01*
X70865959Y-66832333D01*
X68093422Y-64059795D01*
X68059937Y-63998472D01*
X68064921Y-63928780D01*
X68106793Y-63872847D01*
X68161703Y-63849642D01*
X68319812Y-63824599D01*
X68366238Y-63817247D01*
X68366238Y-63817246D01*
X68366243Y-63817246D01*
X68568412Y-63751557D01*
X68757816Y-63655051D01*
X68779789Y-63639086D01*
X68929786Y-63530109D01*
X68929788Y-63530106D01*
X68929792Y-63530104D01*
X69080104Y-63379792D01*
X69080106Y-63379788D01*
X69080109Y-63379786D01*
X69205048Y-63207820D01*
X69205047Y-63207820D01*
X69205051Y-63207816D01*
X69301557Y-63018412D01*
X69367246Y-62816243D01*
X69400500Y-62606287D01*
X69400500Y-62393713D01*
X69367246Y-62183757D01*
X69301557Y-61981588D01*
X69205051Y-61792184D01*
X69205049Y-61792181D01*
X69205048Y-61792179D01*
X69080109Y-61620213D01*
X68929786Y-61469890D01*
X68757820Y-61344951D01*
X68568414Y-61248444D01*
X68568413Y-61248443D01*
X68568412Y-61248443D01*
X68366243Y-61182754D01*
X68366241Y-61182753D01*
X68366240Y-61182753D01*
X68204957Y-61157208D01*
X68156287Y-61149500D01*
X66843713Y-61149500D01*
X66795042Y-61157208D01*
X66633760Y-61182753D01*
X66633757Y-61182754D01*
X66449319Y-61242682D01*
X66431585Y-61248444D01*
X66242179Y-61344951D01*
X66070213Y-61469890D01*
X65919890Y-61620213D01*
X65794951Y-61792179D01*
X65698444Y-61981585D01*
X65698443Y-61981587D01*
X65698443Y-61981588D01*
X65693196Y-61997738D01*
X65632753Y-62183760D01*
X65599500Y-62393713D01*
X58459852Y-62393713D01*
X58481526Y-62341388D01*
X58485725Y-62331249D01*
X58502051Y-62291835D01*
X58527063Y-62166092D01*
X58540500Y-62098543D01*
X58540500Y-61901456D01*
X58502052Y-61708170D01*
X58502051Y-61708169D01*
X58502051Y-61708165D01*
X58469867Y-61630465D01*
X58426635Y-61526092D01*
X58426628Y-61526079D01*
X58317139Y-61362218D01*
X58317136Y-61362214D01*
X58295305Y-61340383D01*
X58261820Y-61279060D01*
X58266804Y-61209368D01*
X58295303Y-61165023D01*
X63160325Y-56300000D01*
X65513603Y-56300000D01*
X66329288Y-56300000D01*
X66324979Y-56310402D01*
X66300000Y-56435981D01*
X66300000Y-56564019D01*
X66324979Y-56689598D01*
X66329288Y-56700000D01*
X65513603Y-56700000D01*
X65535704Y-56839544D01*
X65606230Y-57056604D01*
X65709849Y-57259966D01*
X65844004Y-57444614D01*
X66005385Y-57605995D01*
X66190033Y-57740150D01*
X66393395Y-57843769D01*
X66610455Y-57914295D01*
X66835884Y-57950000D01*
X67300000Y-57950000D01*
X67300000Y-57150000D01*
X67700000Y-57150000D01*
X67700000Y-57950000D01*
X68164116Y-57950000D01*
X68389544Y-57914295D01*
X68606604Y-57843769D01*
X68809966Y-57740150D01*
X68994614Y-57605995D01*
X69155995Y-57444614D01*
X69290150Y-57259966D01*
X69393769Y-57056604D01*
X69464295Y-56839544D01*
X69486397Y-56700000D01*
X68670712Y-56700000D01*
X68675021Y-56689598D01*
X68700000Y-56564019D01*
X68700000Y-56435981D01*
X68675021Y-56310402D01*
X68670712Y-56300000D01*
X69486397Y-56300000D01*
X69464295Y-56160455D01*
X69393769Y-55943395D01*
X69290150Y-55740033D01*
X69155995Y-55555385D01*
X68994614Y-55394004D01*
X68809966Y-55259849D01*
X68606604Y-55156230D01*
X68389544Y-55085704D01*
X68164116Y-55050000D01*
X67700000Y-55050000D01*
X67700000Y-55850000D01*
X67300000Y-55850000D01*
X67300000Y-55050000D01*
X66835884Y-55050000D01*
X66610455Y-55085704D01*
X66393395Y-55156230D01*
X66190033Y-55259849D01*
X66005385Y-55394004D01*
X65844004Y-55555385D01*
X65709849Y-55740033D01*
X65606230Y-55943395D01*
X65535704Y-56160455D01*
X65513603Y-56300000D01*
X63160325Y-56300000D01*
X66625629Y-52834696D01*
X66686950Y-52801213D01*
X66756642Y-52806197D01*
X66769592Y-52811889D01*
X66859146Y-52857519D01*
X66924003Y-52890566D01*
X66924005Y-52890566D01*
X66924008Y-52890568D01*
X67044412Y-52929689D01*
X67148631Y-52963553D01*
X67381903Y-53000500D01*
X67381908Y-53000500D01*
X67618097Y-53000500D01*
X67851368Y-52963553D01*
X68075992Y-52890568D01*
X68286433Y-52783343D01*
X68477510Y-52644517D01*
X68644517Y-52477510D01*
X68783343Y-52286433D01*
X68890568Y-52075992D01*
X68963553Y-51851368D01*
X68977774Y-51761582D01*
X68998735Y-51629240D01*
X68998735Y-51629239D01*
X69000500Y-51618096D01*
X69000500Y-51381902D01*
X68963553Y-51148631D01*
X68940977Y-51079151D01*
X68890568Y-50924008D01*
X68890565Y-50924004D01*
X68890565Y-50924001D01*
X68871868Y-50887307D01*
X68871867Y-50887306D01*
X68864212Y-50872282D01*
X68845666Y-50835883D01*
X71050000Y-50835883D01*
X71050000Y-51300000D01*
X71850000Y-51300000D01*
X71850000Y-51700000D01*
X71050000Y-51700000D01*
X71050000Y-52164116D01*
X71085704Y-52389544D01*
X71156230Y-52606604D01*
X71259849Y-52809966D01*
X71394004Y-52994614D01*
X71555385Y-53155995D01*
X71740033Y-53290150D01*
X71943395Y-53393769D01*
X72160455Y-53464295D01*
X72300000Y-53486397D01*
X72300000Y-52670712D01*
X72310402Y-52675021D01*
X72435981Y-52700000D01*
X72564019Y-52700000D01*
X72689598Y-52675021D01*
X72700000Y-52670712D01*
X72700000Y-53486396D01*
X72839544Y-53464295D01*
X73056604Y-53393769D01*
X73259966Y-53290150D01*
X73444614Y-53155995D01*
X73605995Y-52994614D01*
X73740150Y-52809966D01*
X73843769Y-52606604D01*
X73914295Y-52389544D01*
X73950000Y-52164116D01*
X73950000Y-51700000D01*
X73150000Y-51700000D01*
X73150000Y-51300000D01*
X73950000Y-51300000D01*
X73950000Y-50835883D01*
X73914295Y-50610455D01*
X73843769Y-50393395D01*
X73740150Y-50190033D01*
X73605995Y-50005385D01*
X73444614Y-49844004D01*
X73259966Y-49709849D01*
X73056604Y-49606230D01*
X72839545Y-49535704D01*
X72700000Y-49513601D01*
X72700000Y-50329287D01*
X72689598Y-50324979D01*
X72564019Y-50300000D01*
X72435981Y-50300000D01*
X72310402Y-50324979D01*
X72300000Y-50329287D01*
X72300000Y-49513601D01*
X72160455Y-49535704D01*
X72160452Y-49535704D01*
X71943395Y-49606230D01*
X71740033Y-49709849D01*
X71555385Y-49844004D01*
X71394004Y-50005385D01*
X71259849Y-50190033D01*
X71156230Y-50393395D01*
X71085704Y-50610455D01*
X71050000Y-50835883D01*
X68845666Y-50835883D01*
X68783343Y-50713567D01*
X68644517Y-50522490D01*
X68477510Y-50355483D01*
X68286433Y-50216657D01*
X68075996Y-50109433D01*
X67851368Y-50036446D01*
X67618097Y-49999500D01*
X67618092Y-49999500D01*
X67381908Y-49999500D01*
X67381903Y-49999500D01*
X67148631Y-50036446D01*
X66924003Y-50109433D01*
X66713566Y-50216657D01*
X66604550Y-50295862D01*
X66522490Y-50355483D01*
X66522488Y-50355485D01*
X66522487Y-50355485D01*
X66355485Y-50522487D01*
X66355485Y-50522488D01*
X66355483Y-50522490D01*
X66315312Y-50577781D01*
X66216657Y-50713566D01*
X66109433Y-50924003D01*
X66036446Y-51148631D01*
X65999500Y-51381902D01*
X65999500Y-51618097D01*
X66036446Y-51851368D01*
X66109433Y-52075996D01*
X66188104Y-52230395D01*
X66201000Y-52299064D01*
X66174724Y-52363805D01*
X66165300Y-52374371D01*
X57576492Y-60963181D01*
X57515169Y-60996666D01*
X57488811Y-60999500D01*
X57441457Y-60999500D01*
X57248170Y-61037947D01*
X57248160Y-61037950D01*
X57066092Y-61113364D01*
X57066079Y-61113371D01*
X56902218Y-61222860D01*
X56902214Y-61222863D01*
X56762863Y-61362214D01*
X56762860Y-61362218D01*
X56653371Y-61526079D01*
X56653364Y-61526092D01*
X56577950Y-61708160D01*
X56577947Y-61708170D01*
X56539500Y-61901456D01*
X56539500Y-61901459D01*
X56539500Y-62098541D01*
X56539500Y-62098543D01*
X56539499Y-62098543D01*
X56000500Y-62098543D01*
X56000500Y-61901456D01*
X55962052Y-61708170D01*
X55962051Y-61708169D01*
X55962051Y-61708165D01*
X55929867Y-61630465D01*
X55886635Y-61526092D01*
X55886628Y-61526079D01*
X55777139Y-61362218D01*
X55777136Y-61362214D01*
X55637785Y-61222863D01*
X55637781Y-61222860D01*
X55473920Y-61113371D01*
X55473907Y-61113364D01*
X55291839Y-61037950D01*
X55291829Y-61037947D01*
X55098543Y-60999500D01*
X55098541Y-60999500D01*
X54901459Y-60999500D01*
X54901457Y-60999500D01*
X54708170Y-61037947D01*
X54708160Y-61037950D01*
X54526093Y-61113364D01*
X54526075Y-61113374D01*
X54397026Y-61199602D01*
X54330349Y-61220480D01*
X54328136Y-61220500D01*
X41411414Y-61220500D01*
X41344375Y-61200815D01*
X41298620Y-61148011D01*
X41288676Y-61078853D01*
X41317701Y-61015297D01*
X41349027Y-60990283D01*
X41348849Y-60990017D01*
X41351984Y-60987921D01*
X41352965Y-60987139D01*
X41353907Y-60986634D01*
X41353914Y-60986632D01*
X41517782Y-60877139D01*
X41657139Y-60737782D01*
X41766632Y-60573914D01*
X41842051Y-60391835D01*
X41875687Y-60222738D01*
X41880500Y-60198543D01*
X41880500Y-60001456D01*
X41842052Y-59808170D01*
X41842051Y-59808169D01*
X41842051Y-59808165D01*
X41842049Y-59808160D01*
X41766635Y-59626092D01*
X41766628Y-59626079D01*
X41657139Y-59462218D01*
X41657136Y-59462214D01*
X41517785Y-59322863D01*
X41517781Y-59322860D01*
X41353920Y-59213371D01*
X41353907Y-59213364D01*
X41171839Y-59137950D01*
X41171829Y-59137947D01*
X40978543Y-59099500D01*
X40978541Y-59099500D01*
X40781459Y-59099500D01*
X40781457Y-59099500D01*
X40588170Y-59137947D01*
X40588160Y-59137950D01*
X40406092Y-59213364D01*
X40406079Y-59213371D01*
X40242218Y-59322860D01*
X40242214Y-59322863D01*
X40102863Y-59462214D01*
X40102860Y-59462218D01*
X39993371Y-59626079D01*
X39993364Y-59626092D01*
X39917950Y-59808160D01*
X39917947Y-59808170D01*
X39879500Y-60001456D01*
X39879500Y-60001459D01*
X39879500Y-60198541D01*
X39879500Y-60198543D01*
X39879499Y-60198543D01*
X39917947Y-60391829D01*
X39917950Y-60391839D01*
X39993364Y-60573907D01*
X39993371Y-60573920D01*
X40102860Y-60737781D01*
X40102863Y-60737785D01*
X40242214Y-60877136D01*
X40242218Y-60877139D01*
X40406079Y-60986628D01*
X40407035Y-60987139D01*
X40407441Y-60987538D01*
X40411151Y-60990017D01*
X40410681Y-60990720D01*
X40456881Y-61036100D01*
X40472344Y-61104237D01*
X40448515Y-61169918D01*
X40392959Y-61212289D01*
X40348586Y-61220500D01*
X25988647Y-61220500D01*
X25905859Y-61242682D01*
X25831638Y-61285535D01*
X25831635Y-61285537D01*
X24312181Y-62804992D01*
X24250858Y-62838477D01*
X24181166Y-62833493D01*
X24125233Y-62791621D01*
X24100816Y-62726157D01*
X24100500Y-62717311D01*
X24100500Y-62541456D01*
X24062052Y-62348170D01*
X24062051Y-62348169D01*
X24062051Y-62348165D01*
X23993952Y-62183757D01*
X23986635Y-62166092D01*
X23986628Y-62166079D01*
X23877139Y-62002218D01*
X23877136Y-62002214D01*
X23782103Y-61907181D01*
X23748618Y-61845858D01*
X23753602Y-61776166D01*
X23795474Y-61720233D01*
X23860938Y-61695816D01*
X23869784Y-61695500D01*
X23993851Y-61695500D01*
X23993853Y-61695500D01*
X24076639Y-61673318D01*
X24150862Y-61630465D01*
X26902616Y-58878711D01*
X45649500Y-58878711D01*
X45649500Y-59121288D01*
X45681161Y-59361785D01*
X45743947Y-59596104D01*
X45831784Y-59808160D01*
X45836776Y-59820212D01*
X45958064Y-60030289D01*
X45958066Y-60030292D01*
X45958067Y-60030293D01*
X46105733Y-60222736D01*
X46105739Y-60222743D01*
X46277256Y-60394260D01*
X46277262Y-60394265D01*
X46469711Y-60541936D01*
X46679788Y-60663224D01*
X46903900Y-60756054D01*
X47138211Y-60818838D01*
X47318586Y-60842584D01*
X47378711Y-60850500D01*
X47378712Y-60850500D01*
X47621289Y-60850500D01*
X47669388Y-60844167D01*
X47861789Y-60818838D01*
X48096100Y-60756054D01*
X48320212Y-60663224D01*
X48530289Y-60541936D01*
X48722738Y-60394265D01*
X48894265Y-60222738D01*
X49041936Y-60030289D01*
X49163224Y-59820212D01*
X49256054Y-59596100D01*
X49318838Y-59361789D01*
X49350500Y-59121288D01*
X49350500Y-58878712D01*
X49318838Y-58638211D01*
X49256054Y-58403900D01*
X49163224Y-58179788D01*
X49041936Y-57969711D01*
X48894265Y-57777262D01*
X48894260Y-57777256D01*
X48722743Y-57605739D01*
X48722736Y-57605733D01*
X48530293Y-57458067D01*
X48530292Y-57458066D01*
X48530289Y-57458064D01*
X48320212Y-57336776D01*
X48320205Y-57336773D01*
X48096104Y-57243947D01*
X47861785Y-57181161D01*
X47621289Y-57149500D01*
X47621288Y-57149500D01*
X47378712Y-57149500D01*
X47378711Y-57149500D01*
X47138214Y-57181161D01*
X46903895Y-57243947D01*
X46679794Y-57336773D01*
X46679785Y-57336777D01*
X46469706Y-57458067D01*
X46277263Y-57605733D01*
X46277256Y-57605739D01*
X46105739Y-57777256D01*
X46105733Y-57777263D01*
X45958067Y-57969706D01*
X45836777Y-58179785D01*
X45836773Y-58179794D01*
X45743947Y-58403895D01*
X45681161Y-58638214D01*
X45649500Y-58878711D01*
X26902616Y-58878711D01*
X28122784Y-57658543D01*
X39879499Y-57658543D01*
X39917947Y-57851829D01*
X39917950Y-57851839D01*
X39993364Y-58033907D01*
X39993371Y-58033920D01*
X40102860Y-58197781D01*
X40102863Y-58197785D01*
X40242214Y-58337136D01*
X40242218Y-58337139D01*
X40406079Y-58446628D01*
X40406092Y-58446635D01*
X40536867Y-58500803D01*
X40588165Y-58522051D01*
X40588169Y-58522051D01*
X40588170Y-58522052D01*
X40781456Y-58560500D01*
X40781459Y-58560500D01*
X40978543Y-58560500D01*
X41108582Y-58534632D01*
X41171835Y-58522051D01*
X41353914Y-58446632D01*
X41517782Y-58337139D01*
X41657139Y-58197782D01*
X41766632Y-58033914D01*
X41842051Y-57851835D01*
X41880500Y-57658541D01*
X41880500Y-57461459D01*
X41880500Y-57461456D01*
X41842052Y-57268170D01*
X41842051Y-57268169D01*
X41842051Y-57268165D01*
X41832019Y-57243946D01*
X41766635Y-57086092D01*
X41766628Y-57086079D01*
X41657139Y-56922218D01*
X41657136Y-56922214D01*
X41517785Y-56782863D01*
X41517781Y-56782860D01*
X41353920Y-56673371D01*
X41353907Y-56673364D01*
X41171839Y-56597950D01*
X41171829Y-56597947D01*
X40978543Y-56559500D01*
X40978541Y-56559500D01*
X40781459Y-56559500D01*
X40781457Y-56559500D01*
X40588170Y-56597947D01*
X40588160Y-56597950D01*
X40406092Y-56673364D01*
X40406079Y-56673371D01*
X40242218Y-56782860D01*
X40242214Y-56782863D01*
X40102863Y-56922214D01*
X40102860Y-56922218D01*
X39993371Y-57086079D01*
X39993364Y-57086092D01*
X39917950Y-57268160D01*
X39917947Y-57268170D01*
X39879500Y-57461456D01*
X39879500Y-57461459D01*
X39879500Y-57658541D01*
X39879500Y-57658543D01*
X39879499Y-57658543D01*
X28122784Y-57658543D01*
X30662784Y-55118543D01*
X39879499Y-55118543D01*
X39917947Y-55311829D01*
X39917950Y-55311839D01*
X39993364Y-55493907D01*
X39993371Y-55493920D01*
X40102860Y-55657781D01*
X40102863Y-55657785D01*
X40242214Y-55797136D01*
X40242218Y-55797139D01*
X40406079Y-55906628D01*
X40406092Y-55906635D01*
X40588160Y-55982049D01*
X40588165Y-55982051D01*
X40588169Y-55982051D01*
X40588170Y-55982052D01*
X40781456Y-56020500D01*
X40781459Y-56020500D01*
X40978543Y-56020500D01*
X41108582Y-55994632D01*
X41171835Y-55982051D01*
X41353914Y-55906632D01*
X41517782Y-55797139D01*
X41657139Y-55657782D01*
X41766632Y-55493914D01*
X41842051Y-55311835D01*
X41880500Y-55118541D01*
X41880500Y-54921459D01*
X41880500Y-54921456D01*
X41842052Y-54728170D01*
X41842051Y-54728169D01*
X41842051Y-54728165D01*
X41833765Y-54708160D01*
X41766635Y-54546092D01*
X41766628Y-54546079D01*
X41657139Y-54382218D01*
X41657136Y-54382214D01*
X41517785Y-54242863D01*
X41517781Y-54242860D01*
X41353920Y-54133371D01*
X41353907Y-54133364D01*
X41171839Y-54057950D01*
X41171829Y-54057947D01*
X40978543Y-54019500D01*
X40978541Y-54019500D01*
X40781459Y-54019500D01*
X40781457Y-54019500D01*
X40588170Y-54057947D01*
X40588160Y-54057950D01*
X40406092Y-54133364D01*
X40406079Y-54133371D01*
X40242218Y-54242860D01*
X40242214Y-54242863D01*
X40102863Y-54382214D01*
X40102860Y-54382218D01*
X39993371Y-54546079D01*
X39993364Y-54546092D01*
X39917950Y-54728160D01*
X39917947Y-54728170D01*
X39879500Y-54921456D01*
X39879500Y-54921459D01*
X39879500Y-55118541D01*
X39879500Y-55118543D01*
X39879499Y-55118543D01*
X30662784Y-55118543D01*
X33941113Y-51840214D01*
X39874500Y-51840214D01*
X39874500Y-53119785D01*
X39890140Y-53198417D01*
X39890145Y-53198433D01*
X39920586Y-53271925D01*
X39920588Y-53271929D01*
X39920590Y-53271932D01*
X39965138Y-53338601D01*
X40021399Y-53394862D01*
X40088068Y-53439410D01*
X40088071Y-53439411D01*
X40088074Y-53439413D01*
X40161566Y-53469854D01*
X40161571Y-53469855D01*
X40161577Y-53469858D01*
X40240215Y-53485499D01*
X40240217Y-53485500D01*
X40240218Y-53485500D01*
X40958788Y-53485500D01*
X40958793Y-53485500D01*
X40998883Y-53481551D01*
X41153441Y-53450808D01*
X41191993Y-53439114D01*
X41337584Y-53378808D01*
X41373112Y-53359818D01*
X41504140Y-53272268D01*
X41535280Y-53246711D01*
X41646711Y-53135280D01*
X41672268Y-53104140D01*
X41759818Y-52973112D01*
X41778808Y-52937584D01*
X41839114Y-52791993D01*
X41850808Y-52753441D01*
X41881551Y-52598883D01*
X41885500Y-52558793D01*
X41885500Y-52401207D01*
X41881551Y-52361117D01*
X41850808Y-52206559D01*
X41839114Y-52168007D01*
X41778808Y-52022416D01*
X41759818Y-51986888D01*
X41759807Y-51986871D01*
X41672274Y-51855868D01*
X41672270Y-51855863D01*
X41646711Y-51824720D01*
X41535279Y-51713288D01*
X41519088Y-51700000D01*
X41504140Y-51687732D01*
X41504136Y-51687729D01*
X41504131Y-51687725D01*
X41373128Y-51600192D01*
X41373120Y-51600187D01*
X41373112Y-51600182D01*
X41337584Y-51581192D01*
X41298829Y-51565139D01*
X41191997Y-51520887D01*
X41153442Y-51509192D01*
X40998884Y-51478449D01*
X40998885Y-51478449D01*
X40987428Y-51477320D01*
X40958793Y-51474500D01*
X40240218Y-51474500D01*
X40240214Y-51474500D01*
X40161582Y-51490140D01*
X40161566Y-51490145D01*
X40088074Y-51520586D01*
X40021397Y-51565139D01*
X39965139Y-51621397D01*
X39920586Y-51688074D01*
X39890145Y-51761566D01*
X39890140Y-51761582D01*
X39874500Y-51840214D01*
X33941113Y-51840214D01*
X38019508Y-47761819D01*
X38080831Y-47728334D01*
X38107189Y-47725500D01*
X39733647Y-47725500D01*
X39819353Y-47725500D01*
X39849039Y-47725500D01*
X39916078Y-47745185D01*
X39961833Y-47797989D01*
X39963600Y-47802048D01*
X39993364Y-47873907D01*
X39993371Y-47873920D01*
X40102860Y-48037781D01*
X40102863Y-48037785D01*
X40242214Y-48177136D01*
X40242218Y-48177139D01*
X40406079Y-48286628D01*
X40406092Y-48286635D01*
X40588160Y-48362049D01*
X40588165Y-48362051D01*
X40588169Y-48362051D01*
X40588170Y-48362052D01*
X40781456Y-48400500D01*
X40781459Y-48400500D01*
X40978543Y-48400500D01*
X41108582Y-48374632D01*
X41171835Y-48362051D01*
X41353914Y-48286632D01*
X41517782Y-48177139D01*
X41657139Y-48037782D01*
X41766632Y-47873914D01*
X41842051Y-47691835D01*
X41875021Y-47526086D01*
X41880500Y-47498543D01*
X41880500Y-47301456D01*
X41842052Y-47108170D01*
X41842051Y-47108166D01*
X41842051Y-47108165D01*
X41828107Y-47074500D01*
X41766635Y-46926092D01*
X41766628Y-46926079D01*
X41657139Y-46762218D01*
X41657136Y-46762214D01*
X41517785Y-46622863D01*
X41517781Y-46622860D01*
X41353920Y-46513371D01*
X41353907Y-46513364D01*
X41171839Y-46437950D01*
X41171829Y-46437947D01*
X40978543Y-46399500D01*
X40978541Y-46399500D01*
X40781459Y-46399500D01*
X40781457Y-46399500D01*
X40588170Y-46437947D01*
X40588160Y-46437950D01*
X40406092Y-46513364D01*
X40406074Y-46513374D01*
X40294890Y-46587665D01*
X40228213Y-46608543D01*
X40160833Y-46590058D01*
X40114143Y-46538079D01*
X40102000Y-46484563D01*
X40102000Y-45775436D01*
X40121685Y-45708397D01*
X40174489Y-45662642D01*
X40243647Y-45652698D01*
X40294891Y-45672334D01*
X40406079Y-45746628D01*
X40406092Y-45746635D01*
X40588160Y-45822049D01*
X40588165Y-45822051D01*
X40588169Y-45822051D01*
X40588170Y-45822052D01*
X40781456Y-45860500D01*
X40781459Y-45860500D01*
X40978543Y-45860500D01*
X41108582Y-45834632D01*
X41171835Y-45822051D01*
X41353914Y-45746632D01*
X41517782Y-45637139D01*
X41657139Y-45497782D01*
X41766632Y-45333914D01*
X41796400Y-45262048D01*
X41840240Y-45207644D01*
X41906534Y-45185579D01*
X41910961Y-45185500D01*
X44673811Y-45185500D01*
X44740850Y-45205185D01*
X44761492Y-45221819D01*
X54040837Y-54501164D01*
X54074322Y-54562487D01*
X54069338Y-54632179D01*
X54067737Y-54636247D01*
X54037949Y-54708165D01*
X54037947Y-54708171D01*
X53999500Y-54901456D01*
X53999500Y-54901459D01*
X53999500Y-55098541D01*
X53999500Y-55098543D01*
X53999499Y-55098543D01*
X54037947Y-55291829D01*
X54037950Y-55291839D01*
X54113364Y-55473907D01*
X54113371Y-55473920D01*
X54181184Y-55575409D01*
X54202062Y-55642087D01*
X54183577Y-55709467D01*
X54131598Y-55756157D01*
X54078082Y-55768300D01*
X47219989Y-55768300D01*
X47152950Y-55748615D01*
X47132308Y-55731981D01*
X41839162Y-50438835D01*
X41805677Y-50377512D01*
X41810661Y-50307820D01*
X41812251Y-50303776D01*
X41842051Y-50231835D01*
X41880500Y-50038541D01*
X41880500Y-49841459D01*
X41880500Y-49841456D01*
X41842052Y-49648170D01*
X41842051Y-49648169D01*
X41842051Y-49648165D01*
X41824681Y-49606230D01*
X41766635Y-49466092D01*
X41766628Y-49466079D01*
X41657139Y-49302218D01*
X41657136Y-49302214D01*
X41517785Y-49162863D01*
X41517781Y-49162860D01*
X41353920Y-49053371D01*
X41353907Y-49053364D01*
X41171839Y-48977950D01*
X41171829Y-48977947D01*
X40978543Y-48939500D01*
X40978541Y-48939500D01*
X40781459Y-48939500D01*
X40781457Y-48939500D01*
X40588170Y-48977947D01*
X40588160Y-48977950D01*
X40406092Y-49053364D01*
X40406079Y-49053371D01*
X40242218Y-49162860D01*
X40242214Y-49162863D01*
X40102863Y-49302214D01*
X40102860Y-49302218D01*
X39993371Y-49466079D01*
X39993364Y-49466092D01*
X39917950Y-49648160D01*
X39917947Y-49648170D01*
X39879500Y-49841456D01*
X39879500Y-49841459D01*
X39879500Y-50038541D01*
X39879500Y-50038543D01*
X39879499Y-50038543D01*
X39917947Y-50231829D01*
X39917950Y-50231839D01*
X39993364Y-50413907D01*
X39993371Y-50413920D01*
X40102860Y-50577781D01*
X40102863Y-50577785D01*
X40242214Y-50717136D01*
X40242218Y-50717139D01*
X40406079Y-50826628D01*
X40406092Y-50826635D01*
X40581190Y-50899162D01*
X40588165Y-50902051D01*
X40588169Y-50902051D01*
X40588170Y-50902052D01*
X40781456Y-50940500D01*
X40781459Y-50940500D01*
X40978543Y-50940500D01*
X41108582Y-50914632D01*
X41171835Y-50902051D01*
X41243705Y-50872281D01*
X41313169Y-50864813D01*
X41375649Y-50896087D01*
X41378835Y-50899162D01*
X46773334Y-56293661D01*
X46773335Y-56293662D01*
X46833938Y-56354265D01*
X46833940Y-56354266D01*
X46833944Y-56354269D01*
X46908155Y-56397114D01*
X46908162Y-56397118D01*
X46990947Y-56419300D01*
X46990949Y-56419300D01*
X58949051Y-56419300D01*
X58949053Y-56419300D01*
X59031839Y-56397118D01*
X59106062Y-56354265D01*
X59501165Y-55959160D01*
X59562486Y-55925677D01*
X59632177Y-55930661D01*
X59636270Y-55932271D01*
X59708165Y-55962051D01*
X59708169Y-55962051D01*
X59708170Y-55962052D01*
X59901456Y-56000500D01*
X59901459Y-56000500D01*
X60098543Y-56000500D01*
X60228582Y-55974632D01*
X60291835Y-55962051D01*
X60473914Y-55886632D01*
X60637782Y-55777139D01*
X60777139Y-55637782D01*
X60886632Y-55473914D01*
X60962051Y-55291835D01*
X60989025Y-55156230D01*
X61000500Y-55098543D01*
X61000500Y-54901456D01*
X60962052Y-54708170D01*
X60962051Y-54708169D01*
X60962051Y-54708165D01*
X60894919Y-54546092D01*
X60886635Y-54526092D01*
X60886628Y-54526079D01*
X60777139Y-54362218D01*
X60777136Y-54362214D01*
X60637785Y-54222863D01*
X60637781Y-54222860D01*
X60473920Y-54113371D01*
X60473907Y-54113364D01*
X60291839Y-54037950D01*
X60291829Y-54037947D01*
X60098543Y-53999500D01*
X60098541Y-53999500D01*
X59901459Y-53999500D01*
X59901457Y-53999500D01*
X59708170Y-54037947D01*
X59708160Y-54037950D01*
X59526092Y-54113364D01*
X59526079Y-54113371D01*
X59362218Y-54222860D01*
X59362214Y-54222863D01*
X59222863Y-54362214D01*
X59222860Y-54362218D01*
X59113371Y-54526079D01*
X59113364Y-54526092D01*
X59037950Y-54708160D01*
X59037947Y-54708170D01*
X58999500Y-54901456D01*
X58999500Y-54901459D01*
X58999500Y-55098541D01*
X58999500Y-55098543D01*
X58999499Y-55098543D01*
X59037947Y-55291828D01*
X59037948Y-55291831D01*
X59037949Y-55291835D01*
X59046235Y-55311839D01*
X59067717Y-55363703D01*
X59075184Y-55433173D01*
X59043909Y-55495651D01*
X59040837Y-55498835D01*
X58807690Y-55731982D01*
X58746370Y-55765466D01*
X58720011Y-55768300D01*
X55921918Y-55768300D01*
X55854879Y-55748615D01*
X55809124Y-55695811D01*
X55799180Y-55626653D01*
X55818816Y-55575409D01*
X55886628Y-55473920D01*
X55886628Y-55473919D01*
X55886632Y-55473914D01*
X55962051Y-55291835D01*
X55989025Y-55156230D01*
X56000500Y-55098543D01*
X56000500Y-54901456D01*
X55962052Y-54708170D01*
X55962051Y-54708169D01*
X55962051Y-54708165D01*
X55894919Y-54546092D01*
X55886635Y-54526092D01*
X55886628Y-54526079D01*
X55777139Y-54362218D01*
X55777136Y-54362214D01*
X55637785Y-54222863D01*
X55637781Y-54222860D01*
X55473920Y-54113371D01*
X55473907Y-54113364D01*
X55291839Y-54037950D01*
X55291829Y-54037947D01*
X55098543Y-53999500D01*
X55098541Y-53999500D01*
X54901459Y-53999500D01*
X54901457Y-53999500D01*
X54708171Y-54037947D01*
X54708167Y-54037948D01*
X54708165Y-54037949D01*
X54636293Y-54067718D01*
X54566827Y-54075186D01*
X54504348Y-54043910D01*
X54501164Y-54040837D01*
X45059864Y-44599537D01*
X45059862Y-44599535D01*
X45005528Y-44568165D01*
X44985640Y-44556682D01*
X44944246Y-44545591D01*
X44902853Y-44534500D01*
X44902852Y-44534500D01*
X41910961Y-44534500D01*
X41898219Y-44530758D01*
X41884978Y-44531747D01*
X41865346Y-44521105D01*
X41843922Y-44514815D01*
X41833855Y-44504036D01*
X41823552Y-44498452D01*
X41810609Y-44479147D01*
X41802313Y-44470264D01*
X41799019Y-44464276D01*
X41766632Y-44386086D01*
X41706538Y-44296148D01*
X41703961Y-44291464D01*
X41697533Y-44262351D01*
X41688629Y-44233913D01*
X41690084Y-44228609D01*
X41688898Y-44223237D01*
X41699229Y-44195272D01*
X41707114Y-44166533D01*
X41711205Y-44162858D01*
X41713112Y-44157697D01*
X41736922Y-44139757D01*
X41759093Y-44119843D01*
X41765191Y-44118459D01*
X41768916Y-44115653D01*
X41781794Y-44114691D01*
X41812609Y-44107700D01*
X50596011Y-44107700D01*
X50663050Y-44127385D01*
X50683692Y-44144019D01*
X54040837Y-47501164D01*
X54074322Y-47562487D01*
X54069338Y-47632179D01*
X54067737Y-47636247D01*
X54037949Y-47708165D01*
X54037947Y-47708171D01*
X53999500Y-47901456D01*
X53999500Y-47901459D01*
X53999500Y-48098541D01*
X53999500Y-48098543D01*
X53999499Y-48098543D01*
X54037947Y-48291829D01*
X54037950Y-48291839D01*
X54113364Y-48473907D01*
X54113371Y-48473920D01*
X54222860Y-48637781D01*
X54222863Y-48637785D01*
X54362214Y-48777136D01*
X54362218Y-48777139D01*
X54526079Y-48886628D01*
X54526092Y-48886635D01*
X54708160Y-48962049D01*
X54708165Y-48962051D01*
X54708169Y-48962051D01*
X54708170Y-48962052D01*
X54901456Y-49000500D01*
X54901459Y-49000500D01*
X55098543Y-49000500D01*
X55228582Y-48974632D01*
X55291835Y-48962051D01*
X55473914Y-48886632D01*
X55637782Y-48777139D01*
X55777139Y-48637782D01*
X55886632Y-48473914D01*
X55962051Y-48291835D01*
X56000500Y-48098543D01*
X58999499Y-48098543D01*
X59037947Y-48291829D01*
X59037950Y-48291839D01*
X59113364Y-48473907D01*
X59113371Y-48473920D01*
X59222860Y-48637781D01*
X59222863Y-48637785D01*
X59362214Y-48777136D01*
X59362218Y-48777139D01*
X59526079Y-48886628D01*
X59526092Y-48886635D01*
X59708160Y-48962049D01*
X59708165Y-48962051D01*
X59708169Y-48962051D01*
X59708170Y-48962052D01*
X59901456Y-49000500D01*
X59901459Y-49000500D01*
X60098543Y-49000500D01*
X60228582Y-48974632D01*
X60291835Y-48962051D01*
X60473914Y-48886632D01*
X60637782Y-48777139D01*
X60777139Y-48637782D01*
X60886632Y-48473914D01*
X60962051Y-48291835D01*
X61000500Y-48098541D01*
X61000500Y-47901459D01*
X61000500Y-47901456D01*
X60962052Y-47708170D01*
X60962051Y-47708169D01*
X60962051Y-47708165D01*
X60955287Y-47691835D01*
X60886635Y-47526092D01*
X60886628Y-47526079D01*
X60777139Y-47362218D01*
X60777136Y-47362214D01*
X60637785Y-47222863D01*
X60637781Y-47222860D01*
X60473920Y-47113371D01*
X60473907Y-47113364D01*
X60291839Y-47037950D01*
X60291829Y-47037947D01*
X60098543Y-46999500D01*
X60098541Y-46999500D01*
X59901459Y-46999500D01*
X59901457Y-46999500D01*
X59708170Y-47037947D01*
X59708160Y-47037950D01*
X59526092Y-47113364D01*
X59526079Y-47113371D01*
X59362218Y-47222860D01*
X59362214Y-47222863D01*
X59222863Y-47362214D01*
X59222860Y-47362218D01*
X59113371Y-47526079D01*
X59113364Y-47526092D01*
X59037950Y-47708160D01*
X59037947Y-47708170D01*
X58999500Y-47901456D01*
X58999500Y-47901459D01*
X58999500Y-48098541D01*
X58999500Y-48098543D01*
X58999499Y-48098543D01*
X56000500Y-48098543D01*
X56000500Y-48098541D01*
X56000500Y-47901459D01*
X56000500Y-47901456D01*
X55962052Y-47708170D01*
X55962051Y-47708169D01*
X55962051Y-47708165D01*
X55955287Y-47691835D01*
X55886635Y-47526092D01*
X55886628Y-47526079D01*
X55777139Y-47362218D01*
X55777136Y-47362214D01*
X55637785Y-47222863D01*
X55637781Y-47222860D01*
X55473920Y-47113371D01*
X55473907Y-47113364D01*
X55291839Y-47037950D01*
X55291829Y-47037947D01*
X55098543Y-46999500D01*
X55098541Y-46999500D01*
X54901459Y-46999500D01*
X54901457Y-46999500D01*
X54708171Y-47037947D01*
X54708167Y-47037948D01*
X54708165Y-47037949D01*
X54636293Y-47067718D01*
X54566827Y-47075186D01*
X54504348Y-47043910D01*
X54501164Y-47040837D01*
X53760327Y-46300000D01*
X65513603Y-46300000D01*
X66329288Y-46300000D01*
X66324979Y-46310402D01*
X66300000Y-46435981D01*
X66300000Y-46564019D01*
X66324979Y-46689598D01*
X66329288Y-46700000D01*
X65513603Y-46700000D01*
X65535704Y-46839544D01*
X65606230Y-47056604D01*
X65709849Y-47259966D01*
X65844004Y-47444614D01*
X66005385Y-47605995D01*
X66190033Y-47740150D01*
X66393395Y-47843769D01*
X66610455Y-47914295D01*
X66835884Y-47950000D01*
X67300000Y-47950000D01*
X67300000Y-47150000D01*
X67700000Y-47150000D01*
X67700000Y-47950000D01*
X68164116Y-47950000D01*
X68389544Y-47914295D01*
X68606604Y-47843769D01*
X68809966Y-47740150D01*
X68994614Y-47605995D01*
X69155995Y-47444614D01*
X69290150Y-47259966D01*
X69393769Y-47056604D01*
X69464295Y-46839544D01*
X69486397Y-46700000D01*
X68670712Y-46700000D01*
X68675021Y-46689598D01*
X68700000Y-46564019D01*
X68700000Y-46435981D01*
X68675021Y-46310402D01*
X68670712Y-46300000D01*
X69486397Y-46300000D01*
X69464295Y-46160455D01*
X69393769Y-45943395D01*
X69290150Y-45740033D01*
X69155995Y-45555385D01*
X68994614Y-45394004D01*
X68809966Y-45259849D01*
X68606604Y-45156230D01*
X68389544Y-45085704D01*
X68164116Y-45050000D01*
X67700000Y-45050000D01*
X67700000Y-45850000D01*
X67300000Y-45850000D01*
X67300000Y-45050000D01*
X66835884Y-45050000D01*
X66610455Y-45085704D01*
X66393395Y-45156230D01*
X66190033Y-45259849D01*
X66005385Y-45394004D01*
X65844004Y-45555385D01*
X65709849Y-45740033D01*
X65606230Y-45943395D01*
X65535704Y-46160455D01*
X65513603Y-46300000D01*
X53760327Y-46300000D01*
X50982064Y-43521737D01*
X50982062Y-43521735D01*
X50944950Y-43500308D01*
X50907840Y-43478882D01*
X50866446Y-43467791D01*
X50825053Y-43456700D01*
X41373587Y-43456700D01*
X41306548Y-43437015D01*
X41260793Y-43384211D01*
X41250849Y-43315053D01*
X41279874Y-43251497D01*
X41326134Y-43218139D01*
X41339872Y-43212448D01*
X41353914Y-43206632D01*
X41517782Y-43097139D01*
X41657139Y-42957782D01*
X41766632Y-42793914D01*
X41842051Y-42611835D01*
X41861807Y-42512518D01*
X41880500Y-42418543D01*
X41880500Y-42221456D01*
X41842052Y-42028170D01*
X41842051Y-42028169D01*
X41842051Y-42028165D01*
X41826551Y-41990744D01*
X41766635Y-41846092D01*
X41766628Y-41846079D01*
X41657139Y-41682218D01*
X41657136Y-41682214D01*
X41517785Y-41542863D01*
X41517781Y-41542860D01*
X41353920Y-41433371D01*
X41353907Y-41433364D01*
X41171839Y-41357950D01*
X41171829Y-41357947D01*
X40978543Y-41319500D01*
X40978541Y-41319500D01*
X40781459Y-41319500D01*
X40781457Y-41319500D01*
X40588170Y-41357947D01*
X40588160Y-41357950D01*
X40406092Y-41433364D01*
X40406079Y-41433371D01*
X40242218Y-41542860D01*
X40242214Y-41542863D01*
X40102863Y-41682214D01*
X40102860Y-41682218D01*
X39993371Y-41846079D01*
X39993364Y-41846092D01*
X39917950Y-42028160D01*
X39917947Y-42028170D01*
X39879500Y-42221456D01*
X39879500Y-42221459D01*
X39879500Y-42418541D01*
X39879500Y-42418543D01*
X39879499Y-42418543D01*
X39917947Y-42611829D01*
X39917950Y-42611839D01*
X39993364Y-42793907D01*
X39993371Y-42793920D01*
X40102860Y-42957781D01*
X40102863Y-42957785D01*
X40242214Y-43097136D01*
X40242218Y-43097139D01*
X40406079Y-43206628D01*
X40406088Y-43206633D01*
X40433866Y-43218139D01*
X40488269Y-43261980D01*
X40510334Y-43328274D01*
X40493055Y-43395973D01*
X40441918Y-43443584D01*
X40386413Y-43456700D01*
X40365747Y-43456700D01*
X40282962Y-43478882D01*
X40282955Y-43478885D01*
X40208744Y-43521730D01*
X40208736Y-43521736D01*
X39516037Y-44214435D01*
X39516033Y-44214441D01*
X39473181Y-44288661D01*
X39473182Y-44288662D01*
X39451000Y-44371447D01*
X39451000Y-46950500D01*
X39431315Y-47017539D01*
X39378511Y-47063294D01*
X39327000Y-47074500D01*
X37878147Y-47074500D01*
X37795359Y-47096682D01*
X37777105Y-47107222D01*
X37775473Y-47108165D01*
X37766468Y-47113364D01*
X37721138Y-47139534D01*
X24215212Y-60645460D01*
X24153889Y-60678945D01*
X24084197Y-60673961D01*
X24028264Y-60632089D01*
X24003847Y-60566625D01*
X24012969Y-60510329D01*
X24062051Y-60391835D01*
X24095687Y-60222738D01*
X24100500Y-60198543D01*
X24100500Y-60001456D01*
X24062052Y-59808170D01*
X24062051Y-59808169D01*
X24062051Y-59808165D01*
X24062049Y-59808160D01*
X23986635Y-59626092D01*
X23986628Y-59626079D01*
X23877139Y-59462218D01*
X23877136Y-59462214D01*
X23737785Y-59322863D01*
X23737781Y-59322860D01*
X23573920Y-59213371D01*
X23573907Y-59213364D01*
X23391839Y-59137950D01*
X23391829Y-59137947D01*
X23198543Y-59099500D01*
X23198541Y-59099500D01*
X23001459Y-59099500D01*
X23001457Y-59099500D01*
X22808170Y-59137947D01*
X22808160Y-59137950D01*
X22626092Y-59213364D01*
X22626079Y-59213371D01*
X22462218Y-59322860D01*
X22462214Y-59322863D01*
X22322863Y-59462214D01*
X22322860Y-59462218D01*
X22213371Y-59626079D01*
X22213364Y-59626092D01*
X22137950Y-59808160D01*
X22137947Y-59808170D01*
X22099500Y-60001456D01*
X22099500Y-60001459D01*
X22099500Y-60198541D01*
X22099500Y-60198543D01*
X22099499Y-60198543D01*
X22137947Y-60391829D01*
X22137950Y-60391839D01*
X22213364Y-60573907D01*
X22213371Y-60573920D01*
X22322860Y-60737781D01*
X22322863Y-60737785D01*
X22462215Y-60877137D01*
X22462218Y-60877139D01*
X22585132Y-60959267D01*
X22629937Y-61012879D01*
X22638644Y-61082203D01*
X22608490Y-61145231D01*
X22603922Y-61150050D01*
X21756237Y-61997735D01*
X21756233Y-61997741D01*
X21713381Y-62071961D01*
X21713382Y-62071962D01*
X21691200Y-62154747D01*
X20500500Y-62154747D01*
X20500500Y-57473428D01*
X22000000Y-57473428D01*
X22000000Y-57646571D01*
X22027085Y-57817584D01*
X22080591Y-57982257D01*
X22159195Y-58136523D01*
X22159196Y-58136525D01*
X22193463Y-58183691D01*
X22193464Y-58183691D01*
X22631980Y-57745176D01*
X22634075Y-57752993D01*
X22699901Y-57867007D01*
X22792993Y-57960099D01*
X22907007Y-58025925D01*
X22914822Y-58028019D01*
X22476307Y-58466534D01*
X22523478Y-58500805D01*
X22677742Y-58579408D01*
X22842415Y-58632914D01*
X23013429Y-58660000D01*
X23186571Y-58660000D01*
X23357584Y-58632914D01*
X23522257Y-58579408D01*
X23676525Y-58500803D01*
X23723691Y-58466534D01*
X23723692Y-58466533D01*
X23285178Y-58028019D01*
X23292993Y-58025925D01*
X23407007Y-57960099D01*
X23500099Y-57867007D01*
X23565925Y-57752993D01*
X23568019Y-57745177D01*
X24006533Y-58183692D01*
X24006534Y-58183691D01*
X24040803Y-58136525D01*
X24119408Y-57982257D01*
X24172914Y-57817584D01*
X24200000Y-57646571D01*
X24200000Y-57473428D01*
X24172914Y-57302415D01*
X24119408Y-57137742D01*
X24040805Y-56983478D01*
X24006534Y-56936307D01*
X23568019Y-57374822D01*
X23565925Y-57367007D01*
X23500099Y-57252993D01*
X23407007Y-57159901D01*
X23292993Y-57094075D01*
X23285176Y-57091980D01*
X23723691Y-56653464D01*
X23723691Y-56653463D01*
X23676525Y-56619196D01*
X23676523Y-56619195D01*
X23522257Y-56540591D01*
X23357584Y-56487085D01*
X23186571Y-56460000D01*
X23013429Y-56460000D01*
X22842415Y-56487085D01*
X22677740Y-56540592D01*
X22523475Y-56619196D01*
X22476307Y-56653463D01*
X22476307Y-56653464D01*
X22914823Y-57091980D01*
X22907007Y-57094075D01*
X22792993Y-57159901D01*
X22699901Y-57252993D01*
X22634075Y-57367007D01*
X22631980Y-57374823D01*
X22193464Y-56936307D01*
X22193463Y-56936307D01*
X22159196Y-56983475D01*
X22080592Y-57137740D01*
X22027085Y-57302415D01*
X22000000Y-57473428D01*
X20500500Y-57473428D01*
X20500500Y-55118543D01*
X22099499Y-55118543D01*
X22137947Y-55311829D01*
X22137950Y-55311839D01*
X22213364Y-55493907D01*
X22213371Y-55493920D01*
X22322860Y-55657781D01*
X22322863Y-55657785D01*
X22462214Y-55797136D01*
X22462218Y-55797139D01*
X22626079Y-55906628D01*
X22626092Y-55906635D01*
X22808160Y-55982049D01*
X22808165Y-55982051D01*
X22808169Y-55982051D01*
X22808170Y-55982052D01*
X23001456Y-56020500D01*
X23001459Y-56020500D01*
X23198543Y-56020500D01*
X23328582Y-55994632D01*
X23391835Y-55982051D01*
X23573914Y-55906632D01*
X23737782Y-55797139D01*
X23877139Y-55657782D01*
X23986632Y-55493914D01*
X24062051Y-55311835D01*
X24100500Y-55118541D01*
X24100500Y-54921459D01*
X24100500Y-54921456D01*
X24062052Y-54728170D01*
X24062051Y-54728169D01*
X24062051Y-54728165D01*
X24053765Y-54708160D01*
X23986635Y-54546092D01*
X23986628Y-54546079D01*
X23877139Y-54382218D01*
X23877136Y-54382214D01*
X23737785Y-54242863D01*
X23737781Y-54242860D01*
X23573920Y-54133371D01*
X23573907Y-54133364D01*
X23391839Y-54057950D01*
X23391829Y-54057947D01*
X23198543Y-54019500D01*
X23198541Y-54019500D01*
X23001459Y-54019500D01*
X23001457Y-54019500D01*
X22808170Y-54057947D01*
X22808160Y-54057950D01*
X22626092Y-54133364D01*
X22626079Y-54133371D01*
X22462218Y-54242860D01*
X22462214Y-54242863D01*
X22322863Y-54382214D01*
X22322860Y-54382218D01*
X22213371Y-54546079D01*
X22213364Y-54546092D01*
X22137950Y-54728160D01*
X22137947Y-54728170D01*
X22099500Y-54921456D01*
X22099500Y-54921459D01*
X22099500Y-55118541D01*
X22099500Y-55118543D01*
X22099499Y-55118543D01*
X20500500Y-55118543D01*
X20500500Y-52401211D01*
X22094500Y-52401211D01*
X22094500Y-52558788D01*
X22098449Y-52598884D01*
X22129192Y-52753442D01*
X22140887Y-52791997D01*
X22149129Y-52811894D01*
X22201192Y-52937584D01*
X22220182Y-52973112D01*
X22220187Y-52973120D01*
X22220192Y-52973128D01*
X22307725Y-53104131D01*
X22307729Y-53104136D01*
X22307732Y-53104140D01*
X22333289Y-53135280D01*
X22444720Y-53246711D01*
X22475860Y-53272268D01*
X22475863Y-53272270D01*
X22475868Y-53272274D01*
X22606871Y-53359807D01*
X22606874Y-53359809D01*
X22606888Y-53359818D01*
X22642416Y-53378808D01*
X22788007Y-53439114D01*
X22826559Y-53450808D01*
X22981117Y-53481551D01*
X23021207Y-53485500D01*
X23021212Y-53485500D01*
X23739783Y-53485500D01*
X23739783Y-53485499D01*
X23818423Y-53469858D01*
X23831854Y-53464295D01*
X23891925Y-53439413D01*
X23891925Y-53439412D01*
X23891932Y-53439410D01*
X23958601Y-53394862D01*
X24014862Y-53338601D01*
X24059410Y-53271932D01*
X24089858Y-53198423D01*
X24105500Y-53119782D01*
X24105500Y-51840218D01*
X24089858Y-51761577D01*
X24089855Y-51761571D01*
X24089854Y-51761566D01*
X24059413Y-51688074D01*
X24059411Y-51688071D01*
X24059410Y-51688068D01*
X24014862Y-51621399D01*
X23958601Y-51565138D01*
X23891932Y-51520590D01*
X23891929Y-51520588D01*
X23891925Y-51520586D01*
X23818433Y-51490145D01*
X23818417Y-51490140D01*
X23739785Y-51474500D01*
X23739782Y-51474500D01*
X23021207Y-51474500D01*
X22992571Y-51477320D01*
X22981115Y-51478449D01*
X22826557Y-51509192D01*
X22788002Y-51520887D01*
X22642422Y-51581189D01*
X22642415Y-51581192D01*
X22614182Y-51596282D01*
X22606888Y-51600182D01*
X22606885Y-51600183D01*
X22606871Y-51600192D01*
X22475868Y-51687725D01*
X22475863Y-51687729D01*
X22444720Y-51713288D01*
X22333288Y-51824720D01*
X22307729Y-51855863D01*
X22307725Y-51855868D01*
X22220192Y-51986871D01*
X22220180Y-51986892D01*
X22201192Y-52022415D01*
X22201189Y-52022422D01*
X22140887Y-52168002D01*
X22129192Y-52206557D01*
X22098449Y-52361115D01*
X22094500Y-52401211D01*
X20500500Y-52401211D01*
X20500500Y-50038543D01*
X22099499Y-50038543D01*
X22137947Y-50231829D01*
X22137950Y-50231839D01*
X22213364Y-50413907D01*
X22213371Y-50413920D01*
X22322860Y-50577781D01*
X22322863Y-50577785D01*
X22462214Y-50717136D01*
X22462218Y-50717139D01*
X22626079Y-50826628D01*
X22626092Y-50826635D01*
X22801190Y-50899162D01*
X22808165Y-50902051D01*
X22808169Y-50902051D01*
X22808170Y-50902052D01*
X23001456Y-50940500D01*
X23001459Y-50940500D01*
X23198543Y-50940500D01*
X23328582Y-50914632D01*
X23391835Y-50902051D01*
X23573914Y-50826632D01*
X23737782Y-50717139D01*
X23877139Y-50577782D01*
X23986632Y-50413914D01*
X24062051Y-50231835D01*
X24100500Y-50038541D01*
X24100500Y-49841459D01*
X24100500Y-49841456D01*
X24062052Y-49648170D01*
X24062051Y-49648169D01*
X24062051Y-49648165D01*
X24044681Y-49606230D01*
X23986635Y-49466092D01*
X23986628Y-49466079D01*
X23877139Y-49302218D01*
X23877136Y-49302214D01*
X23737785Y-49162863D01*
X23737781Y-49162860D01*
X23573920Y-49053371D01*
X23573907Y-49053364D01*
X23391839Y-48977950D01*
X23391829Y-48977947D01*
X23198543Y-48939500D01*
X23198541Y-48939500D01*
X23001459Y-48939500D01*
X23001457Y-48939500D01*
X22808170Y-48977947D01*
X22808160Y-48977950D01*
X22626092Y-49053364D01*
X22626079Y-49053371D01*
X22462218Y-49162860D01*
X22462214Y-49162863D01*
X22322863Y-49302214D01*
X22322860Y-49302218D01*
X22213371Y-49466079D01*
X22213364Y-49466092D01*
X22137950Y-49648160D01*
X22137947Y-49648170D01*
X22099500Y-49841456D01*
X22099500Y-49841459D01*
X22099500Y-50038541D01*
X22099500Y-50038543D01*
X22099499Y-50038543D01*
X20500500Y-50038543D01*
X20500500Y-47498543D01*
X22099499Y-47498543D01*
X22137947Y-47691829D01*
X22137950Y-47691839D01*
X22213364Y-47873907D01*
X22213371Y-47873920D01*
X22322860Y-48037781D01*
X22322863Y-48037785D01*
X22462214Y-48177136D01*
X22462218Y-48177139D01*
X22626079Y-48286628D01*
X22626092Y-48286635D01*
X22808160Y-48362049D01*
X22808165Y-48362051D01*
X22808169Y-48362051D01*
X22808170Y-48362052D01*
X23001456Y-48400500D01*
X23001459Y-48400500D01*
X23198543Y-48400500D01*
X23328582Y-48374632D01*
X23391835Y-48362051D01*
X23573914Y-48286632D01*
X23737782Y-48177139D01*
X23877139Y-48037782D01*
X23986632Y-47873914D01*
X24062051Y-47691835D01*
X24095021Y-47526086D01*
X24100500Y-47498543D01*
X24100500Y-47301456D01*
X24062052Y-47108170D01*
X24062051Y-47108166D01*
X24062051Y-47108165D01*
X24048107Y-47074500D01*
X23986635Y-46926092D01*
X23986628Y-46926079D01*
X23877139Y-46762218D01*
X23877136Y-46762214D01*
X23737785Y-46622863D01*
X23737781Y-46622860D01*
X23573920Y-46513371D01*
X23573907Y-46513364D01*
X23391839Y-46437950D01*
X23391829Y-46437947D01*
X23198543Y-46399500D01*
X23198541Y-46399500D01*
X23001459Y-46399500D01*
X23001457Y-46399500D01*
X22808170Y-46437947D01*
X22808160Y-46437950D01*
X22626092Y-46513364D01*
X22626079Y-46513371D01*
X22462218Y-46622860D01*
X22462214Y-46622863D01*
X22322863Y-46762214D01*
X22322860Y-46762218D01*
X22213371Y-46926079D01*
X22213364Y-46926092D01*
X22137950Y-47108160D01*
X22137947Y-47108170D01*
X22099500Y-47301456D01*
X22099500Y-47301459D01*
X22099500Y-47498541D01*
X22099500Y-47498543D01*
X22099499Y-47498543D01*
X20500500Y-47498543D01*
X20500500Y-44958543D01*
X22099499Y-44958543D01*
X22137947Y-45151829D01*
X22137950Y-45151839D01*
X22213364Y-45333907D01*
X22213371Y-45333920D01*
X22322860Y-45497781D01*
X22322863Y-45497785D01*
X22462214Y-45637136D01*
X22462218Y-45637139D01*
X22626079Y-45746628D01*
X22626092Y-45746635D01*
X22808160Y-45822049D01*
X22808165Y-45822051D01*
X22808169Y-45822051D01*
X22808170Y-45822052D01*
X23001456Y-45860500D01*
X23001459Y-45860500D01*
X23198543Y-45860500D01*
X23328582Y-45834632D01*
X23391835Y-45822051D01*
X23573914Y-45746632D01*
X23737782Y-45637139D01*
X23877139Y-45497782D01*
X23986632Y-45333914D01*
X24062051Y-45151835D01*
X24075205Y-45085704D01*
X24100500Y-44958543D01*
X24100500Y-44761456D01*
X24062052Y-44568170D01*
X24062051Y-44568169D01*
X24062051Y-44568165D01*
X24025179Y-44479147D01*
X23986635Y-44386092D01*
X23986628Y-44386079D01*
X23877139Y-44222218D01*
X23877136Y-44222214D01*
X23737785Y-44082863D01*
X23737781Y-44082860D01*
X23573920Y-43973371D01*
X23573907Y-43973364D01*
X23391839Y-43897950D01*
X23391829Y-43897947D01*
X23198543Y-43859500D01*
X23198541Y-43859500D01*
X23001459Y-43859500D01*
X23001457Y-43859500D01*
X22808170Y-43897947D01*
X22808160Y-43897950D01*
X22626092Y-43973364D01*
X22626079Y-43973371D01*
X22462218Y-44082860D01*
X22462214Y-44082863D01*
X22322863Y-44222214D01*
X22322860Y-44222218D01*
X22213371Y-44386079D01*
X22213364Y-44386092D01*
X22137950Y-44568160D01*
X22137947Y-44568170D01*
X22099500Y-44761456D01*
X22099500Y-44761459D01*
X22099500Y-44958541D01*
X22099500Y-44958543D01*
X22099499Y-44958543D01*
X20500500Y-44958543D01*
X20500500Y-42418543D01*
X22099499Y-42418543D01*
X22137947Y-42611829D01*
X22137950Y-42611839D01*
X22213364Y-42793907D01*
X22213371Y-42793920D01*
X22322860Y-42957781D01*
X22322863Y-42957785D01*
X22462214Y-43097136D01*
X22462218Y-43097139D01*
X22626079Y-43206628D01*
X22626092Y-43206635D01*
X22808160Y-43282049D01*
X22808165Y-43282051D01*
X22808169Y-43282051D01*
X22808170Y-43282052D01*
X23001456Y-43320500D01*
X23001459Y-43320500D01*
X23198543Y-43320500D01*
X23328582Y-43294632D01*
X23391835Y-43282051D01*
X23543521Y-43219221D01*
X23573907Y-43206635D01*
X23573907Y-43206634D01*
X23573914Y-43206632D01*
X23737782Y-43097139D01*
X23877139Y-42957782D01*
X23986632Y-42793914D01*
X24062051Y-42611835D01*
X24081807Y-42512518D01*
X24100500Y-42418543D01*
X24100500Y-42221456D01*
X24062052Y-42028170D01*
X24062051Y-42028169D01*
X24062051Y-42028165D01*
X24046551Y-41990744D01*
X23986635Y-41846092D01*
X23986628Y-41846079D01*
X23877139Y-41682218D01*
X23877136Y-41682214D01*
X23737785Y-41542863D01*
X23737781Y-41542860D01*
X23573920Y-41433371D01*
X23573907Y-41433364D01*
X23391839Y-41357950D01*
X23391829Y-41357947D01*
X23198543Y-41319500D01*
X23198541Y-41319500D01*
X23001459Y-41319500D01*
X23001457Y-41319500D01*
X22808170Y-41357947D01*
X22808160Y-41357950D01*
X22626092Y-41433364D01*
X22626079Y-41433371D01*
X22462218Y-41542860D01*
X22462214Y-41542863D01*
X22322863Y-41682214D01*
X22322860Y-41682218D01*
X22213371Y-41846079D01*
X22213364Y-41846092D01*
X22137950Y-42028160D01*
X22137947Y-42028170D01*
X22099500Y-42221456D01*
X22099500Y-42221459D01*
X22099500Y-42418541D01*
X22099500Y-42418543D01*
X22099499Y-42418543D01*
X20500500Y-42418543D01*
X20500500Y-41030247D01*
X45149500Y-41030247D01*
X45149500Y-42969752D01*
X45161131Y-43028229D01*
X45161132Y-43028230D01*
X45205447Y-43094552D01*
X45271769Y-43138867D01*
X45271770Y-43138868D01*
X45330247Y-43150499D01*
X45330250Y-43150500D01*
X45330252Y-43150500D01*
X47269750Y-43150500D01*
X47269751Y-43150499D01*
X47284568Y-43147552D01*
X47328229Y-43138868D01*
X47328229Y-43138867D01*
X47328231Y-43138867D01*
X47394552Y-43094552D01*
X47438867Y-43028231D01*
X47438867Y-43028229D01*
X47438868Y-43028229D01*
X47450499Y-42969752D01*
X47450500Y-42969750D01*
X47450500Y-42157131D01*
X47470185Y-42090092D01*
X47522989Y-42044337D01*
X47592147Y-42034393D01*
X47655703Y-42063418D01*
X47693477Y-42122196D01*
X47696973Y-42137733D01*
X47717829Y-42269410D01*
X47773787Y-42441636D01*
X47773788Y-42441639D01*
X47856006Y-42602997D01*
X47962441Y-42749494D01*
X47962445Y-42749499D01*
X48090500Y-42877554D01*
X48090505Y-42877558D01*
X48200924Y-42957781D01*
X48237006Y-42983996D01*
X48323818Y-43028229D01*
X48398360Y-43066211D01*
X48398363Y-43066212D01*
X48484476Y-43094191D01*
X48570591Y-43122171D01*
X48653429Y-43135291D01*
X48749449Y-43150500D01*
X48749454Y-43150500D01*
X48930551Y-43150500D01*
X49017259Y-43136765D01*
X49109409Y-43122171D01*
X49281639Y-43066211D01*
X49442994Y-42983996D01*
X49589501Y-42877553D01*
X49717553Y-42749501D01*
X49823996Y-42602994D01*
X49906211Y-42441639D01*
X49962171Y-42269409D01*
X49979954Y-42157131D01*
X49987527Y-42109321D01*
X50017456Y-42046186D01*
X50076768Y-42009255D01*
X50146630Y-42010253D01*
X50204863Y-42048863D01*
X50232473Y-42109321D01*
X50257829Y-42269410D01*
X50313787Y-42441636D01*
X50313788Y-42441639D01*
X50396006Y-42602997D01*
X50502441Y-42749494D01*
X50502445Y-42749499D01*
X50630500Y-42877554D01*
X50630505Y-42877558D01*
X50740924Y-42957781D01*
X50777006Y-42983996D01*
X50863818Y-43028229D01*
X50938360Y-43066211D01*
X50938363Y-43066212D01*
X51024476Y-43094191D01*
X51110591Y-43122171D01*
X51193429Y-43135291D01*
X51289449Y-43150500D01*
X51289454Y-43150500D01*
X51470551Y-43150500D01*
X51557259Y-43136765D01*
X51649409Y-43122171D01*
X51821639Y-43066211D01*
X51982994Y-42983996D01*
X52129501Y-42877553D01*
X52257553Y-42749501D01*
X52363996Y-42602994D01*
X52446211Y-42441639D01*
X52502171Y-42269409D01*
X52519954Y-42157131D01*
X52527527Y-42109321D01*
X52557456Y-42046186D01*
X52616768Y-42009255D01*
X52686630Y-42010253D01*
X52744863Y-42048863D01*
X52772473Y-42109321D01*
X52797829Y-42269410D01*
X52853787Y-42441636D01*
X52853788Y-42441639D01*
X52936006Y-42602997D01*
X53042441Y-42749494D01*
X53042445Y-42749499D01*
X53170500Y-42877554D01*
X53170505Y-42877558D01*
X53280924Y-42957781D01*
X53317006Y-42983996D01*
X53403818Y-43028229D01*
X53478360Y-43066211D01*
X53478363Y-43066212D01*
X53564476Y-43094191D01*
X53650591Y-43122171D01*
X53733429Y-43135291D01*
X53829449Y-43150500D01*
X53829454Y-43150500D01*
X54010551Y-43150500D01*
X54097259Y-43136765D01*
X54189409Y-43122171D01*
X54361639Y-43066211D01*
X54522994Y-42983996D01*
X54669501Y-42877553D01*
X54797553Y-42749501D01*
X54903996Y-42602994D01*
X54986211Y-42441639D01*
X55042171Y-42269409D01*
X55059954Y-42157131D01*
X55070500Y-42090551D01*
X55070500Y-41909449D01*
X55070499Y-41909447D01*
X55060464Y-41846092D01*
X55042171Y-41730591D01*
X54986211Y-41558361D01*
X54986211Y-41558360D01*
X54950096Y-41487482D01*
X54903996Y-41397006D01*
X54810936Y-41268919D01*
X54797558Y-41250505D01*
X54797554Y-41250500D01*
X54669499Y-41122445D01*
X54669494Y-41122441D01*
X54522997Y-41016006D01*
X54522996Y-41016005D01*
X54522994Y-41016004D01*
X54464257Y-40986076D01*
X54361639Y-40933788D01*
X54361636Y-40933787D01*
X54189410Y-40877829D01*
X54010551Y-40849500D01*
X54010546Y-40849500D01*
X53829454Y-40849500D01*
X53829449Y-40849500D01*
X53650589Y-40877829D01*
X53478363Y-40933787D01*
X53478360Y-40933788D01*
X53317002Y-41016006D01*
X53170505Y-41122441D01*
X53170500Y-41122445D01*
X53042445Y-41250500D01*
X53042441Y-41250505D01*
X52936006Y-41397002D01*
X52853788Y-41558360D01*
X52853787Y-41558363D01*
X52797829Y-41730589D01*
X52772473Y-41890678D01*
X52742544Y-41953813D01*
X52683232Y-41990744D01*
X52613369Y-41989746D01*
X52555137Y-41951136D01*
X52527527Y-41890678D01*
X52511217Y-41787708D01*
X52502171Y-41730591D01*
X52446211Y-41558361D01*
X52446211Y-41558360D01*
X52410096Y-41487482D01*
X52363996Y-41397006D01*
X52270936Y-41268919D01*
X52257558Y-41250505D01*
X52257554Y-41250500D01*
X52129499Y-41122445D01*
X52129494Y-41122441D01*
X51982997Y-41016006D01*
X51982996Y-41016005D01*
X51982994Y-41016004D01*
X51924257Y-40986076D01*
X51821639Y-40933788D01*
X51821636Y-40933787D01*
X51649410Y-40877829D01*
X51470551Y-40849500D01*
X51470546Y-40849500D01*
X51289454Y-40849500D01*
X51289449Y-40849500D01*
X51110589Y-40877829D01*
X50938363Y-40933787D01*
X50938360Y-40933788D01*
X50777002Y-41016006D01*
X50630505Y-41122441D01*
X50630500Y-41122445D01*
X50502445Y-41250500D01*
X50502441Y-41250505D01*
X50396006Y-41397002D01*
X50313788Y-41558360D01*
X50313787Y-41558363D01*
X50257829Y-41730589D01*
X50232473Y-41890678D01*
X50202544Y-41953813D01*
X50143232Y-41990744D01*
X50073369Y-41989746D01*
X50015137Y-41951136D01*
X49987527Y-41890678D01*
X49971217Y-41787708D01*
X49962171Y-41730591D01*
X49906211Y-41558361D01*
X49906211Y-41558360D01*
X49870096Y-41487482D01*
X49823996Y-41397006D01*
X49730936Y-41268919D01*
X49717558Y-41250505D01*
X49717554Y-41250500D01*
X49589499Y-41122445D01*
X49589494Y-41122441D01*
X49442997Y-41016006D01*
X49442996Y-41016005D01*
X49442994Y-41016004D01*
X49384257Y-40986076D01*
X49281639Y-40933788D01*
X49281636Y-40933787D01*
X49109410Y-40877829D01*
X48930551Y-40849500D01*
X48930546Y-40849500D01*
X48749454Y-40849500D01*
X48749449Y-40849500D01*
X48570589Y-40877829D01*
X48398363Y-40933787D01*
X48398360Y-40933788D01*
X48237002Y-41016006D01*
X48090505Y-41122441D01*
X48090500Y-41122445D01*
X47962445Y-41250500D01*
X47962441Y-41250505D01*
X47856006Y-41397002D01*
X47773788Y-41558360D01*
X47773787Y-41558363D01*
X47717829Y-41730589D01*
X47696973Y-41862266D01*
X47667044Y-41925401D01*
X47607732Y-41962332D01*
X47537869Y-41961334D01*
X47479637Y-41922724D01*
X47451523Y-41858760D01*
X47450500Y-41842868D01*
X47450500Y-41030249D01*
X47450499Y-41030247D01*
X47438868Y-40971770D01*
X47438867Y-40971769D01*
X47394552Y-40905447D01*
X47328230Y-40861132D01*
X47328229Y-40861131D01*
X47269752Y-40849500D01*
X47269748Y-40849500D01*
X45330252Y-40849500D01*
X45330247Y-40849500D01*
X45271770Y-40861131D01*
X45271769Y-40861132D01*
X45205447Y-40905447D01*
X45161132Y-40971769D01*
X45161131Y-40971770D01*
X45149500Y-41030247D01*
X20500500Y-41030247D01*
X20500500Y-39701211D01*
X22094500Y-39701211D01*
X22094500Y-39858788D01*
X22098449Y-39898884D01*
X22129192Y-40053442D01*
X22140887Y-40091997D01*
X22201189Y-40237577D01*
X22201192Y-40237584D01*
X22220182Y-40273112D01*
X22220187Y-40273120D01*
X22220192Y-40273128D01*
X22307725Y-40404131D01*
X22307729Y-40404136D01*
X22307732Y-40404140D01*
X22333289Y-40435280D01*
X22444720Y-40546711D01*
X22475860Y-40572268D01*
X22475863Y-40572270D01*
X22475868Y-40572274D01*
X22606871Y-40659807D01*
X22606874Y-40659809D01*
X22606888Y-40659818D01*
X22642416Y-40678808D01*
X22788007Y-40739114D01*
X22826559Y-40750808D01*
X22981117Y-40781551D01*
X23021207Y-40785500D01*
X23021212Y-40785500D01*
X23739783Y-40785500D01*
X23739783Y-40785499D01*
X23818423Y-40769858D01*
X23864415Y-40750808D01*
X23891925Y-40739413D01*
X23891925Y-40739412D01*
X23891932Y-40739410D01*
X23958601Y-40694862D01*
X24014862Y-40638601D01*
X24059410Y-40571932D01*
X24089858Y-40498423D01*
X24105500Y-40419782D01*
X24105500Y-39140218D01*
X24105499Y-39140214D01*
X39874500Y-39140214D01*
X39874500Y-40419785D01*
X39890140Y-40498417D01*
X39890145Y-40498433D01*
X39920586Y-40571925D01*
X39920588Y-40571929D01*
X39920590Y-40571932D01*
X39965138Y-40638601D01*
X40021399Y-40694862D01*
X40088068Y-40739410D01*
X40088071Y-40739411D01*
X40088074Y-40739413D01*
X40161566Y-40769854D01*
X40161571Y-40769855D01*
X40161577Y-40769858D01*
X40240215Y-40785499D01*
X40240217Y-40785500D01*
X40240218Y-40785500D01*
X40958788Y-40785500D01*
X40958793Y-40785500D01*
X40998883Y-40781551D01*
X41153441Y-40750808D01*
X41191993Y-40739114D01*
X41337584Y-40678808D01*
X41373112Y-40659818D01*
X41504140Y-40572268D01*
X41535280Y-40546711D01*
X41646711Y-40435280D01*
X41672268Y-40404140D01*
X41759818Y-40273112D01*
X41778808Y-40237584D01*
X41839114Y-40091993D01*
X41850808Y-40053441D01*
X41881551Y-39898883D01*
X41885500Y-39858793D01*
X41885500Y-39701207D01*
X41881551Y-39661117D01*
X41850808Y-39506559D01*
X41839114Y-39468007D01*
X41778808Y-39322416D01*
X41759818Y-39286888D01*
X41759807Y-39286871D01*
X41672274Y-39155868D01*
X41672270Y-39155863D01*
X41646711Y-39124720D01*
X41535279Y-39013288D01*
X41523197Y-39003372D01*
X41504140Y-38987732D01*
X41504136Y-38987729D01*
X41504131Y-38987725D01*
X41373128Y-38900192D01*
X41373120Y-38900187D01*
X41373112Y-38900182D01*
X41337584Y-38881192D01*
X41298829Y-38865139D01*
X41191997Y-38820887D01*
X41153442Y-38809192D01*
X40998884Y-38778449D01*
X40998885Y-38778449D01*
X40987428Y-38777320D01*
X40958793Y-38774500D01*
X40240218Y-38774500D01*
X40240214Y-38774500D01*
X40161582Y-38790140D01*
X40161566Y-38790145D01*
X40088074Y-38820586D01*
X40021397Y-38865139D01*
X39965139Y-38921397D01*
X39920586Y-38988074D01*
X39890145Y-39061566D01*
X39890140Y-39061582D01*
X39874500Y-39140214D01*
X24105499Y-39140214D01*
X24089858Y-39061577D01*
X24089855Y-39061571D01*
X24089854Y-39061566D01*
X24059413Y-38988074D01*
X24059411Y-38988071D01*
X24059410Y-38988068D01*
X24014862Y-38921399D01*
X23958601Y-38865138D01*
X23891932Y-38820590D01*
X23891929Y-38820588D01*
X23891925Y-38820586D01*
X23818433Y-38790145D01*
X23818417Y-38790140D01*
X23739785Y-38774500D01*
X23739782Y-38774500D01*
X23021207Y-38774500D01*
X22992571Y-38777320D01*
X22981115Y-38778449D01*
X22826557Y-38809192D01*
X22788002Y-38820887D01*
X22642422Y-38881189D01*
X22642415Y-38881192D01*
X22614182Y-38896282D01*
X22606888Y-38900182D01*
X22606885Y-38900183D01*
X22606871Y-38900192D01*
X22475868Y-38987725D01*
X22475863Y-38987729D01*
X22444720Y-39013288D01*
X22333288Y-39124720D01*
X22307729Y-39155863D01*
X22307725Y-39155868D01*
X22220192Y-39286871D01*
X22220180Y-39286892D01*
X22201192Y-39322415D01*
X22201189Y-39322422D01*
X22140887Y-39468002D01*
X22129192Y-39506557D01*
X22098449Y-39661115D01*
X22094500Y-39701211D01*
X20500500Y-39701211D01*
X20500500Y-37338543D01*
X22099499Y-37338543D01*
X22137947Y-37531829D01*
X22137950Y-37531839D01*
X22213364Y-37713907D01*
X22213371Y-37713920D01*
X22322860Y-37877781D01*
X22322863Y-37877785D01*
X22462214Y-38017136D01*
X22462218Y-38017139D01*
X22626079Y-38126628D01*
X22626092Y-38126635D01*
X22808160Y-38202049D01*
X22808165Y-38202051D01*
X22808169Y-38202051D01*
X22808170Y-38202052D01*
X23001456Y-38240500D01*
X23001459Y-38240500D01*
X23198543Y-38240500D01*
X23328582Y-38214632D01*
X23391835Y-38202051D01*
X23573914Y-38126632D01*
X23737782Y-38017139D01*
X23877139Y-37877782D01*
X23986632Y-37713914D01*
X24062051Y-37531835D01*
X24100500Y-37338543D01*
X39879499Y-37338543D01*
X39917947Y-37531829D01*
X39917950Y-37531839D01*
X39993364Y-37713907D01*
X39993371Y-37713920D01*
X40102860Y-37877781D01*
X40102863Y-37877785D01*
X40242214Y-38017136D01*
X40242218Y-38017139D01*
X40406079Y-38126628D01*
X40406092Y-38126635D01*
X40588160Y-38202049D01*
X40588165Y-38202051D01*
X40588169Y-38202051D01*
X40588170Y-38202052D01*
X40781456Y-38240500D01*
X40781459Y-38240500D01*
X40978543Y-38240500D01*
X41108582Y-38214632D01*
X41171835Y-38202051D01*
X41353914Y-38126632D01*
X41517782Y-38017139D01*
X41657139Y-37877782D01*
X41766632Y-37713914D01*
X41842051Y-37531835D01*
X41880500Y-37338541D01*
X41880500Y-37141459D01*
X41880500Y-37141456D01*
X41842052Y-36948170D01*
X41842051Y-36948169D01*
X41842051Y-36948165D01*
X41842049Y-36948160D01*
X41766635Y-36766092D01*
X41766628Y-36766079D01*
X41657139Y-36602218D01*
X41657136Y-36602214D01*
X41517785Y-36462863D01*
X41517781Y-36462860D01*
X41353920Y-36353371D01*
X41353907Y-36353364D01*
X41171839Y-36277950D01*
X41171829Y-36277947D01*
X40978543Y-36239500D01*
X40978541Y-36239500D01*
X40781459Y-36239500D01*
X40781457Y-36239500D01*
X40588170Y-36277947D01*
X40588160Y-36277950D01*
X40406092Y-36353364D01*
X40406079Y-36353371D01*
X40242218Y-36462860D01*
X40242214Y-36462863D01*
X40102863Y-36602214D01*
X40102860Y-36602218D01*
X39993371Y-36766079D01*
X39993364Y-36766092D01*
X39917950Y-36948160D01*
X39917947Y-36948170D01*
X39879500Y-37141456D01*
X39879500Y-37141459D01*
X39879500Y-37338541D01*
X39879500Y-37338543D01*
X39879499Y-37338543D01*
X24100500Y-37338543D01*
X24100500Y-37338541D01*
X24100500Y-37141459D01*
X24100500Y-37141456D01*
X24062052Y-36948170D01*
X24062051Y-36948169D01*
X24062051Y-36948165D01*
X24062049Y-36948160D01*
X23986635Y-36766092D01*
X23986628Y-36766079D01*
X23877139Y-36602218D01*
X23877136Y-36602214D01*
X23737785Y-36462863D01*
X23737781Y-36462860D01*
X23573920Y-36353371D01*
X23573907Y-36353364D01*
X23391839Y-36277950D01*
X23391829Y-36277947D01*
X23198543Y-36239500D01*
X23198541Y-36239500D01*
X23001459Y-36239500D01*
X23001457Y-36239500D01*
X22808170Y-36277947D01*
X22808160Y-36277950D01*
X22626092Y-36353364D01*
X22626079Y-36353371D01*
X22462218Y-36462860D01*
X22462214Y-36462863D01*
X22322863Y-36602214D01*
X22322860Y-36602218D01*
X22213371Y-36766079D01*
X22213364Y-36766092D01*
X22137950Y-36948160D01*
X22137947Y-36948170D01*
X22099500Y-37141456D01*
X22099500Y-37141459D01*
X22099500Y-37338541D01*
X22099500Y-37338543D01*
X22099499Y-37338543D01*
X20500500Y-37338543D01*
X20500500Y-34613428D01*
X22000000Y-34613428D01*
X22000000Y-34786571D01*
X22027085Y-34957584D01*
X22080591Y-35122257D01*
X22159195Y-35276523D01*
X22159196Y-35276525D01*
X22193463Y-35323691D01*
X22193464Y-35323691D01*
X22631980Y-34885176D01*
X22634075Y-34892993D01*
X22699901Y-35007007D01*
X22792993Y-35100099D01*
X22907007Y-35165925D01*
X22914822Y-35168019D01*
X22476307Y-35606534D01*
X22523478Y-35640805D01*
X22677742Y-35719408D01*
X22842415Y-35772914D01*
X23013429Y-35800000D01*
X23186571Y-35800000D01*
X23357584Y-35772914D01*
X23522257Y-35719408D01*
X23676525Y-35640803D01*
X23723692Y-35606534D01*
X23285177Y-35168019D01*
X23292993Y-35165925D01*
X23407007Y-35100099D01*
X23500099Y-35007007D01*
X23565925Y-34892993D01*
X23568019Y-34885177D01*
X24006533Y-35323692D01*
X24006534Y-35323691D01*
X24040803Y-35276525D01*
X24119408Y-35122257D01*
X24172914Y-34957584D01*
X24200000Y-34786571D01*
X24200000Y-34613428D01*
X39780000Y-34613428D01*
X39780000Y-34786571D01*
X39807085Y-34957584D01*
X39860591Y-35122257D01*
X39939195Y-35276523D01*
X39939196Y-35276525D01*
X39973463Y-35323691D01*
X39973464Y-35323691D01*
X40411980Y-34885176D01*
X40414075Y-34892993D01*
X40479901Y-35007007D01*
X40572993Y-35100099D01*
X40687007Y-35165925D01*
X40694822Y-35168019D01*
X40256307Y-35606534D01*
X40303478Y-35640805D01*
X40457742Y-35719408D01*
X40622415Y-35772914D01*
X40793429Y-35800000D01*
X40966571Y-35800000D01*
X41137584Y-35772914D01*
X41302257Y-35719408D01*
X41456525Y-35640803D01*
X41503691Y-35606534D01*
X41503692Y-35606533D01*
X41065178Y-35168019D01*
X41072993Y-35165925D01*
X41187007Y-35100099D01*
X41280099Y-35007007D01*
X41345925Y-34892993D01*
X41348019Y-34885177D01*
X41786533Y-35323692D01*
X41786534Y-35323691D01*
X41820803Y-35276525D01*
X41899408Y-35122257D01*
X41952914Y-34957584D01*
X41980000Y-34786571D01*
X41980000Y-34613428D01*
X41952914Y-34442415D01*
X41899408Y-34277742D01*
X41820805Y-34123478D01*
X41786534Y-34076307D01*
X41348019Y-34514822D01*
X41345925Y-34507007D01*
X41280099Y-34392993D01*
X41187007Y-34299901D01*
X41072993Y-34234075D01*
X41065176Y-34231980D01*
X41503691Y-33793464D01*
X41503691Y-33793463D01*
X41456525Y-33759196D01*
X41456523Y-33759195D01*
X41302257Y-33680591D01*
X41137584Y-33627085D01*
X40966571Y-33600000D01*
X40793429Y-33600000D01*
X40622415Y-33627085D01*
X40457740Y-33680592D01*
X40303475Y-33759196D01*
X40256307Y-33793463D01*
X40256307Y-33793464D01*
X40694823Y-34231980D01*
X40687007Y-34234075D01*
X40572993Y-34299901D01*
X40479901Y-34392993D01*
X40414075Y-34507007D01*
X40411980Y-34514823D01*
X39973464Y-34076307D01*
X39973463Y-34076307D01*
X39939196Y-34123475D01*
X39860592Y-34277740D01*
X39807085Y-34442415D01*
X39780000Y-34613428D01*
X24200000Y-34613428D01*
X24172914Y-34442415D01*
X24119408Y-34277742D01*
X24040805Y-34123478D01*
X24006534Y-34076307D01*
X23568019Y-34514822D01*
X23565925Y-34507007D01*
X23500099Y-34392993D01*
X23407007Y-34299901D01*
X23292993Y-34234075D01*
X23285176Y-34231980D01*
X23723691Y-33793464D01*
X23723691Y-33793463D01*
X23676525Y-33759196D01*
X23676523Y-33759195D01*
X23522257Y-33680591D01*
X23357584Y-33627085D01*
X23186571Y-33600000D01*
X23013429Y-33600000D01*
X22842415Y-33627085D01*
X22677740Y-33680592D01*
X22523475Y-33759196D01*
X22476307Y-33793463D01*
X22476307Y-33793464D01*
X22914823Y-34231980D01*
X22907007Y-34234075D01*
X22792993Y-34299901D01*
X22699901Y-34392993D01*
X22634075Y-34507007D01*
X22631980Y-34514823D01*
X22193464Y-34076307D01*
X22193463Y-34076307D01*
X22159196Y-34123475D01*
X22080592Y-34277740D01*
X22027085Y-34442415D01*
X22000000Y-34613428D01*
X20500500Y-34613428D01*
X20500500Y-32258543D01*
X22099499Y-32258543D01*
X22137947Y-32451829D01*
X22137950Y-32451839D01*
X22213364Y-32633907D01*
X22213371Y-32633920D01*
X22322860Y-32797781D01*
X22322863Y-32797785D01*
X22462214Y-32937136D01*
X22462218Y-32937139D01*
X22626079Y-33046628D01*
X22626092Y-33046635D01*
X22808160Y-33122049D01*
X22808165Y-33122051D01*
X22808169Y-33122051D01*
X22808170Y-33122052D01*
X23001456Y-33160500D01*
X23001459Y-33160500D01*
X23198543Y-33160500D01*
X23328582Y-33134632D01*
X23391835Y-33122051D01*
X23573914Y-33046632D01*
X23737782Y-32937139D01*
X23877139Y-32797782D01*
X23986632Y-32633914D01*
X24062051Y-32451835D01*
X24100500Y-32258543D01*
X39879499Y-32258543D01*
X39917947Y-32451829D01*
X39917950Y-32451839D01*
X39993364Y-32633907D01*
X39993371Y-32633920D01*
X40102860Y-32797781D01*
X40102863Y-32797785D01*
X40242214Y-32937136D01*
X40242218Y-32937139D01*
X40406079Y-33046628D01*
X40406092Y-33046635D01*
X40588160Y-33122049D01*
X40588165Y-33122051D01*
X40588169Y-33122051D01*
X40588170Y-33122052D01*
X40781456Y-33160500D01*
X40781459Y-33160500D01*
X40978543Y-33160500D01*
X41108582Y-33134632D01*
X41171835Y-33122051D01*
X41353914Y-33046632D01*
X41517782Y-32937139D01*
X41657139Y-32797782D01*
X41766632Y-32633914D01*
X41842051Y-32451835D01*
X41880500Y-32258541D01*
X41880500Y-32061459D01*
X41880500Y-32061456D01*
X41842052Y-31868170D01*
X41842051Y-31868169D01*
X41842051Y-31868165D01*
X41842049Y-31868160D01*
X41766635Y-31686092D01*
X41766628Y-31686079D01*
X41657139Y-31522218D01*
X41657136Y-31522214D01*
X41517785Y-31382863D01*
X41517781Y-31382860D01*
X41353920Y-31273371D01*
X41353907Y-31273364D01*
X41171839Y-31197950D01*
X41171829Y-31197947D01*
X40978543Y-31159500D01*
X40978541Y-31159500D01*
X40781459Y-31159500D01*
X40781457Y-31159500D01*
X40588170Y-31197947D01*
X40588160Y-31197950D01*
X40406092Y-31273364D01*
X40406079Y-31273371D01*
X40242218Y-31382860D01*
X40242214Y-31382863D01*
X40102863Y-31522214D01*
X40102860Y-31522218D01*
X39993371Y-31686079D01*
X39993364Y-31686092D01*
X39917950Y-31868160D01*
X39917947Y-31868170D01*
X39879500Y-32061456D01*
X39879500Y-32061459D01*
X39879500Y-32258541D01*
X39879500Y-32258543D01*
X39879499Y-32258543D01*
X24100500Y-32258543D01*
X24100500Y-32258541D01*
X24100500Y-32061459D01*
X24100500Y-32061456D01*
X24062052Y-31868170D01*
X24062051Y-31868169D01*
X24062051Y-31868165D01*
X24062049Y-31868160D01*
X23986635Y-31686092D01*
X23986628Y-31686079D01*
X23877139Y-31522218D01*
X23877136Y-31522214D01*
X23737785Y-31382863D01*
X23737781Y-31382860D01*
X23573920Y-31273371D01*
X23573907Y-31273364D01*
X23391839Y-31197950D01*
X23391829Y-31197947D01*
X23198543Y-31159500D01*
X23198541Y-31159500D01*
X23001459Y-31159500D01*
X23001457Y-31159500D01*
X22808170Y-31197947D01*
X22808160Y-31197950D01*
X22626092Y-31273364D01*
X22626079Y-31273371D01*
X22462218Y-31382860D01*
X22462214Y-31382863D01*
X22322863Y-31522214D01*
X22322860Y-31522218D01*
X22213371Y-31686079D01*
X22213364Y-31686092D01*
X22137950Y-31868160D01*
X22137947Y-31868170D01*
X22099500Y-32061456D01*
X22099500Y-32061459D01*
X22099500Y-32258541D01*
X22099500Y-32258543D01*
X22099499Y-32258543D01*
X20500500Y-32258543D01*
X20500500Y-29718543D01*
X22099499Y-29718543D01*
X22137947Y-29911829D01*
X22137950Y-29911839D01*
X22213364Y-30093907D01*
X22213371Y-30093920D01*
X22322860Y-30257781D01*
X22322863Y-30257785D01*
X22462214Y-30397136D01*
X22462218Y-30397139D01*
X22626079Y-30506628D01*
X22626092Y-30506635D01*
X22808160Y-30582049D01*
X22808165Y-30582051D01*
X22808169Y-30582051D01*
X22808170Y-30582052D01*
X23001456Y-30620500D01*
X23001459Y-30620500D01*
X23198543Y-30620500D01*
X23328582Y-30594632D01*
X23391835Y-30582051D01*
X23573914Y-30506632D01*
X23737782Y-30397139D01*
X23877139Y-30257782D01*
X23986632Y-30093914D01*
X24062051Y-29911835D01*
X24100500Y-29718543D01*
X39879499Y-29718543D01*
X39917947Y-29911829D01*
X39917950Y-29911839D01*
X39993364Y-30093907D01*
X39993371Y-30093920D01*
X40102860Y-30257781D01*
X40102863Y-30257785D01*
X40242214Y-30397136D01*
X40242218Y-30397139D01*
X40406079Y-30506628D01*
X40406092Y-30506635D01*
X40588160Y-30582049D01*
X40588165Y-30582051D01*
X40588169Y-30582051D01*
X40588170Y-30582052D01*
X40781456Y-30620500D01*
X40781459Y-30620500D01*
X40978543Y-30620500D01*
X41108582Y-30594632D01*
X41171835Y-30582051D01*
X41353914Y-30506632D01*
X41517782Y-30397139D01*
X41657139Y-30257782D01*
X41766632Y-30093914D01*
X41842051Y-29911835D01*
X41880500Y-29718541D01*
X41880500Y-29521459D01*
X41880500Y-29521456D01*
X41842052Y-29328170D01*
X41842051Y-29328169D01*
X41842051Y-29328165D01*
X41842049Y-29328160D01*
X41766635Y-29146092D01*
X41766628Y-29146079D01*
X41657139Y-28982218D01*
X41657136Y-28982214D01*
X41517785Y-28842863D01*
X41517781Y-28842860D01*
X41353920Y-28733371D01*
X41353907Y-28733364D01*
X41171839Y-28657950D01*
X41171829Y-28657947D01*
X40978543Y-28619500D01*
X40978541Y-28619500D01*
X40781459Y-28619500D01*
X40781457Y-28619500D01*
X40588170Y-28657947D01*
X40588160Y-28657950D01*
X40406092Y-28733364D01*
X40406079Y-28733371D01*
X40242218Y-28842860D01*
X40242214Y-28842863D01*
X40102863Y-28982214D01*
X40102860Y-28982218D01*
X39993371Y-29146079D01*
X39993364Y-29146092D01*
X39917950Y-29328160D01*
X39917947Y-29328170D01*
X39879500Y-29521456D01*
X39879500Y-29521459D01*
X39879500Y-29718541D01*
X39879500Y-29718543D01*
X39879499Y-29718543D01*
X24100500Y-29718543D01*
X24100500Y-29718541D01*
X24100500Y-29521459D01*
X24100500Y-29521456D01*
X24062052Y-29328170D01*
X24062051Y-29328169D01*
X24062051Y-29328165D01*
X24062049Y-29328160D01*
X23986635Y-29146092D01*
X23986628Y-29146079D01*
X23877139Y-28982218D01*
X23877136Y-28982214D01*
X23737785Y-28842863D01*
X23737781Y-28842860D01*
X23573920Y-28733371D01*
X23573907Y-28733364D01*
X23391839Y-28657950D01*
X23391829Y-28657947D01*
X23198543Y-28619500D01*
X23198541Y-28619500D01*
X23001459Y-28619500D01*
X23001457Y-28619500D01*
X22808170Y-28657947D01*
X22808160Y-28657950D01*
X22626092Y-28733364D01*
X22626079Y-28733371D01*
X22462218Y-28842860D01*
X22462214Y-28842863D01*
X22322863Y-28982214D01*
X22322860Y-28982218D01*
X22213371Y-29146079D01*
X22213364Y-29146092D01*
X22137950Y-29328160D01*
X22137947Y-29328170D01*
X22099500Y-29521456D01*
X22099500Y-29521459D01*
X22099500Y-29718541D01*
X22099500Y-29718543D01*
X22099499Y-29718543D01*
X20500500Y-29718543D01*
X20500500Y-27001211D01*
X22094500Y-27001211D01*
X22094500Y-27158788D01*
X22098449Y-27198884D01*
X22129192Y-27353442D01*
X22140887Y-27391997D01*
X22177381Y-27480099D01*
X22201192Y-27537584D01*
X22220182Y-27573112D01*
X22220187Y-27573120D01*
X22220192Y-27573128D01*
X22307725Y-27704131D01*
X22307729Y-27704136D01*
X22307732Y-27704140D01*
X22333289Y-27735280D01*
X22444720Y-27846711D01*
X22475860Y-27872268D01*
X22475863Y-27872270D01*
X22475868Y-27872274D01*
X22606871Y-27959807D01*
X22606874Y-27959809D01*
X22606888Y-27959818D01*
X22642416Y-27978808D01*
X22788007Y-28039114D01*
X22826559Y-28050808D01*
X22981117Y-28081551D01*
X23021207Y-28085500D01*
X23021212Y-28085500D01*
X23739783Y-28085500D01*
X23739783Y-28085499D01*
X23818423Y-28069858D01*
X23891932Y-28039410D01*
X23958601Y-27994862D01*
X24014862Y-27938601D01*
X24059410Y-27871932D01*
X24069857Y-27846711D01*
X24089854Y-27798433D01*
X24089854Y-27798431D01*
X24089858Y-27798423D01*
X24105500Y-27719782D01*
X24105500Y-26440220D01*
X39775000Y-26440220D01*
X39775000Y-27719767D01*
X39775081Y-27726826D01*
X39798216Y-27836500D01*
X39798216Y-27836502D01*
X39810645Y-27866509D01*
X39810647Y-27866510D01*
X40411980Y-27265176D01*
X40414075Y-27272993D01*
X40479901Y-27387007D01*
X40572993Y-27480099D01*
X40687007Y-27545925D01*
X40694823Y-27548019D01*
X40093489Y-28149353D01*
X40123462Y-28161768D01*
X40130035Y-28164402D01*
X40240220Y-28185000D01*
X40958791Y-28185000D01*
X41018281Y-28179141D01*
X41018285Y-28179141D01*
X41172848Y-28148398D01*
X41230072Y-28131039D01*
X41375661Y-28070733D01*
X41428387Y-28042550D01*
X41428397Y-28042544D01*
X41507108Y-27989951D01*
X41065176Y-27548019D01*
X41072993Y-27545925D01*
X41187007Y-27480099D01*
X41280099Y-27387007D01*
X41345925Y-27272993D01*
X41348019Y-27265176D01*
X41789951Y-27707108D01*
X41842544Y-27628397D01*
X41842550Y-27628387D01*
X41870733Y-27575661D01*
X41931039Y-27430072D01*
X41948398Y-27372848D01*
X41979141Y-27218285D01*
X41979141Y-27218281D01*
X41985000Y-27158791D01*
X41985000Y-27001208D01*
X41979141Y-26941718D01*
X41979141Y-26941714D01*
X41948398Y-26787151D01*
X41931039Y-26729927D01*
X41870733Y-26584338D01*
X41842550Y-26531612D01*
X41842544Y-26531602D01*
X41789951Y-26452890D01*
X41348019Y-26894822D01*
X41345925Y-26887007D01*
X41280099Y-26772993D01*
X41187007Y-26679901D01*
X41072993Y-26614075D01*
X41065176Y-26611980D01*
X41507107Y-26170048D01*
X41428397Y-26117455D01*
X41428387Y-26117449D01*
X41375661Y-26089266D01*
X41230072Y-26028960D01*
X41172848Y-26011601D01*
X41018283Y-25980858D01*
X40958791Y-25975000D01*
X40240232Y-25975000D01*
X40233173Y-25975081D01*
X40123500Y-25998216D01*
X40093488Y-26010645D01*
X40093488Y-26010646D01*
X40694823Y-26611980D01*
X40687007Y-26614075D01*
X40572993Y-26679901D01*
X40479901Y-26772993D01*
X40414075Y-26887007D01*
X40411980Y-26894822D01*
X39810646Y-26293488D01*
X39810645Y-26293488D01*
X39798226Y-26323474D01*
X39795597Y-26330035D01*
X39795597Y-26330036D01*
X39775000Y-26440220D01*
X24105500Y-26440220D01*
X24105500Y-26440218D01*
X24089858Y-26361577D01*
X24089855Y-26361571D01*
X24089854Y-26361566D01*
X24059413Y-26288074D01*
X24059411Y-26288071D01*
X24059410Y-26288068D01*
X24014862Y-26221399D01*
X23958601Y-26165138D01*
X23891932Y-26120590D01*
X23891929Y-26120588D01*
X23891925Y-26120586D01*
X23818433Y-26090145D01*
X23818417Y-26090140D01*
X23739785Y-26074500D01*
X23739782Y-26074500D01*
X23021207Y-26074500D01*
X22992571Y-26077320D01*
X22981115Y-26078449D01*
X22826557Y-26109192D01*
X22788002Y-26120887D01*
X22642422Y-26181189D01*
X22642415Y-26181192D01*
X22614182Y-26196282D01*
X22606888Y-26200182D01*
X22606885Y-26200183D01*
X22606871Y-26200192D01*
X22475868Y-26287725D01*
X22475863Y-26287729D01*
X22444720Y-26313288D01*
X22333288Y-26424720D01*
X22307729Y-26455863D01*
X22307725Y-26455868D01*
X22220192Y-26586871D01*
X22220180Y-26586892D01*
X22201192Y-26622415D01*
X22201189Y-26622422D01*
X22140887Y-26768002D01*
X22129192Y-26806557D01*
X22098449Y-26961115D01*
X22094500Y-27001211D01*
X20500500Y-27001211D01*
X20500500Y-24638543D01*
X22099499Y-24638543D01*
X22137947Y-24831829D01*
X22137950Y-24831839D01*
X22213364Y-25013907D01*
X22213371Y-25013920D01*
X22322860Y-25177781D01*
X22322863Y-25177785D01*
X22462214Y-25317136D01*
X22462218Y-25317139D01*
X22626079Y-25426628D01*
X22626092Y-25426635D01*
X22808160Y-25502049D01*
X22808165Y-25502051D01*
X22808169Y-25502051D01*
X22808170Y-25502052D01*
X23001456Y-25540500D01*
X23001459Y-25540500D01*
X23198543Y-25540500D01*
X23328582Y-25514632D01*
X23391835Y-25502051D01*
X23573914Y-25426632D01*
X23737782Y-25317139D01*
X23877139Y-25177782D01*
X23986632Y-25013914D01*
X24062051Y-24831835D01*
X24100500Y-24638543D01*
X39879499Y-24638543D01*
X39917947Y-24831829D01*
X39917950Y-24831839D01*
X39993364Y-25013907D01*
X39993371Y-25013920D01*
X40102860Y-25177781D01*
X40102863Y-25177785D01*
X40242214Y-25317136D01*
X40242218Y-25317139D01*
X40406079Y-25426628D01*
X40406092Y-25426635D01*
X40588160Y-25502049D01*
X40588165Y-25502051D01*
X40588169Y-25502051D01*
X40588170Y-25502052D01*
X40781456Y-25540500D01*
X40781459Y-25540500D01*
X40978543Y-25540500D01*
X41108582Y-25514632D01*
X41171835Y-25502051D01*
X41353914Y-25426632D01*
X41517782Y-25317139D01*
X41657139Y-25177782D01*
X41766632Y-25013914D01*
X41842051Y-24831835D01*
X41880500Y-24638541D01*
X41880500Y-24441459D01*
X41880500Y-24441456D01*
X41842052Y-24248170D01*
X41842051Y-24248169D01*
X41842051Y-24248165D01*
X41842049Y-24248160D01*
X41766635Y-24066092D01*
X41766628Y-24066079D01*
X41657139Y-23902218D01*
X41657136Y-23902214D01*
X41517785Y-23762863D01*
X41517781Y-23762860D01*
X41353920Y-23653371D01*
X41353907Y-23653364D01*
X41171839Y-23577950D01*
X41171829Y-23577947D01*
X40978543Y-23539500D01*
X40978541Y-23539500D01*
X40781459Y-23539500D01*
X40781457Y-23539500D01*
X40588170Y-23577947D01*
X40588160Y-23577950D01*
X40406092Y-23653364D01*
X40406079Y-23653371D01*
X40242218Y-23762860D01*
X40242214Y-23762863D01*
X40102863Y-23902214D01*
X40102860Y-23902218D01*
X39993371Y-24066079D01*
X39993364Y-24066092D01*
X39917950Y-24248160D01*
X39917947Y-24248170D01*
X39879500Y-24441456D01*
X39879500Y-24441459D01*
X39879500Y-24638541D01*
X39879500Y-24638543D01*
X39879499Y-24638543D01*
X24100500Y-24638543D01*
X24100500Y-24638541D01*
X24100500Y-24441459D01*
X24100500Y-24441456D01*
X24062052Y-24248170D01*
X24062051Y-24248169D01*
X24062051Y-24248165D01*
X24062049Y-24248160D01*
X23986635Y-24066092D01*
X23986628Y-24066079D01*
X23877139Y-23902218D01*
X23877136Y-23902214D01*
X23737785Y-23762863D01*
X23737781Y-23762860D01*
X23573920Y-23653371D01*
X23573907Y-23653364D01*
X23391839Y-23577950D01*
X23391829Y-23577947D01*
X23198543Y-23539500D01*
X23198541Y-23539500D01*
X23001459Y-23539500D01*
X23001457Y-23539500D01*
X22808170Y-23577947D01*
X22808160Y-23577950D01*
X22626092Y-23653364D01*
X22626079Y-23653371D01*
X22462218Y-23762860D01*
X22462214Y-23762863D01*
X22322863Y-23902214D01*
X22322860Y-23902218D01*
X22213371Y-24066079D01*
X22213364Y-24066092D01*
X22137950Y-24248160D01*
X22137947Y-24248170D01*
X22099500Y-24441456D01*
X22099500Y-24441459D01*
X22099500Y-24638541D01*
X22099500Y-24638543D01*
X22099499Y-24638543D01*
X20500500Y-24638543D01*
X20500500Y-21368475D01*
X22099500Y-21368475D01*
X22099500Y-22631517D01*
X22109715Y-22696012D01*
X22114354Y-22725304D01*
X22171950Y-22838342D01*
X22171952Y-22838344D01*
X22171954Y-22838347D01*
X22261652Y-22928045D01*
X22261654Y-22928046D01*
X22261658Y-22928050D01*
X22374694Y-22985645D01*
X22374698Y-22985647D01*
X22468475Y-23000499D01*
X22468481Y-23000500D01*
X23731518Y-23000499D01*
X23825304Y-22985646D01*
X23938342Y-22928050D01*
X24028050Y-22838342D01*
X24085646Y-22725304D01*
X24085646Y-22725302D01*
X24085647Y-22725301D01*
X24096282Y-22658147D01*
X24100500Y-22631519D01*
X24100500Y-22098543D01*
X39879499Y-22098543D01*
X39917947Y-22291829D01*
X39917950Y-22291839D01*
X39993364Y-22473907D01*
X39993371Y-22473920D01*
X40102860Y-22637781D01*
X40102863Y-22637785D01*
X40242214Y-22777136D01*
X40242218Y-22777139D01*
X40406079Y-22886628D01*
X40406092Y-22886635D01*
X40588160Y-22962049D01*
X40588165Y-22962051D01*
X40588169Y-22962051D01*
X40588170Y-22962052D01*
X40781456Y-23000500D01*
X40781459Y-23000500D01*
X40978543Y-23000500D01*
X41108582Y-22974632D01*
X41171835Y-22962051D01*
X41353914Y-22886632D01*
X41517782Y-22777139D01*
X41517785Y-22777136D01*
X41520021Y-22775302D01*
X41521422Y-22774706D01*
X41522847Y-22773755D01*
X41523027Y-22774025D01*
X41584330Y-22747987D01*
X41653198Y-22759777D01*
X41686369Y-22783472D01*
X59506633Y-40603736D01*
X59540118Y-40665059D01*
X59535134Y-40734751D01*
X59493262Y-40790684D01*
X59427798Y-40815101D01*
X59380634Y-40809348D01*
X59292705Y-40780778D01*
X59098382Y-40750000D01*
X58901618Y-40750000D01*
X58707294Y-40780778D01*
X58520164Y-40841581D01*
X58344855Y-40930905D01*
X58344846Y-40930911D01*
X58268919Y-40986075D01*
X58268918Y-40986076D01*
X58776686Y-41493844D01*
X58662292Y-41559890D01*
X58559890Y-41662292D01*
X58493844Y-41776686D01*
X57986076Y-41268918D01*
X57986075Y-41268919D01*
X57930911Y-41344846D01*
X57930905Y-41344855D01*
X57841581Y-41520164D01*
X57780778Y-41707294D01*
X57750000Y-41901617D01*
X57750000Y-42098382D01*
X57780778Y-42292705D01*
X57841581Y-42479835D01*
X57930904Y-42655143D01*
X57986076Y-42731079D01*
X57986077Y-42731080D01*
X58493844Y-42223312D01*
X58559890Y-42337708D01*
X58662292Y-42440110D01*
X58776686Y-42506154D01*
X58268918Y-43013922D01*
X58344856Y-43069095D01*
X58520164Y-43158418D01*
X58707294Y-43219221D01*
X58901618Y-43250000D01*
X59098382Y-43250000D01*
X59292705Y-43219221D01*
X59479835Y-43158418D01*
X59655143Y-43069095D01*
X59731079Y-43013922D01*
X59731080Y-43013921D01*
X59223313Y-42506154D01*
X59337708Y-42440110D01*
X59440110Y-42337708D01*
X59506155Y-42223313D01*
X60013922Y-42731080D01*
X60013922Y-42731079D01*
X60069095Y-42655143D01*
X60158418Y-42479835D01*
X60204378Y-42338387D01*
X60243815Y-42280712D01*
X60308174Y-42253513D01*
X60377020Y-42265428D01*
X60428496Y-42312672D01*
X60440240Y-42338387D01*
X60473787Y-42441636D01*
X60473788Y-42441639D01*
X60556006Y-42602997D01*
X60662441Y-42749494D01*
X60662445Y-42749499D01*
X60790500Y-42877554D01*
X60790505Y-42877558D01*
X60900924Y-42957781D01*
X60937006Y-42983996D01*
X61023818Y-43028229D01*
X61098360Y-43066211D01*
X61098363Y-43066212D01*
X61184476Y-43094191D01*
X61270591Y-43122171D01*
X61353429Y-43135291D01*
X61449449Y-43150500D01*
X61449454Y-43150500D01*
X61630551Y-43150500D01*
X61717259Y-43136765D01*
X61809409Y-43122171D01*
X61981639Y-43066211D01*
X62142994Y-42983996D01*
X62289501Y-42877553D01*
X62417553Y-42749501D01*
X62523996Y-42602994D01*
X62606211Y-42441639D01*
X62662171Y-42269409D01*
X62679954Y-42157131D01*
X62690500Y-42090551D01*
X62690500Y-41909448D01*
X65469500Y-41909448D01*
X65469500Y-42090551D01*
X65497829Y-42269410D01*
X65553787Y-42441636D01*
X65553788Y-42441639D01*
X65636006Y-42602997D01*
X65742441Y-42749494D01*
X65742445Y-42749499D01*
X65870500Y-42877554D01*
X65870505Y-42877558D01*
X65980924Y-42957781D01*
X66017006Y-42983996D01*
X66103818Y-43028229D01*
X66178360Y-43066211D01*
X66178363Y-43066212D01*
X66264476Y-43094191D01*
X66350591Y-43122171D01*
X66433429Y-43135291D01*
X66529449Y-43150500D01*
X66529454Y-43150500D01*
X66710551Y-43150500D01*
X66797259Y-43136765D01*
X66889409Y-43122171D01*
X67061639Y-43066211D01*
X67222994Y-42983996D01*
X67369501Y-42877553D01*
X67497553Y-42749501D01*
X67603996Y-42602994D01*
X67686211Y-42441639D01*
X67719759Y-42338388D01*
X67759196Y-42280712D01*
X67823554Y-42253513D01*
X67892401Y-42265427D01*
X67943877Y-42312671D01*
X67955621Y-42338386D01*
X68001582Y-42479837D01*
X68090904Y-42655143D01*
X68146076Y-42731079D01*
X68146077Y-42731080D01*
X68653844Y-42223312D01*
X68719890Y-42337708D01*
X68822292Y-42440110D01*
X68936686Y-42506154D01*
X68428918Y-43013922D01*
X68504856Y-43069095D01*
X68680164Y-43158418D01*
X68867294Y-43219221D01*
X69061618Y-43250000D01*
X69258382Y-43250000D01*
X69452705Y-43219221D01*
X69639835Y-43158418D01*
X69815143Y-43069095D01*
X69891079Y-43013922D01*
X69891080Y-43013921D01*
X69383313Y-42506154D01*
X69497708Y-42440110D01*
X69600110Y-42337708D01*
X69666154Y-42223313D01*
X70173921Y-42731080D01*
X70173922Y-42731079D01*
X70229095Y-42655143D01*
X70318418Y-42479835D01*
X70364378Y-42338387D01*
X70403815Y-42280712D01*
X70468174Y-42253513D01*
X70537020Y-42265428D01*
X70588496Y-42312672D01*
X70600240Y-42338387D01*
X70633787Y-42441636D01*
X70633788Y-42441639D01*
X70716006Y-42602997D01*
X70822441Y-42749494D01*
X70822445Y-42749499D01*
X70950500Y-42877554D01*
X70950505Y-42877558D01*
X71060924Y-42957781D01*
X71097006Y-42983996D01*
X71183818Y-43028229D01*
X71258360Y-43066211D01*
X71258363Y-43066212D01*
X71344476Y-43094191D01*
X71430591Y-43122171D01*
X71513429Y-43135291D01*
X71609449Y-43150500D01*
X71609454Y-43150500D01*
X71790551Y-43150500D01*
X71877259Y-43136765D01*
X71969409Y-43122171D01*
X72141639Y-43066211D01*
X72302994Y-42983996D01*
X72449501Y-42877553D01*
X72577553Y-42749501D01*
X72683996Y-42602994D01*
X72766211Y-42441639D01*
X72822171Y-42269409D01*
X72839954Y-42157131D01*
X72850500Y-42090551D01*
X72850500Y-41909448D01*
X72831217Y-41787708D01*
X72822171Y-41730591D01*
X72766211Y-41558361D01*
X72766211Y-41558360D01*
X72730096Y-41487482D01*
X72683996Y-41397006D01*
X72590936Y-41268919D01*
X72577558Y-41250505D01*
X72577554Y-41250500D01*
X72449499Y-41122445D01*
X72449494Y-41122441D01*
X72302997Y-41016006D01*
X72302996Y-41016005D01*
X72302994Y-41016004D01*
X72244257Y-40986076D01*
X72141639Y-40933788D01*
X72141636Y-40933787D01*
X71969410Y-40877829D01*
X71790551Y-40849500D01*
X71790546Y-40849500D01*
X71609454Y-40849500D01*
X71609449Y-40849500D01*
X71430589Y-40877829D01*
X71258363Y-40933787D01*
X71258360Y-40933788D01*
X71097002Y-41016006D01*
X70950505Y-41122441D01*
X70950500Y-41122445D01*
X70822445Y-41250500D01*
X70822441Y-41250505D01*
X70716006Y-41397002D01*
X70633788Y-41558360D01*
X70633787Y-41558363D01*
X70600240Y-41661612D01*
X70560802Y-41719288D01*
X70496444Y-41746486D01*
X70427597Y-41734571D01*
X70376122Y-41687327D01*
X70364378Y-41661612D01*
X70318418Y-41520164D01*
X70229095Y-41344856D01*
X70173922Y-41268919D01*
X70173922Y-41268918D01*
X69666154Y-41776686D01*
X69600110Y-41662292D01*
X69497708Y-41559890D01*
X69383312Y-41493844D01*
X69891080Y-40986077D01*
X69891079Y-40986076D01*
X69815143Y-40930904D01*
X69639835Y-40841581D01*
X69452705Y-40780778D01*
X69258382Y-40750000D01*
X69061618Y-40750000D01*
X68867294Y-40780778D01*
X68680164Y-40841581D01*
X68504855Y-40930905D01*
X68504846Y-40930911D01*
X68428919Y-40986075D01*
X68428918Y-40986076D01*
X68936687Y-41493844D01*
X68822292Y-41559890D01*
X68719890Y-41662292D01*
X68653844Y-41776686D01*
X68146076Y-41268918D01*
X68146075Y-41268919D01*
X68090911Y-41344846D01*
X68090905Y-41344855D01*
X68001581Y-41520162D01*
X67955621Y-41661613D01*
X67916183Y-41719288D01*
X67851824Y-41746486D01*
X67782978Y-41734571D01*
X67731502Y-41687327D01*
X67719759Y-41661611D01*
X67686213Y-41558366D01*
X67686211Y-41558360D01*
X67650096Y-41487482D01*
X67603996Y-41397006D01*
X67510936Y-41268919D01*
X67497558Y-41250505D01*
X67497554Y-41250500D01*
X67369499Y-41122445D01*
X67369494Y-41122441D01*
X67222997Y-41016006D01*
X67222996Y-41016005D01*
X67222994Y-41016004D01*
X67164257Y-40986076D01*
X67061639Y-40933788D01*
X67061636Y-40933787D01*
X66889410Y-40877829D01*
X66710551Y-40849500D01*
X66710546Y-40849500D01*
X66529454Y-40849500D01*
X66529449Y-40849500D01*
X66350589Y-40877829D01*
X66178363Y-40933787D01*
X66178360Y-40933788D01*
X66017002Y-41016006D01*
X65870505Y-41122441D01*
X65870500Y-41122445D01*
X65742445Y-41250500D01*
X65742441Y-41250505D01*
X65636006Y-41397002D01*
X65553788Y-41558360D01*
X65553787Y-41558363D01*
X65497829Y-41730589D01*
X65469500Y-41909448D01*
X62690500Y-41909448D01*
X62671217Y-41787708D01*
X62662171Y-41730591D01*
X62606211Y-41558361D01*
X62606211Y-41558360D01*
X62570096Y-41487482D01*
X62523996Y-41397006D01*
X62430936Y-41268919D01*
X62417558Y-41250505D01*
X62417554Y-41250500D01*
X62289499Y-41122445D01*
X62289494Y-41122441D01*
X62142997Y-41016006D01*
X62142996Y-41016005D01*
X62142994Y-41016004D01*
X62084257Y-40986076D01*
X61981639Y-40933788D01*
X61981636Y-40933787D01*
X61809410Y-40877829D01*
X61630551Y-40849500D01*
X61630546Y-40849500D01*
X61449454Y-40849500D01*
X61449449Y-40849500D01*
X61270592Y-40877828D01*
X61180084Y-40907235D01*
X61110243Y-40909229D01*
X61054087Y-40876984D01*
X41828932Y-21651829D01*
X41802053Y-21611602D01*
X41766632Y-21526086D01*
X41766627Y-21526079D01*
X41657139Y-21362217D01*
X41517785Y-21222863D01*
X41517781Y-21222860D01*
X41353920Y-21113371D01*
X41353907Y-21113364D01*
X41171839Y-21037950D01*
X41171829Y-21037947D01*
X40978543Y-20999500D01*
X40978541Y-20999500D01*
X40781459Y-20999500D01*
X40781457Y-20999500D01*
X40588170Y-21037947D01*
X40588160Y-21037950D01*
X40406092Y-21113364D01*
X40406079Y-21113371D01*
X40242218Y-21222860D01*
X40242214Y-21222863D01*
X40102863Y-21362214D01*
X40102860Y-21362218D01*
X39993371Y-21526079D01*
X39993364Y-21526092D01*
X39917950Y-21708160D01*
X39917947Y-21708170D01*
X39879500Y-21901456D01*
X39879500Y-21901459D01*
X39879500Y-22098541D01*
X39879500Y-22098543D01*
X39879499Y-22098543D01*
X24100500Y-22098543D01*
X24100499Y-21368482D01*
X24085646Y-21274696D01*
X24028050Y-21161658D01*
X24028046Y-21161654D01*
X24028045Y-21161652D01*
X23938347Y-21071954D01*
X23938344Y-21071952D01*
X23938342Y-21071950D01*
X23861517Y-21032805D01*
X23825301Y-21014352D01*
X23731524Y-20999500D01*
X22468482Y-20999500D01*
X22387519Y-21012323D01*
X22374696Y-21014354D01*
X22261658Y-21071950D01*
X22261657Y-21071951D01*
X22261652Y-21071954D01*
X22171954Y-21161652D01*
X22171951Y-21161657D01*
X22114352Y-21274698D01*
X22099500Y-21368475D01*
X20500500Y-21368475D01*
X20500500Y-20624500D01*
X20520185Y-20557461D01*
X20572989Y-20511706D01*
X20624500Y-20500500D01*
X74375500Y-20500500D01*
X74442539Y-20520185D01*
G37*
%TD.AperFunction*%
%TD*%
M02*
