%TF.GenerationSoftware,KiCad,Pcbnew,10.0.4*%
%TF.CreationDate,2026-07-23T22:47:19-03:00*%
%TF.ProjectId,pong-retrosc-yd,706f6e67-2d72-4657-9472-6f73632d7964,rev?*%
%TF.SameCoordinates,Original*%
%TF.FileFunction,Drillmap*%
%TF.FilePolarity,Positive*%
%FSLAX45Y45*%
G04 Gerber Fmt 4.5, Leading zero omitted, Abs format (unit mm)*
G04 Created by KiCad (PCBNEW 10.0.4) date 2026-07-23 22:47:19*
%MOMM*%
%LPD*%
G01*
G04 APERTURE LIST*
%ADD10C,0.100000*%
%ADD11C,0.200000*%
%ADD12C,0.110000*%
%ADD13C,0.130000*%
%ADD14C,0.150000*%
%ADD15C,0.320000*%
G04 APERTURE END LIST*
D10*
X2000000Y-2000000D02*
X7500000Y-2000000D01*
X2000000Y-10800000D02*
X2000000Y-2000000D01*
X7500000Y-2000000D02*
X7500000Y-10800000D01*
X7500000Y-10800000D02*
X2000000Y-10800000D01*
D11*
D10*
X4236630Y-8886340D02*
X4271630Y-8921340D01*
X4271630Y-8886340D02*
X4236630Y-8921340D01*
X4306340Y-7689920D02*
X4341340Y-7724920D01*
X4341340Y-7689920D02*
X4306340Y-7724920D01*
X5374500Y-7730940D02*
X5409500Y-7765940D01*
X5409500Y-7730940D02*
X5374500Y-7765940D01*
X5290000Y-8900000D02*
G75*
G02*
X5210000Y-8900000I-40000J0D01*
G01*
X5210000Y-8900000D02*
G75*
G02*
X5290000Y-8900000I40000J0D01*
G01*
X5540000Y-4800000D02*
G75*
G02*
X5460000Y-4800000I-40000J0D01*
G01*
X5460000Y-4800000D02*
G75*
G02*
X5540000Y-4800000I40000J0D01*
G01*
X5540000Y-5500000D02*
G75*
G02*
X5460000Y-5500000I-40000J0D01*
G01*
X5460000Y-5500000D02*
G75*
G02*
X5540000Y-5500000I40000J0D01*
G01*
X5540000Y-6200000D02*
G75*
G02*
X5460000Y-6200000I-40000J0D01*
G01*
X5460000Y-6200000D02*
G75*
G02*
X5540000Y-6200000I40000J0D01*
G01*
X5540000Y-6800000D02*
G75*
G02*
X5460000Y-6800000I-40000J0D01*
G01*
X5460000Y-6800000D02*
G75*
G02*
X5540000Y-6800000I40000J0D01*
G01*
X5540000Y-7400000D02*
G75*
G02*
X5460000Y-7400000I-40000J0D01*
G01*
X5460000Y-7400000D02*
G75*
G02*
X5540000Y-7400000I40000J0D01*
G01*
X5540000Y-8100000D02*
G75*
G02*
X5460000Y-8100000I-40000J0D01*
G01*
X5460000Y-8100000D02*
G75*
G02*
X5540000Y-8100000I40000J0D01*
G01*
X5540000Y-8900000D02*
G75*
G02*
X5460000Y-8900000I-40000J0D01*
G01*
X5460000Y-8900000D02*
G75*
G02*
X5540000Y-8900000I40000J0D01*
G01*
X5540000Y-9600000D02*
G75*
G02*
X5460000Y-9600000I-40000J0D01*
G01*
X5460000Y-9600000D02*
G75*
G02*
X5540000Y-9600000I40000J0D01*
G01*
X5540000Y-10200000D02*
G75*
G02*
X5460000Y-10200000I-40000J0D01*
G01*
X5460000Y-10200000D02*
G75*
G02*
X5540000Y-10200000I40000J0D01*
G01*
X5794000Y-6200000D02*
G75*
G02*
X5714000Y-6200000I-40000J0D01*
G01*
X5714000Y-6200000D02*
G75*
G02*
X5794000Y-6200000I40000J0D01*
G01*
X5794000Y-6800000D02*
G75*
G02*
X5714000Y-6800000I-40000J0D01*
G01*
X5714000Y-6800000D02*
G75*
G02*
X5794000Y-6800000I40000J0D01*
G01*
X5794000Y-7400000D02*
G75*
G02*
X5714000Y-7400000I-40000J0D01*
G01*
X5714000Y-7400000D02*
G75*
G02*
X5794000Y-7400000I40000J0D01*
G01*
X5794000Y-9600000D02*
G75*
G02*
X5714000Y-9600000I-40000J0D01*
G01*
X5714000Y-9600000D02*
G75*
G02*
X5794000Y-9600000I40000J0D01*
G01*
X5794000Y-10200000D02*
G75*
G02*
X5714000Y-10200000I-40000J0D01*
G01*
X5714000Y-10200000D02*
G75*
G02*
X5794000Y-10200000I40000J0D01*
G01*
X6040000Y-4800000D02*
G75*
G02*
X5960000Y-4800000I-40000J0D01*
G01*
X5960000Y-4800000D02*
G75*
G02*
X6040000Y-4800000I40000J0D01*
G01*
X6040000Y-5500000D02*
G75*
G02*
X5960000Y-5500000I-40000J0D01*
G01*
X5960000Y-5500000D02*
G75*
G02*
X6040000Y-5500000I40000J0D01*
G01*
X6040000Y-8100000D02*
G75*
G02*
X5960000Y-8100000I-40000J0D01*
G01*
X5960000Y-8100000D02*
G75*
G02*
X6040000Y-8100000I40000J0D01*
G01*
X6140000Y-9600000D02*
G75*
G02*
X6060000Y-9600000I-40000J0D01*
G01*
X6060000Y-9600000D02*
G75*
G02*
X6140000Y-9600000I40000J0D01*
G01*
X6394000Y-9600000D02*
G75*
G02*
X6314000Y-9600000I-40000J0D01*
G01*
X6314000Y-9600000D02*
G75*
G02*
X6394000Y-9600000I40000J0D01*
G01*
X6740000Y-9600000D02*
G75*
G02*
X6660000Y-9600000I-40000J0D01*
G01*
X6660000Y-9600000D02*
G75*
G02*
X6740000Y-9600000I40000J0D01*
G01*
X6994000Y-9600000D02*
G75*
G02*
X6914000Y-9600000I-40000J0D01*
G01*
X6914000Y-9600000D02*
G75*
G02*
X6994000Y-9600000I40000J0D01*
G01*
X2310000Y-2150000D02*
X2310000Y-2250000D01*
X2260000Y-2200000D02*
X2360000Y-2200000D01*
X2310000Y-2404000D02*
X2310000Y-2504000D01*
X2260000Y-2454000D02*
X2360000Y-2454000D01*
X2310000Y-2658000D02*
X2310000Y-2758000D01*
X2260000Y-2708000D02*
X2360000Y-2708000D01*
X2310000Y-2912000D02*
X2310000Y-3012000D01*
X2260000Y-2962000D02*
X2360000Y-2962000D01*
X2310000Y-3166000D02*
X2310000Y-3266000D01*
X2260000Y-3216000D02*
X2360000Y-3216000D01*
X2310000Y-3420000D02*
X2310000Y-3520000D01*
X2260000Y-3470000D02*
X2360000Y-3470000D01*
X2310000Y-3674000D02*
X2310000Y-3774000D01*
X2260000Y-3724000D02*
X2360000Y-3724000D01*
X2310000Y-3928000D02*
X2310000Y-4028000D01*
X2260000Y-3978000D02*
X2360000Y-3978000D01*
X2310000Y-4182000D02*
X2310000Y-4282000D01*
X2260000Y-4232000D02*
X2360000Y-4232000D01*
X2310000Y-4436000D02*
X2310000Y-4536000D01*
X2260000Y-4486000D02*
X2360000Y-4486000D01*
X2310000Y-4690000D02*
X2310000Y-4790000D01*
X2260000Y-4740000D02*
X2360000Y-4740000D01*
X2310000Y-4944000D02*
X2310000Y-5044000D01*
X2260000Y-4994000D02*
X2360000Y-4994000D01*
X2310000Y-5198000D02*
X2310000Y-5298000D01*
X2260000Y-5248000D02*
X2360000Y-5248000D01*
X2310000Y-5452000D02*
X2310000Y-5552000D01*
X2260000Y-5502000D02*
X2360000Y-5502000D01*
X2310000Y-5706000D02*
X2310000Y-5806000D01*
X2260000Y-5756000D02*
X2360000Y-5756000D01*
X2310000Y-5960000D02*
X2310000Y-6060000D01*
X2260000Y-6010000D02*
X2360000Y-6010000D01*
X2310000Y-6214000D02*
X2310000Y-6314000D01*
X2260000Y-6264000D02*
X2360000Y-6264000D01*
X2310000Y-6468000D02*
X2310000Y-6568000D01*
X2260000Y-6518000D02*
X2360000Y-6518000D01*
X2310000Y-6722000D02*
X2310000Y-6822000D01*
X2260000Y-6772000D02*
X2360000Y-6772000D01*
X2310000Y-6976000D02*
X2310000Y-7076000D01*
X2260000Y-7026000D02*
X2360000Y-7026000D01*
X2400000Y-7750000D02*
X2400000Y-7850000D01*
X2350000Y-7800000D02*
X2450000Y-7800000D01*
X2400000Y-8950000D02*
X2400000Y-9050000D01*
X2350000Y-9000000D02*
X2450000Y-9000000D01*
X2654000Y-7750000D02*
X2654000Y-7850000D01*
X2604000Y-7800000D02*
X2704000Y-7800000D01*
X2654000Y-8950000D02*
X2654000Y-9050000D01*
X2604000Y-9000000D02*
X2704000Y-9000000D01*
X2908000Y-7750000D02*
X2908000Y-7850000D01*
X2858000Y-7800000D02*
X2958000Y-7800000D01*
X2908000Y-8950000D02*
X2908000Y-9050000D01*
X2858000Y-9000000D02*
X2958000Y-9000000D01*
X3162000Y-7750000D02*
X3162000Y-7850000D01*
X3112000Y-7800000D02*
X3212000Y-7800000D01*
X3350000Y-10150000D02*
X3350000Y-10250000D01*
X3300000Y-10200000D02*
X3400000Y-10200000D01*
X3416000Y-7750000D02*
X3416000Y-7850000D01*
X3366000Y-7800000D02*
X3466000Y-7800000D01*
X3416000Y-8950000D02*
X3416000Y-9050000D01*
X3366000Y-9000000D02*
X3466000Y-9000000D01*
X3604000Y-10150000D02*
X3604000Y-10250000D01*
X3554000Y-10200000D02*
X3654000Y-10200000D01*
X3670000Y-7750000D02*
X3670000Y-7850000D01*
X3620000Y-7800000D02*
X3720000Y-7800000D01*
X3670000Y-8950000D02*
X3670000Y-9050000D01*
X3620000Y-9000000D02*
X3720000Y-9000000D01*
X3924000Y-8950000D02*
X3924000Y-9050000D01*
X3874000Y-9000000D02*
X3974000Y-9000000D01*
X4088000Y-2150000D02*
X4088000Y-2250000D01*
X4038000Y-2200000D02*
X4138000Y-2200000D01*
X4088000Y-2404000D02*
X4088000Y-2504000D01*
X4038000Y-2454000D02*
X4138000Y-2454000D01*
X4088000Y-2658000D02*
X4088000Y-2758000D01*
X4038000Y-2708000D02*
X4138000Y-2708000D01*
X4088000Y-2912000D02*
X4088000Y-3012000D01*
X4038000Y-2962000D02*
X4138000Y-2962000D01*
X4088000Y-3166000D02*
X4088000Y-3266000D01*
X4038000Y-3216000D02*
X4138000Y-3216000D01*
X4088000Y-3420000D02*
X4088000Y-3520000D01*
X4038000Y-3470000D02*
X4138000Y-3470000D01*
X4088000Y-3674000D02*
X4088000Y-3774000D01*
X4038000Y-3724000D02*
X4138000Y-3724000D01*
X4088000Y-3928000D02*
X4088000Y-4028000D01*
X4038000Y-3978000D02*
X4138000Y-3978000D01*
X4088000Y-4182000D02*
X4088000Y-4282000D01*
X4038000Y-4232000D02*
X4138000Y-4232000D01*
X4088000Y-4436000D02*
X4088000Y-4536000D01*
X4038000Y-4486000D02*
X4138000Y-4486000D01*
X4088000Y-4690000D02*
X4088000Y-4790000D01*
X4038000Y-4740000D02*
X4138000Y-4740000D01*
X4088000Y-4944000D02*
X4088000Y-5044000D01*
X4038000Y-4994000D02*
X4138000Y-4994000D01*
X4088000Y-5198000D02*
X4088000Y-5298000D01*
X4038000Y-5248000D02*
X4138000Y-5248000D01*
X4088000Y-5452000D02*
X4088000Y-5552000D01*
X4038000Y-5502000D02*
X4138000Y-5502000D01*
X4088000Y-5706000D02*
X4088000Y-5806000D01*
X4038000Y-5756000D02*
X4138000Y-5756000D01*
X4088000Y-5960000D02*
X4088000Y-6060000D01*
X4038000Y-6010000D02*
X4138000Y-6010000D01*
X4088000Y-6214000D02*
X4088000Y-6314000D01*
X4038000Y-6264000D02*
X4138000Y-6264000D01*
X4088000Y-6468000D02*
X4088000Y-6568000D01*
X4038000Y-6518000D02*
X4138000Y-6518000D01*
X4088000Y-6722000D02*
X4088000Y-6822000D01*
X4038000Y-6772000D02*
X4138000Y-6772000D01*
X4088000Y-6976000D02*
X4088000Y-7076000D01*
X4038000Y-7026000D02*
X4138000Y-7026000D01*
D12*
X4668891Y-4238891D02*
X4668891Y-4161109D01*
X4591109Y-4161109D01*
X4591109Y-4238891D01*
X4668891Y-4238891D01*
X4922891Y-4238891D02*
X4922891Y-4161109D01*
X4845109Y-4161109D01*
X4845109Y-4238891D01*
X4922891Y-4238891D01*
X5176891Y-4238891D02*
X5176891Y-4161109D01*
X5099109Y-4161109D01*
X5099109Y-4238891D01*
X5176891Y-4238891D01*
X5430891Y-4238891D02*
X5430891Y-4161109D01*
X5353109Y-4161109D01*
X5353109Y-4238891D01*
X5430891Y-4238891D01*
X5938891Y-4238891D02*
X5938891Y-4161109D01*
X5861109Y-4161109D01*
X5861109Y-4238891D01*
X5938891Y-4238891D01*
X6192891Y-4238891D02*
X6192891Y-4161109D01*
X6115109Y-4161109D01*
X6115109Y-4238891D01*
X6192891Y-4238891D01*
X6700891Y-4238891D02*
X6700891Y-4161109D01*
X6623109Y-4161109D01*
X6623109Y-4238891D01*
X6700891Y-4238891D01*
X6954891Y-4238891D02*
X6954891Y-4161109D01*
X6877109Y-4161109D01*
X6877109Y-4238891D01*
X6954891Y-4238891D01*
X7208891Y-4238891D02*
X7208891Y-4161109D01*
X7131109Y-4161109D01*
X7131109Y-4238891D01*
X7208891Y-4238891D01*
D13*
X6750000Y-4715000D02*
X6815000Y-4650000D01*
X6750000Y-4585000D01*
X6685000Y-4650000D01*
X6750000Y-4715000D01*
D10*
X6695000Y-4715000D02*
X6805000Y-4715000D01*
X6805000Y-4585000D02*
G75*
G02*
X6805000Y-4715000I0J-65000D01*
G01*
X6805000Y-4585000D02*
X6695000Y-4585000D01*
X6695000Y-4585000D02*
G75*
G03*
X6695000Y-4715000I0J-65000D01*
G01*
D13*
X6750000Y-5715000D02*
X6815000Y-5650000D01*
X6750000Y-5585000D01*
X6685000Y-5650000D01*
X6750000Y-5715000D01*
D10*
X6695000Y-5715000D02*
X6805000Y-5715000D01*
X6805000Y-5585000D02*
G75*
G02*
X6805000Y-5715000I0J-65000D01*
G01*
X6805000Y-5585000D02*
X6695000Y-5585000D01*
X6695000Y-5585000D02*
G75*
G03*
X6695000Y-5715000I0J-65000D01*
G01*
D13*
X6750000Y-6315000D02*
X6815000Y-6250000D01*
X6750000Y-6185000D01*
X6685000Y-6250000D01*
X6750000Y-6315000D01*
D10*
X6695000Y-6315000D02*
X6805000Y-6315000D01*
X6805000Y-6185000D02*
G75*
G02*
X6805000Y-6315000I0J-65000D01*
G01*
X6805000Y-6185000D02*
X6695000Y-6185000D01*
X6695000Y-6185000D02*
G75*
G03*
X6695000Y-6315000I0J-65000D01*
G01*
D13*
X6750000Y-7315000D02*
X6815000Y-7250000D01*
X6750000Y-7185000D01*
X6685000Y-7250000D01*
X6750000Y-7315000D01*
D10*
X6695000Y-7315000D02*
X6805000Y-7315000D01*
X6805000Y-7185000D02*
G75*
G02*
X6805000Y-7315000I0J-65000D01*
G01*
X6805000Y-7185000D02*
X6695000Y-7185000D01*
X6695000Y-7185000D02*
G75*
G03*
X6695000Y-7315000I0J-65000D01*
G01*
D13*
X6750000Y-7915000D02*
X6815000Y-7850000D01*
X6750000Y-7785000D01*
X6685000Y-7850000D01*
X6750000Y-7915000D01*
D10*
X6695000Y-7915000D02*
X6805000Y-7915000D01*
X6805000Y-7785000D02*
G75*
G02*
X6805000Y-7915000I0J-65000D01*
G01*
X6805000Y-7785000D02*
X6695000Y-7785000D01*
X6695000Y-7785000D02*
G75*
G03*
X6695000Y-7915000I0J-65000D01*
G01*
D13*
X6750000Y-8915000D02*
X6815000Y-8850000D01*
X6750000Y-8785000D01*
X6685000Y-8850000D01*
X6750000Y-8915000D01*
D10*
X6695000Y-8915000D02*
X6805000Y-8915000D01*
X6805000Y-8785000D02*
G75*
G02*
X6805000Y-8915000I0J-65000D01*
G01*
X6805000Y-8785000D02*
X6695000Y-8785000D01*
X6695000Y-8785000D02*
G75*
G03*
X6695000Y-8915000I0J-65000D01*
G01*
D13*
X7250000Y-5215000D02*
X7315000Y-5150000D01*
X7250000Y-5085000D01*
X7185000Y-5150000D01*
X7250000Y-5215000D01*
D10*
X7185000Y-5095000D02*
X7185000Y-5205000D01*
X7315000Y-5205000D02*
G75*
G02*
X7185000Y-5205000I-65000J0D01*
G01*
X7315000Y-5205000D02*
X7315000Y-5095000D01*
X7315000Y-5095000D02*
G75*
G03*
X7185000Y-5095000I-65000J0D01*
G01*
D13*
X7250000Y-6815000D02*
X7315000Y-6750000D01*
X7250000Y-6685000D01*
X7185000Y-6750000D01*
X7250000Y-6815000D01*
D10*
X7185000Y-6695000D02*
X7185000Y-6805000D01*
X7315000Y-6805000D02*
G75*
G02*
X7185000Y-6805000I-65000J0D01*
G01*
X7315000Y-6805000D02*
X7315000Y-6695000D01*
X7315000Y-6695000D02*
G75*
G03*
X7185000Y-6695000I-65000J0D01*
G01*
D13*
X7250000Y-8415000D02*
X7315000Y-8350000D01*
X7250000Y-8285000D01*
X7185000Y-8350000D01*
X7250000Y-8415000D01*
D10*
X7185000Y-8295000D02*
X7185000Y-8405000D01*
X7315000Y-8405000D02*
G75*
G02*
X7185000Y-8405000I-65000J0D01*
G01*
X7315000Y-8405000D02*
X7315000Y-8295000D01*
X7315000Y-8295000D02*
G75*
G03*
X7185000Y-8295000I-65000J0D01*
G01*
D14*
X6675000Y-5075000D02*
X6825000Y-5225000D01*
X6825000Y-5075000D02*
X6675000Y-5225000D01*
X6825000Y-5150000D02*
G75*
G02*
X6675000Y-5150000I-75000J0D01*
G01*
X6675000Y-5150000D02*
G75*
G02*
X6825000Y-5150000I75000J0D01*
G01*
X6675000Y-6675000D02*
X6825000Y-6825000D01*
X6825000Y-6675000D02*
X6675000Y-6825000D01*
X6825000Y-6750000D02*
G75*
G02*
X6675000Y-6750000I-75000J0D01*
G01*
X6675000Y-6750000D02*
G75*
G02*
X6825000Y-6750000I75000J0D01*
G01*
X6675000Y-8275000D02*
X6825000Y-8425000D01*
X6825000Y-8275000D02*
X6675000Y-8425000D01*
X6825000Y-8350000D02*
G75*
G02*
X6675000Y-8350000I-75000J0D01*
G01*
X6675000Y-8350000D02*
G75*
G02*
X6825000Y-8350000I75000J0D01*
G01*
D15*
X2340000Y-10240000D02*
X2660000Y-10560000D01*
X2660000Y-10240000D02*
X2340000Y-10560000D01*
X2500000Y-10240000D02*
X2500000Y-10560000D01*
X2340000Y-10400000D02*
X2660000Y-10400000D01*
X4590000Y-5740000D02*
X4910000Y-6060000D01*
X4910000Y-5740000D02*
X4590000Y-6060000D01*
X4750000Y-5740000D02*
X4750000Y-6060000D01*
X4590000Y-5900000D02*
X4910000Y-5900000D01*
X4590000Y-10240000D02*
X4910000Y-10560000D01*
X4910000Y-10240000D02*
X4590000Y-10560000D01*
X4750000Y-10240000D02*
X4750000Y-10560000D01*
X4590000Y-10400000D02*
X4910000Y-10400000D01*
X6840000Y-10240000D02*
X7160000Y-10560000D01*
X7160000Y-10240000D02*
X6840000Y-10560000D01*
X7000000Y-10240000D02*
X7000000Y-10560000D01*
X6840000Y-10400000D02*
X7160000Y-10400000D01*
D11*
X2255777Y-11116484D02*
X2255777Y-10916484D01*
X2255777Y-10916484D02*
X2303396Y-10916484D01*
X2303396Y-10916484D02*
X2331967Y-10926008D01*
X2331967Y-10926008D02*
X2351015Y-10945055D01*
X2351015Y-10945055D02*
X2360539Y-10964103D01*
X2360539Y-10964103D02*
X2370063Y-11002198D01*
X2370063Y-11002198D02*
X2370063Y-11030770D01*
X2370063Y-11030770D02*
X2360539Y-11068865D01*
X2360539Y-11068865D02*
X2351015Y-11087912D01*
X2351015Y-11087912D02*
X2331967Y-11106960D01*
X2331967Y-11106960D02*
X2303396Y-11116484D01*
X2303396Y-11116484D02*
X2255777Y-11116484D01*
X2455777Y-11116484D02*
X2455777Y-10983150D01*
X2455777Y-11021246D02*
X2465301Y-11002198D01*
X2465301Y-11002198D02*
X2474824Y-10992674D01*
X2474824Y-10992674D02*
X2493872Y-10983150D01*
X2493872Y-10983150D02*
X2512920Y-10983150D01*
X2579586Y-11116484D02*
X2579586Y-10983150D01*
X2579586Y-10916484D02*
X2570063Y-10926008D01*
X2570063Y-10926008D02*
X2579586Y-10935531D01*
X2579586Y-10935531D02*
X2589110Y-10926008D01*
X2589110Y-10926008D02*
X2579586Y-10916484D01*
X2579586Y-10916484D02*
X2579586Y-10935531D01*
X2703396Y-11116484D02*
X2684348Y-11106960D01*
X2684348Y-11106960D02*
X2674824Y-11087912D01*
X2674824Y-11087912D02*
X2674824Y-10916484D01*
X2808158Y-11116484D02*
X2789110Y-11106960D01*
X2789110Y-11106960D02*
X2779586Y-11087912D01*
X2779586Y-11087912D02*
X2779586Y-10916484D01*
X3036729Y-11116484D02*
X3036729Y-10916484D01*
X3036729Y-10916484D02*
X3103396Y-11059341D01*
X3103396Y-11059341D02*
X3170062Y-10916484D01*
X3170062Y-10916484D02*
X3170062Y-11116484D01*
X3351015Y-11116484D02*
X3351015Y-11011722D01*
X3351015Y-11011722D02*
X3341491Y-10992674D01*
X3341491Y-10992674D02*
X3322443Y-10983150D01*
X3322443Y-10983150D02*
X3284348Y-10983150D01*
X3284348Y-10983150D02*
X3265301Y-10992674D01*
X3351015Y-11106960D02*
X3331967Y-11116484D01*
X3331967Y-11116484D02*
X3284348Y-11116484D01*
X3284348Y-11116484D02*
X3265301Y-11106960D01*
X3265301Y-11106960D02*
X3255777Y-11087912D01*
X3255777Y-11087912D02*
X3255777Y-11068865D01*
X3255777Y-11068865D02*
X3265301Y-11049817D01*
X3265301Y-11049817D02*
X3284348Y-11040293D01*
X3284348Y-11040293D02*
X3331967Y-11040293D01*
X3331967Y-11040293D02*
X3351015Y-11030770D01*
X3446253Y-10983150D02*
X3446253Y-11183150D01*
X3446253Y-10992674D02*
X3465301Y-10983150D01*
X3465301Y-10983150D02*
X3503396Y-10983150D01*
X3503396Y-10983150D02*
X3522443Y-10992674D01*
X3522443Y-10992674D02*
X3531967Y-11002198D01*
X3531967Y-11002198D02*
X3541491Y-11021246D01*
X3541491Y-11021246D02*
X3541491Y-11078389D01*
X3541491Y-11078389D02*
X3531967Y-11097436D01*
X3531967Y-11097436D02*
X3522443Y-11106960D01*
X3522443Y-11106960D02*
X3503396Y-11116484D01*
X3503396Y-11116484D02*
X3465301Y-11116484D01*
X3465301Y-11116484D02*
X3446253Y-11106960D01*
X3627205Y-11097436D02*
X3636729Y-11106960D01*
X3636729Y-11106960D02*
X3627205Y-11116484D01*
X3627205Y-11116484D02*
X3617682Y-11106960D01*
X3617682Y-11106960D02*
X3627205Y-11097436D01*
X3627205Y-11097436D02*
X3627205Y-11116484D01*
X3627205Y-10992674D02*
X3636729Y-11002198D01*
X3636729Y-11002198D02*
X3627205Y-11011722D01*
X3627205Y-11011722D02*
X3617682Y-11002198D01*
X3617682Y-11002198D02*
X3627205Y-10992674D01*
X3627205Y-10992674D02*
X3627205Y-11011722D01*
D10*
X1960000Y-11427500D02*
X1995000Y-11462500D01*
X1995000Y-11427500D02*
X1960000Y-11462500D01*
D11*
X2293872Y-11336484D02*
X2312920Y-11336484D01*
X2312920Y-11336484D02*
X2331967Y-11346008D01*
X2331967Y-11346008D02*
X2341491Y-11355531D01*
X2341491Y-11355531D02*
X2351015Y-11374579D01*
X2351015Y-11374579D02*
X2360539Y-11412674D01*
X2360539Y-11412674D02*
X2360539Y-11460293D01*
X2360539Y-11460293D02*
X2351015Y-11498388D01*
X2351015Y-11498388D02*
X2341491Y-11517436D01*
X2341491Y-11517436D02*
X2331967Y-11526960D01*
X2331967Y-11526960D02*
X2312920Y-11536484D01*
X2312920Y-11536484D02*
X2293872Y-11536484D01*
X2293872Y-11536484D02*
X2274824Y-11526960D01*
X2274824Y-11526960D02*
X2265301Y-11517436D01*
X2265301Y-11517436D02*
X2255777Y-11498388D01*
X2255777Y-11498388D02*
X2246253Y-11460293D01*
X2246253Y-11460293D02*
X2246253Y-11412674D01*
X2246253Y-11412674D02*
X2255777Y-11374579D01*
X2255777Y-11374579D02*
X2265301Y-11355531D01*
X2265301Y-11355531D02*
X2274824Y-11346008D01*
X2274824Y-11346008D02*
X2293872Y-11336484D01*
X2455777Y-11526960D02*
X2455777Y-11536484D01*
X2455777Y-11536484D02*
X2446253Y-11555531D01*
X2446253Y-11555531D02*
X2436729Y-11565055D01*
X2522444Y-11336484D02*
X2646253Y-11336484D01*
X2646253Y-11336484D02*
X2579586Y-11412674D01*
X2579586Y-11412674D02*
X2608158Y-11412674D01*
X2608158Y-11412674D02*
X2627205Y-11422198D01*
X2627205Y-11422198D02*
X2636729Y-11431722D01*
X2636729Y-11431722D02*
X2646253Y-11450769D01*
X2646253Y-11450769D02*
X2646253Y-11498388D01*
X2646253Y-11498388D02*
X2636729Y-11517436D01*
X2636729Y-11517436D02*
X2627205Y-11526960D01*
X2627205Y-11526960D02*
X2608158Y-11536484D01*
X2608158Y-11536484D02*
X2551015Y-11536484D01*
X2551015Y-11536484D02*
X2531967Y-11526960D01*
X2531967Y-11526960D02*
X2522444Y-11517436D01*
X2827205Y-11336484D02*
X2731967Y-11336484D01*
X2731967Y-11336484D02*
X2722444Y-11431722D01*
X2722444Y-11431722D02*
X2731967Y-11422198D01*
X2731967Y-11422198D02*
X2751015Y-11412674D01*
X2751015Y-11412674D02*
X2798634Y-11412674D01*
X2798634Y-11412674D02*
X2817682Y-11422198D01*
X2817682Y-11422198D02*
X2827205Y-11431722D01*
X2827205Y-11431722D02*
X2836729Y-11450769D01*
X2836729Y-11450769D02*
X2836729Y-11498388D01*
X2836729Y-11498388D02*
X2827205Y-11517436D01*
X2827205Y-11517436D02*
X2817682Y-11526960D01*
X2817682Y-11526960D02*
X2798634Y-11536484D01*
X2798634Y-11536484D02*
X2751015Y-11536484D01*
X2751015Y-11536484D02*
X2731967Y-11526960D01*
X2731967Y-11526960D02*
X2722444Y-11517436D01*
X2960539Y-11336484D02*
X2979586Y-11336484D01*
X2979586Y-11336484D02*
X2998634Y-11346008D01*
X2998634Y-11346008D02*
X3008158Y-11355531D01*
X3008158Y-11355531D02*
X3017682Y-11374579D01*
X3017682Y-11374579D02*
X3027205Y-11412674D01*
X3027205Y-11412674D02*
X3027205Y-11460293D01*
X3027205Y-11460293D02*
X3017682Y-11498388D01*
X3017682Y-11498388D02*
X3008158Y-11517436D01*
X3008158Y-11517436D02*
X2998634Y-11526960D01*
X2998634Y-11526960D02*
X2979586Y-11536484D01*
X2979586Y-11536484D02*
X2960539Y-11536484D01*
X2960539Y-11536484D02*
X2941491Y-11526960D01*
X2941491Y-11526960D02*
X2931967Y-11517436D01*
X2931967Y-11517436D02*
X2922443Y-11498388D01*
X2922443Y-11498388D02*
X2912920Y-11460293D01*
X2912920Y-11460293D02*
X2912920Y-11412674D01*
X2912920Y-11412674D02*
X2922443Y-11374579D01*
X2922443Y-11374579D02*
X2931967Y-11355531D01*
X2931967Y-11355531D02*
X2941491Y-11346008D01*
X2941491Y-11346008D02*
X2960539Y-11336484D01*
X3112920Y-11536484D02*
X3112920Y-11403150D01*
X3112920Y-11422198D02*
X3122443Y-11412674D01*
X3122443Y-11412674D02*
X3141491Y-11403150D01*
X3141491Y-11403150D02*
X3170063Y-11403150D01*
X3170063Y-11403150D02*
X3189110Y-11412674D01*
X3189110Y-11412674D02*
X3198634Y-11431722D01*
X3198634Y-11431722D02*
X3198634Y-11536484D01*
X3198634Y-11431722D02*
X3208158Y-11412674D01*
X3208158Y-11412674D02*
X3227205Y-11403150D01*
X3227205Y-11403150D02*
X3255777Y-11403150D01*
X3255777Y-11403150D02*
X3274824Y-11412674D01*
X3274824Y-11412674D02*
X3284348Y-11431722D01*
X3284348Y-11431722D02*
X3284348Y-11536484D01*
X3379586Y-11536484D02*
X3379586Y-11403150D01*
X3379586Y-11422198D02*
X3389110Y-11412674D01*
X3389110Y-11412674D02*
X3408158Y-11403150D01*
X3408158Y-11403150D02*
X3436729Y-11403150D01*
X3436729Y-11403150D02*
X3455777Y-11412674D01*
X3455777Y-11412674D02*
X3465301Y-11431722D01*
X3465301Y-11431722D02*
X3465301Y-11536484D01*
X3465301Y-11431722D02*
X3474824Y-11412674D01*
X3474824Y-11412674D02*
X3493872Y-11403150D01*
X3493872Y-11403150D02*
X3522443Y-11403150D01*
X3522443Y-11403150D02*
X3541491Y-11412674D01*
X3541491Y-11412674D02*
X3551015Y-11431722D01*
X3551015Y-11431722D02*
X3551015Y-11536484D01*
X3941491Y-11326960D02*
X3770063Y-11584103D01*
X4198634Y-11336484D02*
X4217682Y-11336484D01*
X4217682Y-11336484D02*
X4236729Y-11346008D01*
X4236729Y-11346008D02*
X4246253Y-11355531D01*
X4246253Y-11355531D02*
X4255777Y-11374579D01*
X4255777Y-11374579D02*
X4265301Y-11412674D01*
X4265301Y-11412674D02*
X4265301Y-11460293D01*
X4265301Y-11460293D02*
X4255777Y-11498388D01*
X4255777Y-11498388D02*
X4246253Y-11517436D01*
X4246253Y-11517436D02*
X4236729Y-11526960D01*
X4236729Y-11526960D02*
X4217682Y-11536484D01*
X4217682Y-11536484D02*
X4198634Y-11536484D01*
X4198634Y-11536484D02*
X4179586Y-11526960D01*
X4179586Y-11526960D02*
X4170063Y-11517436D01*
X4170063Y-11517436D02*
X4160539Y-11498388D01*
X4160539Y-11498388D02*
X4151015Y-11460293D01*
X4151015Y-11460293D02*
X4151015Y-11412674D01*
X4151015Y-11412674D02*
X4160539Y-11374579D01*
X4160539Y-11374579D02*
X4170063Y-11355531D01*
X4170063Y-11355531D02*
X4179586Y-11346008D01*
X4179586Y-11346008D02*
X4198634Y-11336484D01*
X4360539Y-11526960D02*
X4360539Y-11536484D01*
X4360539Y-11536484D02*
X4351015Y-11555531D01*
X4351015Y-11555531D02*
X4341491Y-11565055D01*
X4484348Y-11336484D02*
X4503396Y-11336484D01*
X4503396Y-11336484D02*
X4522444Y-11346008D01*
X4522444Y-11346008D02*
X4531968Y-11355531D01*
X4531968Y-11355531D02*
X4541491Y-11374579D01*
X4541491Y-11374579D02*
X4551015Y-11412674D01*
X4551015Y-11412674D02*
X4551015Y-11460293D01*
X4551015Y-11460293D02*
X4541491Y-11498388D01*
X4541491Y-11498388D02*
X4531968Y-11517436D01*
X4531968Y-11517436D02*
X4522444Y-11526960D01*
X4522444Y-11526960D02*
X4503396Y-11536484D01*
X4503396Y-11536484D02*
X4484348Y-11536484D01*
X4484348Y-11536484D02*
X4465301Y-11526960D01*
X4465301Y-11526960D02*
X4455777Y-11517436D01*
X4455777Y-11517436D02*
X4446253Y-11498388D01*
X4446253Y-11498388D02*
X4436729Y-11460293D01*
X4436729Y-11460293D02*
X4436729Y-11412674D01*
X4436729Y-11412674D02*
X4446253Y-11374579D01*
X4446253Y-11374579D02*
X4455777Y-11355531D01*
X4455777Y-11355531D02*
X4465301Y-11346008D01*
X4465301Y-11346008D02*
X4484348Y-11336484D01*
X4741491Y-11536484D02*
X4627206Y-11536484D01*
X4684348Y-11536484D02*
X4684348Y-11336484D01*
X4684348Y-11336484D02*
X4665301Y-11365055D01*
X4665301Y-11365055D02*
X4646253Y-11384103D01*
X4646253Y-11384103D02*
X4627206Y-11393627D01*
X4808158Y-11336484D02*
X4931968Y-11336484D01*
X4931968Y-11336484D02*
X4865301Y-11412674D01*
X4865301Y-11412674D02*
X4893872Y-11412674D01*
X4893872Y-11412674D02*
X4912920Y-11422198D01*
X4912920Y-11422198D02*
X4922444Y-11431722D01*
X4922444Y-11431722D02*
X4931968Y-11450769D01*
X4931968Y-11450769D02*
X4931968Y-11498388D01*
X4931968Y-11498388D02*
X4922444Y-11517436D01*
X4922444Y-11517436D02*
X4912920Y-11526960D01*
X4912920Y-11526960D02*
X4893872Y-11536484D01*
X4893872Y-11536484D02*
X4836729Y-11536484D01*
X4836729Y-11536484D02*
X4817682Y-11526960D01*
X4817682Y-11526960D02*
X4808158Y-11517436D01*
X5046253Y-11422198D02*
X5027206Y-11412674D01*
X5027206Y-11412674D02*
X5017682Y-11403150D01*
X5017682Y-11403150D02*
X5008158Y-11384103D01*
X5008158Y-11384103D02*
X5008158Y-11374579D01*
X5008158Y-11374579D02*
X5017682Y-11355531D01*
X5017682Y-11355531D02*
X5027206Y-11346008D01*
X5027206Y-11346008D02*
X5046253Y-11336484D01*
X5046253Y-11336484D02*
X5084349Y-11336484D01*
X5084349Y-11336484D02*
X5103396Y-11346008D01*
X5103396Y-11346008D02*
X5112920Y-11355531D01*
X5112920Y-11355531D02*
X5122444Y-11374579D01*
X5122444Y-11374579D02*
X5122444Y-11384103D01*
X5122444Y-11384103D02*
X5112920Y-11403150D01*
X5112920Y-11403150D02*
X5103396Y-11412674D01*
X5103396Y-11412674D02*
X5084349Y-11422198D01*
X5084349Y-11422198D02*
X5046253Y-11422198D01*
X5046253Y-11422198D02*
X5027206Y-11431722D01*
X5027206Y-11431722D02*
X5017682Y-11441246D01*
X5017682Y-11441246D02*
X5008158Y-11460293D01*
X5008158Y-11460293D02*
X5008158Y-11498388D01*
X5008158Y-11498388D02*
X5017682Y-11517436D01*
X5017682Y-11517436D02*
X5027206Y-11526960D01*
X5027206Y-11526960D02*
X5046253Y-11536484D01*
X5046253Y-11536484D02*
X5084349Y-11536484D01*
X5084349Y-11536484D02*
X5103396Y-11526960D01*
X5103396Y-11526960D02*
X5112920Y-11517436D01*
X5112920Y-11517436D02*
X5122444Y-11498388D01*
X5122444Y-11498388D02*
X5122444Y-11460293D01*
X5122444Y-11460293D02*
X5112920Y-11441246D01*
X5112920Y-11441246D02*
X5103396Y-11431722D01*
X5103396Y-11431722D02*
X5084349Y-11422198D01*
X5198634Y-11336484D02*
X5198634Y-11374579D01*
X5274825Y-11336484D02*
X5274825Y-11374579D01*
X5570063Y-11612674D02*
X5560539Y-11603150D01*
X5560539Y-11603150D02*
X5541491Y-11574579D01*
X5541491Y-11574579D02*
X5531968Y-11555531D01*
X5531968Y-11555531D02*
X5522444Y-11526960D01*
X5522444Y-11526960D02*
X5512920Y-11479341D01*
X5512920Y-11479341D02*
X5512920Y-11441246D01*
X5512920Y-11441246D02*
X5522444Y-11393627D01*
X5522444Y-11393627D02*
X5531968Y-11365055D01*
X5531968Y-11365055D02*
X5541491Y-11346008D01*
X5541491Y-11346008D02*
X5560539Y-11317436D01*
X5560539Y-11317436D02*
X5570063Y-11307912D01*
X5627206Y-11336484D02*
X5751015Y-11336484D01*
X5751015Y-11336484D02*
X5684348Y-11412674D01*
X5684348Y-11412674D02*
X5712920Y-11412674D01*
X5712920Y-11412674D02*
X5731968Y-11422198D01*
X5731968Y-11422198D02*
X5741491Y-11431722D01*
X5741491Y-11431722D02*
X5751015Y-11450769D01*
X5751015Y-11450769D02*
X5751015Y-11498388D01*
X5751015Y-11498388D02*
X5741491Y-11517436D01*
X5741491Y-11517436D02*
X5731968Y-11526960D01*
X5731968Y-11526960D02*
X5712920Y-11536484D01*
X5712920Y-11536484D02*
X5655777Y-11536484D01*
X5655777Y-11536484D02*
X5636729Y-11526960D01*
X5636729Y-11526960D02*
X5627206Y-11517436D01*
X5989110Y-11536484D02*
X5989110Y-11336484D01*
X6074825Y-11536484D02*
X6074825Y-11431722D01*
X6074825Y-11431722D02*
X6065301Y-11412674D01*
X6065301Y-11412674D02*
X6046253Y-11403150D01*
X6046253Y-11403150D02*
X6017682Y-11403150D01*
X6017682Y-11403150D02*
X5998634Y-11412674D01*
X5998634Y-11412674D02*
X5989110Y-11422198D01*
X6198634Y-11536484D02*
X6179587Y-11526960D01*
X6179587Y-11526960D02*
X6170063Y-11517436D01*
X6170063Y-11517436D02*
X6160539Y-11498388D01*
X6160539Y-11498388D02*
X6160539Y-11441246D01*
X6160539Y-11441246D02*
X6170063Y-11422198D01*
X6170063Y-11422198D02*
X6179587Y-11412674D01*
X6179587Y-11412674D02*
X6198634Y-11403150D01*
X6198634Y-11403150D02*
X6227206Y-11403150D01*
X6227206Y-11403150D02*
X6246253Y-11412674D01*
X6246253Y-11412674D02*
X6255777Y-11422198D01*
X6255777Y-11422198D02*
X6265301Y-11441246D01*
X6265301Y-11441246D02*
X6265301Y-11498388D01*
X6265301Y-11498388D02*
X6255777Y-11517436D01*
X6255777Y-11517436D02*
X6246253Y-11526960D01*
X6246253Y-11526960D02*
X6227206Y-11536484D01*
X6227206Y-11536484D02*
X6198634Y-11536484D01*
X6379587Y-11536484D02*
X6360539Y-11526960D01*
X6360539Y-11526960D02*
X6351015Y-11507912D01*
X6351015Y-11507912D02*
X6351015Y-11336484D01*
X6531968Y-11526960D02*
X6512920Y-11536484D01*
X6512920Y-11536484D02*
X6474825Y-11536484D01*
X6474825Y-11536484D02*
X6455777Y-11526960D01*
X6455777Y-11526960D02*
X6446253Y-11507912D01*
X6446253Y-11507912D02*
X6446253Y-11431722D01*
X6446253Y-11431722D02*
X6455777Y-11412674D01*
X6455777Y-11412674D02*
X6474825Y-11403150D01*
X6474825Y-11403150D02*
X6512920Y-11403150D01*
X6512920Y-11403150D02*
X6531968Y-11412674D01*
X6531968Y-11412674D02*
X6541491Y-11431722D01*
X6541491Y-11431722D02*
X6541491Y-11450769D01*
X6541491Y-11450769D02*
X6446253Y-11469817D01*
X6617682Y-11526960D02*
X6636730Y-11536484D01*
X6636730Y-11536484D02*
X6674825Y-11536484D01*
X6674825Y-11536484D02*
X6693872Y-11526960D01*
X6693872Y-11526960D02*
X6703396Y-11507912D01*
X6703396Y-11507912D02*
X6703396Y-11498388D01*
X6703396Y-11498388D02*
X6693872Y-11479341D01*
X6693872Y-11479341D02*
X6674825Y-11469817D01*
X6674825Y-11469817D02*
X6646253Y-11469817D01*
X6646253Y-11469817D02*
X6627206Y-11460293D01*
X6627206Y-11460293D02*
X6617682Y-11441246D01*
X6617682Y-11441246D02*
X6617682Y-11431722D01*
X6617682Y-11431722D02*
X6627206Y-11412674D01*
X6627206Y-11412674D02*
X6646253Y-11403150D01*
X6646253Y-11403150D02*
X6674825Y-11403150D01*
X6674825Y-11403150D02*
X6693872Y-11412674D01*
X6770063Y-11612674D02*
X6779587Y-11603150D01*
X6779587Y-11603150D02*
X6798634Y-11574579D01*
X6798634Y-11574579D02*
X6808158Y-11555531D01*
X6808158Y-11555531D02*
X6817682Y-11526960D01*
X6817682Y-11526960D02*
X6827206Y-11479341D01*
X6827206Y-11479341D02*
X6827206Y-11441246D01*
X6827206Y-11441246D02*
X6817682Y-11393627D01*
X6817682Y-11393627D02*
X6808158Y-11365055D01*
X6808158Y-11365055D02*
X6798634Y-11346008D01*
X6798634Y-11346008D02*
X6779587Y-11317436D01*
X6779587Y-11317436D02*
X6770063Y-11307912D01*
D10*
X1995000Y-11709000D02*
G75*
G02*
X1915000Y-11709000I-40000J0D01*
G01*
X1915000Y-11709000D02*
G75*
G02*
X1995000Y-11709000I40000J0D01*
G01*
D11*
X2293872Y-11600484D02*
X2312920Y-11600484D01*
X2312920Y-11600484D02*
X2331967Y-11610008D01*
X2331967Y-11610008D02*
X2341491Y-11619531D01*
X2341491Y-11619531D02*
X2351015Y-11638579D01*
X2351015Y-11638579D02*
X2360539Y-11676674D01*
X2360539Y-11676674D02*
X2360539Y-11724293D01*
X2360539Y-11724293D02*
X2351015Y-11762388D01*
X2351015Y-11762388D02*
X2341491Y-11781436D01*
X2341491Y-11781436D02*
X2331967Y-11790960D01*
X2331967Y-11790960D02*
X2312920Y-11800484D01*
X2312920Y-11800484D02*
X2293872Y-11800484D01*
X2293872Y-11800484D02*
X2274824Y-11790960D01*
X2274824Y-11790960D02*
X2265301Y-11781436D01*
X2265301Y-11781436D02*
X2255777Y-11762388D01*
X2255777Y-11762388D02*
X2246253Y-11724293D01*
X2246253Y-11724293D02*
X2246253Y-11676674D01*
X2246253Y-11676674D02*
X2255777Y-11638579D01*
X2255777Y-11638579D02*
X2265301Y-11619531D01*
X2265301Y-11619531D02*
X2274824Y-11610008D01*
X2274824Y-11610008D02*
X2293872Y-11600484D01*
X2455777Y-11790960D02*
X2455777Y-11800484D01*
X2455777Y-11800484D02*
X2446253Y-11819531D01*
X2446253Y-11819531D02*
X2436729Y-11829055D01*
X2570063Y-11686198D02*
X2551015Y-11676674D01*
X2551015Y-11676674D02*
X2541491Y-11667150D01*
X2541491Y-11667150D02*
X2531967Y-11648103D01*
X2531967Y-11648103D02*
X2531967Y-11638579D01*
X2531967Y-11638579D02*
X2541491Y-11619531D01*
X2541491Y-11619531D02*
X2551015Y-11610008D01*
X2551015Y-11610008D02*
X2570063Y-11600484D01*
X2570063Y-11600484D02*
X2608158Y-11600484D01*
X2608158Y-11600484D02*
X2627205Y-11610008D01*
X2627205Y-11610008D02*
X2636729Y-11619531D01*
X2636729Y-11619531D02*
X2646253Y-11638579D01*
X2646253Y-11638579D02*
X2646253Y-11648103D01*
X2646253Y-11648103D02*
X2636729Y-11667150D01*
X2636729Y-11667150D02*
X2627205Y-11676674D01*
X2627205Y-11676674D02*
X2608158Y-11686198D01*
X2608158Y-11686198D02*
X2570063Y-11686198D01*
X2570063Y-11686198D02*
X2551015Y-11695722D01*
X2551015Y-11695722D02*
X2541491Y-11705246D01*
X2541491Y-11705246D02*
X2531967Y-11724293D01*
X2531967Y-11724293D02*
X2531967Y-11762388D01*
X2531967Y-11762388D02*
X2541491Y-11781436D01*
X2541491Y-11781436D02*
X2551015Y-11790960D01*
X2551015Y-11790960D02*
X2570063Y-11800484D01*
X2570063Y-11800484D02*
X2608158Y-11800484D01*
X2608158Y-11800484D02*
X2627205Y-11790960D01*
X2627205Y-11790960D02*
X2636729Y-11781436D01*
X2636729Y-11781436D02*
X2646253Y-11762388D01*
X2646253Y-11762388D02*
X2646253Y-11724293D01*
X2646253Y-11724293D02*
X2636729Y-11705246D01*
X2636729Y-11705246D02*
X2627205Y-11695722D01*
X2627205Y-11695722D02*
X2608158Y-11686198D01*
X2770063Y-11600484D02*
X2789110Y-11600484D01*
X2789110Y-11600484D02*
X2808158Y-11610008D01*
X2808158Y-11610008D02*
X2817682Y-11619531D01*
X2817682Y-11619531D02*
X2827205Y-11638579D01*
X2827205Y-11638579D02*
X2836729Y-11676674D01*
X2836729Y-11676674D02*
X2836729Y-11724293D01*
X2836729Y-11724293D02*
X2827205Y-11762388D01*
X2827205Y-11762388D02*
X2817682Y-11781436D01*
X2817682Y-11781436D02*
X2808158Y-11790960D01*
X2808158Y-11790960D02*
X2789110Y-11800484D01*
X2789110Y-11800484D02*
X2770063Y-11800484D01*
X2770063Y-11800484D02*
X2751015Y-11790960D01*
X2751015Y-11790960D02*
X2741491Y-11781436D01*
X2741491Y-11781436D02*
X2731967Y-11762388D01*
X2731967Y-11762388D02*
X2722444Y-11724293D01*
X2722444Y-11724293D02*
X2722444Y-11676674D01*
X2722444Y-11676674D02*
X2731967Y-11638579D01*
X2731967Y-11638579D02*
X2741491Y-11619531D01*
X2741491Y-11619531D02*
X2751015Y-11610008D01*
X2751015Y-11610008D02*
X2770063Y-11600484D01*
X2960539Y-11600484D02*
X2979586Y-11600484D01*
X2979586Y-11600484D02*
X2998634Y-11610008D01*
X2998634Y-11610008D02*
X3008158Y-11619531D01*
X3008158Y-11619531D02*
X3017682Y-11638579D01*
X3017682Y-11638579D02*
X3027205Y-11676674D01*
X3027205Y-11676674D02*
X3027205Y-11724293D01*
X3027205Y-11724293D02*
X3017682Y-11762388D01*
X3017682Y-11762388D02*
X3008158Y-11781436D01*
X3008158Y-11781436D02*
X2998634Y-11790960D01*
X2998634Y-11790960D02*
X2979586Y-11800484D01*
X2979586Y-11800484D02*
X2960539Y-11800484D01*
X2960539Y-11800484D02*
X2941491Y-11790960D01*
X2941491Y-11790960D02*
X2931967Y-11781436D01*
X2931967Y-11781436D02*
X2922443Y-11762388D01*
X2922443Y-11762388D02*
X2912920Y-11724293D01*
X2912920Y-11724293D02*
X2912920Y-11676674D01*
X2912920Y-11676674D02*
X2922443Y-11638579D01*
X2922443Y-11638579D02*
X2931967Y-11619531D01*
X2931967Y-11619531D02*
X2941491Y-11610008D01*
X2941491Y-11610008D02*
X2960539Y-11600484D01*
X3112920Y-11800484D02*
X3112920Y-11667150D01*
X3112920Y-11686198D02*
X3122443Y-11676674D01*
X3122443Y-11676674D02*
X3141491Y-11667150D01*
X3141491Y-11667150D02*
X3170063Y-11667150D01*
X3170063Y-11667150D02*
X3189110Y-11676674D01*
X3189110Y-11676674D02*
X3198634Y-11695722D01*
X3198634Y-11695722D02*
X3198634Y-11800484D01*
X3198634Y-11695722D02*
X3208158Y-11676674D01*
X3208158Y-11676674D02*
X3227205Y-11667150D01*
X3227205Y-11667150D02*
X3255777Y-11667150D01*
X3255777Y-11667150D02*
X3274824Y-11676674D01*
X3274824Y-11676674D02*
X3284348Y-11695722D01*
X3284348Y-11695722D02*
X3284348Y-11800484D01*
X3379586Y-11800484D02*
X3379586Y-11667150D01*
X3379586Y-11686198D02*
X3389110Y-11676674D01*
X3389110Y-11676674D02*
X3408158Y-11667150D01*
X3408158Y-11667150D02*
X3436729Y-11667150D01*
X3436729Y-11667150D02*
X3455777Y-11676674D01*
X3455777Y-11676674D02*
X3465301Y-11695722D01*
X3465301Y-11695722D02*
X3465301Y-11800484D01*
X3465301Y-11695722D02*
X3474824Y-11676674D01*
X3474824Y-11676674D02*
X3493872Y-11667150D01*
X3493872Y-11667150D02*
X3522443Y-11667150D01*
X3522443Y-11667150D02*
X3541491Y-11676674D01*
X3541491Y-11676674D02*
X3551015Y-11695722D01*
X3551015Y-11695722D02*
X3551015Y-11800484D01*
X3941491Y-11590960D02*
X3770063Y-11848103D01*
X4198634Y-11600484D02*
X4217682Y-11600484D01*
X4217682Y-11600484D02*
X4236729Y-11610008D01*
X4236729Y-11610008D02*
X4246253Y-11619531D01*
X4246253Y-11619531D02*
X4255777Y-11638579D01*
X4255777Y-11638579D02*
X4265301Y-11676674D01*
X4265301Y-11676674D02*
X4265301Y-11724293D01*
X4265301Y-11724293D02*
X4255777Y-11762388D01*
X4255777Y-11762388D02*
X4246253Y-11781436D01*
X4246253Y-11781436D02*
X4236729Y-11790960D01*
X4236729Y-11790960D02*
X4217682Y-11800484D01*
X4217682Y-11800484D02*
X4198634Y-11800484D01*
X4198634Y-11800484D02*
X4179586Y-11790960D01*
X4179586Y-11790960D02*
X4170063Y-11781436D01*
X4170063Y-11781436D02*
X4160539Y-11762388D01*
X4160539Y-11762388D02*
X4151015Y-11724293D01*
X4151015Y-11724293D02*
X4151015Y-11676674D01*
X4151015Y-11676674D02*
X4160539Y-11638579D01*
X4160539Y-11638579D02*
X4170063Y-11619531D01*
X4170063Y-11619531D02*
X4179586Y-11610008D01*
X4179586Y-11610008D02*
X4198634Y-11600484D01*
X4360539Y-11790960D02*
X4360539Y-11800484D01*
X4360539Y-11800484D02*
X4351015Y-11819531D01*
X4351015Y-11819531D02*
X4341491Y-11829055D01*
X4484348Y-11600484D02*
X4503396Y-11600484D01*
X4503396Y-11600484D02*
X4522444Y-11610008D01*
X4522444Y-11610008D02*
X4531968Y-11619531D01*
X4531968Y-11619531D02*
X4541491Y-11638579D01*
X4541491Y-11638579D02*
X4551015Y-11676674D01*
X4551015Y-11676674D02*
X4551015Y-11724293D01*
X4551015Y-11724293D02*
X4541491Y-11762388D01*
X4541491Y-11762388D02*
X4531968Y-11781436D01*
X4531968Y-11781436D02*
X4522444Y-11790960D01*
X4522444Y-11790960D02*
X4503396Y-11800484D01*
X4503396Y-11800484D02*
X4484348Y-11800484D01*
X4484348Y-11800484D02*
X4465301Y-11790960D01*
X4465301Y-11790960D02*
X4455777Y-11781436D01*
X4455777Y-11781436D02*
X4446253Y-11762388D01*
X4446253Y-11762388D02*
X4436729Y-11724293D01*
X4436729Y-11724293D02*
X4436729Y-11676674D01*
X4436729Y-11676674D02*
X4446253Y-11638579D01*
X4446253Y-11638579D02*
X4455777Y-11619531D01*
X4455777Y-11619531D02*
X4465301Y-11610008D01*
X4465301Y-11610008D02*
X4484348Y-11600484D01*
X4617682Y-11600484D02*
X4741491Y-11600484D01*
X4741491Y-11600484D02*
X4674825Y-11676674D01*
X4674825Y-11676674D02*
X4703396Y-11676674D01*
X4703396Y-11676674D02*
X4722444Y-11686198D01*
X4722444Y-11686198D02*
X4731968Y-11695722D01*
X4731968Y-11695722D02*
X4741491Y-11714769D01*
X4741491Y-11714769D02*
X4741491Y-11762388D01*
X4741491Y-11762388D02*
X4731968Y-11781436D01*
X4731968Y-11781436D02*
X4722444Y-11790960D01*
X4722444Y-11790960D02*
X4703396Y-11800484D01*
X4703396Y-11800484D02*
X4646253Y-11800484D01*
X4646253Y-11800484D02*
X4627206Y-11790960D01*
X4627206Y-11790960D02*
X4617682Y-11781436D01*
X4931968Y-11800484D02*
X4817682Y-11800484D01*
X4874825Y-11800484D02*
X4874825Y-11600484D01*
X4874825Y-11600484D02*
X4855777Y-11629055D01*
X4855777Y-11629055D02*
X4836729Y-11648103D01*
X4836729Y-11648103D02*
X4817682Y-11657627D01*
X5112920Y-11600484D02*
X5017682Y-11600484D01*
X5017682Y-11600484D02*
X5008158Y-11695722D01*
X5008158Y-11695722D02*
X5017682Y-11686198D01*
X5017682Y-11686198D02*
X5036729Y-11676674D01*
X5036729Y-11676674D02*
X5084349Y-11676674D01*
X5084349Y-11676674D02*
X5103396Y-11686198D01*
X5103396Y-11686198D02*
X5112920Y-11695722D01*
X5112920Y-11695722D02*
X5122444Y-11714769D01*
X5122444Y-11714769D02*
X5122444Y-11762388D01*
X5122444Y-11762388D02*
X5112920Y-11781436D01*
X5112920Y-11781436D02*
X5103396Y-11790960D01*
X5103396Y-11790960D02*
X5084349Y-11800484D01*
X5084349Y-11800484D02*
X5036729Y-11800484D01*
X5036729Y-11800484D02*
X5017682Y-11790960D01*
X5017682Y-11790960D02*
X5008158Y-11781436D01*
X5198634Y-11600484D02*
X5198634Y-11638579D01*
X5274825Y-11600484D02*
X5274825Y-11638579D01*
X5570063Y-11876674D02*
X5560539Y-11867150D01*
X5560539Y-11867150D02*
X5541491Y-11838579D01*
X5541491Y-11838579D02*
X5531968Y-11819531D01*
X5531968Y-11819531D02*
X5522444Y-11790960D01*
X5522444Y-11790960D02*
X5512920Y-11743341D01*
X5512920Y-11743341D02*
X5512920Y-11705246D01*
X5512920Y-11705246D02*
X5522444Y-11657627D01*
X5522444Y-11657627D02*
X5531968Y-11629055D01*
X5531968Y-11629055D02*
X5541491Y-11610008D01*
X5541491Y-11610008D02*
X5560539Y-11581436D01*
X5560539Y-11581436D02*
X5570063Y-11571912D01*
X5636729Y-11619531D02*
X5646253Y-11610008D01*
X5646253Y-11610008D02*
X5665301Y-11600484D01*
X5665301Y-11600484D02*
X5712920Y-11600484D01*
X5712920Y-11600484D02*
X5731968Y-11610008D01*
X5731968Y-11610008D02*
X5741491Y-11619531D01*
X5741491Y-11619531D02*
X5751015Y-11638579D01*
X5751015Y-11638579D02*
X5751015Y-11657627D01*
X5751015Y-11657627D02*
X5741491Y-11686198D01*
X5741491Y-11686198D02*
X5627206Y-11800484D01*
X5627206Y-11800484D02*
X5751015Y-11800484D01*
X5827206Y-11619531D02*
X5836729Y-11610008D01*
X5836729Y-11610008D02*
X5855777Y-11600484D01*
X5855777Y-11600484D02*
X5903396Y-11600484D01*
X5903396Y-11600484D02*
X5922444Y-11610008D01*
X5922444Y-11610008D02*
X5931968Y-11619531D01*
X5931968Y-11619531D02*
X5941491Y-11638579D01*
X5941491Y-11638579D02*
X5941491Y-11657627D01*
X5941491Y-11657627D02*
X5931968Y-11686198D01*
X5931968Y-11686198D02*
X5817682Y-11800484D01*
X5817682Y-11800484D02*
X5941491Y-11800484D01*
X6179587Y-11800484D02*
X6179587Y-11600484D01*
X6265301Y-11800484D02*
X6265301Y-11695722D01*
X6265301Y-11695722D02*
X6255777Y-11676674D01*
X6255777Y-11676674D02*
X6236730Y-11667150D01*
X6236730Y-11667150D02*
X6208158Y-11667150D01*
X6208158Y-11667150D02*
X6189110Y-11676674D01*
X6189110Y-11676674D02*
X6179587Y-11686198D01*
X6389110Y-11800484D02*
X6370063Y-11790960D01*
X6370063Y-11790960D02*
X6360539Y-11781436D01*
X6360539Y-11781436D02*
X6351015Y-11762388D01*
X6351015Y-11762388D02*
X6351015Y-11705246D01*
X6351015Y-11705246D02*
X6360539Y-11686198D01*
X6360539Y-11686198D02*
X6370063Y-11676674D01*
X6370063Y-11676674D02*
X6389110Y-11667150D01*
X6389110Y-11667150D02*
X6417682Y-11667150D01*
X6417682Y-11667150D02*
X6436730Y-11676674D01*
X6436730Y-11676674D02*
X6446253Y-11686198D01*
X6446253Y-11686198D02*
X6455777Y-11705246D01*
X6455777Y-11705246D02*
X6455777Y-11762388D01*
X6455777Y-11762388D02*
X6446253Y-11781436D01*
X6446253Y-11781436D02*
X6436730Y-11790960D01*
X6436730Y-11790960D02*
X6417682Y-11800484D01*
X6417682Y-11800484D02*
X6389110Y-11800484D01*
X6570063Y-11800484D02*
X6551015Y-11790960D01*
X6551015Y-11790960D02*
X6541491Y-11771912D01*
X6541491Y-11771912D02*
X6541491Y-11600484D01*
X6722444Y-11790960D02*
X6703396Y-11800484D01*
X6703396Y-11800484D02*
X6665301Y-11800484D01*
X6665301Y-11800484D02*
X6646253Y-11790960D01*
X6646253Y-11790960D02*
X6636730Y-11771912D01*
X6636730Y-11771912D02*
X6636730Y-11695722D01*
X6636730Y-11695722D02*
X6646253Y-11676674D01*
X6646253Y-11676674D02*
X6665301Y-11667150D01*
X6665301Y-11667150D02*
X6703396Y-11667150D01*
X6703396Y-11667150D02*
X6722444Y-11676674D01*
X6722444Y-11676674D02*
X6731968Y-11695722D01*
X6731968Y-11695722D02*
X6731968Y-11714769D01*
X6731968Y-11714769D02*
X6636730Y-11733817D01*
X6808158Y-11790960D02*
X6827206Y-11800484D01*
X6827206Y-11800484D02*
X6865301Y-11800484D01*
X6865301Y-11800484D02*
X6884349Y-11790960D01*
X6884349Y-11790960D02*
X6893872Y-11771912D01*
X6893872Y-11771912D02*
X6893872Y-11762388D01*
X6893872Y-11762388D02*
X6884349Y-11743341D01*
X6884349Y-11743341D02*
X6865301Y-11733817D01*
X6865301Y-11733817D02*
X6836730Y-11733817D01*
X6836730Y-11733817D02*
X6817682Y-11724293D01*
X6817682Y-11724293D02*
X6808158Y-11705246D01*
X6808158Y-11705246D02*
X6808158Y-11695722D01*
X6808158Y-11695722D02*
X6817682Y-11676674D01*
X6817682Y-11676674D02*
X6836730Y-11667150D01*
X6836730Y-11667150D02*
X6865301Y-11667150D01*
X6865301Y-11667150D02*
X6884349Y-11676674D01*
X6960539Y-11876674D02*
X6970063Y-11867150D01*
X6970063Y-11867150D02*
X6989111Y-11838579D01*
X6989111Y-11838579D02*
X6998634Y-11819531D01*
X6998634Y-11819531D02*
X7008158Y-11790960D01*
X7008158Y-11790960D02*
X7017682Y-11743341D01*
X7017682Y-11743341D02*
X7017682Y-11705246D01*
X7017682Y-11705246D02*
X7008158Y-11657627D01*
X7008158Y-11657627D02*
X6998634Y-11629055D01*
X6998634Y-11629055D02*
X6989111Y-11610008D01*
X6989111Y-11610008D02*
X6970063Y-11581436D01*
X6970063Y-11581436D02*
X6960539Y-11571912D01*
D10*
X1945000Y-11923000D02*
X1945000Y-12023000D01*
X1895000Y-11973000D02*
X1995000Y-11973000D01*
D11*
X2360539Y-12064484D02*
X2246253Y-12064484D01*
X2303396Y-12064484D02*
X2303396Y-11864484D01*
X2303396Y-11864484D02*
X2284348Y-11893055D01*
X2284348Y-11893055D02*
X2265301Y-11912103D01*
X2265301Y-11912103D02*
X2246253Y-11921627D01*
X2455777Y-12054960D02*
X2455777Y-12064484D01*
X2455777Y-12064484D02*
X2446253Y-12083531D01*
X2446253Y-12083531D02*
X2436729Y-12093055D01*
X2579586Y-11864484D02*
X2598634Y-11864484D01*
X2598634Y-11864484D02*
X2617682Y-11874008D01*
X2617682Y-11874008D02*
X2627205Y-11883531D01*
X2627205Y-11883531D02*
X2636729Y-11902579D01*
X2636729Y-11902579D02*
X2646253Y-11940674D01*
X2646253Y-11940674D02*
X2646253Y-11988293D01*
X2646253Y-11988293D02*
X2636729Y-12026388D01*
X2636729Y-12026388D02*
X2627205Y-12045436D01*
X2627205Y-12045436D02*
X2617682Y-12054960D01*
X2617682Y-12054960D02*
X2598634Y-12064484D01*
X2598634Y-12064484D02*
X2579586Y-12064484D01*
X2579586Y-12064484D02*
X2560539Y-12054960D01*
X2560539Y-12054960D02*
X2551015Y-12045436D01*
X2551015Y-12045436D02*
X2541491Y-12026388D01*
X2541491Y-12026388D02*
X2531967Y-11988293D01*
X2531967Y-11988293D02*
X2531967Y-11940674D01*
X2531967Y-11940674D02*
X2541491Y-11902579D01*
X2541491Y-11902579D02*
X2551015Y-11883531D01*
X2551015Y-11883531D02*
X2560539Y-11874008D01*
X2560539Y-11874008D02*
X2579586Y-11864484D01*
X2770063Y-11864484D02*
X2789110Y-11864484D01*
X2789110Y-11864484D02*
X2808158Y-11874008D01*
X2808158Y-11874008D02*
X2817682Y-11883531D01*
X2817682Y-11883531D02*
X2827205Y-11902579D01*
X2827205Y-11902579D02*
X2836729Y-11940674D01*
X2836729Y-11940674D02*
X2836729Y-11988293D01*
X2836729Y-11988293D02*
X2827205Y-12026388D01*
X2827205Y-12026388D02*
X2817682Y-12045436D01*
X2817682Y-12045436D02*
X2808158Y-12054960D01*
X2808158Y-12054960D02*
X2789110Y-12064484D01*
X2789110Y-12064484D02*
X2770063Y-12064484D01*
X2770063Y-12064484D02*
X2751015Y-12054960D01*
X2751015Y-12054960D02*
X2741491Y-12045436D01*
X2741491Y-12045436D02*
X2731967Y-12026388D01*
X2731967Y-12026388D02*
X2722444Y-11988293D01*
X2722444Y-11988293D02*
X2722444Y-11940674D01*
X2722444Y-11940674D02*
X2731967Y-11902579D01*
X2731967Y-11902579D02*
X2741491Y-11883531D01*
X2741491Y-11883531D02*
X2751015Y-11874008D01*
X2751015Y-11874008D02*
X2770063Y-11864484D01*
X2960539Y-11864484D02*
X2979586Y-11864484D01*
X2979586Y-11864484D02*
X2998634Y-11874008D01*
X2998634Y-11874008D02*
X3008158Y-11883531D01*
X3008158Y-11883531D02*
X3017682Y-11902579D01*
X3017682Y-11902579D02*
X3027205Y-11940674D01*
X3027205Y-11940674D02*
X3027205Y-11988293D01*
X3027205Y-11988293D02*
X3017682Y-12026388D01*
X3017682Y-12026388D02*
X3008158Y-12045436D01*
X3008158Y-12045436D02*
X2998634Y-12054960D01*
X2998634Y-12054960D02*
X2979586Y-12064484D01*
X2979586Y-12064484D02*
X2960539Y-12064484D01*
X2960539Y-12064484D02*
X2941491Y-12054960D01*
X2941491Y-12054960D02*
X2931967Y-12045436D01*
X2931967Y-12045436D02*
X2922443Y-12026388D01*
X2922443Y-12026388D02*
X2912920Y-11988293D01*
X2912920Y-11988293D02*
X2912920Y-11940674D01*
X2912920Y-11940674D02*
X2922443Y-11902579D01*
X2922443Y-11902579D02*
X2931967Y-11883531D01*
X2931967Y-11883531D02*
X2941491Y-11874008D01*
X2941491Y-11874008D02*
X2960539Y-11864484D01*
X3112920Y-12064484D02*
X3112920Y-11931150D01*
X3112920Y-11950198D02*
X3122443Y-11940674D01*
X3122443Y-11940674D02*
X3141491Y-11931150D01*
X3141491Y-11931150D02*
X3170063Y-11931150D01*
X3170063Y-11931150D02*
X3189110Y-11940674D01*
X3189110Y-11940674D02*
X3198634Y-11959722D01*
X3198634Y-11959722D02*
X3198634Y-12064484D01*
X3198634Y-11959722D02*
X3208158Y-11940674D01*
X3208158Y-11940674D02*
X3227205Y-11931150D01*
X3227205Y-11931150D02*
X3255777Y-11931150D01*
X3255777Y-11931150D02*
X3274824Y-11940674D01*
X3274824Y-11940674D02*
X3284348Y-11959722D01*
X3284348Y-11959722D02*
X3284348Y-12064484D01*
X3379586Y-12064484D02*
X3379586Y-11931150D01*
X3379586Y-11950198D02*
X3389110Y-11940674D01*
X3389110Y-11940674D02*
X3408158Y-11931150D01*
X3408158Y-11931150D02*
X3436729Y-11931150D01*
X3436729Y-11931150D02*
X3455777Y-11940674D01*
X3455777Y-11940674D02*
X3465301Y-11959722D01*
X3465301Y-11959722D02*
X3465301Y-12064484D01*
X3465301Y-11959722D02*
X3474824Y-11940674D01*
X3474824Y-11940674D02*
X3493872Y-11931150D01*
X3493872Y-11931150D02*
X3522443Y-11931150D01*
X3522443Y-11931150D02*
X3541491Y-11940674D01*
X3541491Y-11940674D02*
X3551015Y-11959722D01*
X3551015Y-11959722D02*
X3551015Y-12064484D01*
X3941491Y-11854960D02*
X3770063Y-12112103D01*
X4198634Y-11864484D02*
X4217682Y-11864484D01*
X4217682Y-11864484D02*
X4236729Y-11874008D01*
X4236729Y-11874008D02*
X4246253Y-11883531D01*
X4246253Y-11883531D02*
X4255777Y-11902579D01*
X4255777Y-11902579D02*
X4265301Y-11940674D01*
X4265301Y-11940674D02*
X4265301Y-11988293D01*
X4265301Y-11988293D02*
X4255777Y-12026388D01*
X4255777Y-12026388D02*
X4246253Y-12045436D01*
X4246253Y-12045436D02*
X4236729Y-12054960D01*
X4236729Y-12054960D02*
X4217682Y-12064484D01*
X4217682Y-12064484D02*
X4198634Y-12064484D01*
X4198634Y-12064484D02*
X4179586Y-12054960D01*
X4179586Y-12054960D02*
X4170063Y-12045436D01*
X4170063Y-12045436D02*
X4160539Y-12026388D01*
X4160539Y-12026388D02*
X4151015Y-11988293D01*
X4151015Y-11988293D02*
X4151015Y-11940674D01*
X4151015Y-11940674D02*
X4160539Y-11902579D01*
X4160539Y-11902579D02*
X4170063Y-11883531D01*
X4170063Y-11883531D02*
X4179586Y-11874008D01*
X4179586Y-11874008D02*
X4198634Y-11864484D01*
X4360539Y-12054960D02*
X4360539Y-12064484D01*
X4360539Y-12064484D02*
X4351015Y-12083531D01*
X4351015Y-12083531D02*
X4341491Y-12093055D01*
X4484348Y-11864484D02*
X4503396Y-11864484D01*
X4503396Y-11864484D02*
X4522444Y-11874008D01*
X4522444Y-11874008D02*
X4531968Y-11883531D01*
X4531968Y-11883531D02*
X4541491Y-11902579D01*
X4541491Y-11902579D02*
X4551015Y-11940674D01*
X4551015Y-11940674D02*
X4551015Y-11988293D01*
X4551015Y-11988293D02*
X4541491Y-12026388D01*
X4541491Y-12026388D02*
X4531968Y-12045436D01*
X4531968Y-12045436D02*
X4522444Y-12054960D01*
X4522444Y-12054960D02*
X4503396Y-12064484D01*
X4503396Y-12064484D02*
X4484348Y-12064484D01*
X4484348Y-12064484D02*
X4465301Y-12054960D01*
X4465301Y-12054960D02*
X4455777Y-12045436D01*
X4455777Y-12045436D02*
X4446253Y-12026388D01*
X4446253Y-12026388D02*
X4436729Y-11988293D01*
X4436729Y-11988293D02*
X4436729Y-11940674D01*
X4436729Y-11940674D02*
X4446253Y-11902579D01*
X4446253Y-11902579D02*
X4455777Y-11883531D01*
X4455777Y-11883531D02*
X4465301Y-11874008D01*
X4465301Y-11874008D02*
X4484348Y-11864484D01*
X4617682Y-11864484D02*
X4741491Y-11864484D01*
X4741491Y-11864484D02*
X4674825Y-11940674D01*
X4674825Y-11940674D02*
X4703396Y-11940674D01*
X4703396Y-11940674D02*
X4722444Y-11950198D01*
X4722444Y-11950198D02*
X4731968Y-11959722D01*
X4731968Y-11959722D02*
X4741491Y-11978769D01*
X4741491Y-11978769D02*
X4741491Y-12026388D01*
X4741491Y-12026388D02*
X4731968Y-12045436D01*
X4731968Y-12045436D02*
X4722444Y-12054960D01*
X4722444Y-12054960D02*
X4703396Y-12064484D01*
X4703396Y-12064484D02*
X4646253Y-12064484D01*
X4646253Y-12064484D02*
X4627206Y-12054960D01*
X4627206Y-12054960D02*
X4617682Y-12045436D01*
X4836729Y-12064484D02*
X4874825Y-12064484D01*
X4874825Y-12064484D02*
X4893872Y-12054960D01*
X4893872Y-12054960D02*
X4903396Y-12045436D01*
X4903396Y-12045436D02*
X4922444Y-12016865D01*
X4922444Y-12016865D02*
X4931968Y-11978769D01*
X4931968Y-11978769D02*
X4931968Y-11902579D01*
X4931968Y-11902579D02*
X4922444Y-11883531D01*
X4922444Y-11883531D02*
X4912920Y-11874008D01*
X4912920Y-11874008D02*
X4893872Y-11864484D01*
X4893872Y-11864484D02*
X4855777Y-11864484D01*
X4855777Y-11864484D02*
X4836729Y-11874008D01*
X4836729Y-11874008D02*
X4827206Y-11883531D01*
X4827206Y-11883531D02*
X4817682Y-11902579D01*
X4817682Y-11902579D02*
X4817682Y-11950198D01*
X4817682Y-11950198D02*
X4827206Y-11969246D01*
X4827206Y-11969246D02*
X4836729Y-11978769D01*
X4836729Y-11978769D02*
X4855777Y-11988293D01*
X4855777Y-11988293D02*
X4893872Y-11988293D01*
X4893872Y-11988293D02*
X4912920Y-11978769D01*
X4912920Y-11978769D02*
X4922444Y-11969246D01*
X4922444Y-11969246D02*
X4931968Y-11950198D01*
X5103396Y-11931150D02*
X5103396Y-12064484D01*
X5055777Y-11854960D02*
X5008158Y-11997817D01*
X5008158Y-11997817D02*
X5131968Y-11997817D01*
X5198634Y-11864484D02*
X5198634Y-11902579D01*
X5274825Y-11864484D02*
X5274825Y-11902579D01*
X5570063Y-12140674D02*
X5560539Y-12131150D01*
X5560539Y-12131150D02*
X5541491Y-12102579D01*
X5541491Y-12102579D02*
X5531968Y-12083531D01*
X5531968Y-12083531D02*
X5522444Y-12054960D01*
X5522444Y-12054960D02*
X5512920Y-12007341D01*
X5512920Y-12007341D02*
X5512920Y-11969246D01*
X5512920Y-11969246D02*
X5522444Y-11921627D01*
X5522444Y-11921627D02*
X5531968Y-11893055D01*
X5531968Y-11893055D02*
X5541491Y-11874008D01*
X5541491Y-11874008D02*
X5560539Y-11845436D01*
X5560539Y-11845436D02*
X5570063Y-11835912D01*
X5741491Y-11864484D02*
X5646253Y-11864484D01*
X5646253Y-11864484D02*
X5636729Y-11959722D01*
X5636729Y-11959722D02*
X5646253Y-11950198D01*
X5646253Y-11950198D02*
X5665301Y-11940674D01*
X5665301Y-11940674D02*
X5712920Y-11940674D01*
X5712920Y-11940674D02*
X5731968Y-11950198D01*
X5731968Y-11950198D02*
X5741491Y-11959722D01*
X5741491Y-11959722D02*
X5751015Y-11978769D01*
X5751015Y-11978769D02*
X5751015Y-12026388D01*
X5751015Y-12026388D02*
X5741491Y-12045436D01*
X5741491Y-12045436D02*
X5731968Y-12054960D01*
X5731968Y-12054960D02*
X5712920Y-12064484D01*
X5712920Y-12064484D02*
X5665301Y-12064484D01*
X5665301Y-12064484D02*
X5646253Y-12054960D01*
X5646253Y-12054960D02*
X5636729Y-12045436D01*
X5922444Y-11931150D02*
X5922444Y-12064484D01*
X5874825Y-11854960D02*
X5827206Y-11997817D01*
X5827206Y-11997817D02*
X5951015Y-11997817D01*
X6179587Y-12064484D02*
X6179587Y-11864484D01*
X6265301Y-12064484D02*
X6265301Y-11959722D01*
X6265301Y-11959722D02*
X6255777Y-11940674D01*
X6255777Y-11940674D02*
X6236730Y-11931150D01*
X6236730Y-11931150D02*
X6208158Y-11931150D01*
X6208158Y-11931150D02*
X6189110Y-11940674D01*
X6189110Y-11940674D02*
X6179587Y-11950198D01*
X6389110Y-12064484D02*
X6370063Y-12054960D01*
X6370063Y-12054960D02*
X6360539Y-12045436D01*
X6360539Y-12045436D02*
X6351015Y-12026388D01*
X6351015Y-12026388D02*
X6351015Y-11969246D01*
X6351015Y-11969246D02*
X6360539Y-11950198D01*
X6360539Y-11950198D02*
X6370063Y-11940674D01*
X6370063Y-11940674D02*
X6389110Y-11931150D01*
X6389110Y-11931150D02*
X6417682Y-11931150D01*
X6417682Y-11931150D02*
X6436730Y-11940674D01*
X6436730Y-11940674D02*
X6446253Y-11950198D01*
X6446253Y-11950198D02*
X6455777Y-11969246D01*
X6455777Y-11969246D02*
X6455777Y-12026388D01*
X6455777Y-12026388D02*
X6446253Y-12045436D01*
X6446253Y-12045436D02*
X6436730Y-12054960D01*
X6436730Y-12054960D02*
X6417682Y-12064484D01*
X6417682Y-12064484D02*
X6389110Y-12064484D01*
X6570063Y-12064484D02*
X6551015Y-12054960D01*
X6551015Y-12054960D02*
X6541491Y-12035912D01*
X6541491Y-12035912D02*
X6541491Y-11864484D01*
X6722444Y-12054960D02*
X6703396Y-12064484D01*
X6703396Y-12064484D02*
X6665301Y-12064484D01*
X6665301Y-12064484D02*
X6646253Y-12054960D01*
X6646253Y-12054960D02*
X6636730Y-12035912D01*
X6636730Y-12035912D02*
X6636730Y-11959722D01*
X6636730Y-11959722D02*
X6646253Y-11940674D01*
X6646253Y-11940674D02*
X6665301Y-11931150D01*
X6665301Y-11931150D02*
X6703396Y-11931150D01*
X6703396Y-11931150D02*
X6722444Y-11940674D01*
X6722444Y-11940674D02*
X6731968Y-11959722D01*
X6731968Y-11959722D02*
X6731968Y-11978769D01*
X6731968Y-11978769D02*
X6636730Y-11997817D01*
X6808158Y-12054960D02*
X6827206Y-12064484D01*
X6827206Y-12064484D02*
X6865301Y-12064484D01*
X6865301Y-12064484D02*
X6884349Y-12054960D01*
X6884349Y-12054960D02*
X6893872Y-12035912D01*
X6893872Y-12035912D02*
X6893872Y-12026388D01*
X6893872Y-12026388D02*
X6884349Y-12007341D01*
X6884349Y-12007341D02*
X6865301Y-11997817D01*
X6865301Y-11997817D02*
X6836730Y-11997817D01*
X6836730Y-11997817D02*
X6817682Y-11988293D01*
X6817682Y-11988293D02*
X6808158Y-11969246D01*
X6808158Y-11969246D02*
X6808158Y-11959722D01*
X6808158Y-11959722D02*
X6817682Y-11940674D01*
X6817682Y-11940674D02*
X6836730Y-11931150D01*
X6836730Y-11931150D02*
X6865301Y-11931150D01*
X6865301Y-11931150D02*
X6884349Y-11940674D01*
X6960539Y-12140674D02*
X6970063Y-12131150D01*
X6970063Y-12131150D02*
X6989111Y-12102579D01*
X6989111Y-12102579D02*
X6998634Y-12083531D01*
X6998634Y-12083531D02*
X7008158Y-12054960D01*
X7008158Y-12054960D02*
X7017682Y-12007341D01*
X7017682Y-12007341D02*
X7017682Y-11969246D01*
X7017682Y-11969246D02*
X7008158Y-11921627D01*
X7008158Y-11921627D02*
X6998634Y-11893055D01*
X6998634Y-11893055D02*
X6989111Y-11874008D01*
X6989111Y-11874008D02*
X6970063Y-11845436D01*
X6970063Y-11845436D02*
X6960539Y-11835912D01*
D12*
X1978891Y-12275891D02*
X1978891Y-12198109D01*
X1901109Y-12198109D01*
X1901109Y-12275891D01*
X1978891Y-12275891D01*
D11*
X2360539Y-12328484D02*
X2246253Y-12328484D01*
X2303396Y-12328484D02*
X2303396Y-12128484D01*
X2303396Y-12128484D02*
X2284348Y-12157055D01*
X2284348Y-12157055D02*
X2265301Y-12176103D01*
X2265301Y-12176103D02*
X2246253Y-12185627D01*
X2455777Y-12318960D02*
X2455777Y-12328484D01*
X2455777Y-12328484D02*
X2446253Y-12347531D01*
X2446253Y-12347531D02*
X2436729Y-12357055D01*
X2646253Y-12328484D02*
X2531967Y-12328484D01*
X2589110Y-12328484D02*
X2589110Y-12128484D01*
X2589110Y-12128484D02*
X2570063Y-12157055D01*
X2570063Y-12157055D02*
X2551015Y-12176103D01*
X2551015Y-12176103D02*
X2531967Y-12185627D01*
X2770063Y-12128484D02*
X2789110Y-12128484D01*
X2789110Y-12128484D02*
X2808158Y-12138008D01*
X2808158Y-12138008D02*
X2817682Y-12147531D01*
X2817682Y-12147531D02*
X2827205Y-12166579D01*
X2827205Y-12166579D02*
X2836729Y-12204674D01*
X2836729Y-12204674D02*
X2836729Y-12252293D01*
X2836729Y-12252293D02*
X2827205Y-12290388D01*
X2827205Y-12290388D02*
X2817682Y-12309436D01*
X2817682Y-12309436D02*
X2808158Y-12318960D01*
X2808158Y-12318960D02*
X2789110Y-12328484D01*
X2789110Y-12328484D02*
X2770063Y-12328484D01*
X2770063Y-12328484D02*
X2751015Y-12318960D01*
X2751015Y-12318960D02*
X2741491Y-12309436D01*
X2741491Y-12309436D02*
X2731967Y-12290388D01*
X2731967Y-12290388D02*
X2722444Y-12252293D01*
X2722444Y-12252293D02*
X2722444Y-12204674D01*
X2722444Y-12204674D02*
X2731967Y-12166579D01*
X2731967Y-12166579D02*
X2741491Y-12147531D01*
X2741491Y-12147531D02*
X2751015Y-12138008D01*
X2751015Y-12138008D02*
X2770063Y-12128484D01*
X2960539Y-12128484D02*
X2979586Y-12128484D01*
X2979586Y-12128484D02*
X2998634Y-12138008D01*
X2998634Y-12138008D02*
X3008158Y-12147531D01*
X3008158Y-12147531D02*
X3017682Y-12166579D01*
X3017682Y-12166579D02*
X3027205Y-12204674D01*
X3027205Y-12204674D02*
X3027205Y-12252293D01*
X3027205Y-12252293D02*
X3017682Y-12290388D01*
X3017682Y-12290388D02*
X3008158Y-12309436D01*
X3008158Y-12309436D02*
X2998634Y-12318960D01*
X2998634Y-12318960D02*
X2979586Y-12328484D01*
X2979586Y-12328484D02*
X2960539Y-12328484D01*
X2960539Y-12328484D02*
X2941491Y-12318960D01*
X2941491Y-12318960D02*
X2931967Y-12309436D01*
X2931967Y-12309436D02*
X2922443Y-12290388D01*
X2922443Y-12290388D02*
X2912920Y-12252293D01*
X2912920Y-12252293D02*
X2912920Y-12204674D01*
X2912920Y-12204674D02*
X2922443Y-12166579D01*
X2922443Y-12166579D02*
X2931967Y-12147531D01*
X2931967Y-12147531D02*
X2941491Y-12138008D01*
X2941491Y-12138008D02*
X2960539Y-12128484D01*
X3112920Y-12328484D02*
X3112920Y-12195150D01*
X3112920Y-12214198D02*
X3122443Y-12204674D01*
X3122443Y-12204674D02*
X3141491Y-12195150D01*
X3141491Y-12195150D02*
X3170063Y-12195150D01*
X3170063Y-12195150D02*
X3189110Y-12204674D01*
X3189110Y-12204674D02*
X3198634Y-12223722D01*
X3198634Y-12223722D02*
X3198634Y-12328484D01*
X3198634Y-12223722D02*
X3208158Y-12204674D01*
X3208158Y-12204674D02*
X3227205Y-12195150D01*
X3227205Y-12195150D02*
X3255777Y-12195150D01*
X3255777Y-12195150D02*
X3274824Y-12204674D01*
X3274824Y-12204674D02*
X3284348Y-12223722D01*
X3284348Y-12223722D02*
X3284348Y-12328484D01*
X3379586Y-12328484D02*
X3379586Y-12195150D01*
X3379586Y-12214198D02*
X3389110Y-12204674D01*
X3389110Y-12204674D02*
X3408158Y-12195150D01*
X3408158Y-12195150D02*
X3436729Y-12195150D01*
X3436729Y-12195150D02*
X3455777Y-12204674D01*
X3455777Y-12204674D02*
X3465301Y-12223722D01*
X3465301Y-12223722D02*
X3465301Y-12328484D01*
X3465301Y-12223722D02*
X3474824Y-12204674D01*
X3474824Y-12204674D02*
X3493872Y-12195150D01*
X3493872Y-12195150D02*
X3522443Y-12195150D01*
X3522443Y-12195150D02*
X3541491Y-12204674D01*
X3541491Y-12204674D02*
X3551015Y-12223722D01*
X3551015Y-12223722D02*
X3551015Y-12328484D01*
X3941491Y-12118960D02*
X3770063Y-12376103D01*
X4198634Y-12128484D02*
X4217682Y-12128484D01*
X4217682Y-12128484D02*
X4236729Y-12138008D01*
X4236729Y-12138008D02*
X4246253Y-12147531D01*
X4246253Y-12147531D02*
X4255777Y-12166579D01*
X4255777Y-12166579D02*
X4265301Y-12204674D01*
X4265301Y-12204674D02*
X4265301Y-12252293D01*
X4265301Y-12252293D02*
X4255777Y-12290388D01*
X4255777Y-12290388D02*
X4246253Y-12309436D01*
X4246253Y-12309436D02*
X4236729Y-12318960D01*
X4236729Y-12318960D02*
X4217682Y-12328484D01*
X4217682Y-12328484D02*
X4198634Y-12328484D01*
X4198634Y-12328484D02*
X4179586Y-12318960D01*
X4179586Y-12318960D02*
X4170063Y-12309436D01*
X4170063Y-12309436D02*
X4160539Y-12290388D01*
X4160539Y-12290388D02*
X4151015Y-12252293D01*
X4151015Y-12252293D02*
X4151015Y-12204674D01*
X4151015Y-12204674D02*
X4160539Y-12166579D01*
X4160539Y-12166579D02*
X4170063Y-12147531D01*
X4170063Y-12147531D02*
X4179586Y-12138008D01*
X4179586Y-12138008D02*
X4198634Y-12128484D01*
X4360539Y-12318960D02*
X4360539Y-12328484D01*
X4360539Y-12328484D02*
X4351015Y-12347531D01*
X4351015Y-12347531D02*
X4341491Y-12357055D01*
X4484348Y-12128484D02*
X4503396Y-12128484D01*
X4503396Y-12128484D02*
X4522444Y-12138008D01*
X4522444Y-12138008D02*
X4531968Y-12147531D01*
X4531968Y-12147531D02*
X4541491Y-12166579D01*
X4541491Y-12166579D02*
X4551015Y-12204674D01*
X4551015Y-12204674D02*
X4551015Y-12252293D01*
X4551015Y-12252293D02*
X4541491Y-12290388D01*
X4541491Y-12290388D02*
X4531968Y-12309436D01*
X4531968Y-12309436D02*
X4522444Y-12318960D01*
X4522444Y-12318960D02*
X4503396Y-12328484D01*
X4503396Y-12328484D02*
X4484348Y-12328484D01*
X4484348Y-12328484D02*
X4465301Y-12318960D01*
X4465301Y-12318960D02*
X4455777Y-12309436D01*
X4455777Y-12309436D02*
X4446253Y-12290388D01*
X4446253Y-12290388D02*
X4436729Y-12252293D01*
X4436729Y-12252293D02*
X4436729Y-12204674D01*
X4436729Y-12204674D02*
X4446253Y-12166579D01*
X4446253Y-12166579D02*
X4455777Y-12147531D01*
X4455777Y-12147531D02*
X4465301Y-12138008D01*
X4465301Y-12138008D02*
X4484348Y-12128484D01*
X4722444Y-12195150D02*
X4722444Y-12328484D01*
X4674825Y-12118960D02*
X4627206Y-12261817D01*
X4627206Y-12261817D02*
X4751015Y-12261817D01*
X4808158Y-12128484D02*
X4931968Y-12128484D01*
X4931968Y-12128484D02*
X4865301Y-12204674D01*
X4865301Y-12204674D02*
X4893872Y-12204674D01*
X4893872Y-12204674D02*
X4912920Y-12214198D01*
X4912920Y-12214198D02*
X4922444Y-12223722D01*
X4922444Y-12223722D02*
X4931968Y-12242769D01*
X4931968Y-12242769D02*
X4931968Y-12290388D01*
X4931968Y-12290388D02*
X4922444Y-12309436D01*
X4922444Y-12309436D02*
X4912920Y-12318960D01*
X4912920Y-12318960D02*
X4893872Y-12328484D01*
X4893872Y-12328484D02*
X4836729Y-12328484D01*
X4836729Y-12328484D02*
X4817682Y-12318960D01*
X4817682Y-12318960D02*
X4808158Y-12309436D01*
X4998634Y-12128484D02*
X5122444Y-12128484D01*
X5122444Y-12128484D02*
X5055777Y-12204674D01*
X5055777Y-12204674D02*
X5084349Y-12204674D01*
X5084349Y-12204674D02*
X5103396Y-12214198D01*
X5103396Y-12214198D02*
X5112920Y-12223722D01*
X5112920Y-12223722D02*
X5122444Y-12242769D01*
X5122444Y-12242769D02*
X5122444Y-12290388D01*
X5122444Y-12290388D02*
X5112920Y-12309436D01*
X5112920Y-12309436D02*
X5103396Y-12318960D01*
X5103396Y-12318960D02*
X5084349Y-12328484D01*
X5084349Y-12328484D02*
X5027206Y-12328484D01*
X5027206Y-12328484D02*
X5008158Y-12318960D01*
X5008158Y-12318960D02*
X4998634Y-12309436D01*
X5198634Y-12128484D02*
X5198634Y-12166579D01*
X5274825Y-12128484D02*
X5274825Y-12166579D01*
X5570063Y-12404674D02*
X5560539Y-12395150D01*
X5560539Y-12395150D02*
X5541491Y-12366579D01*
X5541491Y-12366579D02*
X5531968Y-12347531D01*
X5531968Y-12347531D02*
X5522444Y-12318960D01*
X5522444Y-12318960D02*
X5512920Y-12271341D01*
X5512920Y-12271341D02*
X5512920Y-12233246D01*
X5512920Y-12233246D02*
X5522444Y-12185627D01*
X5522444Y-12185627D02*
X5531968Y-12157055D01*
X5531968Y-12157055D02*
X5541491Y-12138008D01*
X5541491Y-12138008D02*
X5560539Y-12109436D01*
X5560539Y-12109436D02*
X5570063Y-12099912D01*
X5655777Y-12328484D02*
X5693872Y-12328484D01*
X5693872Y-12328484D02*
X5712920Y-12318960D01*
X5712920Y-12318960D02*
X5722444Y-12309436D01*
X5722444Y-12309436D02*
X5741491Y-12280865D01*
X5741491Y-12280865D02*
X5751015Y-12242769D01*
X5751015Y-12242769D02*
X5751015Y-12166579D01*
X5751015Y-12166579D02*
X5741491Y-12147531D01*
X5741491Y-12147531D02*
X5731968Y-12138008D01*
X5731968Y-12138008D02*
X5712920Y-12128484D01*
X5712920Y-12128484D02*
X5674825Y-12128484D01*
X5674825Y-12128484D02*
X5655777Y-12138008D01*
X5655777Y-12138008D02*
X5646253Y-12147531D01*
X5646253Y-12147531D02*
X5636729Y-12166579D01*
X5636729Y-12166579D02*
X5636729Y-12214198D01*
X5636729Y-12214198D02*
X5646253Y-12233246D01*
X5646253Y-12233246D02*
X5655777Y-12242769D01*
X5655777Y-12242769D02*
X5674825Y-12252293D01*
X5674825Y-12252293D02*
X5712920Y-12252293D01*
X5712920Y-12252293D02*
X5731968Y-12242769D01*
X5731968Y-12242769D02*
X5741491Y-12233246D01*
X5741491Y-12233246D02*
X5751015Y-12214198D01*
X5989110Y-12328484D02*
X5989110Y-12128484D01*
X6074825Y-12328484D02*
X6074825Y-12223722D01*
X6074825Y-12223722D02*
X6065301Y-12204674D01*
X6065301Y-12204674D02*
X6046253Y-12195150D01*
X6046253Y-12195150D02*
X6017682Y-12195150D01*
X6017682Y-12195150D02*
X5998634Y-12204674D01*
X5998634Y-12204674D02*
X5989110Y-12214198D01*
X6198634Y-12328484D02*
X6179587Y-12318960D01*
X6179587Y-12318960D02*
X6170063Y-12309436D01*
X6170063Y-12309436D02*
X6160539Y-12290388D01*
X6160539Y-12290388D02*
X6160539Y-12233246D01*
X6160539Y-12233246D02*
X6170063Y-12214198D01*
X6170063Y-12214198D02*
X6179587Y-12204674D01*
X6179587Y-12204674D02*
X6198634Y-12195150D01*
X6198634Y-12195150D02*
X6227206Y-12195150D01*
X6227206Y-12195150D02*
X6246253Y-12204674D01*
X6246253Y-12204674D02*
X6255777Y-12214198D01*
X6255777Y-12214198D02*
X6265301Y-12233246D01*
X6265301Y-12233246D02*
X6265301Y-12290388D01*
X6265301Y-12290388D02*
X6255777Y-12309436D01*
X6255777Y-12309436D02*
X6246253Y-12318960D01*
X6246253Y-12318960D02*
X6227206Y-12328484D01*
X6227206Y-12328484D02*
X6198634Y-12328484D01*
X6379587Y-12328484D02*
X6360539Y-12318960D01*
X6360539Y-12318960D02*
X6351015Y-12299912D01*
X6351015Y-12299912D02*
X6351015Y-12128484D01*
X6531968Y-12318960D02*
X6512920Y-12328484D01*
X6512920Y-12328484D02*
X6474825Y-12328484D01*
X6474825Y-12328484D02*
X6455777Y-12318960D01*
X6455777Y-12318960D02*
X6446253Y-12299912D01*
X6446253Y-12299912D02*
X6446253Y-12223722D01*
X6446253Y-12223722D02*
X6455777Y-12204674D01*
X6455777Y-12204674D02*
X6474825Y-12195150D01*
X6474825Y-12195150D02*
X6512920Y-12195150D01*
X6512920Y-12195150D02*
X6531968Y-12204674D01*
X6531968Y-12204674D02*
X6541491Y-12223722D01*
X6541491Y-12223722D02*
X6541491Y-12242769D01*
X6541491Y-12242769D02*
X6446253Y-12261817D01*
X6617682Y-12318960D02*
X6636730Y-12328484D01*
X6636730Y-12328484D02*
X6674825Y-12328484D01*
X6674825Y-12328484D02*
X6693872Y-12318960D01*
X6693872Y-12318960D02*
X6703396Y-12299912D01*
X6703396Y-12299912D02*
X6703396Y-12290388D01*
X6703396Y-12290388D02*
X6693872Y-12271341D01*
X6693872Y-12271341D02*
X6674825Y-12261817D01*
X6674825Y-12261817D02*
X6646253Y-12261817D01*
X6646253Y-12261817D02*
X6627206Y-12252293D01*
X6627206Y-12252293D02*
X6617682Y-12233246D01*
X6617682Y-12233246D02*
X6617682Y-12223722D01*
X6617682Y-12223722D02*
X6627206Y-12204674D01*
X6627206Y-12204674D02*
X6646253Y-12195150D01*
X6646253Y-12195150D02*
X6674825Y-12195150D01*
X6674825Y-12195150D02*
X6693872Y-12204674D01*
X6770063Y-12404674D02*
X6779587Y-12395150D01*
X6779587Y-12395150D02*
X6798634Y-12366579D01*
X6798634Y-12366579D02*
X6808158Y-12347531D01*
X6808158Y-12347531D02*
X6817682Y-12318960D01*
X6817682Y-12318960D02*
X6827206Y-12271341D01*
X6827206Y-12271341D02*
X6827206Y-12233246D01*
X6827206Y-12233246D02*
X6817682Y-12185627D01*
X6817682Y-12185627D02*
X6808158Y-12157055D01*
X6808158Y-12157055D02*
X6798634Y-12138008D01*
X6798634Y-12138008D02*
X6779587Y-12109436D01*
X6779587Y-12109436D02*
X6770063Y-12099912D01*
D13*
X1930000Y-12566000D02*
X1995000Y-12501000D01*
X1930000Y-12436000D01*
X1865000Y-12501000D01*
X1930000Y-12566000D01*
D11*
X2360539Y-12592484D02*
X2246253Y-12592484D01*
X2303396Y-12592484D02*
X2303396Y-12392484D01*
X2303396Y-12392484D02*
X2284348Y-12421055D01*
X2284348Y-12421055D02*
X2265301Y-12440103D01*
X2265301Y-12440103D02*
X2246253Y-12449627D01*
X2455777Y-12582960D02*
X2455777Y-12592484D01*
X2455777Y-12592484D02*
X2446253Y-12611531D01*
X2446253Y-12611531D02*
X2436729Y-12621055D01*
X2522444Y-12392484D02*
X2646253Y-12392484D01*
X2646253Y-12392484D02*
X2579586Y-12468674D01*
X2579586Y-12468674D02*
X2608158Y-12468674D01*
X2608158Y-12468674D02*
X2627205Y-12478198D01*
X2627205Y-12478198D02*
X2636729Y-12487722D01*
X2636729Y-12487722D02*
X2646253Y-12506769D01*
X2646253Y-12506769D02*
X2646253Y-12554388D01*
X2646253Y-12554388D02*
X2636729Y-12573436D01*
X2636729Y-12573436D02*
X2627205Y-12582960D01*
X2627205Y-12582960D02*
X2608158Y-12592484D01*
X2608158Y-12592484D02*
X2551015Y-12592484D01*
X2551015Y-12592484D02*
X2531967Y-12582960D01*
X2531967Y-12582960D02*
X2522444Y-12573436D01*
X2770063Y-12392484D02*
X2789110Y-12392484D01*
X2789110Y-12392484D02*
X2808158Y-12402008D01*
X2808158Y-12402008D02*
X2817682Y-12411531D01*
X2817682Y-12411531D02*
X2827205Y-12430579D01*
X2827205Y-12430579D02*
X2836729Y-12468674D01*
X2836729Y-12468674D02*
X2836729Y-12516293D01*
X2836729Y-12516293D02*
X2827205Y-12554388D01*
X2827205Y-12554388D02*
X2817682Y-12573436D01*
X2817682Y-12573436D02*
X2808158Y-12582960D01*
X2808158Y-12582960D02*
X2789110Y-12592484D01*
X2789110Y-12592484D02*
X2770063Y-12592484D01*
X2770063Y-12592484D02*
X2751015Y-12582960D01*
X2751015Y-12582960D02*
X2741491Y-12573436D01*
X2741491Y-12573436D02*
X2731967Y-12554388D01*
X2731967Y-12554388D02*
X2722444Y-12516293D01*
X2722444Y-12516293D02*
X2722444Y-12468674D01*
X2722444Y-12468674D02*
X2731967Y-12430579D01*
X2731967Y-12430579D02*
X2741491Y-12411531D01*
X2741491Y-12411531D02*
X2751015Y-12402008D01*
X2751015Y-12402008D02*
X2770063Y-12392484D01*
X2960539Y-12392484D02*
X2979586Y-12392484D01*
X2979586Y-12392484D02*
X2998634Y-12402008D01*
X2998634Y-12402008D02*
X3008158Y-12411531D01*
X3008158Y-12411531D02*
X3017682Y-12430579D01*
X3017682Y-12430579D02*
X3027205Y-12468674D01*
X3027205Y-12468674D02*
X3027205Y-12516293D01*
X3027205Y-12516293D02*
X3017682Y-12554388D01*
X3017682Y-12554388D02*
X3008158Y-12573436D01*
X3008158Y-12573436D02*
X2998634Y-12582960D01*
X2998634Y-12582960D02*
X2979586Y-12592484D01*
X2979586Y-12592484D02*
X2960539Y-12592484D01*
X2960539Y-12592484D02*
X2941491Y-12582960D01*
X2941491Y-12582960D02*
X2931967Y-12573436D01*
X2931967Y-12573436D02*
X2922443Y-12554388D01*
X2922443Y-12554388D02*
X2912920Y-12516293D01*
X2912920Y-12516293D02*
X2912920Y-12468674D01*
X2912920Y-12468674D02*
X2922443Y-12430579D01*
X2922443Y-12430579D02*
X2931967Y-12411531D01*
X2931967Y-12411531D02*
X2941491Y-12402008D01*
X2941491Y-12402008D02*
X2960539Y-12392484D01*
X3112920Y-12592484D02*
X3112920Y-12459150D01*
X3112920Y-12478198D02*
X3122443Y-12468674D01*
X3122443Y-12468674D02*
X3141491Y-12459150D01*
X3141491Y-12459150D02*
X3170063Y-12459150D01*
X3170063Y-12459150D02*
X3189110Y-12468674D01*
X3189110Y-12468674D02*
X3198634Y-12487722D01*
X3198634Y-12487722D02*
X3198634Y-12592484D01*
X3198634Y-12487722D02*
X3208158Y-12468674D01*
X3208158Y-12468674D02*
X3227205Y-12459150D01*
X3227205Y-12459150D02*
X3255777Y-12459150D01*
X3255777Y-12459150D02*
X3274824Y-12468674D01*
X3274824Y-12468674D02*
X3284348Y-12487722D01*
X3284348Y-12487722D02*
X3284348Y-12592484D01*
X3379586Y-12592484D02*
X3379586Y-12459150D01*
X3379586Y-12478198D02*
X3389110Y-12468674D01*
X3389110Y-12468674D02*
X3408158Y-12459150D01*
X3408158Y-12459150D02*
X3436729Y-12459150D01*
X3436729Y-12459150D02*
X3455777Y-12468674D01*
X3455777Y-12468674D02*
X3465301Y-12487722D01*
X3465301Y-12487722D02*
X3465301Y-12592484D01*
X3465301Y-12487722D02*
X3474824Y-12468674D01*
X3474824Y-12468674D02*
X3493872Y-12459150D01*
X3493872Y-12459150D02*
X3522443Y-12459150D01*
X3522443Y-12459150D02*
X3541491Y-12468674D01*
X3541491Y-12468674D02*
X3551015Y-12487722D01*
X3551015Y-12487722D02*
X3551015Y-12592484D01*
X3941491Y-12382960D02*
X3770063Y-12640103D01*
X4198634Y-12392484D02*
X4217682Y-12392484D01*
X4217682Y-12392484D02*
X4236729Y-12402008D01*
X4236729Y-12402008D02*
X4246253Y-12411531D01*
X4246253Y-12411531D02*
X4255777Y-12430579D01*
X4255777Y-12430579D02*
X4265301Y-12468674D01*
X4265301Y-12468674D02*
X4265301Y-12516293D01*
X4265301Y-12516293D02*
X4255777Y-12554388D01*
X4255777Y-12554388D02*
X4246253Y-12573436D01*
X4246253Y-12573436D02*
X4236729Y-12582960D01*
X4236729Y-12582960D02*
X4217682Y-12592484D01*
X4217682Y-12592484D02*
X4198634Y-12592484D01*
X4198634Y-12592484D02*
X4179586Y-12582960D01*
X4179586Y-12582960D02*
X4170063Y-12573436D01*
X4170063Y-12573436D02*
X4160539Y-12554388D01*
X4160539Y-12554388D02*
X4151015Y-12516293D01*
X4151015Y-12516293D02*
X4151015Y-12468674D01*
X4151015Y-12468674D02*
X4160539Y-12430579D01*
X4160539Y-12430579D02*
X4170063Y-12411531D01*
X4170063Y-12411531D02*
X4179586Y-12402008D01*
X4179586Y-12402008D02*
X4198634Y-12392484D01*
X4360539Y-12582960D02*
X4360539Y-12592484D01*
X4360539Y-12592484D02*
X4351015Y-12611531D01*
X4351015Y-12611531D02*
X4341491Y-12621055D01*
X4484348Y-12392484D02*
X4503396Y-12392484D01*
X4503396Y-12392484D02*
X4522444Y-12402008D01*
X4522444Y-12402008D02*
X4531968Y-12411531D01*
X4531968Y-12411531D02*
X4541491Y-12430579D01*
X4541491Y-12430579D02*
X4551015Y-12468674D01*
X4551015Y-12468674D02*
X4551015Y-12516293D01*
X4551015Y-12516293D02*
X4541491Y-12554388D01*
X4541491Y-12554388D02*
X4531968Y-12573436D01*
X4531968Y-12573436D02*
X4522444Y-12582960D01*
X4522444Y-12582960D02*
X4503396Y-12592484D01*
X4503396Y-12592484D02*
X4484348Y-12592484D01*
X4484348Y-12592484D02*
X4465301Y-12582960D01*
X4465301Y-12582960D02*
X4455777Y-12573436D01*
X4455777Y-12573436D02*
X4446253Y-12554388D01*
X4446253Y-12554388D02*
X4436729Y-12516293D01*
X4436729Y-12516293D02*
X4436729Y-12468674D01*
X4436729Y-12468674D02*
X4446253Y-12430579D01*
X4446253Y-12430579D02*
X4455777Y-12411531D01*
X4455777Y-12411531D02*
X4465301Y-12402008D01*
X4465301Y-12402008D02*
X4484348Y-12392484D01*
X4731968Y-12392484D02*
X4636729Y-12392484D01*
X4636729Y-12392484D02*
X4627206Y-12487722D01*
X4627206Y-12487722D02*
X4636729Y-12478198D01*
X4636729Y-12478198D02*
X4655777Y-12468674D01*
X4655777Y-12468674D02*
X4703396Y-12468674D01*
X4703396Y-12468674D02*
X4722444Y-12478198D01*
X4722444Y-12478198D02*
X4731968Y-12487722D01*
X4731968Y-12487722D02*
X4741491Y-12506769D01*
X4741491Y-12506769D02*
X4741491Y-12554388D01*
X4741491Y-12554388D02*
X4731968Y-12573436D01*
X4731968Y-12573436D02*
X4722444Y-12582960D01*
X4722444Y-12582960D02*
X4703396Y-12592484D01*
X4703396Y-12592484D02*
X4655777Y-12592484D01*
X4655777Y-12592484D02*
X4636729Y-12582960D01*
X4636729Y-12582960D02*
X4627206Y-12573436D01*
X4931968Y-12592484D02*
X4817682Y-12592484D01*
X4874825Y-12592484D02*
X4874825Y-12392484D01*
X4874825Y-12392484D02*
X4855777Y-12421055D01*
X4855777Y-12421055D02*
X4836729Y-12440103D01*
X4836729Y-12440103D02*
X4817682Y-12449627D01*
X5008158Y-12411531D02*
X5017682Y-12402008D01*
X5017682Y-12402008D02*
X5036729Y-12392484D01*
X5036729Y-12392484D02*
X5084349Y-12392484D01*
X5084349Y-12392484D02*
X5103396Y-12402008D01*
X5103396Y-12402008D02*
X5112920Y-12411531D01*
X5112920Y-12411531D02*
X5122444Y-12430579D01*
X5122444Y-12430579D02*
X5122444Y-12449627D01*
X5122444Y-12449627D02*
X5112920Y-12478198D01*
X5112920Y-12478198D02*
X4998634Y-12592484D01*
X4998634Y-12592484D02*
X5122444Y-12592484D01*
X5198634Y-12392484D02*
X5198634Y-12430579D01*
X5274825Y-12392484D02*
X5274825Y-12430579D01*
X5570063Y-12668674D02*
X5560539Y-12659150D01*
X5560539Y-12659150D02*
X5541491Y-12630579D01*
X5541491Y-12630579D02*
X5531968Y-12611531D01*
X5531968Y-12611531D02*
X5522444Y-12582960D01*
X5522444Y-12582960D02*
X5512920Y-12535341D01*
X5512920Y-12535341D02*
X5512920Y-12497246D01*
X5512920Y-12497246D02*
X5522444Y-12449627D01*
X5522444Y-12449627D02*
X5531968Y-12421055D01*
X5531968Y-12421055D02*
X5541491Y-12402008D01*
X5541491Y-12402008D02*
X5560539Y-12373436D01*
X5560539Y-12373436D02*
X5570063Y-12363912D01*
X5684348Y-12392484D02*
X5703396Y-12392484D01*
X5703396Y-12392484D02*
X5722444Y-12402008D01*
X5722444Y-12402008D02*
X5731968Y-12411531D01*
X5731968Y-12411531D02*
X5741491Y-12430579D01*
X5741491Y-12430579D02*
X5751015Y-12468674D01*
X5751015Y-12468674D02*
X5751015Y-12516293D01*
X5751015Y-12516293D02*
X5741491Y-12554388D01*
X5741491Y-12554388D02*
X5731968Y-12573436D01*
X5731968Y-12573436D02*
X5722444Y-12582960D01*
X5722444Y-12582960D02*
X5703396Y-12592484D01*
X5703396Y-12592484D02*
X5684348Y-12592484D01*
X5684348Y-12592484D02*
X5665301Y-12582960D01*
X5665301Y-12582960D02*
X5655777Y-12573436D01*
X5655777Y-12573436D02*
X5646253Y-12554388D01*
X5646253Y-12554388D02*
X5636729Y-12516293D01*
X5636729Y-12516293D02*
X5636729Y-12468674D01*
X5636729Y-12468674D02*
X5646253Y-12430579D01*
X5646253Y-12430579D02*
X5655777Y-12411531D01*
X5655777Y-12411531D02*
X5665301Y-12402008D01*
X5665301Y-12402008D02*
X5684348Y-12392484D01*
X5989110Y-12592484D02*
X5989110Y-12392484D01*
X6074825Y-12592484D02*
X6074825Y-12487722D01*
X6074825Y-12487722D02*
X6065301Y-12468674D01*
X6065301Y-12468674D02*
X6046253Y-12459150D01*
X6046253Y-12459150D02*
X6017682Y-12459150D01*
X6017682Y-12459150D02*
X5998634Y-12468674D01*
X5998634Y-12468674D02*
X5989110Y-12478198D01*
X6198634Y-12592484D02*
X6179587Y-12582960D01*
X6179587Y-12582960D02*
X6170063Y-12573436D01*
X6170063Y-12573436D02*
X6160539Y-12554388D01*
X6160539Y-12554388D02*
X6160539Y-12497246D01*
X6160539Y-12497246D02*
X6170063Y-12478198D01*
X6170063Y-12478198D02*
X6179587Y-12468674D01*
X6179587Y-12468674D02*
X6198634Y-12459150D01*
X6198634Y-12459150D02*
X6227206Y-12459150D01*
X6227206Y-12459150D02*
X6246253Y-12468674D01*
X6246253Y-12468674D02*
X6255777Y-12478198D01*
X6255777Y-12478198D02*
X6265301Y-12497246D01*
X6265301Y-12497246D02*
X6265301Y-12554388D01*
X6265301Y-12554388D02*
X6255777Y-12573436D01*
X6255777Y-12573436D02*
X6246253Y-12582960D01*
X6246253Y-12582960D02*
X6227206Y-12592484D01*
X6227206Y-12592484D02*
X6198634Y-12592484D01*
X6379587Y-12592484D02*
X6360539Y-12582960D01*
X6360539Y-12582960D02*
X6351015Y-12563912D01*
X6351015Y-12563912D02*
X6351015Y-12392484D01*
X6531968Y-12582960D02*
X6512920Y-12592484D01*
X6512920Y-12592484D02*
X6474825Y-12592484D01*
X6474825Y-12592484D02*
X6455777Y-12582960D01*
X6455777Y-12582960D02*
X6446253Y-12563912D01*
X6446253Y-12563912D02*
X6446253Y-12487722D01*
X6446253Y-12487722D02*
X6455777Y-12468674D01*
X6455777Y-12468674D02*
X6474825Y-12459150D01*
X6474825Y-12459150D02*
X6512920Y-12459150D01*
X6512920Y-12459150D02*
X6531968Y-12468674D01*
X6531968Y-12468674D02*
X6541491Y-12487722D01*
X6541491Y-12487722D02*
X6541491Y-12506769D01*
X6541491Y-12506769D02*
X6446253Y-12525817D01*
X6617682Y-12582960D02*
X6636730Y-12592484D01*
X6636730Y-12592484D02*
X6674825Y-12592484D01*
X6674825Y-12592484D02*
X6693872Y-12582960D01*
X6693872Y-12582960D02*
X6703396Y-12563912D01*
X6703396Y-12563912D02*
X6703396Y-12554388D01*
X6703396Y-12554388D02*
X6693872Y-12535341D01*
X6693872Y-12535341D02*
X6674825Y-12525817D01*
X6674825Y-12525817D02*
X6646253Y-12525817D01*
X6646253Y-12525817D02*
X6627206Y-12516293D01*
X6627206Y-12516293D02*
X6617682Y-12497246D01*
X6617682Y-12497246D02*
X6617682Y-12487722D01*
X6617682Y-12487722D02*
X6627206Y-12468674D01*
X6627206Y-12468674D02*
X6646253Y-12459150D01*
X6646253Y-12459150D02*
X6674825Y-12459150D01*
X6674825Y-12459150D02*
X6693872Y-12468674D01*
X6941492Y-12516293D02*
X7093873Y-12516293D01*
X7017682Y-12592484D02*
X7017682Y-12440103D01*
X7351015Y-12592484D02*
X7389111Y-12592484D01*
X7389111Y-12592484D02*
X7408158Y-12582960D01*
X7408158Y-12582960D02*
X7417682Y-12573436D01*
X7417682Y-12573436D02*
X7436730Y-12544865D01*
X7436730Y-12544865D02*
X7446253Y-12506769D01*
X7446253Y-12506769D02*
X7446253Y-12430579D01*
X7446253Y-12430579D02*
X7436730Y-12411531D01*
X7436730Y-12411531D02*
X7427206Y-12402008D01*
X7427206Y-12402008D02*
X7408158Y-12392484D01*
X7408158Y-12392484D02*
X7370063Y-12392484D01*
X7370063Y-12392484D02*
X7351015Y-12402008D01*
X7351015Y-12402008D02*
X7341492Y-12411531D01*
X7341492Y-12411531D02*
X7331968Y-12430579D01*
X7331968Y-12430579D02*
X7331968Y-12478198D01*
X7331968Y-12478198D02*
X7341492Y-12497246D01*
X7341492Y-12497246D02*
X7351015Y-12506769D01*
X7351015Y-12506769D02*
X7370063Y-12516293D01*
X7370063Y-12516293D02*
X7408158Y-12516293D01*
X7408158Y-12516293D02*
X7427206Y-12506769D01*
X7427206Y-12506769D02*
X7436730Y-12497246D01*
X7436730Y-12497246D02*
X7446253Y-12478198D01*
X7674825Y-12582960D02*
X7693873Y-12592484D01*
X7693873Y-12592484D02*
X7731968Y-12592484D01*
X7731968Y-12592484D02*
X7751015Y-12582960D01*
X7751015Y-12582960D02*
X7760539Y-12563912D01*
X7760539Y-12563912D02*
X7760539Y-12554388D01*
X7760539Y-12554388D02*
X7751015Y-12535341D01*
X7751015Y-12535341D02*
X7731968Y-12525817D01*
X7731968Y-12525817D02*
X7703396Y-12525817D01*
X7703396Y-12525817D02*
X7684349Y-12516293D01*
X7684349Y-12516293D02*
X7674825Y-12497246D01*
X7674825Y-12497246D02*
X7674825Y-12487722D01*
X7674825Y-12487722D02*
X7684349Y-12468674D01*
X7684349Y-12468674D02*
X7703396Y-12459150D01*
X7703396Y-12459150D02*
X7731968Y-12459150D01*
X7731968Y-12459150D02*
X7751015Y-12468674D01*
X7874825Y-12592484D02*
X7855777Y-12582960D01*
X7855777Y-12582960D02*
X7846254Y-12563912D01*
X7846254Y-12563912D02*
X7846254Y-12392484D01*
X7979587Y-12592484D02*
X7960539Y-12582960D01*
X7960539Y-12582960D02*
X7951015Y-12573436D01*
X7951015Y-12573436D02*
X7941492Y-12554388D01*
X7941492Y-12554388D02*
X7941492Y-12497246D01*
X7941492Y-12497246D02*
X7951015Y-12478198D01*
X7951015Y-12478198D02*
X7960539Y-12468674D01*
X7960539Y-12468674D02*
X7979587Y-12459150D01*
X7979587Y-12459150D02*
X8008158Y-12459150D01*
X8008158Y-12459150D02*
X8027206Y-12468674D01*
X8027206Y-12468674D02*
X8036730Y-12478198D01*
X8036730Y-12478198D02*
X8046254Y-12497246D01*
X8046254Y-12497246D02*
X8046254Y-12554388D01*
X8046254Y-12554388D02*
X8036730Y-12573436D01*
X8036730Y-12573436D02*
X8027206Y-12582960D01*
X8027206Y-12582960D02*
X8008158Y-12592484D01*
X8008158Y-12592484D02*
X7979587Y-12592484D01*
X8103396Y-12459150D02*
X8179587Y-12459150D01*
X8131968Y-12392484D02*
X8131968Y-12563912D01*
X8131968Y-12563912D02*
X8141492Y-12582960D01*
X8141492Y-12582960D02*
X8160539Y-12592484D01*
X8160539Y-12592484D02*
X8179587Y-12592484D01*
X8236730Y-12582960D02*
X8255777Y-12592484D01*
X8255777Y-12592484D02*
X8293873Y-12592484D01*
X8293873Y-12592484D02*
X8312920Y-12582960D01*
X8312920Y-12582960D02*
X8322444Y-12563912D01*
X8322444Y-12563912D02*
X8322444Y-12554388D01*
X8322444Y-12554388D02*
X8312920Y-12535341D01*
X8312920Y-12535341D02*
X8293873Y-12525817D01*
X8293873Y-12525817D02*
X8265301Y-12525817D01*
X8265301Y-12525817D02*
X8246254Y-12516293D01*
X8246254Y-12516293D02*
X8236730Y-12497246D01*
X8236730Y-12497246D02*
X8236730Y-12487722D01*
X8236730Y-12487722D02*
X8246254Y-12468674D01*
X8246254Y-12468674D02*
X8265301Y-12459150D01*
X8265301Y-12459150D02*
X8293873Y-12459150D01*
X8293873Y-12459150D02*
X8312920Y-12468674D01*
X8389111Y-12668674D02*
X8398635Y-12659150D01*
X8398635Y-12659150D02*
X8417682Y-12630579D01*
X8417682Y-12630579D02*
X8427206Y-12611531D01*
X8427206Y-12611531D02*
X8436730Y-12582960D01*
X8436730Y-12582960D02*
X8446254Y-12535341D01*
X8446254Y-12535341D02*
X8446254Y-12497246D01*
X8446254Y-12497246D02*
X8436730Y-12449627D01*
X8436730Y-12449627D02*
X8427206Y-12421055D01*
X8427206Y-12421055D02*
X8417682Y-12402008D01*
X8417682Y-12402008D02*
X8398635Y-12373436D01*
X8398635Y-12373436D02*
X8389111Y-12363912D01*
D14*
X1845000Y-12690000D02*
X1995000Y-12840000D01*
X1995000Y-12690000D02*
X1845000Y-12840000D01*
X1995000Y-12765000D02*
G75*
G02*
X1845000Y-12765000I-75000J0D01*
G01*
X1845000Y-12765000D02*
G75*
G02*
X1995000Y-12765000I75000J0D01*
G01*
D11*
X2360539Y-12856484D02*
X2246253Y-12856484D01*
X2303396Y-12856484D02*
X2303396Y-12656484D01*
X2303396Y-12656484D02*
X2284348Y-12685055D01*
X2284348Y-12685055D02*
X2265301Y-12704103D01*
X2265301Y-12704103D02*
X2246253Y-12713627D01*
X2455777Y-12846960D02*
X2455777Y-12856484D01*
X2455777Y-12856484D02*
X2446253Y-12875531D01*
X2446253Y-12875531D02*
X2436729Y-12885055D01*
X2636729Y-12656484D02*
X2541491Y-12656484D01*
X2541491Y-12656484D02*
X2531967Y-12751722D01*
X2531967Y-12751722D02*
X2541491Y-12742198D01*
X2541491Y-12742198D02*
X2560539Y-12732674D01*
X2560539Y-12732674D02*
X2608158Y-12732674D01*
X2608158Y-12732674D02*
X2627205Y-12742198D01*
X2627205Y-12742198D02*
X2636729Y-12751722D01*
X2636729Y-12751722D02*
X2646253Y-12770769D01*
X2646253Y-12770769D02*
X2646253Y-12818388D01*
X2646253Y-12818388D02*
X2636729Y-12837436D01*
X2636729Y-12837436D02*
X2627205Y-12846960D01*
X2627205Y-12846960D02*
X2608158Y-12856484D01*
X2608158Y-12856484D02*
X2560539Y-12856484D01*
X2560539Y-12856484D02*
X2541491Y-12846960D01*
X2541491Y-12846960D02*
X2531967Y-12837436D01*
X2770063Y-12656484D02*
X2789110Y-12656484D01*
X2789110Y-12656484D02*
X2808158Y-12666008D01*
X2808158Y-12666008D02*
X2817682Y-12675531D01*
X2817682Y-12675531D02*
X2827205Y-12694579D01*
X2827205Y-12694579D02*
X2836729Y-12732674D01*
X2836729Y-12732674D02*
X2836729Y-12780293D01*
X2836729Y-12780293D02*
X2827205Y-12818388D01*
X2827205Y-12818388D02*
X2817682Y-12837436D01*
X2817682Y-12837436D02*
X2808158Y-12846960D01*
X2808158Y-12846960D02*
X2789110Y-12856484D01*
X2789110Y-12856484D02*
X2770063Y-12856484D01*
X2770063Y-12856484D02*
X2751015Y-12846960D01*
X2751015Y-12846960D02*
X2741491Y-12837436D01*
X2741491Y-12837436D02*
X2731967Y-12818388D01*
X2731967Y-12818388D02*
X2722444Y-12780293D01*
X2722444Y-12780293D02*
X2722444Y-12732674D01*
X2722444Y-12732674D02*
X2731967Y-12694579D01*
X2731967Y-12694579D02*
X2741491Y-12675531D01*
X2741491Y-12675531D02*
X2751015Y-12666008D01*
X2751015Y-12666008D02*
X2770063Y-12656484D01*
X2960539Y-12656484D02*
X2979586Y-12656484D01*
X2979586Y-12656484D02*
X2998634Y-12666008D01*
X2998634Y-12666008D02*
X3008158Y-12675531D01*
X3008158Y-12675531D02*
X3017682Y-12694579D01*
X3017682Y-12694579D02*
X3027205Y-12732674D01*
X3027205Y-12732674D02*
X3027205Y-12780293D01*
X3027205Y-12780293D02*
X3017682Y-12818388D01*
X3017682Y-12818388D02*
X3008158Y-12837436D01*
X3008158Y-12837436D02*
X2998634Y-12846960D01*
X2998634Y-12846960D02*
X2979586Y-12856484D01*
X2979586Y-12856484D02*
X2960539Y-12856484D01*
X2960539Y-12856484D02*
X2941491Y-12846960D01*
X2941491Y-12846960D02*
X2931967Y-12837436D01*
X2931967Y-12837436D02*
X2922443Y-12818388D01*
X2922443Y-12818388D02*
X2912920Y-12780293D01*
X2912920Y-12780293D02*
X2912920Y-12732674D01*
X2912920Y-12732674D02*
X2922443Y-12694579D01*
X2922443Y-12694579D02*
X2931967Y-12675531D01*
X2931967Y-12675531D02*
X2941491Y-12666008D01*
X2941491Y-12666008D02*
X2960539Y-12656484D01*
X3112920Y-12856484D02*
X3112920Y-12723150D01*
X3112920Y-12742198D02*
X3122443Y-12732674D01*
X3122443Y-12732674D02*
X3141491Y-12723150D01*
X3141491Y-12723150D02*
X3170063Y-12723150D01*
X3170063Y-12723150D02*
X3189110Y-12732674D01*
X3189110Y-12732674D02*
X3198634Y-12751722D01*
X3198634Y-12751722D02*
X3198634Y-12856484D01*
X3198634Y-12751722D02*
X3208158Y-12732674D01*
X3208158Y-12732674D02*
X3227205Y-12723150D01*
X3227205Y-12723150D02*
X3255777Y-12723150D01*
X3255777Y-12723150D02*
X3274824Y-12732674D01*
X3274824Y-12732674D02*
X3284348Y-12751722D01*
X3284348Y-12751722D02*
X3284348Y-12856484D01*
X3379586Y-12856484D02*
X3379586Y-12723150D01*
X3379586Y-12742198D02*
X3389110Y-12732674D01*
X3389110Y-12732674D02*
X3408158Y-12723150D01*
X3408158Y-12723150D02*
X3436729Y-12723150D01*
X3436729Y-12723150D02*
X3455777Y-12732674D01*
X3455777Y-12732674D02*
X3465301Y-12751722D01*
X3465301Y-12751722D02*
X3465301Y-12856484D01*
X3465301Y-12751722D02*
X3474824Y-12732674D01*
X3474824Y-12732674D02*
X3493872Y-12723150D01*
X3493872Y-12723150D02*
X3522443Y-12723150D01*
X3522443Y-12723150D02*
X3541491Y-12732674D01*
X3541491Y-12732674D02*
X3551015Y-12751722D01*
X3551015Y-12751722D02*
X3551015Y-12856484D01*
X3941491Y-12646960D02*
X3770063Y-12904103D01*
X4198634Y-12656484D02*
X4217682Y-12656484D01*
X4217682Y-12656484D02*
X4236729Y-12666008D01*
X4236729Y-12666008D02*
X4246253Y-12675531D01*
X4246253Y-12675531D02*
X4255777Y-12694579D01*
X4255777Y-12694579D02*
X4265301Y-12732674D01*
X4265301Y-12732674D02*
X4265301Y-12780293D01*
X4265301Y-12780293D02*
X4255777Y-12818388D01*
X4255777Y-12818388D02*
X4246253Y-12837436D01*
X4246253Y-12837436D02*
X4236729Y-12846960D01*
X4236729Y-12846960D02*
X4217682Y-12856484D01*
X4217682Y-12856484D02*
X4198634Y-12856484D01*
X4198634Y-12856484D02*
X4179586Y-12846960D01*
X4179586Y-12846960D02*
X4170063Y-12837436D01*
X4170063Y-12837436D02*
X4160539Y-12818388D01*
X4160539Y-12818388D02*
X4151015Y-12780293D01*
X4151015Y-12780293D02*
X4151015Y-12732674D01*
X4151015Y-12732674D02*
X4160539Y-12694579D01*
X4160539Y-12694579D02*
X4170063Y-12675531D01*
X4170063Y-12675531D02*
X4179586Y-12666008D01*
X4179586Y-12666008D02*
X4198634Y-12656484D01*
X4360539Y-12846960D02*
X4360539Y-12856484D01*
X4360539Y-12856484D02*
X4351015Y-12875531D01*
X4351015Y-12875531D02*
X4341491Y-12885055D01*
X4484348Y-12656484D02*
X4503396Y-12656484D01*
X4503396Y-12656484D02*
X4522444Y-12666008D01*
X4522444Y-12666008D02*
X4531968Y-12675531D01*
X4531968Y-12675531D02*
X4541491Y-12694579D01*
X4541491Y-12694579D02*
X4551015Y-12732674D01*
X4551015Y-12732674D02*
X4551015Y-12780293D01*
X4551015Y-12780293D02*
X4541491Y-12818388D01*
X4541491Y-12818388D02*
X4531968Y-12837436D01*
X4531968Y-12837436D02*
X4522444Y-12846960D01*
X4522444Y-12846960D02*
X4503396Y-12856484D01*
X4503396Y-12856484D02*
X4484348Y-12856484D01*
X4484348Y-12856484D02*
X4465301Y-12846960D01*
X4465301Y-12846960D02*
X4455777Y-12837436D01*
X4455777Y-12837436D02*
X4446253Y-12818388D01*
X4446253Y-12818388D02*
X4436729Y-12780293D01*
X4436729Y-12780293D02*
X4436729Y-12732674D01*
X4436729Y-12732674D02*
X4446253Y-12694579D01*
X4446253Y-12694579D02*
X4455777Y-12675531D01*
X4455777Y-12675531D02*
X4465301Y-12666008D01*
X4465301Y-12666008D02*
X4484348Y-12656484D01*
X4731968Y-12656484D02*
X4636729Y-12656484D01*
X4636729Y-12656484D02*
X4627206Y-12751722D01*
X4627206Y-12751722D02*
X4636729Y-12742198D01*
X4636729Y-12742198D02*
X4655777Y-12732674D01*
X4655777Y-12732674D02*
X4703396Y-12732674D01*
X4703396Y-12732674D02*
X4722444Y-12742198D01*
X4722444Y-12742198D02*
X4731968Y-12751722D01*
X4731968Y-12751722D02*
X4741491Y-12770769D01*
X4741491Y-12770769D02*
X4741491Y-12818388D01*
X4741491Y-12818388D02*
X4731968Y-12837436D01*
X4731968Y-12837436D02*
X4722444Y-12846960D01*
X4722444Y-12846960D02*
X4703396Y-12856484D01*
X4703396Y-12856484D02*
X4655777Y-12856484D01*
X4655777Y-12856484D02*
X4636729Y-12846960D01*
X4636729Y-12846960D02*
X4627206Y-12837436D01*
X4836729Y-12856484D02*
X4874825Y-12856484D01*
X4874825Y-12856484D02*
X4893872Y-12846960D01*
X4893872Y-12846960D02*
X4903396Y-12837436D01*
X4903396Y-12837436D02*
X4922444Y-12808865D01*
X4922444Y-12808865D02*
X4931968Y-12770769D01*
X4931968Y-12770769D02*
X4931968Y-12694579D01*
X4931968Y-12694579D02*
X4922444Y-12675531D01*
X4922444Y-12675531D02*
X4912920Y-12666008D01*
X4912920Y-12666008D02*
X4893872Y-12656484D01*
X4893872Y-12656484D02*
X4855777Y-12656484D01*
X4855777Y-12656484D02*
X4836729Y-12666008D01*
X4836729Y-12666008D02*
X4827206Y-12675531D01*
X4827206Y-12675531D02*
X4817682Y-12694579D01*
X4817682Y-12694579D02*
X4817682Y-12742198D01*
X4817682Y-12742198D02*
X4827206Y-12761246D01*
X4827206Y-12761246D02*
X4836729Y-12770769D01*
X4836729Y-12770769D02*
X4855777Y-12780293D01*
X4855777Y-12780293D02*
X4893872Y-12780293D01*
X4893872Y-12780293D02*
X4912920Y-12770769D01*
X4912920Y-12770769D02*
X4922444Y-12761246D01*
X4922444Y-12761246D02*
X4931968Y-12742198D01*
X5122444Y-12856484D02*
X5008158Y-12856484D01*
X5065301Y-12856484D02*
X5065301Y-12656484D01*
X5065301Y-12656484D02*
X5046253Y-12685055D01*
X5046253Y-12685055D02*
X5027206Y-12704103D01*
X5027206Y-12704103D02*
X5008158Y-12713627D01*
X5198634Y-12656484D02*
X5198634Y-12694579D01*
X5274825Y-12656484D02*
X5274825Y-12694579D01*
X5570063Y-12932674D02*
X5560539Y-12923150D01*
X5560539Y-12923150D02*
X5541491Y-12894579D01*
X5541491Y-12894579D02*
X5531968Y-12875531D01*
X5531968Y-12875531D02*
X5522444Y-12846960D01*
X5522444Y-12846960D02*
X5512920Y-12799341D01*
X5512920Y-12799341D02*
X5512920Y-12761246D01*
X5512920Y-12761246D02*
X5522444Y-12713627D01*
X5522444Y-12713627D02*
X5531968Y-12685055D01*
X5531968Y-12685055D02*
X5541491Y-12666008D01*
X5541491Y-12666008D02*
X5560539Y-12637436D01*
X5560539Y-12637436D02*
X5570063Y-12627912D01*
X5627206Y-12656484D02*
X5751015Y-12656484D01*
X5751015Y-12656484D02*
X5684348Y-12732674D01*
X5684348Y-12732674D02*
X5712920Y-12732674D01*
X5712920Y-12732674D02*
X5731968Y-12742198D01*
X5731968Y-12742198D02*
X5741491Y-12751722D01*
X5741491Y-12751722D02*
X5751015Y-12770769D01*
X5751015Y-12770769D02*
X5751015Y-12818388D01*
X5751015Y-12818388D02*
X5741491Y-12837436D01*
X5741491Y-12837436D02*
X5731968Y-12846960D01*
X5731968Y-12846960D02*
X5712920Y-12856484D01*
X5712920Y-12856484D02*
X5655777Y-12856484D01*
X5655777Y-12856484D02*
X5636729Y-12846960D01*
X5636729Y-12846960D02*
X5627206Y-12837436D01*
X5989110Y-12856484D02*
X5989110Y-12656484D01*
X6074825Y-12856484D02*
X6074825Y-12751722D01*
X6074825Y-12751722D02*
X6065301Y-12732674D01*
X6065301Y-12732674D02*
X6046253Y-12723150D01*
X6046253Y-12723150D02*
X6017682Y-12723150D01*
X6017682Y-12723150D02*
X5998634Y-12732674D01*
X5998634Y-12732674D02*
X5989110Y-12742198D01*
X6198634Y-12856484D02*
X6179587Y-12846960D01*
X6179587Y-12846960D02*
X6170063Y-12837436D01*
X6170063Y-12837436D02*
X6160539Y-12818388D01*
X6160539Y-12818388D02*
X6160539Y-12761246D01*
X6160539Y-12761246D02*
X6170063Y-12742198D01*
X6170063Y-12742198D02*
X6179587Y-12732674D01*
X6179587Y-12732674D02*
X6198634Y-12723150D01*
X6198634Y-12723150D02*
X6227206Y-12723150D01*
X6227206Y-12723150D02*
X6246253Y-12732674D01*
X6246253Y-12732674D02*
X6255777Y-12742198D01*
X6255777Y-12742198D02*
X6265301Y-12761246D01*
X6265301Y-12761246D02*
X6265301Y-12818388D01*
X6265301Y-12818388D02*
X6255777Y-12837436D01*
X6255777Y-12837436D02*
X6246253Y-12846960D01*
X6246253Y-12846960D02*
X6227206Y-12856484D01*
X6227206Y-12856484D02*
X6198634Y-12856484D01*
X6379587Y-12856484D02*
X6360539Y-12846960D01*
X6360539Y-12846960D02*
X6351015Y-12827912D01*
X6351015Y-12827912D02*
X6351015Y-12656484D01*
X6531968Y-12846960D02*
X6512920Y-12856484D01*
X6512920Y-12856484D02*
X6474825Y-12856484D01*
X6474825Y-12856484D02*
X6455777Y-12846960D01*
X6455777Y-12846960D02*
X6446253Y-12827912D01*
X6446253Y-12827912D02*
X6446253Y-12751722D01*
X6446253Y-12751722D02*
X6455777Y-12732674D01*
X6455777Y-12732674D02*
X6474825Y-12723150D01*
X6474825Y-12723150D02*
X6512920Y-12723150D01*
X6512920Y-12723150D02*
X6531968Y-12732674D01*
X6531968Y-12732674D02*
X6541491Y-12751722D01*
X6541491Y-12751722D02*
X6541491Y-12770769D01*
X6541491Y-12770769D02*
X6446253Y-12789817D01*
X6617682Y-12846960D02*
X6636730Y-12856484D01*
X6636730Y-12856484D02*
X6674825Y-12856484D01*
X6674825Y-12856484D02*
X6693872Y-12846960D01*
X6693872Y-12846960D02*
X6703396Y-12827912D01*
X6703396Y-12827912D02*
X6703396Y-12818388D01*
X6703396Y-12818388D02*
X6693872Y-12799341D01*
X6693872Y-12799341D02*
X6674825Y-12789817D01*
X6674825Y-12789817D02*
X6646253Y-12789817D01*
X6646253Y-12789817D02*
X6627206Y-12780293D01*
X6627206Y-12780293D02*
X6617682Y-12761246D01*
X6617682Y-12761246D02*
X6617682Y-12751722D01*
X6617682Y-12751722D02*
X6627206Y-12732674D01*
X6627206Y-12732674D02*
X6646253Y-12723150D01*
X6646253Y-12723150D02*
X6674825Y-12723150D01*
X6674825Y-12723150D02*
X6693872Y-12732674D01*
X6770063Y-12932674D02*
X6779587Y-12923150D01*
X6779587Y-12923150D02*
X6798634Y-12894579D01*
X6798634Y-12894579D02*
X6808158Y-12875531D01*
X6808158Y-12875531D02*
X6817682Y-12846960D01*
X6817682Y-12846960D02*
X6827206Y-12799341D01*
X6827206Y-12799341D02*
X6827206Y-12761246D01*
X6827206Y-12761246D02*
X6817682Y-12713627D01*
X6817682Y-12713627D02*
X6808158Y-12685055D01*
X6808158Y-12685055D02*
X6798634Y-12666008D01*
X6798634Y-12666008D02*
X6779587Y-12637436D01*
X6779587Y-12637436D02*
X6770063Y-12627912D01*
X1795000Y-12935000D02*
X1995000Y-13135000D01*
X1995000Y-12935000D02*
X1795000Y-13135000D01*
X1895000Y-12935000D02*
X1895000Y-13135000D01*
X1795000Y-13035000D02*
X1995000Y-13035000D01*
X2236729Y-12926484D02*
X2360539Y-12926484D01*
X2360539Y-12926484D02*
X2293872Y-13002674D01*
X2293872Y-13002674D02*
X2322444Y-13002674D01*
X2322444Y-13002674D02*
X2341491Y-13012198D01*
X2341491Y-13012198D02*
X2351015Y-13021722D01*
X2351015Y-13021722D02*
X2360539Y-13040769D01*
X2360539Y-13040769D02*
X2360539Y-13088388D01*
X2360539Y-13088388D02*
X2351015Y-13107436D01*
X2351015Y-13107436D02*
X2341491Y-13116960D01*
X2341491Y-13116960D02*
X2322444Y-13126484D01*
X2322444Y-13126484D02*
X2265301Y-13126484D01*
X2265301Y-13126484D02*
X2246253Y-13116960D01*
X2246253Y-13116960D02*
X2236729Y-13107436D01*
X2455777Y-13116960D02*
X2455777Y-13126484D01*
X2455777Y-13126484D02*
X2446253Y-13145531D01*
X2446253Y-13145531D02*
X2436729Y-13155055D01*
X2531967Y-12945531D02*
X2541491Y-12936008D01*
X2541491Y-12936008D02*
X2560539Y-12926484D01*
X2560539Y-12926484D02*
X2608158Y-12926484D01*
X2608158Y-12926484D02*
X2627205Y-12936008D01*
X2627205Y-12936008D02*
X2636729Y-12945531D01*
X2636729Y-12945531D02*
X2646253Y-12964579D01*
X2646253Y-12964579D02*
X2646253Y-12983627D01*
X2646253Y-12983627D02*
X2636729Y-13012198D01*
X2636729Y-13012198D02*
X2522444Y-13126484D01*
X2522444Y-13126484D02*
X2646253Y-13126484D01*
X2770063Y-12926484D02*
X2789110Y-12926484D01*
X2789110Y-12926484D02*
X2808158Y-12936008D01*
X2808158Y-12936008D02*
X2817682Y-12945531D01*
X2817682Y-12945531D02*
X2827205Y-12964579D01*
X2827205Y-12964579D02*
X2836729Y-13002674D01*
X2836729Y-13002674D02*
X2836729Y-13050293D01*
X2836729Y-13050293D02*
X2827205Y-13088388D01*
X2827205Y-13088388D02*
X2817682Y-13107436D01*
X2817682Y-13107436D02*
X2808158Y-13116960D01*
X2808158Y-13116960D02*
X2789110Y-13126484D01*
X2789110Y-13126484D02*
X2770063Y-13126484D01*
X2770063Y-13126484D02*
X2751015Y-13116960D01*
X2751015Y-13116960D02*
X2741491Y-13107436D01*
X2741491Y-13107436D02*
X2731967Y-13088388D01*
X2731967Y-13088388D02*
X2722444Y-13050293D01*
X2722444Y-13050293D02*
X2722444Y-13002674D01*
X2722444Y-13002674D02*
X2731967Y-12964579D01*
X2731967Y-12964579D02*
X2741491Y-12945531D01*
X2741491Y-12945531D02*
X2751015Y-12936008D01*
X2751015Y-12936008D02*
X2770063Y-12926484D01*
X2960539Y-12926484D02*
X2979586Y-12926484D01*
X2979586Y-12926484D02*
X2998634Y-12936008D01*
X2998634Y-12936008D02*
X3008158Y-12945531D01*
X3008158Y-12945531D02*
X3017682Y-12964579D01*
X3017682Y-12964579D02*
X3027205Y-13002674D01*
X3027205Y-13002674D02*
X3027205Y-13050293D01*
X3027205Y-13050293D02*
X3017682Y-13088388D01*
X3017682Y-13088388D02*
X3008158Y-13107436D01*
X3008158Y-13107436D02*
X2998634Y-13116960D01*
X2998634Y-13116960D02*
X2979586Y-13126484D01*
X2979586Y-13126484D02*
X2960539Y-13126484D01*
X2960539Y-13126484D02*
X2941491Y-13116960D01*
X2941491Y-13116960D02*
X2931967Y-13107436D01*
X2931967Y-13107436D02*
X2922443Y-13088388D01*
X2922443Y-13088388D02*
X2912920Y-13050293D01*
X2912920Y-13050293D02*
X2912920Y-13002674D01*
X2912920Y-13002674D02*
X2922443Y-12964579D01*
X2922443Y-12964579D02*
X2931967Y-12945531D01*
X2931967Y-12945531D02*
X2941491Y-12936008D01*
X2941491Y-12936008D02*
X2960539Y-12926484D01*
X3112920Y-13126484D02*
X3112920Y-12993150D01*
X3112920Y-13012198D02*
X3122443Y-13002674D01*
X3122443Y-13002674D02*
X3141491Y-12993150D01*
X3141491Y-12993150D02*
X3170063Y-12993150D01*
X3170063Y-12993150D02*
X3189110Y-13002674D01*
X3189110Y-13002674D02*
X3198634Y-13021722D01*
X3198634Y-13021722D02*
X3198634Y-13126484D01*
X3198634Y-13021722D02*
X3208158Y-13002674D01*
X3208158Y-13002674D02*
X3227205Y-12993150D01*
X3227205Y-12993150D02*
X3255777Y-12993150D01*
X3255777Y-12993150D02*
X3274824Y-13002674D01*
X3274824Y-13002674D02*
X3284348Y-13021722D01*
X3284348Y-13021722D02*
X3284348Y-13126484D01*
X3379586Y-13126484D02*
X3379586Y-12993150D01*
X3379586Y-13012198D02*
X3389110Y-13002674D01*
X3389110Y-13002674D02*
X3408158Y-12993150D01*
X3408158Y-12993150D02*
X3436729Y-12993150D01*
X3436729Y-12993150D02*
X3455777Y-13002674D01*
X3455777Y-13002674D02*
X3465301Y-13021722D01*
X3465301Y-13021722D02*
X3465301Y-13126484D01*
X3465301Y-13021722D02*
X3474824Y-13002674D01*
X3474824Y-13002674D02*
X3493872Y-12993150D01*
X3493872Y-12993150D02*
X3522443Y-12993150D01*
X3522443Y-12993150D02*
X3541491Y-13002674D01*
X3541491Y-13002674D02*
X3551015Y-13021722D01*
X3551015Y-13021722D02*
X3551015Y-13126484D01*
X3941491Y-12916960D02*
X3770063Y-13174103D01*
X4198634Y-12926484D02*
X4217682Y-12926484D01*
X4217682Y-12926484D02*
X4236729Y-12936008D01*
X4236729Y-12936008D02*
X4246253Y-12945531D01*
X4246253Y-12945531D02*
X4255777Y-12964579D01*
X4255777Y-12964579D02*
X4265301Y-13002674D01*
X4265301Y-13002674D02*
X4265301Y-13050293D01*
X4265301Y-13050293D02*
X4255777Y-13088388D01*
X4255777Y-13088388D02*
X4246253Y-13107436D01*
X4246253Y-13107436D02*
X4236729Y-13116960D01*
X4236729Y-13116960D02*
X4217682Y-13126484D01*
X4217682Y-13126484D02*
X4198634Y-13126484D01*
X4198634Y-13126484D02*
X4179586Y-13116960D01*
X4179586Y-13116960D02*
X4170063Y-13107436D01*
X4170063Y-13107436D02*
X4160539Y-13088388D01*
X4160539Y-13088388D02*
X4151015Y-13050293D01*
X4151015Y-13050293D02*
X4151015Y-13002674D01*
X4151015Y-13002674D02*
X4160539Y-12964579D01*
X4160539Y-12964579D02*
X4170063Y-12945531D01*
X4170063Y-12945531D02*
X4179586Y-12936008D01*
X4179586Y-12936008D02*
X4198634Y-12926484D01*
X4360539Y-13116960D02*
X4360539Y-13126484D01*
X4360539Y-13126484D02*
X4351015Y-13145531D01*
X4351015Y-13145531D02*
X4341491Y-13155055D01*
X4551015Y-13126484D02*
X4436729Y-13126484D01*
X4493872Y-13126484D02*
X4493872Y-12926484D01*
X4493872Y-12926484D02*
X4474825Y-12955055D01*
X4474825Y-12955055D02*
X4455777Y-12974103D01*
X4455777Y-12974103D02*
X4436729Y-12983627D01*
X4627206Y-12945531D02*
X4636729Y-12936008D01*
X4636729Y-12936008D02*
X4655777Y-12926484D01*
X4655777Y-12926484D02*
X4703396Y-12926484D01*
X4703396Y-12926484D02*
X4722444Y-12936008D01*
X4722444Y-12936008D02*
X4731968Y-12945531D01*
X4731968Y-12945531D02*
X4741491Y-12964579D01*
X4741491Y-12964579D02*
X4741491Y-12983627D01*
X4741491Y-12983627D02*
X4731968Y-13012198D01*
X4731968Y-13012198D02*
X4617682Y-13126484D01*
X4617682Y-13126484D02*
X4741491Y-13126484D01*
X4912920Y-12926484D02*
X4874825Y-12926484D01*
X4874825Y-12926484D02*
X4855777Y-12936008D01*
X4855777Y-12936008D02*
X4846253Y-12945531D01*
X4846253Y-12945531D02*
X4827206Y-12974103D01*
X4827206Y-12974103D02*
X4817682Y-13012198D01*
X4817682Y-13012198D02*
X4817682Y-13088388D01*
X4817682Y-13088388D02*
X4827206Y-13107436D01*
X4827206Y-13107436D02*
X4836729Y-13116960D01*
X4836729Y-13116960D02*
X4855777Y-13126484D01*
X4855777Y-13126484D02*
X4893872Y-13126484D01*
X4893872Y-13126484D02*
X4912920Y-13116960D01*
X4912920Y-13116960D02*
X4922444Y-13107436D01*
X4922444Y-13107436D02*
X4931968Y-13088388D01*
X4931968Y-13088388D02*
X4931968Y-13040769D01*
X4931968Y-13040769D02*
X4922444Y-13021722D01*
X4922444Y-13021722D02*
X4912920Y-13012198D01*
X4912920Y-13012198D02*
X4893872Y-13002674D01*
X4893872Y-13002674D02*
X4855777Y-13002674D01*
X4855777Y-13002674D02*
X4836729Y-13012198D01*
X4836729Y-13012198D02*
X4827206Y-13021722D01*
X4827206Y-13021722D02*
X4817682Y-13040769D01*
X5055777Y-12926484D02*
X5074825Y-12926484D01*
X5074825Y-12926484D02*
X5093872Y-12936008D01*
X5093872Y-12936008D02*
X5103396Y-12945531D01*
X5103396Y-12945531D02*
X5112920Y-12964579D01*
X5112920Y-12964579D02*
X5122444Y-13002674D01*
X5122444Y-13002674D02*
X5122444Y-13050293D01*
X5122444Y-13050293D02*
X5112920Y-13088388D01*
X5112920Y-13088388D02*
X5103396Y-13107436D01*
X5103396Y-13107436D02*
X5093872Y-13116960D01*
X5093872Y-13116960D02*
X5074825Y-13126484D01*
X5074825Y-13126484D02*
X5055777Y-13126484D01*
X5055777Y-13126484D02*
X5036729Y-13116960D01*
X5036729Y-13116960D02*
X5027206Y-13107436D01*
X5027206Y-13107436D02*
X5017682Y-13088388D01*
X5017682Y-13088388D02*
X5008158Y-13050293D01*
X5008158Y-13050293D02*
X5008158Y-13002674D01*
X5008158Y-13002674D02*
X5017682Y-12964579D01*
X5017682Y-12964579D02*
X5027206Y-12945531D01*
X5027206Y-12945531D02*
X5036729Y-12936008D01*
X5036729Y-12936008D02*
X5055777Y-12926484D01*
X5198634Y-12926484D02*
X5198634Y-12964579D01*
X5274825Y-12926484D02*
X5274825Y-12964579D01*
X5570063Y-13202674D02*
X5560539Y-13193150D01*
X5560539Y-13193150D02*
X5541491Y-13164579D01*
X5541491Y-13164579D02*
X5531968Y-13145531D01*
X5531968Y-13145531D02*
X5522444Y-13116960D01*
X5522444Y-13116960D02*
X5512920Y-13069341D01*
X5512920Y-13069341D02*
X5512920Y-13031246D01*
X5512920Y-13031246D02*
X5522444Y-12983627D01*
X5522444Y-12983627D02*
X5531968Y-12955055D01*
X5531968Y-12955055D02*
X5541491Y-12936008D01*
X5541491Y-12936008D02*
X5560539Y-12907436D01*
X5560539Y-12907436D02*
X5570063Y-12897912D01*
X5731968Y-12993150D02*
X5731968Y-13126484D01*
X5684348Y-12916960D02*
X5636729Y-13059817D01*
X5636729Y-13059817D02*
X5760539Y-13059817D01*
X5989110Y-13126484D02*
X5989110Y-12926484D01*
X6074825Y-13126484D02*
X6074825Y-13021722D01*
X6074825Y-13021722D02*
X6065301Y-13002674D01*
X6065301Y-13002674D02*
X6046253Y-12993150D01*
X6046253Y-12993150D02*
X6017682Y-12993150D01*
X6017682Y-12993150D02*
X5998634Y-13002674D01*
X5998634Y-13002674D02*
X5989110Y-13012198D01*
X6198634Y-13126484D02*
X6179587Y-13116960D01*
X6179587Y-13116960D02*
X6170063Y-13107436D01*
X6170063Y-13107436D02*
X6160539Y-13088388D01*
X6160539Y-13088388D02*
X6160539Y-13031246D01*
X6160539Y-13031246D02*
X6170063Y-13012198D01*
X6170063Y-13012198D02*
X6179587Y-13002674D01*
X6179587Y-13002674D02*
X6198634Y-12993150D01*
X6198634Y-12993150D02*
X6227206Y-12993150D01*
X6227206Y-12993150D02*
X6246253Y-13002674D01*
X6246253Y-13002674D02*
X6255777Y-13012198D01*
X6255777Y-13012198D02*
X6265301Y-13031246D01*
X6265301Y-13031246D02*
X6265301Y-13088388D01*
X6265301Y-13088388D02*
X6255777Y-13107436D01*
X6255777Y-13107436D02*
X6246253Y-13116960D01*
X6246253Y-13116960D02*
X6227206Y-13126484D01*
X6227206Y-13126484D02*
X6198634Y-13126484D01*
X6379587Y-13126484D02*
X6360539Y-13116960D01*
X6360539Y-13116960D02*
X6351015Y-13097912D01*
X6351015Y-13097912D02*
X6351015Y-12926484D01*
X6531968Y-13116960D02*
X6512920Y-13126484D01*
X6512920Y-13126484D02*
X6474825Y-13126484D01*
X6474825Y-13126484D02*
X6455777Y-13116960D01*
X6455777Y-13116960D02*
X6446253Y-13097912D01*
X6446253Y-13097912D02*
X6446253Y-13021722D01*
X6446253Y-13021722D02*
X6455777Y-13002674D01*
X6455777Y-13002674D02*
X6474825Y-12993150D01*
X6474825Y-12993150D02*
X6512920Y-12993150D01*
X6512920Y-12993150D02*
X6531968Y-13002674D01*
X6531968Y-13002674D02*
X6541491Y-13021722D01*
X6541491Y-13021722D02*
X6541491Y-13040769D01*
X6541491Y-13040769D02*
X6446253Y-13059817D01*
X6617682Y-13116960D02*
X6636730Y-13126484D01*
X6636730Y-13126484D02*
X6674825Y-13126484D01*
X6674825Y-13126484D02*
X6693872Y-13116960D01*
X6693872Y-13116960D02*
X6703396Y-13097912D01*
X6703396Y-13097912D02*
X6703396Y-13088388D01*
X6703396Y-13088388D02*
X6693872Y-13069341D01*
X6693872Y-13069341D02*
X6674825Y-13059817D01*
X6674825Y-13059817D02*
X6646253Y-13059817D01*
X6646253Y-13059817D02*
X6627206Y-13050293D01*
X6627206Y-13050293D02*
X6617682Y-13031246D01*
X6617682Y-13031246D02*
X6617682Y-13021722D01*
X6617682Y-13021722D02*
X6627206Y-13002674D01*
X6627206Y-13002674D02*
X6646253Y-12993150D01*
X6646253Y-12993150D02*
X6674825Y-12993150D01*
X6674825Y-12993150D02*
X6693872Y-13002674D01*
X6770063Y-13202674D02*
X6779587Y-13193150D01*
X6779587Y-13193150D02*
X6798634Y-13164579D01*
X6798634Y-13164579D02*
X6808158Y-13145531D01*
X6808158Y-13145531D02*
X6817682Y-13116960D01*
X6817682Y-13116960D02*
X6827206Y-13069341D01*
X6827206Y-13069341D02*
X6827206Y-13031246D01*
X6827206Y-13031246D02*
X6817682Y-12983627D01*
X6817682Y-12983627D02*
X6808158Y-12955055D01*
X6808158Y-12955055D02*
X6798634Y-12936008D01*
X6798634Y-12936008D02*
X6779587Y-12907436D01*
X6779587Y-12907436D02*
X6770063Y-12897912D01*
X7131968Y-13202674D02*
X7122444Y-13193150D01*
X7122444Y-13193150D02*
X7103396Y-13164579D01*
X7103396Y-13164579D02*
X7093872Y-13145531D01*
X7093872Y-13145531D02*
X7084349Y-13116960D01*
X7084349Y-13116960D02*
X7074825Y-13069341D01*
X7074825Y-13069341D02*
X7074825Y-13031246D01*
X7074825Y-13031246D02*
X7084349Y-12983627D01*
X7084349Y-12983627D02*
X7093872Y-12955055D01*
X7093872Y-12955055D02*
X7103396Y-12936008D01*
X7103396Y-12936008D02*
X7122444Y-12907436D01*
X7122444Y-12907436D02*
X7131968Y-12897912D01*
X7208158Y-12993150D02*
X7208158Y-13126484D01*
X7208158Y-13012198D02*
X7217682Y-13002674D01*
X7217682Y-13002674D02*
X7236730Y-12993150D01*
X7236730Y-12993150D02*
X7265301Y-12993150D01*
X7265301Y-12993150D02*
X7284349Y-13002674D01*
X7284349Y-13002674D02*
X7293872Y-13021722D01*
X7293872Y-13021722D02*
X7293872Y-13126484D01*
X7417682Y-13126484D02*
X7398634Y-13116960D01*
X7398634Y-13116960D02*
X7389111Y-13107436D01*
X7389111Y-13107436D02*
X7379587Y-13088388D01*
X7379587Y-13088388D02*
X7379587Y-13031246D01*
X7379587Y-13031246D02*
X7389111Y-13012198D01*
X7389111Y-13012198D02*
X7398634Y-13002674D01*
X7398634Y-13002674D02*
X7417682Y-12993150D01*
X7417682Y-12993150D02*
X7446253Y-12993150D01*
X7446253Y-12993150D02*
X7465301Y-13002674D01*
X7465301Y-13002674D02*
X7474825Y-13012198D01*
X7474825Y-13012198D02*
X7484349Y-13031246D01*
X7484349Y-13031246D02*
X7484349Y-13088388D01*
X7484349Y-13088388D02*
X7474825Y-13107436D01*
X7474825Y-13107436D02*
X7465301Y-13116960D01*
X7465301Y-13116960D02*
X7446253Y-13126484D01*
X7446253Y-13126484D02*
X7417682Y-13126484D01*
X7541492Y-12993150D02*
X7617682Y-12993150D01*
X7570063Y-12926484D02*
X7570063Y-13097912D01*
X7570063Y-13097912D02*
X7579587Y-13116960D01*
X7579587Y-13116960D02*
X7598634Y-13126484D01*
X7598634Y-13126484D02*
X7617682Y-13126484D01*
X7836730Y-12993150D02*
X7836730Y-13193150D01*
X7836730Y-13002674D02*
X7855777Y-12993150D01*
X7855777Y-12993150D02*
X7893873Y-12993150D01*
X7893873Y-12993150D02*
X7912920Y-13002674D01*
X7912920Y-13002674D02*
X7922444Y-13012198D01*
X7922444Y-13012198D02*
X7931968Y-13031246D01*
X7931968Y-13031246D02*
X7931968Y-13088388D01*
X7931968Y-13088388D02*
X7922444Y-13107436D01*
X7922444Y-13107436D02*
X7912920Y-13116960D01*
X7912920Y-13116960D02*
X7893873Y-13126484D01*
X7893873Y-13126484D02*
X7855777Y-13126484D01*
X7855777Y-13126484D02*
X7836730Y-13116960D01*
X8046253Y-13126484D02*
X8027206Y-13116960D01*
X8027206Y-13116960D02*
X8017682Y-13097912D01*
X8017682Y-13097912D02*
X8017682Y-12926484D01*
X8208158Y-13126484D02*
X8208158Y-13021722D01*
X8208158Y-13021722D02*
X8198634Y-13002674D01*
X8198634Y-13002674D02*
X8179587Y-12993150D01*
X8179587Y-12993150D02*
X8141492Y-12993150D01*
X8141492Y-12993150D02*
X8122444Y-13002674D01*
X8208158Y-13116960D02*
X8189111Y-13126484D01*
X8189111Y-13126484D02*
X8141492Y-13126484D01*
X8141492Y-13126484D02*
X8122444Y-13116960D01*
X8122444Y-13116960D02*
X8112920Y-13097912D01*
X8112920Y-13097912D02*
X8112920Y-13078865D01*
X8112920Y-13078865D02*
X8122444Y-13059817D01*
X8122444Y-13059817D02*
X8141492Y-13050293D01*
X8141492Y-13050293D02*
X8189111Y-13050293D01*
X8189111Y-13050293D02*
X8208158Y-13040769D01*
X8274825Y-12993150D02*
X8351015Y-12993150D01*
X8303396Y-12926484D02*
X8303396Y-13097912D01*
X8303396Y-13097912D02*
X8312920Y-13116960D01*
X8312920Y-13116960D02*
X8331968Y-13126484D01*
X8331968Y-13126484D02*
X8351015Y-13126484D01*
X8493873Y-13116960D02*
X8474825Y-13126484D01*
X8474825Y-13126484D02*
X8436730Y-13126484D01*
X8436730Y-13126484D02*
X8417682Y-13116960D01*
X8417682Y-13116960D02*
X8408158Y-13097912D01*
X8408158Y-13097912D02*
X8408158Y-13021722D01*
X8408158Y-13021722D02*
X8417682Y-13002674D01*
X8417682Y-13002674D02*
X8436730Y-12993150D01*
X8436730Y-12993150D02*
X8474825Y-12993150D01*
X8474825Y-12993150D02*
X8493873Y-13002674D01*
X8493873Y-13002674D02*
X8503396Y-13021722D01*
X8503396Y-13021722D02*
X8503396Y-13040769D01*
X8503396Y-13040769D02*
X8408158Y-13059817D01*
X8674825Y-13126484D02*
X8674825Y-12926484D01*
X8674825Y-13116960D02*
X8655777Y-13126484D01*
X8655777Y-13126484D02*
X8617682Y-13126484D01*
X8617682Y-13126484D02*
X8598635Y-13116960D01*
X8598635Y-13116960D02*
X8589111Y-13107436D01*
X8589111Y-13107436D02*
X8579587Y-13088388D01*
X8579587Y-13088388D02*
X8579587Y-13031246D01*
X8579587Y-13031246D02*
X8589111Y-13012198D01*
X8589111Y-13012198D02*
X8598635Y-13002674D01*
X8598635Y-13002674D02*
X8617682Y-12993150D01*
X8617682Y-12993150D02*
X8655777Y-12993150D01*
X8655777Y-12993150D02*
X8674825Y-13002674D01*
X8751016Y-13202674D02*
X8760539Y-13193150D01*
X8760539Y-13193150D02*
X8779587Y-13164579D01*
X8779587Y-13164579D02*
X8789111Y-13145531D01*
X8789111Y-13145531D02*
X8798635Y-13116960D01*
X8798635Y-13116960D02*
X8808158Y-13069341D01*
X8808158Y-13069341D02*
X8808158Y-13031246D01*
X8808158Y-13031246D02*
X8798635Y-12983627D01*
X8798635Y-12983627D02*
X8789111Y-12955055D01*
X8789111Y-12955055D02*
X8779587Y-12936008D01*
X8779587Y-12936008D02*
X8760539Y-12907436D01*
X8760539Y-12907436D02*
X8751016Y-12897912D01*
M02*
