%TF.GenerationSoftware,KiCad,Pcbnew,10.0.4*%
%TF.CreationDate,2026-08-19T00:13:12-03:00*%
%TF.ProjectId,pong-retrosc-yd,706f6e67-2d72-4657-9472-6f73632d7964,rev?*%
%TF.SameCoordinates,Original*%
%TF.FileFunction,Copper,L2,Bot*%
%TF.FilePolarity,Positive*%
%FSLAX46Y46*%
G04 Gerber Fmt 4.6, Leading zero omitted, Abs format (unit mm)*
G04 Created by KiCad (PCBNEW 10.0.4) date 2026-08-19 00:13:12*
%MOMM*%
%LPD*%
G01*
G04 APERTURE LIST*
G04 Aperture macros list*
%AMRoundRect*
0 Rectangle with rounded corners*
0 $1 Rounding radius*
0 $2 $3 $4 $5 $6 $7 $8 $9 X,Y pos of 4 corners*
0 Add a 4 corners polygon primitive as box body*
4,1,4,$2,$3,$4,$5,$6,$7,$8,$9,$2,$3,0*
0 Add four circle primitives for the rounded corners*
1,1,$1+$1,$2,$3*
1,1,$1+$1,$4,$5*
1,1,$1+$1,$6,$7*
1,1,$1+$1,$8,$9*
0 Add four rect primitives between the rounded corners*
20,1,$1+$1,$2,$3,$4,$5,0*
20,1,$1+$1,$4,$5,$6,$7,0*
20,1,$1+$1,$6,$7,$8,$9,0*
20,1,$1+$1,$8,$9,$2,$3,0*%
%AMFreePoly0*
4,1,37,0.603843,0.796157,0.639018,0.796157,0.711114,0.766294,0.766294,0.711114,0.796157,0.639018,0.796157,0.603843,0.800000,0.600000,0.800000,-0.600000,0.796157,-0.603843,0.796157,-0.639018,0.766294,-0.711114,0.711114,-0.766294,0.639018,-0.796157,0.603843,-0.796157,0.600000,-0.800000,0.000000,-0.800000,0.000000,-0.796148,-0.078414,-0.796148,-0.232228,-0.765552,-0.377117,-0.705537,
-0.507515,-0.618408,-0.618408,-0.507515,-0.705537,-0.377117,-0.765552,-0.232228,-0.796148,-0.078414,-0.796148,0.078414,-0.765552,0.232228,-0.705537,0.377117,-0.618408,0.507515,-0.507515,0.618408,-0.377117,0.705537,-0.232228,0.765552,-0.078414,0.796148,0.000000,0.796148,0.000000,0.800000,0.600000,0.800000,0.603843,0.796157,0.603843,0.796157,$1*%
%AMFreePoly1*
4,1,37,0.000000,0.796148,0.078414,0.796148,0.232228,0.765552,0.377117,0.705537,0.507515,0.618408,0.618408,0.507515,0.705537,0.377117,0.765552,0.232228,0.796148,0.078414,0.796148,-0.078414,0.765552,-0.232228,0.705537,-0.377117,0.618408,-0.507515,0.507515,-0.618408,0.377117,-0.705537,0.232228,-0.765552,0.078414,-0.796148,0.000000,-0.796148,0.000000,-0.800000,-0.600000,-0.800000,
-0.603843,-0.796157,-0.639018,-0.796157,-0.711114,-0.766294,-0.766294,-0.711114,-0.796157,-0.639018,-0.796157,-0.603843,-0.800000,-0.600000,-0.800000,0.600000,-0.796157,0.603843,-0.796157,0.639018,-0.766294,0.711114,-0.711114,0.766294,-0.639018,0.796157,-0.603843,0.796157,-0.600000,0.800000,0.000000,0.800000,0.000000,0.796148,0.000000,0.796148,$1*%
G04 Aperture macros list end*
%TA.AperFunction,ComponentPad*%
%ADD10C,1.600000*%
%TD*%
%TA.AperFunction,ComponentPad*%
%ADD11R,1.700000X1.700000*%
%TD*%
%TA.AperFunction,ComponentPad*%
%ADD12C,1.700000*%
%TD*%
%TA.AperFunction,ComponentPad*%
%ADD13R,1.900000X1.900000*%
%TD*%
%TA.AperFunction,ComponentPad*%
%ADD14C,1.900000*%
%TD*%
%TA.AperFunction,ComponentPad*%
%ADD15C,2.600000*%
%TD*%
%TA.AperFunction,ComponentPad*%
%ADD16O,3.400000X2.300000*%
%TD*%
%TA.AperFunction,ComponentPad*%
%ADD17O,2.300000X3.400000*%
%TD*%
%TA.AperFunction,ComponentPad*%
%ADD18RoundRect,0.200000X-0.600000X-0.600000X0.600000X-0.600000X0.600000X0.600000X-0.600000X0.600000X0*%
%TD*%
%TA.AperFunction,ComponentPad*%
%ADD19FreePoly0,0.000000*%
%TD*%
%TA.AperFunction,ComponentPad*%
%ADD20FreePoly1,0.000000*%
%TD*%
%TA.AperFunction,ComponentPad*%
%ADD21RoundRect,0.250000X-0.550000X-0.550000X0.550000X-0.550000X0.550000X0.550000X-0.550000X0.550000X0*%
%TD*%
%TA.AperFunction,ViaPad*%
%ADD22C,0.700000*%
%TD*%
%TA.AperFunction,Conductor*%
%ADD23C,0.250000*%
%TD*%
G04 APERTURE END LIST*
D10*
%TO.P,R1,1*%
%TO.N,SYNC*%
X46000000Y-42000000D03*
%TO.P,R1,2*%
%TO.N,COMPOSITE*%
X48540000Y-42000000D03*
%TD*%
D11*
%TO.P,J7,1*%
%TO.N,START*%
X66000000Y-80000000D03*
D12*
%TO.P,J7,2*%
%TO.N,GND*%
X68540000Y-80000000D03*
%TD*%
D11*
%TO.P,J4,1*%
%TO.N,RCA_C*%
X22000000Y-80000000D03*
D12*
%TO.P,J4,2*%
%TO.N,RCA_S*%
X24540000Y-80000000D03*
%TO.P,J4,3*%
%TO.N,LINHA*%
X27080000Y-80000000D03*
%TO.P,J4,4*%
%TO.N,GND*%
X29620000Y-80000000D03*
%TO.P,J4,5*%
%TO.N,LOUT_P*%
X32160000Y-80000000D03*
%TO.P,J4,6*%
%TO.N,LOUT_N*%
X34700000Y-80000000D03*
%TD*%
D11*
%TO.P,J6,1*%
%TO.N,+3V3*%
X48660000Y-80000000D03*
D12*
%TO.P,J6,2*%
%TO.N,POT2*%
X51200000Y-80000000D03*
%TO.P,J6,3*%
%TO.N,AGND*%
X53740000Y-80000000D03*
%TD*%
D13*
%TO.P,U2,1*%
%TO.N,N/C*%
X67000000Y-42000000D03*
D14*
%TO.P,U2,2*%
X69540000Y-42000000D03*
%TO.P,U2,3*%
%TO.N,LOUT_P*%
X72080000Y-42000000D03*
%TO.P,U2,4*%
%TO.N,LOUT_N*%
X74620000Y-42000000D03*
%TO.P,U2,5*%
%TO.N,GND*%
X79700000Y-42000000D03*
%TO.P,U2,6*%
%TO.N,+5V*%
X82240000Y-42000000D03*
%TO.P,U2,7*%
%TO.N,AMP_L*%
X87320000Y-42000000D03*
%TO.P,U2,8*%
%TO.N,GND*%
X89860000Y-42000000D03*
%TO.P,U2,9*%
%TO.N,AMP_R*%
X92400000Y-42000000D03*
%TD*%
D15*
%TO.P,J1,1*%
%TO.N,COMPOSITE*%
X92500000Y-53000000D03*
D16*
%TO.P,J1,2*%
%TO.N,GND*%
X92500000Y-48000000D03*
D17*
X97500000Y-53000000D03*
D16*
X92500000Y-58000000D03*
%TD*%
D11*
%TO.P,J5,1*%
%TO.N,+3V3*%
X38500000Y-80000000D03*
D12*
%TO.P,J5,2*%
%TO.N,POT1*%
X41040000Y-80000000D03*
%TO.P,J5,3*%
%TO.N,AGND*%
X43580000Y-80000000D03*
%TD*%
D10*
%TO.P,R6,1*%
%TO.N,AUD_C*%
X56000000Y-50000000D03*
%TO.P,R6,2*%
%TO.N,AMP_L*%
X58540000Y-50000000D03*
%TD*%
D18*
%TO.P,U1,1*%
%TO.N,N/C*%
X23100000Y-22000000D03*
D10*
%TO.P,U1,2*%
X23100000Y-24540000D03*
D19*
%TO.P,U1,3*%
X23100000Y-27080000D03*
D10*
%TO.P,U1,4*%
X23100000Y-29620000D03*
%TO.P,U1,5*%
X23100000Y-32160000D03*
%TO.P,U1,6*%
%TO.N,GND*%
X23100000Y-34700000D03*
%TO.P,U1,7*%
%TO.N,N/C*%
X23100000Y-37240000D03*
D19*
%TO.P,U1,8*%
X23100000Y-39780000D03*
D10*
%TO.P,U1,9*%
X23100000Y-42320000D03*
%TO.P,U1,10*%
X23100000Y-44860000D03*
%TO.P,U1,11*%
X23100000Y-47400000D03*
%TO.P,U1,12*%
X23100000Y-49940000D03*
D19*
%TO.P,U1,13*%
X23100000Y-52480000D03*
D10*
%TO.P,U1,14*%
X23100000Y-55020000D03*
%TO.P,U1,15*%
%TO.N,GND*%
X23100000Y-57560000D03*
%TO.P,U1,16*%
%TO.N,N/C*%
X23100000Y-60100000D03*
%TO.P,U1,17*%
X23100000Y-62640000D03*
D19*
%TO.P,U1,18*%
X23100000Y-65180000D03*
D10*
%TO.P,U1,19*%
%TO.N,SYNC*%
X23100000Y-67720000D03*
%TO.P,U1,20*%
%TO.N,VIDEO*%
X23100000Y-70260000D03*
%TO.P,U1,21*%
%TO.N,AUDIO_PWM*%
X40880000Y-70260000D03*
%TO.P,U1,22*%
%TO.N,N/C*%
X40880000Y-67720000D03*
D20*
%TO.P,U1,23*%
X40880000Y-65180000D03*
D10*
%TO.P,U1,24*%
X40880000Y-62640000D03*
%TO.P,U1,25*%
%TO.N,START*%
X40880000Y-60100000D03*
%TO.P,U1,26*%
%TO.N,N/C*%
X40880000Y-57560000D03*
%TO.P,U1,27*%
X40880000Y-55020000D03*
D20*
%TO.P,U1,28*%
X40880000Y-52480000D03*
D10*
%TO.P,U1,29*%
%TO.N,AGND*%
X40880000Y-49940000D03*
%TO.P,U1,30*%
%TO.N,POT1*%
X40880000Y-47400000D03*
%TO.P,U1,31*%
%TO.N,POT2*%
X40880000Y-44860000D03*
%TO.P,U1,32*%
%TO.N,N/C*%
X40880000Y-42320000D03*
D20*
%TO.P,U1,33*%
X40880000Y-39780000D03*
D10*
%TO.P,U1,34*%
X40880000Y-37240000D03*
%TO.P,U1,35*%
%TO.N,GND*%
X40880000Y-34700000D03*
%TO.P,U1,36*%
%TO.N,+3V3*%
X40880000Y-32160000D03*
%TO.P,U1,37*%
%TO.N,N/C*%
X40880000Y-29620000D03*
D20*
%TO.P,U1,38*%
%TO.N,GND*%
X40880000Y-27080000D03*
D10*
%TO.P,U1,39*%
%TO.N,N/C*%
X40880000Y-24540000D03*
%TO.P,U1,40*%
%TO.N,+5V*%
X40880000Y-22000000D03*
%TD*%
D15*
%TO.P,J8,1*%
%TO.N,RCA_C*%
X92500000Y-66000000D03*
D16*
%TO.P,J8,2*%
%TO.N,RCA_S*%
X92500000Y-61000000D03*
D17*
X97500000Y-66000000D03*
D16*
X92500000Y-71000000D03*
%TD*%
D10*
%TO.P,R5,1*%
%TO.N,LINHA*%
X56000000Y-44000000D03*
%TO.P,R5,2*%
%TO.N,GND*%
X58540000Y-44000000D03*
%TD*%
%TO.P,R2,1*%
%TO.N,VIDEO*%
X46000000Y-48000000D03*
%TO.P,R2,2*%
%TO.N,COMPOSITE*%
X48540000Y-48000000D03*
%TD*%
%TO.P,C1,1*%
%TO.N,AUD_F*%
X46000000Y-60000000D03*
%TO.P,C1,2*%
%TO.N,GND*%
X51000000Y-60000000D03*
%TD*%
%TO.P,C4,1*%
%TO.N,POT2*%
X46000000Y-36000000D03*
%TO.P,C4,2*%
%TO.N,AGND*%
X51000000Y-36000000D03*
%TD*%
D21*
%TO.P,C2,1*%
%TO.N,AUD_F*%
X56000000Y-31000000D03*
D10*
%TO.P,C2,2*%
%TO.N,AUD_C*%
X58500000Y-31000000D03*
%TD*%
%TO.P,R4,1*%
%TO.N,AUD_C*%
X56000000Y-38000000D03*
%TO.P,R4,2*%
%TO.N,LINHA*%
X58540000Y-38000000D03*
%TD*%
%TO.P,R3,1*%
%TO.N,AUDIO_PWM*%
X46000000Y-54000000D03*
%TO.P,R3,2*%
%TO.N,AUD_F*%
X48540000Y-54000000D03*
%TD*%
%TO.P,R7,1*%
%TO.N,AUD_C*%
X56000000Y-56000000D03*
%TO.P,R7,2*%
%TO.N,AMP_R*%
X58540000Y-56000000D03*
%TD*%
%TO.P,C3,1*%
%TO.N,POT1*%
X46000000Y-30000000D03*
%TO.P,C3,2*%
%TO.N,AGND*%
X51000000Y-30000000D03*
%TD*%
D15*
%TO.P,J9,1*%
%TO.N,RCA_C*%
X92500000Y-79000000D03*
D16*
%TO.P,J9,2*%
%TO.N,RCA_S*%
X92500000Y-74000000D03*
D17*
X97500000Y-79000000D03*
D16*
X92500000Y-84000000D03*
%TD*%
D22*
%TO.N,LINHA*%
X47602700Y-72898900D03*
%TD*%
%TO.N,COMPOSITE*%
D23*
X48540000Y-48000000D02*
X48540000Y-42000000D01*
%TO.N,RCA_C*%
X90473200Y-76973200D02*
X90473200Y-68026800D01*
X92500000Y-79000000D02*
X90473200Y-76973200D01*
X90473200Y-68026800D02*
X92500000Y-66000000D01*
%TO.N,RCA_S*%
X94567000Y-64493700D02*
X92500000Y-62426700D01*
X92500000Y-74000000D02*
X92500000Y-71000000D01*
X94567000Y-67506300D02*
X94567000Y-66000000D01*
X94567000Y-79000000D02*
X94567000Y-77493700D01*
X94567000Y-66000000D02*
X96073300Y-66000000D01*
X92500000Y-71000000D02*
X92500000Y-69573300D01*
X94567000Y-66000000D02*
X94567000Y-64493700D01*
X94567000Y-79000000D02*
X96073300Y-79000000D01*
X94567000Y-80506300D02*
X94567000Y-79000000D01*
X97500000Y-66000000D02*
X96073300Y-66000000D01*
X92500000Y-69573300D02*
X94567000Y-67506300D01*
X92500000Y-74000000D02*
X92500000Y-75426700D01*
X97500000Y-79000000D02*
X96073300Y-79000000D01*
X92500000Y-82573300D02*
X94567000Y-80506300D01*
X92500000Y-84000000D02*
X92500000Y-82573300D01*
X92500000Y-61000000D02*
X92500000Y-62426700D01*
X94567000Y-77493700D02*
X92500000Y-75426700D01*
%TO.N,LINHA*%
X56000000Y-44000000D02*
X53764900Y-46235100D01*
X53764900Y-46235100D02*
X53764900Y-53652000D01*
X47602700Y-59814200D02*
X47602700Y-72898900D01*
X53764900Y-53652000D02*
X47602700Y-59814200D01*
X56000000Y-40540000D02*
X56000000Y-44000000D01*
X58540000Y-38000000D02*
X56000000Y-40540000D01*
%TO.N,LOUT_P*%
X37535400Y-81126700D02*
X35263900Y-78855200D01*
X72080000Y-63275400D02*
X54228700Y-81126700D01*
X72080000Y-42000000D02*
X72080000Y-63275400D01*
X54228700Y-81126700D02*
X37535400Y-81126700D01*
X35263900Y-78855200D02*
X33304800Y-78855200D01*
X33304800Y-78855200D02*
X32160000Y-80000000D01*
%TO.N,LOUT_N*%
X36228400Y-81528400D02*
X54395100Y-81528400D01*
X34700000Y-80000000D02*
X36228400Y-81528400D01*
X54395100Y-81528400D02*
X74620000Y-61303500D01*
X74620000Y-61303500D02*
X74620000Y-42000000D01*
%TO.N,+3V3*%
X38974000Y-56636100D02*
X39375700Y-57037800D01*
X40880000Y-32160000D02*
X38974000Y-34066000D01*
X38974000Y-34066000D02*
X38974000Y-56636100D01*
X39375700Y-77997600D02*
X38500000Y-78873300D01*
X39375700Y-57037800D02*
X39375700Y-77997600D01*
X38500000Y-80000000D02*
X38500000Y-78873300D01*
%TO.N,POT2*%
X43490000Y-72290000D02*
X51200000Y-80000000D01*
X40880000Y-44860000D02*
X39779200Y-45960800D01*
X41140000Y-56290000D02*
X43490000Y-58640000D01*
X40567200Y-56290000D02*
X41140000Y-56290000D01*
X39779200Y-45960800D02*
X39779200Y-55502000D01*
X43490000Y-58640000D02*
X43490000Y-72290000D01*
X39779200Y-55502000D02*
X40567200Y-56290000D01*
%TO.N,AGND*%
X44407500Y-49940000D02*
X40880000Y-49940000D01*
X44407500Y-70667500D02*
X53740000Y-80000000D01*
X47270000Y-43550000D02*
X44407500Y-46412500D01*
X47270000Y-39730000D02*
X47270000Y-43550000D01*
X44407500Y-49940000D02*
X44407500Y-70667500D01*
X44407500Y-46412500D02*
X44407500Y-49940000D01*
X51000000Y-30000000D02*
X51000000Y-36000000D01*
X51000000Y-36000000D02*
X47270000Y-39730000D01*
%TO.N,POT1*%
X41978600Y-34021400D02*
X41978600Y-43738400D01*
X39790300Y-78750300D02*
X41040000Y-80000000D01*
X39375700Y-44777500D02*
X39375700Y-56269500D01*
X46000000Y-30000000D02*
X41978600Y-34021400D01*
X41978600Y-43738400D02*
X40414800Y-43738400D01*
X41978600Y-43738400D02*
X41978600Y-46301400D01*
X40414800Y-43738400D02*
X39375700Y-44777500D01*
X39790300Y-56684100D02*
X39790300Y-78750300D01*
X39375700Y-56269500D02*
X39790300Y-56684100D01*
X41978600Y-46301400D02*
X40880000Y-47400000D01*
%TO.N,AUD_C*%
X57411600Y-44349900D02*
X56000000Y-45761500D01*
X57411600Y-42725600D02*
X57411600Y-44349900D01*
X56000000Y-45761500D02*
X56000000Y-50000000D01*
X59620900Y-37473000D02*
X59620900Y-40516300D01*
X58074000Y-35926000D02*
X59620900Y-37473000D01*
X58500000Y-31000000D02*
X58500000Y-35500000D01*
X58500000Y-35500000D02*
X58074000Y-35926000D01*
X58074000Y-35926000D02*
X56000000Y-38000000D01*
X59620900Y-40516300D02*
X57411600Y-42725600D01*
%TO.N,AUD_F*%
X46000000Y-60000000D02*
X48540000Y-57460000D01*
X48540000Y-57460000D02*
X48540000Y-54000000D01*
X52985400Y-49554600D02*
X48540000Y-54000000D01*
X52985400Y-34014600D02*
X52985400Y-49554600D01*
X56000000Y-31000000D02*
X52985400Y-34014600D01*
%TD*%
%TA.AperFunction,Conductor*%
%TO.N,GND*%
G36*
X99442539Y-20520185D02*
G01*
X99488294Y-20572989D01*
X99499500Y-20624500D01*
X99499500Y-85375500D01*
X99479815Y-85442539D01*
X99427011Y-85488294D01*
X99375500Y-85499500D01*
X93588226Y-85499500D01*
X93521187Y-85479815D01*
X93475432Y-85427011D01*
X93465488Y-85357853D01*
X93494513Y-85294297D01*
X93549906Y-85257569D01*
X93568412Y-85251557D01*
X93757816Y-85155051D01*
X93779789Y-85139086D01*
X93929786Y-85030109D01*
X93929788Y-85030106D01*
X93929792Y-85030104D01*
X94080104Y-84879792D01*
X94080106Y-84879788D01*
X94080109Y-84879786D01*
X94205048Y-84707820D01*
X94205047Y-84707820D01*
X94205051Y-84707816D01*
X94301557Y-84518412D01*
X94367246Y-84316243D01*
X94400500Y-84106287D01*
X94400500Y-83893713D01*
X94367246Y-83683757D01*
X94301557Y-83481588D01*
X94205051Y-83292184D01*
X94205049Y-83292181D01*
X94205048Y-83292179D01*
X94080109Y-83120213D01*
X93929786Y-82969890D01*
X93757820Y-82844951D01*
X93568414Y-82748444D01*
X93568413Y-82748443D01*
X93568412Y-82748443D01*
X93366243Y-82682754D01*
X93366241Y-82682753D01*
X93366239Y-82682753D01*
X93161705Y-82650358D01*
X93098570Y-82620429D01*
X93061639Y-82561117D01*
X93062637Y-82491255D01*
X93093420Y-82440206D01*
X94827465Y-80706162D01*
X94845464Y-80674987D01*
X94862156Y-80646076D01*
X94870317Y-80631939D01*
X94870318Y-80631938D01*
X94892500Y-80549153D01*
X94892500Y-79449500D01*
X94912185Y-79382461D01*
X94964989Y-79336706D01*
X95016500Y-79325500D01*
X96025500Y-79325500D01*
X96092539Y-79345185D01*
X96138294Y-79397989D01*
X96149500Y-79449500D01*
X96149500Y-79656286D01*
X96178997Y-79842526D01*
X96182754Y-79866243D01*
X96226214Y-80000000D01*
X96248444Y-80068414D01*
X96344951Y-80257820D01*
X96469890Y-80429786D01*
X96620213Y-80580109D01*
X96792179Y-80705048D01*
X96792181Y-80705049D01*
X96792184Y-80705051D01*
X96981588Y-80801557D01*
X97183757Y-80867246D01*
X97393713Y-80900500D01*
X97393714Y-80900500D01*
X97606286Y-80900500D01*
X97606287Y-80900500D01*
X97816243Y-80867246D01*
X98018412Y-80801557D01*
X98207816Y-80705051D01*
X98308447Y-80631939D01*
X98379786Y-80580109D01*
X98379788Y-80580106D01*
X98379792Y-80580104D01*
X98530104Y-80429792D01*
X98530106Y-80429788D01*
X98530109Y-80429786D01*
X98639086Y-80279789D01*
X98655051Y-80257816D01*
X98751557Y-80068412D01*
X98817246Y-79866243D01*
X98850500Y-79656287D01*
X98850500Y-78343713D01*
X98817246Y-78133757D01*
X98751557Y-77931588D01*
X98655051Y-77742184D01*
X98655049Y-77742181D01*
X98655048Y-77742179D01*
X98530109Y-77570213D01*
X98379786Y-77419890D01*
X98207820Y-77294951D01*
X98018414Y-77198444D01*
X98018413Y-77198443D01*
X98018412Y-77198443D01*
X97816243Y-77132754D01*
X97816241Y-77132753D01*
X97816240Y-77132753D01*
X97654957Y-77107208D01*
X97606287Y-77099500D01*
X97393713Y-77099500D01*
X97345042Y-77107208D01*
X97183760Y-77132753D01*
X96981585Y-77198444D01*
X96792179Y-77294951D01*
X96620213Y-77419890D01*
X96469890Y-77570213D01*
X96344951Y-77742179D01*
X96248444Y-77931585D01*
X96182753Y-78133760D01*
X96149500Y-78343713D01*
X96149500Y-78550500D01*
X96129815Y-78617539D01*
X96077011Y-78663294D01*
X96025500Y-78674500D01*
X95016500Y-78674500D01*
X94949461Y-78654815D01*
X94903706Y-78602011D01*
X94892500Y-78550500D01*
X94892500Y-77450849D01*
X94892500Y-77450847D01*
X94870318Y-77368062D01*
X94828108Y-77294951D01*
X94827469Y-77293844D01*
X94827463Y-77293836D01*
X93093422Y-75559795D01*
X93059937Y-75498472D01*
X93064921Y-75428780D01*
X93106793Y-75372847D01*
X93161703Y-75349642D01*
X93319812Y-75324599D01*
X93366238Y-75317247D01*
X93366238Y-75317246D01*
X93366243Y-75317246D01*
X93568412Y-75251557D01*
X93757816Y-75155051D01*
X93779789Y-75139086D01*
X93929786Y-75030109D01*
X93929788Y-75030106D01*
X93929792Y-75030104D01*
X94080104Y-74879792D01*
X94080106Y-74879788D01*
X94080109Y-74879786D01*
X94205048Y-74707820D01*
X94205047Y-74707820D01*
X94205051Y-74707816D01*
X94301557Y-74518412D01*
X94367246Y-74316243D01*
X94400500Y-74106287D01*
X94400500Y-73893713D01*
X94367246Y-73683757D01*
X94301557Y-73481588D01*
X94205051Y-73292184D01*
X94205049Y-73292181D01*
X94205048Y-73292179D01*
X94080109Y-73120213D01*
X93929786Y-72969890D01*
X93757820Y-72844951D01*
X93568414Y-72748444D01*
X93568413Y-72748443D01*
X93568412Y-72748443D01*
X93366243Y-72682754D01*
X93366241Y-72682753D01*
X93366240Y-72682753D01*
X93204957Y-72657208D01*
X93156287Y-72649500D01*
X93156286Y-72649500D01*
X92949500Y-72649500D01*
X92940814Y-72646949D01*
X92931853Y-72648238D01*
X92907812Y-72637259D01*
X92882461Y-72629815D01*
X92876533Y-72622974D01*
X92868297Y-72619213D01*
X92854007Y-72596978D01*
X92836706Y-72577011D01*
X92834418Y-72566496D01*
X92830523Y-72560435D01*
X92825500Y-72525500D01*
X92825500Y-72474500D01*
X92845185Y-72407461D01*
X92897989Y-72361706D01*
X92949500Y-72350500D01*
X93156286Y-72350500D01*
X93156287Y-72350500D01*
X93366243Y-72317246D01*
X93568412Y-72251557D01*
X93757816Y-72155051D01*
X93792296Y-72130000D01*
X93929786Y-72030109D01*
X93929788Y-72030106D01*
X93929792Y-72030104D01*
X94080104Y-71879792D01*
X94080106Y-71879788D01*
X94080109Y-71879786D01*
X94205048Y-71707820D01*
X94205047Y-71707820D01*
X94205051Y-71707816D01*
X94301557Y-71518412D01*
X94367246Y-71316243D01*
X94400500Y-71106287D01*
X94400500Y-70893713D01*
X94367246Y-70683757D01*
X94301557Y-70481588D01*
X94205051Y-70292184D01*
X94205049Y-70292181D01*
X94205048Y-70292179D01*
X94080109Y-70120213D01*
X93929786Y-69969890D01*
X93757820Y-69844951D01*
X93568414Y-69748444D01*
X93568413Y-69748443D01*
X93568412Y-69748443D01*
X93366243Y-69682754D01*
X93366241Y-69682753D01*
X93366239Y-69682753D01*
X93161705Y-69650358D01*
X93098570Y-69620429D01*
X93061639Y-69561117D01*
X93062637Y-69491255D01*
X93093420Y-69440206D01*
X94827465Y-67706162D01*
X94870317Y-67631939D01*
X94870318Y-67631938D01*
X94870679Y-67630593D01*
X94884205Y-67580109D01*
X94892500Y-67549153D01*
X94892500Y-66449500D01*
X94912185Y-66382461D01*
X94964989Y-66336706D01*
X95016500Y-66325500D01*
X96025500Y-66325500D01*
X96092539Y-66345185D01*
X96138294Y-66397989D01*
X96149500Y-66449500D01*
X96149500Y-66656286D01*
X96182367Y-66863805D01*
X96182754Y-66866243D01*
X96218907Y-66977511D01*
X96248444Y-67068414D01*
X96344951Y-67257820D01*
X96469890Y-67429786D01*
X96620213Y-67580109D01*
X96792179Y-67705048D01*
X96792181Y-67705049D01*
X96792184Y-67705051D01*
X96981588Y-67801557D01*
X97183757Y-67867246D01*
X97393713Y-67900500D01*
X97393714Y-67900500D01*
X97606286Y-67900500D01*
X97606287Y-67900500D01*
X97816243Y-67867246D01*
X98018412Y-67801557D01*
X98207816Y-67705051D01*
X98229789Y-67689086D01*
X98379786Y-67580109D01*
X98379788Y-67580106D01*
X98379792Y-67580104D01*
X98530104Y-67429792D01*
X98530106Y-67429788D01*
X98530109Y-67429786D01*
X98655048Y-67257820D01*
X98655047Y-67257820D01*
X98655051Y-67257816D01*
X98751557Y-67068412D01*
X98817246Y-66866243D01*
X98850500Y-66656287D01*
X98850500Y-65343713D01*
X98817246Y-65133757D01*
X98751557Y-64931588D01*
X98655051Y-64742184D01*
X98655049Y-64742181D01*
X98655048Y-64742179D01*
X98530109Y-64570213D01*
X98379786Y-64419890D01*
X98207820Y-64294951D01*
X98018414Y-64198444D01*
X98018413Y-64198443D01*
X98018412Y-64198443D01*
X97816243Y-64132754D01*
X97816241Y-64132753D01*
X97816240Y-64132753D01*
X97654957Y-64107208D01*
X97606287Y-64099500D01*
X97393713Y-64099500D01*
X97345042Y-64107208D01*
X97183760Y-64132753D01*
X97183757Y-64132754D01*
X97007127Y-64190145D01*
X96981585Y-64198444D01*
X96792179Y-64294951D01*
X96620213Y-64419890D01*
X96469890Y-64570213D01*
X96344951Y-64742179D01*
X96248444Y-64931585D01*
X96182753Y-65133760D01*
X96149500Y-65343713D01*
X96149500Y-65550500D01*
X96129815Y-65617539D01*
X96077011Y-65663294D01*
X96025500Y-65674500D01*
X95016500Y-65674500D01*
X94949461Y-65654815D01*
X94903706Y-65602011D01*
X94892500Y-65550500D01*
X94892500Y-64450849D01*
X94892500Y-64450847D01*
X94870318Y-64368062D01*
X94870314Y-64368055D01*
X94827469Y-64293844D01*
X94827463Y-64293836D01*
X93093422Y-62559795D01*
X93059937Y-62498472D01*
X93064921Y-62428780D01*
X93106793Y-62372847D01*
X93161703Y-62349642D01*
X93319812Y-62324599D01*
X93366238Y-62317247D01*
X93366238Y-62317246D01*
X93366243Y-62317246D01*
X93568412Y-62251557D01*
X93757816Y-62155051D01*
X93779789Y-62139086D01*
X93929786Y-62030109D01*
X93929788Y-62030106D01*
X93929792Y-62030104D01*
X94080104Y-61879792D01*
X94080106Y-61879788D01*
X94080109Y-61879786D01*
X94205048Y-61707820D01*
X94205047Y-61707820D01*
X94205051Y-61707816D01*
X94301557Y-61518412D01*
X94367246Y-61316243D01*
X94400500Y-61106287D01*
X94400500Y-60893713D01*
X94367246Y-60683757D01*
X94301557Y-60481588D01*
X94205051Y-60292184D01*
X94205049Y-60292181D01*
X94205048Y-60292179D01*
X94080109Y-60120213D01*
X93929786Y-59969890D01*
X93757820Y-59844951D01*
X93568414Y-59748444D01*
X93568413Y-59748443D01*
X93568412Y-59748443D01*
X93366243Y-59682754D01*
X93366241Y-59682753D01*
X93366239Y-59682753D01*
X93303669Y-59672843D01*
X93240534Y-59642914D01*
X93203603Y-59583602D01*
X93204601Y-59513740D01*
X93243211Y-59455507D01*
X93303669Y-59427897D01*
X93389544Y-59414295D01*
X93606604Y-59343769D01*
X93809966Y-59240150D01*
X93994614Y-59105995D01*
X94155995Y-58944614D01*
X94290150Y-58759966D01*
X94393769Y-58556604D01*
X94464295Y-58339544D01*
X94486397Y-58200000D01*
X93670712Y-58200000D01*
X93675021Y-58189598D01*
X93700000Y-58064019D01*
X93700000Y-57935981D01*
X93675021Y-57810402D01*
X93670712Y-57800000D01*
X94486397Y-57800000D01*
X94464295Y-57660455D01*
X94393769Y-57443395D01*
X94290150Y-57240033D01*
X94155995Y-57055385D01*
X93994614Y-56894004D01*
X93809966Y-56759849D01*
X93606604Y-56656230D01*
X93389544Y-56585704D01*
X93164116Y-56550000D01*
X92700000Y-56550000D01*
X92700000Y-57350000D01*
X92300000Y-57350000D01*
X92300000Y-56550000D01*
X91835884Y-56550000D01*
X91610455Y-56585704D01*
X91393395Y-56656230D01*
X91190033Y-56759849D01*
X91005385Y-56894004D01*
X90844004Y-57055385D01*
X90709849Y-57240033D01*
X90606230Y-57443395D01*
X90535704Y-57660455D01*
X90513603Y-57800000D01*
X91329288Y-57800000D01*
X91324979Y-57810402D01*
X91300000Y-57935981D01*
X91300000Y-58064019D01*
X91324979Y-58189598D01*
X91329288Y-58200000D01*
X90513603Y-58200000D01*
X90535704Y-58339544D01*
X90606230Y-58556604D01*
X90709849Y-58759966D01*
X90844004Y-58944614D01*
X91005385Y-59105995D01*
X91190033Y-59240150D01*
X91393395Y-59343769D01*
X91610455Y-59414295D01*
X91696330Y-59427897D01*
X91759465Y-59457826D01*
X91796396Y-59517138D01*
X91795398Y-59587000D01*
X91756788Y-59645233D01*
X91696330Y-59672843D01*
X91633760Y-59682753D01*
X91431585Y-59748444D01*
X91242179Y-59844951D01*
X91070213Y-59969890D01*
X90919890Y-60120213D01*
X90794951Y-60292179D01*
X90698444Y-60481585D01*
X90632753Y-60683760D01*
X90602126Y-60877136D01*
X90599500Y-60893713D01*
X90599500Y-61106287D01*
X90632754Y-61316243D01*
X90669436Y-61429139D01*
X90698444Y-61518414D01*
X90794951Y-61707820D01*
X90919890Y-61879786D01*
X91070213Y-62030109D01*
X91242179Y-62155048D01*
X91242181Y-62155049D01*
X91242184Y-62155051D01*
X91431588Y-62251557D01*
X91633757Y-62317246D01*
X91843713Y-62350500D01*
X92050500Y-62350500D01*
X92117539Y-62370185D01*
X92163294Y-62422989D01*
X92171719Y-62461719D01*
X92173439Y-62461493D01*
X92174500Y-62469552D01*
X92196682Y-62552340D01*
X92218108Y-62589450D01*
X92239535Y-62626562D01*
X92239537Y-62626564D01*
X94205181Y-64592208D01*
X94238666Y-64653531D01*
X94241500Y-64679889D01*
X94241500Y-65827949D01*
X94221815Y-65894988D01*
X94169011Y-65940743D01*
X94099853Y-65950687D01*
X94036297Y-65921662D01*
X93998523Y-65862884D01*
X93995027Y-65847347D01*
X93963553Y-65648631D01*
X93912658Y-65491993D01*
X93890568Y-65424008D01*
X93890566Y-65424005D01*
X93890566Y-65424003D01*
X93783342Y-65213566D01*
X93644517Y-65022490D01*
X93477510Y-64855483D01*
X93286433Y-64716657D01*
X93228016Y-64686892D01*
X93075996Y-64609433D01*
X92851368Y-64536446D01*
X92618097Y-64499500D01*
X92618092Y-64499500D01*
X92381908Y-64499500D01*
X92381903Y-64499500D01*
X92148631Y-64536446D01*
X91924003Y-64609433D01*
X91713566Y-64716657D01*
X91678432Y-64742184D01*
X91522490Y-64855483D01*
X91522488Y-64855485D01*
X91522487Y-64855485D01*
X91355485Y-65022487D01*
X91355485Y-65022488D01*
X91355483Y-65022490D01*
X91327420Y-65061115D01*
X91216657Y-65213566D01*
X91109433Y-65424003D01*
X91036446Y-65648631D01*
X90999500Y-65881902D01*
X90999500Y-66118097D01*
X91036446Y-66351368D01*
X91109433Y-66575996D01*
X91188104Y-66730395D01*
X91201000Y-66799064D01*
X91174724Y-66863805D01*
X91165300Y-66874371D01*
X90212737Y-67826935D01*
X90212733Y-67826941D01*
X90169881Y-67901161D01*
X90169882Y-67901162D01*
X90147700Y-67983947D01*
X90147700Y-77016052D01*
X90169882Y-77098840D01*
X90189462Y-77132753D01*
X90212735Y-77173062D01*
X90212737Y-77173064D01*
X91165301Y-78125628D01*
X91198786Y-78186951D01*
X91193802Y-78256643D01*
X91188105Y-78269604D01*
X91109433Y-78424003D01*
X91036446Y-78648631D01*
X90999500Y-78881902D01*
X90999500Y-79118097D01*
X91036446Y-79351368D01*
X91109433Y-79575996D01*
X91212709Y-79778685D01*
X91216657Y-79786433D01*
X91355483Y-79977510D01*
X91522490Y-80144517D01*
X91713567Y-80283343D01*
X91812991Y-80334002D01*
X91924003Y-80390566D01*
X91924005Y-80390566D01*
X91924008Y-80390568D01*
X91959100Y-80401970D01*
X92148631Y-80463553D01*
X92381903Y-80500500D01*
X92381908Y-80500500D01*
X92618097Y-80500500D01*
X92851368Y-80463553D01*
X92868261Y-80458064D01*
X93075992Y-80390568D01*
X93286433Y-80283343D01*
X93477510Y-80144517D01*
X93644517Y-79977510D01*
X93783343Y-79786433D01*
X93890568Y-79575992D01*
X93963553Y-79351368D01*
X93967650Y-79325500D01*
X93995027Y-79152652D01*
X94024956Y-79089517D01*
X94084268Y-79052586D01*
X94154130Y-79053584D01*
X94212363Y-79092194D01*
X94240477Y-79156158D01*
X94241500Y-79172050D01*
X94241500Y-80320111D01*
X94221815Y-80387150D01*
X94205181Y-80407792D01*
X92239537Y-82373435D01*
X92239533Y-82373441D01*
X92196681Y-82447661D01*
X92196682Y-82447662D01*
X92174500Y-82530447D01*
X92173439Y-82538507D01*
X92170783Y-82538157D01*
X92154815Y-82592539D01*
X92102011Y-82638294D01*
X92050500Y-82649500D01*
X91843713Y-82649500D01*
X91795042Y-82657208D01*
X91633760Y-82682753D01*
X91431585Y-82748444D01*
X91242179Y-82844951D01*
X91070213Y-82969890D01*
X90919890Y-83120213D01*
X90794951Y-83292179D01*
X90698444Y-83481585D01*
X90632753Y-83683760D01*
X90599500Y-83893713D01*
X90599500Y-84106286D01*
X90632753Y-84316239D01*
X90698444Y-84518414D01*
X90794951Y-84707820D01*
X90919890Y-84879786D01*
X91070213Y-85030109D01*
X91242179Y-85155048D01*
X91242181Y-85155049D01*
X91242184Y-85155051D01*
X91431588Y-85251557D01*
X91450092Y-85257569D01*
X91507768Y-85297006D01*
X91534966Y-85361365D01*
X91523051Y-85430211D01*
X91475807Y-85481687D01*
X91411774Y-85499500D01*
X20624500Y-85499500D01*
X20557461Y-85479815D01*
X20511706Y-85427011D01*
X20500500Y-85375500D01*
X20500500Y-81878711D01*
X58149500Y-81878711D01*
X58149500Y-82121288D01*
X58181161Y-82361785D01*
X58243947Y-82596104D01*
X58279839Y-82682754D01*
X58336776Y-82820212D01*
X58458064Y-83030289D01*
X58458066Y-83030292D01*
X58458067Y-83030293D01*
X58605733Y-83222736D01*
X58605739Y-83222743D01*
X58777256Y-83394260D01*
X58777262Y-83394265D01*
X58969711Y-83541936D01*
X59179788Y-83663224D01*
X59403900Y-83756054D01*
X59638211Y-83818838D01*
X59818586Y-83842584D01*
X59878711Y-83850500D01*
X59878712Y-83850500D01*
X60121289Y-83850500D01*
X60169388Y-83844167D01*
X60361789Y-83818838D01*
X60596100Y-83756054D01*
X60820212Y-83663224D01*
X61030289Y-83541936D01*
X61222738Y-83394265D01*
X61394265Y-83222738D01*
X61541936Y-83030289D01*
X61663224Y-82820212D01*
X61756054Y-82596100D01*
X61818838Y-82361789D01*
X61850500Y-82121288D01*
X61850500Y-81878712D01*
X61847233Y-81853900D01*
X61818838Y-81638214D01*
X61818838Y-81638211D01*
X61756054Y-81403900D01*
X61663224Y-81179788D01*
X61541936Y-80969711D01*
X61423972Y-80815977D01*
X61394266Y-80777263D01*
X61394260Y-80777256D01*
X61222743Y-80605739D01*
X61222736Y-80605733D01*
X61030293Y-80458067D01*
X61030292Y-80458066D01*
X61030289Y-80458064D01*
X60820212Y-80336776D01*
X60820205Y-80336773D01*
X60596104Y-80243947D01*
X60478944Y-80212554D01*
X60361789Y-80181162D01*
X60361788Y-80181161D01*
X60361785Y-80181161D01*
X60121289Y-80149500D01*
X60121288Y-80149500D01*
X59878712Y-80149500D01*
X59878711Y-80149500D01*
X59638214Y-80181161D01*
X59403895Y-80243947D01*
X59179794Y-80336773D01*
X59179785Y-80336777D01*
X58969706Y-80458067D01*
X58777263Y-80605733D01*
X58777256Y-80605739D01*
X58605739Y-80777256D01*
X58605733Y-80777263D01*
X58458067Y-80969706D01*
X58336777Y-81179785D01*
X58336773Y-81179794D01*
X58243947Y-81403895D01*
X58181161Y-81638214D01*
X58149500Y-81878711D01*
X20500500Y-81878711D01*
X20500500Y-79130247D01*
X20949500Y-79130247D01*
X20949500Y-80869752D01*
X20961131Y-80928229D01*
X20961132Y-80928230D01*
X21005447Y-80994552D01*
X21071769Y-81038867D01*
X21071770Y-81038868D01*
X21130247Y-81050499D01*
X21130250Y-81050500D01*
X21130252Y-81050500D01*
X22869750Y-81050500D01*
X22869751Y-81050499D01*
X22884568Y-81047552D01*
X22928229Y-81038868D01*
X22928229Y-81038867D01*
X22928231Y-81038867D01*
X22994552Y-80994552D01*
X23038867Y-80928231D01*
X23038867Y-80928229D01*
X23038868Y-80928229D01*
X23050499Y-80869752D01*
X23050500Y-80869750D01*
X23050500Y-79896530D01*
X23489500Y-79896530D01*
X23489500Y-80103469D01*
X23529868Y-80306412D01*
X23529870Y-80306420D01*
X23595939Y-80465925D01*
X23609059Y-80497598D01*
X23643506Y-80549152D01*
X23724024Y-80669657D01*
X23870342Y-80815975D01*
X23870345Y-80815977D01*
X24042402Y-80930941D01*
X24233580Y-81010130D01*
X24378052Y-81038867D01*
X24436530Y-81050499D01*
X24436534Y-81050500D01*
X24436535Y-81050500D01*
X24643466Y-81050500D01*
X24643467Y-81050499D01*
X24846420Y-81010130D01*
X25037598Y-80930941D01*
X25209655Y-80815977D01*
X25355977Y-80669655D01*
X25470941Y-80497598D01*
X25550130Y-80306420D01*
X25590500Y-80103465D01*
X25590500Y-79896535D01*
X25590499Y-79896530D01*
X26029500Y-79896530D01*
X26029500Y-80103469D01*
X26069868Y-80306412D01*
X26069870Y-80306420D01*
X26135939Y-80465925D01*
X26149059Y-80497598D01*
X26183506Y-80549152D01*
X26264024Y-80669657D01*
X26410342Y-80815975D01*
X26410345Y-80815977D01*
X26582402Y-80930941D01*
X26773580Y-81010130D01*
X26918052Y-81038867D01*
X26976530Y-81050499D01*
X26976534Y-81050500D01*
X26976535Y-81050500D01*
X27183466Y-81050500D01*
X27183467Y-81050499D01*
X27386420Y-81010130D01*
X27577598Y-80930941D01*
X27749655Y-80815977D01*
X27749658Y-80815974D01*
X27758243Y-80807390D01*
X27895974Y-80669658D01*
X27895975Y-80669657D01*
X27895977Y-80669655D01*
X28010941Y-80497598D01*
X28090130Y-80306420D01*
X28130500Y-80103465D01*
X28130500Y-79909493D01*
X28470000Y-79909493D01*
X28470000Y-80090506D01*
X28498317Y-80269293D01*
X28554251Y-80441444D01*
X28554252Y-80441447D01*
X28636434Y-80602734D01*
X28677667Y-80659487D01*
X28677668Y-80659487D01*
X29151980Y-80185176D01*
X29154075Y-80192993D01*
X29219901Y-80307007D01*
X29312993Y-80400099D01*
X29427007Y-80465925D01*
X29434822Y-80468019D01*
X28960510Y-80942330D01*
X28960511Y-80942331D01*
X29017265Y-80983565D01*
X29178552Y-81065747D01*
X29178555Y-81065748D01*
X29350706Y-81121682D01*
X29529494Y-81150000D01*
X29710506Y-81150000D01*
X29889293Y-81121682D01*
X30061444Y-81065748D01*
X30061447Y-81065747D01*
X30222730Y-80983568D01*
X30279487Y-80942330D01*
X30279488Y-80942329D01*
X29805178Y-80468019D01*
X29812993Y-80465925D01*
X29927007Y-80400099D01*
X30020099Y-80307007D01*
X30085925Y-80192993D01*
X30088019Y-80185177D01*
X30562329Y-80659488D01*
X30562330Y-80659487D01*
X30603568Y-80602730D01*
X30685747Y-80441447D01*
X30685748Y-80441444D01*
X30741682Y-80269293D01*
X30770000Y-80090506D01*
X30770000Y-79909493D01*
X30741682Y-79730706D01*
X30685748Y-79558555D01*
X30685747Y-79558552D01*
X30603565Y-79397265D01*
X30562331Y-79340511D01*
X30562330Y-79340510D01*
X30088018Y-79814821D01*
X30085925Y-79807007D01*
X30020099Y-79692993D01*
X29927007Y-79599901D01*
X29812993Y-79534075D01*
X29805176Y-79531980D01*
X30279487Y-79057668D01*
X30279487Y-79057667D01*
X30222734Y-79016434D01*
X30061447Y-78934252D01*
X30061444Y-78934251D01*
X29889293Y-78878317D01*
X29710506Y-78850000D01*
X29529494Y-78850000D01*
X29350706Y-78878317D01*
X29178555Y-78934251D01*
X29178552Y-78934252D01*
X29017270Y-79016431D01*
X29017268Y-79016432D01*
X28960511Y-79057667D01*
X28960511Y-79057668D01*
X29434823Y-79531980D01*
X29427007Y-79534075D01*
X29312993Y-79599901D01*
X29219901Y-79692993D01*
X29154075Y-79807007D01*
X29151980Y-79814823D01*
X28677668Y-79340511D01*
X28677667Y-79340511D01*
X28636432Y-79397268D01*
X28636431Y-79397270D01*
X28554252Y-79558552D01*
X28554251Y-79558555D01*
X28498317Y-79730706D01*
X28470000Y-79909493D01*
X28130500Y-79909493D01*
X28130500Y-79896535D01*
X28090130Y-79693580D01*
X28010941Y-79502402D01*
X27895977Y-79330345D01*
X27895975Y-79330342D01*
X27749657Y-79184024D01*
X27612222Y-79092194D01*
X27577598Y-79069059D01*
X27558516Y-79061155D01*
X27386420Y-78989870D01*
X27386412Y-78989868D01*
X27183469Y-78949500D01*
X27183465Y-78949500D01*
X26976535Y-78949500D01*
X26976530Y-78949500D01*
X26773587Y-78989868D01*
X26773579Y-78989870D01*
X26582403Y-79069058D01*
X26410342Y-79184024D01*
X26264024Y-79330342D01*
X26149058Y-79502403D01*
X26069870Y-79693579D01*
X26069868Y-79693587D01*
X26029500Y-79896530D01*
X25590499Y-79896530D01*
X25550130Y-79693580D01*
X25470941Y-79502402D01*
X25355977Y-79330345D01*
X25355975Y-79330342D01*
X25209657Y-79184024D01*
X25072222Y-79092194D01*
X25037598Y-79069059D01*
X25018516Y-79061155D01*
X24846420Y-78989870D01*
X24846412Y-78989868D01*
X24643469Y-78949500D01*
X24643465Y-78949500D01*
X24436535Y-78949500D01*
X24436530Y-78949500D01*
X24233587Y-78989868D01*
X24233579Y-78989870D01*
X24042403Y-79069058D01*
X23870342Y-79184024D01*
X23724024Y-79330342D01*
X23609058Y-79502403D01*
X23529870Y-79693579D01*
X23529868Y-79693587D01*
X23489500Y-79896530D01*
X23050500Y-79896530D01*
X23050500Y-79130249D01*
X23050499Y-79130247D01*
X23038868Y-79071770D01*
X23038867Y-79071769D01*
X22994552Y-79005447D01*
X22928230Y-78961132D01*
X22928229Y-78961131D01*
X22869752Y-78949500D01*
X22869748Y-78949500D01*
X21130252Y-78949500D01*
X21130247Y-78949500D01*
X21071770Y-78961131D01*
X21071769Y-78961132D01*
X21005447Y-79005447D01*
X20961132Y-79071769D01*
X20961131Y-79071770D01*
X20949500Y-79130247D01*
X20500500Y-79130247D01*
X20500500Y-70358543D01*
X22099499Y-70358543D01*
X22137947Y-70551829D01*
X22137950Y-70551839D01*
X22213364Y-70733907D01*
X22213371Y-70733920D01*
X22322860Y-70897781D01*
X22322863Y-70897785D01*
X22462214Y-71037136D01*
X22462218Y-71037139D01*
X22626079Y-71146628D01*
X22626092Y-71146635D01*
X22808160Y-71222049D01*
X22808165Y-71222051D01*
X22808169Y-71222051D01*
X22808170Y-71222052D01*
X23001456Y-71260500D01*
X23001459Y-71260500D01*
X23198543Y-71260500D01*
X23328582Y-71234632D01*
X23391835Y-71222051D01*
X23573914Y-71146632D01*
X23737782Y-71037139D01*
X23877139Y-70897782D01*
X23986632Y-70733914D01*
X24062051Y-70551835D01*
X24100500Y-70358541D01*
X24100500Y-70161459D01*
X24100500Y-70161456D01*
X24062052Y-69968170D01*
X24062051Y-69968169D01*
X24062051Y-69968165D01*
X24051231Y-69942042D01*
X23986635Y-69786092D01*
X23986628Y-69786079D01*
X23877139Y-69622218D01*
X23877136Y-69622214D01*
X23737785Y-69482863D01*
X23737781Y-69482860D01*
X23573920Y-69373371D01*
X23573907Y-69373364D01*
X23391839Y-69297950D01*
X23391829Y-69297947D01*
X23198543Y-69259500D01*
X23198541Y-69259500D01*
X23001459Y-69259500D01*
X23001457Y-69259500D01*
X22808170Y-69297947D01*
X22808160Y-69297950D01*
X22626092Y-69373364D01*
X22626079Y-69373371D01*
X22462218Y-69482860D01*
X22462214Y-69482863D01*
X22322863Y-69622214D01*
X22322860Y-69622218D01*
X22213371Y-69786079D01*
X22213364Y-69786092D01*
X22137950Y-69968160D01*
X22137947Y-69968170D01*
X22099500Y-70161456D01*
X22099500Y-70161459D01*
X22099500Y-70358541D01*
X22099500Y-70358543D01*
X22099499Y-70358543D01*
X20500500Y-70358543D01*
X20500500Y-67818543D01*
X22099499Y-67818543D01*
X22137947Y-68011829D01*
X22137950Y-68011839D01*
X22213364Y-68193907D01*
X22213371Y-68193920D01*
X22322860Y-68357781D01*
X22322863Y-68357785D01*
X22462214Y-68497136D01*
X22462218Y-68497139D01*
X22626079Y-68606628D01*
X22626092Y-68606635D01*
X22808160Y-68682049D01*
X22808165Y-68682051D01*
X22808169Y-68682051D01*
X22808170Y-68682052D01*
X23001456Y-68720500D01*
X23001459Y-68720500D01*
X23198543Y-68720500D01*
X23328582Y-68694632D01*
X23391835Y-68682051D01*
X23573914Y-68606632D01*
X23737782Y-68497139D01*
X23877139Y-68357782D01*
X23986632Y-68193914D01*
X24062051Y-68011835D01*
X24074632Y-67948582D01*
X24100500Y-67818543D01*
X24100500Y-67621456D01*
X24062052Y-67428170D01*
X24062051Y-67428169D01*
X24062051Y-67428165D01*
X24017294Y-67320111D01*
X23986635Y-67246092D01*
X23986628Y-67246079D01*
X23877139Y-67082218D01*
X23877136Y-67082214D01*
X23737785Y-66942863D01*
X23737781Y-66942860D01*
X23573920Y-66833371D01*
X23573907Y-66833364D01*
X23391839Y-66757950D01*
X23391829Y-66757947D01*
X23198543Y-66719500D01*
X23198541Y-66719500D01*
X23001459Y-66719500D01*
X23001457Y-66719500D01*
X22808170Y-66757947D01*
X22808160Y-66757950D01*
X22626092Y-66833364D01*
X22626079Y-66833371D01*
X22462218Y-66942860D01*
X22462214Y-66942863D01*
X22322863Y-67082214D01*
X22322860Y-67082218D01*
X22213371Y-67246079D01*
X22213364Y-67246092D01*
X22137950Y-67428160D01*
X22137947Y-67428170D01*
X22099500Y-67621456D01*
X22099500Y-67621459D01*
X22099500Y-67818541D01*
X22099500Y-67818543D01*
X22099499Y-67818543D01*
X20500500Y-67818543D01*
X20500500Y-65101211D01*
X22094500Y-65101211D01*
X22094500Y-65258788D01*
X22098449Y-65298884D01*
X22129192Y-65453442D01*
X22140887Y-65491997D01*
X22165120Y-65550500D01*
X22201192Y-65637584D01*
X22220182Y-65673112D01*
X22220187Y-65673120D01*
X22220192Y-65673128D01*
X22307725Y-65804131D01*
X22307729Y-65804136D01*
X22307732Y-65804140D01*
X22333289Y-65835280D01*
X22444720Y-65946711D01*
X22475860Y-65972268D01*
X22475863Y-65972270D01*
X22475868Y-65972274D01*
X22606871Y-66059807D01*
X22606874Y-66059809D01*
X22606888Y-66059818D01*
X22642416Y-66078808D01*
X22788007Y-66139114D01*
X22826559Y-66150808D01*
X22981117Y-66181551D01*
X23021207Y-66185500D01*
X23021212Y-66185500D01*
X23739783Y-66185500D01*
X23739783Y-66185499D01*
X23818423Y-66169858D01*
X23864415Y-66150808D01*
X23891925Y-66139413D01*
X23891925Y-66139412D01*
X23891932Y-66139410D01*
X23958601Y-66094862D01*
X24014862Y-66038601D01*
X24059410Y-65971932D01*
X24089858Y-65898423D01*
X24105500Y-65819782D01*
X24105500Y-64540218D01*
X24089858Y-64461577D01*
X24089855Y-64461571D01*
X24089854Y-64461566D01*
X24059413Y-64388074D01*
X24059411Y-64388071D01*
X24059410Y-64388068D01*
X24014862Y-64321399D01*
X23958601Y-64265138D01*
X23891932Y-64220590D01*
X23891929Y-64220588D01*
X23891925Y-64220586D01*
X23818433Y-64190145D01*
X23818417Y-64190140D01*
X23739785Y-64174500D01*
X23739782Y-64174500D01*
X23021207Y-64174500D01*
X22992571Y-64177320D01*
X22981115Y-64178449D01*
X22826557Y-64209192D01*
X22788002Y-64220887D01*
X22642422Y-64281189D01*
X22642415Y-64281192D01*
X22614182Y-64296282D01*
X22606888Y-64300182D01*
X22606885Y-64300183D01*
X22606871Y-64300192D01*
X22475868Y-64387725D01*
X22475863Y-64387729D01*
X22444720Y-64413288D01*
X22333288Y-64524720D01*
X22307729Y-64555863D01*
X22307725Y-64555868D01*
X22220192Y-64686871D01*
X22220180Y-64686892D01*
X22201192Y-64722415D01*
X22201189Y-64722422D01*
X22140887Y-64868002D01*
X22129192Y-64906557D01*
X22098449Y-65061115D01*
X22094500Y-65101211D01*
X20500500Y-65101211D01*
X20500500Y-62738543D01*
X22099499Y-62738543D01*
X22137947Y-62931829D01*
X22137950Y-62931839D01*
X22213364Y-63113907D01*
X22213371Y-63113920D01*
X22322860Y-63277781D01*
X22322863Y-63277785D01*
X22462214Y-63417136D01*
X22462218Y-63417139D01*
X22626079Y-63526628D01*
X22626092Y-63526635D01*
X22808160Y-63602049D01*
X22808165Y-63602051D01*
X22808169Y-63602051D01*
X22808170Y-63602052D01*
X23001456Y-63640500D01*
X23001459Y-63640500D01*
X23198543Y-63640500D01*
X23328582Y-63614632D01*
X23391835Y-63602051D01*
X23573914Y-63526632D01*
X23737782Y-63417139D01*
X23877139Y-63277782D01*
X23975884Y-63130000D01*
X24890000Y-63130000D01*
X24890000Y-67469895D01*
X29542057Y-71082663D01*
X29582931Y-71139327D01*
X29590000Y-71180597D01*
X29590000Y-72130000D01*
X34390000Y-72130000D01*
X34390000Y-71180597D01*
X34409685Y-71113558D01*
X34437941Y-71082664D01*
X38850145Y-67656164D01*
X38915165Y-67630593D01*
X38983690Y-67644234D01*
X39033963Y-67692756D01*
X39050200Y-67754101D01*
X39050200Y-77811411D01*
X39030515Y-77878450D01*
X39013881Y-77899092D01*
X38239537Y-78673435D01*
X38239533Y-78673441D01*
X38196681Y-78747661D01*
X38196682Y-78747662D01*
X38174500Y-78830447D01*
X38173439Y-78838507D01*
X38170783Y-78838157D01*
X38154815Y-78892539D01*
X38102011Y-78938294D01*
X38050500Y-78949500D01*
X37630247Y-78949500D01*
X37571770Y-78961131D01*
X37571769Y-78961132D01*
X37505447Y-79005447D01*
X37461132Y-79071769D01*
X37461131Y-79071770D01*
X37449500Y-79130247D01*
X37449500Y-80281111D01*
X37429815Y-80348150D01*
X37377011Y-80393905D01*
X37307853Y-80403849D01*
X37244297Y-80374824D01*
X37237819Y-80368792D01*
X35463764Y-78594737D01*
X35463762Y-78594735D01*
X35412314Y-78565031D01*
X35389540Y-78551882D01*
X35348146Y-78540791D01*
X35306753Y-78529700D01*
X35306752Y-78529700D01*
X33355265Y-78529700D01*
X33355249Y-78529699D01*
X33347653Y-78529699D01*
X33261947Y-78529699D01*
X33228832Y-78538572D01*
X33179158Y-78551882D01*
X33156384Y-78565031D01*
X33156376Y-78565037D01*
X33147812Y-78569982D01*
X33104938Y-78594735D01*
X33044335Y-78655338D01*
X33044333Y-78655340D01*
X33039836Y-78659836D01*
X33039831Y-78659841D01*
X32697103Y-79002568D01*
X32635780Y-79036053D01*
X32566088Y-79031069D01*
X32561972Y-79029449D01*
X32466420Y-78989870D01*
X32466412Y-78989868D01*
X32263469Y-78949500D01*
X32263465Y-78949500D01*
X32056535Y-78949500D01*
X32056530Y-78949500D01*
X31853587Y-78989868D01*
X31853579Y-78989870D01*
X31662403Y-79069058D01*
X31490342Y-79184024D01*
X31344024Y-79330342D01*
X31229058Y-79502403D01*
X31149870Y-79693579D01*
X31149868Y-79693587D01*
X31109500Y-79896530D01*
X31109500Y-80103469D01*
X31149868Y-80306412D01*
X31149870Y-80306420D01*
X31215939Y-80465925D01*
X31229059Y-80497598D01*
X31263506Y-80549152D01*
X31344024Y-80669657D01*
X31490342Y-80815975D01*
X31490345Y-80815977D01*
X31662402Y-80930941D01*
X31853580Y-81010130D01*
X31998052Y-81038867D01*
X32056530Y-81050499D01*
X32056534Y-81050500D01*
X32056535Y-81050500D01*
X32263466Y-81050500D01*
X32263467Y-81050499D01*
X32466420Y-81010130D01*
X32657598Y-80930941D01*
X32829655Y-80815977D01*
X32975977Y-80669655D01*
X33090941Y-80497598D01*
X33170130Y-80306420D01*
X33210500Y-80103465D01*
X33210500Y-79896535D01*
X33170130Y-79693580D01*
X33130551Y-79598028D01*
X33123082Y-79528558D01*
X33154357Y-79466079D01*
X33157403Y-79462922D01*
X33403307Y-79217019D01*
X33464630Y-79183534D01*
X33490988Y-79180700D01*
X33752025Y-79180700D01*
X33819064Y-79200385D01*
X33864819Y-79253189D01*
X33874763Y-79322347D01*
X33855127Y-79373590D01*
X33769059Y-79502399D01*
X33769059Y-79502400D01*
X33689870Y-79693579D01*
X33689868Y-79693587D01*
X33649500Y-79896530D01*
X33649500Y-80103469D01*
X33689868Y-80306412D01*
X33689870Y-80306420D01*
X33755939Y-80465925D01*
X33769059Y-80497598D01*
X33803506Y-80549152D01*
X33884024Y-80669657D01*
X34030342Y-80815975D01*
X34030345Y-80815977D01*
X34202402Y-80930941D01*
X34393580Y-81010130D01*
X34538052Y-81038867D01*
X34596530Y-81050499D01*
X34596534Y-81050500D01*
X34596535Y-81050500D01*
X34803466Y-81050500D01*
X34803467Y-81050499D01*
X35006420Y-81010130D01*
X35101970Y-80970550D01*
X35171439Y-80963082D01*
X35233918Y-80994357D01*
X35237104Y-80997431D01*
X36028538Y-81788865D01*
X36102761Y-81831718D01*
X36185547Y-81853900D01*
X36185549Y-81853900D01*
X54437951Y-81853900D01*
X54437953Y-81853900D01*
X54520739Y-81831718D01*
X54594962Y-81788865D01*
X57253580Y-79130247D01*
X64949500Y-79130247D01*
X64949500Y-80869752D01*
X64961131Y-80928229D01*
X64961132Y-80928230D01*
X65005447Y-80994552D01*
X65071769Y-81038867D01*
X65071770Y-81038868D01*
X65130247Y-81050499D01*
X65130250Y-81050500D01*
X65130252Y-81050500D01*
X66869750Y-81050500D01*
X66869751Y-81050499D01*
X66884568Y-81047552D01*
X66928229Y-81038868D01*
X66928229Y-81038867D01*
X66928231Y-81038867D01*
X66994552Y-80994552D01*
X67038867Y-80928231D01*
X67044383Y-80900500D01*
X67050276Y-80870879D01*
X67050499Y-80869752D01*
X67050500Y-80869750D01*
X67050500Y-79909493D01*
X67390000Y-79909493D01*
X67390000Y-80090506D01*
X67418317Y-80269293D01*
X67474251Y-80441444D01*
X67474252Y-80441447D01*
X67556434Y-80602734D01*
X67597667Y-80659487D01*
X67597668Y-80659487D01*
X68071980Y-80185176D01*
X68074075Y-80192993D01*
X68139901Y-80307007D01*
X68232993Y-80400099D01*
X68347007Y-80465925D01*
X68354822Y-80468019D01*
X67880510Y-80942330D01*
X67880511Y-80942331D01*
X67937265Y-80983565D01*
X68098552Y-81065747D01*
X68098555Y-81065748D01*
X68270706Y-81121682D01*
X68449494Y-81150000D01*
X68630506Y-81150000D01*
X68809293Y-81121682D01*
X68981444Y-81065748D01*
X68981447Y-81065747D01*
X69142730Y-80983568D01*
X69199487Y-80942330D01*
X69199488Y-80942329D01*
X68725178Y-80468019D01*
X68732993Y-80465925D01*
X68847007Y-80400099D01*
X68940099Y-80307007D01*
X69005925Y-80192993D01*
X69008019Y-80185177D01*
X69482329Y-80659488D01*
X69482330Y-80659487D01*
X69523568Y-80602730D01*
X69605747Y-80441447D01*
X69605748Y-80441444D01*
X69661682Y-80269293D01*
X69690000Y-80090506D01*
X69690000Y-79909493D01*
X69661682Y-79730706D01*
X69605748Y-79558555D01*
X69605747Y-79558552D01*
X69523565Y-79397265D01*
X69482331Y-79340511D01*
X69482330Y-79340510D01*
X69008018Y-79814821D01*
X69005925Y-79807007D01*
X68940099Y-79692993D01*
X68847007Y-79599901D01*
X68732993Y-79534075D01*
X68725176Y-79531980D01*
X69199487Y-79057668D01*
X69199487Y-79057667D01*
X69142734Y-79016434D01*
X68981447Y-78934252D01*
X68981444Y-78934251D01*
X68809293Y-78878317D01*
X68630506Y-78850000D01*
X68449494Y-78850000D01*
X68270706Y-78878317D01*
X68098555Y-78934251D01*
X68098552Y-78934252D01*
X67937270Y-79016431D01*
X67937268Y-79016432D01*
X67880511Y-79057667D01*
X67880511Y-79057668D01*
X68354823Y-79531980D01*
X68347007Y-79534075D01*
X68232993Y-79599901D01*
X68139901Y-79692993D01*
X68074075Y-79807007D01*
X68071980Y-79814823D01*
X67597668Y-79340511D01*
X67597667Y-79340511D01*
X67556432Y-79397268D01*
X67556431Y-79397270D01*
X67474252Y-79558552D01*
X67474251Y-79558555D01*
X67418317Y-79730706D01*
X67390000Y-79909493D01*
X67050500Y-79909493D01*
X67050500Y-79130251D01*
X67050275Y-79129120D01*
X67050275Y-79129118D01*
X67038868Y-79071770D01*
X67038867Y-79071769D01*
X66994552Y-79005447D01*
X66928230Y-78961132D01*
X66928229Y-78961131D01*
X66869752Y-78949500D01*
X66869748Y-78949500D01*
X65130252Y-78949500D01*
X65130247Y-78949500D01*
X65071770Y-78961131D01*
X65071769Y-78961132D01*
X65005447Y-79005447D01*
X64961132Y-79071769D01*
X64961131Y-79071770D01*
X64949500Y-79130247D01*
X57253580Y-79130247D01*
X74880465Y-61503362D01*
X74923318Y-61429139D01*
X74945500Y-61346353D01*
X74945500Y-61260647D01*
X74945500Y-52881902D01*
X90999500Y-52881902D01*
X90999500Y-53118097D01*
X91036446Y-53351368D01*
X91109433Y-53575996D01*
X91176775Y-53708160D01*
X91216657Y-53786433D01*
X91355483Y-53977510D01*
X91522490Y-54144517D01*
X91713567Y-54283343D01*
X91765818Y-54309966D01*
X91924003Y-54390566D01*
X91924005Y-54390566D01*
X91924008Y-54390568D01*
X92044412Y-54429689D01*
X92148631Y-54463553D01*
X92381903Y-54500500D01*
X92381908Y-54500500D01*
X92618097Y-54500500D01*
X92851368Y-54463553D01*
X93075992Y-54390568D01*
X93286433Y-54283343D01*
X93477510Y-54144517D01*
X93644517Y-53977510D01*
X93783343Y-53786433D01*
X93890568Y-53575992D01*
X93963553Y-53351368D01*
X93976081Y-53272268D01*
X93998735Y-53129240D01*
X93998735Y-53129239D01*
X94000500Y-53118096D01*
X94000500Y-52881902D01*
X93963553Y-52648631D01*
X93934361Y-52558788D01*
X93890568Y-52424008D01*
X93890565Y-52424004D01*
X93890565Y-52424001D01*
X93871868Y-52387307D01*
X93871867Y-52387306D01*
X93845666Y-52335883D01*
X96050000Y-52335883D01*
X96050000Y-52800000D01*
X96850000Y-52800000D01*
X96850000Y-53200000D01*
X96050000Y-53200000D01*
X96050000Y-53664116D01*
X96085704Y-53889544D01*
X96156230Y-54106604D01*
X96259849Y-54309966D01*
X96394004Y-54494614D01*
X96555385Y-54655995D01*
X96740033Y-54790150D01*
X96943395Y-54893769D01*
X97160455Y-54964295D01*
X97300000Y-54986397D01*
X97300000Y-54170712D01*
X97310402Y-54175021D01*
X97435981Y-54200000D01*
X97564019Y-54200000D01*
X97689598Y-54175021D01*
X97700000Y-54170712D01*
X97700000Y-54986396D01*
X97839544Y-54964295D01*
X98056604Y-54893769D01*
X98259966Y-54790150D01*
X98444614Y-54655995D01*
X98605995Y-54494614D01*
X98740150Y-54309966D01*
X98843769Y-54106604D01*
X98914295Y-53889544D01*
X98950000Y-53664116D01*
X98950000Y-53200000D01*
X98150000Y-53200000D01*
X98150000Y-52800000D01*
X98950000Y-52800000D01*
X98950000Y-52335883D01*
X98914295Y-52110455D01*
X98843769Y-51893395D01*
X98740150Y-51690033D01*
X98605995Y-51505385D01*
X98444614Y-51344004D01*
X98259966Y-51209849D01*
X98056604Y-51106230D01*
X97839545Y-51035704D01*
X97700000Y-51013601D01*
X97700000Y-51829287D01*
X97689598Y-51824979D01*
X97564019Y-51800000D01*
X97435981Y-51800000D01*
X97310402Y-51824979D01*
X97300000Y-51829287D01*
X97300000Y-51013601D01*
X97160455Y-51035704D01*
X97160452Y-51035704D01*
X96943395Y-51106230D01*
X96740033Y-51209849D01*
X96555385Y-51344004D01*
X96394004Y-51505385D01*
X96259849Y-51690033D01*
X96156230Y-51893395D01*
X96085704Y-52110455D01*
X96050000Y-52335883D01*
X93845666Y-52335883D01*
X93783343Y-52213567D01*
X93644517Y-52022490D01*
X93477510Y-51855483D01*
X93286433Y-51716657D01*
X93279821Y-51713288D01*
X93075996Y-51609433D01*
X92851368Y-51536446D01*
X92618097Y-51499500D01*
X92618092Y-51499500D01*
X92381908Y-51499500D01*
X92381903Y-51499500D01*
X92148631Y-51536446D01*
X91924003Y-51609433D01*
X91713566Y-51716657D01*
X91651755Y-51761566D01*
X91522490Y-51855483D01*
X91522488Y-51855485D01*
X91522487Y-51855485D01*
X91355485Y-52022487D01*
X91355485Y-52022488D01*
X91355483Y-52022490D01*
X91295862Y-52104550D01*
X91216657Y-52213566D01*
X91109433Y-52424003D01*
X91036446Y-52648631D01*
X90999500Y-52881902D01*
X74945500Y-52881902D01*
X74945500Y-47800000D01*
X90513603Y-47800000D01*
X91329288Y-47800000D01*
X91324979Y-47810402D01*
X91300000Y-47935981D01*
X91300000Y-48064019D01*
X91324979Y-48189598D01*
X91329288Y-48200000D01*
X90513603Y-48200000D01*
X90535704Y-48339544D01*
X90606230Y-48556604D01*
X90709849Y-48759966D01*
X90844004Y-48944614D01*
X91005385Y-49105995D01*
X91190033Y-49240150D01*
X91393395Y-49343769D01*
X91610455Y-49414295D01*
X91835884Y-49450000D01*
X92300000Y-49450000D01*
X92300000Y-48650000D01*
X92700000Y-48650000D01*
X92700000Y-49450000D01*
X93164116Y-49450000D01*
X93389544Y-49414295D01*
X93606604Y-49343769D01*
X93809966Y-49240150D01*
X93994614Y-49105995D01*
X94155995Y-48944614D01*
X94290150Y-48759966D01*
X94393769Y-48556604D01*
X94464295Y-48339544D01*
X94486397Y-48200000D01*
X93670712Y-48200000D01*
X93675021Y-48189598D01*
X93700000Y-48064019D01*
X93700000Y-47935981D01*
X93675021Y-47810402D01*
X93670712Y-47800000D01*
X94486397Y-47800000D01*
X94464295Y-47660455D01*
X94393769Y-47443395D01*
X94290150Y-47240033D01*
X94155995Y-47055385D01*
X93994614Y-46894004D01*
X93809966Y-46759849D01*
X93606604Y-46656230D01*
X93389544Y-46585704D01*
X93164116Y-46550000D01*
X92700000Y-46550000D01*
X92700000Y-47350000D01*
X92300000Y-47350000D01*
X92300000Y-46550000D01*
X91835884Y-46550000D01*
X91610455Y-46585704D01*
X91393395Y-46656230D01*
X91190033Y-46759849D01*
X91005385Y-46894004D01*
X90844004Y-47055385D01*
X90709849Y-47240033D01*
X90606230Y-47443395D01*
X90535704Y-47660455D01*
X90513603Y-47800000D01*
X74945500Y-47800000D01*
X74945500Y-43194037D01*
X74965185Y-43126998D01*
X75017989Y-43081243D01*
X75031177Y-43076108D01*
X75061639Y-43066211D01*
X75222994Y-42983996D01*
X75369501Y-42877553D01*
X75497553Y-42749501D01*
X75603996Y-42602994D01*
X75686211Y-42441639D01*
X75742171Y-42269409D01*
X75759954Y-42157131D01*
X75770500Y-42090551D01*
X75770500Y-41909449D01*
X75770499Y-41909447D01*
X75769259Y-41901617D01*
X78450000Y-41901617D01*
X78450000Y-42098382D01*
X78480778Y-42292705D01*
X78541581Y-42479835D01*
X78630904Y-42655143D01*
X78686076Y-42731079D01*
X78686077Y-42731080D01*
X79193844Y-42223312D01*
X79259890Y-42337708D01*
X79362292Y-42440110D01*
X79476686Y-42506154D01*
X78968918Y-43013922D01*
X79044856Y-43069095D01*
X79220164Y-43158418D01*
X79407294Y-43219221D01*
X79601618Y-43250000D01*
X79798382Y-43250000D01*
X79992705Y-43219221D01*
X80179835Y-43158418D01*
X80355143Y-43069095D01*
X80431079Y-43013922D01*
X80431080Y-43013921D01*
X79923313Y-42506154D01*
X80037708Y-42440110D01*
X80140110Y-42337708D01*
X80206154Y-42223313D01*
X80713921Y-42731080D01*
X80713922Y-42731079D01*
X80769095Y-42655143D01*
X80858418Y-42479835D01*
X80904378Y-42338387D01*
X80943815Y-42280712D01*
X81008174Y-42253513D01*
X81077020Y-42265428D01*
X81128496Y-42312672D01*
X81140240Y-42338387D01*
X81173787Y-42441636D01*
X81173788Y-42441639D01*
X81209904Y-42512518D01*
X81254459Y-42599962D01*
X81256006Y-42602997D01*
X81362441Y-42749494D01*
X81362445Y-42749499D01*
X81490500Y-42877554D01*
X81490505Y-42877558D01*
X81609375Y-42963921D01*
X81637006Y-42983996D01*
X81739220Y-43036077D01*
X81798360Y-43066211D01*
X81798363Y-43066212D01*
X81855733Y-43084852D01*
X81970591Y-43122171D01*
X82053429Y-43135291D01*
X82149449Y-43150500D01*
X82149454Y-43150500D01*
X82330551Y-43150500D01*
X82417259Y-43136765D01*
X82509409Y-43122171D01*
X82681639Y-43066211D01*
X82842994Y-42983996D01*
X82989501Y-42877553D01*
X83117553Y-42749501D01*
X83223996Y-42602994D01*
X83306211Y-42441639D01*
X83362171Y-42269409D01*
X83379954Y-42157131D01*
X83390500Y-42090551D01*
X83390500Y-41909448D01*
X86169500Y-41909448D01*
X86169500Y-42090551D01*
X86197829Y-42269410D01*
X86253787Y-42441636D01*
X86253788Y-42441639D01*
X86289904Y-42512518D01*
X86334459Y-42599962D01*
X86336006Y-42602997D01*
X86442441Y-42749494D01*
X86442445Y-42749499D01*
X86570500Y-42877554D01*
X86570505Y-42877558D01*
X86689375Y-42963921D01*
X86717006Y-42983996D01*
X86819220Y-43036077D01*
X86878360Y-43066211D01*
X86878363Y-43066212D01*
X86935733Y-43084852D01*
X87050591Y-43122171D01*
X87133429Y-43135291D01*
X87229449Y-43150500D01*
X87229454Y-43150500D01*
X87410551Y-43150500D01*
X87497259Y-43136765D01*
X87589409Y-43122171D01*
X87761639Y-43066211D01*
X87922994Y-42983996D01*
X88069501Y-42877553D01*
X88197553Y-42749501D01*
X88303996Y-42602994D01*
X88386211Y-42441639D01*
X88419759Y-42338388D01*
X88459196Y-42280712D01*
X88523554Y-42253513D01*
X88592401Y-42265427D01*
X88643877Y-42312671D01*
X88655621Y-42338386D01*
X88701582Y-42479837D01*
X88790904Y-42655143D01*
X88846076Y-42731079D01*
X88846077Y-42731080D01*
X89353844Y-42223312D01*
X89419890Y-42337708D01*
X89522292Y-42440110D01*
X89636686Y-42506154D01*
X89128918Y-43013922D01*
X89204856Y-43069095D01*
X89380164Y-43158418D01*
X89567294Y-43219221D01*
X89761618Y-43250000D01*
X89958382Y-43250000D01*
X90152705Y-43219221D01*
X90339835Y-43158418D01*
X90515143Y-43069095D01*
X90591079Y-43013922D01*
X90591080Y-43013921D01*
X90083313Y-42506154D01*
X90197708Y-42440110D01*
X90300110Y-42337708D01*
X90366154Y-42223313D01*
X90873921Y-42731080D01*
X90873922Y-42731079D01*
X90929095Y-42655143D01*
X91018418Y-42479835D01*
X91064378Y-42338387D01*
X91103815Y-42280712D01*
X91168174Y-42253513D01*
X91237020Y-42265428D01*
X91288496Y-42312672D01*
X91300240Y-42338387D01*
X91333787Y-42441636D01*
X91333788Y-42441639D01*
X91369904Y-42512518D01*
X91414459Y-42599962D01*
X91416006Y-42602997D01*
X91522441Y-42749494D01*
X91522445Y-42749499D01*
X91650500Y-42877554D01*
X91650505Y-42877558D01*
X91769375Y-42963921D01*
X91797006Y-42983996D01*
X91899220Y-43036077D01*
X91958360Y-43066211D01*
X91958363Y-43066212D01*
X92015733Y-43084852D01*
X92130591Y-43122171D01*
X92213429Y-43135291D01*
X92309449Y-43150500D01*
X92309454Y-43150500D01*
X92490551Y-43150500D01*
X92577259Y-43136765D01*
X92669409Y-43122171D01*
X92841639Y-43066211D01*
X93002994Y-42983996D01*
X93149501Y-42877553D01*
X93277553Y-42749501D01*
X93383996Y-42602994D01*
X93466211Y-42441639D01*
X93522171Y-42269409D01*
X93539954Y-42157131D01*
X93550500Y-42090551D01*
X93550500Y-41909448D01*
X93531217Y-41787708D01*
X93522171Y-41730591D01*
X93466211Y-41558361D01*
X93466211Y-41558360D01*
X93430096Y-41487482D01*
X93383996Y-41397006D01*
X93351991Y-41352954D01*
X93277558Y-41250505D01*
X93277554Y-41250500D01*
X93149499Y-41122445D01*
X93149494Y-41122441D01*
X93002997Y-41016006D01*
X93002996Y-41016005D01*
X93002994Y-41016004D01*
X92944257Y-40986076D01*
X92841639Y-40933788D01*
X92841636Y-40933787D01*
X92669410Y-40877829D01*
X92490551Y-40849500D01*
X92490546Y-40849500D01*
X92309454Y-40849500D01*
X92309449Y-40849500D01*
X92130589Y-40877829D01*
X91958363Y-40933787D01*
X91958360Y-40933788D01*
X91797002Y-41016006D01*
X91650505Y-41122441D01*
X91650500Y-41122445D01*
X91522445Y-41250500D01*
X91522441Y-41250505D01*
X91416006Y-41397002D01*
X91333788Y-41558360D01*
X91333787Y-41558363D01*
X91300240Y-41661612D01*
X91260802Y-41719288D01*
X91196444Y-41746486D01*
X91127597Y-41734571D01*
X91076122Y-41687327D01*
X91064378Y-41661612D01*
X91018418Y-41520164D01*
X90929095Y-41344856D01*
X90873922Y-41268919D01*
X90873922Y-41268918D01*
X90366154Y-41776686D01*
X90300110Y-41662292D01*
X90197708Y-41559890D01*
X90083312Y-41493844D01*
X90591080Y-40986077D01*
X90591079Y-40986076D01*
X90515143Y-40930904D01*
X90339835Y-40841581D01*
X90152705Y-40780778D01*
X89958382Y-40750000D01*
X89761618Y-40750000D01*
X89567294Y-40780778D01*
X89380164Y-40841581D01*
X89204855Y-40930905D01*
X89204846Y-40930911D01*
X89128919Y-40986075D01*
X89128918Y-40986076D01*
X89636687Y-41493844D01*
X89522292Y-41559890D01*
X89419890Y-41662292D01*
X89353844Y-41776686D01*
X88846076Y-41268918D01*
X88846075Y-41268919D01*
X88790911Y-41344846D01*
X88790905Y-41344855D01*
X88701581Y-41520162D01*
X88655621Y-41661613D01*
X88616183Y-41719288D01*
X88551824Y-41746486D01*
X88482978Y-41734571D01*
X88431502Y-41687327D01*
X88419759Y-41661611D01*
X88386213Y-41558366D01*
X88386211Y-41558360D01*
X88350096Y-41487482D01*
X88303996Y-41397006D01*
X88271991Y-41352954D01*
X88197558Y-41250505D01*
X88197554Y-41250500D01*
X88069499Y-41122445D01*
X88069494Y-41122441D01*
X87922997Y-41016006D01*
X87922996Y-41016005D01*
X87922994Y-41016004D01*
X87864257Y-40986076D01*
X87761639Y-40933788D01*
X87761636Y-40933787D01*
X87589410Y-40877829D01*
X87410551Y-40849500D01*
X87410546Y-40849500D01*
X87229454Y-40849500D01*
X87229449Y-40849500D01*
X87050589Y-40877829D01*
X86878363Y-40933787D01*
X86878360Y-40933788D01*
X86717002Y-41016006D01*
X86570505Y-41122441D01*
X86570500Y-41122445D01*
X86442445Y-41250500D01*
X86442441Y-41250505D01*
X86336006Y-41397002D01*
X86253788Y-41558360D01*
X86253787Y-41558363D01*
X86197829Y-41730589D01*
X86169500Y-41909448D01*
X83390500Y-41909448D01*
X83371217Y-41787708D01*
X83362171Y-41730591D01*
X83306211Y-41558361D01*
X83306211Y-41558360D01*
X83270096Y-41487482D01*
X83223996Y-41397006D01*
X83191991Y-41352954D01*
X83117558Y-41250505D01*
X83117554Y-41250500D01*
X82989499Y-41122445D01*
X82989494Y-41122441D01*
X82842997Y-41016006D01*
X82842996Y-41016005D01*
X82842994Y-41016004D01*
X82784257Y-40986076D01*
X82681639Y-40933788D01*
X82681636Y-40933787D01*
X82509410Y-40877829D01*
X82330551Y-40849500D01*
X82330546Y-40849500D01*
X82149454Y-40849500D01*
X82149449Y-40849500D01*
X81970589Y-40877829D01*
X81798363Y-40933787D01*
X81798360Y-40933788D01*
X81637002Y-41016006D01*
X81490505Y-41122441D01*
X81490500Y-41122445D01*
X81362445Y-41250500D01*
X81362441Y-41250505D01*
X81256006Y-41397002D01*
X81173788Y-41558360D01*
X81173787Y-41558363D01*
X81140240Y-41661612D01*
X81100802Y-41719288D01*
X81036444Y-41746486D01*
X80967597Y-41734571D01*
X80916122Y-41687327D01*
X80904378Y-41661612D01*
X80858418Y-41520164D01*
X80769095Y-41344856D01*
X80713922Y-41268919D01*
X80713922Y-41268918D01*
X80206154Y-41776686D01*
X80140110Y-41662292D01*
X80037708Y-41559890D01*
X79923312Y-41493844D01*
X80431080Y-40986077D01*
X80431079Y-40986076D01*
X80355143Y-40930904D01*
X80179835Y-40841581D01*
X79992705Y-40780778D01*
X79798382Y-40750000D01*
X79601618Y-40750000D01*
X79407294Y-40780778D01*
X79220164Y-40841581D01*
X79044855Y-40930905D01*
X79044846Y-40930911D01*
X78968919Y-40986075D01*
X78968918Y-40986076D01*
X79476687Y-41493844D01*
X79362292Y-41559890D01*
X79259890Y-41662292D01*
X79193844Y-41776686D01*
X78686076Y-41268918D01*
X78686075Y-41268919D01*
X78630911Y-41344846D01*
X78630905Y-41344855D01*
X78541581Y-41520164D01*
X78480778Y-41707294D01*
X78450000Y-41901617D01*
X75769259Y-41901617D01*
X75760464Y-41846092D01*
X75742171Y-41730591D01*
X75686211Y-41558361D01*
X75686211Y-41558360D01*
X75650096Y-41487482D01*
X75603996Y-41397006D01*
X75571991Y-41352954D01*
X75497558Y-41250505D01*
X75497554Y-41250500D01*
X75369499Y-41122445D01*
X75369494Y-41122441D01*
X75222997Y-41016006D01*
X75222996Y-41016005D01*
X75222994Y-41016004D01*
X75164257Y-40986076D01*
X75061639Y-40933788D01*
X75061636Y-40933787D01*
X74889410Y-40877829D01*
X74710551Y-40849500D01*
X74710546Y-40849500D01*
X74529454Y-40849500D01*
X74529449Y-40849500D01*
X74350589Y-40877829D01*
X74178363Y-40933787D01*
X74178360Y-40933788D01*
X74017002Y-41016006D01*
X73870505Y-41122441D01*
X73870500Y-41122445D01*
X73742445Y-41250500D01*
X73742441Y-41250505D01*
X73636006Y-41397002D01*
X73553788Y-41558360D01*
X73553787Y-41558363D01*
X73497829Y-41730589D01*
X73472473Y-41890678D01*
X73442544Y-41953813D01*
X73383232Y-41990744D01*
X73313369Y-41989746D01*
X73255137Y-41951136D01*
X73227527Y-41890678D01*
X73211217Y-41787708D01*
X73202171Y-41730591D01*
X73146211Y-41558361D01*
X73146211Y-41558360D01*
X73110096Y-41487482D01*
X73063996Y-41397006D01*
X73031991Y-41352954D01*
X72957558Y-41250505D01*
X72957554Y-41250500D01*
X72829499Y-41122445D01*
X72829494Y-41122441D01*
X72682997Y-41016006D01*
X72682996Y-41016005D01*
X72682994Y-41016004D01*
X72624257Y-40986076D01*
X72521639Y-40933788D01*
X72521636Y-40933787D01*
X72349410Y-40877829D01*
X72170551Y-40849500D01*
X72170546Y-40849500D01*
X71989454Y-40849500D01*
X71989449Y-40849500D01*
X71810589Y-40877829D01*
X71638363Y-40933787D01*
X71638360Y-40933788D01*
X71477002Y-41016006D01*
X71330505Y-41122441D01*
X71330500Y-41122445D01*
X71202445Y-41250500D01*
X71202441Y-41250505D01*
X71096006Y-41397002D01*
X71013788Y-41558360D01*
X71013787Y-41558363D01*
X70957829Y-41730589D01*
X70932473Y-41890678D01*
X70902544Y-41953813D01*
X70843232Y-41990744D01*
X70773369Y-41989746D01*
X70715137Y-41951136D01*
X70687527Y-41890678D01*
X70671217Y-41787708D01*
X70662171Y-41730591D01*
X70606211Y-41558361D01*
X70606211Y-41558360D01*
X70570096Y-41487482D01*
X70523996Y-41397006D01*
X70491991Y-41352954D01*
X70417558Y-41250505D01*
X70417554Y-41250500D01*
X70289499Y-41122445D01*
X70289494Y-41122441D01*
X70142997Y-41016006D01*
X70142996Y-41016005D01*
X70142994Y-41016004D01*
X70084257Y-40986076D01*
X69981639Y-40933788D01*
X69981636Y-40933787D01*
X69809410Y-40877829D01*
X69630551Y-40849500D01*
X69630546Y-40849500D01*
X69449454Y-40849500D01*
X69449449Y-40849500D01*
X69270589Y-40877829D01*
X69098363Y-40933787D01*
X69098360Y-40933788D01*
X68937002Y-41016006D01*
X68790505Y-41122441D01*
X68790500Y-41122445D01*
X68662445Y-41250500D01*
X68662441Y-41250505D01*
X68556006Y-41397002D01*
X68473788Y-41558360D01*
X68473787Y-41558363D01*
X68417829Y-41730589D01*
X68396973Y-41862266D01*
X68367044Y-41925401D01*
X68307732Y-41962332D01*
X68237869Y-41961334D01*
X68179637Y-41922724D01*
X68151523Y-41858760D01*
X68150500Y-41842868D01*
X68150500Y-41030249D01*
X68150499Y-41030247D01*
X68138868Y-40971770D01*
X68138867Y-40971769D01*
X68094552Y-40905447D01*
X68028230Y-40861132D01*
X68028229Y-40861131D01*
X67969752Y-40849500D01*
X67969748Y-40849500D01*
X66030252Y-40849500D01*
X66030247Y-40849500D01*
X65971770Y-40861131D01*
X65971769Y-40861132D01*
X65905447Y-40905447D01*
X65861132Y-40971769D01*
X65861131Y-40971770D01*
X65849500Y-41030247D01*
X65849500Y-42969752D01*
X65861131Y-43028229D01*
X65861132Y-43028230D01*
X65905447Y-43094552D01*
X65971769Y-43138867D01*
X65971770Y-43138868D01*
X66030247Y-43150499D01*
X66030250Y-43150500D01*
X66030252Y-43150500D01*
X67969750Y-43150500D01*
X67969751Y-43150499D01*
X67984568Y-43147552D01*
X68028229Y-43138868D01*
X68028229Y-43138867D01*
X68028231Y-43138867D01*
X68094552Y-43094552D01*
X68138867Y-43028231D01*
X68138867Y-43028229D01*
X68138868Y-43028229D01*
X68150499Y-42969752D01*
X68150500Y-42969750D01*
X68150500Y-42157131D01*
X68170185Y-42090092D01*
X68222989Y-42044337D01*
X68292147Y-42034393D01*
X68355703Y-42063418D01*
X68393477Y-42122196D01*
X68396973Y-42137733D01*
X68417829Y-42269410D01*
X68473787Y-42441636D01*
X68473788Y-42441639D01*
X68509904Y-42512518D01*
X68554459Y-42599962D01*
X68556006Y-42602997D01*
X68662441Y-42749494D01*
X68662445Y-42749499D01*
X68790500Y-42877554D01*
X68790505Y-42877558D01*
X68909375Y-42963921D01*
X68937006Y-42983996D01*
X69039220Y-43036077D01*
X69098360Y-43066211D01*
X69098363Y-43066212D01*
X69155733Y-43084852D01*
X69270591Y-43122171D01*
X69353429Y-43135291D01*
X69449449Y-43150500D01*
X69449454Y-43150500D01*
X69630551Y-43150500D01*
X69717259Y-43136765D01*
X69809409Y-43122171D01*
X69981639Y-43066211D01*
X70142994Y-42983996D01*
X70289501Y-42877553D01*
X70417553Y-42749501D01*
X70523996Y-42602994D01*
X70606211Y-42441639D01*
X70662171Y-42269409D01*
X70679954Y-42157131D01*
X70687527Y-42109321D01*
X70717456Y-42046186D01*
X70776768Y-42009255D01*
X70846630Y-42010253D01*
X70904863Y-42048863D01*
X70932473Y-42109321D01*
X70957829Y-42269410D01*
X71013787Y-42441636D01*
X71013788Y-42441639D01*
X71049904Y-42512518D01*
X71094459Y-42599962D01*
X71096006Y-42602997D01*
X71202441Y-42749494D01*
X71202445Y-42749499D01*
X71330500Y-42877554D01*
X71330505Y-42877558D01*
X71449375Y-42963921D01*
X71477006Y-42983996D01*
X71579220Y-43036077D01*
X71638360Y-43066211D01*
X71638364Y-43066212D01*
X71668815Y-43076106D01*
X71726491Y-43115540D01*
X71753691Y-43179898D01*
X71754500Y-43194037D01*
X71754500Y-63089210D01*
X71734815Y-63156249D01*
X71718181Y-63176891D01*
X54989055Y-79906016D01*
X54927732Y-79939501D01*
X54858040Y-79934517D01*
X54802107Y-79892645D01*
X54779757Y-79842526D01*
X54767058Y-79778685D01*
X54750130Y-79693580D01*
X54670941Y-79502402D01*
X54555977Y-79330345D01*
X54555975Y-79330342D01*
X54409657Y-79184024D01*
X54272222Y-79092194D01*
X54237598Y-79069059D01*
X54218516Y-79061155D01*
X54046420Y-78989870D01*
X54046412Y-78989868D01*
X53843469Y-78949500D01*
X53843465Y-78949500D01*
X53636535Y-78949500D01*
X53636530Y-78949500D01*
X53433587Y-78989868D01*
X53433575Y-78989871D01*
X53338028Y-79029448D01*
X53268559Y-79036917D01*
X53206080Y-79005641D01*
X53202895Y-79002568D01*
X47800773Y-73600446D01*
X47767288Y-73539123D01*
X47772272Y-73469431D01*
X47814144Y-73413498D01*
X47826454Y-73405378D01*
X47840262Y-73397405D01*
X47940715Y-73339409D01*
X48043209Y-73236915D01*
X48115684Y-73111385D01*
X48153200Y-72971375D01*
X48153200Y-72826425D01*
X48115684Y-72686415D01*
X48113570Y-72682754D01*
X48043211Y-72560888D01*
X48043210Y-72560887D01*
X48043209Y-72560885D01*
X47964518Y-72482194D01*
X47931034Y-72420870D01*
X47928200Y-72394513D01*
X47928200Y-60000387D01*
X47936844Y-59970946D01*
X47943368Y-59940960D01*
X47947122Y-59935944D01*
X47947885Y-59933348D01*
X47963936Y-59913428D01*
X49900000Y-59913428D01*
X49900000Y-60086571D01*
X49927085Y-60257584D01*
X49980591Y-60422257D01*
X50059195Y-60576523D01*
X50059196Y-60576525D01*
X50093463Y-60623691D01*
X50093464Y-60623691D01*
X50613629Y-60103527D01*
X50627259Y-60154394D01*
X50679920Y-60245606D01*
X50754394Y-60320080D01*
X50845606Y-60372741D01*
X50896471Y-60386370D01*
X50376307Y-60906534D01*
X50423478Y-60940805D01*
X50577742Y-61019408D01*
X50742415Y-61072914D01*
X50913429Y-61100000D01*
X51086571Y-61100000D01*
X51257584Y-61072914D01*
X51422257Y-61019408D01*
X51576525Y-60940803D01*
X51623691Y-60906534D01*
X51623692Y-60906533D01*
X51103529Y-60386370D01*
X51154394Y-60372741D01*
X51245606Y-60320080D01*
X51320080Y-60245606D01*
X51372741Y-60154394D01*
X51386370Y-60103528D01*
X51906533Y-60623692D01*
X51906534Y-60623691D01*
X51940803Y-60576525D01*
X52019408Y-60422257D01*
X52072914Y-60257584D01*
X52100000Y-60086571D01*
X52100000Y-59913428D01*
X52072914Y-59742415D01*
X52019408Y-59577742D01*
X51940805Y-59423478D01*
X51906534Y-59376307D01*
X51386370Y-59896471D01*
X51372741Y-59845606D01*
X51320080Y-59754394D01*
X51245606Y-59679920D01*
X51154394Y-59627259D01*
X51103527Y-59613629D01*
X51623691Y-59093464D01*
X51623691Y-59093463D01*
X51576525Y-59059196D01*
X51576523Y-59059195D01*
X51422257Y-58980591D01*
X51257584Y-58927085D01*
X51086571Y-58900000D01*
X50913429Y-58900000D01*
X50742415Y-58927085D01*
X50577740Y-58980592D01*
X50423475Y-59059196D01*
X50376307Y-59093463D01*
X50376307Y-59093464D01*
X50896472Y-59613629D01*
X50845606Y-59627259D01*
X50754394Y-59679920D01*
X50679920Y-59754394D01*
X50627259Y-59845606D01*
X50613629Y-59896472D01*
X50093464Y-59376307D01*
X50093463Y-59376307D01*
X50059196Y-59423475D01*
X49980592Y-59577740D01*
X49927085Y-59742415D01*
X49900000Y-59913428D01*
X47963936Y-59913428D01*
X47964514Y-59912711D01*
X51778682Y-56098543D01*
X54999499Y-56098543D01*
X55037947Y-56291829D01*
X55037950Y-56291839D01*
X55113364Y-56473907D01*
X55113371Y-56473920D01*
X55222860Y-56637781D01*
X55222863Y-56637785D01*
X55362214Y-56777136D01*
X55362218Y-56777139D01*
X55526079Y-56886628D01*
X55526092Y-56886635D01*
X55708160Y-56962049D01*
X55708165Y-56962051D01*
X55708169Y-56962051D01*
X55708170Y-56962052D01*
X55901456Y-57000500D01*
X55901459Y-57000500D01*
X56098543Y-57000500D01*
X56228582Y-56974632D01*
X56291835Y-56962051D01*
X56473914Y-56886632D01*
X56637782Y-56777139D01*
X56777139Y-56637782D01*
X56886632Y-56473914D01*
X56962051Y-56291835D01*
X57000500Y-56098543D01*
X57539499Y-56098543D01*
X57577947Y-56291829D01*
X57577950Y-56291839D01*
X57653364Y-56473907D01*
X57653371Y-56473920D01*
X57762860Y-56637781D01*
X57762863Y-56637785D01*
X57902214Y-56777136D01*
X57902218Y-56777139D01*
X58066079Y-56886628D01*
X58066092Y-56886635D01*
X58248160Y-56962049D01*
X58248165Y-56962051D01*
X58248169Y-56962051D01*
X58248170Y-56962052D01*
X58441456Y-57000500D01*
X58441459Y-57000500D01*
X58638543Y-57000500D01*
X58768582Y-56974632D01*
X58831835Y-56962051D01*
X59013914Y-56886632D01*
X59177782Y-56777139D01*
X59317139Y-56637782D01*
X59426632Y-56473914D01*
X59502051Y-56291835D01*
X59540500Y-56098541D01*
X59540500Y-55901459D01*
X59540500Y-55901456D01*
X59502052Y-55708170D01*
X59502051Y-55708169D01*
X59502051Y-55708165D01*
X59481182Y-55657782D01*
X59426635Y-55526092D01*
X59426628Y-55526079D01*
X59317139Y-55362218D01*
X59317136Y-55362214D01*
X59177785Y-55222863D01*
X59177781Y-55222860D01*
X59013920Y-55113371D01*
X59013907Y-55113364D01*
X58831839Y-55037950D01*
X58831829Y-55037947D01*
X58638543Y-54999500D01*
X58638541Y-54999500D01*
X58441459Y-54999500D01*
X58441457Y-54999500D01*
X58248170Y-55037947D01*
X58248160Y-55037950D01*
X58066092Y-55113364D01*
X58066079Y-55113371D01*
X57902218Y-55222860D01*
X57902214Y-55222863D01*
X57762863Y-55362214D01*
X57762860Y-55362218D01*
X57653371Y-55526079D01*
X57653364Y-55526092D01*
X57577950Y-55708160D01*
X57577947Y-55708170D01*
X57539500Y-55901456D01*
X57539500Y-55901459D01*
X57539500Y-56098541D01*
X57539500Y-56098543D01*
X57539499Y-56098543D01*
X57000500Y-56098543D01*
X57000500Y-56098541D01*
X57000500Y-55901459D01*
X57000500Y-55901456D01*
X56962052Y-55708170D01*
X56962051Y-55708169D01*
X56962051Y-55708165D01*
X56941182Y-55657782D01*
X56886635Y-55526092D01*
X56886628Y-55526079D01*
X56777139Y-55362218D01*
X56777136Y-55362214D01*
X56637785Y-55222863D01*
X56637781Y-55222860D01*
X56473920Y-55113371D01*
X56473907Y-55113364D01*
X56291839Y-55037950D01*
X56291829Y-55037947D01*
X56098543Y-54999500D01*
X56098541Y-54999500D01*
X55901459Y-54999500D01*
X55901457Y-54999500D01*
X55708170Y-55037947D01*
X55708160Y-55037950D01*
X55526092Y-55113364D01*
X55526079Y-55113371D01*
X55362218Y-55222860D01*
X55362214Y-55222863D01*
X55222863Y-55362214D01*
X55222860Y-55362218D01*
X55113371Y-55526079D01*
X55113364Y-55526092D01*
X55037950Y-55708160D01*
X55037947Y-55708170D01*
X54999500Y-55901456D01*
X54999500Y-55901459D01*
X54999500Y-56098541D01*
X54999500Y-56098543D01*
X54999499Y-56098543D01*
X51778682Y-56098543D01*
X53964759Y-53912466D01*
X53964762Y-53912465D01*
X54025365Y-53851862D01*
X54055228Y-53800138D01*
X54068218Y-53777639D01*
X54090400Y-53694853D01*
X54090400Y-53609147D01*
X54090400Y-46421288D01*
X54110085Y-46354249D01*
X54126719Y-46333607D01*
X54805596Y-45654730D01*
X55501165Y-44959160D01*
X55562486Y-44925677D01*
X55632178Y-44930661D01*
X55636270Y-44932271D01*
X55708165Y-44962051D01*
X55708169Y-44962051D01*
X55708170Y-44962052D01*
X55901456Y-45000500D01*
X56001310Y-45000500D01*
X56068349Y-45020185D01*
X56114104Y-45072989D01*
X56124048Y-45142147D01*
X56095023Y-45205703D01*
X56088991Y-45212181D01*
X55739537Y-45561635D01*
X55739533Y-45561641D01*
X55696681Y-45635861D01*
X55696682Y-45635862D01*
X55674500Y-45718647D01*
X55674500Y-48969038D01*
X55654815Y-49036077D01*
X55602011Y-49081832D01*
X55597953Y-49083599D01*
X55526089Y-49113366D01*
X55526079Y-49113371D01*
X55362218Y-49222860D01*
X55362214Y-49222863D01*
X55222863Y-49362214D01*
X55222860Y-49362218D01*
X55113371Y-49526079D01*
X55113364Y-49526092D01*
X55037950Y-49708160D01*
X55037947Y-49708170D01*
X54999500Y-49901456D01*
X54999500Y-49901459D01*
X54999500Y-50098541D01*
X54999500Y-50098543D01*
X54999499Y-50098543D01*
X55037947Y-50291829D01*
X55037950Y-50291839D01*
X55113364Y-50473907D01*
X55113371Y-50473920D01*
X55222860Y-50637781D01*
X55222863Y-50637785D01*
X55362214Y-50777136D01*
X55362218Y-50777139D01*
X55526079Y-50886628D01*
X55526092Y-50886635D01*
X55708160Y-50962049D01*
X55708165Y-50962051D01*
X55708169Y-50962051D01*
X55708170Y-50962052D01*
X55901456Y-51000500D01*
X55901459Y-51000500D01*
X56098543Y-51000500D01*
X56228582Y-50974632D01*
X56291835Y-50962051D01*
X56473914Y-50886632D01*
X56637782Y-50777139D01*
X56777139Y-50637782D01*
X56886632Y-50473914D01*
X56962051Y-50291835D01*
X57000500Y-50098543D01*
X57539499Y-50098543D01*
X57577947Y-50291829D01*
X57577950Y-50291839D01*
X57653364Y-50473907D01*
X57653371Y-50473920D01*
X57762860Y-50637781D01*
X57762863Y-50637785D01*
X57902214Y-50777136D01*
X57902218Y-50777139D01*
X58066079Y-50886628D01*
X58066092Y-50886635D01*
X58248160Y-50962049D01*
X58248165Y-50962051D01*
X58248169Y-50962051D01*
X58248170Y-50962052D01*
X58441456Y-51000500D01*
X58441459Y-51000500D01*
X58638543Y-51000500D01*
X58768582Y-50974632D01*
X58831835Y-50962051D01*
X59013914Y-50886632D01*
X59177782Y-50777139D01*
X59317139Y-50637782D01*
X59426632Y-50473914D01*
X59502051Y-50291835D01*
X59540500Y-50098541D01*
X59540500Y-49901459D01*
X59540500Y-49901456D01*
X59502052Y-49708170D01*
X59502051Y-49708169D01*
X59502051Y-49708165D01*
X59490484Y-49680239D01*
X59426635Y-49526092D01*
X59426628Y-49526079D01*
X59317139Y-49362218D01*
X59317136Y-49362214D01*
X59177785Y-49222863D01*
X59177781Y-49222860D01*
X59013920Y-49113371D01*
X59013907Y-49113364D01*
X58831839Y-49037950D01*
X58831829Y-49037947D01*
X58638543Y-48999500D01*
X58638541Y-48999500D01*
X58441459Y-48999500D01*
X58441457Y-48999500D01*
X58248170Y-49037947D01*
X58248160Y-49037950D01*
X58066092Y-49113364D01*
X58066079Y-49113371D01*
X57902218Y-49222860D01*
X57902214Y-49222863D01*
X57762863Y-49362214D01*
X57762860Y-49362218D01*
X57653371Y-49526079D01*
X57653364Y-49526092D01*
X57577950Y-49708160D01*
X57577947Y-49708170D01*
X57539500Y-49901456D01*
X57539500Y-49901459D01*
X57539500Y-50098541D01*
X57539500Y-50098543D01*
X57539499Y-50098543D01*
X57000500Y-50098543D01*
X57000500Y-50098541D01*
X57000500Y-49901459D01*
X57000500Y-49901456D01*
X56962052Y-49708170D01*
X56962051Y-49708169D01*
X56962051Y-49708165D01*
X56950484Y-49680239D01*
X56886635Y-49526092D01*
X56886628Y-49526079D01*
X56777139Y-49362218D01*
X56777136Y-49362214D01*
X56637785Y-49222863D01*
X56637781Y-49222860D01*
X56473920Y-49113371D01*
X56473910Y-49113366D01*
X56402047Y-49083599D01*
X56347643Y-49039757D01*
X56325579Y-48973463D01*
X56325500Y-48969038D01*
X56325500Y-45947688D01*
X56345185Y-45880649D01*
X56361814Y-45860012D01*
X57560293Y-44661533D01*
X57621612Y-44628051D01*
X57629651Y-44627504D01*
X58153629Y-44103527D01*
X58167259Y-44154394D01*
X58219920Y-44245606D01*
X58294394Y-44320080D01*
X58385606Y-44372741D01*
X58436471Y-44386370D01*
X57916307Y-44906534D01*
X57963478Y-44940805D01*
X58117742Y-45019408D01*
X58282415Y-45072914D01*
X58453429Y-45100000D01*
X58626571Y-45100000D01*
X58797584Y-45072914D01*
X58962257Y-45019408D01*
X59116525Y-44940803D01*
X59163691Y-44906534D01*
X59163692Y-44906533D01*
X58643529Y-44386370D01*
X58694394Y-44372741D01*
X58785606Y-44320080D01*
X58860080Y-44245606D01*
X58912741Y-44154394D01*
X58926370Y-44103528D01*
X59446533Y-44623692D01*
X59446534Y-44623691D01*
X59480803Y-44576525D01*
X59559408Y-44422257D01*
X59612914Y-44257584D01*
X59640000Y-44086571D01*
X59640000Y-43913428D01*
X59612914Y-43742415D01*
X59559408Y-43577742D01*
X59480805Y-43423478D01*
X59446534Y-43376307D01*
X58926370Y-43896471D01*
X58912741Y-43845606D01*
X58860080Y-43754394D01*
X58785606Y-43679920D01*
X58694394Y-43627259D01*
X58643527Y-43613629D01*
X59163691Y-43093464D01*
X59163691Y-43093463D01*
X59116525Y-43059196D01*
X59116523Y-43059195D01*
X58962257Y-42980591D01*
X58797584Y-42927085D01*
X58626571Y-42900000D01*
X58453429Y-42900000D01*
X58282415Y-42927085D01*
X58117742Y-42980591D01*
X57963473Y-43059197D01*
X57933983Y-43080622D01*
X57922123Y-43084852D01*
X57912611Y-43093096D01*
X57889843Y-43096369D01*
X57868176Y-43104100D01*
X57855914Y-43101248D01*
X57843453Y-43103040D01*
X57822527Y-43093483D01*
X57800123Y-43088273D01*
X57791349Y-43079245D01*
X57779897Y-43074015D01*
X57767460Y-43054663D01*
X57751429Y-43038167D01*
X57748025Y-43024420D01*
X57742123Y-43015237D01*
X57737100Y-42980302D01*
X57737100Y-42911789D01*
X57756785Y-42844750D01*
X57773419Y-42824108D01*
X58809819Y-41787708D01*
X59881365Y-40716162D01*
X59924218Y-40641939D01*
X59946400Y-40559153D01*
X59946400Y-40473447D01*
X59946400Y-37487295D01*
X59946402Y-37430158D01*
X59946400Y-37430150D01*
X59946400Y-37430147D01*
X59938115Y-37399228D01*
X59924222Y-37347371D01*
X59924219Y-37347365D01*
X59924218Y-37347362D01*
X59904909Y-37313918D01*
X59901035Y-37307208D01*
X59883205Y-37276320D01*
X59881737Y-37273591D01*
X59881500Y-37273273D01*
X59850155Y-37241928D01*
X59210482Y-36602214D01*
X58621993Y-36013687D01*
X58588511Y-35952364D01*
X58593498Y-35882673D01*
X58621994Y-35838331D01*
X58760465Y-35699862D01*
X58803318Y-35625639D01*
X58825500Y-35542853D01*
X58825500Y-35457147D01*
X58825500Y-32030960D01*
X58845185Y-31963921D01*
X58897989Y-31918166D01*
X58902005Y-31916417D01*
X58973914Y-31886632D01*
X59137782Y-31777139D01*
X59277139Y-31637782D01*
X59386632Y-31473914D01*
X59462051Y-31291835D01*
X59480727Y-31197947D01*
X59500500Y-31098543D01*
X59500500Y-30901456D01*
X59462052Y-30708170D01*
X59462051Y-30708169D01*
X59462051Y-30708165D01*
X59432897Y-30637781D01*
X59386635Y-30526092D01*
X59386628Y-30526079D01*
X59277139Y-30362218D01*
X59277136Y-30362214D01*
X59137785Y-30222863D01*
X59137781Y-30222860D01*
X58973920Y-30113371D01*
X58973907Y-30113364D01*
X58791839Y-30037950D01*
X58791829Y-30037947D01*
X58598543Y-29999500D01*
X58598541Y-29999500D01*
X58401459Y-29999500D01*
X58401457Y-29999500D01*
X58208170Y-30037947D01*
X58208160Y-30037950D01*
X58026092Y-30113364D01*
X58026079Y-30113371D01*
X57862218Y-30222860D01*
X57862214Y-30222863D01*
X57722863Y-30362214D01*
X57722860Y-30362218D01*
X57613371Y-30526079D01*
X57613364Y-30526092D01*
X57537950Y-30708160D01*
X57537947Y-30708170D01*
X57499500Y-30901456D01*
X57499500Y-30901459D01*
X57499500Y-31098541D01*
X57499500Y-31098543D01*
X57499499Y-31098543D01*
X57537947Y-31291829D01*
X57537950Y-31291839D01*
X57613364Y-31473907D01*
X57613371Y-31473920D01*
X57722860Y-31637781D01*
X57722863Y-31637785D01*
X57862217Y-31777139D01*
X58004412Y-31872150D01*
X58026086Y-31886632D01*
X58097953Y-31916399D01*
X58152355Y-31960239D01*
X58174421Y-32026533D01*
X58174500Y-32030960D01*
X58174500Y-35313811D01*
X58154815Y-35380850D01*
X58138181Y-35401492D01*
X57874138Y-35665535D01*
X57831508Y-35708165D01*
X57813542Y-35726130D01*
X57813540Y-35726132D01*
X57813538Y-35726133D01*
X57813537Y-35726134D01*
X56498835Y-37040836D01*
X56437512Y-37074321D01*
X56367820Y-37069337D01*
X56363703Y-37067717D01*
X56348809Y-37061548D01*
X56291835Y-37037949D01*
X56291831Y-37037948D01*
X56291828Y-37037947D01*
X56098543Y-36999500D01*
X56098541Y-36999500D01*
X55901459Y-36999500D01*
X55901457Y-36999500D01*
X55708170Y-37037947D01*
X55708160Y-37037950D01*
X55526092Y-37113364D01*
X55526079Y-37113371D01*
X55362218Y-37222860D01*
X55362214Y-37222863D01*
X55222863Y-37362214D01*
X55222860Y-37362218D01*
X55113371Y-37526079D01*
X55113364Y-37526092D01*
X55037950Y-37708160D01*
X55037947Y-37708170D01*
X54999500Y-37901456D01*
X54999500Y-37901459D01*
X54999500Y-38098541D01*
X54999500Y-38098543D01*
X54999499Y-38098543D01*
X55037947Y-38291829D01*
X55037950Y-38291839D01*
X55113364Y-38473907D01*
X55113371Y-38473920D01*
X55222860Y-38637781D01*
X55222863Y-38637785D01*
X55362214Y-38777136D01*
X55362218Y-38777139D01*
X55526079Y-38886628D01*
X55526092Y-38886635D01*
X55699300Y-38958379D01*
X55708165Y-38962051D01*
X55708169Y-38962051D01*
X55708170Y-38962052D01*
X55901456Y-39000500D01*
X55901459Y-39000500D01*
X56098543Y-39000500D01*
X56228582Y-38974632D01*
X56291835Y-38962051D01*
X56473914Y-38886632D01*
X56637782Y-38777139D01*
X56777139Y-38637782D01*
X56886632Y-38473914D01*
X56962051Y-38291835D01*
X56994912Y-38126635D01*
X57000500Y-38098543D01*
X57000500Y-37901456D01*
X56962052Y-37708170D01*
X56962051Y-37708169D01*
X56962051Y-37708165D01*
X56932281Y-37636295D01*
X56924813Y-37566828D01*
X56956088Y-37504348D01*
X56959134Y-37501191D01*
X57986310Y-36474015D01*
X58047631Y-36440532D01*
X58117323Y-36445516D01*
X58161671Y-36474018D01*
X58325423Y-36637781D01*
X58482335Y-36794703D01*
X58515818Y-36856027D01*
X58510831Y-36925718D01*
X58468958Y-36981651D01*
X58418843Y-37003998D01*
X58248170Y-37037947D01*
X58248160Y-37037950D01*
X58066092Y-37113364D01*
X58066079Y-37113371D01*
X57902218Y-37222860D01*
X57902214Y-37222863D01*
X57762863Y-37362214D01*
X57762860Y-37362218D01*
X57653371Y-37526079D01*
X57653364Y-37526092D01*
X57577950Y-37708160D01*
X57577947Y-37708170D01*
X57539500Y-37901456D01*
X57539500Y-37901459D01*
X57539500Y-38098541D01*
X57539500Y-38098543D01*
X57539499Y-38098543D01*
X57577947Y-38291828D01*
X57577948Y-38291831D01*
X57577949Y-38291835D01*
X57577951Y-38291839D01*
X57607717Y-38363703D01*
X57615184Y-38433173D01*
X57583909Y-38495651D01*
X57580836Y-38498835D01*
X55739537Y-40340135D01*
X55739533Y-40340141D01*
X55696681Y-40414362D01*
X55696680Y-40414364D01*
X55691077Y-40435278D01*
X55691077Y-40435280D01*
X55674500Y-40497147D01*
X55674500Y-42969038D01*
X55654815Y-43036077D01*
X55602011Y-43081832D01*
X55597953Y-43083599D01*
X55526089Y-43113366D01*
X55526079Y-43113371D01*
X55362218Y-43222860D01*
X55362214Y-43222863D01*
X55222863Y-43362214D01*
X55222860Y-43362218D01*
X55113371Y-43526079D01*
X55113364Y-43526092D01*
X55037950Y-43708160D01*
X55037947Y-43708170D01*
X54999500Y-43901456D01*
X54999500Y-43901459D01*
X54999500Y-44098541D01*
X54999500Y-44098543D01*
X54999499Y-44098543D01*
X55037947Y-44291828D01*
X55037948Y-44291831D01*
X55037949Y-44291835D01*
X55061548Y-44348809D01*
X55067717Y-44363703D01*
X55075184Y-44433173D01*
X55043909Y-44495651D01*
X55040836Y-44498835D01*
X53522581Y-46017091D01*
X53461258Y-46050576D01*
X53391566Y-46045592D01*
X53335633Y-46003720D01*
X53311216Y-45938256D01*
X53310900Y-45929410D01*
X53310900Y-34200789D01*
X53330585Y-34133750D01*
X53347219Y-34113108D01*
X55423508Y-32036819D01*
X55484831Y-32003334D01*
X55511189Y-32000500D01*
X56604270Y-32000500D01*
X56634699Y-31997646D01*
X56634701Y-31997646D01*
X56698790Y-31975219D01*
X56762882Y-31952793D01*
X56872150Y-31872150D01*
X56952793Y-31762882D01*
X56979665Y-31686086D01*
X56997646Y-31634701D01*
X56997646Y-31634699D01*
X57000500Y-31604269D01*
X57000500Y-30395730D01*
X56997646Y-30365300D01*
X56997646Y-30365298D01*
X56960025Y-30257785D01*
X56952793Y-30237118D01*
X56872150Y-30127850D01*
X56762882Y-30047207D01*
X56762880Y-30047206D01*
X56634700Y-30002353D01*
X56604270Y-29999500D01*
X56604266Y-29999500D01*
X55395734Y-29999500D01*
X55395730Y-29999500D01*
X55365300Y-30002353D01*
X55365298Y-30002353D01*
X55237119Y-30047206D01*
X55237117Y-30047207D01*
X55127850Y-30127850D01*
X55047207Y-30237117D01*
X55047206Y-30237119D01*
X55002353Y-30365298D01*
X55002353Y-30365300D01*
X54999500Y-30395730D01*
X54999500Y-31488811D01*
X54979815Y-31555850D01*
X54963181Y-31576492D01*
X52724937Y-33814735D01*
X52724935Y-33814738D01*
X52682082Y-33888959D01*
X52659900Y-33971747D01*
X52659900Y-49368410D01*
X52640215Y-49435449D01*
X52623581Y-49456091D01*
X49038835Y-53040836D01*
X48977512Y-53074321D01*
X48907820Y-53069337D01*
X48903703Y-53067717D01*
X48888809Y-53061548D01*
X48831835Y-53037949D01*
X48831831Y-53037948D01*
X48831828Y-53037947D01*
X48638543Y-52999500D01*
X48638541Y-52999500D01*
X48441459Y-52999500D01*
X48441457Y-52999500D01*
X48248170Y-53037947D01*
X48248160Y-53037950D01*
X48066092Y-53113364D01*
X48066079Y-53113371D01*
X47902218Y-53222860D01*
X47902214Y-53222863D01*
X47762863Y-53362214D01*
X47762860Y-53362218D01*
X47653371Y-53526079D01*
X47653364Y-53526092D01*
X47577950Y-53708160D01*
X47577947Y-53708170D01*
X47539500Y-53901456D01*
X47539500Y-53901459D01*
X47539500Y-54098541D01*
X47539500Y-54098543D01*
X47539499Y-54098543D01*
X47577947Y-54291829D01*
X47577950Y-54291839D01*
X47653364Y-54473907D01*
X47653371Y-54473920D01*
X47762860Y-54637781D01*
X47762863Y-54637785D01*
X47902217Y-54777139D01*
X48066080Y-54886628D01*
X48066086Y-54886632D01*
X48137953Y-54916399D01*
X48192355Y-54960239D01*
X48214421Y-55026533D01*
X48214500Y-55030960D01*
X48214500Y-57273810D01*
X48194815Y-57340849D01*
X48178181Y-57361491D01*
X46498835Y-59040836D01*
X46437512Y-59074321D01*
X46367820Y-59069337D01*
X46363703Y-59067717D01*
X46328273Y-59053042D01*
X46291835Y-59037949D01*
X46291831Y-59037948D01*
X46291828Y-59037947D01*
X46098543Y-58999500D01*
X46098541Y-58999500D01*
X45901459Y-58999500D01*
X45901457Y-58999500D01*
X45708170Y-59037947D01*
X45708160Y-59037950D01*
X45526092Y-59113364D01*
X45526079Y-59113371D01*
X45362218Y-59222860D01*
X45362214Y-59222863D01*
X45222863Y-59362214D01*
X45222860Y-59362218D01*
X45113371Y-59526079D01*
X45113364Y-59526092D01*
X45037950Y-59708160D01*
X45037947Y-59708170D01*
X44999500Y-59901456D01*
X44999500Y-59901459D01*
X44999500Y-60098541D01*
X44999500Y-60098543D01*
X44999499Y-60098543D01*
X45037947Y-60291829D01*
X45037950Y-60291839D01*
X45113364Y-60473907D01*
X45113371Y-60473920D01*
X45222860Y-60637781D01*
X45222863Y-60637785D01*
X45362214Y-60777136D01*
X45362218Y-60777139D01*
X45526079Y-60886628D01*
X45526092Y-60886635D01*
X45708160Y-60962049D01*
X45708165Y-60962051D01*
X45708169Y-60962051D01*
X45708170Y-60962052D01*
X45901456Y-61000500D01*
X45901459Y-61000500D01*
X46098543Y-61000500D01*
X46228582Y-60974632D01*
X46291835Y-60962051D01*
X46473914Y-60886632D01*
X46637782Y-60777139D01*
X46777139Y-60637782D01*
X46886632Y-60473914D01*
X46962051Y-60291835D01*
X47000500Y-60098541D01*
X47000500Y-59901459D01*
X47000500Y-59901456D01*
X46962052Y-59708170D01*
X46962051Y-59708169D01*
X46962051Y-59708165D01*
X46932281Y-59636295D01*
X46924813Y-59566828D01*
X46956088Y-59504348D01*
X46959133Y-59501192D01*
X48800465Y-57659862D01*
X48809540Y-57644141D01*
X48835156Y-57599776D01*
X48843317Y-57585639D01*
X48843318Y-57585638D01*
X48865500Y-57502853D01*
X48865500Y-55030960D01*
X48885185Y-54963921D01*
X48937989Y-54918166D01*
X48942005Y-54916417D01*
X49013914Y-54886632D01*
X49177782Y-54777139D01*
X49317139Y-54637782D01*
X49426632Y-54473914D01*
X49502051Y-54291835D01*
X49515000Y-54226739D01*
X49540500Y-54098543D01*
X49540500Y-53901456D01*
X49502052Y-53708170D01*
X49502051Y-53708169D01*
X49502051Y-53708165D01*
X49472281Y-53636295D01*
X49464813Y-53566828D01*
X49496088Y-53504348D01*
X49499133Y-53501192D01*
X53227721Y-49772605D01*
X53289042Y-49739122D01*
X53358734Y-49744106D01*
X53414667Y-49785978D01*
X53439084Y-49851442D01*
X53439400Y-49860288D01*
X53439400Y-53465811D01*
X53419715Y-53532850D01*
X53403081Y-53553492D01*
X47342237Y-59614335D01*
X47342233Y-59614341D01*
X47299381Y-59688561D01*
X47299382Y-59688562D01*
X47277200Y-59771347D01*
X47277200Y-72394513D01*
X47257515Y-72461552D01*
X47240882Y-72482194D01*
X47162190Y-72560886D01*
X47162186Y-72560891D01*
X47096220Y-72675146D01*
X47045653Y-72723361D01*
X46977046Y-72736583D01*
X46912181Y-72710615D01*
X46901153Y-72700826D01*
X44769319Y-70568992D01*
X44735834Y-70507669D01*
X44733000Y-70481311D01*
X44733000Y-54098543D01*
X44999499Y-54098543D01*
X45037947Y-54291829D01*
X45037950Y-54291839D01*
X45113364Y-54473907D01*
X45113371Y-54473920D01*
X45222860Y-54637781D01*
X45222863Y-54637785D01*
X45362214Y-54777136D01*
X45362218Y-54777139D01*
X45526079Y-54886628D01*
X45526092Y-54886635D01*
X45703790Y-54960239D01*
X45708165Y-54962051D01*
X45708169Y-54962051D01*
X45708170Y-54962052D01*
X45901456Y-55000500D01*
X45901459Y-55000500D01*
X46098543Y-55000500D01*
X46228582Y-54974632D01*
X46291835Y-54962051D01*
X46473914Y-54886632D01*
X46637782Y-54777139D01*
X46777139Y-54637782D01*
X46886632Y-54473914D01*
X46962051Y-54291835D01*
X46975000Y-54226739D01*
X47000500Y-54098543D01*
X47000500Y-53901456D01*
X46962052Y-53708170D01*
X46962051Y-53708169D01*
X46962051Y-53708165D01*
X46956536Y-53694851D01*
X46886635Y-53526092D01*
X46886628Y-53526079D01*
X46777139Y-53362218D01*
X46777136Y-53362214D01*
X46637785Y-53222863D01*
X46637781Y-53222860D01*
X46473920Y-53113371D01*
X46473907Y-53113364D01*
X46291839Y-53037950D01*
X46291829Y-53037947D01*
X46098543Y-52999500D01*
X46098541Y-52999500D01*
X45901459Y-52999500D01*
X45901457Y-52999500D01*
X45708170Y-53037947D01*
X45708160Y-53037950D01*
X45526092Y-53113364D01*
X45526079Y-53113371D01*
X45362218Y-53222860D01*
X45362214Y-53222863D01*
X45222863Y-53362214D01*
X45222860Y-53362218D01*
X45113371Y-53526079D01*
X45113364Y-53526092D01*
X45037950Y-53708160D01*
X45037947Y-53708170D01*
X44999500Y-53901456D01*
X44999500Y-53901459D01*
X44999500Y-54098541D01*
X44999500Y-54098543D01*
X44999499Y-54098543D01*
X44733000Y-54098543D01*
X44733000Y-48098543D01*
X44999499Y-48098543D01*
X45037947Y-48291829D01*
X45037950Y-48291839D01*
X45113364Y-48473907D01*
X45113371Y-48473920D01*
X45222860Y-48637781D01*
X45222863Y-48637785D01*
X45362214Y-48777136D01*
X45362218Y-48777139D01*
X45526079Y-48886628D01*
X45526092Y-48886635D01*
X45666068Y-48944614D01*
X45708165Y-48962051D01*
X45708169Y-48962051D01*
X45708170Y-48962052D01*
X45901456Y-49000500D01*
X45901459Y-49000500D01*
X46098543Y-49000500D01*
X46256709Y-48969038D01*
X46291835Y-48962051D01*
X46473914Y-48886632D01*
X46637782Y-48777139D01*
X46777139Y-48637782D01*
X46886632Y-48473914D01*
X46962051Y-48291835D01*
X46981412Y-48194502D01*
X47000500Y-48098543D01*
X47000500Y-47901456D01*
X46962052Y-47708170D01*
X46962051Y-47708169D01*
X46962051Y-47708165D01*
X46955287Y-47691835D01*
X46886635Y-47526092D01*
X46886628Y-47526079D01*
X46777139Y-47362218D01*
X46777136Y-47362214D01*
X46637785Y-47222863D01*
X46637781Y-47222860D01*
X46473920Y-47113371D01*
X46473907Y-47113364D01*
X46291839Y-47037950D01*
X46291829Y-47037947D01*
X46098543Y-46999500D01*
X46098541Y-46999500D01*
X45901459Y-46999500D01*
X45901457Y-46999500D01*
X45708170Y-47037947D01*
X45708160Y-47037950D01*
X45526092Y-47113364D01*
X45526079Y-47113371D01*
X45362218Y-47222860D01*
X45362214Y-47222863D01*
X45222863Y-47362214D01*
X45222860Y-47362218D01*
X45113371Y-47526079D01*
X45113364Y-47526092D01*
X45037950Y-47708160D01*
X45037947Y-47708170D01*
X44999500Y-47901456D01*
X44999500Y-47901459D01*
X44999500Y-48098541D01*
X44999500Y-48098543D01*
X44999499Y-48098543D01*
X44733000Y-48098543D01*
X44733000Y-46598689D01*
X44752685Y-46531650D01*
X44769319Y-46511008D01*
X47530463Y-43749864D01*
X47530465Y-43749862D01*
X47536427Y-43739535D01*
X47573318Y-43675638D01*
X47595500Y-43592853D01*
X47595500Y-42769784D01*
X47615185Y-42702745D01*
X47667989Y-42656990D01*
X47737147Y-42647046D01*
X47800703Y-42676071D01*
X47807181Y-42682103D01*
X47902217Y-42777139D01*
X47972512Y-42824108D01*
X48066086Y-42886632D01*
X48137953Y-42916399D01*
X48192355Y-42960239D01*
X48214421Y-43026533D01*
X48214500Y-43030960D01*
X48214500Y-46969038D01*
X48194815Y-47036077D01*
X48142011Y-47081832D01*
X48137953Y-47083599D01*
X48066089Y-47113366D01*
X48066079Y-47113371D01*
X47902218Y-47222860D01*
X47902214Y-47222863D01*
X47762863Y-47362214D01*
X47762860Y-47362218D01*
X47653371Y-47526079D01*
X47653364Y-47526092D01*
X47577950Y-47708160D01*
X47577947Y-47708170D01*
X47539500Y-47901456D01*
X47539500Y-47901459D01*
X47539500Y-48098541D01*
X47539500Y-48098543D01*
X47539499Y-48098543D01*
X47577947Y-48291829D01*
X47577950Y-48291839D01*
X47653364Y-48473907D01*
X47653371Y-48473920D01*
X47762860Y-48637781D01*
X47762863Y-48637785D01*
X47902214Y-48777136D01*
X47902218Y-48777139D01*
X48066079Y-48886628D01*
X48066092Y-48886635D01*
X48206068Y-48944614D01*
X48248165Y-48962051D01*
X48248169Y-48962051D01*
X48248170Y-48962052D01*
X48441456Y-49000500D01*
X48441459Y-49000500D01*
X48638543Y-49000500D01*
X48796709Y-48969038D01*
X48831835Y-48962051D01*
X49013914Y-48886632D01*
X49177782Y-48777139D01*
X49317139Y-48637782D01*
X49426632Y-48473914D01*
X49502051Y-48291835D01*
X49521412Y-48194502D01*
X49540500Y-48098543D01*
X49540500Y-47901456D01*
X49502052Y-47708170D01*
X49502051Y-47708169D01*
X49502051Y-47708165D01*
X49495287Y-47691835D01*
X49426635Y-47526092D01*
X49426628Y-47526079D01*
X49317139Y-47362218D01*
X49317136Y-47362214D01*
X49177785Y-47222863D01*
X49177781Y-47222860D01*
X49013920Y-47113371D01*
X49013910Y-47113366D01*
X48942047Y-47083599D01*
X48887643Y-47039757D01*
X48865579Y-46973463D01*
X48865500Y-46969038D01*
X48865500Y-43030960D01*
X48885185Y-42963921D01*
X48937989Y-42918166D01*
X48942005Y-42916417D01*
X49013914Y-42886632D01*
X49177782Y-42777139D01*
X49317139Y-42637782D01*
X49426632Y-42473914D01*
X49502051Y-42291835D01*
X49540500Y-42098541D01*
X49540500Y-41901459D01*
X49540500Y-41901456D01*
X49502052Y-41708170D01*
X49502051Y-41708169D01*
X49502051Y-41708165D01*
X49493420Y-41687327D01*
X49426635Y-41526092D01*
X49426628Y-41526079D01*
X49317139Y-41362218D01*
X49317136Y-41362214D01*
X49177785Y-41222863D01*
X49177781Y-41222860D01*
X49013920Y-41113371D01*
X49013907Y-41113364D01*
X48831839Y-41037950D01*
X48831829Y-41037947D01*
X48638543Y-40999500D01*
X48638541Y-40999500D01*
X48441459Y-40999500D01*
X48441457Y-40999500D01*
X48248170Y-41037947D01*
X48248160Y-41037950D01*
X48066092Y-41113364D01*
X48066079Y-41113371D01*
X47902218Y-41222860D01*
X47902214Y-41222863D01*
X47807181Y-41317897D01*
X47745858Y-41351382D01*
X47676166Y-41346398D01*
X47620233Y-41304526D01*
X47595816Y-41239062D01*
X47595500Y-41230216D01*
X47595500Y-39916188D01*
X47615185Y-39849149D01*
X47631819Y-39828507D01*
X49027153Y-38433173D01*
X50501165Y-36959160D01*
X50562486Y-36925677D01*
X50632178Y-36930661D01*
X50636270Y-36932271D01*
X50708165Y-36962051D01*
X50708169Y-36962051D01*
X50708170Y-36962052D01*
X50901456Y-37000500D01*
X50901459Y-37000500D01*
X51098543Y-37000500D01*
X51228582Y-36974632D01*
X51291835Y-36962051D01*
X51473914Y-36886632D01*
X51637782Y-36777139D01*
X51777139Y-36637782D01*
X51886632Y-36473914D01*
X51891210Y-36462863D01*
X51907145Y-36424391D01*
X51962051Y-36291835D01*
X52000500Y-36098541D01*
X52000500Y-35901459D01*
X52000500Y-35901456D01*
X51962052Y-35708170D01*
X51962051Y-35708169D01*
X51962051Y-35708165D01*
X51934149Y-35640803D01*
X51886635Y-35526092D01*
X51886628Y-35526079D01*
X51777139Y-35362218D01*
X51777136Y-35362214D01*
X51637785Y-35222863D01*
X51637781Y-35222860D01*
X51473920Y-35113371D01*
X51473910Y-35113366D01*
X51402047Y-35083599D01*
X51347643Y-35039757D01*
X51325579Y-34973463D01*
X51325500Y-34969038D01*
X51325500Y-31030960D01*
X51345185Y-30963921D01*
X51397989Y-30918166D01*
X51402005Y-30916417D01*
X51473914Y-30886632D01*
X51637782Y-30777139D01*
X51777139Y-30637782D01*
X51886632Y-30473914D01*
X51962051Y-30291835D01*
X51997551Y-30113368D01*
X52000500Y-30098543D01*
X52000500Y-29901456D01*
X51962052Y-29708170D01*
X51962051Y-29708169D01*
X51962051Y-29708165D01*
X51962049Y-29708160D01*
X51886635Y-29526092D01*
X51886628Y-29526079D01*
X51777139Y-29362218D01*
X51777136Y-29362214D01*
X51637785Y-29222863D01*
X51637781Y-29222860D01*
X51473920Y-29113371D01*
X51473907Y-29113364D01*
X51291839Y-29037950D01*
X51291829Y-29037947D01*
X51098543Y-28999500D01*
X51098541Y-28999500D01*
X50901459Y-28999500D01*
X50901457Y-28999500D01*
X50708170Y-29037947D01*
X50708160Y-29037950D01*
X50526092Y-29113364D01*
X50526079Y-29113371D01*
X50362218Y-29222860D01*
X50362214Y-29222863D01*
X50222863Y-29362214D01*
X50222860Y-29362218D01*
X50113371Y-29526079D01*
X50113364Y-29526092D01*
X50037950Y-29708160D01*
X50037947Y-29708170D01*
X49999500Y-29901456D01*
X49999500Y-29901459D01*
X49999500Y-30098541D01*
X49999500Y-30098543D01*
X49999499Y-30098543D01*
X50037947Y-30291829D01*
X50037950Y-30291839D01*
X50113364Y-30473907D01*
X50113371Y-30473920D01*
X50222860Y-30637781D01*
X50222863Y-30637785D01*
X50362217Y-30777139D01*
X50526080Y-30886628D01*
X50526086Y-30886632D01*
X50597953Y-30916399D01*
X50652355Y-30960239D01*
X50674421Y-31026533D01*
X50674500Y-31030960D01*
X50674500Y-34969038D01*
X50654815Y-35036077D01*
X50602011Y-35081832D01*
X50597953Y-35083599D01*
X50526089Y-35113366D01*
X50526079Y-35113371D01*
X50362218Y-35222860D01*
X50362214Y-35222863D01*
X50222863Y-35362214D01*
X50222860Y-35362218D01*
X50113371Y-35526079D01*
X50113364Y-35526092D01*
X50037950Y-35708160D01*
X50037947Y-35708170D01*
X49999500Y-35901456D01*
X49999500Y-35901459D01*
X49999500Y-36098541D01*
X49999500Y-36098543D01*
X49999499Y-36098543D01*
X50037947Y-36291828D01*
X50037948Y-36291831D01*
X50037949Y-36291835D01*
X50037951Y-36291839D01*
X50067717Y-36363703D01*
X50075184Y-36433173D01*
X50043909Y-36495651D01*
X50040836Y-36498835D01*
X47009537Y-39530135D01*
X47009533Y-39530141D01*
X46966681Y-39604361D01*
X46966682Y-39604362D01*
X46944500Y-39687147D01*
X46944500Y-41230216D01*
X46924815Y-41297255D01*
X46872011Y-41343010D01*
X46802853Y-41352954D01*
X46739297Y-41323929D01*
X46732819Y-41317897D01*
X46637785Y-41222863D01*
X46637781Y-41222860D01*
X46473920Y-41113371D01*
X46473907Y-41113364D01*
X46291839Y-41037950D01*
X46291829Y-41037947D01*
X46098543Y-40999500D01*
X46098541Y-40999500D01*
X45901459Y-40999500D01*
X45901457Y-40999500D01*
X45708170Y-41037947D01*
X45708160Y-41037950D01*
X45526092Y-41113364D01*
X45526079Y-41113371D01*
X45362218Y-41222860D01*
X45362214Y-41222863D01*
X45222863Y-41362214D01*
X45222860Y-41362218D01*
X45113371Y-41526079D01*
X45113364Y-41526092D01*
X45037950Y-41708160D01*
X45037947Y-41708170D01*
X44999500Y-41901456D01*
X44999500Y-41901459D01*
X44999500Y-42098541D01*
X44999500Y-42098543D01*
X44999499Y-42098543D01*
X45037947Y-42291829D01*
X45037950Y-42291839D01*
X45113364Y-42473907D01*
X45113371Y-42473920D01*
X45222860Y-42637781D01*
X45222863Y-42637785D01*
X45362214Y-42777136D01*
X45362218Y-42777139D01*
X45526079Y-42886628D01*
X45526092Y-42886635D01*
X45697866Y-42957785D01*
X45708165Y-42962051D01*
X45708169Y-42962051D01*
X45708170Y-42962052D01*
X45901456Y-43000500D01*
X45901459Y-43000500D01*
X46098543Y-43000500D01*
X46256709Y-42969038D01*
X46291835Y-42962051D01*
X46473914Y-42886632D01*
X46637782Y-42777139D01*
X46683842Y-42731079D01*
X46732819Y-42682103D01*
X46794142Y-42648618D01*
X46863834Y-42653602D01*
X46919767Y-42695474D01*
X46944184Y-42760938D01*
X46944500Y-42769784D01*
X46944500Y-43363811D01*
X46924815Y-43430850D01*
X46908181Y-43451492D01*
X44147037Y-46212635D01*
X44147033Y-46212641D01*
X44104181Y-46286861D01*
X44104182Y-46286862D01*
X44082000Y-46369647D01*
X44082000Y-49490500D01*
X44062315Y-49557539D01*
X44009511Y-49603294D01*
X43958000Y-49614500D01*
X41910961Y-49614500D01*
X41843922Y-49594815D01*
X41798167Y-49542011D01*
X41796400Y-49537952D01*
X41766635Y-49466092D01*
X41766628Y-49466079D01*
X41657139Y-49302218D01*
X41657136Y-49302214D01*
X41517785Y-49162863D01*
X41517781Y-49162860D01*
X41353920Y-49053371D01*
X41353907Y-49053364D01*
X41171839Y-48977950D01*
X41171829Y-48977947D01*
X40978543Y-48939500D01*
X40978541Y-48939500D01*
X40781459Y-48939500D01*
X40781457Y-48939500D01*
X40588170Y-48977947D01*
X40588160Y-48977950D01*
X40406092Y-49053364D01*
X40406074Y-49053374D01*
X40297590Y-49125861D01*
X40230913Y-49146739D01*
X40163533Y-49128254D01*
X40116843Y-49076275D01*
X40104700Y-49022759D01*
X40104700Y-48317240D01*
X40124385Y-48250201D01*
X40177189Y-48204446D01*
X40246347Y-48194502D01*
X40297591Y-48214138D01*
X40406079Y-48286628D01*
X40406092Y-48286635D01*
X40588160Y-48362049D01*
X40588165Y-48362051D01*
X40588169Y-48362051D01*
X40588170Y-48362052D01*
X40781456Y-48400500D01*
X40781459Y-48400500D01*
X40978543Y-48400500D01*
X41108582Y-48374632D01*
X41171835Y-48362051D01*
X41353914Y-48286632D01*
X41517782Y-48177139D01*
X41657139Y-48037782D01*
X41766632Y-47873914D01*
X41842051Y-47691835D01*
X41875021Y-47526086D01*
X41880500Y-47498543D01*
X41880500Y-47301456D01*
X41842052Y-47108170D01*
X41842051Y-47108169D01*
X41842051Y-47108165D01*
X41812281Y-47036295D01*
X41804813Y-46966828D01*
X41836088Y-46904348D01*
X41839130Y-46901195D01*
X42239065Y-46501262D01*
X42281918Y-46427039D01*
X42304100Y-46344253D01*
X42304100Y-46258547D01*
X42304100Y-43695547D01*
X42304100Y-36098543D01*
X44999499Y-36098543D01*
X45037947Y-36291829D01*
X45037950Y-36291839D01*
X45113364Y-36473907D01*
X45113371Y-36473920D01*
X45222860Y-36637781D01*
X45222863Y-36637785D01*
X45362214Y-36777136D01*
X45362218Y-36777139D01*
X45526079Y-36886628D01*
X45526092Y-36886635D01*
X45674629Y-36948160D01*
X45708165Y-36962051D01*
X45708169Y-36962051D01*
X45708170Y-36962052D01*
X45901456Y-37000500D01*
X45901459Y-37000500D01*
X46098543Y-37000500D01*
X46228582Y-36974632D01*
X46291835Y-36962051D01*
X46473914Y-36886632D01*
X46637782Y-36777139D01*
X46777139Y-36637782D01*
X46886632Y-36473914D01*
X46891210Y-36462863D01*
X46907145Y-36424391D01*
X46962051Y-36291835D01*
X47000500Y-36098541D01*
X47000500Y-35901459D01*
X47000500Y-35901456D01*
X46962052Y-35708170D01*
X46962051Y-35708169D01*
X46962051Y-35708165D01*
X46934149Y-35640803D01*
X46886635Y-35526092D01*
X46886628Y-35526079D01*
X46777139Y-35362218D01*
X46777136Y-35362214D01*
X46637785Y-35222863D01*
X46637781Y-35222860D01*
X46473920Y-35113371D01*
X46473907Y-35113364D01*
X46291839Y-35037950D01*
X46291829Y-35037947D01*
X46098543Y-34999500D01*
X46098541Y-34999500D01*
X45901459Y-34999500D01*
X45901457Y-34999500D01*
X45708170Y-35037947D01*
X45708160Y-35037950D01*
X45526092Y-35113364D01*
X45526079Y-35113371D01*
X45362218Y-35222860D01*
X45362214Y-35222863D01*
X45222863Y-35362214D01*
X45222860Y-35362218D01*
X45113371Y-35526079D01*
X45113364Y-35526092D01*
X45037950Y-35708160D01*
X45037947Y-35708170D01*
X44999500Y-35901456D01*
X44999500Y-35901459D01*
X44999500Y-36098541D01*
X44999500Y-36098543D01*
X44999499Y-36098543D01*
X42304100Y-36098543D01*
X42304100Y-34207588D01*
X42323785Y-34140549D01*
X42340414Y-34119912D01*
X45501165Y-30959160D01*
X45562486Y-30925677D01*
X45632178Y-30930661D01*
X45636270Y-30932271D01*
X45708165Y-30962051D01*
X45708169Y-30962051D01*
X45708170Y-30962052D01*
X45901456Y-31000500D01*
X45901459Y-31000500D01*
X46098543Y-31000500D01*
X46228582Y-30974632D01*
X46291835Y-30962051D01*
X46473914Y-30886632D01*
X46637782Y-30777139D01*
X46777139Y-30637782D01*
X46886632Y-30473914D01*
X46962051Y-30291835D01*
X46997551Y-30113368D01*
X47000500Y-30098543D01*
X47000500Y-29901456D01*
X46962052Y-29708170D01*
X46962051Y-29708169D01*
X46962051Y-29708165D01*
X46962049Y-29708160D01*
X46886635Y-29526092D01*
X46886628Y-29526079D01*
X46777139Y-29362218D01*
X46777136Y-29362214D01*
X46637785Y-29222863D01*
X46637781Y-29222860D01*
X46473920Y-29113371D01*
X46473907Y-29113364D01*
X46291839Y-29037950D01*
X46291829Y-29037947D01*
X46098543Y-28999500D01*
X46098541Y-28999500D01*
X45901459Y-28999500D01*
X45901457Y-28999500D01*
X45708170Y-29037947D01*
X45708160Y-29037950D01*
X45526092Y-29113364D01*
X45526079Y-29113371D01*
X45362218Y-29222860D01*
X45362214Y-29222863D01*
X45222863Y-29362214D01*
X45222860Y-29362218D01*
X45113371Y-29526079D01*
X45113364Y-29526092D01*
X45037950Y-29708160D01*
X45037947Y-29708170D01*
X44999500Y-29901456D01*
X44999500Y-29901459D01*
X44999500Y-30098541D01*
X44999500Y-30098543D01*
X44999499Y-30098543D01*
X45037947Y-30291828D01*
X45037948Y-30291831D01*
X45037949Y-30291835D01*
X45037951Y-30291839D01*
X45067717Y-30363703D01*
X45075184Y-30433173D01*
X45043909Y-30495651D01*
X45040836Y-30498835D01*
X41719043Y-33820629D01*
X41657720Y-33854114D01*
X41588028Y-33849130D01*
X41558478Y-33833267D01*
X41456527Y-33759197D01*
X41302257Y-33680591D01*
X41137584Y-33627085D01*
X40966571Y-33600000D01*
X40793429Y-33600000D01*
X40622415Y-33627085D01*
X40457740Y-33680592D01*
X40303475Y-33759196D01*
X40256307Y-33793463D01*
X40256307Y-33793464D01*
X40694823Y-34231980D01*
X40687007Y-34234075D01*
X40572993Y-34299901D01*
X40479901Y-34392993D01*
X40414075Y-34507007D01*
X40411980Y-34514823D01*
X39973464Y-34076307D01*
X39973463Y-34076307D01*
X39939196Y-34123475D01*
X39860592Y-34277740D01*
X39807085Y-34442415D01*
X39780000Y-34613428D01*
X39780000Y-34786571D01*
X39807085Y-34957584D01*
X39860591Y-35122257D01*
X39939195Y-35276523D01*
X39939196Y-35276525D01*
X39973463Y-35323691D01*
X39973464Y-35323691D01*
X40411980Y-34885176D01*
X40414075Y-34892993D01*
X40479901Y-35007007D01*
X40572993Y-35100099D01*
X40687007Y-35165925D01*
X40694822Y-35168019D01*
X40256307Y-35606534D01*
X40303478Y-35640805D01*
X40457742Y-35719408D01*
X40622415Y-35772914D01*
X40793429Y-35800000D01*
X40966571Y-35800000D01*
X41137584Y-35772914D01*
X41302257Y-35719408D01*
X41456533Y-35640799D01*
X41460681Y-35638258D01*
X41461275Y-35639228D01*
X41522000Y-35617550D01*
X41590057Y-35633364D01*
X41638760Y-35683462D01*
X41653100Y-35741347D01*
X41653100Y-36321289D01*
X41633415Y-36388328D01*
X41580611Y-36434083D01*
X41511453Y-36444027D01*
X41460210Y-36424391D01*
X41353925Y-36353374D01*
X41353907Y-36353364D01*
X41171839Y-36277950D01*
X41171829Y-36277947D01*
X40978543Y-36239500D01*
X40978541Y-36239500D01*
X40781459Y-36239500D01*
X40781457Y-36239500D01*
X40588170Y-36277947D01*
X40588160Y-36277950D01*
X40406092Y-36353364D01*
X40406079Y-36353371D01*
X40242218Y-36462860D01*
X40242214Y-36462863D01*
X40102863Y-36602214D01*
X40102860Y-36602218D01*
X39993371Y-36766079D01*
X39993364Y-36766092D01*
X39917950Y-36948160D01*
X39917947Y-36948170D01*
X39879500Y-37141456D01*
X39879500Y-37141459D01*
X39879500Y-37338541D01*
X39879500Y-37338543D01*
X39879499Y-37338543D01*
X39917947Y-37531829D01*
X39917950Y-37531839D01*
X39993364Y-37713907D01*
X39993371Y-37713920D01*
X40102860Y-37877781D01*
X40102863Y-37877785D01*
X40242214Y-38017136D01*
X40242218Y-38017139D01*
X40406079Y-38126628D01*
X40406092Y-38126635D01*
X40588160Y-38202049D01*
X40588165Y-38202051D01*
X40588169Y-38202051D01*
X40588170Y-38202052D01*
X40781456Y-38240500D01*
X40781459Y-38240500D01*
X40978543Y-38240500D01*
X41108582Y-38214632D01*
X41171835Y-38202051D01*
X41353914Y-38126632D01*
X41460209Y-38055607D01*
X41526886Y-38034730D01*
X41594266Y-38053214D01*
X41640957Y-38105193D01*
X41653100Y-38158710D01*
X41653100Y-38855276D01*
X41633415Y-38922315D01*
X41580611Y-38968070D01*
X41511453Y-38978014D01*
X41460210Y-38958379D01*
X41418727Y-38930661D01*
X41373112Y-38900182D01*
X41337584Y-38881192D01*
X41298829Y-38865139D01*
X41191997Y-38820887D01*
X41153442Y-38809192D01*
X40998884Y-38778449D01*
X40998885Y-38778449D01*
X40985584Y-38777139D01*
X40958793Y-38774500D01*
X40240218Y-38774500D01*
X40240214Y-38774500D01*
X40161582Y-38790140D01*
X40161566Y-38790145D01*
X40088074Y-38820586D01*
X40021397Y-38865139D01*
X39965139Y-38921397D01*
X39920586Y-38988074D01*
X39890145Y-39061566D01*
X39890140Y-39061582D01*
X39874500Y-39140214D01*
X39874500Y-40419785D01*
X39890140Y-40498417D01*
X39890145Y-40498433D01*
X39920586Y-40571925D01*
X39920588Y-40571929D01*
X39920590Y-40571932D01*
X39965138Y-40638601D01*
X40021399Y-40694862D01*
X40088068Y-40739410D01*
X40088071Y-40739411D01*
X40088074Y-40739413D01*
X40161566Y-40769854D01*
X40161571Y-40769855D01*
X40161577Y-40769858D01*
X40240215Y-40785499D01*
X40240217Y-40785500D01*
X40240218Y-40785500D01*
X40958788Y-40785500D01*
X40958793Y-40785500D01*
X40998883Y-40781551D01*
X41153441Y-40750808D01*
X41191993Y-40739114D01*
X41337584Y-40678808D01*
X41373112Y-40659818D01*
X41460211Y-40601620D01*
X41526886Y-40580743D01*
X41594266Y-40599227D01*
X41640957Y-40651206D01*
X41653100Y-40704723D01*
X41653100Y-41401289D01*
X41633415Y-41468328D01*
X41580611Y-41514083D01*
X41511453Y-41524027D01*
X41460210Y-41504391D01*
X41353925Y-41433374D01*
X41353907Y-41433364D01*
X41171839Y-41357950D01*
X41171829Y-41357947D01*
X40978543Y-41319500D01*
X40978541Y-41319500D01*
X40781459Y-41319500D01*
X40781457Y-41319500D01*
X40588170Y-41357947D01*
X40588160Y-41357950D01*
X40406092Y-41433364D01*
X40406079Y-41433371D01*
X40242218Y-41542860D01*
X40242214Y-41542863D01*
X40102863Y-41682214D01*
X40102860Y-41682218D01*
X39993371Y-41846079D01*
X39993364Y-41846092D01*
X39917950Y-42028160D01*
X39917947Y-42028170D01*
X39879500Y-42221456D01*
X39879500Y-42221459D01*
X39879500Y-42418541D01*
X39879500Y-42418543D01*
X39879499Y-42418543D01*
X39917947Y-42611829D01*
X39917950Y-42611839D01*
X39993364Y-42793907D01*
X39993371Y-42793920D01*
X40102860Y-42957781D01*
X40102863Y-42957785D01*
X40242217Y-43097139D01*
X40389104Y-43195285D01*
X40433909Y-43248897D01*
X40442616Y-43318222D01*
X40412462Y-43381249D01*
X40353019Y-43417969D01*
X40352308Y-43418161D01*
X40289166Y-43435080D01*
X40289155Y-43435085D01*
X40214944Y-43477930D01*
X40214936Y-43477936D01*
X39511181Y-44181692D01*
X39449858Y-44215177D01*
X39380166Y-44210193D01*
X39324233Y-44168321D01*
X39299816Y-44102857D01*
X39299500Y-44094011D01*
X39299500Y-34252188D01*
X39319185Y-34185149D01*
X39335814Y-34164511D01*
X40381165Y-33119160D01*
X40442486Y-33085677D01*
X40512178Y-33090661D01*
X40516270Y-33092271D01*
X40588165Y-33122051D01*
X40588169Y-33122051D01*
X40588170Y-33122052D01*
X40781456Y-33160500D01*
X40781459Y-33160500D01*
X40978543Y-33160500D01*
X41108582Y-33134632D01*
X41171835Y-33122051D01*
X41353914Y-33046632D01*
X41517782Y-32937139D01*
X41657139Y-32797782D01*
X41766632Y-32633914D01*
X41842051Y-32451835D01*
X41880500Y-32258541D01*
X41880500Y-32061459D01*
X41880500Y-32061456D01*
X41842052Y-31868170D01*
X41842051Y-31868169D01*
X41842051Y-31868165D01*
X41798441Y-31762880D01*
X41766635Y-31686092D01*
X41766628Y-31686079D01*
X41657139Y-31522218D01*
X41657136Y-31522214D01*
X41517785Y-31382863D01*
X41517781Y-31382860D01*
X41353920Y-31273371D01*
X41353907Y-31273364D01*
X41171839Y-31197950D01*
X41171829Y-31197947D01*
X40978543Y-31159500D01*
X40978541Y-31159500D01*
X40781459Y-31159500D01*
X40781457Y-31159500D01*
X40588170Y-31197947D01*
X40588160Y-31197950D01*
X40406092Y-31273364D01*
X40406079Y-31273371D01*
X40242218Y-31382860D01*
X40242214Y-31382863D01*
X40102863Y-31522214D01*
X40102860Y-31522218D01*
X39993371Y-31686079D01*
X39993364Y-31686092D01*
X39917950Y-31868160D01*
X39917947Y-31868170D01*
X39879500Y-32061456D01*
X39879500Y-32061459D01*
X39879500Y-32258541D01*
X39879500Y-32258543D01*
X39879499Y-32258543D01*
X39917947Y-32451828D01*
X39917948Y-32451831D01*
X39917949Y-32451835D01*
X39917951Y-32451839D01*
X39947717Y-32523703D01*
X39955184Y-32593173D01*
X39923909Y-32655651D01*
X39920836Y-32658835D01*
X38713537Y-33866135D01*
X38713533Y-33866141D01*
X38670681Y-33940361D01*
X38670682Y-33940362D01*
X38648500Y-34023147D01*
X38648500Y-56678952D01*
X38670682Y-56761740D01*
X38679573Y-56777139D01*
X38713535Y-56835962D01*
X38878073Y-57000500D01*
X39013881Y-57136307D01*
X39047366Y-57197630D01*
X39050200Y-57223988D01*
X39050200Y-63006000D01*
X39030515Y-63073039D01*
X38977711Y-63118794D01*
X38926200Y-63130000D01*
X24890000Y-63130000D01*
X23975884Y-63130000D01*
X23986632Y-63113914D01*
X24062051Y-62931835D01*
X24094808Y-62767157D01*
X24100500Y-62738543D01*
X24100500Y-62541456D01*
X24062052Y-62348170D01*
X24062051Y-62348169D01*
X24062051Y-62348165D01*
X24062049Y-62348160D01*
X23986635Y-62166092D01*
X23986628Y-62166079D01*
X23877139Y-62002218D01*
X23877136Y-62002214D01*
X23737785Y-61862863D01*
X23737781Y-61862860D01*
X23573920Y-61753371D01*
X23573907Y-61753364D01*
X23391839Y-61677950D01*
X23391829Y-61677947D01*
X23198543Y-61639500D01*
X23198541Y-61639500D01*
X23001459Y-61639500D01*
X23001457Y-61639500D01*
X22808170Y-61677947D01*
X22808160Y-61677950D01*
X22626092Y-61753364D01*
X22626079Y-61753371D01*
X22462218Y-61862860D01*
X22462214Y-61862863D01*
X22322863Y-62002214D01*
X22322860Y-62002218D01*
X22213371Y-62166079D01*
X22213364Y-62166092D01*
X22137950Y-62348160D01*
X22137947Y-62348170D01*
X22099500Y-62541456D01*
X22099500Y-62541459D01*
X22099500Y-62738541D01*
X22099500Y-62738543D01*
X22099499Y-62738543D01*
X20500500Y-62738543D01*
X20500500Y-60198543D01*
X22099499Y-60198543D01*
X22137947Y-60391829D01*
X22137950Y-60391839D01*
X22213364Y-60573907D01*
X22213371Y-60573920D01*
X22322860Y-60737781D01*
X22322863Y-60737785D01*
X22462214Y-60877136D01*
X22462218Y-60877139D01*
X22626079Y-60986628D01*
X22626092Y-60986635D01*
X22808160Y-61062049D01*
X22808165Y-61062051D01*
X22808169Y-61062051D01*
X22808170Y-61062052D01*
X23001456Y-61100500D01*
X23001459Y-61100500D01*
X23198543Y-61100500D01*
X23328582Y-61074632D01*
X23391835Y-61062051D01*
X23573914Y-60986632D01*
X23737782Y-60877139D01*
X23877139Y-60737782D01*
X23986632Y-60573914D01*
X24062051Y-60391835D01*
X24081942Y-60291839D01*
X24100500Y-60198543D01*
X24100500Y-60001456D01*
X24062052Y-59808170D01*
X24062051Y-59808169D01*
X24062051Y-59808165D01*
X24046801Y-59771347D01*
X23986635Y-59626092D01*
X23986628Y-59626079D01*
X23877139Y-59462218D01*
X23877136Y-59462214D01*
X23737785Y-59322863D01*
X23737781Y-59322860D01*
X23573920Y-59213371D01*
X23573907Y-59213364D01*
X23391839Y-59137950D01*
X23391829Y-59137947D01*
X23198543Y-59099500D01*
X23198541Y-59099500D01*
X23001459Y-59099500D01*
X23001457Y-59099500D01*
X22808170Y-59137947D01*
X22808160Y-59137950D01*
X22626092Y-59213364D01*
X22626079Y-59213371D01*
X22462218Y-59322860D01*
X22462214Y-59322863D01*
X22322863Y-59462214D01*
X22322860Y-59462218D01*
X22213371Y-59626079D01*
X22213364Y-59626092D01*
X22137950Y-59808160D01*
X22137947Y-59808170D01*
X22099500Y-60001456D01*
X22099500Y-60001459D01*
X22099500Y-60198541D01*
X22099500Y-60198543D01*
X22099499Y-60198543D01*
X20500500Y-60198543D01*
X20500500Y-57473428D01*
X22000000Y-57473428D01*
X22000000Y-57646571D01*
X22027085Y-57817584D01*
X22080591Y-57982257D01*
X22159195Y-58136523D01*
X22159196Y-58136525D01*
X22193463Y-58183691D01*
X22193464Y-58183691D01*
X22631980Y-57745176D01*
X22634075Y-57752993D01*
X22699901Y-57867007D01*
X22792993Y-57960099D01*
X22907007Y-58025925D01*
X22914822Y-58028019D01*
X22476307Y-58466534D01*
X22523478Y-58500805D01*
X22677742Y-58579408D01*
X22842415Y-58632914D01*
X23013429Y-58660000D01*
X23186571Y-58660000D01*
X23357584Y-58632914D01*
X23522257Y-58579408D01*
X23676525Y-58500803D01*
X23723691Y-58466534D01*
X23723692Y-58466533D01*
X23285178Y-58028019D01*
X23292993Y-58025925D01*
X23407007Y-57960099D01*
X23500099Y-57867007D01*
X23565925Y-57752993D01*
X23568019Y-57745177D01*
X24006533Y-58183692D01*
X24006534Y-58183691D01*
X24040803Y-58136525D01*
X24119408Y-57982257D01*
X24172914Y-57817584D01*
X24200000Y-57646571D01*
X24200000Y-57473428D01*
X24172914Y-57302415D01*
X24119408Y-57137742D01*
X24040805Y-56983478D01*
X24006534Y-56936307D01*
X23568019Y-57374822D01*
X23565925Y-57367007D01*
X23500099Y-57252993D01*
X23407007Y-57159901D01*
X23292993Y-57094075D01*
X23285176Y-57091980D01*
X23723691Y-56653464D01*
X23723691Y-56653463D01*
X23676525Y-56619196D01*
X23676523Y-56619195D01*
X23522257Y-56540591D01*
X23357584Y-56487085D01*
X23186571Y-56460000D01*
X23013429Y-56460000D01*
X22842415Y-56487085D01*
X22677740Y-56540592D01*
X22523475Y-56619196D01*
X22476307Y-56653463D01*
X22476307Y-56653464D01*
X22914823Y-57091980D01*
X22907007Y-57094075D01*
X22792993Y-57159901D01*
X22699901Y-57252993D01*
X22634075Y-57367007D01*
X22631980Y-57374823D01*
X22193464Y-56936307D01*
X22193463Y-56936307D01*
X22159196Y-56983475D01*
X22080592Y-57137740D01*
X22027085Y-57302415D01*
X22000000Y-57473428D01*
X20500500Y-57473428D01*
X20500500Y-55118543D01*
X22099499Y-55118543D01*
X22137947Y-55311829D01*
X22137950Y-55311839D01*
X22213364Y-55493907D01*
X22213371Y-55493920D01*
X22322860Y-55657781D01*
X22322863Y-55657785D01*
X22462214Y-55797136D01*
X22462218Y-55797139D01*
X22626079Y-55906628D01*
X22626092Y-55906635D01*
X22808160Y-55982049D01*
X22808165Y-55982051D01*
X22808169Y-55982051D01*
X22808170Y-55982052D01*
X23001456Y-56020500D01*
X23001459Y-56020500D01*
X23198543Y-56020500D01*
X23328582Y-55994632D01*
X23391835Y-55982051D01*
X23573914Y-55906632D01*
X23737782Y-55797139D01*
X23877139Y-55657782D01*
X23986632Y-55493914D01*
X24062051Y-55311835D01*
X24079749Y-55222861D01*
X24100500Y-55118543D01*
X24100500Y-54921456D01*
X24062052Y-54728170D01*
X24062051Y-54728169D01*
X24062051Y-54728165D01*
X24062049Y-54728160D01*
X23986635Y-54546092D01*
X23986628Y-54546079D01*
X23877139Y-54382218D01*
X23877136Y-54382214D01*
X23737785Y-54242863D01*
X23737781Y-54242860D01*
X23573920Y-54133371D01*
X23573907Y-54133364D01*
X23391839Y-54057950D01*
X23391829Y-54057947D01*
X23198543Y-54019500D01*
X23198541Y-54019500D01*
X23001459Y-54019500D01*
X23001457Y-54019500D01*
X22808170Y-54057947D01*
X22808160Y-54057950D01*
X22626092Y-54133364D01*
X22626079Y-54133371D01*
X22462218Y-54242860D01*
X22462214Y-54242863D01*
X22322863Y-54382214D01*
X22322860Y-54382218D01*
X22213371Y-54546079D01*
X22213364Y-54546092D01*
X22137950Y-54728160D01*
X22137947Y-54728170D01*
X22099500Y-54921456D01*
X22099500Y-54921459D01*
X22099500Y-55118541D01*
X22099500Y-55118543D01*
X22099499Y-55118543D01*
X20500500Y-55118543D01*
X20500500Y-52401211D01*
X22094500Y-52401211D01*
X22094500Y-52558788D01*
X22098449Y-52598884D01*
X22129192Y-52753442D01*
X22140887Y-52791997D01*
X22178130Y-52881908D01*
X22201192Y-52937584D01*
X22220182Y-52973112D01*
X22220187Y-52973120D01*
X22220192Y-52973128D01*
X22307725Y-53104131D01*
X22307729Y-53104136D01*
X22307732Y-53104140D01*
X22333289Y-53135280D01*
X22444720Y-53246711D01*
X22475860Y-53272268D01*
X22475863Y-53272270D01*
X22475868Y-53272274D01*
X22606871Y-53359807D01*
X22606874Y-53359809D01*
X22606888Y-53359818D01*
X22642416Y-53378808D01*
X22788007Y-53439114D01*
X22826559Y-53450808D01*
X22981117Y-53481551D01*
X23021207Y-53485500D01*
X23021212Y-53485500D01*
X23739783Y-53485500D01*
X23739783Y-53485499D01*
X23818423Y-53469858D01*
X23828194Y-53465811D01*
X23891925Y-53439413D01*
X23891925Y-53439412D01*
X23891932Y-53439410D01*
X23958601Y-53394862D01*
X24014862Y-53338601D01*
X24059410Y-53271932D01*
X24089858Y-53198423D01*
X24105500Y-53119782D01*
X24105500Y-51840218D01*
X24089858Y-51761577D01*
X24089855Y-51761571D01*
X24089854Y-51761566D01*
X24059413Y-51688074D01*
X24059411Y-51688071D01*
X24059410Y-51688068D01*
X24014862Y-51621399D01*
X23958601Y-51565138D01*
X23891932Y-51520590D01*
X23891929Y-51520588D01*
X23891925Y-51520586D01*
X23818433Y-51490145D01*
X23818417Y-51490140D01*
X23739785Y-51474500D01*
X23739782Y-51474500D01*
X23021207Y-51474500D01*
X22992571Y-51477320D01*
X22981115Y-51478449D01*
X22826557Y-51509192D01*
X22788002Y-51520887D01*
X22642422Y-51581189D01*
X22642415Y-51581192D01*
X22614182Y-51596282D01*
X22606888Y-51600182D01*
X22606885Y-51600183D01*
X22606871Y-51600192D01*
X22475868Y-51687725D01*
X22475863Y-51687729D01*
X22444720Y-51713288D01*
X22333288Y-51824720D01*
X22307729Y-51855863D01*
X22307725Y-51855868D01*
X22220192Y-51986871D01*
X22220180Y-51986892D01*
X22201192Y-52022415D01*
X22201189Y-52022422D01*
X22140887Y-52168002D01*
X22129192Y-52206557D01*
X22098449Y-52361115D01*
X22094500Y-52401211D01*
X20500500Y-52401211D01*
X20500500Y-50038543D01*
X22099499Y-50038543D01*
X22137947Y-50231829D01*
X22137950Y-50231839D01*
X22213364Y-50413907D01*
X22213371Y-50413920D01*
X22322860Y-50577781D01*
X22322863Y-50577785D01*
X22462214Y-50717136D01*
X22462218Y-50717139D01*
X22626079Y-50826628D01*
X22626092Y-50826635D01*
X22770930Y-50886628D01*
X22808165Y-50902051D01*
X22808169Y-50902051D01*
X22808170Y-50902052D01*
X23001456Y-50940500D01*
X23001459Y-50940500D01*
X23198543Y-50940500D01*
X23328582Y-50914632D01*
X23391835Y-50902051D01*
X23573914Y-50826632D01*
X23737782Y-50717139D01*
X23877139Y-50577782D01*
X23986632Y-50413914D01*
X24062051Y-50231835D01*
X24100500Y-50038541D01*
X24100500Y-49841459D01*
X24100500Y-49841456D01*
X24062052Y-49648170D01*
X24062051Y-49648169D01*
X24062051Y-49648165D01*
X24011482Y-49526079D01*
X23986635Y-49466092D01*
X23986628Y-49466079D01*
X23877139Y-49302218D01*
X23877136Y-49302214D01*
X23737785Y-49162863D01*
X23737781Y-49162860D01*
X23573920Y-49053371D01*
X23573907Y-49053364D01*
X23391839Y-48977950D01*
X23391829Y-48977947D01*
X23198543Y-48939500D01*
X23198541Y-48939500D01*
X23001459Y-48939500D01*
X23001457Y-48939500D01*
X22808170Y-48977947D01*
X22808160Y-48977950D01*
X22626092Y-49053364D01*
X22626079Y-49053371D01*
X22462218Y-49162860D01*
X22462214Y-49162863D01*
X22322863Y-49302214D01*
X22322860Y-49302218D01*
X22213371Y-49466079D01*
X22213364Y-49466092D01*
X22137950Y-49648160D01*
X22137947Y-49648170D01*
X22099500Y-49841456D01*
X22099500Y-49841459D01*
X22099500Y-50038541D01*
X22099500Y-50038543D01*
X22099499Y-50038543D01*
X20500500Y-50038543D01*
X20500500Y-47498543D01*
X22099499Y-47498543D01*
X22137947Y-47691829D01*
X22137950Y-47691839D01*
X22213364Y-47873907D01*
X22213371Y-47873920D01*
X22322860Y-48037781D01*
X22322863Y-48037785D01*
X22462214Y-48177136D01*
X22462218Y-48177139D01*
X22626079Y-48286628D01*
X22626092Y-48286635D01*
X22808160Y-48362049D01*
X22808165Y-48362051D01*
X22808169Y-48362051D01*
X22808170Y-48362052D01*
X23001456Y-48400500D01*
X23001459Y-48400500D01*
X23198543Y-48400500D01*
X23328582Y-48374632D01*
X23391835Y-48362051D01*
X23573914Y-48286632D01*
X23737782Y-48177139D01*
X23877139Y-48037782D01*
X23986632Y-47873914D01*
X24062051Y-47691835D01*
X24095021Y-47526086D01*
X24100500Y-47498543D01*
X24100500Y-47301456D01*
X24062052Y-47108170D01*
X24062051Y-47108169D01*
X24062051Y-47108165D01*
X24032283Y-47036297D01*
X23986635Y-46926092D01*
X23986628Y-46926079D01*
X23877139Y-46762218D01*
X23877136Y-46762214D01*
X23737785Y-46622863D01*
X23737781Y-46622860D01*
X23573920Y-46513371D01*
X23573907Y-46513364D01*
X23391839Y-46437950D01*
X23391829Y-46437947D01*
X23198543Y-46399500D01*
X23198541Y-46399500D01*
X23001459Y-46399500D01*
X23001457Y-46399500D01*
X22808170Y-46437947D01*
X22808160Y-46437950D01*
X22626092Y-46513364D01*
X22626079Y-46513371D01*
X22462218Y-46622860D01*
X22462214Y-46622863D01*
X22322863Y-46762214D01*
X22322860Y-46762218D01*
X22213371Y-46926079D01*
X22213364Y-46926092D01*
X22137950Y-47108160D01*
X22137947Y-47108170D01*
X22099500Y-47301456D01*
X22099500Y-47301459D01*
X22099500Y-47498541D01*
X22099500Y-47498543D01*
X22099499Y-47498543D01*
X20500500Y-47498543D01*
X20500500Y-44958543D01*
X22099499Y-44958543D01*
X22137947Y-45151829D01*
X22137950Y-45151839D01*
X22213364Y-45333907D01*
X22213371Y-45333920D01*
X22322860Y-45497781D01*
X22322863Y-45497785D01*
X22462214Y-45637136D01*
X22462218Y-45637139D01*
X22626079Y-45746628D01*
X22626092Y-45746635D01*
X22801190Y-45819162D01*
X22808165Y-45822051D01*
X22808169Y-45822051D01*
X22808170Y-45822052D01*
X23001456Y-45860500D01*
X23001459Y-45860500D01*
X23198543Y-45860500D01*
X23328582Y-45834632D01*
X23391835Y-45822051D01*
X23573914Y-45746632D01*
X23737782Y-45637139D01*
X23877139Y-45497782D01*
X23986632Y-45333914D01*
X24062051Y-45151835D01*
X24099802Y-44962050D01*
X24100500Y-44958543D01*
X24100500Y-44761456D01*
X24062052Y-44568170D01*
X24062051Y-44568169D01*
X24062051Y-44568165D01*
X24032015Y-44495651D01*
X23986635Y-44386092D01*
X23986628Y-44386079D01*
X23877139Y-44222218D01*
X23877136Y-44222214D01*
X23737785Y-44082863D01*
X23737781Y-44082860D01*
X23573920Y-43973371D01*
X23573907Y-43973364D01*
X23391839Y-43897950D01*
X23391829Y-43897947D01*
X23198543Y-43859500D01*
X23198541Y-43859500D01*
X23001459Y-43859500D01*
X23001457Y-43859500D01*
X22808170Y-43897947D01*
X22808160Y-43897950D01*
X22626092Y-43973364D01*
X22626079Y-43973371D01*
X22462218Y-44082860D01*
X22462214Y-44082863D01*
X22322863Y-44222214D01*
X22322860Y-44222218D01*
X22213371Y-44386079D01*
X22213364Y-44386092D01*
X22137950Y-44568160D01*
X22137947Y-44568170D01*
X22099500Y-44761456D01*
X22099500Y-44761459D01*
X22099500Y-44958541D01*
X22099500Y-44958543D01*
X22099499Y-44958543D01*
X20500500Y-44958543D01*
X20500500Y-42418543D01*
X22099499Y-42418543D01*
X22137947Y-42611829D01*
X22137950Y-42611839D01*
X22213364Y-42793907D01*
X22213371Y-42793920D01*
X22322860Y-42957781D01*
X22322863Y-42957785D01*
X22462214Y-43097136D01*
X22462218Y-43097139D01*
X22626079Y-43206628D01*
X22626092Y-43206635D01*
X22730786Y-43250000D01*
X22808165Y-43282051D01*
X22808169Y-43282051D01*
X22808170Y-43282052D01*
X23001456Y-43320500D01*
X23001459Y-43320500D01*
X23198543Y-43320500D01*
X23328582Y-43294632D01*
X23391835Y-43282051D01*
X23573914Y-43206632D01*
X23737782Y-43097139D01*
X23877139Y-42957782D01*
X23986632Y-42793914D01*
X24062051Y-42611835D01*
X24081807Y-42512518D01*
X24100500Y-42418543D01*
X24100500Y-42221456D01*
X24062052Y-42028170D01*
X24062051Y-42028169D01*
X24062051Y-42028165D01*
X24058501Y-42019594D01*
X23986635Y-41846092D01*
X23986628Y-41846079D01*
X23877139Y-41682218D01*
X23877136Y-41682214D01*
X23737785Y-41542863D01*
X23737781Y-41542860D01*
X23573920Y-41433371D01*
X23573907Y-41433364D01*
X23391839Y-41357950D01*
X23391829Y-41357947D01*
X23198543Y-41319500D01*
X23198541Y-41319500D01*
X23001459Y-41319500D01*
X23001457Y-41319500D01*
X22808170Y-41357947D01*
X22808160Y-41357950D01*
X22626092Y-41433364D01*
X22626079Y-41433371D01*
X22462218Y-41542860D01*
X22462214Y-41542863D01*
X22322863Y-41682214D01*
X22322860Y-41682218D01*
X22213371Y-41846079D01*
X22213364Y-41846092D01*
X22137950Y-42028160D01*
X22137947Y-42028170D01*
X22099500Y-42221456D01*
X22099500Y-42221459D01*
X22099500Y-42418541D01*
X22099500Y-42418543D01*
X22099499Y-42418543D01*
X20500500Y-42418543D01*
X20500500Y-39701207D01*
X22094500Y-39701207D01*
X22094500Y-39858793D01*
X22097790Y-39892201D01*
X22098449Y-39898884D01*
X22129192Y-40053442D01*
X22140887Y-40091997D01*
X22201189Y-40237577D01*
X22201192Y-40237584D01*
X22220182Y-40273112D01*
X22220187Y-40273120D01*
X22220192Y-40273128D01*
X22307725Y-40404131D01*
X22307729Y-40404136D01*
X22307732Y-40404140D01*
X22333289Y-40435280D01*
X22444720Y-40546711D01*
X22475860Y-40572268D01*
X22475863Y-40572270D01*
X22475868Y-40572274D01*
X22606871Y-40659807D01*
X22606874Y-40659809D01*
X22606888Y-40659818D01*
X22642416Y-40678808D01*
X22788007Y-40739114D01*
X22826559Y-40750808D01*
X22981117Y-40781551D01*
X23021207Y-40785500D01*
X23021212Y-40785500D01*
X23739783Y-40785500D01*
X23739783Y-40785499D01*
X23818423Y-40769858D01*
X23864415Y-40750808D01*
X23891925Y-40739413D01*
X23891925Y-40739412D01*
X23891932Y-40739410D01*
X23958601Y-40694862D01*
X24014862Y-40638601D01*
X24059410Y-40571932D01*
X24089858Y-40498423D01*
X24105500Y-40419782D01*
X24105500Y-39140218D01*
X24089858Y-39061577D01*
X24089855Y-39061571D01*
X24089854Y-39061566D01*
X24059413Y-38988074D01*
X24059411Y-38988071D01*
X24059410Y-38988068D01*
X24014862Y-38921399D01*
X23958601Y-38865138D01*
X23891932Y-38820590D01*
X23891929Y-38820588D01*
X23891925Y-38820586D01*
X23818433Y-38790145D01*
X23818417Y-38790140D01*
X23739785Y-38774500D01*
X23739782Y-38774500D01*
X23021207Y-38774500D01*
X22994416Y-38777139D01*
X22981115Y-38778449D01*
X22826557Y-38809192D01*
X22788002Y-38820887D01*
X22642422Y-38881189D01*
X22642415Y-38881192D01*
X22614182Y-38896282D01*
X22606888Y-38900182D01*
X22606885Y-38900183D01*
X22606871Y-38900192D01*
X22475868Y-38987725D01*
X22475863Y-38987729D01*
X22444720Y-39013288D01*
X22333288Y-39124720D01*
X22307729Y-39155863D01*
X22307725Y-39155868D01*
X22220192Y-39286871D01*
X22220180Y-39286892D01*
X22201192Y-39322415D01*
X22201189Y-39322422D01*
X22140887Y-39468002D01*
X22129192Y-39506557D01*
X22124503Y-39530135D01*
X22098449Y-39661117D01*
X22094500Y-39701207D01*
X20500500Y-39701207D01*
X20500500Y-37338543D01*
X22099499Y-37338543D01*
X22137947Y-37531829D01*
X22137950Y-37531839D01*
X22213364Y-37713907D01*
X22213371Y-37713920D01*
X22322860Y-37877781D01*
X22322863Y-37877785D01*
X22462214Y-38017136D01*
X22462218Y-38017139D01*
X22626079Y-38126628D01*
X22626092Y-38126635D01*
X22808160Y-38202049D01*
X22808165Y-38202051D01*
X22808169Y-38202051D01*
X22808170Y-38202052D01*
X23001456Y-38240500D01*
X23001459Y-38240500D01*
X23198543Y-38240500D01*
X23328582Y-38214632D01*
X23391835Y-38202051D01*
X23573914Y-38126632D01*
X23737782Y-38017139D01*
X23877139Y-37877782D01*
X23986632Y-37713914D01*
X24062051Y-37531835D01*
X24082278Y-37430147D01*
X24100500Y-37338543D01*
X24100500Y-37141456D01*
X24062052Y-36948170D01*
X24062051Y-36948169D01*
X24062051Y-36948165D01*
X24036565Y-36886635D01*
X23986635Y-36766092D01*
X23986628Y-36766079D01*
X23877139Y-36602218D01*
X23877136Y-36602214D01*
X23737785Y-36462863D01*
X23737781Y-36462860D01*
X23573920Y-36353371D01*
X23573907Y-36353364D01*
X23391839Y-36277950D01*
X23391829Y-36277947D01*
X23198543Y-36239500D01*
X23198541Y-36239500D01*
X23001459Y-36239500D01*
X23001457Y-36239500D01*
X22808170Y-36277947D01*
X22808160Y-36277950D01*
X22626092Y-36353364D01*
X22626079Y-36353371D01*
X22462218Y-36462860D01*
X22462214Y-36462863D01*
X22322863Y-36602214D01*
X22322860Y-36602218D01*
X22213371Y-36766079D01*
X22213364Y-36766092D01*
X22137950Y-36948160D01*
X22137947Y-36948170D01*
X22099500Y-37141456D01*
X22099500Y-37141459D01*
X22099500Y-37338541D01*
X22099500Y-37338543D01*
X22099499Y-37338543D01*
X20500500Y-37338543D01*
X20500500Y-34613428D01*
X22000000Y-34613428D01*
X22000000Y-34786571D01*
X22027085Y-34957584D01*
X22080591Y-35122257D01*
X22159195Y-35276523D01*
X22159196Y-35276525D01*
X22193463Y-35323691D01*
X22193464Y-35323691D01*
X22631980Y-34885176D01*
X22634075Y-34892993D01*
X22699901Y-35007007D01*
X22792993Y-35100099D01*
X22907007Y-35165925D01*
X22914822Y-35168019D01*
X22476307Y-35606534D01*
X22523478Y-35640805D01*
X22677742Y-35719408D01*
X22842415Y-35772914D01*
X23013429Y-35800000D01*
X23186571Y-35800000D01*
X23357584Y-35772914D01*
X23522257Y-35719408D01*
X23676525Y-35640803D01*
X23723691Y-35606534D01*
X23723692Y-35606533D01*
X23285178Y-35168019D01*
X23292993Y-35165925D01*
X23407007Y-35100099D01*
X23500099Y-35007007D01*
X23565925Y-34892993D01*
X23568019Y-34885177D01*
X24006533Y-35323692D01*
X24006534Y-35323691D01*
X24040803Y-35276525D01*
X24119408Y-35122257D01*
X24172914Y-34957584D01*
X24200000Y-34786571D01*
X24200000Y-34613428D01*
X24172914Y-34442415D01*
X24119408Y-34277742D01*
X24040805Y-34123478D01*
X24006534Y-34076307D01*
X23568019Y-34514822D01*
X23565925Y-34507007D01*
X23500099Y-34392993D01*
X23407007Y-34299901D01*
X23292993Y-34234075D01*
X23285176Y-34231980D01*
X23723691Y-33793464D01*
X23723691Y-33793463D01*
X23676525Y-33759196D01*
X23676523Y-33759195D01*
X23522257Y-33680591D01*
X23357584Y-33627085D01*
X23186571Y-33600000D01*
X23013429Y-33600000D01*
X22842415Y-33627085D01*
X22677740Y-33680592D01*
X22523475Y-33759196D01*
X22476307Y-33793463D01*
X22476307Y-33793464D01*
X22914823Y-34231980D01*
X22907007Y-34234075D01*
X22792993Y-34299901D01*
X22699901Y-34392993D01*
X22634075Y-34507007D01*
X22631980Y-34514823D01*
X22193464Y-34076307D01*
X22193463Y-34076307D01*
X22159196Y-34123475D01*
X22080592Y-34277740D01*
X22027085Y-34442415D01*
X22000000Y-34613428D01*
X20500500Y-34613428D01*
X20500500Y-32258543D01*
X22099499Y-32258543D01*
X22137947Y-32451829D01*
X22137950Y-32451839D01*
X22213364Y-32633907D01*
X22213371Y-32633920D01*
X22322860Y-32797781D01*
X22322863Y-32797785D01*
X22462214Y-32937136D01*
X22462218Y-32937139D01*
X22626079Y-33046628D01*
X22626092Y-33046635D01*
X22801190Y-33119162D01*
X22808165Y-33122051D01*
X22808169Y-33122051D01*
X22808170Y-33122052D01*
X23001456Y-33160500D01*
X23001459Y-33160500D01*
X23198543Y-33160500D01*
X23328582Y-33134632D01*
X23391835Y-33122051D01*
X23573914Y-33046632D01*
X23737782Y-32937139D01*
X23877139Y-32797782D01*
X23986632Y-32633914D01*
X24062051Y-32451835D01*
X24100500Y-32258541D01*
X24100500Y-32061459D01*
X24100500Y-32061456D01*
X24062052Y-31868170D01*
X24062051Y-31868169D01*
X24062051Y-31868165D01*
X24018441Y-31762880D01*
X23986635Y-31686092D01*
X23986628Y-31686079D01*
X23877139Y-31522218D01*
X23877136Y-31522214D01*
X23737785Y-31382863D01*
X23737781Y-31382860D01*
X23573920Y-31273371D01*
X23573907Y-31273364D01*
X23391839Y-31197950D01*
X23391829Y-31197947D01*
X23198543Y-31159500D01*
X23198541Y-31159500D01*
X23001459Y-31159500D01*
X23001457Y-31159500D01*
X22808170Y-31197947D01*
X22808160Y-31197950D01*
X22626092Y-31273364D01*
X22626079Y-31273371D01*
X22462218Y-31382860D01*
X22462214Y-31382863D01*
X22322863Y-31522214D01*
X22322860Y-31522218D01*
X22213371Y-31686079D01*
X22213364Y-31686092D01*
X22137950Y-31868160D01*
X22137947Y-31868170D01*
X22099500Y-32061456D01*
X22099500Y-32061459D01*
X22099500Y-32258541D01*
X22099500Y-32258543D01*
X22099499Y-32258543D01*
X20500500Y-32258543D01*
X20500500Y-29718543D01*
X22099499Y-29718543D01*
X22137947Y-29911829D01*
X22137950Y-29911839D01*
X22213364Y-30093907D01*
X22213371Y-30093920D01*
X22322860Y-30257781D01*
X22322863Y-30257785D01*
X22462214Y-30397136D01*
X22462218Y-30397139D01*
X22626079Y-30506628D01*
X22626092Y-30506635D01*
X22808160Y-30582049D01*
X22808165Y-30582051D01*
X22808169Y-30582051D01*
X22808170Y-30582052D01*
X23001456Y-30620500D01*
X23001459Y-30620500D01*
X23198543Y-30620500D01*
X23328582Y-30594632D01*
X23391835Y-30582051D01*
X23573914Y-30506632D01*
X23737782Y-30397139D01*
X23877139Y-30257782D01*
X23986632Y-30093914D01*
X24062051Y-29911835D01*
X24100500Y-29718543D01*
X39879499Y-29718543D01*
X39917947Y-29911829D01*
X39917950Y-29911839D01*
X39993364Y-30093907D01*
X39993371Y-30093920D01*
X40102860Y-30257781D01*
X40102863Y-30257785D01*
X40242214Y-30397136D01*
X40242218Y-30397139D01*
X40406079Y-30506628D01*
X40406092Y-30506635D01*
X40588160Y-30582049D01*
X40588165Y-30582051D01*
X40588169Y-30582051D01*
X40588170Y-30582052D01*
X40781456Y-30620500D01*
X40781459Y-30620500D01*
X40978543Y-30620500D01*
X41108582Y-30594632D01*
X41171835Y-30582051D01*
X41353914Y-30506632D01*
X41517782Y-30397139D01*
X41657139Y-30257782D01*
X41766632Y-30093914D01*
X41842051Y-29911835D01*
X41880500Y-29718541D01*
X41880500Y-29521459D01*
X41880500Y-29521456D01*
X41842052Y-29328170D01*
X41842051Y-29328169D01*
X41842051Y-29328165D01*
X41798433Y-29222860D01*
X41766635Y-29146092D01*
X41766628Y-29146079D01*
X41657139Y-28982218D01*
X41657136Y-28982214D01*
X41517785Y-28842863D01*
X41517781Y-28842860D01*
X41353920Y-28733371D01*
X41353907Y-28733364D01*
X41171839Y-28657950D01*
X41171829Y-28657947D01*
X40978543Y-28619500D01*
X40978541Y-28619500D01*
X40781459Y-28619500D01*
X40781457Y-28619500D01*
X40588170Y-28657947D01*
X40588160Y-28657950D01*
X40406092Y-28733364D01*
X40406079Y-28733371D01*
X40242218Y-28842860D01*
X40242214Y-28842863D01*
X40102863Y-28982214D01*
X40102860Y-28982218D01*
X39993371Y-29146079D01*
X39993364Y-29146092D01*
X39917950Y-29328160D01*
X39917947Y-29328170D01*
X39879500Y-29521456D01*
X39879500Y-29521459D01*
X39879500Y-29718541D01*
X39879500Y-29718543D01*
X39879499Y-29718543D01*
X24100500Y-29718543D01*
X24100500Y-29718541D01*
X24100500Y-29521459D01*
X24100500Y-29521456D01*
X24062052Y-29328170D01*
X24062051Y-29328169D01*
X24062051Y-29328165D01*
X24018433Y-29222860D01*
X23986635Y-29146092D01*
X23986628Y-29146079D01*
X23877139Y-28982218D01*
X23877136Y-28982214D01*
X23737785Y-28842863D01*
X23737781Y-28842860D01*
X23573920Y-28733371D01*
X23573907Y-28733364D01*
X23391839Y-28657950D01*
X23391829Y-28657947D01*
X23198543Y-28619500D01*
X23198541Y-28619500D01*
X23001459Y-28619500D01*
X23001457Y-28619500D01*
X22808170Y-28657947D01*
X22808160Y-28657950D01*
X22626092Y-28733364D01*
X22626079Y-28733371D01*
X22462218Y-28842860D01*
X22462214Y-28842863D01*
X22322863Y-28982214D01*
X22322860Y-28982218D01*
X22213371Y-29146079D01*
X22213364Y-29146092D01*
X22137950Y-29328160D01*
X22137947Y-29328170D01*
X22099500Y-29521456D01*
X22099500Y-29521459D01*
X22099500Y-29718541D01*
X22099500Y-29718543D01*
X22099499Y-29718543D01*
X20500500Y-29718543D01*
X20500500Y-27001211D01*
X22094500Y-27001211D01*
X22094500Y-27158788D01*
X22098449Y-27198884D01*
X22129192Y-27353442D01*
X22140887Y-27391997D01*
X22177381Y-27480099D01*
X22201192Y-27537584D01*
X22220182Y-27573112D01*
X22220187Y-27573120D01*
X22220192Y-27573128D01*
X22307725Y-27704131D01*
X22307729Y-27704136D01*
X22307732Y-27704140D01*
X22333289Y-27735280D01*
X22444720Y-27846711D01*
X22475860Y-27872268D01*
X22475863Y-27872270D01*
X22475868Y-27872274D01*
X22606871Y-27959807D01*
X22606874Y-27959809D01*
X22606888Y-27959818D01*
X22642416Y-27978808D01*
X22788007Y-28039114D01*
X22826559Y-28050808D01*
X22981117Y-28081551D01*
X23021207Y-28085500D01*
X23021212Y-28085500D01*
X23739783Y-28085500D01*
X23739783Y-28085499D01*
X23818423Y-28069858D01*
X23891932Y-28039410D01*
X23958601Y-27994862D01*
X24014862Y-27938601D01*
X24059410Y-27871932D01*
X24069857Y-27846711D01*
X24089854Y-27798433D01*
X24089854Y-27798431D01*
X24089858Y-27798423D01*
X24105500Y-27719782D01*
X24105500Y-26440220D01*
X39775000Y-26440220D01*
X39775000Y-27719767D01*
X39775081Y-27726826D01*
X39798216Y-27836500D01*
X39798216Y-27836502D01*
X39810645Y-27866509D01*
X39810647Y-27866510D01*
X40411980Y-27265176D01*
X40414075Y-27272993D01*
X40479901Y-27387007D01*
X40572993Y-27480099D01*
X40687007Y-27545925D01*
X40694823Y-27548019D01*
X40093489Y-28149353D01*
X40123462Y-28161768D01*
X40130035Y-28164402D01*
X40240220Y-28185000D01*
X40958791Y-28185000D01*
X41018281Y-28179141D01*
X41018285Y-28179141D01*
X41172848Y-28148398D01*
X41230072Y-28131039D01*
X41375661Y-28070733D01*
X41428387Y-28042550D01*
X41428397Y-28042544D01*
X41507108Y-27989951D01*
X41065176Y-27548019D01*
X41072993Y-27545925D01*
X41187007Y-27480099D01*
X41280099Y-27387007D01*
X41345925Y-27272993D01*
X41348019Y-27265176D01*
X41789951Y-27707108D01*
X41842544Y-27628397D01*
X41842550Y-27628387D01*
X41870733Y-27575661D01*
X41931039Y-27430072D01*
X41948398Y-27372848D01*
X41979141Y-27218285D01*
X41979141Y-27218281D01*
X41985000Y-27158791D01*
X41985000Y-27001208D01*
X41979141Y-26941718D01*
X41979141Y-26941714D01*
X41948398Y-26787151D01*
X41931039Y-26729927D01*
X41870733Y-26584338D01*
X41842550Y-26531612D01*
X41842544Y-26531602D01*
X41789951Y-26452890D01*
X41348019Y-26894822D01*
X41345925Y-26887007D01*
X41280099Y-26772993D01*
X41187007Y-26679901D01*
X41072993Y-26614075D01*
X41065176Y-26611980D01*
X41507107Y-26170048D01*
X41428397Y-26117455D01*
X41428387Y-26117449D01*
X41375661Y-26089266D01*
X41230072Y-26028960D01*
X41172848Y-26011601D01*
X41018283Y-25980858D01*
X40958791Y-25975000D01*
X40240232Y-25975000D01*
X40233173Y-25975081D01*
X40123500Y-25998216D01*
X40093488Y-26010645D01*
X40093488Y-26010646D01*
X40694823Y-26611980D01*
X40687007Y-26614075D01*
X40572993Y-26679901D01*
X40479901Y-26772993D01*
X40414075Y-26887007D01*
X40411980Y-26894822D01*
X39810646Y-26293488D01*
X39810645Y-26293488D01*
X39798226Y-26323474D01*
X39795597Y-26330035D01*
X39795597Y-26330036D01*
X39775000Y-26440220D01*
X24105500Y-26440220D01*
X24105500Y-26440218D01*
X24089858Y-26361577D01*
X24089855Y-26361571D01*
X24089854Y-26361566D01*
X24059413Y-26288074D01*
X24059411Y-26288071D01*
X24059410Y-26288068D01*
X24014862Y-26221399D01*
X23958601Y-26165138D01*
X23891932Y-26120590D01*
X23891929Y-26120588D01*
X23891925Y-26120586D01*
X23818433Y-26090145D01*
X23818417Y-26090140D01*
X23739785Y-26074500D01*
X23739782Y-26074500D01*
X23021207Y-26074500D01*
X22992571Y-26077320D01*
X22981115Y-26078449D01*
X22826557Y-26109192D01*
X22788002Y-26120887D01*
X22642422Y-26181189D01*
X22642415Y-26181192D01*
X22614182Y-26196282D01*
X22606888Y-26200182D01*
X22606885Y-26200183D01*
X22606871Y-26200192D01*
X22475868Y-26287725D01*
X22475863Y-26287729D01*
X22444720Y-26313288D01*
X22333288Y-26424720D01*
X22307729Y-26455863D01*
X22307725Y-26455868D01*
X22220192Y-26586871D01*
X22220180Y-26586892D01*
X22201192Y-26622415D01*
X22201189Y-26622422D01*
X22140887Y-26768002D01*
X22129192Y-26806557D01*
X22098449Y-26961115D01*
X22094500Y-27001211D01*
X20500500Y-27001211D01*
X20500500Y-24638543D01*
X22099499Y-24638543D01*
X22137947Y-24831829D01*
X22137950Y-24831839D01*
X22213364Y-25013907D01*
X22213371Y-25013920D01*
X22322860Y-25177781D01*
X22322863Y-25177785D01*
X22462214Y-25317136D01*
X22462218Y-25317139D01*
X22626079Y-25426628D01*
X22626092Y-25426635D01*
X22808160Y-25502049D01*
X22808165Y-25502051D01*
X22808169Y-25502051D01*
X22808170Y-25502052D01*
X23001456Y-25540500D01*
X23001459Y-25540500D01*
X23198543Y-25540500D01*
X23328582Y-25514632D01*
X23391835Y-25502051D01*
X23573914Y-25426632D01*
X23737782Y-25317139D01*
X23877139Y-25177782D01*
X23986632Y-25013914D01*
X24062051Y-24831835D01*
X24100500Y-24638543D01*
X39879499Y-24638543D01*
X39917947Y-24831829D01*
X39917950Y-24831839D01*
X39993364Y-25013907D01*
X39993371Y-25013920D01*
X40102860Y-25177781D01*
X40102863Y-25177785D01*
X40242214Y-25317136D01*
X40242218Y-25317139D01*
X40406079Y-25426628D01*
X40406092Y-25426635D01*
X40588160Y-25502049D01*
X40588165Y-25502051D01*
X40588169Y-25502051D01*
X40588170Y-25502052D01*
X40781456Y-25540500D01*
X40781459Y-25540500D01*
X40978543Y-25540500D01*
X41108582Y-25514632D01*
X41171835Y-25502051D01*
X41353914Y-25426632D01*
X41517782Y-25317139D01*
X41657139Y-25177782D01*
X41766632Y-25013914D01*
X41842051Y-24831835D01*
X41880500Y-24638541D01*
X41880500Y-24441459D01*
X41880500Y-24441456D01*
X41842052Y-24248170D01*
X41842051Y-24248169D01*
X41842051Y-24248165D01*
X41842049Y-24248160D01*
X41766635Y-24066092D01*
X41766628Y-24066079D01*
X41684754Y-23943546D01*
X41684753Y-23943545D01*
X41657136Y-23902214D01*
X41633633Y-23878711D01*
X58149500Y-23878711D01*
X58149500Y-24121288D01*
X58181161Y-24361785D01*
X58243947Y-24596104D01*
X58336773Y-24820205D01*
X58336777Y-24820214D01*
X58343489Y-24831839D01*
X58458064Y-25030289D01*
X58458066Y-25030292D01*
X58458067Y-25030293D01*
X58605733Y-25222736D01*
X58605739Y-25222743D01*
X58777256Y-25394260D01*
X58777263Y-25394266D01*
X58819447Y-25426635D01*
X58969711Y-25541936D01*
X59179788Y-25663224D01*
X59403900Y-25756054D01*
X59638211Y-25818838D01*
X59818586Y-25842584D01*
X59878711Y-25850500D01*
X59878712Y-25850500D01*
X60121289Y-25850500D01*
X60169388Y-25844167D01*
X60361789Y-25818838D01*
X60596100Y-25756054D01*
X60820212Y-25663224D01*
X61030289Y-25541936D01*
X61222738Y-25394265D01*
X61394265Y-25222738D01*
X61541936Y-25030289D01*
X61663224Y-24820212D01*
X61756054Y-24596100D01*
X61818838Y-24361789D01*
X61850500Y-24121288D01*
X61850500Y-23878712D01*
X61818838Y-23638211D01*
X61756054Y-23403900D01*
X61663224Y-23179788D01*
X61541936Y-22969711D01*
X61394265Y-22777262D01*
X61394260Y-22777256D01*
X61222743Y-22605739D01*
X61222736Y-22605733D01*
X61030293Y-22458067D01*
X61030292Y-22458066D01*
X61030289Y-22458064D01*
X60820212Y-22336776D01*
X60820205Y-22336773D01*
X60596104Y-22243947D01*
X60361785Y-22181161D01*
X60121289Y-22149500D01*
X60121288Y-22149500D01*
X59878712Y-22149500D01*
X59878711Y-22149500D01*
X59638214Y-22181161D01*
X59403895Y-22243947D01*
X59179794Y-22336773D01*
X59179785Y-22336777D01*
X58969706Y-22458067D01*
X58777263Y-22605733D01*
X58777256Y-22605739D01*
X58605739Y-22777256D01*
X58605733Y-22777263D01*
X58458067Y-22969706D01*
X58336777Y-23179785D01*
X58336773Y-23179794D01*
X58243947Y-23403895D01*
X58181161Y-23638214D01*
X58149500Y-23878711D01*
X41633633Y-23878711D01*
X41517785Y-23762863D01*
X41517781Y-23762860D01*
X41353920Y-23653371D01*
X41353907Y-23653364D01*
X41171839Y-23577950D01*
X41171829Y-23577947D01*
X40978543Y-23539500D01*
X40978541Y-23539500D01*
X40781459Y-23539500D01*
X40781457Y-23539500D01*
X40588170Y-23577947D01*
X40588160Y-23577950D01*
X40406092Y-23653364D01*
X40406079Y-23653371D01*
X40242218Y-23762860D01*
X40242214Y-23762863D01*
X40102863Y-23902214D01*
X40102860Y-23902218D01*
X39993371Y-24066079D01*
X39993364Y-24066092D01*
X39917950Y-24248160D01*
X39917947Y-24248170D01*
X39879500Y-24441456D01*
X39879500Y-24441459D01*
X39879500Y-24638541D01*
X39879500Y-24638543D01*
X39879499Y-24638543D01*
X24100500Y-24638543D01*
X24100500Y-24638541D01*
X24100500Y-24441459D01*
X24100500Y-24441456D01*
X24062052Y-24248170D01*
X24062051Y-24248169D01*
X24062051Y-24248165D01*
X24062049Y-24248160D01*
X23986635Y-24066092D01*
X23986628Y-24066079D01*
X23877139Y-23902218D01*
X23877136Y-23902214D01*
X23737785Y-23762863D01*
X23737781Y-23762860D01*
X23573920Y-23653371D01*
X23573907Y-23653364D01*
X23391839Y-23577950D01*
X23391829Y-23577947D01*
X23198543Y-23539500D01*
X23198541Y-23539500D01*
X23001459Y-23539500D01*
X23001457Y-23539500D01*
X22808170Y-23577947D01*
X22808160Y-23577950D01*
X22626092Y-23653364D01*
X22626079Y-23653371D01*
X22462218Y-23762860D01*
X22462214Y-23762863D01*
X22322863Y-23902214D01*
X22322860Y-23902218D01*
X22213371Y-24066079D01*
X22213364Y-24066092D01*
X22137950Y-24248160D01*
X22137947Y-24248170D01*
X22099500Y-24441456D01*
X22099500Y-24441459D01*
X22099500Y-24638541D01*
X22099500Y-24638543D01*
X22099499Y-24638543D01*
X20500500Y-24638543D01*
X20500500Y-21368475D01*
X22099500Y-21368475D01*
X22099500Y-22631517D01*
X22110292Y-22699657D01*
X22114354Y-22725304D01*
X22171950Y-22838342D01*
X22171952Y-22838344D01*
X22171954Y-22838347D01*
X22261652Y-22928045D01*
X22261654Y-22928046D01*
X22261658Y-22928050D01*
X22374694Y-22985645D01*
X22374698Y-22985647D01*
X22468475Y-23000499D01*
X22468481Y-23000500D01*
X23731518Y-23000499D01*
X23825304Y-22985646D01*
X23938342Y-22928050D01*
X24028050Y-22838342D01*
X24085646Y-22725304D01*
X24085646Y-22725302D01*
X24085647Y-22725301D01*
X24096282Y-22658147D01*
X24100500Y-22631519D01*
X24100500Y-22098543D01*
X39879499Y-22098543D01*
X39917947Y-22291829D01*
X39917950Y-22291839D01*
X39993364Y-22473907D01*
X39993371Y-22473920D01*
X40102860Y-22637781D01*
X40102863Y-22637785D01*
X40242214Y-22777136D01*
X40242218Y-22777139D01*
X40406079Y-22886628D01*
X40406092Y-22886635D01*
X40588160Y-22962049D01*
X40588165Y-22962051D01*
X40588169Y-22962051D01*
X40588170Y-22962052D01*
X40781456Y-23000500D01*
X40781459Y-23000500D01*
X40978543Y-23000500D01*
X41133351Y-22969706D01*
X41171835Y-22962051D01*
X41353914Y-22886632D01*
X41517782Y-22777139D01*
X41657139Y-22637782D01*
X41766632Y-22473914D01*
X41842051Y-22291835D01*
X41854632Y-22228582D01*
X41880500Y-22098543D01*
X41880500Y-21901456D01*
X41842052Y-21708170D01*
X41842051Y-21708169D01*
X41842051Y-21708165D01*
X41842049Y-21708160D01*
X41766635Y-21526092D01*
X41766628Y-21526079D01*
X41657139Y-21362218D01*
X41657136Y-21362214D01*
X41517785Y-21222863D01*
X41517781Y-21222860D01*
X41353920Y-21113371D01*
X41353907Y-21113364D01*
X41171839Y-21037950D01*
X41171829Y-21037947D01*
X40978543Y-20999500D01*
X40978541Y-20999500D01*
X40781459Y-20999500D01*
X40781457Y-20999500D01*
X40588170Y-21037947D01*
X40588160Y-21037950D01*
X40406092Y-21113364D01*
X40406079Y-21113371D01*
X40242218Y-21222860D01*
X40242214Y-21222863D01*
X40102863Y-21362214D01*
X40102860Y-21362218D01*
X39993371Y-21526079D01*
X39993364Y-21526092D01*
X39917950Y-21708160D01*
X39917947Y-21708170D01*
X39879500Y-21901456D01*
X39879500Y-21901459D01*
X39879500Y-22098541D01*
X39879500Y-22098543D01*
X39879499Y-22098543D01*
X24100500Y-22098543D01*
X24100499Y-21368482D01*
X24085646Y-21274696D01*
X24028050Y-21161658D01*
X24028046Y-21161654D01*
X24028045Y-21161652D01*
X23938347Y-21071954D01*
X23938344Y-21071952D01*
X23938342Y-21071950D01*
X23861517Y-21032805D01*
X23825301Y-21014352D01*
X23731524Y-20999500D01*
X22468482Y-20999500D01*
X22387519Y-21012323D01*
X22374696Y-21014354D01*
X22261658Y-21071950D01*
X22261657Y-21071951D01*
X22261652Y-21071954D01*
X22171954Y-21161652D01*
X22171951Y-21161657D01*
X22114352Y-21274698D01*
X22099500Y-21368475D01*
X20500500Y-21368475D01*
X20500500Y-20624500D01*
X20520185Y-20557461D01*
X20572989Y-20511706D01*
X20624500Y-20500500D01*
X99375500Y-20500500D01*
X99442539Y-20520185D01*
G37*
%TD.AperFunction*%
%TD*%
M02*
