%TF.GenerationSoftware,KiCad,Pcbnew,10.0.4*%
%TF.CreationDate,2026-08-19T01:19:40-03:00*%
%TF.ProjectId,retrosc-pong-yd,72657472-6f73-4632-9d70-6f6e672d7964,rev?*%
%TF.SameCoordinates,Original*%
%TF.FileFunction,Copper,L2,Bot*%
%TF.FilePolarity,Positive*%
%FSLAX46Y46*%
G04 Gerber Fmt 4.6, Leading zero omitted, Abs format (unit mm)*
G04 Created by KiCad (PCBNEW 10.0.4) date 2026-08-19 01:19:40*
%MOMM*%
%LPD*%
G01*
G04 APERTURE LIST*
G04 Aperture macros list*
%AMRoundRect*
0 Rectangle with rounded corners*
0 $1 Rounding radius*
0 $2 $3 $4 $5 $6 $7 $8 $9 X,Y pos of 4 corners*
0 Add a 4 corners polygon primitive as box body*
4,1,4,$2,$3,$4,$5,$6,$7,$8,$9,$2,$3,0*
0 Add four circle primitives for the rounded corners*
1,1,$1+$1,$2,$3*
1,1,$1+$1,$4,$5*
1,1,$1+$1,$6,$7*
1,1,$1+$1,$8,$9*
0 Add four rect primitives between the rounded corners*
20,1,$1+$1,$2,$3,$4,$5,0*
20,1,$1+$1,$4,$5,$6,$7,0*
20,1,$1+$1,$6,$7,$8,$9,0*
20,1,$1+$1,$8,$9,$2,$3,0*%
%AMFreePoly0*
4,1,37,0.603843,0.796157,0.639018,0.796157,0.711114,0.766294,0.766294,0.711114,0.796157,0.639018,0.796157,0.603843,0.800000,0.600000,0.800000,-0.600000,0.796157,-0.603843,0.796157,-0.639018,0.766294,-0.711114,0.711114,-0.766294,0.639018,-0.796157,0.603843,-0.796157,0.600000,-0.800000,0.000000,-0.800000,0.000000,-0.796148,-0.078414,-0.796148,-0.232228,-0.765552,-0.377117,-0.705537,
-0.507515,-0.618408,-0.618408,-0.507515,-0.705537,-0.377117,-0.765552,-0.232228,-0.796148,-0.078414,-0.796148,0.078414,-0.765552,0.232228,-0.705537,0.377117,-0.618408,0.507515,-0.507515,0.618408,-0.377117,0.705537,-0.232228,0.765552,-0.078414,0.796148,0.000000,0.796148,0.000000,0.800000,0.600000,0.800000,0.603843,0.796157,0.603843,0.796157,$1*%
%AMFreePoly1*
4,1,37,0.000000,0.796148,0.078414,0.796148,0.232228,0.765552,0.377117,0.705537,0.507515,0.618408,0.618408,0.507515,0.705537,0.377117,0.765552,0.232228,0.796148,0.078414,0.796148,-0.078414,0.765552,-0.232228,0.705537,-0.377117,0.618408,-0.507515,0.507515,-0.618408,0.377117,-0.705537,0.232228,-0.765552,0.078414,-0.796148,0.000000,-0.796148,0.000000,-0.800000,-0.600000,-0.800000,
-0.603843,-0.796157,-0.639018,-0.796157,-0.711114,-0.766294,-0.766294,-0.711114,-0.796157,-0.639018,-0.796157,-0.603843,-0.800000,-0.600000,-0.800000,0.600000,-0.796157,0.603843,-0.796157,0.639018,-0.766294,0.711114,-0.711114,0.766294,-0.639018,0.796157,-0.603843,0.796157,-0.600000,0.800000,0.000000,0.800000,0.000000,0.796148,0.000000,0.796148,$1*%
G04 Aperture macros list end*
%TA.AperFunction,ComponentPad*%
%ADD10C,1.600000*%
%TD*%
%TA.AperFunction,ComponentPad*%
%ADD11C,2.600000*%
%TD*%
%TA.AperFunction,ComponentPad*%
%ADD12O,3.400000X2.300000*%
%TD*%
%TA.AperFunction,ComponentPad*%
%ADD13O,2.300000X3.400000*%
%TD*%
%TA.AperFunction,ComponentPad*%
%ADD14RoundRect,0.200000X-0.600000X-0.600000X0.600000X-0.600000X0.600000X0.600000X-0.600000X0.600000X0*%
%TD*%
%TA.AperFunction,ComponentPad*%
%ADD15FreePoly0,0.000000*%
%TD*%
%TA.AperFunction,ComponentPad*%
%ADD16FreePoly1,0.000000*%
%TD*%
%TA.AperFunction,ComponentPad*%
%ADD17RoundRect,0.250000X-0.550000X-0.550000X0.550000X-0.550000X0.550000X0.550000X-0.550000X0.550000X0*%
%TD*%
%TA.AperFunction,ComponentPad*%
%ADD18R,1.700000X1.700000*%
%TD*%
%TA.AperFunction,ComponentPad*%
%ADD19C,1.700000*%
%TD*%
%TA.AperFunction,ComponentPad*%
%ADD20R,1.900000X1.900000*%
%TD*%
%TA.AperFunction,ComponentPad*%
%ADD21C,1.900000*%
%TD*%
%TA.AperFunction,ViaPad*%
%ADD22C,0.700000*%
%TD*%
%TA.AperFunction,Conductor*%
%ADD23C,0.250000*%
%TD*%
G04 APERTURE END LIST*
D10*
%TO.P,R2,1*%
%TO.N,VIDEO*%
X46000000Y-48000000D03*
%TO.P,R2,2*%
%TO.N,COMPOSITE*%
X48540000Y-48000000D03*
%TD*%
D11*
%TO.P,J8,1*%
%TO.N,RCA_C*%
X92500000Y-66000000D03*
D12*
%TO.P,J8,2*%
%TO.N,RCA_S*%
X92500000Y-61000000D03*
D13*
X97500000Y-66000000D03*
D12*
X92500000Y-71000000D03*
%TD*%
D14*
%TO.P,U1,1*%
%TO.N,N/C*%
X23100000Y-22000000D03*
D10*
%TO.P,U1,2*%
X23100000Y-24540000D03*
D15*
%TO.P,U1,3*%
X23100000Y-27080000D03*
D10*
%TO.P,U1,4*%
X23100000Y-29620000D03*
%TO.P,U1,5*%
X23100000Y-32160000D03*
%TO.P,U1,6*%
%TO.N,GND*%
X23100000Y-34700000D03*
%TO.P,U1,7*%
%TO.N,N/C*%
X23100000Y-37240000D03*
D15*
%TO.P,U1,8*%
X23100000Y-39780000D03*
D10*
%TO.P,U1,9*%
X23100000Y-42320000D03*
%TO.P,U1,10*%
X23100000Y-44860000D03*
%TO.P,U1,11*%
X23100000Y-47400000D03*
%TO.P,U1,12*%
X23100000Y-49940000D03*
D15*
%TO.P,U1,13*%
X23100000Y-52480000D03*
D10*
%TO.P,U1,14*%
X23100000Y-55020000D03*
%TO.P,U1,15*%
%TO.N,GND*%
X23100000Y-57560000D03*
%TO.P,U1,16*%
%TO.N,N/C*%
X23100000Y-60100000D03*
%TO.P,U1,17*%
X23100000Y-62640000D03*
D15*
%TO.P,U1,18*%
X23100000Y-65180000D03*
D10*
%TO.P,U1,19*%
%TO.N,SYNC*%
X23100000Y-67720000D03*
%TO.P,U1,20*%
%TO.N,VIDEO*%
X23100000Y-70260000D03*
%TO.P,U1,21*%
%TO.N,AUDIO_PWM*%
X40880000Y-70260000D03*
%TO.P,U1,22*%
%TO.N,N/C*%
X40880000Y-67720000D03*
D16*
%TO.P,U1,23*%
X40880000Y-65180000D03*
D10*
%TO.P,U1,24*%
X40880000Y-62640000D03*
%TO.P,U1,25*%
%TO.N,START*%
X40880000Y-60100000D03*
%TO.P,U1,26*%
%TO.N,N/C*%
X40880000Y-57560000D03*
%TO.P,U1,27*%
X40880000Y-55020000D03*
D16*
%TO.P,U1,28*%
X40880000Y-52480000D03*
D10*
%TO.P,U1,29*%
%TO.N,AGND*%
X40880000Y-49940000D03*
%TO.P,U1,30*%
%TO.N,POT1*%
X40880000Y-47400000D03*
%TO.P,U1,31*%
%TO.N,POT2*%
X40880000Y-44860000D03*
%TO.P,U1,32*%
%TO.N,N/C*%
X40880000Y-42320000D03*
D16*
%TO.P,U1,33*%
X40880000Y-39780000D03*
D10*
%TO.P,U1,34*%
X40880000Y-37240000D03*
%TO.P,U1,35*%
%TO.N,GND*%
X40880000Y-34700000D03*
%TO.P,U1,36*%
%TO.N,+3V3*%
X40880000Y-32160000D03*
%TO.P,U1,37*%
%TO.N,N/C*%
X40880000Y-29620000D03*
D16*
%TO.P,U1,38*%
%TO.N,GND*%
X40880000Y-27080000D03*
D10*
%TO.P,U1,39*%
%TO.N,N/C*%
X40880000Y-24540000D03*
%TO.P,U1,40*%
%TO.N,+5V*%
X40880000Y-22000000D03*
%TD*%
D11*
%TO.P,J9,1*%
%TO.N,RCA_C*%
X92500000Y-79000000D03*
D12*
%TO.P,J9,2*%
%TO.N,RCA_S*%
X92500000Y-74000000D03*
D13*
X97500000Y-79000000D03*
D12*
X92500000Y-84000000D03*
%TD*%
D17*
%TO.P,C2,1*%
%TO.N,AUD_F*%
X56000000Y-31000000D03*
D10*
%TO.P,C2,2*%
%TO.N,AUD_C*%
X58500000Y-31000000D03*
%TD*%
%TO.P,R5,1*%
%TO.N,LINHA*%
X56000000Y-44000000D03*
%TO.P,R5,2*%
%TO.N,GND*%
X58540000Y-44000000D03*
%TD*%
%TO.P,C4,1*%
%TO.N,POT2*%
X46000000Y-36000000D03*
%TO.P,C4,2*%
%TO.N,AGND*%
X51000000Y-36000000D03*
%TD*%
D18*
%TO.P,J4,1*%
%TO.N,RCA_C*%
X22000000Y-80000000D03*
D19*
%TO.P,J4,2*%
%TO.N,RCA_S*%
X24540000Y-80000000D03*
%TO.P,J4,3*%
%TO.N,LINHA*%
X27080000Y-80000000D03*
%TO.P,J4,4*%
%TO.N,GND*%
X29620000Y-80000000D03*
%TO.P,J4,5*%
%TO.N,LOUT_P*%
X32160000Y-80000000D03*
%TO.P,J4,6*%
%TO.N,LOUT_N*%
X34700000Y-80000000D03*
%TD*%
D10*
%TO.P,C1,1*%
%TO.N,AUD_F*%
X46000000Y-60000000D03*
%TO.P,C1,2*%
%TO.N,GND*%
X51000000Y-60000000D03*
%TD*%
%TO.P,C3,1*%
%TO.N,POT1*%
X46000000Y-30000000D03*
%TO.P,C3,2*%
%TO.N,AGND*%
X51000000Y-30000000D03*
%TD*%
%TO.P,R6,1*%
%TO.N,AUD_C*%
X56000000Y-50000000D03*
%TO.P,R6,2*%
%TO.N,AMP_L*%
X58540000Y-50000000D03*
%TD*%
D11*
%TO.P,J1,1*%
%TO.N,COMPOSITE*%
X92500000Y-53000000D03*
D12*
%TO.P,J1,2*%
%TO.N,GND*%
X92500000Y-48000000D03*
D13*
X97500000Y-53000000D03*
D12*
X92500000Y-58000000D03*
%TD*%
D10*
%TO.P,R7,1*%
%TO.N,AUD_C*%
X56000000Y-56000000D03*
%TO.P,R7,2*%
%TO.N,AMP_R*%
X58540000Y-56000000D03*
%TD*%
%TO.P,R4,1*%
%TO.N,AUD_C*%
X56000000Y-38000000D03*
%TO.P,R4,2*%
%TO.N,LINHA*%
X58540000Y-38000000D03*
%TD*%
%TO.P,R3,1*%
%TO.N,AUDIO_PWM*%
X46000000Y-54000000D03*
%TO.P,R3,2*%
%TO.N,AUD_F*%
X48540000Y-54000000D03*
%TD*%
D18*
%TO.P,J5,1*%
%TO.N,+3V3*%
X67000000Y-80000000D03*
D19*
%TO.P,J5,2*%
%TO.N,POT1*%
X69540000Y-80000000D03*
%TO.P,J5,3*%
%TO.N,AGND*%
X72080000Y-80000000D03*
%TD*%
D18*
%TO.P,J7,1*%
%TO.N,START*%
X46000000Y-80000000D03*
D19*
%TO.P,J7,2*%
%TO.N,GND*%
X48540000Y-80000000D03*
%TD*%
D10*
%TO.P,R1,1*%
%TO.N,SYNC*%
X46000000Y-42000000D03*
%TO.P,R1,2*%
%TO.N,COMPOSITE*%
X48540000Y-42000000D03*
%TD*%
D18*
%TO.P,J6,1*%
%TO.N,+3V3*%
X77160000Y-80000000D03*
D19*
%TO.P,J6,2*%
%TO.N,POT2*%
X79700000Y-80000000D03*
%TO.P,J6,3*%
%TO.N,AGND*%
X82240000Y-80000000D03*
%TD*%
D20*
%TO.P,U2,1*%
%TO.N,N/C*%
X67000000Y-42000000D03*
D21*
%TO.P,U2,2*%
X69540000Y-42000000D03*
%TO.P,U2,3*%
%TO.N,LOUT_P*%
X72080000Y-42000000D03*
%TO.P,U2,4*%
%TO.N,LOUT_N*%
X74620000Y-42000000D03*
%TO.P,U2,5*%
%TO.N,GND*%
X79700000Y-42000000D03*
%TO.P,U2,6*%
%TO.N,+5V*%
X82240000Y-42000000D03*
%TO.P,U2,7*%
%TO.N,AMP_L*%
X87320000Y-42000000D03*
%TO.P,U2,8*%
%TO.N,GND*%
X89860000Y-42000000D03*
%TO.P,U2,9*%
%TO.N,AMP_R*%
X92400000Y-42000000D03*
%TD*%
D22*
%TO.N,AGND*%
X50396800Y-52028200D03*
%TO.N,+3V3*%
X68246700Y-36903300D03*
%TO.N,AUD_F*%
X51242200Y-52607300D03*
%TO.N,LINHA*%
X57111100Y-57691800D03*
%TO.N,LOUT_P*%
X61376700Y-58338500D03*
%TO.N,LOUT_N*%
X60730000Y-62279300D03*
%TD*%
%TO.N,VIDEO*%
D23*
X42787300Y-51212700D02*
X46000000Y-48000000D01*
X24415100Y-63143500D02*
X36345900Y-51212700D01*
X23100000Y-70260000D02*
X24415100Y-68944900D01*
X24415100Y-68944900D02*
X24415100Y-63143500D01*
X36345900Y-51212700D02*
X42787300Y-51212700D01*
%TO.N,COMPOSITE*%
X48540000Y-48000000D02*
X48540000Y-42000000D01*
%TO.N,RCA_C*%
X90450500Y-76950500D02*
X90450500Y-68049500D01*
X90450500Y-68049500D02*
X92500000Y-66000000D01*
X92500000Y-79000000D02*
X90450500Y-76950500D01*
%TO.N,RCA_S*%
X97500000Y-66000000D02*
X96053300Y-66000000D01*
X95404700Y-66000000D02*
X96053300Y-66000000D01*
X92500000Y-84000000D02*
X92500000Y-82553300D01*
X92500000Y-71000000D02*
X92500000Y-69553300D01*
X95404700Y-66648600D02*
X95404700Y-66000000D01*
X92500000Y-74000000D02*
X92500000Y-71000000D01*
X95404700Y-79648600D02*
X95404700Y-79000000D01*
X92500000Y-61000000D02*
X92500000Y-62446700D01*
X95404700Y-65351400D02*
X92500000Y-62446700D01*
X92500000Y-74000000D02*
X92500000Y-75446700D01*
X95404700Y-79000000D02*
X96053300Y-79000000D01*
X97500000Y-79000000D02*
X96053300Y-79000000D01*
X92500000Y-69553300D02*
X95404700Y-66648600D01*
X95404700Y-79000000D02*
X95404700Y-78351400D01*
X95404700Y-66000000D02*
X95404700Y-65351400D01*
X95404700Y-78351400D02*
X92500000Y-75446700D01*
X92500000Y-82553300D02*
X95404700Y-79648600D01*
%TO.N,AUDIO_PWM*%
X39739200Y-59685800D02*
X40595000Y-58830000D01*
X39739200Y-69119200D02*
X39739200Y-59685800D01*
X41170000Y-58830000D02*
X46000000Y-54000000D01*
X40880000Y-70260000D02*
X39739200Y-69119200D01*
X40595000Y-58830000D02*
X41170000Y-58830000D01*
%TO.N,START*%
X40880000Y-60100000D02*
X46000000Y-65220000D01*
X46000000Y-65220000D02*
X46000000Y-80000000D01*
%TO.N,AGND*%
X50595500Y-52028200D02*
X50396800Y-52028200D01*
X50595500Y-53500100D02*
X72080000Y-74984600D01*
X50595500Y-52028200D02*
X50595500Y-53500100D01*
X51000000Y-36000000D02*
X51000000Y-30000000D01*
X51000000Y-36000000D02*
X50595500Y-36404500D01*
X50595500Y-36404500D02*
X50595500Y-52028200D01*
X72080000Y-74984600D02*
X72080000Y-80000000D01*
%TO.N,POT1*%
X42471500Y-45808500D02*
X44900000Y-45808500D01*
X40880000Y-47400000D02*
X42471500Y-45808500D01*
X46000000Y-30000000D02*
X44900000Y-31100000D01*
X69540000Y-73235300D02*
X69540000Y-80000000D01*
X47270000Y-50965300D02*
X69540000Y-73235300D01*
X47270000Y-47701900D02*
X47270000Y-50965300D01*
X45376600Y-45808500D02*
X47270000Y-47701900D01*
X44900000Y-45808500D02*
X45376600Y-45808500D01*
X44900000Y-31100000D02*
X44900000Y-45808500D01*
%TO.N,POT2*%
X46000000Y-36000000D02*
X46000000Y-33410900D01*
X50567700Y-28843200D02*
X63238100Y-28843200D01*
X46000000Y-33410900D02*
X50567700Y-28843200D01*
X79700000Y-45305100D02*
X79700000Y-80000000D01*
X63238100Y-28843200D02*
X79700000Y-45305100D01*
%TO.N,+3V3*%
X77160000Y-80000000D02*
X77160000Y-51411600D01*
X68246700Y-42498300D02*
X68246700Y-36903300D01*
X77160000Y-51411600D02*
X68246700Y-42498300D01*
%TO.N,AUD_F*%
X53615200Y-50234300D02*
X53615200Y-33384800D01*
X51242200Y-52607300D02*
X53615200Y-50234300D01*
X53615200Y-33384800D02*
X56000000Y-31000000D01*
X48540000Y-57460000D02*
X48540000Y-54000000D01*
X46000000Y-60000000D02*
X48540000Y-57460000D01*
%TO.N,AUD_C*%
X54898500Y-39101500D02*
X54898500Y-48898500D01*
X54898500Y-48898500D02*
X56000000Y-50000000D01*
X58500000Y-35500000D02*
X56000000Y-38000000D01*
X56000000Y-38000000D02*
X54898500Y-39101500D01*
X58500000Y-31000000D02*
X58500000Y-35500000D01*
X56000000Y-56000000D02*
X56000000Y-50000000D01*
%TO.N,LINHA*%
X56000000Y-40540000D02*
X58540000Y-38000000D01*
X56000000Y-44000000D02*
X57111100Y-45111100D01*
X56000000Y-44000000D02*
X56000000Y-40540000D01*
X57111100Y-45111100D02*
X57111100Y-57691800D01*
%TO.N,LOUT_P*%
X72080000Y-42000000D02*
X72080000Y-39757000D01*
X68526000Y-36203000D02*
X68007400Y-36203000D01*
X61376700Y-42833700D02*
X61376700Y-58338500D01*
X72080000Y-39757000D02*
X68526000Y-36203000D01*
X68007400Y-36203000D02*
X61376700Y-42833700D01*
%TO.N,LOUT_N*%
X74620000Y-42000000D02*
X74620000Y-41627300D01*
X74620000Y-41627300D02*
X68774000Y-35781300D01*
X68774000Y-35781300D02*
X67832700Y-35781300D01*
X60730000Y-42884000D02*
X60730000Y-62279300D01*
X67832700Y-35781300D02*
X60730000Y-42884000D01*
%TD*%
%TA.AperFunction,Conductor*%
%TO.N,GND*%
G36*
X63118950Y-29188385D02*
G01*
X63139592Y-29205019D01*
X74577174Y-40642601D01*
X74610659Y-40703924D01*
X74605675Y-40773616D01*
X74563803Y-40829549D01*
X74508891Y-40852755D01*
X74395956Y-40870642D01*
X74326662Y-40861687D01*
X74288877Y-40835850D01*
X68973864Y-35520837D01*
X68973862Y-35520835D01*
X68936750Y-35499408D01*
X68899640Y-35477982D01*
X68858246Y-35466891D01*
X68816853Y-35455800D01*
X68816852Y-35455800D01*
X67883165Y-35455800D01*
X67883149Y-35455799D01*
X67875553Y-35455799D01*
X67789847Y-35455799D01*
X67756733Y-35464672D01*
X67707059Y-35477982D01*
X67707058Y-35477983D01*
X67632841Y-35520832D01*
X67632836Y-35520836D01*
X60469537Y-42684135D01*
X60469533Y-42684141D01*
X60426681Y-42758361D01*
X60426682Y-42758362D01*
X60404500Y-42841147D01*
X60404500Y-61774913D01*
X60384815Y-61841952D01*
X60368182Y-61862594D01*
X60289488Y-61941288D01*
X60217017Y-62066811D01*
X60217016Y-62066815D01*
X60179500Y-62206825D01*
X60179500Y-62206827D01*
X60179500Y-62324411D01*
X60159815Y-62391450D01*
X60107011Y-62437205D01*
X60037853Y-62447149D01*
X59974297Y-62418124D01*
X59967819Y-62412092D01*
X50957319Y-53401592D01*
X50942615Y-53374664D01*
X50926023Y-53348846D01*
X50925131Y-53342645D01*
X50923834Y-53340269D01*
X50921000Y-53313911D01*
X50921000Y-53252753D01*
X50940685Y-53185714D01*
X50993489Y-53139959D01*
X51062647Y-53130015D01*
X51077069Y-53132972D01*
X51169725Y-53157800D01*
X51169729Y-53157800D01*
X51314672Y-53157800D01*
X51314675Y-53157800D01*
X51454685Y-53120284D01*
X51580215Y-53047809D01*
X51682709Y-52945315D01*
X51755184Y-52819785D01*
X51792700Y-52679775D01*
X51792700Y-52568487D01*
X51812385Y-52501448D01*
X51829019Y-52480806D01*
X52316810Y-51993015D01*
X53815059Y-50494766D01*
X53815062Y-50494765D01*
X53875665Y-50434162D01*
X53897091Y-50397050D01*
X53918518Y-50359939D01*
X53940700Y-50277153D01*
X53940700Y-50191447D01*
X53940700Y-39058645D01*
X54573000Y-39058645D01*
X54573000Y-39058647D01*
X54573000Y-48855647D01*
X54573000Y-48941353D01*
X54578546Y-48962050D01*
X54595182Y-49024140D01*
X54612059Y-49053371D01*
X54638035Y-49098362D01*
X54638037Y-49098364D01*
X55040837Y-49501164D01*
X55074322Y-49562487D01*
X55069338Y-49632179D01*
X55067737Y-49636247D01*
X55037949Y-49708165D01*
X55037947Y-49708171D01*
X54999500Y-49901456D01*
X54999500Y-49901459D01*
X54999500Y-50098541D01*
X54999500Y-50098543D01*
X54999499Y-50098543D01*
X55037947Y-50291829D01*
X55037950Y-50291839D01*
X55113364Y-50473907D01*
X55113371Y-50473920D01*
X55222860Y-50637781D01*
X55222863Y-50637785D01*
X55362217Y-50777139D01*
X55481502Y-50856842D01*
X55526086Y-50886632D01*
X55597953Y-50916399D01*
X55652355Y-50960239D01*
X55674421Y-51026533D01*
X55674500Y-51030960D01*
X55674500Y-54969038D01*
X55654815Y-55036077D01*
X55602011Y-55081832D01*
X55597953Y-55083599D01*
X55526089Y-55113366D01*
X55526079Y-55113371D01*
X55362218Y-55222860D01*
X55362214Y-55222863D01*
X55222863Y-55362214D01*
X55222860Y-55362218D01*
X55113371Y-55526079D01*
X55113364Y-55526092D01*
X55037950Y-55708160D01*
X55037947Y-55708170D01*
X54999500Y-55901456D01*
X54999500Y-55901459D01*
X54999500Y-56098541D01*
X54999500Y-56098543D01*
X54999499Y-56098543D01*
X55037947Y-56291829D01*
X55037950Y-56291839D01*
X55113364Y-56473907D01*
X55113371Y-56473920D01*
X55222860Y-56637781D01*
X55222863Y-56637785D01*
X55362214Y-56777136D01*
X55362218Y-56777139D01*
X55526079Y-56886628D01*
X55526092Y-56886635D01*
X55708160Y-56962049D01*
X55708165Y-56962051D01*
X55708169Y-56962051D01*
X55708170Y-56962052D01*
X55901456Y-57000500D01*
X55901459Y-57000500D01*
X56098543Y-57000500D01*
X56228582Y-56974632D01*
X56291835Y-56962051D01*
X56473914Y-56886632D01*
X56473920Y-56886628D01*
X56592709Y-56807256D01*
X56659386Y-56786378D01*
X56726767Y-56804862D01*
X56773457Y-56856841D01*
X56785600Y-56910358D01*
X56785600Y-57187413D01*
X56765915Y-57254452D01*
X56749282Y-57275094D01*
X56670588Y-57353788D01*
X56598117Y-57479311D01*
X56598116Y-57479315D01*
X56560600Y-57619325D01*
X56560600Y-57764275D01*
X56596430Y-57897991D01*
X56598117Y-57904288D01*
X56670588Y-58029811D01*
X56670590Y-58029813D01*
X56670591Y-58029815D01*
X56773085Y-58132309D01*
X56773086Y-58132310D01*
X56773088Y-58132311D01*
X56898611Y-58204782D01*
X56898612Y-58204782D01*
X56898615Y-58204784D01*
X57038625Y-58242300D01*
X57038628Y-58242300D01*
X57183572Y-58242300D01*
X57183575Y-58242300D01*
X57323585Y-58204784D01*
X57449115Y-58132309D01*
X57551609Y-58029815D01*
X57624084Y-57904285D01*
X57661600Y-57764275D01*
X57661600Y-57619325D01*
X57624084Y-57479315D01*
X57563845Y-57374979D01*
X57551611Y-57353788D01*
X57551610Y-57353787D01*
X57551609Y-57353785D01*
X57472918Y-57275094D01*
X57439434Y-57213770D01*
X57436600Y-57187413D01*
X57436600Y-56558271D01*
X57456285Y-56491232D01*
X57509089Y-56445477D01*
X57578247Y-56435533D01*
X57641803Y-56464558D01*
X57663702Y-56489380D01*
X57762860Y-56637782D01*
X57902214Y-56777136D01*
X57902218Y-56777139D01*
X58066079Y-56886628D01*
X58066092Y-56886635D01*
X58248160Y-56962049D01*
X58248165Y-56962051D01*
X58248169Y-56962051D01*
X58248170Y-56962052D01*
X58441456Y-57000500D01*
X58441459Y-57000500D01*
X58638543Y-57000500D01*
X58768582Y-56974632D01*
X58831835Y-56962051D01*
X59013914Y-56886632D01*
X59177782Y-56777139D01*
X59317139Y-56637782D01*
X59426632Y-56473914D01*
X59502051Y-56291835D01*
X59540500Y-56098541D01*
X59540500Y-55901459D01*
X59540500Y-55901456D01*
X59502052Y-55708170D01*
X59502051Y-55708169D01*
X59502051Y-55708165D01*
X59481182Y-55657782D01*
X59426635Y-55526092D01*
X59426628Y-55526079D01*
X59317139Y-55362218D01*
X59317136Y-55362214D01*
X59177785Y-55222863D01*
X59177781Y-55222860D01*
X59013920Y-55113371D01*
X59013907Y-55113364D01*
X58831839Y-55037950D01*
X58831829Y-55037947D01*
X58638543Y-54999500D01*
X58638541Y-54999500D01*
X58441459Y-54999500D01*
X58441457Y-54999500D01*
X58248170Y-55037947D01*
X58248160Y-55037950D01*
X58066092Y-55113364D01*
X58066079Y-55113371D01*
X57902218Y-55222860D01*
X57902214Y-55222863D01*
X57762863Y-55362214D01*
X57762860Y-55362218D01*
X57663702Y-55510619D01*
X57610090Y-55555424D01*
X57540765Y-55564131D01*
X57477737Y-55533977D01*
X57441018Y-55474533D01*
X57436600Y-55441728D01*
X57436600Y-50558271D01*
X57456285Y-50491232D01*
X57509089Y-50445477D01*
X57578247Y-50435533D01*
X57641803Y-50464558D01*
X57663702Y-50489380D01*
X57762860Y-50637782D01*
X57902214Y-50777136D01*
X57902218Y-50777139D01*
X58066079Y-50886628D01*
X58066092Y-50886635D01*
X58243790Y-50960239D01*
X58248165Y-50962051D01*
X58248169Y-50962051D01*
X58248170Y-50962052D01*
X58441456Y-51000500D01*
X58441459Y-51000500D01*
X58638543Y-51000500D01*
X58768582Y-50974632D01*
X58831835Y-50962051D01*
X59013914Y-50886632D01*
X59177782Y-50777139D01*
X59317139Y-50637782D01*
X59426632Y-50473914D01*
X59502051Y-50291835D01*
X59522020Y-50191447D01*
X59540500Y-50098543D01*
X59540500Y-49901456D01*
X59502052Y-49708170D01*
X59502051Y-49708169D01*
X59502051Y-49708165D01*
X59502049Y-49708160D01*
X59426635Y-49526092D01*
X59426628Y-49526079D01*
X59317139Y-49362218D01*
X59317136Y-49362214D01*
X59177785Y-49222863D01*
X59177781Y-49222860D01*
X59013920Y-49113371D01*
X59013907Y-49113364D01*
X58831839Y-49037950D01*
X58831829Y-49037947D01*
X58638543Y-48999500D01*
X58638541Y-48999500D01*
X58441459Y-48999500D01*
X58441457Y-48999500D01*
X58248170Y-49037947D01*
X58248160Y-49037950D01*
X58066092Y-49113364D01*
X58066079Y-49113371D01*
X57902218Y-49222860D01*
X57902214Y-49222863D01*
X57762863Y-49362214D01*
X57762860Y-49362218D01*
X57663702Y-49510619D01*
X57610090Y-49555424D01*
X57540765Y-49564131D01*
X57477737Y-49533977D01*
X57441018Y-49474533D01*
X57436600Y-49441728D01*
X57436600Y-45163955D01*
X57436601Y-45163942D01*
X57436601Y-45068248D01*
X57423514Y-45019408D01*
X57414418Y-44985461D01*
X57397459Y-44956087D01*
X57384659Y-44933917D01*
X57384658Y-44933915D01*
X57377362Y-44921278D01*
X57377361Y-44921277D01*
X57374760Y-44916772D01*
X57371565Y-44911238D01*
X57310962Y-44850635D01*
X57310961Y-44850634D01*
X57306631Y-44846304D01*
X57306620Y-44846294D01*
X56959162Y-44498835D01*
X56925677Y-44437512D01*
X56930661Y-44367820D01*
X56932251Y-44363776D01*
X56962051Y-44291835D01*
X57000500Y-44098541D01*
X57000500Y-43913428D01*
X57440000Y-43913428D01*
X57440000Y-44086571D01*
X57467085Y-44257584D01*
X57520591Y-44422257D01*
X57599195Y-44576523D01*
X57599196Y-44576525D01*
X57633463Y-44623691D01*
X57633464Y-44623691D01*
X58153629Y-44103527D01*
X58167259Y-44154394D01*
X58219920Y-44245606D01*
X58294394Y-44320080D01*
X58385606Y-44372741D01*
X58436471Y-44386370D01*
X57916307Y-44906534D01*
X57963478Y-44940805D01*
X58117742Y-45019408D01*
X58282415Y-45072914D01*
X58453429Y-45100000D01*
X58626571Y-45100000D01*
X58797584Y-45072914D01*
X58962257Y-45019408D01*
X59116525Y-44940803D01*
X59163691Y-44906534D01*
X59163692Y-44906533D01*
X58643529Y-44386370D01*
X58694394Y-44372741D01*
X58785606Y-44320080D01*
X58860080Y-44245606D01*
X58912741Y-44154394D01*
X58926370Y-44103528D01*
X59446533Y-44623692D01*
X59446534Y-44623691D01*
X59480803Y-44576525D01*
X59559408Y-44422257D01*
X59612914Y-44257584D01*
X59640000Y-44086571D01*
X59640000Y-43913428D01*
X59612914Y-43742415D01*
X59559408Y-43577742D01*
X59480805Y-43423478D01*
X59446534Y-43376307D01*
X58926370Y-43896471D01*
X58912741Y-43845606D01*
X58860080Y-43754394D01*
X58785606Y-43679920D01*
X58694394Y-43627259D01*
X58643527Y-43613629D01*
X59163691Y-43093464D01*
X59163691Y-43093463D01*
X59116525Y-43059196D01*
X59116523Y-43059195D01*
X58962257Y-42980591D01*
X58797584Y-42927085D01*
X58626571Y-42900000D01*
X58453429Y-42900000D01*
X58282415Y-42927085D01*
X58117740Y-42980592D01*
X57963475Y-43059196D01*
X57916307Y-43093463D01*
X57916307Y-43093464D01*
X58436472Y-43613629D01*
X58385606Y-43627259D01*
X58294394Y-43679920D01*
X58219920Y-43754394D01*
X58167259Y-43845606D01*
X58153629Y-43896472D01*
X57633464Y-43376307D01*
X57633463Y-43376307D01*
X57599196Y-43423475D01*
X57520592Y-43577740D01*
X57467085Y-43742415D01*
X57440000Y-43913428D01*
X57000500Y-43913428D01*
X57000500Y-43901459D01*
X57000500Y-43901456D01*
X56962052Y-43708170D01*
X56962051Y-43708169D01*
X56962051Y-43708165D01*
X56917248Y-43600000D01*
X56886635Y-43526092D01*
X56886628Y-43526079D01*
X56777139Y-43362218D01*
X56777136Y-43362214D01*
X56637785Y-43222863D01*
X56637781Y-43222860D01*
X56473920Y-43113371D01*
X56473910Y-43113366D01*
X56402047Y-43083599D01*
X56347643Y-43039757D01*
X56325579Y-42973463D01*
X56325500Y-42969038D01*
X56325500Y-40726188D01*
X56345185Y-40659149D01*
X56361814Y-40638512D01*
X58041165Y-38959160D01*
X58102486Y-38925677D01*
X58172178Y-38930661D01*
X58176270Y-38932271D01*
X58248165Y-38962051D01*
X58248169Y-38962051D01*
X58248170Y-38962052D01*
X58441456Y-39000500D01*
X58441459Y-39000500D01*
X58638543Y-39000500D01*
X58768582Y-38974632D01*
X58831835Y-38962051D01*
X59013914Y-38886632D01*
X59177782Y-38777139D01*
X59317139Y-38637782D01*
X59426632Y-38473914D01*
X59502051Y-38291835D01*
X59534912Y-38126635D01*
X59540500Y-38098543D01*
X59540500Y-37901456D01*
X59502052Y-37708170D01*
X59502051Y-37708169D01*
X59502051Y-37708165D01*
X59429015Y-37531839D01*
X59426635Y-37526092D01*
X59426628Y-37526079D01*
X59317139Y-37362218D01*
X59317136Y-37362214D01*
X59177785Y-37222863D01*
X59177781Y-37222860D01*
X59013920Y-37113371D01*
X59013907Y-37113364D01*
X58831839Y-37037950D01*
X58831829Y-37037947D01*
X58638543Y-36999500D01*
X58638541Y-36999500D01*
X58441459Y-36999500D01*
X58441457Y-36999500D01*
X58248170Y-37037947D01*
X58248160Y-37037950D01*
X58066092Y-37113364D01*
X58066079Y-37113371D01*
X57902218Y-37222860D01*
X57902214Y-37222863D01*
X57762863Y-37362214D01*
X57762860Y-37362218D01*
X57653371Y-37526079D01*
X57653364Y-37526092D01*
X57577950Y-37708160D01*
X57577947Y-37708170D01*
X57539500Y-37901456D01*
X57539500Y-37901459D01*
X57539500Y-38098541D01*
X57539500Y-38098543D01*
X57539499Y-38098543D01*
X57577947Y-38291828D01*
X57577948Y-38291831D01*
X57577949Y-38291835D01*
X57577951Y-38291839D01*
X57607717Y-38363703D01*
X57615184Y-38433173D01*
X57583909Y-38495651D01*
X57580836Y-38498835D01*
X55739537Y-40340135D01*
X55739533Y-40340141D01*
X55696681Y-40414362D01*
X55696680Y-40414364D01*
X55691077Y-40435278D01*
X55691077Y-40435280D01*
X55674500Y-40497147D01*
X55674500Y-42969038D01*
X55670941Y-42981155D01*
X55672015Y-42993740D01*
X55661284Y-43014046D01*
X55654815Y-43036077D01*
X55644493Y-43045819D01*
X55639370Y-43055514D01*
X55621088Y-43067910D01*
X55611407Y-43077049D01*
X55604873Y-43080733D01*
X55526086Y-43113368D01*
X55412996Y-43188932D01*
X55408907Y-43191238D01*
X55379255Y-43198113D01*
X55350213Y-43207207D01*
X55345551Y-43205928D01*
X55340843Y-43207020D01*
X55312184Y-43196774D01*
X55282833Y-43188722D01*
X55279602Y-43185125D01*
X55275052Y-43183499D01*
X55256484Y-43159388D01*
X55236143Y-43136743D01*
X55234930Y-43131401D01*
X55232421Y-43128142D01*
X55231355Y-43115642D01*
X55224000Y-43083227D01*
X55224000Y-39287688D01*
X55243685Y-39220649D01*
X55260315Y-39200011D01*
X55501165Y-38959160D01*
X55562486Y-38925677D01*
X55632177Y-38930661D01*
X55636270Y-38932271D01*
X55708165Y-38962051D01*
X55708169Y-38962051D01*
X55708170Y-38962052D01*
X55901456Y-39000500D01*
X55901459Y-39000500D01*
X56098543Y-39000500D01*
X56228582Y-38974632D01*
X56291835Y-38962051D01*
X56473914Y-38886632D01*
X56637782Y-38777139D01*
X56777139Y-38637782D01*
X56886632Y-38473914D01*
X56962051Y-38291835D01*
X56994912Y-38126635D01*
X57000500Y-38098543D01*
X57000500Y-37901456D01*
X56962052Y-37708170D01*
X56962051Y-37708169D01*
X56962051Y-37708165D01*
X56932281Y-37636295D01*
X56924813Y-37566828D01*
X56956088Y-37504348D01*
X56959133Y-37501192D01*
X58760465Y-35699862D01*
X58803318Y-35625639D01*
X58825500Y-35542853D01*
X58825500Y-35457147D01*
X58825500Y-32030960D01*
X58845185Y-31963921D01*
X58897989Y-31918166D01*
X58902005Y-31916417D01*
X58973914Y-31886632D01*
X59137782Y-31777139D01*
X59277139Y-31637782D01*
X59386632Y-31473914D01*
X59462051Y-31291835D01*
X59480727Y-31197947D01*
X59500500Y-31098543D01*
X59500500Y-30901456D01*
X59462052Y-30708170D01*
X59462051Y-30708169D01*
X59462051Y-30708165D01*
X59432897Y-30637781D01*
X59386635Y-30526092D01*
X59386628Y-30526079D01*
X59277139Y-30362218D01*
X59277136Y-30362214D01*
X59137785Y-30222863D01*
X59137781Y-30222860D01*
X58973920Y-30113371D01*
X58973907Y-30113364D01*
X58791839Y-30037950D01*
X58791829Y-30037947D01*
X58598543Y-29999500D01*
X58598541Y-29999500D01*
X58401459Y-29999500D01*
X58401457Y-29999500D01*
X58208170Y-30037947D01*
X58208160Y-30037950D01*
X58026092Y-30113364D01*
X58026079Y-30113371D01*
X57862218Y-30222860D01*
X57862214Y-30222863D01*
X57722863Y-30362214D01*
X57722860Y-30362218D01*
X57613371Y-30526079D01*
X57613364Y-30526092D01*
X57537950Y-30708160D01*
X57537947Y-30708170D01*
X57499500Y-30901456D01*
X57499500Y-30901459D01*
X57499500Y-31098541D01*
X57499500Y-31098543D01*
X57499499Y-31098543D01*
X57537947Y-31291829D01*
X57537950Y-31291839D01*
X57613364Y-31473907D01*
X57613371Y-31473920D01*
X57722860Y-31637781D01*
X57722863Y-31637785D01*
X57862217Y-31777139D01*
X58004412Y-31872150D01*
X58026086Y-31886632D01*
X58097953Y-31916399D01*
X58152355Y-31960239D01*
X58174421Y-32026533D01*
X58174500Y-32030960D01*
X58174500Y-35313810D01*
X58154815Y-35380849D01*
X58138181Y-35401491D01*
X56498835Y-37040836D01*
X56437512Y-37074321D01*
X56367820Y-37069337D01*
X56363703Y-37067717D01*
X56334444Y-37055598D01*
X56291835Y-37037949D01*
X56291831Y-37037948D01*
X56291828Y-37037947D01*
X56098543Y-36999500D01*
X56098541Y-36999500D01*
X55901459Y-36999500D01*
X55901457Y-36999500D01*
X55708170Y-37037947D01*
X55708160Y-37037950D01*
X55526092Y-37113364D01*
X55526079Y-37113371D01*
X55362218Y-37222860D01*
X55362214Y-37222863D01*
X55222863Y-37362214D01*
X55222860Y-37362218D01*
X55113371Y-37526079D01*
X55113364Y-37526092D01*
X55037950Y-37708160D01*
X55037947Y-37708170D01*
X54999500Y-37901456D01*
X54999500Y-37901459D01*
X54999500Y-38098541D01*
X54999500Y-38098543D01*
X54999499Y-38098543D01*
X55037947Y-38291828D01*
X55037948Y-38291831D01*
X55037949Y-38291835D01*
X55037951Y-38291839D01*
X55067717Y-38363703D01*
X55075184Y-38433173D01*
X55043909Y-38495651D01*
X55040836Y-38498835D01*
X54638037Y-38901635D01*
X54638035Y-38901638D01*
X54595180Y-38975863D01*
X54580810Y-39029498D01*
X54573000Y-39058645D01*
X53940700Y-39058645D01*
X53940700Y-33570988D01*
X53960385Y-33503949D01*
X53977019Y-33483307D01*
X55423507Y-32036819D01*
X55484830Y-32003334D01*
X55511188Y-32000500D01*
X56604270Y-32000500D01*
X56634699Y-31997646D01*
X56634701Y-31997646D01*
X56698790Y-31975219D01*
X56762882Y-31952793D01*
X56872150Y-31872150D01*
X56952793Y-31762882D01*
X56979665Y-31686086D01*
X56997646Y-31634701D01*
X56997646Y-31634699D01*
X57000500Y-31604269D01*
X57000500Y-30395730D01*
X56997646Y-30365300D01*
X56997646Y-30365298D01*
X56960025Y-30257785D01*
X56952793Y-30237118D01*
X56872150Y-30127850D01*
X56762882Y-30047207D01*
X56762880Y-30047206D01*
X56634700Y-30002353D01*
X56604270Y-29999500D01*
X56604266Y-29999500D01*
X55395734Y-29999500D01*
X55395730Y-29999500D01*
X55365300Y-30002353D01*
X55365298Y-30002353D01*
X55237119Y-30047206D01*
X55237117Y-30047207D01*
X55127850Y-30127850D01*
X55047207Y-30237117D01*
X55047206Y-30237119D01*
X55002353Y-30365298D01*
X55002353Y-30365300D01*
X54999500Y-30395730D01*
X54999500Y-31488811D01*
X54979815Y-31555850D01*
X54963181Y-31576492D01*
X53354737Y-33184935D01*
X53354735Y-33184938D01*
X53311882Y-33259159D01*
X53289700Y-33341947D01*
X53289700Y-50048111D01*
X53270015Y-50115150D01*
X53253381Y-50135792D01*
X51368692Y-52020481D01*
X51347240Y-52032194D01*
X51328168Y-52047483D01*
X51314180Y-52050246D01*
X51307369Y-52053966D01*
X51293948Y-52056123D01*
X51287494Y-52056800D01*
X51169725Y-52056800D01*
X51093956Y-52077102D01*
X51084237Y-52078122D01*
X51059098Y-52073519D01*
X51033544Y-52072911D01*
X51025300Y-52067331D01*
X51015510Y-52065539D01*
X50996850Y-52048076D01*
X50975681Y-52033749D01*
X50971762Y-52024598D01*
X50964495Y-52017797D01*
X50958238Y-51993015D01*
X50948177Y-51969520D01*
X50947400Y-51956493D01*
X50947300Y-51955732D01*
X50947300Y-51955725D01*
X50925225Y-51873340D01*
X50921000Y-51841247D01*
X50921000Y-37124500D01*
X50940685Y-37057461D01*
X50993489Y-37011706D01*
X51045000Y-37000500D01*
X51098543Y-37000500D01*
X51229115Y-36974527D01*
X51291835Y-36962051D01*
X51473914Y-36886632D01*
X51637782Y-36777139D01*
X51777139Y-36637782D01*
X51886632Y-36473914D01*
X51891210Y-36462863D01*
X51962049Y-36291839D01*
X51962051Y-36291835D01*
X52000500Y-36098541D01*
X52000500Y-35901459D01*
X52000500Y-35901456D01*
X51962052Y-35708170D01*
X51962051Y-35708169D01*
X51962051Y-35708165D01*
X51934149Y-35640803D01*
X51886635Y-35526092D01*
X51886628Y-35526079D01*
X51777139Y-35362218D01*
X51777136Y-35362214D01*
X51637785Y-35222863D01*
X51637781Y-35222860D01*
X51473920Y-35113371D01*
X51473910Y-35113366D01*
X51402047Y-35083599D01*
X51347643Y-35039757D01*
X51325579Y-34973463D01*
X51325500Y-34969038D01*
X51325500Y-31030960D01*
X51345185Y-30963921D01*
X51397989Y-30918166D01*
X51402005Y-30916417D01*
X51473914Y-30886632D01*
X51637782Y-30777139D01*
X51777139Y-30637782D01*
X51886632Y-30473914D01*
X51962051Y-30291835D01*
X51997551Y-30113368D01*
X52000500Y-30098543D01*
X52000500Y-29901456D01*
X51962052Y-29708170D01*
X51962051Y-29708169D01*
X51962051Y-29708165D01*
X51962049Y-29708160D01*
X51886635Y-29526092D01*
X51886628Y-29526079D01*
X51776720Y-29361591D01*
X51755842Y-29294914D01*
X51774326Y-29227533D01*
X51826305Y-29180843D01*
X51879822Y-29168700D01*
X63051911Y-29168700D01*
X63118950Y-29188385D01*
G37*
%TD.AperFunction*%
%TA.AperFunction,Conductor*%
G36*
X99442539Y-20520185D02*
G01*
X99488294Y-20572989D01*
X99499500Y-20624500D01*
X99499500Y-85375500D01*
X99479815Y-85442539D01*
X99427011Y-85488294D01*
X99375500Y-85499500D01*
X93588226Y-85499500D01*
X93521187Y-85479815D01*
X93475432Y-85427011D01*
X93465488Y-85357853D01*
X93494513Y-85294297D01*
X93549906Y-85257569D01*
X93568412Y-85251557D01*
X93757816Y-85155051D01*
X93779789Y-85139086D01*
X93929786Y-85030109D01*
X93929788Y-85030106D01*
X93929792Y-85030104D01*
X94080104Y-84879792D01*
X94080106Y-84879788D01*
X94080109Y-84879786D01*
X94205048Y-84707820D01*
X94205047Y-84707820D01*
X94205051Y-84707816D01*
X94301557Y-84518412D01*
X94367246Y-84316243D01*
X94400500Y-84106287D01*
X94400500Y-83893713D01*
X94367246Y-83683757D01*
X94301557Y-83481588D01*
X94205051Y-83292184D01*
X94205049Y-83292181D01*
X94205048Y-83292179D01*
X94080109Y-83120213D01*
X93929786Y-82969890D01*
X93757820Y-82844951D01*
X93568414Y-82748444D01*
X93568413Y-82748443D01*
X93568412Y-82748443D01*
X93366243Y-82682754D01*
X93366241Y-82682753D01*
X93366240Y-82682753D01*
X93156285Y-82649499D01*
X93153582Y-82649287D01*
X93152615Y-82648918D01*
X93151475Y-82648738D01*
X93151512Y-82648498D01*
X93088295Y-82624400D01*
X93046828Y-82568167D01*
X93042345Y-82498441D01*
X93075635Y-82437991D01*
X95665165Y-79848462D01*
X95708018Y-79774239D01*
X95730200Y-79691453D01*
X95730200Y-79605747D01*
X95730200Y-79449500D01*
X95732750Y-79440814D01*
X95731462Y-79431853D01*
X95742440Y-79407812D01*
X95749885Y-79382461D01*
X95756725Y-79376533D01*
X95760487Y-79368297D01*
X95782721Y-79354007D01*
X95802689Y-79336706D01*
X95813203Y-79334418D01*
X95819265Y-79330523D01*
X95854200Y-79325500D01*
X96010447Y-79325500D01*
X96025500Y-79325500D01*
X96092539Y-79345185D01*
X96138294Y-79397989D01*
X96149500Y-79449500D01*
X96149500Y-79656287D01*
X96155070Y-79691452D01*
X96179937Y-79848462D01*
X96182754Y-79866243D01*
X96226214Y-80000000D01*
X96248444Y-80068414D01*
X96344951Y-80257820D01*
X96469890Y-80429786D01*
X96620213Y-80580109D01*
X96792179Y-80705048D01*
X96792181Y-80705049D01*
X96792184Y-80705051D01*
X96981588Y-80801557D01*
X97183757Y-80867246D01*
X97393713Y-80900500D01*
X97393714Y-80900500D01*
X97606286Y-80900500D01*
X97606287Y-80900500D01*
X97816243Y-80867246D01*
X98018412Y-80801557D01*
X98207816Y-80705051D01*
X98270530Y-80659487D01*
X98379786Y-80580109D01*
X98379788Y-80580106D01*
X98379792Y-80580104D01*
X98530104Y-80429792D01*
X98530106Y-80429788D01*
X98530109Y-80429786D01*
X98639086Y-80279789D01*
X98655051Y-80257816D01*
X98751557Y-80068412D01*
X98817246Y-79866243D01*
X98850500Y-79656287D01*
X98850500Y-78343713D01*
X98817246Y-78133757D01*
X98751557Y-77931588D01*
X98655051Y-77742184D01*
X98655049Y-77742181D01*
X98655048Y-77742179D01*
X98530109Y-77570213D01*
X98379786Y-77419890D01*
X98207820Y-77294951D01*
X98018414Y-77198444D01*
X98018413Y-77198443D01*
X98018412Y-77198443D01*
X97816243Y-77132754D01*
X97816241Y-77132753D01*
X97816240Y-77132753D01*
X97654957Y-77107208D01*
X97606287Y-77099500D01*
X97393713Y-77099500D01*
X97345042Y-77107208D01*
X97183760Y-77132753D01*
X96981585Y-77198444D01*
X96792179Y-77294951D01*
X96620213Y-77419890D01*
X96469890Y-77570213D01*
X96344951Y-77742179D01*
X96248444Y-77931585D01*
X96182753Y-78133760D01*
X96149500Y-78343713D01*
X96149500Y-78550500D01*
X96146949Y-78559185D01*
X96148238Y-78568147D01*
X96137259Y-78592187D01*
X96129815Y-78617539D01*
X96122974Y-78623466D01*
X96119213Y-78631703D01*
X96096978Y-78645992D01*
X96077011Y-78663294D01*
X96066496Y-78665581D01*
X96060435Y-78669477D01*
X96025500Y-78674500D01*
X95854200Y-78674500D01*
X95787161Y-78654815D01*
X95741406Y-78602011D01*
X95730200Y-78550500D01*
X95730200Y-78308549D01*
X95730200Y-78308547D01*
X95708018Y-78225762D01*
X95708018Y-78225761D01*
X95665165Y-78151538D01*
X93075637Y-75562010D01*
X93042152Y-75500687D01*
X93047136Y-75430995D01*
X93089008Y-75375062D01*
X93151512Y-75351496D01*
X93151475Y-75351262D01*
X93152612Y-75351081D01*
X93153599Y-75350710D01*
X93156263Y-75350500D01*
X93156287Y-75350500D01*
X93366243Y-75317246D01*
X93568412Y-75251557D01*
X93757816Y-75155051D01*
X93856838Y-75083108D01*
X93929786Y-75030109D01*
X93929788Y-75030106D01*
X93929792Y-75030104D01*
X94080104Y-74879792D01*
X94080106Y-74879788D01*
X94080109Y-74879786D01*
X94205048Y-74707820D01*
X94205047Y-74707820D01*
X94205051Y-74707816D01*
X94301557Y-74518412D01*
X94367246Y-74316243D01*
X94400500Y-74106287D01*
X94400500Y-73893713D01*
X94367246Y-73683757D01*
X94301557Y-73481588D01*
X94205051Y-73292184D01*
X94205049Y-73292181D01*
X94205048Y-73292179D01*
X94080109Y-73120213D01*
X93929786Y-72969890D01*
X93757820Y-72844951D01*
X93568414Y-72748444D01*
X93568413Y-72748443D01*
X93568412Y-72748443D01*
X93366243Y-72682754D01*
X93366241Y-72682753D01*
X93366240Y-72682753D01*
X93204957Y-72657208D01*
X93156287Y-72649500D01*
X93156286Y-72649500D01*
X92949500Y-72649500D01*
X92940814Y-72646949D01*
X92931853Y-72648238D01*
X92907812Y-72637259D01*
X92882461Y-72629815D01*
X92876533Y-72622974D01*
X92868297Y-72619213D01*
X92854007Y-72596978D01*
X92836706Y-72577011D01*
X92834418Y-72566496D01*
X92830523Y-72560435D01*
X92825500Y-72525500D01*
X92825500Y-72474500D01*
X92845185Y-72407461D01*
X92897989Y-72361706D01*
X92949500Y-72350500D01*
X93156286Y-72350500D01*
X93156287Y-72350500D01*
X93366243Y-72317246D01*
X93568412Y-72251557D01*
X93757816Y-72155051D01*
X93792296Y-72130000D01*
X93929786Y-72030109D01*
X93929788Y-72030106D01*
X93929792Y-72030104D01*
X94080104Y-71879792D01*
X94080106Y-71879788D01*
X94080109Y-71879786D01*
X94205048Y-71707820D01*
X94205047Y-71707820D01*
X94205051Y-71707816D01*
X94301557Y-71518412D01*
X94367246Y-71316243D01*
X94400500Y-71106287D01*
X94400500Y-70893713D01*
X94367246Y-70683757D01*
X94301557Y-70481588D01*
X94205051Y-70292184D01*
X94205049Y-70292181D01*
X94205048Y-70292179D01*
X94080109Y-70120213D01*
X93929786Y-69969890D01*
X93757820Y-69844951D01*
X93568414Y-69748444D01*
X93568413Y-69748443D01*
X93568412Y-69748443D01*
X93366243Y-69682754D01*
X93366241Y-69682753D01*
X93366240Y-69682753D01*
X93156285Y-69649499D01*
X93153582Y-69649287D01*
X93152615Y-69648918D01*
X93151475Y-69648738D01*
X93151512Y-69648498D01*
X93088295Y-69624400D01*
X93046828Y-69568167D01*
X93042345Y-69498441D01*
X93075635Y-69437991D01*
X95665165Y-66848462D01*
X95708018Y-66774239D01*
X95730200Y-66691453D01*
X95730200Y-66605747D01*
X95730200Y-66449500D01*
X95732750Y-66440814D01*
X95731462Y-66431853D01*
X95742440Y-66407812D01*
X95749885Y-66382461D01*
X95756725Y-66376533D01*
X95760487Y-66368297D01*
X95782721Y-66354007D01*
X95802689Y-66336706D01*
X95813203Y-66334418D01*
X95819265Y-66330523D01*
X95854200Y-66325500D01*
X96010447Y-66325500D01*
X96025500Y-66325500D01*
X96092539Y-66345185D01*
X96138294Y-66397989D01*
X96149500Y-66449500D01*
X96149500Y-66656287D01*
X96155070Y-66691452D01*
X96182367Y-66863805D01*
X96182754Y-66866243D01*
X96218907Y-66977511D01*
X96248444Y-67068414D01*
X96344951Y-67257820D01*
X96469890Y-67429786D01*
X96620213Y-67580109D01*
X96792179Y-67705048D01*
X96792181Y-67705049D01*
X96792184Y-67705051D01*
X96981588Y-67801557D01*
X97183757Y-67867246D01*
X97393713Y-67900500D01*
X97393714Y-67900500D01*
X97606286Y-67900500D01*
X97606287Y-67900500D01*
X97816243Y-67867246D01*
X98018412Y-67801557D01*
X98207816Y-67705051D01*
X98229789Y-67689086D01*
X98379786Y-67580109D01*
X98379788Y-67580106D01*
X98379792Y-67580104D01*
X98530104Y-67429792D01*
X98530106Y-67429788D01*
X98530109Y-67429786D01*
X98655048Y-67257820D01*
X98655047Y-67257820D01*
X98655051Y-67257816D01*
X98751557Y-67068412D01*
X98817246Y-66866243D01*
X98850500Y-66656287D01*
X98850500Y-65343713D01*
X98817246Y-65133757D01*
X98751557Y-64931588D01*
X98655051Y-64742184D01*
X98655049Y-64742181D01*
X98655048Y-64742179D01*
X98530109Y-64570213D01*
X98379786Y-64419890D01*
X98207820Y-64294951D01*
X98018414Y-64198444D01*
X98018413Y-64198443D01*
X98018412Y-64198443D01*
X97816243Y-64132754D01*
X97816241Y-64132753D01*
X97816240Y-64132753D01*
X97654957Y-64107208D01*
X97606287Y-64099500D01*
X97393713Y-64099500D01*
X97345042Y-64107208D01*
X97183760Y-64132753D01*
X97183757Y-64132754D01*
X97007127Y-64190145D01*
X96981585Y-64198444D01*
X96792179Y-64294951D01*
X96620213Y-64419890D01*
X96469890Y-64570213D01*
X96344951Y-64742179D01*
X96248444Y-64931585D01*
X96182753Y-65133760D01*
X96149500Y-65343713D01*
X96149500Y-65550500D01*
X96146949Y-65559185D01*
X96148238Y-65568147D01*
X96137259Y-65592187D01*
X96129815Y-65617539D01*
X96122974Y-65623466D01*
X96119213Y-65631703D01*
X96096978Y-65645992D01*
X96077011Y-65663294D01*
X96066496Y-65665581D01*
X96060435Y-65669477D01*
X96025500Y-65674500D01*
X95854200Y-65674500D01*
X95787161Y-65654815D01*
X95741406Y-65602011D01*
X95730200Y-65550500D01*
X95730200Y-65308549D01*
X95730200Y-65308547D01*
X95708018Y-65225762D01*
X95708018Y-65225761D01*
X95665165Y-65151538D01*
X93075637Y-62562010D01*
X93042152Y-62500687D01*
X93047136Y-62430995D01*
X93089008Y-62375062D01*
X93151512Y-62351496D01*
X93151475Y-62351262D01*
X93152612Y-62351081D01*
X93153599Y-62350710D01*
X93156263Y-62350500D01*
X93156287Y-62350500D01*
X93366243Y-62317246D01*
X93568412Y-62251557D01*
X93757816Y-62155051D01*
X93779789Y-62139086D01*
X93929786Y-62030109D01*
X93929788Y-62030106D01*
X93929792Y-62030104D01*
X94080104Y-61879792D01*
X94080106Y-61879788D01*
X94080109Y-61879786D01*
X94205048Y-61707820D01*
X94205047Y-61707820D01*
X94205051Y-61707816D01*
X94301557Y-61518412D01*
X94367246Y-61316243D01*
X94400500Y-61106287D01*
X94400500Y-60893713D01*
X94367246Y-60683757D01*
X94301557Y-60481588D01*
X94205051Y-60292184D01*
X94205049Y-60292181D01*
X94205048Y-60292179D01*
X94080109Y-60120213D01*
X93929786Y-59969890D01*
X93757820Y-59844951D01*
X93568414Y-59748444D01*
X93568413Y-59748443D01*
X93568412Y-59748443D01*
X93366243Y-59682754D01*
X93366241Y-59682753D01*
X93366239Y-59682753D01*
X93303669Y-59672843D01*
X93240534Y-59642914D01*
X93203603Y-59583602D01*
X93204601Y-59513740D01*
X93243211Y-59455507D01*
X93303669Y-59427897D01*
X93389544Y-59414295D01*
X93606604Y-59343769D01*
X93809966Y-59240150D01*
X93994614Y-59105995D01*
X94155995Y-58944614D01*
X94290150Y-58759966D01*
X94393769Y-58556604D01*
X94464295Y-58339544D01*
X94486397Y-58200000D01*
X93670712Y-58200000D01*
X93675021Y-58189598D01*
X93700000Y-58064019D01*
X93700000Y-57935981D01*
X93675021Y-57810402D01*
X93670712Y-57800000D01*
X94486397Y-57800000D01*
X94464295Y-57660455D01*
X94393769Y-57443395D01*
X94290150Y-57240033D01*
X94155995Y-57055385D01*
X93994614Y-56894004D01*
X93809966Y-56759849D01*
X93606604Y-56656230D01*
X93389544Y-56585704D01*
X93164116Y-56550000D01*
X92700000Y-56550000D01*
X92700000Y-57350000D01*
X92300000Y-57350000D01*
X92300000Y-56550000D01*
X91835884Y-56550000D01*
X91610455Y-56585704D01*
X91393395Y-56656230D01*
X91190033Y-56759849D01*
X91005385Y-56894004D01*
X90844004Y-57055385D01*
X90709849Y-57240033D01*
X90606230Y-57443395D01*
X90535704Y-57660455D01*
X90513603Y-57800000D01*
X91329288Y-57800000D01*
X91324979Y-57810402D01*
X91300000Y-57935981D01*
X91300000Y-58064019D01*
X91324979Y-58189598D01*
X91329288Y-58200000D01*
X90513603Y-58200000D01*
X90535704Y-58339544D01*
X90606230Y-58556604D01*
X90709849Y-58759966D01*
X90844004Y-58944614D01*
X91005385Y-59105995D01*
X91190033Y-59240150D01*
X91393395Y-59343769D01*
X91610455Y-59414295D01*
X91696330Y-59427897D01*
X91759465Y-59457826D01*
X91796396Y-59517138D01*
X91795398Y-59587000D01*
X91756788Y-59645233D01*
X91696330Y-59672843D01*
X91633760Y-59682753D01*
X91431585Y-59748444D01*
X91242179Y-59844951D01*
X91070213Y-59969890D01*
X90919890Y-60120213D01*
X90794951Y-60292179D01*
X90698444Y-60481585D01*
X90632753Y-60683760D01*
X90599500Y-60893713D01*
X90599500Y-61106286D01*
X90632753Y-61316239D01*
X90698444Y-61518414D01*
X90794951Y-61707820D01*
X90919890Y-61879786D01*
X91070213Y-62030109D01*
X91242179Y-62155048D01*
X91242181Y-62155049D01*
X91242184Y-62155051D01*
X91431588Y-62251557D01*
X91633757Y-62317246D01*
X91843713Y-62350500D01*
X92050500Y-62350500D01*
X92117539Y-62370185D01*
X92163294Y-62422989D01*
X92174500Y-62474500D01*
X92174500Y-62489552D01*
X92196682Y-62572340D01*
X92218108Y-62609450D01*
X92239535Y-62646562D01*
X92239537Y-62646564D01*
X95042881Y-65449908D01*
X95076366Y-65511231D01*
X95079200Y-65537589D01*
X95079200Y-66462411D01*
X95059515Y-66529450D01*
X95042881Y-66550092D01*
X92239537Y-69353435D01*
X92239535Y-69353438D01*
X92196680Y-69427663D01*
X92177476Y-69499336D01*
X92177475Y-69499343D01*
X92174754Y-69509500D01*
X92174500Y-69510447D01*
X92174500Y-69531261D01*
X92173964Y-69537012D01*
X92163098Y-69564329D01*
X92154815Y-69592539D01*
X92150333Y-69596422D01*
X92148141Y-69601934D01*
X92124229Y-69619041D01*
X92102011Y-69638294D01*
X92095270Y-69639760D01*
X92091317Y-69642589D01*
X92079576Y-69643174D01*
X92050500Y-69649500D01*
X91843713Y-69649500D01*
X91795042Y-69657208D01*
X91633760Y-69682753D01*
X91431585Y-69748444D01*
X91242179Y-69844951D01*
X91070213Y-69969890D01*
X91070209Y-69969894D01*
X90987681Y-70052423D01*
X90926358Y-70085908D01*
X90856666Y-70080924D01*
X90800733Y-70039052D01*
X90776316Y-69973588D01*
X90776000Y-69964742D01*
X90776000Y-68235688D01*
X90795685Y-68168649D01*
X90812319Y-68148007D01*
X91158771Y-67801555D01*
X91625629Y-67334696D01*
X91686950Y-67301213D01*
X91756641Y-67306197D01*
X91769592Y-67311889D01*
X91859146Y-67357519D01*
X91924003Y-67390566D01*
X91924005Y-67390566D01*
X91924008Y-67390568D01*
X92039704Y-67428160D01*
X92148631Y-67463553D01*
X92381903Y-67500500D01*
X92381908Y-67500500D01*
X92618097Y-67500500D01*
X92851368Y-67463553D01*
X93075992Y-67390568D01*
X93286433Y-67283343D01*
X93477510Y-67144517D01*
X93644517Y-66977510D01*
X93783343Y-66786433D01*
X93890568Y-66575992D01*
X93963553Y-66351368D01*
X93966238Y-66334418D01*
X94000500Y-66118097D01*
X94000500Y-65881902D01*
X93963553Y-65648631D01*
X93927473Y-65537589D01*
X93890568Y-65424008D01*
X93890566Y-65424005D01*
X93890566Y-65424003D01*
X93806384Y-65258788D01*
X93783343Y-65213567D01*
X93644517Y-65022490D01*
X93477510Y-64855483D01*
X93286433Y-64716657D01*
X93228016Y-64686892D01*
X93075996Y-64609433D01*
X92851368Y-64536446D01*
X92618097Y-64499500D01*
X92618092Y-64499500D01*
X92381908Y-64499500D01*
X92381903Y-64499500D01*
X92148631Y-64536446D01*
X91924003Y-64609433D01*
X91713566Y-64716657D01*
X91678432Y-64742184D01*
X91522490Y-64855483D01*
X91522488Y-64855485D01*
X91522487Y-64855485D01*
X91355485Y-65022487D01*
X91355485Y-65022488D01*
X91355483Y-65022490D01*
X91327420Y-65061115D01*
X91216657Y-65213566D01*
X91109433Y-65424003D01*
X91036446Y-65648631D01*
X90999500Y-65881902D01*
X90999500Y-66118097D01*
X91036446Y-66351368D01*
X91109433Y-66575996D01*
X91188104Y-66730395D01*
X91201000Y-66799064D01*
X91174724Y-66863805D01*
X91165300Y-66874371D01*
X90190037Y-67849635D01*
X90190033Y-67849641D01*
X90147181Y-67923861D01*
X90147182Y-67923862D01*
X90125000Y-68006647D01*
X90125000Y-76993352D01*
X90147182Y-77076140D01*
X90168608Y-77113250D01*
X90190035Y-77150362D01*
X90190037Y-77150364D01*
X91165301Y-78125628D01*
X91198786Y-78186951D01*
X91193802Y-78256643D01*
X91188105Y-78269604D01*
X91109433Y-78424003D01*
X91036446Y-78648631D01*
X90999500Y-78881902D01*
X90999500Y-79118097D01*
X91036446Y-79351368D01*
X91109433Y-79575996D01*
X91210444Y-79774239D01*
X91216657Y-79786433D01*
X91355483Y-79977510D01*
X91522490Y-80144517D01*
X91713567Y-80283343D01*
X91812991Y-80334002D01*
X91924003Y-80390566D01*
X91924005Y-80390566D01*
X91924008Y-80390568D01*
X92044412Y-80429689D01*
X92148631Y-80463553D01*
X92381903Y-80500500D01*
X92381908Y-80500500D01*
X92618097Y-80500500D01*
X92851368Y-80463553D01*
X92868261Y-80458064D01*
X93075992Y-80390568D01*
X93286433Y-80283343D01*
X93477510Y-80144517D01*
X93644517Y-79977510D01*
X93783343Y-79786433D01*
X93890568Y-79575992D01*
X93963553Y-79351368D01*
X93966238Y-79334418D01*
X94000500Y-79118097D01*
X94000500Y-78881902D01*
X93963553Y-78648631D01*
X93927473Y-78537589D01*
X93890568Y-78424008D01*
X93890566Y-78424005D01*
X93890566Y-78424003D01*
X93805291Y-78256643D01*
X93783343Y-78213567D01*
X93644517Y-78022490D01*
X93477510Y-77855483D01*
X93286433Y-77716657D01*
X93075996Y-77609433D01*
X92851368Y-77536446D01*
X92618097Y-77499500D01*
X92618092Y-77499500D01*
X92381908Y-77499500D01*
X92381903Y-77499500D01*
X92148631Y-77536446D01*
X91924003Y-77609433D01*
X91795863Y-77674725D01*
X91769603Y-77688105D01*
X91700935Y-77701001D01*
X91636194Y-77674725D01*
X91625628Y-77665301D01*
X90812319Y-76851992D01*
X90778834Y-76790669D01*
X90776000Y-76764311D01*
X90776000Y-75035258D01*
X90795685Y-74968219D01*
X90848489Y-74922464D01*
X90917647Y-74912520D01*
X90981203Y-74941545D01*
X90987681Y-74947577D01*
X91070213Y-75030109D01*
X91242179Y-75155048D01*
X91242181Y-75155049D01*
X91242184Y-75155051D01*
X91431588Y-75251557D01*
X91633757Y-75317246D01*
X91843713Y-75350500D01*
X92050500Y-75350500D01*
X92117539Y-75370185D01*
X92163294Y-75422989D01*
X92174500Y-75474500D01*
X92174500Y-75489552D01*
X92196682Y-75572340D01*
X92218108Y-75609450D01*
X92239535Y-75646562D01*
X92239537Y-75646564D01*
X95042881Y-78449908D01*
X95076366Y-78511231D01*
X95079200Y-78537589D01*
X95079200Y-79462411D01*
X95059515Y-79529450D01*
X95042881Y-79550092D01*
X92239537Y-82353435D01*
X92239533Y-82353441D01*
X92196681Y-82427661D01*
X92196682Y-82427662D01*
X92174500Y-82510447D01*
X92174500Y-82525500D01*
X92154815Y-82592539D01*
X92102011Y-82638294D01*
X92050500Y-82649500D01*
X91843713Y-82649500D01*
X91795042Y-82657208D01*
X91633760Y-82682753D01*
X91431585Y-82748444D01*
X91242179Y-82844951D01*
X91070213Y-82969890D01*
X90919890Y-83120213D01*
X90794951Y-83292179D01*
X90698444Y-83481585D01*
X90632753Y-83683760D01*
X90599500Y-83893713D01*
X90599500Y-84106286D01*
X90632753Y-84316239D01*
X90698444Y-84518414D01*
X90794951Y-84707820D01*
X90919890Y-84879786D01*
X91070213Y-85030109D01*
X91242179Y-85155048D01*
X91242181Y-85155049D01*
X91242184Y-85155051D01*
X91431588Y-85251557D01*
X91450092Y-85257569D01*
X91507768Y-85297006D01*
X91534966Y-85361365D01*
X91523051Y-85430211D01*
X91475807Y-85481687D01*
X91411774Y-85499500D01*
X20624500Y-85499500D01*
X20557461Y-85479815D01*
X20511706Y-85427011D01*
X20500500Y-85375500D01*
X20500500Y-81878711D01*
X58149500Y-81878711D01*
X58149500Y-82121288D01*
X58181161Y-82361785D01*
X58243947Y-82596104D01*
X58279839Y-82682754D01*
X58336776Y-82820212D01*
X58458064Y-83030289D01*
X58458066Y-83030292D01*
X58458067Y-83030293D01*
X58605733Y-83222736D01*
X58605739Y-83222743D01*
X58777256Y-83394260D01*
X58777262Y-83394265D01*
X58969711Y-83541936D01*
X59179788Y-83663224D01*
X59403900Y-83756054D01*
X59638211Y-83818838D01*
X59818586Y-83842584D01*
X59878711Y-83850500D01*
X59878712Y-83850500D01*
X60121289Y-83850500D01*
X60169388Y-83844167D01*
X60361789Y-83818838D01*
X60596100Y-83756054D01*
X60820212Y-83663224D01*
X61030289Y-83541936D01*
X61222738Y-83394265D01*
X61394265Y-83222738D01*
X61541936Y-83030289D01*
X61663224Y-82820212D01*
X61756054Y-82596100D01*
X61818838Y-82361789D01*
X61850500Y-82121288D01*
X61850500Y-81878712D01*
X61818838Y-81638211D01*
X61756054Y-81403900D01*
X61663224Y-81179788D01*
X61541936Y-80969711D01*
X61423972Y-80815977D01*
X61394266Y-80777263D01*
X61394260Y-80777256D01*
X61222743Y-80605739D01*
X61222736Y-80605733D01*
X61030293Y-80458067D01*
X61030292Y-80458066D01*
X61030289Y-80458064D01*
X60820212Y-80336776D01*
X60820205Y-80336773D01*
X60596104Y-80243947D01*
X60478944Y-80212554D01*
X60361789Y-80181162D01*
X60361788Y-80181161D01*
X60361785Y-80181161D01*
X60121289Y-80149500D01*
X60121288Y-80149500D01*
X59878712Y-80149500D01*
X59878711Y-80149500D01*
X59638214Y-80181161D01*
X59403895Y-80243947D01*
X59179794Y-80336773D01*
X59179785Y-80336777D01*
X58969706Y-80458067D01*
X58777263Y-80605733D01*
X58777256Y-80605739D01*
X58605739Y-80777256D01*
X58605733Y-80777263D01*
X58458067Y-80969706D01*
X58336777Y-81179785D01*
X58336773Y-81179794D01*
X58243947Y-81403895D01*
X58181161Y-81638214D01*
X58149500Y-81878711D01*
X20500500Y-81878711D01*
X20500500Y-79130247D01*
X20949500Y-79130247D01*
X20949500Y-80869752D01*
X20961131Y-80928229D01*
X20961132Y-80928230D01*
X21005447Y-80994552D01*
X21071769Y-81038867D01*
X21071770Y-81038868D01*
X21130247Y-81050499D01*
X21130250Y-81050500D01*
X21130252Y-81050500D01*
X22869750Y-81050500D01*
X22869751Y-81050499D01*
X22884568Y-81047552D01*
X22928229Y-81038868D01*
X22928229Y-81038867D01*
X22928231Y-81038867D01*
X22994552Y-80994552D01*
X23038867Y-80928231D01*
X23038867Y-80928229D01*
X23038868Y-80928229D01*
X23050499Y-80869752D01*
X23050500Y-80869750D01*
X23050500Y-79896530D01*
X23489500Y-79896530D01*
X23489500Y-80103469D01*
X23529868Y-80306412D01*
X23529870Y-80306420D01*
X23609058Y-80497596D01*
X23724024Y-80669657D01*
X23870342Y-80815975D01*
X23870345Y-80815977D01*
X24042402Y-80930941D01*
X24233580Y-81010130D01*
X24378052Y-81038867D01*
X24436530Y-81050499D01*
X24436534Y-81050500D01*
X24436535Y-81050500D01*
X24643466Y-81050500D01*
X24643467Y-81050499D01*
X24846420Y-81010130D01*
X25037598Y-80930941D01*
X25209655Y-80815977D01*
X25355977Y-80669655D01*
X25470941Y-80497598D01*
X25550130Y-80306420D01*
X25590500Y-80103465D01*
X25590500Y-79896535D01*
X25590499Y-79896530D01*
X26029500Y-79896530D01*
X26029500Y-80103469D01*
X26069868Y-80306412D01*
X26069870Y-80306420D01*
X26149058Y-80497596D01*
X26264024Y-80669657D01*
X26410342Y-80815975D01*
X26410345Y-80815977D01*
X26582402Y-80930941D01*
X26773580Y-81010130D01*
X26918052Y-81038867D01*
X26976530Y-81050499D01*
X26976534Y-81050500D01*
X26976535Y-81050500D01*
X27183466Y-81050500D01*
X27183467Y-81050499D01*
X27386420Y-81010130D01*
X27577598Y-80930941D01*
X27749655Y-80815977D01*
X27749658Y-80815974D01*
X27758243Y-80807390D01*
X27895974Y-80669658D01*
X27895975Y-80669657D01*
X27895977Y-80669655D01*
X28010941Y-80497598D01*
X28090130Y-80306420D01*
X28130500Y-80103465D01*
X28130500Y-79909493D01*
X28470000Y-79909493D01*
X28470000Y-80090506D01*
X28498317Y-80269293D01*
X28554251Y-80441444D01*
X28554252Y-80441447D01*
X28636434Y-80602734D01*
X28677667Y-80659487D01*
X28677668Y-80659487D01*
X29151980Y-80185176D01*
X29154075Y-80192993D01*
X29219901Y-80307007D01*
X29312993Y-80400099D01*
X29427007Y-80465925D01*
X29434822Y-80468019D01*
X28960510Y-80942330D01*
X28960511Y-80942331D01*
X29017265Y-80983565D01*
X29178552Y-81065747D01*
X29178555Y-81065748D01*
X29350706Y-81121682D01*
X29529494Y-81150000D01*
X29710506Y-81150000D01*
X29889293Y-81121682D01*
X30061444Y-81065748D01*
X30061447Y-81065747D01*
X30222730Y-80983568D01*
X30279487Y-80942330D01*
X30279488Y-80942329D01*
X29805178Y-80468019D01*
X29812993Y-80465925D01*
X29927007Y-80400099D01*
X30020099Y-80307007D01*
X30085925Y-80192993D01*
X30088019Y-80185177D01*
X30562329Y-80659488D01*
X30562330Y-80659487D01*
X30603568Y-80602730D01*
X30685747Y-80441447D01*
X30685748Y-80441444D01*
X30741682Y-80269293D01*
X30770000Y-80090506D01*
X30770000Y-79909493D01*
X30767947Y-79896530D01*
X31109500Y-79896530D01*
X31109500Y-80103469D01*
X31149868Y-80306412D01*
X31149870Y-80306420D01*
X31229058Y-80497596D01*
X31344024Y-80669657D01*
X31490342Y-80815975D01*
X31490345Y-80815977D01*
X31662402Y-80930941D01*
X31853580Y-81010130D01*
X31998052Y-81038867D01*
X32056530Y-81050499D01*
X32056534Y-81050500D01*
X32056535Y-81050500D01*
X32263466Y-81050500D01*
X32263467Y-81050499D01*
X32466420Y-81010130D01*
X32657598Y-80930941D01*
X32829655Y-80815977D01*
X32975977Y-80669655D01*
X33090941Y-80497598D01*
X33170130Y-80306420D01*
X33210500Y-80103465D01*
X33210500Y-79896535D01*
X33210499Y-79896530D01*
X33649500Y-79896530D01*
X33649500Y-80103469D01*
X33689868Y-80306412D01*
X33689870Y-80306420D01*
X33769058Y-80497596D01*
X33884024Y-80669657D01*
X34030342Y-80815975D01*
X34030345Y-80815977D01*
X34202402Y-80930941D01*
X34393580Y-81010130D01*
X34538052Y-81038867D01*
X34596530Y-81050499D01*
X34596534Y-81050500D01*
X34596535Y-81050500D01*
X34803466Y-81050500D01*
X34803467Y-81050499D01*
X35006420Y-81010130D01*
X35197598Y-80930941D01*
X35369655Y-80815977D01*
X35515977Y-80669655D01*
X35630941Y-80497598D01*
X35710130Y-80306420D01*
X35750500Y-80103465D01*
X35750500Y-79896535D01*
X35710130Y-79693580D01*
X35630941Y-79502402D01*
X35515977Y-79330345D01*
X35515975Y-79330342D01*
X35369657Y-79184024D01*
X35201655Y-79071770D01*
X35197598Y-79069059D01*
X35197593Y-79069057D01*
X35006420Y-78989870D01*
X35006412Y-78989868D01*
X34803469Y-78949500D01*
X34803465Y-78949500D01*
X34596535Y-78949500D01*
X34596530Y-78949500D01*
X34393587Y-78989868D01*
X34393579Y-78989870D01*
X34202403Y-79069058D01*
X34030342Y-79184024D01*
X33884024Y-79330342D01*
X33769058Y-79502403D01*
X33689870Y-79693579D01*
X33689868Y-79693587D01*
X33649500Y-79896530D01*
X33210499Y-79896530D01*
X33170130Y-79693580D01*
X33090941Y-79502402D01*
X32975977Y-79330345D01*
X32975975Y-79330342D01*
X32829657Y-79184024D01*
X32661655Y-79071770D01*
X32657598Y-79069059D01*
X32657593Y-79069057D01*
X32466420Y-78989870D01*
X32466412Y-78989868D01*
X32263469Y-78949500D01*
X32263465Y-78949500D01*
X32056535Y-78949500D01*
X32056530Y-78949500D01*
X31853587Y-78989868D01*
X31853579Y-78989870D01*
X31662403Y-79069058D01*
X31490342Y-79184024D01*
X31344024Y-79330342D01*
X31229058Y-79502403D01*
X31149870Y-79693579D01*
X31149868Y-79693587D01*
X31109500Y-79896530D01*
X30767947Y-79896530D01*
X30741682Y-79730706D01*
X30685748Y-79558555D01*
X30685747Y-79558552D01*
X30603565Y-79397265D01*
X30562331Y-79340511D01*
X30562330Y-79340510D01*
X30088018Y-79814821D01*
X30085925Y-79807007D01*
X30020099Y-79692993D01*
X29927007Y-79599901D01*
X29812993Y-79534075D01*
X29805176Y-79531980D01*
X30279487Y-79057668D01*
X30279487Y-79057667D01*
X30222734Y-79016434D01*
X30061447Y-78934252D01*
X30061444Y-78934251D01*
X29889293Y-78878317D01*
X29710506Y-78850000D01*
X29529494Y-78850000D01*
X29350706Y-78878317D01*
X29178555Y-78934251D01*
X29178552Y-78934252D01*
X29017270Y-79016431D01*
X29017268Y-79016432D01*
X28960511Y-79057667D01*
X28960511Y-79057668D01*
X29434823Y-79531980D01*
X29427007Y-79534075D01*
X29312993Y-79599901D01*
X29219901Y-79692993D01*
X29154075Y-79807007D01*
X29151980Y-79814823D01*
X28677668Y-79340511D01*
X28677667Y-79340511D01*
X28636432Y-79397268D01*
X28636431Y-79397270D01*
X28554252Y-79558552D01*
X28554251Y-79558555D01*
X28498317Y-79730706D01*
X28470000Y-79909493D01*
X28130500Y-79909493D01*
X28130500Y-79896535D01*
X28090130Y-79693580D01*
X28010941Y-79502402D01*
X27895977Y-79330345D01*
X27895975Y-79330342D01*
X27749657Y-79184024D01*
X27581655Y-79071770D01*
X27577598Y-79069059D01*
X27577593Y-79069057D01*
X27386420Y-78989870D01*
X27386412Y-78989868D01*
X27183469Y-78949500D01*
X27183465Y-78949500D01*
X26976535Y-78949500D01*
X26976530Y-78949500D01*
X26773587Y-78989868D01*
X26773579Y-78989870D01*
X26582403Y-79069058D01*
X26410342Y-79184024D01*
X26264024Y-79330342D01*
X26149058Y-79502403D01*
X26069870Y-79693579D01*
X26069868Y-79693587D01*
X26029500Y-79896530D01*
X25590499Y-79896530D01*
X25550130Y-79693580D01*
X25470941Y-79502402D01*
X25355977Y-79330345D01*
X25355975Y-79330342D01*
X25209657Y-79184024D01*
X25041655Y-79071770D01*
X25037598Y-79069059D01*
X25037593Y-79069057D01*
X24846420Y-78989870D01*
X24846412Y-78989868D01*
X24643469Y-78949500D01*
X24643465Y-78949500D01*
X24436535Y-78949500D01*
X24436530Y-78949500D01*
X24233587Y-78989868D01*
X24233579Y-78989870D01*
X24042403Y-79069058D01*
X23870342Y-79184024D01*
X23724024Y-79330342D01*
X23609058Y-79502403D01*
X23529870Y-79693579D01*
X23529868Y-79693587D01*
X23489500Y-79896530D01*
X23050500Y-79896530D01*
X23050500Y-79130249D01*
X23050499Y-79130247D01*
X23038868Y-79071770D01*
X23038867Y-79071769D01*
X22994552Y-79005447D01*
X22928230Y-78961132D01*
X22928229Y-78961131D01*
X22869752Y-78949500D01*
X22869748Y-78949500D01*
X21130252Y-78949500D01*
X21130247Y-78949500D01*
X21071770Y-78961131D01*
X21071769Y-78961132D01*
X21005447Y-79005447D01*
X20961132Y-79071769D01*
X20961131Y-79071770D01*
X20949500Y-79130247D01*
X20500500Y-79130247D01*
X20500500Y-65101211D01*
X22094500Y-65101211D01*
X22094500Y-65258788D01*
X22098449Y-65298884D01*
X22129192Y-65453442D01*
X22140887Y-65491997D01*
X22165120Y-65550500D01*
X22201192Y-65637584D01*
X22220182Y-65673112D01*
X22220187Y-65673120D01*
X22220192Y-65673128D01*
X22307725Y-65804131D01*
X22307729Y-65804136D01*
X22307732Y-65804140D01*
X22333289Y-65835280D01*
X22444720Y-65946711D01*
X22475860Y-65972268D01*
X22475863Y-65972270D01*
X22475868Y-65972274D01*
X22606871Y-66059807D01*
X22606874Y-66059809D01*
X22606888Y-66059818D01*
X22642416Y-66078808D01*
X22788007Y-66139114D01*
X22826559Y-66150808D01*
X22981117Y-66181551D01*
X23021207Y-66185500D01*
X23021212Y-66185500D01*
X23739783Y-66185500D01*
X23739783Y-66185499D01*
X23818423Y-66169858D01*
X23891932Y-66139410D01*
X23896705Y-66136220D01*
X23963380Y-66115339D01*
X24030761Y-66133820D01*
X24077454Y-66185796D01*
X24089600Y-66239319D01*
X24089600Y-66995316D01*
X24069915Y-67062355D01*
X24017111Y-67108110D01*
X23947953Y-67118054D01*
X23884397Y-67089029D01*
X23877919Y-67082997D01*
X23737785Y-66942863D01*
X23737781Y-66942860D01*
X23573920Y-66833371D01*
X23573907Y-66833364D01*
X23391839Y-66757950D01*
X23391829Y-66757947D01*
X23198543Y-66719500D01*
X23198541Y-66719500D01*
X23001459Y-66719500D01*
X23001457Y-66719500D01*
X22808170Y-66757947D01*
X22808160Y-66757950D01*
X22626092Y-66833364D01*
X22626079Y-66833371D01*
X22462218Y-66942860D01*
X22462214Y-66942863D01*
X22322863Y-67082214D01*
X22322860Y-67082218D01*
X22213371Y-67246079D01*
X22213364Y-67246092D01*
X22137950Y-67428160D01*
X22137947Y-67428170D01*
X22099500Y-67621456D01*
X22099500Y-67621459D01*
X22099500Y-67818541D01*
X22099500Y-67818543D01*
X22099499Y-67818543D01*
X22137947Y-68011829D01*
X22137950Y-68011839D01*
X22213364Y-68193907D01*
X22213371Y-68193920D01*
X22322860Y-68357781D01*
X22322863Y-68357785D01*
X22462214Y-68497136D01*
X22462218Y-68497139D01*
X22626079Y-68606628D01*
X22626092Y-68606635D01*
X22808160Y-68682049D01*
X22808165Y-68682051D01*
X22808169Y-68682051D01*
X22808170Y-68682052D01*
X23001456Y-68720500D01*
X23001459Y-68720500D01*
X23198543Y-68720500D01*
X23328582Y-68694632D01*
X23391835Y-68682051D01*
X23532655Y-68623721D01*
X23573907Y-68606635D01*
X23573907Y-68606634D01*
X23573914Y-68606632D01*
X23737782Y-68497139D01*
X23799083Y-68435838D01*
X23877919Y-68357003D01*
X23939242Y-68323518D01*
X24008934Y-68328502D01*
X24064867Y-68370374D01*
X24089284Y-68435838D01*
X24089600Y-68444684D01*
X24089600Y-68758710D01*
X24069915Y-68825749D01*
X24053281Y-68846391D01*
X23598835Y-69300836D01*
X23537512Y-69334321D01*
X23467820Y-69329337D01*
X23463703Y-69327717D01*
X23442805Y-69319061D01*
X23391835Y-69297949D01*
X23391831Y-69297948D01*
X23391828Y-69297947D01*
X23198543Y-69259500D01*
X23198541Y-69259500D01*
X23001459Y-69259500D01*
X23001457Y-69259500D01*
X22808170Y-69297947D01*
X22808160Y-69297950D01*
X22626092Y-69373364D01*
X22626079Y-69373371D01*
X22462218Y-69482860D01*
X22462214Y-69482863D01*
X22322863Y-69622214D01*
X22322860Y-69622218D01*
X22213371Y-69786079D01*
X22213364Y-69786092D01*
X22137950Y-69968160D01*
X22137947Y-69968170D01*
X22099500Y-70161456D01*
X22099500Y-70161459D01*
X22099500Y-70358541D01*
X22099500Y-70358543D01*
X22099499Y-70358543D01*
X22137947Y-70551829D01*
X22137950Y-70551839D01*
X22213364Y-70733907D01*
X22213371Y-70733920D01*
X22322860Y-70897781D01*
X22322863Y-70897785D01*
X22462214Y-71037136D01*
X22462218Y-71037139D01*
X22626079Y-71146628D01*
X22626092Y-71146635D01*
X22708085Y-71180597D01*
X22808165Y-71222051D01*
X22808169Y-71222051D01*
X22808170Y-71222052D01*
X23001456Y-71260500D01*
X23001459Y-71260500D01*
X23198543Y-71260500D01*
X23328582Y-71234632D01*
X23391835Y-71222051D01*
X23573914Y-71146632D01*
X23737782Y-71037139D01*
X23877139Y-70897782D01*
X23986632Y-70733914D01*
X24062051Y-70551835D01*
X24100500Y-70358541D01*
X24100500Y-70161459D01*
X24100500Y-70161456D01*
X24062052Y-69968170D01*
X24062051Y-69968169D01*
X24062051Y-69968165D01*
X24032281Y-69896295D01*
X24024813Y-69826828D01*
X24056088Y-69764348D01*
X24059131Y-69761194D01*
X24675565Y-69144762D01*
X24718418Y-69070539D01*
X24740600Y-68987753D01*
X24740600Y-68902047D01*
X24740600Y-67607170D01*
X24760285Y-67540131D01*
X24813089Y-67494376D01*
X24882247Y-67484432D01*
X24940655Y-67509233D01*
X29542057Y-71082663D01*
X29582931Y-71139327D01*
X29590000Y-71180597D01*
X29590000Y-72130000D01*
X34390000Y-72130000D01*
X34390000Y-71180597D01*
X34409685Y-71113558D01*
X34437941Y-71082664D01*
X39090000Y-67469895D01*
X39090000Y-63130000D01*
X25188289Y-63130000D01*
X25121250Y-63110315D01*
X25075495Y-63057511D01*
X25065551Y-62988353D01*
X25094576Y-62924797D01*
X25100608Y-62918319D01*
X28375980Y-59642947D01*
X39413700Y-59642947D01*
X39413700Y-69162052D01*
X39435882Y-69244840D01*
X39457308Y-69281950D01*
X39478735Y-69319062D01*
X39478737Y-69319064D01*
X39920837Y-69761164D01*
X39954322Y-69822487D01*
X39949338Y-69892179D01*
X39947737Y-69896247D01*
X39917949Y-69968165D01*
X39917947Y-69968171D01*
X39879500Y-70161456D01*
X39879500Y-70161459D01*
X39879500Y-70358541D01*
X39879500Y-70358543D01*
X39879499Y-70358543D01*
X39917947Y-70551829D01*
X39917950Y-70551839D01*
X39993364Y-70733907D01*
X39993371Y-70733920D01*
X40102860Y-70897781D01*
X40102863Y-70897785D01*
X40242214Y-71037136D01*
X40242218Y-71037139D01*
X40406079Y-71146628D01*
X40406092Y-71146635D01*
X40488085Y-71180597D01*
X40588165Y-71222051D01*
X40588169Y-71222051D01*
X40588170Y-71222052D01*
X40781456Y-71260500D01*
X40781459Y-71260500D01*
X40978543Y-71260500D01*
X41108582Y-71234632D01*
X41171835Y-71222051D01*
X41353914Y-71146632D01*
X41517782Y-71037139D01*
X41657139Y-70897782D01*
X41766632Y-70733914D01*
X41842051Y-70551835D01*
X41880500Y-70358541D01*
X41880500Y-70161459D01*
X41880500Y-70161456D01*
X41842052Y-69968170D01*
X41842051Y-69968169D01*
X41842051Y-69968165D01*
X41810577Y-69892179D01*
X41766635Y-69786092D01*
X41766628Y-69786079D01*
X41657139Y-69622218D01*
X41657136Y-69622214D01*
X41517785Y-69482863D01*
X41517781Y-69482860D01*
X41353920Y-69373371D01*
X41353907Y-69373364D01*
X41171839Y-69297950D01*
X41171829Y-69297947D01*
X40978543Y-69259500D01*
X40978541Y-69259500D01*
X40781459Y-69259500D01*
X40781457Y-69259500D01*
X40588171Y-69297947D01*
X40588167Y-69297948D01*
X40588165Y-69297949D01*
X40516293Y-69327718D01*
X40446827Y-69335186D01*
X40384348Y-69303910D01*
X40381164Y-69300837D01*
X40101019Y-69020692D01*
X40067534Y-68959369D01*
X40064700Y-68933011D01*
X40064700Y-68610513D01*
X40084385Y-68543474D01*
X40137189Y-68497719D01*
X40206347Y-68487775D01*
X40257591Y-68507411D01*
X40406079Y-68606628D01*
X40406092Y-68606635D01*
X40588160Y-68682049D01*
X40588165Y-68682051D01*
X40588169Y-68682051D01*
X40588170Y-68682052D01*
X40781456Y-68720500D01*
X40781459Y-68720500D01*
X40978543Y-68720500D01*
X41108582Y-68694632D01*
X41171835Y-68682051D01*
X41312655Y-68623721D01*
X41353907Y-68606635D01*
X41353907Y-68606634D01*
X41353914Y-68606632D01*
X41517782Y-68497139D01*
X41657139Y-68357782D01*
X41766632Y-68193914D01*
X41770604Y-68184326D01*
X41842049Y-68011839D01*
X41842051Y-68011835D01*
X41874314Y-67849641D01*
X41880500Y-67818543D01*
X41880500Y-67621456D01*
X41842052Y-67428170D01*
X41842051Y-67428169D01*
X41842051Y-67428165D01*
X41803336Y-67334698D01*
X41766635Y-67246092D01*
X41766628Y-67246079D01*
X41657139Y-67082218D01*
X41657136Y-67082214D01*
X41517785Y-66942863D01*
X41517781Y-66942860D01*
X41353920Y-66833371D01*
X41353907Y-66833364D01*
X41171839Y-66757950D01*
X41171829Y-66757947D01*
X40978543Y-66719500D01*
X40978541Y-66719500D01*
X40781459Y-66719500D01*
X40781457Y-66719500D01*
X40588170Y-66757947D01*
X40588160Y-66757950D01*
X40406092Y-66833364D01*
X40406074Y-66833374D01*
X40257590Y-66932588D01*
X40190913Y-66953466D01*
X40123533Y-66934981D01*
X40076843Y-66883002D01*
X40064700Y-66829486D01*
X40064700Y-66301681D01*
X40084385Y-66234642D01*
X40137189Y-66188887D01*
X40206347Y-66178943D01*
X40212852Y-66180056D01*
X40240218Y-66185500D01*
X40240219Y-66185500D01*
X40958788Y-66185500D01*
X40958793Y-66185500D01*
X40998883Y-66181551D01*
X41153441Y-66150808D01*
X41191993Y-66139114D01*
X41337584Y-66078808D01*
X41373112Y-66059818D01*
X41504140Y-65972268D01*
X41535280Y-65946711D01*
X41646711Y-65835280D01*
X41672268Y-65804140D01*
X41759818Y-65673112D01*
X41778808Y-65637584D01*
X41839114Y-65491993D01*
X41850808Y-65453441D01*
X41881551Y-65298883D01*
X41885500Y-65258793D01*
X41885500Y-65101207D01*
X41881551Y-65061117D01*
X41850808Y-64906559D01*
X41839114Y-64868007D01*
X41778808Y-64722416D01*
X41759818Y-64686888D01*
X41759807Y-64686871D01*
X41672274Y-64555868D01*
X41672270Y-64555863D01*
X41656335Y-64536447D01*
X41646711Y-64524720D01*
X41535280Y-64413289D01*
X41504140Y-64387732D01*
X41504136Y-64387729D01*
X41504131Y-64387725D01*
X41373128Y-64300192D01*
X41373120Y-64300187D01*
X41373112Y-64300182D01*
X41337584Y-64281192D01*
X41337577Y-64281189D01*
X41191997Y-64220887D01*
X41153442Y-64209192D01*
X40998884Y-64178449D01*
X40998885Y-64178449D01*
X40987428Y-64177320D01*
X40958793Y-64174500D01*
X40240218Y-64174500D01*
X40212889Y-64179935D01*
X40143299Y-64173708D01*
X40088122Y-64130844D01*
X40064878Y-64064954D01*
X40064700Y-64058318D01*
X40064700Y-63530513D01*
X40084385Y-63463474D01*
X40137189Y-63417719D01*
X40206347Y-63407775D01*
X40257591Y-63427411D01*
X40406079Y-63526628D01*
X40406092Y-63526635D01*
X40588160Y-63602049D01*
X40588165Y-63602051D01*
X40588169Y-63602051D01*
X40588170Y-63602052D01*
X40781456Y-63640500D01*
X40781459Y-63640500D01*
X40978543Y-63640500D01*
X41108582Y-63614632D01*
X41171835Y-63602051D01*
X41312655Y-63543721D01*
X41353907Y-63526635D01*
X41353907Y-63526634D01*
X41353914Y-63526632D01*
X41517782Y-63417139D01*
X41657139Y-63277782D01*
X41766632Y-63113914D01*
X41842051Y-62931835D01*
X41854632Y-62868582D01*
X41880500Y-62738543D01*
X41880500Y-62541456D01*
X41842052Y-62348170D01*
X41842051Y-62348169D01*
X41842051Y-62348165D01*
X41802034Y-62251555D01*
X41766635Y-62166092D01*
X41766628Y-62166079D01*
X41657139Y-62002218D01*
X41657136Y-62002214D01*
X41517785Y-61862863D01*
X41517781Y-61862860D01*
X41353920Y-61753371D01*
X41353907Y-61753364D01*
X41171839Y-61677950D01*
X41171829Y-61677947D01*
X40978543Y-61639500D01*
X40978541Y-61639500D01*
X40781459Y-61639500D01*
X40781457Y-61639500D01*
X40588170Y-61677947D01*
X40588160Y-61677950D01*
X40406092Y-61753364D01*
X40406074Y-61753374D01*
X40257590Y-61852588D01*
X40190913Y-61873466D01*
X40123533Y-61854981D01*
X40076843Y-61803002D01*
X40064700Y-61749486D01*
X40064700Y-60990513D01*
X40084385Y-60923474D01*
X40137189Y-60877719D01*
X40206347Y-60867775D01*
X40257591Y-60887411D01*
X40406079Y-60986628D01*
X40406092Y-60986635D01*
X40581190Y-61059162D01*
X40588165Y-61062051D01*
X40588169Y-61062051D01*
X40588170Y-61062052D01*
X40781456Y-61100500D01*
X40781459Y-61100500D01*
X40978543Y-61100500D01*
X41108582Y-61074632D01*
X41171835Y-61062051D01*
X41243705Y-61032281D01*
X41313169Y-61024813D01*
X41375649Y-61056087D01*
X41378835Y-61059162D01*
X45638181Y-65318508D01*
X45671666Y-65379831D01*
X45674500Y-65406189D01*
X45674500Y-78825500D01*
X45654815Y-78892539D01*
X45602011Y-78938294D01*
X45550500Y-78949500D01*
X45130247Y-78949500D01*
X45071770Y-78961131D01*
X45071769Y-78961132D01*
X45005447Y-79005447D01*
X44961132Y-79071769D01*
X44961131Y-79071770D01*
X44949500Y-79130247D01*
X44949500Y-80869752D01*
X44961131Y-80928229D01*
X44961132Y-80928230D01*
X45005447Y-80994552D01*
X45071769Y-81038867D01*
X45071770Y-81038868D01*
X45130247Y-81050499D01*
X45130250Y-81050500D01*
X45130252Y-81050500D01*
X46869750Y-81050500D01*
X46869751Y-81050499D01*
X46884568Y-81047552D01*
X46928229Y-81038868D01*
X46928229Y-81038867D01*
X46928231Y-81038867D01*
X46994552Y-80994552D01*
X47038867Y-80928231D01*
X47044383Y-80900500D01*
X47050276Y-80870879D01*
X47050499Y-80869752D01*
X47050500Y-80869750D01*
X47050500Y-79909493D01*
X47390000Y-79909493D01*
X47390000Y-80090506D01*
X47418317Y-80269293D01*
X47474251Y-80441444D01*
X47474252Y-80441447D01*
X47556434Y-80602734D01*
X47597667Y-80659487D01*
X47597668Y-80659487D01*
X48071980Y-80185176D01*
X48074075Y-80192993D01*
X48139901Y-80307007D01*
X48232993Y-80400099D01*
X48347007Y-80465925D01*
X48354822Y-80468019D01*
X47880510Y-80942330D01*
X47880511Y-80942331D01*
X47937265Y-80983565D01*
X48098552Y-81065747D01*
X48098555Y-81065748D01*
X48270706Y-81121682D01*
X48449494Y-81150000D01*
X48630506Y-81150000D01*
X48809293Y-81121682D01*
X48981444Y-81065748D01*
X48981447Y-81065747D01*
X49142730Y-80983568D01*
X49199487Y-80942330D01*
X49199488Y-80942329D01*
X48725178Y-80468019D01*
X48732993Y-80465925D01*
X48847007Y-80400099D01*
X48940099Y-80307007D01*
X49005925Y-80192993D01*
X49008019Y-80185177D01*
X49482329Y-80659488D01*
X49482330Y-80659487D01*
X49523568Y-80602730D01*
X49605747Y-80441447D01*
X49605748Y-80441444D01*
X49661682Y-80269293D01*
X49690000Y-80090506D01*
X49690000Y-79909493D01*
X49661682Y-79730706D01*
X49605748Y-79558555D01*
X49605747Y-79558552D01*
X49523565Y-79397265D01*
X49482331Y-79340511D01*
X49482330Y-79340510D01*
X49008018Y-79814821D01*
X49005925Y-79807007D01*
X48940099Y-79692993D01*
X48847007Y-79599901D01*
X48732993Y-79534075D01*
X48725176Y-79531980D01*
X49126908Y-79130247D01*
X65949500Y-79130247D01*
X65949500Y-80869752D01*
X65961131Y-80928229D01*
X65961132Y-80928230D01*
X66005447Y-80994552D01*
X66071769Y-81038867D01*
X66071770Y-81038868D01*
X66130247Y-81050499D01*
X66130250Y-81050500D01*
X66130252Y-81050500D01*
X67869750Y-81050500D01*
X67869751Y-81050499D01*
X67884568Y-81047552D01*
X67928229Y-81038868D01*
X67928229Y-81038867D01*
X67928231Y-81038867D01*
X67994552Y-80994552D01*
X68038867Y-80928231D01*
X68038867Y-80928229D01*
X68038868Y-80928229D01*
X68050499Y-80869752D01*
X68050500Y-80869750D01*
X68050500Y-79130249D01*
X68050499Y-79130247D01*
X68038868Y-79071770D01*
X68038867Y-79071769D01*
X67994552Y-79005447D01*
X67928230Y-78961132D01*
X67928229Y-78961131D01*
X67869752Y-78949500D01*
X67869748Y-78949500D01*
X66130252Y-78949500D01*
X66130247Y-78949500D01*
X66071770Y-78961131D01*
X66071769Y-78961132D01*
X66005447Y-79005447D01*
X65961132Y-79071769D01*
X65961131Y-79071770D01*
X65949500Y-79130247D01*
X49126908Y-79130247D01*
X49199487Y-79057668D01*
X49199487Y-79057667D01*
X49142734Y-79016434D01*
X48981447Y-78934252D01*
X48981444Y-78934251D01*
X48809293Y-78878317D01*
X48630506Y-78850000D01*
X48449494Y-78850000D01*
X48270706Y-78878317D01*
X48098555Y-78934251D01*
X48098552Y-78934252D01*
X47937270Y-79016431D01*
X47937268Y-79016432D01*
X47880511Y-79057667D01*
X47880511Y-79057668D01*
X48354823Y-79531980D01*
X48347007Y-79534075D01*
X48232993Y-79599901D01*
X48139901Y-79692993D01*
X48074075Y-79807007D01*
X48071980Y-79814823D01*
X47597668Y-79340511D01*
X47597667Y-79340511D01*
X47556432Y-79397268D01*
X47556431Y-79397270D01*
X47474252Y-79558552D01*
X47474251Y-79558555D01*
X47418317Y-79730706D01*
X47390000Y-79909493D01*
X47050500Y-79909493D01*
X47050500Y-79130251D01*
X47050275Y-79129120D01*
X47050275Y-79129118D01*
X47038868Y-79071770D01*
X47038867Y-79071769D01*
X46994552Y-79005447D01*
X46928230Y-78961132D01*
X46928229Y-78961131D01*
X46869752Y-78949500D01*
X46869748Y-78949500D01*
X46449500Y-78949500D01*
X46382461Y-78929815D01*
X46336706Y-78877011D01*
X46325500Y-78825500D01*
X46325500Y-65177149D01*
X46325500Y-65177147D01*
X46303318Y-65094362D01*
X46261822Y-65022488D01*
X46260469Y-65020144D01*
X46260463Y-65020136D01*
X41839162Y-60598835D01*
X41805677Y-60537512D01*
X41810661Y-60467820D01*
X41812251Y-60463776D01*
X41842051Y-60391835D01*
X41861942Y-60291839D01*
X41880500Y-60198543D01*
X41880500Y-60001456D01*
X41842052Y-59808170D01*
X41842051Y-59808169D01*
X41842051Y-59808165D01*
X41842049Y-59808160D01*
X41766635Y-59626092D01*
X41766628Y-59626079D01*
X41657139Y-59462218D01*
X41657136Y-59462214D01*
X41517785Y-59322863D01*
X41517781Y-59322860D01*
X41415429Y-59254470D01*
X41370624Y-59200858D01*
X41361917Y-59131533D01*
X41392072Y-59068505D01*
X41396620Y-59063706D01*
X45501165Y-54959160D01*
X45562486Y-54925677D01*
X45632178Y-54930661D01*
X45636270Y-54932271D01*
X45708165Y-54962051D01*
X45708169Y-54962051D01*
X45708170Y-54962052D01*
X45901456Y-55000500D01*
X45901459Y-55000500D01*
X46098543Y-55000500D01*
X46234464Y-54973463D01*
X46291835Y-54962051D01*
X46473914Y-54886632D01*
X46637782Y-54777139D01*
X46777139Y-54637782D01*
X46886632Y-54473914D01*
X46962051Y-54291835D01*
X46991355Y-54144517D01*
X47000500Y-54098543D01*
X47000500Y-53901456D01*
X46962052Y-53708170D01*
X46962051Y-53708169D01*
X46962051Y-53708165D01*
X46962049Y-53708160D01*
X46886635Y-53526092D01*
X46886628Y-53526079D01*
X46777139Y-53362218D01*
X46777136Y-53362214D01*
X46637785Y-53222863D01*
X46637781Y-53222860D01*
X46473920Y-53113371D01*
X46473907Y-53113364D01*
X46291839Y-53037950D01*
X46291829Y-53037947D01*
X46098543Y-52999500D01*
X46098541Y-52999500D01*
X45901459Y-52999500D01*
X45901457Y-52999500D01*
X45708170Y-53037947D01*
X45708160Y-53037950D01*
X45526092Y-53113364D01*
X45526079Y-53113371D01*
X45362218Y-53222860D01*
X45362214Y-53222863D01*
X45222863Y-53362214D01*
X45222860Y-53362218D01*
X45113371Y-53526079D01*
X45113364Y-53526092D01*
X45037950Y-53708160D01*
X45037947Y-53708170D01*
X44999500Y-53901456D01*
X44999500Y-53901459D01*
X44999500Y-54098541D01*
X44999500Y-54098543D01*
X44999499Y-54098543D01*
X45037947Y-54291828D01*
X45037948Y-54291831D01*
X45037949Y-54291835D01*
X45037951Y-54291839D01*
X45067717Y-54363703D01*
X45075184Y-54433173D01*
X45043909Y-54495651D01*
X45040836Y-54498835D01*
X42077342Y-57462330D01*
X42016019Y-57495815D01*
X41946327Y-57490831D01*
X41890394Y-57448959D01*
X41868044Y-57398840D01*
X41860615Y-57361491D01*
X41842051Y-57268165D01*
X41832069Y-57244065D01*
X41766635Y-57086092D01*
X41766628Y-57086079D01*
X41657139Y-56922218D01*
X41657136Y-56922214D01*
X41517785Y-56782863D01*
X41517781Y-56782860D01*
X41353920Y-56673371D01*
X41353907Y-56673364D01*
X41171839Y-56597950D01*
X41171829Y-56597947D01*
X40978543Y-56559500D01*
X40978541Y-56559500D01*
X40781459Y-56559500D01*
X40781457Y-56559500D01*
X40588170Y-56597947D01*
X40588160Y-56597950D01*
X40406092Y-56673364D01*
X40406079Y-56673371D01*
X40242218Y-56782860D01*
X40242214Y-56782863D01*
X40102863Y-56922214D01*
X40102860Y-56922218D01*
X39993371Y-57086079D01*
X39993364Y-57086092D01*
X39917950Y-57268160D01*
X39917947Y-57268170D01*
X39879500Y-57461456D01*
X39879500Y-57461459D01*
X39879500Y-57658541D01*
X39879500Y-57658543D01*
X39879499Y-57658543D01*
X39917947Y-57851829D01*
X39917950Y-57851839D01*
X39993364Y-58033907D01*
X39993371Y-58033920D01*
X40102860Y-58197781D01*
X40102863Y-58197785D01*
X40242215Y-58337137D01*
X40242218Y-58337139D01*
X40347568Y-58407532D01*
X40392373Y-58461142D01*
X40401080Y-58530467D01*
X40370926Y-58593495D01*
X40366358Y-58598314D01*
X39478737Y-59485935D01*
X39478733Y-59485941D01*
X39435881Y-59560161D01*
X39435882Y-59560162D01*
X39413700Y-59642947D01*
X28375980Y-59642947D01*
X32900384Y-55118543D01*
X39879499Y-55118543D01*
X39917947Y-55311829D01*
X39917950Y-55311839D01*
X39993364Y-55493907D01*
X39993371Y-55493920D01*
X40102860Y-55657781D01*
X40102863Y-55657785D01*
X40242214Y-55797136D01*
X40242218Y-55797139D01*
X40406079Y-55906628D01*
X40406092Y-55906635D01*
X40588160Y-55982049D01*
X40588165Y-55982051D01*
X40588169Y-55982051D01*
X40588170Y-55982052D01*
X40781456Y-56020500D01*
X40781459Y-56020500D01*
X40978543Y-56020500D01*
X41108582Y-55994632D01*
X41171835Y-55982051D01*
X41353914Y-55906632D01*
X41517782Y-55797139D01*
X41657139Y-55657782D01*
X41766632Y-55493914D01*
X41842051Y-55311835D01*
X41859749Y-55222861D01*
X41880500Y-55118543D01*
X41880500Y-54921456D01*
X41842052Y-54728170D01*
X41842051Y-54728169D01*
X41842051Y-54728165D01*
X41842049Y-54728160D01*
X41766635Y-54546092D01*
X41766628Y-54546079D01*
X41657139Y-54382218D01*
X41657136Y-54382214D01*
X41517785Y-54242863D01*
X41517781Y-54242860D01*
X41353920Y-54133371D01*
X41353907Y-54133364D01*
X41171839Y-54057950D01*
X41171829Y-54057947D01*
X40978543Y-54019500D01*
X40978541Y-54019500D01*
X40781459Y-54019500D01*
X40781457Y-54019500D01*
X40588170Y-54057947D01*
X40588160Y-54057950D01*
X40406092Y-54133364D01*
X40406079Y-54133371D01*
X40242218Y-54242860D01*
X40242214Y-54242863D01*
X40102863Y-54382214D01*
X40102860Y-54382218D01*
X39993371Y-54546079D01*
X39993364Y-54546092D01*
X39917950Y-54728160D01*
X39917947Y-54728170D01*
X39879500Y-54921456D01*
X39879500Y-54921459D01*
X39879500Y-55118541D01*
X39879500Y-55118543D01*
X39879499Y-55118543D01*
X32900384Y-55118543D01*
X36444408Y-51574519D01*
X36505731Y-51541034D01*
X36532089Y-51538200D01*
X39797088Y-51538200D01*
X39864127Y-51557885D01*
X39909882Y-51610689D01*
X39919826Y-51679847D01*
X39911649Y-51709652D01*
X39890145Y-51761566D01*
X39890140Y-51761582D01*
X39874500Y-51840214D01*
X39874500Y-53119785D01*
X39890140Y-53198417D01*
X39890145Y-53198433D01*
X39920586Y-53271925D01*
X39920588Y-53271929D01*
X39920590Y-53271932D01*
X39965138Y-53338601D01*
X40021399Y-53394862D01*
X40088068Y-53439410D01*
X40088071Y-53439411D01*
X40088074Y-53439413D01*
X40161566Y-53469854D01*
X40161571Y-53469855D01*
X40161577Y-53469858D01*
X40240215Y-53485499D01*
X40240217Y-53485500D01*
X40240218Y-53485500D01*
X40958788Y-53485500D01*
X40958793Y-53485500D01*
X40998883Y-53481551D01*
X41153441Y-53450808D01*
X41191993Y-53439114D01*
X41337584Y-53378808D01*
X41373112Y-53359818D01*
X41504140Y-53272268D01*
X41535280Y-53246711D01*
X41646711Y-53135280D01*
X41672268Y-53104140D01*
X41759818Y-52973112D01*
X41778808Y-52937584D01*
X41839114Y-52791993D01*
X41850808Y-52753441D01*
X41881551Y-52598883D01*
X41885500Y-52558793D01*
X41885500Y-52401207D01*
X41881551Y-52361117D01*
X41850808Y-52206559D01*
X41839114Y-52168007D01*
X41778808Y-52022416D01*
X41759818Y-51986888D01*
X41738996Y-51955725D01*
X41672274Y-51855868D01*
X41672270Y-51855863D01*
X41671958Y-51855483D01*
X41646711Y-51824720D01*
X41571872Y-51749881D01*
X41538387Y-51688558D01*
X41543371Y-51618866D01*
X41585243Y-51562933D01*
X41650707Y-51538516D01*
X41659553Y-51538200D01*
X42830151Y-51538200D01*
X42830153Y-51538200D01*
X42912939Y-51516018D01*
X42987162Y-51473165D01*
X45501165Y-48959160D01*
X45562486Y-48925677D01*
X45632178Y-48930661D01*
X45636270Y-48932271D01*
X45708165Y-48962051D01*
X45708169Y-48962051D01*
X45708170Y-48962052D01*
X45901456Y-49000500D01*
X45901459Y-49000500D01*
X46098543Y-49000500D01*
X46228582Y-48974632D01*
X46291835Y-48962051D01*
X46473914Y-48886632D01*
X46637782Y-48777139D01*
X46676252Y-48738669D01*
X46732819Y-48682103D01*
X46794142Y-48648618D01*
X46863834Y-48653602D01*
X46919767Y-48695474D01*
X46944184Y-48760938D01*
X46944500Y-48769784D01*
X46944500Y-51008152D01*
X46966682Y-51090940D01*
X46975510Y-51106230D01*
X47009535Y-51165162D01*
X47009537Y-51165164D01*
X48632192Y-52787819D01*
X48665677Y-52849142D01*
X48660693Y-52918834D01*
X48618821Y-52974767D01*
X48553357Y-52999184D01*
X48544511Y-52999500D01*
X48441457Y-52999500D01*
X48248170Y-53037947D01*
X48248160Y-53037950D01*
X48066092Y-53113364D01*
X48066079Y-53113371D01*
X47902218Y-53222860D01*
X47902214Y-53222863D01*
X47762863Y-53362214D01*
X47762860Y-53362218D01*
X47653371Y-53526079D01*
X47653364Y-53526092D01*
X47577950Y-53708160D01*
X47577947Y-53708170D01*
X47539500Y-53901456D01*
X47539500Y-53901459D01*
X47539500Y-54098541D01*
X47539500Y-54098543D01*
X47539499Y-54098543D01*
X47577947Y-54291829D01*
X47577950Y-54291839D01*
X47653364Y-54473907D01*
X47653371Y-54473920D01*
X47762860Y-54637781D01*
X47762863Y-54637785D01*
X47902217Y-54777139D01*
X48066080Y-54886628D01*
X48066086Y-54886632D01*
X48137953Y-54916399D01*
X48192355Y-54960239D01*
X48214421Y-55026533D01*
X48214500Y-55030960D01*
X48214500Y-57273810D01*
X48194815Y-57340849D01*
X48178181Y-57361491D01*
X46498835Y-59040836D01*
X46437512Y-59074321D01*
X46367820Y-59069337D01*
X46363703Y-59067717D01*
X46328273Y-59053042D01*
X46291835Y-59037949D01*
X46291831Y-59037948D01*
X46291828Y-59037947D01*
X46098543Y-58999500D01*
X46098541Y-58999500D01*
X45901459Y-58999500D01*
X45901457Y-58999500D01*
X45708170Y-59037947D01*
X45708160Y-59037950D01*
X45526092Y-59113364D01*
X45526079Y-59113371D01*
X45362218Y-59222860D01*
X45362214Y-59222863D01*
X45222863Y-59362214D01*
X45222860Y-59362218D01*
X45113371Y-59526079D01*
X45113364Y-59526092D01*
X45037950Y-59708160D01*
X45037947Y-59708170D01*
X44999500Y-59901456D01*
X44999500Y-59901459D01*
X44999500Y-60098541D01*
X44999500Y-60098543D01*
X44999499Y-60098543D01*
X45037947Y-60291829D01*
X45037950Y-60291839D01*
X45113364Y-60473907D01*
X45113371Y-60473920D01*
X45222860Y-60637781D01*
X45222863Y-60637785D01*
X45362214Y-60777136D01*
X45362218Y-60777139D01*
X45526079Y-60886628D01*
X45526092Y-60886635D01*
X45656867Y-60940803D01*
X45708165Y-60962051D01*
X45708169Y-60962051D01*
X45708170Y-60962052D01*
X45901456Y-61000500D01*
X45901459Y-61000500D01*
X46098543Y-61000500D01*
X46228582Y-60974632D01*
X46291835Y-60962051D01*
X46456819Y-60893713D01*
X46473907Y-60886635D01*
X46473907Y-60886634D01*
X46473914Y-60886632D01*
X46637782Y-60777139D01*
X46637785Y-60777136D01*
X46643327Y-60771595D01*
X46777136Y-60637785D01*
X46777139Y-60637782D01*
X46886632Y-60473914D01*
X46962051Y-60291835D01*
X47000500Y-60098541D01*
X47000500Y-59913428D01*
X49900000Y-59913428D01*
X49900000Y-60086571D01*
X49927085Y-60257584D01*
X49980591Y-60422257D01*
X50059195Y-60576523D01*
X50059196Y-60576525D01*
X50093463Y-60623691D01*
X50093464Y-60623691D01*
X50613629Y-60103527D01*
X50627259Y-60154394D01*
X50679920Y-60245606D01*
X50754394Y-60320080D01*
X50845606Y-60372741D01*
X50896471Y-60386370D01*
X50376307Y-60906534D01*
X50423478Y-60940805D01*
X50577742Y-61019408D01*
X50742415Y-61072914D01*
X50913429Y-61100000D01*
X51086571Y-61100000D01*
X51257584Y-61072914D01*
X51422257Y-61019408D01*
X51576525Y-60940803D01*
X51623691Y-60906534D01*
X51623692Y-60906533D01*
X51103529Y-60386370D01*
X51154394Y-60372741D01*
X51245606Y-60320080D01*
X51320080Y-60245606D01*
X51372741Y-60154394D01*
X51386370Y-60103528D01*
X51906533Y-60623692D01*
X51906534Y-60623691D01*
X51940803Y-60576525D01*
X52019408Y-60422257D01*
X52072914Y-60257584D01*
X52100000Y-60086571D01*
X52100000Y-59913428D01*
X52072914Y-59742415D01*
X52019408Y-59577742D01*
X51940805Y-59423478D01*
X51906534Y-59376307D01*
X51386370Y-59896471D01*
X51372741Y-59845606D01*
X51320080Y-59754394D01*
X51245606Y-59679920D01*
X51154394Y-59627259D01*
X51103527Y-59613629D01*
X51623691Y-59093464D01*
X51623691Y-59093463D01*
X51576525Y-59059196D01*
X51576523Y-59059195D01*
X51422257Y-58980591D01*
X51257584Y-58927085D01*
X51086571Y-58900000D01*
X50913429Y-58900000D01*
X50742415Y-58927085D01*
X50577740Y-58980592D01*
X50423475Y-59059196D01*
X50376307Y-59093463D01*
X50376307Y-59093464D01*
X50896472Y-59613629D01*
X50845606Y-59627259D01*
X50754394Y-59679920D01*
X50679920Y-59754394D01*
X50627259Y-59845606D01*
X50613629Y-59896472D01*
X50093464Y-59376307D01*
X50093463Y-59376307D01*
X50059196Y-59423475D01*
X49980592Y-59577740D01*
X49927085Y-59742415D01*
X49900000Y-59913428D01*
X47000500Y-59913428D01*
X47000500Y-59901459D01*
X47000500Y-59901456D01*
X46962052Y-59708170D01*
X46962051Y-59708169D01*
X46962051Y-59708165D01*
X46932281Y-59636295D01*
X46924813Y-59566828D01*
X46956088Y-59504348D01*
X46959133Y-59501192D01*
X48800465Y-57659862D01*
X48801228Y-57658541D01*
X48843318Y-57585638D01*
X48865500Y-57502853D01*
X48865500Y-55030960D01*
X48885185Y-54963921D01*
X48937989Y-54918166D01*
X48942005Y-54916417D01*
X49013914Y-54886632D01*
X49177782Y-54777139D01*
X49317139Y-54637782D01*
X49426632Y-54473914D01*
X49502051Y-54291835D01*
X49531355Y-54144517D01*
X49540500Y-54098543D01*
X49540500Y-53995489D01*
X49560185Y-53928450D01*
X49612989Y-53882695D01*
X49682147Y-53872751D01*
X49745703Y-53901776D01*
X49752181Y-53907808D01*
X69178181Y-73333808D01*
X69211666Y-73395131D01*
X69214500Y-73421489D01*
X69214500Y-78914919D01*
X69194815Y-78981958D01*
X69142011Y-79027713D01*
X69137953Y-79029480D01*
X69042403Y-79069057D01*
X68870342Y-79184024D01*
X68724024Y-79330342D01*
X68609058Y-79502403D01*
X68529870Y-79693579D01*
X68529868Y-79693587D01*
X68489500Y-79896530D01*
X68489500Y-80103469D01*
X68529868Y-80306412D01*
X68529870Y-80306420D01*
X68609058Y-80497596D01*
X68724024Y-80669657D01*
X68870342Y-80815975D01*
X68870345Y-80815977D01*
X69042402Y-80930941D01*
X69233580Y-81010130D01*
X69378052Y-81038867D01*
X69436530Y-81050499D01*
X69436534Y-81050500D01*
X69436535Y-81050500D01*
X69643466Y-81050500D01*
X69643467Y-81050499D01*
X69846420Y-81010130D01*
X70037598Y-80930941D01*
X70209655Y-80815977D01*
X70355977Y-80669655D01*
X70470941Y-80497598D01*
X70550130Y-80306420D01*
X70590500Y-80103465D01*
X70590500Y-79896535D01*
X70550130Y-79693580D01*
X70470941Y-79502402D01*
X70355977Y-79330345D01*
X70355975Y-79330342D01*
X70209657Y-79184024D01*
X70037596Y-79069057D01*
X69942047Y-79029480D01*
X69887644Y-78985639D01*
X69865579Y-78919345D01*
X69865500Y-78914919D01*
X69865500Y-73529789D01*
X69885185Y-73462750D01*
X69937989Y-73416995D01*
X70007147Y-73407051D01*
X70070703Y-73436076D01*
X70077181Y-73442108D01*
X71718181Y-75083108D01*
X71751666Y-75144431D01*
X71754500Y-75170789D01*
X71754500Y-78914919D01*
X71734815Y-78981958D01*
X71682011Y-79027713D01*
X71677953Y-79029480D01*
X71582403Y-79069057D01*
X71410342Y-79184024D01*
X71264024Y-79330342D01*
X71149058Y-79502403D01*
X71069870Y-79693579D01*
X71069868Y-79693587D01*
X71029500Y-79896530D01*
X71029500Y-80103469D01*
X71069868Y-80306412D01*
X71069870Y-80306420D01*
X71149058Y-80497596D01*
X71264024Y-80669657D01*
X71410342Y-80815975D01*
X71410345Y-80815977D01*
X71582402Y-80930941D01*
X71773580Y-81010130D01*
X71918052Y-81038867D01*
X71976530Y-81050499D01*
X71976534Y-81050500D01*
X71976535Y-81050500D01*
X72183466Y-81050500D01*
X72183467Y-81050499D01*
X72386420Y-81010130D01*
X72577598Y-80930941D01*
X72749655Y-80815977D01*
X72895977Y-80669655D01*
X73010941Y-80497598D01*
X73090130Y-80306420D01*
X73130500Y-80103465D01*
X73130500Y-79896535D01*
X73090130Y-79693580D01*
X73010941Y-79502402D01*
X72895977Y-79330345D01*
X72895975Y-79330342D01*
X72749657Y-79184024D01*
X72577596Y-79069057D01*
X72482047Y-79029480D01*
X72427644Y-78985639D01*
X72405579Y-78919345D01*
X72405500Y-78914919D01*
X72405500Y-74941749D01*
X72405500Y-74941747D01*
X72383318Y-74858962D01*
X72383314Y-74858955D01*
X72340469Y-74784744D01*
X72340463Y-74784736D01*
X60597208Y-63041481D01*
X60563723Y-62980158D01*
X60568707Y-62910466D01*
X60610579Y-62854533D01*
X60676043Y-62830116D01*
X60684889Y-62829800D01*
X60802472Y-62829800D01*
X60802475Y-62829800D01*
X60942485Y-62792284D01*
X61068015Y-62719809D01*
X61170509Y-62617315D01*
X61242984Y-62491785D01*
X61280500Y-62351775D01*
X61280500Y-62206825D01*
X61242984Y-62066815D01*
X61205686Y-62002214D01*
X61170511Y-61941288D01*
X61170510Y-61941287D01*
X61170509Y-61941285D01*
X61091818Y-61862594D01*
X61058334Y-61801270D01*
X61055500Y-61774913D01*
X61055500Y-58983953D01*
X61075185Y-58916914D01*
X61127989Y-58871159D01*
X61197147Y-58861215D01*
X61211569Y-58864172D01*
X61304225Y-58889000D01*
X61304229Y-58889000D01*
X61449172Y-58889000D01*
X61449175Y-58889000D01*
X61589185Y-58851484D01*
X61714715Y-58779009D01*
X61817209Y-58676515D01*
X61889684Y-58550985D01*
X61927200Y-58410975D01*
X61927200Y-58266025D01*
X61889684Y-58126015D01*
X61853890Y-58064019D01*
X61817211Y-58000488D01*
X61817210Y-58000487D01*
X61817209Y-58000485D01*
X61738518Y-57921794D01*
X61705034Y-57860470D01*
X61702200Y-57834113D01*
X61702200Y-43019889D01*
X61721885Y-42952850D01*
X61738519Y-42932208D01*
X64620976Y-40049751D01*
X67554013Y-37116713D01*
X67615334Y-37083230D01*
X67685026Y-37088214D01*
X67740959Y-37130086D01*
X67749079Y-37142395D01*
X67806191Y-37241315D01*
X67806193Y-37241317D01*
X67884881Y-37320005D01*
X67918366Y-37381328D01*
X67921200Y-37407686D01*
X67921200Y-40725500D01*
X67901515Y-40792539D01*
X67848711Y-40838294D01*
X67797200Y-40849500D01*
X66030247Y-40849500D01*
X65971770Y-40861131D01*
X65971769Y-40861132D01*
X65905447Y-40905447D01*
X65861132Y-40971769D01*
X65861131Y-40971770D01*
X65849500Y-41030247D01*
X65849500Y-42969752D01*
X65861131Y-43028229D01*
X65861132Y-43028230D01*
X65905447Y-43094552D01*
X65971769Y-43138867D01*
X65971770Y-43138868D01*
X66030247Y-43150499D01*
X66030250Y-43150500D01*
X66030252Y-43150500D01*
X67969750Y-43150500D01*
X67969751Y-43150499D01*
X67984568Y-43147552D01*
X68028229Y-43138868D01*
X68028229Y-43138867D01*
X68028231Y-43138867D01*
X68094552Y-43094552D01*
X68125996Y-43047493D01*
X68179606Y-43002689D01*
X68248931Y-42993982D01*
X68311959Y-43024136D01*
X68316778Y-43028704D01*
X76798181Y-51510107D01*
X76831666Y-51571430D01*
X76834500Y-51597788D01*
X76834500Y-78825500D01*
X76814815Y-78892539D01*
X76762011Y-78938294D01*
X76710500Y-78949500D01*
X76290247Y-78949500D01*
X76231770Y-78961131D01*
X76231769Y-78961132D01*
X76165447Y-79005447D01*
X76121132Y-79071769D01*
X76121131Y-79071770D01*
X76109500Y-79130247D01*
X76109500Y-80869752D01*
X76121131Y-80928229D01*
X76121132Y-80928230D01*
X76165447Y-80994552D01*
X76231769Y-81038867D01*
X76231770Y-81038868D01*
X76290247Y-81050499D01*
X76290250Y-81050500D01*
X76290252Y-81050500D01*
X78029750Y-81050500D01*
X78029751Y-81050499D01*
X78044568Y-81047552D01*
X78088229Y-81038868D01*
X78088229Y-81038867D01*
X78088231Y-81038867D01*
X78154552Y-80994552D01*
X78198867Y-80928231D01*
X78198867Y-80928229D01*
X78198868Y-80928229D01*
X78210499Y-80869752D01*
X78210500Y-80869750D01*
X78210500Y-79130249D01*
X78210499Y-79130247D01*
X78198868Y-79071770D01*
X78198867Y-79071769D01*
X78154552Y-79005447D01*
X78088230Y-78961132D01*
X78088229Y-78961131D01*
X78029752Y-78949500D01*
X78029748Y-78949500D01*
X77609500Y-78949500D01*
X77542461Y-78929815D01*
X77496706Y-78877011D01*
X77485500Y-78825500D01*
X77485500Y-51464455D01*
X77485501Y-51464442D01*
X77485501Y-51368748D01*
X77485501Y-51368747D01*
X77463318Y-51285961D01*
X77428563Y-51225765D01*
X77420465Y-51211738D01*
X77359862Y-51151135D01*
X77359859Y-51151133D01*
X73510182Y-47301456D01*
X69568408Y-43359681D01*
X69534923Y-43298358D01*
X69539907Y-43228666D01*
X69581779Y-43172733D01*
X69636691Y-43149527D01*
X69678453Y-43142912D01*
X69809409Y-43122171D01*
X69981639Y-43066211D01*
X70142994Y-42983996D01*
X70289501Y-42877553D01*
X70417553Y-42749501D01*
X70523996Y-42602994D01*
X70606211Y-42441639D01*
X70662171Y-42269409D01*
X70676422Y-42179425D01*
X70687527Y-42109321D01*
X70717456Y-42046186D01*
X70776768Y-42009255D01*
X70846630Y-42010253D01*
X70904863Y-42048863D01*
X70932473Y-42109321D01*
X70957829Y-42269410D01*
X71013787Y-42441636D01*
X71013788Y-42441639D01*
X71096006Y-42602997D01*
X71202441Y-42749494D01*
X71202445Y-42749499D01*
X71330500Y-42877554D01*
X71330505Y-42877558D01*
X71449375Y-42963921D01*
X71477006Y-42983996D01*
X71579220Y-43036077D01*
X71638360Y-43066211D01*
X71638363Y-43066212D01*
X71722235Y-43093463D01*
X71810591Y-43122171D01*
X71893429Y-43135291D01*
X71989449Y-43150500D01*
X71989454Y-43150500D01*
X72170551Y-43150500D01*
X72257405Y-43136743D01*
X72349409Y-43122171D01*
X72521639Y-43066211D01*
X72682994Y-42983996D01*
X72829501Y-42877553D01*
X72957553Y-42749501D01*
X73063996Y-42602994D01*
X73146211Y-42441639D01*
X73202171Y-42269409D01*
X73216422Y-42179425D01*
X73227527Y-42109321D01*
X73257456Y-42046186D01*
X73316768Y-42009255D01*
X73386630Y-42010253D01*
X73444863Y-42048863D01*
X73472473Y-42109321D01*
X73497829Y-42269410D01*
X73553787Y-42441636D01*
X73553788Y-42441639D01*
X73636006Y-42602997D01*
X73742441Y-42749494D01*
X73742445Y-42749499D01*
X73870500Y-42877554D01*
X73870505Y-42877558D01*
X73989375Y-42963921D01*
X74017006Y-42983996D01*
X74119220Y-43036077D01*
X74178360Y-43066211D01*
X74178363Y-43066212D01*
X74262235Y-43093463D01*
X74350591Y-43122171D01*
X74433429Y-43135291D01*
X74529449Y-43150500D01*
X74529454Y-43150500D01*
X74710551Y-43150500D01*
X74797405Y-43136743D01*
X74889409Y-43122171D01*
X75061639Y-43066211D01*
X75222994Y-42983996D01*
X75369501Y-42877553D01*
X75497553Y-42749501D01*
X75603996Y-42602994D01*
X75686211Y-42441639D01*
X75742171Y-42269409D01*
X75755970Y-42182282D01*
X75767244Y-42111108D01*
X75797173Y-42047973D01*
X75856485Y-42011042D01*
X75926348Y-42012040D01*
X75977398Y-42042825D01*
X79338181Y-45403608D01*
X79371666Y-45464931D01*
X79374500Y-45491289D01*
X79374500Y-78914919D01*
X79354815Y-78981958D01*
X79302011Y-79027713D01*
X79297953Y-79029480D01*
X79202403Y-79069057D01*
X79030342Y-79184024D01*
X78884024Y-79330342D01*
X78769058Y-79502403D01*
X78689870Y-79693579D01*
X78689868Y-79693587D01*
X78649500Y-79896530D01*
X78649500Y-80103469D01*
X78689868Y-80306412D01*
X78689870Y-80306420D01*
X78769058Y-80497596D01*
X78884024Y-80669657D01*
X79030342Y-80815975D01*
X79030345Y-80815977D01*
X79202402Y-80930941D01*
X79393580Y-81010130D01*
X79538052Y-81038867D01*
X79596530Y-81050499D01*
X79596534Y-81050500D01*
X79596535Y-81050500D01*
X79803466Y-81050500D01*
X79803467Y-81050499D01*
X80006420Y-81010130D01*
X80197598Y-80930941D01*
X80369655Y-80815977D01*
X80515977Y-80669655D01*
X80630941Y-80497598D01*
X80710130Y-80306420D01*
X80750500Y-80103465D01*
X80750500Y-79896535D01*
X80750499Y-79896530D01*
X81189500Y-79896530D01*
X81189500Y-80103469D01*
X81229868Y-80306412D01*
X81229870Y-80306420D01*
X81309058Y-80497596D01*
X81424024Y-80669657D01*
X81570342Y-80815975D01*
X81570345Y-80815977D01*
X81742402Y-80930941D01*
X81933580Y-81010130D01*
X82078052Y-81038867D01*
X82136530Y-81050499D01*
X82136534Y-81050500D01*
X82136535Y-81050500D01*
X82343466Y-81050500D01*
X82343467Y-81050499D01*
X82546420Y-81010130D01*
X82737598Y-80930941D01*
X82909655Y-80815977D01*
X83055977Y-80669655D01*
X83170941Y-80497598D01*
X83250130Y-80306420D01*
X83290500Y-80103465D01*
X83290500Y-79896535D01*
X83250130Y-79693580D01*
X83170941Y-79502402D01*
X83055977Y-79330345D01*
X83055975Y-79330342D01*
X82909657Y-79184024D01*
X82741655Y-79071770D01*
X82737598Y-79069059D01*
X82737593Y-79069057D01*
X82546420Y-78989870D01*
X82546412Y-78989868D01*
X82343469Y-78949500D01*
X82343465Y-78949500D01*
X82136535Y-78949500D01*
X82136530Y-78949500D01*
X81933587Y-78989868D01*
X81933579Y-78989870D01*
X81742403Y-79069058D01*
X81570342Y-79184024D01*
X81424024Y-79330342D01*
X81309058Y-79502403D01*
X81229870Y-79693579D01*
X81229868Y-79693587D01*
X81189500Y-79896530D01*
X80750499Y-79896530D01*
X80710130Y-79693580D01*
X80630941Y-79502402D01*
X80515977Y-79330345D01*
X80515975Y-79330342D01*
X80369657Y-79184024D01*
X80197596Y-79069057D01*
X80102047Y-79029480D01*
X80047644Y-78985639D01*
X80025579Y-78919345D01*
X80025500Y-78914919D01*
X80025500Y-52881902D01*
X90999500Y-52881902D01*
X90999500Y-53118097D01*
X91036446Y-53351368D01*
X91109433Y-53575996D01*
X91154333Y-53664116D01*
X91216657Y-53786433D01*
X91355483Y-53977510D01*
X91522490Y-54144517D01*
X91713567Y-54283343D01*
X91765818Y-54309966D01*
X91924003Y-54390566D01*
X91924005Y-54390566D01*
X91924008Y-54390568D01*
X92044412Y-54429689D01*
X92148631Y-54463553D01*
X92381903Y-54500500D01*
X92381908Y-54500500D01*
X92618097Y-54500500D01*
X92851368Y-54463553D01*
X93075992Y-54390568D01*
X93286433Y-54283343D01*
X93477510Y-54144517D01*
X93644517Y-53977510D01*
X93783343Y-53786433D01*
X93890568Y-53575992D01*
X93963553Y-53351368D01*
X93976081Y-53272268D01*
X93998735Y-53129240D01*
X93998735Y-53129239D01*
X94000500Y-53118096D01*
X94000500Y-52881902D01*
X93963553Y-52648631D01*
X93934361Y-52558788D01*
X93890568Y-52424008D01*
X93890565Y-52424004D01*
X93890565Y-52424001D01*
X93871868Y-52387307D01*
X93871867Y-52387306D01*
X93845666Y-52335883D01*
X96050000Y-52335883D01*
X96050000Y-52800000D01*
X96850000Y-52800000D01*
X96850000Y-53200000D01*
X96050000Y-53200000D01*
X96050000Y-53664116D01*
X96085704Y-53889544D01*
X96156230Y-54106604D01*
X96259849Y-54309966D01*
X96394004Y-54494614D01*
X96555385Y-54655995D01*
X96740033Y-54790150D01*
X96943395Y-54893769D01*
X97160455Y-54964295D01*
X97300000Y-54986397D01*
X97300000Y-54170712D01*
X97310402Y-54175021D01*
X97435981Y-54200000D01*
X97564019Y-54200000D01*
X97689598Y-54175021D01*
X97700000Y-54170712D01*
X97700000Y-54986396D01*
X97839544Y-54964295D01*
X98056604Y-54893769D01*
X98259966Y-54790150D01*
X98444614Y-54655995D01*
X98605995Y-54494614D01*
X98740150Y-54309966D01*
X98843769Y-54106604D01*
X98914295Y-53889544D01*
X98950000Y-53664116D01*
X98950000Y-53200000D01*
X98150000Y-53200000D01*
X98150000Y-52800000D01*
X98950000Y-52800000D01*
X98950000Y-52335883D01*
X98914295Y-52110455D01*
X98843769Y-51893395D01*
X98740150Y-51690033D01*
X98605995Y-51505385D01*
X98444614Y-51344004D01*
X98259966Y-51209849D01*
X98056604Y-51106230D01*
X97839545Y-51035704D01*
X97700000Y-51013601D01*
X97700000Y-51829287D01*
X97689598Y-51824979D01*
X97564019Y-51800000D01*
X97435981Y-51800000D01*
X97310402Y-51824979D01*
X97300000Y-51829287D01*
X97300000Y-51013601D01*
X97160455Y-51035704D01*
X97160452Y-51035704D01*
X96943395Y-51106230D01*
X96740033Y-51209849D01*
X96555385Y-51344004D01*
X96394004Y-51505385D01*
X96259849Y-51690033D01*
X96156230Y-51893395D01*
X96085704Y-52110455D01*
X96050000Y-52335883D01*
X93845666Y-52335883D01*
X93783343Y-52213567D01*
X93644517Y-52022490D01*
X93477510Y-51855483D01*
X93286433Y-51716657D01*
X93234473Y-51690182D01*
X93075996Y-51609433D01*
X92851368Y-51536446D01*
X92618097Y-51499500D01*
X92618092Y-51499500D01*
X92381908Y-51499500D01*
X92381903Y-51499500D01*
X92148631Y-51536446D01*
X91924003Y-51609433D01*
X91713566Y-51716657D01*
X91667838Y-51749881D01*
X91522490Y-51855483D01*
X91522488Y-51855485D01*
X91522487Y-51855485D01*
X91355485Y-52022487D01*
X91355485Y-52022488D01*
X91355483Y-52022490D01*
X91327838Y-52060540D01*
X91216657Y-52213566D01*
X91109433Y-52424003D01*
X91036446Y-52648631D01*
X90999500Y-52881902D01*
X80025500Y-52881902D01*
X80025500Y-47800000D01*
X90513603Y-47800000D01*
X91329288Y-47800000D01*
X91324979Y-47810402D01*
X91300000Y-47935981D01*
X91300000Y-48064019D01*
X91324979Y-48189598D01*
X91329288Y-48200000D01*
X90513603Y-48200000D01*
X90535704Y-48339544D01*
X90606230Y-48556604D01*
X90709849Y-48759966D01*
X90844004Y-48944614D01*
X91005385Y-49105995D01*
X91190033Y-49240150D01*
X91393395Y-49343769D01*
X91610455Y-49414295D01*
X91835884Y-49450000D01*
X92300000Y-49450000D01*
X92300000Y-48650000D01*
X92700000Y-48650000D01*
X92700000Y-49450000D01*
X93164116Y-49450000D01*
X93389544Y-49414295D01*
X93606604Y-49343769D01*
X93809966Y-49240150D01*
X93994614Y-49105995D01*
X94155995Y-48944614D01*
X94290150Y-48759966D01*
X94393769Y-48556604D01*
X94464295Y-48339544D01*
X94486397Y-48200000D01*
X93670712Y-48200000D01*
X93675021Y-48189598D01*
X93700000Y-48064019D01*
X93700000Y-47935981D01*
X93675021Y-47810402D01*
X93670712Y-47800000D01*
X94486397Y-47800000D01*
X94464295Y-47660455D01*
X94393769Y-47443395D01*
X94290150Y-47240033D01*
X94155995Y-47055385D01*
X93994614Y-46894004D01*
X93809966Y-46759849D01*
X93606604Y-46656230D01*
X93389544Y-46585704D01*
X93164116Y-46550000D01*
X92700000Y-46550000D01*
X92700000Y-47350000D01*
X92300000Y-47350000D01*
X92300000Y-46550000D01*
X91835884Y-46550000D01*
X91610455Y-46585704D01*
X91393395Y-46656230D01*
X91190033Y-46759849D01*
X91005385Y-46894004D01*
X90844004Y-47055385D01*
X90709849Y-47240033D01*
X90606230Y-47443395D01*
X90535704Y-47660455D01*
X90513603Y-47800000D01*
X80025500Y-47800000D01*
X80025500Y-45262249D01*
X80025500Y-45262247D01*
X80003318Y-45179462D01*
X80003318Y-45179461D01*
X79960465Y-45105238D01*
X76756844Y-41901617D01*
X78450000Y-41901617D01*
X78450000Y-42098382D01*
X78480778Y-42292705D01*
X78541581Y-42479835D01*
X78630904Y-42655143D01*
X78686076Y-42731079D01*
X78686077Y-42731080D01*
X79193844Y-42223312D01*
X79259890Y-42337708D01*
X79362292Y-42440110D01*
X79476686Y-42506154D01*
X78968918Y-43013922D01*
X79044856Y-43069095D01*
X79220164Y-43158418D01*
X79407294Y-43219221D01*
X79601618Y-43250000D01*
X79798382Y-43250000D01*
X79992705Y-43219221D01*
X80179835Y-43158418D01*
X80355143Y-43069095D01*
X80431079Y-43013922D01*
X80431080Y-43013921D01*
X79923313Y-42506154D01*
X80037708Y-42440110D01*
X80140110Y-42337708D01*
X80206154Y-42223313D01*
X80713921Y-42731080D01*
X80713922Y-42731079D01*
X80769095Y-42655143D01*
X80858418Y-42479835D01*
X80904378Y-42338387D01*
X80943815Y-42280712D01*
X81008174Y-42253513D01*
X81077020Y-42265428D01*
X81128496Y-42312672D01*
X81140240Y-42338387D01*
X81173787Y-42441636D01*
X81173788Y-42441639D01*
X81256006Y-42602997D01*
X81362441Y-42749494D01*
X81362445Y-42749499D01*
X81490500Y-42877554D01*
X81490505Y-42877558D01*
X81609375Y-42963921D01*
X81637006Y-42983996D01*
X81739220Y-43036077D01*
X81798360Y-43066211D01*
X81798363Y-43066212D01*
X81882235Y-43093463D01*
X81970591Y-43122171D01*
X82053429Y-43135291D01*
X82149449Y-43150500D01*
X82149454Y-43150500D01*
X82330551Y-43150500D01*
X82417405Y-43136743D01*
X82509409Y-43122171D01*
X82681639Y-43066211D01*
X82842994Y-42983996D01*
X82989501Y-42877553D01*
X83117553Y-42749501D01*
X83223996Y-42602994D01*
X83306211Y-42441639D01*
X83362171Y-42269409D01*
X83376765Y-42177259D01*
X83390500Y-42090551D01*
X83390500Y-41909448D01*
X86169500Y-41909448D01*
X86169500Y-42090551D01*
X86197829Y-42269410D01*
X86253787Y-42441636D01*
X86253788Y-42441639D01*
X86336006Y-42602997D01*
X86442441Y-42749494D01*
X86442445Y-42749499D01*
X86570500Y-42877554D01*
X86570505Y-42877558D01*
X86689375Y-42963921D01*
X86717006Y-42983996D01*
X86819220Y-43036077D01*
X86878360Y-43066211D01*
X86878363Y-43066212D01*
X86962235Y-43093463D01*
X87050591Y-43122171D01*
X87133429Y-43135291D01*
X87229449Y-43150500D01*
X87229454Y-43150500D01*
X87410551Y-43150500D01*
X87497405Y-43136743D01*
X87589409Y-43122171D01*
X87761639Y-43066211D01*
X87922994Y-42983996D01*
X88069501Y-42877553D01*
X88197553Y-42749501D01*
X88303996Y-42602994D01*
X88386211Y-42441639D01*
X88419759Y-42338388D01*
X88459196Y-42280712D01*
X88523554Y-42253513D01*
X88592401Y-42265427D01*
X88643877Y-42312671D01*
X88655621Y-42338386D01*
X88701582Y-42479837D01*
X88790904Y-42655143D01*
X88846076Y-42731079D01*
X88846077Y-42731080D01*
X89353844Y-42223312D01*
X89419890Y-42337708D01*
X89522292Y-42440110D01*
X89636686Y-42506154D01*
X89128918Y-43013922D01*
X89204856Y-43069095D01*
X89380164Y-43158418D01*
X89567294Y-43219221D01*
X89761618Y-43250000D01*
X89958382Y-43250000D01*
X90152705Y-43219221D01*
X90339835Y-43158418D01*
X90515143Y-43069095D01*
X90591079Y-43013922D01*
X90591080Y-43013921D01*
X90083313Y-42506154D01*
X90197708Y-42440110D01*
X90300110Y-42337708D01*
X90366154Y-42223313D01*
X90873921Y-42731080D01*
X90873922Y-42731079D01*
X90929095Y-42655143D01*
X91018418Y-42479835D01*
X91064378Y-42338387D01*
X91103815Y-42280712D01*
X91168174Y-42253513D01*
X91237020Y-42265428D01*
X91288496Y-42312672D01*
X91300240Y-42338387D01*
X91333787Y-42441636D01*
X91333788Y-42441639D01*
X91416006Y-42602997D01*
X91522441Y-42749494D01*
X91522445Y-42749499D01*
X91650500Y-42877554D01*
X91650505Y-42877558D01*
X91769375Y-42963921D01*
X91797006Y-42983996D01*
X91899220Y-43036077D01*
X91958360Y-43066211D01*
X91958363Y-43066212D01*
X92042235Y-43093463D01*
X92130591Y-43122171D01*
X92213429Y-43135291D01*
X92309449Y-43150500D01*
X92309454Y-43150500D01*
X92490551Y-43150500D01*
X92577405Y-43136743D01*
X92669409Y-43122171D01*
X92841639Y-43066211D01*
X93002994Y-42983996D01*
X93149501Y-42877553D01*
X93277553Y-42749501D01*
X93383996Y-42602994D01*
X93466211Y-42441639D01*
X93522171Y-42269409D01*
X93536765Y-42177259D01*
X93550500Y-42090551D01*
X93550500Y-41909448D01*
X93531217Y-41787708D01*
X93522171Y-41730591D01*
X93466211Y-41558361D01*
X93466211Y-41558360D01*
X93430096Y-41487482D01*
X93383996Y-41397006D01*
X93290936Y-41268919D01*
X93277558Y-41250505D01*
X93277554Y-41250500D01*
X93149499Y-41122445D01*
X93149494Y-41122441D01*
X93002997Y-41016006D01*
X93002996Y-41016005D01*
X93002994Y-41016004D01*
X92944257Y-40986076D01*
X92841639Y-40933788D01*
X92841636Y-40933787D01*
X92669410Y-40877829D01*
X92490551Y-40849500D01*
X92490546Y-40849500D01*
X92309454Y-40849500D01*
X92309449Y-40849500D01*
X92130589Y-40877829D01*
X91958363Y-40933787D01*
X91958360Y-40933788D01*
X91797002Y-41016006D01*
X91650505Y-41122441D01*
X91650500Y-41122445D01*
X91522445Y-41250500D01*
X91522441Y-41250505D01*
X91416006Y-41397002D01*
X91333788Y-41558360D01*
X91333787Y-41558363D01*
X91300240Y-41661612D01*
X91260802Y-41719288D01*
X91196444Y-41746486D01*
X91127597Y-41734571D01*
X91076122Y-41687327D01*
X91064378Y-41661612D01*
X91018418Y-41520164D01*
X90929095Y-41344856D01*
X90873922Y-41268919D01*
X90873922Y-41268918D01*
X90366154Y-41776686D01*
X90300110Y-41662292D01*
X90197708Y-41559890D01*
X90083312Y-41493844D01*
X90591080Y-40986077D01*
X90591079Y-40986076D01*
X90515143Y-40930904D01*
X90339835Y-40841581D01*
X90152705Y-40780778D01*
X89958382Y-40750000D01*
X89761618Y-40750000D01*
X89567294Y-40780778D01*
X89380164Y-40841581D01*
X89204855Y-40930905D01*
X89204846Y-40930911D01*
X89128919Y-40986075D01*
X89128918Y-40986076D01*
X89636687Y-41493844D01*
X89522292Y-41559890D01*
X89419890Y-41662292D01*
X89353844Y-41776686D01*
X88846076Y-41268918D01*
X88846075Y-41268919D01*
X88790911Y-41344846D01*
X88790905Y-41344855D01*
X88701581Y-41520162D01*
X88655621Y-41661613D01*
X88616183Y-41719288D01*
X88551824Y-41746486D01*
X88482978Y-41734571D01*
X88431502Y-41687327D01*
X88419759Y-41661611D01*
X88386213Y-41558366D01*
X88386211Y-41558360D01*
X88350096Y-41487482D01*
X88303996Y-41397006D01*
X88210936Y-41268919D01*
X88197558Y-41250505D01*
X88197554Y-41250500D01*
X88069499Y-41122445D01*
X88069494Y-41122441D01*
X87922997Y-41016006D01*
X87922996Y-41016005D01*
X87922994Y-41016004D01*
X87864257Y-40986076D01*
X87761639Y-40933788D01*
X87761636Y-40933787D01*
X87589410Y-40877829D01*
X87410551Y-40849500D01*
X87410546Y-40849500D01*
X87229454Y-40849500D01*
X87229449Y-40849500D01*
X87050589Y-40877829D01*
X86878363Y-40933787D01*
X86878360Y-40933788D01*
X86717002Y-41016006D01*
X86570505Y-41122441D01*
X86570500Y-41122445D01*
X86442445Y-41250500D01*
X86442441Y-41250505D01*
X86336006Y-41397002D01*
X86253788Y-41558360D01*
X86253787Y-41558363D01*
X86197829Y-41730589D01*
X86169500Y-41909448D01*
X83390500Y-41909448D01*
X83371217Y-41787708D01*
X83362171Y-41730591D01*
X83306211Y-41558361D01*
X83306211Y-41558360D01*
X83270096Y-41487482D01*
X83223996Y-41397006D01*
X83130936Y-41268919D01*
X83117558Y-41250505D01*
X83117554Y-41250500D01*
X82989499Y-41122445D01*
X82989494Y-41122441D01*
X82842997Y-41016006D01*
X82842996Y-41016005D01*
X82842994Y-41016004D01*
X82784257Y-40986076D01*
X82681639Y-40933788D01*
X82681636Y-40933787D01*
X82509410Y-40877829D01*
X82330551Y-40849500D01*
X82330546Y-40849500D01*
X82149454Y-40849500D01*
X82149449Y-40849500D01*
X81970589Y-40877829D01*
X81798363Y-40933787D01*
X81798360Y-40933788D01*
X81637002Y-41016006D01*
X81490505Y-41122441D01*
X81490500Y-41122445D01*
X81362445Y-41250500D01*
X81362441Y-41250505D01*
X81256006Y-41397002D01*
X81173788Y-41558360D01*
X81173787Y-41558363D01*
X81140240Y-41661612D01*
X81100802Y-41719288D01*
X81036444Y-41746486D01*
X80967597Y-41734571D01*
X80916122Y-41687327D01*
X80904378Y-41661612D01*
X80858418Y-41520164D01*
X80769095Y-41344856D01*
X80713922Y-41268919D01*
X80713922Y-41268918D01*
X80206154Y-41776686D01*
X80140110Y-41662292D01*
X80037708Y-41559890D01*
X79923312Y-41493844D01*
X80431080Y-40986077D01*
X80431079Y-40986076D01*
X80355143Y-40930904D01*
X80179835Y-40841581D01*
X79992705Y-40780778D01*
X79798382Y-40750000D01*
X79601618Y-40750000D01*
X79407294Y-40780778D01*
X79220164Y-40841581D01*
X79044855Y-40930905D01*
X79044846Y-40930911D01*
X78968919Y-40986075D01*
X78968918Y-40986076D01*
X79476687Y-41493844D01*
X79362292Y-41559890D01*
X79259890Y-41662292D01*
X79193844Y-41776686D01*
X78686076Y-41268918D01*
X78686075Y-41268919D01*
X78630911Y-41344846D01*
X78630905Y-41344855D01*
X78541581Y-41520164D01*
X78480778Y-41707294D01*
X78450000Y-41901617D01*
X76756844Y-41901617D01*
X63437962Y-28582735D01*
X63400850Y-28561308D01*
X63363740Y-28539882D01*
X63322346Y-28528791D01*
X63280953Y-28517700D01*
X50524847Y-28517700D01*
X50442062Y-28539882D01*
X50442055Y-28539885D01*
X50367844Y-28582730D01*
X50367836Y-28582736D01*
X45739537Y-33211035D01*
X45739533Y-33211041D01*
X45696681Y-33285261D01*
X45696682Y-33285262D01*
X45674500Y-33368047D01*
X45674500Y-34969038D01*
X45670931Y-34981190D01*
X45672000Y-34993812D01*
X45661274Y-35014080D01*
X45654815Y-35036077D01*
X45644467Y-35045837D01*
X45639319Y-35055567D01*
X45620978Y-35067995D01*
X45611343Y-35077085D01*
X45604839Y-35080747D01*
X45526086Y-35113368D01*
X45414473Y-35187945D01*
X45410343Y-35190271D01*
X45380724Y-35197120D01*
X45351713Y-35206204D01*
X45347016Y-35204915D01*
X45342270Y-35206013D01*
X45313647Y-35195761D01*
X45284333Y-35187719D01*
X45281078Y-35184095D01*
X45276492Y-35182453D01*
X45257955Y-35158353D01*
X45237643Y-35135740D01*
X45236421Y-35130357D01*
X45233894Y-35127071D01*
X45232833Y-35114543D01*
X45225500Y-35082224D01*
X45225500Y-31286188D01*
X45245185Y-31219149D01*
X45261815Y-31198511D01*
X45501165Y-30959160D01*
X45562486Y-30925677D01*
X45632177Y-30930661D01*
X45636270Y-30932271D01*
X45708165Y-30962051D01*
X45708169Y-30962051D01*
X45708170Y-30962052D01*
X45901456Y-31000500D01*
X45901459Y-31000500D01*
X46098543Y-31000500D01*
X46229949Y-30974361D01*
X46291835Y-30962051D01*
X46473914Y-30886632D01*
X46637782Y-30777139D01*
X46777139Y-30637782D01*
X46886632Y-30473914D01*
X46962051Y-30291835D01*
X46997551Y-30113368D01*
X47000500Y-30098543D01*
X47000500Y-29901456D01*
X46962052Y-29708170D01*
X46962051Y-29708169D01*
X46962051Y-29708165D01*
X46962049Y-29708160D01*
X46886635Y-29526092D01*
X46886628Y-29526079D01*
X46777139Y-29362218D01*
X46777136Y-29362214D01*
X46637785Y-29222863D01*
X46637781Y-29222860D01*
X46473920Y-29113371D01*
X46473907Y-29113364D01*
X46291839Y-29037950D01*
X46291829Y-29037947D01*
X46098543Y-28999500D01*
X46098541Y-28999500D01*
X45901459Y-28999500D01*
X45901457Y-28999500D01*
X45708170Y-29037947D01*
X45708160Y-29037950D01*
X45526092Y-29113364D01*
X45526079Y-29113371D01*
X45362218Y-29222860D01*
X45362214Y-29222863D01*
X45222863Y-29362214D01*
X45222860Y-29362218D01*
X45113371Y-29526079D01*
X45113364Y-29526092D01*
X45037950Y-29708160D01*
X45037947Y-29708170D01*
X44999500Y-29901456D01*
X44999500Y-29901459D01*
X44999500Y-30098541D01*
X44999500Y-30098543D01*
X44999499Y-30098543D01*
X45037947Y-30291828D01*
X45037948Y-30291831D01*
X45037949Y-30291835D01*
X45037951Y-30291839D01*
X45067717Y-30363703D01*
X45075184Y-30433173D01*
X45043909Y-30495651D01*
X45040836Y-30498835D01*
X44639537Y-30900135D01*
X44639533Y-30900141D01*
X44596681Y-30974361D01*
X44596682Y-30974362D01*
X44574500Y-31057147D01*
X44574500Y-45359000D01*
X44554815Y-45426039D01*
X44502011Y-45471794D01*
X44450500Y-45483000D01*
X42428647Y-45483000D01*
X42345859Y-45505182D01*
X42271638Y-45548035D01*
X42271635Y-45548037D01*
X41378835Y-46440836D01*
X41317512Y-46474321D01*
X41247820Y-46469337D01*
X41243703Y-46467717D01*
X41228809Y-46461548D01*
X41171835Y-46437949D01*
X41171831Y-46437948D01*
X41171828Y-46437947D01*
X40978543Y-46399500D01*
X40978541Y-46399500D01*
X40781459Y-46399500D01*
X40781457Y-46399500D01*
X40588170Y-46437947D01*
X40588160Y-46437950D01*
X40406092Y-46513364D01*
X40406079Y-46513371D01*
X40242218Y-46622860D01*
X40242214Y-46622863D01*
X40102863Y-46762214D01*
X40102860Y-46762218D01*
X39993371Y-46926079D01*
X39993364Y-46926092D01*
X39917950Y-47108160D01*
X39917947Y-47108170D01*
X39879500Y-47301456D01*
X39879500Y-47301459D01*
X39879500Y-47498541D01*
X39879500Y-47498543D01*
X39879499Y-47498543D01*
X39917947Y-47691829D01*
X39917950Y-47691839D01*
X39993364Y-47873907D01*
X39993371Y-47873920D01*
X40102860Y-48037781D01*
X40102863Y-48037785D01*
X40242214Y-48177136D01*
X40242218Y-48177139D01*
X40406079Y-48286628D01*
X40406092Y-48286635D01*
X40588160Y-48362049D01*
X40588165Y-48362051D01*
X40588169Y-48362051D01*
X40588170Y-48362052D01*
X40781456Y-48400500D01*
X40781459Y-48400500D01*
X40978543Y-48400500D01*
X41108582Y-48374632D01*
X41171835Y-48362051D01*
X41341353Y-48291835D01*
X41353907Y-48286635D01*
X41353907Y-48286634D01*
X41353914Y-48286632D01*
X41517782Y-48177139D01*
X41657139Y-48037782D01*
X41766632Y-47873914D01*
X41842051Y-47691835D01*
X41865040Y-47576262D01*
X41880500Y-47498543D01*
X41880500Y-47301456D01*
X41842052Y-47108170D01*
X41842051Y-47108169D01*
X41842051Y-47108165D01*
X41812281Y-47036295D01*
X41804813Y-46966828D01*
X41836088Y-46904348D01*
X41839132Y-46901193D01*
X42570008Y-46170319D01*
X42631331Y-46136834D01*
X42657689Y-46134000D01*
X44857147Y-46134000D01*
X44942853Y-46134000D01*
X45190411Y-46134000D01*
X45257450Y-46153685D01*
X45278092Y-46170319D01*
X45909086Y-46801313D01*
X45942571Y-46862636D01*
X45937587Y-46932328D01*
X45895715Y-46988261D01*
X45845597Y-47010611D01*
X45708170Y-47037947D01*
X45708160Y-47037950D01*
X45526092Y-47113364D01*
X45526079Y-47113371D01*
X45362218Y-47222860D01*
X45362214Y-47222863D01*
X45222863Y-47362214D01*
X45222860Y-47362218D01*
X45113371Y-47526079D01*
X45113364Y-47526092D01*
X45037950Y-47708160D01*
X45037947Y-47708170D01*
X44999500Y-47901456D01*
X44999500Y-47901459D01*
X44999500Y-48098541D01*
X44999500Y-48098543D01*
X44999499Y-48098543D01*
X45037947Y-48291828D01*
X45037948Y-48291831D01*
X45037949Y-48291835D01*
X45055500Y-48334207D01*
X45067717Y-48363703D01*
X45075184Y-48433173D01*
X45043909Y-48495651D01*
X45040836Y-48498835D01*
X42688792Y-50850881D01*
X42627469Y-50884366D01*
X42601111Y-50887200D01*
X41647084Y-50887200D01*
X41580045Y-50867515D01*
X41534290Y-50814711D01*
X41524346Y-50745553D01*
X41553371Y-50681997D01*
X41559403Y-50675519D01*
X41657136Y-50577785D01*
X41657139Y-50577782D01*
X41766632Y-50413914D01*
X41842051Y-50231835D01*
X41861155Y-50135792D01*
X41880500Y-50038543D01*
X41880500Y-49841456D01*
X41842052Y-49648170D01*
X41842051Y-49648169D01*
X41842051Y-49648165D01*
X41837135Y-49636297D01*
X41766635Y-49466092D01*
X41766628Y-49466079D01*
X41657139Y-49302218D01*
X41657136Y-49302214D01*
X41517785Y-49162863D01*
X41517781Y-49162860D01*
X41353920Y-49053371D01*
X41353907Y-49053364D01*
X41171839Y-48977950D01*
X41171829Y-48977947D01*
X40978543Y-48939500D01*
X40978541Y-48939500D01*
X40781459Y-48939500D01*
X40781457Y-48939500D01*
X40588170Y-48977947D01*
X40588160Y-48977950D01*
X40406092Y-49053364D01*
X40406079Y-49053371D01*
X40242218Y-49162860D01*
X40242214Y-49162863D01*
X40102863Y-49302214D01*
X40102860Y-49302218D01*
X39993371Y-49466079D01*
X39993364Y-49466092D01*
X39917950Y-49648160D01*
X39917947Y-49648170D01*
X39879500Y-49841456D01*
X39879500Y-49841459D01*
X39879500Y-50038541D01*
X39879500Y-50038543D01*
X39879499Y-50038543D01*
X39917947Y-50231829D01*
X39917950Y-50231839D01*
X39993364Y-50413907D01*
X39993371Y-50413920D01*
X40102860Y-50577781D01*
X40102863Y-50577785D01*
X40200597Y-50675519D01*
X40234082Y-50736842D01*
X40229098Y-50806534D01*
X40187226Y-50862467D01*
X40121762Y-50886884D01*
X40112916Y-50887200D01*
X36303047Y-50887200D01*
X36220259Y-50909382D01*
X36146038Y-50952235D01*
X36146035Y-50952237D01*
X24312181Y-62786092D01*
X24250858Y-62819577D01*
X24181166Y-62814593D01*
X24125233Y-62772721D01*
X24100816Y-62707257D01*
X24100500Y-62698411D01*
X24100500Y-62541456D01*
X24062052Y-62348170D01*
X24062051Y-62348169D01*
X24062051Y-62348165D01*
X24022034Y-62251555D01*
X23986635Y-62166092D01*
X23986628Y-62166079D01*
X23877139Y-62002218D01*
X23877136Y-62002214D01*
X23737785Y-61862863D01*
X23737781Y-61862860D01*
X23573920Y-61753371D01*
X23573907Y-61753364D01*
X23391839Y-61677950D01*
X23391829Y-61677947D01*
X23198543Y-61639500D01*
X23198541Y-61639500D01*
X23001459Y-61639500D01*
X23001457Y-61639500D01*
X22808170Y-61677947D01*
X22808160Y-61677950D01*
X22626092Y-61753364D01*
X22626079Y-61753371D01*
X22462218Y-61862860D01*
X22462214Y-61862863D01*
X22322863Y-62002214D01*
X22322860Y-62002218D01*
X22213371Y-62166079D01*
X22213364Y-62166092D01*
X22137950Y-62348160D01*
X22137947Y-62348170D01*
X22099500Y-62541456D01*
X22099500Y-62541459D01*
X22099500Y-62738541D01*
X22099500Y-62738543D01*
X22099499Y-62738543D01*
X22137947Y-62931829D01*
X22137950Y-62931839D01*
X22213364Y-63113907D01*
X22213371Y-63113920D01*
X22322860Y-63277781D01*
X22322863Y-63277785D01*
X22462214Y-63417136D01*
X22462218Y-63417139D01*
X22626079Y-63526628D01*
X22626092Y-63526635D01*
X22808160Y-63602049D01*
X22808165Y-63602051D01*
X22808169Y-63602051D01*
X22808170Y-63602052D01*
X23001456Y-63640500D01*
X23001459Y-63640500D01*
X23198543Y-63640500D01*
X23328582Y-63614632D01*
X23391835Y-63602051D01*
X23532655Y-63543721D01*
X23573907Y-63526635D01*
X23573907Y-63526634D01*
X23573914Y-63526632D01*
X23737782Y-63417139D01*
X23799083Y-63355838D01*
X23877919Y-63277003D01*
X23939242Y-63243518D01*
X24008934Y-63248502D01*
X24064867Y-63290374D01*
X24089284Y-63355838D01*
X24089600Y-63364684D01*
X24089600Y-64120680D01*
X24069915Y-64187719D01*
X24017111Y-64233474D01*
X23947953Y-64243418D01*
X23896711Y-64223783D01*
X23891932Y-64220590D01*
X23891927Y-64220587D01*
X23818433Y-64190145D01*
X23818417Y-64190140D01*
X23739785Y-64174500D01*
X23739782Y-64174500D01*
X23021207Y-64174500D01*
X22992571Y-64177320D01*
X22981115Y-64178449D01*
X22826557Y-64209192D01*
X22788002Y-64220887D01*
X22642422Y-64281189D01*
X22642415Y-64281192D01*
X22614182Y-64296282D01*
X22606888Y-64300182D01*
X22606885Y-64300183D01*
X22606871Y-64300192D01*
X22475868Y-64387725D01*
X22475863Y-64387729D01*
X22444720Y-64413288D01*
X22333288Y-64524720D01*
X22307729Y-64555863D01*
X22307725Y-64555868D01*
X22220192Y-64686871D01*
X22220180Y-64686892D01*
X22201192Y-64722415D01*
X22201189Y-64722422D01*
X22140887Y-64868002D01*
X22129192Y-64906557D01*
X22106133Y-65022488D01*
X22098449Y-65061117D01*
X22095175Y-65094362D01*
X22094500Y-65101211D01*
X20500500Y-65101211D01*
X20500500Y-60198543D01*
X22099499Y-60198543D01*
X22137947Y-60391829D01*
X22137950Y-60391839D01*
X22213364Y-60573907D01*
X22213371Y-60573920D01*
X22322860Y-60737781D01*
X22322863Y-60737785D01*
X22462214Y-60877136D01*
X22462218Y-60877139D01*
X22626079Y-60986628D01*
X22626092Y-60986635D01*
X22801190Y-61059162D01*
X22808165Y-61062051D01*
X22808169Y-61062051D01*
X22808170Y-61062052D01*
X23001456Y-61100500D01*
X23001459Y-61100500D01*
X23198543Y-61100500D01*
X23328582Y-61074632D01*
X23391835Y-61062051D01*
X23540433Y-61000500D01*
X23573907Y-60986635D01*
X23573907Y-60986634D01*
X23573914Y-60986632D01*
X23737782Y-60877139D01*
X23877139Y-60737782D01*
X23986632Y-60573914D01*
X24062051Y-60391835D01*
X24081942Y-60291839D01*
X24100500Y-60198543D01*
X24100500Y-60001456D01*
X24062052Y-59808170D01*
X24062051Y-59808169D01*
X24062051Y-59808165D01*
X24062049Y-59808160D01*
X23986635Y-59626092D01*
X23986628Y-59626079D01*
X23877139Y-59462218D01*
X23877136Y-59462214D01*
X23737785Y-59322863D01*
X23737781Y-59322860D01*
X23573920Y-59213371D01*
X23573907Y-59213364D01*
X23391839Y-59137950D01*
X23391829Y-59137947D01*
X23198543Y-59099500D01*
X23198541Y-59099500D01*
X23001459Y-59099500D01*
X23001457Y-59099500D01*
X22808170Y-59137947D01*
X22808160Y-59137950D01*
X22626092Y-59213364D01*
X22626079Y-59213371D01*
X22462218Y-59322860D01*
X22462214Y-59322863D01*
X22322863Y-59462214D01*
X22322860Y-59462218D01*
X22213371Y-59626079D01*
X22213364Y-59626092D01*
X22137950Y-59808160D01*
X22137947Y-59808170D01*
X22099500Y-60001456D01*
X22099500Y-60001459D01*
X22099500Y-60198541D01*
X22099500Y-60198543D01*
X22099499Y-60198543D01*
X20500500Y-60198543D01*
X20500500Y-57473428D01*
X22000000Y-57473428D01*
X22000000Y-57646571D01*
X22027085Y-57817584D01*
X22080591Y-57982257D01*
X22159195Y-58136523D01*
X22159196Y-58136525D01*
X22193463Y-58183691D01*
X22193464Y-58183691D01*
X22631980Y-57745176D01*
X22634075Y-57752993D01*
X22699901Y-57867007D01*
X22792993Y-57960099D01*
X22907007Y-58025925D01*
X22914822Y-58028019D01*
X22476307Y-58466534D01*
X22523478Y-58500805D01*
X22677742Y-58579408D01*
X22842415Y-58632914D01*
X23013429Y-58660000D01*
X23186571Y-58660000D01*
X23357584Y-58632914D01*
X23522257Y-58579408D01*
X23676525Y-58500803D01*
X23723691Y-58466534D01*
X23723692Y-58466533D01*
X23285178Y-58028019D01*
X23292993Y-58025925D01*
X23407007Y-57960099D01*
X23500099Y-57867007D01*
X23565925Y-57752993D01*
X23568019Y-57745177D01*
X24006533Y-58183692D01*
X24006534Y-58183691D01*
X24040803Y-58136525D01*
X24119408Y-57982257D01*
X24172914Y-57817584D01*
X24200000Y-57646571D01*
X24200000Y-57473428D01*
X24172914Y-57302415D01*
X24119408Y-57137742D01*
X24040805Y-56983478D01*
X24006534Y-56936307D01*
X23568019Y-57374822D01*
X23565925Y-57367007D01*
X23500099Y-57252993D01*
X23407007Y-57159901D01*
X23292993Y-57094075D01*
X23285176Y-57091980D01*
X23723691Y-56653464D01*
X23723691Y-56653463D01*
X23676525Y-56619196D01*
X23676523Y-56619195D01*
X23522257Y-56540591D01*
X23357584Y-56487085D01*
X23186571Y-56460000D01*
X23013429Y-56460000D01*
X22842415Y-56487085D01*
X22677740Y-56540592D01*
X22523475Y-56619196D01*
X22476307Y-56653463D01*
X22476307Y-56653464D01*
X22914823Y-57091980D01*
X22907007Y-57094075D01*
X22792993Y-57159901D01*
X22699901Y-57252993D01*
X22634075Y-57367007D01*
X22631980Y-57374823D01*
X22193464Y-56936307D01*
X22193463Y-56936307D01*
X22159196Y-56983475D01*
X22080592Y-57137740D01*
X22027085Y-57302415D01*
X22000000Y-57473428D01*
X20500500Y-57473428D01*
X20500500Y-55118543D01*
X22099499Y-55118543D01*
X22137947Y-55311829D01*
X22137950Y-55311839D01*
X22213364Y-55493907D01*
X22213371Y-55493920D01*
X22322860Y-55657781D01*
X22322863Y-55657785D01*
X22462214Y-55797136D01*
X22462218Y-55797139D01*
X22626079Y-55906628D01*
X22626092Y-55906635D01*
X22808160Y-55982049D01*
X22808165Y-55982051D01*
X22808169Y-55982051D01*
X22808170Y-55982052D01*
X23001456Y-56020500D01*
X23001459Y-56020500D01*
X23198543Y-56020500D01*
X23328582Y-55994632D01*
X23391835Y-55982051D01*
X23573914Y-55906632D01*
X23737782Y-55797139D01*
X23877139Y-55657782D01*
X23986632Y-55493914D01*
X24062051Y-55311835D01*
X24079749Y-55222861D01*
X24100500Y-55118543D01*
X24100500Y-54921456D01*
X24062052Y-54728170D01*
X24062051Y-54728169D01*
X24062051Y-54728165D01*
X24062049Y-54728160D01*
X23986635Y-54546092D01*
X23986628Y-54546079D01*
X23877139Y-54382218D01*
X23877136Y-54382214D01*
X23737785Y-54242863D01*
X23737781Y-54242860D01*
X23573920Y-54133371D01*
X23573907Y-54133364D01*
X23391839Y-54057950D01*
X23391829Y-54057947D01*
X23198543Y-54019500D01*
X23198541Y-54019500D01*
X23001459Y-54019500D01*
X23001457Y-54019500D01*
X22808170Y-54057947D01*
X22808160Y-54057950D01*
X22626092Y-54133364D01*
X22626079Y-54133371D01*
X22462218Y-54242860D01*
X22462214Y-54242863D01*
X22322863Y-54382214D01*
X22322860Y-54382218D01*
X22213371Y-54546079D01*
X22213364Y-54546092D01*
X22137950Y-54728160D01*
X22137947Y-54728170D01*
X22099500Y-54921456D01*
X22099500Y-54921459D01*
X22099500Y-55118541D01*
X22099500Y-55118543D01*
X22099499Y-55118543D01*
X20500500Y-55118543D01*
X20500500Y-52401211D01*
X22094500Y-52401211D01*
X22094500Y-52558788D01*
X22098449Y-52598884D01*
X22129192Y-52753442D01*
X22140887Y-52791997D01*
X22178130Y-52881908D01*
X22201192Y-52937584D01*
X22220182Y-52973112D01*
X22220187Y-52973120D01*
X22220192Y-52973128D01*
X22307725Y-53104131D01*
X22307729Y-53104136D01*
X22307732Y-53104140D01*
X22333289Y-53135280D01*
X22444720Y-53246711D01*
X22475860Y-53272268D01*
X22475863Y-53272270D01*
X22475868Y-53272274D01*
X22606871Y-53359807D01*
X22606874Y-53359809D01*
X22606888Y-53359818D01*
X22642416Y-53378808D01*
X22788007Y-53439114D01*
X22826559Y-53450808D01*
X22981117Y-53481551D01*
X23021207Y-53485500D01*
X23021212Y-53485500D01*
X23739783Y-53485500D01*
X23739783Y-53485499D01*
X23818423Y-53469858D01*
X23864415Y-53450808D01*
X23891925Y-53439413D01*
X23891925Y-53439412D01*
X23891932Y-53439410D01*
X23958601Y-53394862D01*
X24014862Y-53338601D01*
X24059410Y-53271932D01*
X24089858Y-53198423D01*
X24105500Y-53119782D01*
X24105500Y-51840218D01*
X24089858Y-51761577D01*
X24089855Y-51761571D01*
X24089854Y-51761566D01*
X24059413Y-51688074D01*
X24059411Y-51688071D01*
X24059410Y-51688068D01*
X24014862Y-51621399D01*
X23958601Y-51565138D01*
X23891932Y-51520590D01*
X23891929Y-51520588D01*
X23891925Y-51520586D01*
X23818433Y-51490145D01*
X23818417Y-51490140D01*
X23739785Y-51474500D01*
X23739782Y-51474500D01*
X23021207Y-51474500D01*
X22992571Y-51477320D01*
X22981115Y-51478449D01*
X22826557Y-51509192D01*
X22788002Y-51520887D01*
X22642422Y-51581189D01*
X22642415Y-51581192D01*
X22630257Y-51587691D01*
X22606888Y-51600182D01*
X22606885Y-51600183D01*
X22606871Y-51600192D01*
X22475868Y-51687725D01*
X22475863Y-51687729D01*
X22444720Y-51713288D01*
X22333288Y-51824720D01*
X22307729Y-51855863D01*
X22307725Y-51855868D01*
X22220192Y-51986871D01*
X22220180Y-51986892D01*
X22201192Y-52022415D01*
X22201189Y-52022422D01*
X22140887Y-52168002D01*
X22129192Y-52206557D01*
X22098449Y-52361115D01*
X22094500Y-52401211D01*
X20500500Y-52401211D01*
X20500500Y-50038543D01*
X22099499Y-50038543D01*
X22137947Y-50231829D01*
X22137950Y-50231839D01*
X22213364Y-50413907D01*
X22213371Y-50413920D01*
X22322860Y-50577781D01*
X22322863Y-50577785D01*
X22462214Y-50717136D01*
X22462218Y-50717139D01*
X22626079Y-50826628D01*
X22626092Y-50826635D01*
X22765469Y-50884366D01*
X22808165Y-50902051D01*
X22808169Y-50902051D01*
X22808170Y-50902052D01*
X23001456Y-50940500D01*
X23001459Y-50940500D01*
X23198543Y-50940500D01*
X23354980Y-50909382D01*
X23391835Y-50902051D01*
X23573914Y-50826632D01*
X23737782Y-50717139D01*
X23877139Y-50577782D01*
X23986632Y-50413914D01*
X24062051Y-50231835D01*
X24081155Y-50135792D01*
X24100500Y-50038543D01*
X24100500Y-49841456D01*
X24062052Y-49648170D01*
X24062051Y-49648169D01*
X24062051Y-49648165D01*
X24057135Y-49636297D01*
X23986635Y-49466092D01*
X23986628Y-49466079D01*
X23877139Y-49302218D01*
X23877136Y-49302214D01*
X23737785Y-49162863D01*
X23737781Y-49162860D01*
X23573920Y-49053371D01*
X23573907Y-49053364D01*
X23391839Y-48977950D01*
X23391829Y-48977947D01*
X23198543Y-48939500D01*
X23198541Y-48939500D01*
X23001459Y-48939500D01*
X23001457Y-48939500D01*
X22808170Y-48977947D01*
X22808160Y-48977950D01*
X22626092Y-49053364D01*
X22626079Y-49053371D01*
X22462218Y-49162860D01*
X22462214Y-49162863D01*
X22322863Y-49302214D01*
X22322860Y-49302218D01*
X22213371Y-49466079D01*
X22213364Y-49466092D01*
X22137950Y-49648160D01*
X22137947Y-49648170D01*
X22099500Y-49841456D01*
X22099500Y-49841459D01*
X22099500Y-50038541D01*
X22099500Y-50038543D01*
X22099499Y-50038543D01*
X20500500Y-50038543D01*
X20500500Y-47498543D01*
X22099499Y-47498543D01*
X22137947Y-47691829D01*
X22137950Y-47691839D01*
X22213364Y-47873907D01*
X22213371Y-47873920D01*
X22322860Y-48037781D01*
X22322863Y-48037785D01*
X22462214Y-48177136D01*
X22462218Y-48177139D01*
X22626079Y-48286628D01*
X22626092Y-48286635D01*
X22808160Y-48362049D01*
X22808165Y-48362051D01*
X22808169Y-48362051D01*
X22808170Y-48362052D01*
X23001456Y-48400500D01*
X23001459Y-48400500D01*
X23198543Y-48400500D01*
X23328582Y-48374632D01*
X23391835Y-48362051D01*
X23561353Y-48291835D01*
X23573907Y-48286635D01*
X23573907Y-48286634D01*
X23573914Y-48286632D01*
X23737782Y-48177139D01*
X23877139Y-48037782D01*
X23986632Y-47873914D01*
X24062051Y-47691835D01*
X24085040Y-47576262D01*
X24100500Y-47498543D01*
X24100500Y-47301456D01*
X24062052Y-47108170D01*
X24062051Y-47108169D01*
X24062051Y-47108165D01*
X24032283Y-47036297D01*
X23986635Y-46926092D01*
X23986628Y-46926079D01*
X23877139Y-46762218D01*
X23877136Y-46762214D01*
X23737785Y-46622863D01*
X23737781Y-46622860D01*
X23573920Y-46513371D01*
X23573907Y-46513364D01*
X23391839Y-46437950D01*
X23391829Y-46437947D01*
X23198543Y-46399500D01*
X23198541Y-46399500D01*
X23001459Y-46399500D01*
X23001457Y-46399500D01*
X22808170Y-46437947D01*
X22808160Y-46437950D01*
X22626092Y-46513364D01*
X22626079Y-46513371D01*
X22462218Y-46622860D01*
X22462214Y-46622863D01*
X22322863Y-46762214D01*
X22322860Y-46762218D01*
X22213371Y-46926079D01*
X22213364Y-46926092D01*
X22137950Y-47108160D01*
X22137947Y-47108170D01*
X22099500Y-47301456D01*
X22099500Y-47301459D01*
X22099500Y-47498541D01*
X22099500Y-47498543D01*
X22099499Y-47498543D01*
X20500500Y-47498543D01*
X20500500Y-44958543D01*
X22099499Y-44958543D01*
X22137947Y-45151829D01*
X22137950Y-45151839D01*
X22213364Y-45333907D01*
X22213371Y-45333920D01*
X22322860Y-45497781D01*
X22322863Y-45497785D01*
X22462214Y-45637136D01*
X22462218Y-45637139D01*
X22626079Y-45746628D01*
X22626092Y-45746635D01*
X22808160Y-45822049D01*
X22808165Y-45822051D01*
X22808169Y-45822051D01*
X22808170Y-45822052D01*
X23001456Y-45860500D01*
X23001459Y-45860500D01*
X23198543Y-45860500D01*
X23328582Y-45834632D01*
X23391835Y-45822051D01*
X23573914Y-45746632D01*
X23737782Y-45637139D01*
X23877139Y-45497782D01*
X23986632Y-45333914D01*
X24062051Y-45151835D01*
X24092154Y-45000500D01*
X24100500Y-44958543D01*
X39879499Y-44958543D01*
X39917947Y-45151829D01*
X39917950Y-45151839D01*
X39993364Y-45333907D01*
X39993371Y-45333920D01*
X40102860Y-45497781D01*
X40102863Y-45497785D01*
X40242214Y-45637136D01*
X40242218Y-45637139D01*
X40406079Y-45746628D01*
X40406092Y-45746635D01*
X40588160Y-45822049D01*
X40588165Y-45822051D01*
X40588169Y-45822051D01*
X40588170Y-45822052D01*
X40781456Y-45860500D01*
X40781459Y-45860500D01*
X40978543Y-45860500D01*
X41108582Y-45834632D01*
X41171835Y-45822051D01*
X41353914Y-45746632D01*
X41517782Y-45637139D01*
X41657139Y-45497782D01*
X41766632Y-45333914D01*
X41842051Y-45151835D01*
X41872154Y-45000500D01*
X41880500Y-44958543D01*
X41880500Y-44761456D01*
X41842052Y-44568170D01*
X41842051Y-44568169D01*
X41842051Y-44568165D01*
X41789067Y-44440249D01*
X41766635Y-44386092D01*
X41766628Y-44386079D01*
X41657139Y-44222218D01*
X41657136Y-44222214D01*
X41517785Y-44082863D01*
X41517781Y-44082860D01*
X41353920Y-43973371D01*
X41353907Y-43973364D01*
X41171839Y-43897950D01*
X41171829Y-43897947D01*
X40978543Y-43859500D01*
X40978541Y-43859500D01*
X40781459Y-43859500D01*
X40781457Y-43859500D01*
X40588170Y-43897947D01*
X40588160Y-43897950D01*
X40406092Y-43973364D01*
X40406079Y-43973371D01*
X40242218Y-44082860D01*
X40242214Y-44082863D01*
X40102863Y-44222214D01*
X40102860Y-44222218D01*
X39993371Y-44386079D01*
X39993364Y-44386092D01*
X39917950Y-44568160D01*
X39917947Y-44568170D01*
X39879500Y-44761456D01*
X39879500Y-44761459D01*
X39879500Y-44958541D01*
X39879500Y-44958543D01*
X39879499Y-44958543D01*
X24100500Y-44958543D01*
X24100500Y-44761456D01*
X24062052Y-44568170D01*
X24062051Y-44568169D01*
X24062051Y-44568165D01*
X24009067Y-44440249D01*
X23986635Y-44386092D01*
X23986628Y-44386079D01*
X23877139Y-44222218D01*
X23877136Y-44222214D01*
X23737785Y-44082863D01*
X23737781Y-44082860D01*
X23573920Y-43973371D01*
X23573907Y-43973364D01*
X23391839Y-43897950D01*
X23391829Y-43897947D01*
X23198543Y-43859500D01*
X23198541Y-43859500D01*
X23001459Y-43859500D01*
X23001457Y-43859500D01*
X22808170Y-43897947D01*
X22808160Y-43897950D01*
X22626092Y-43973364D01*
X22626079Y-43973371D01*
X22462218Y-44082860D01*
X22462214Y-44082863D01*
X22322863Y-44222214D01*
X22322860Y-44222218D01*
X22213371Y-44386079D01*
X22213364Y-44386092D01*
X22137950Y-44568160D01*
X22137947Y-44568170D01*
X22099500Y-44761456D01*
X22099500Y-44761459D01*
X22099500Y-44958541D01*
X22099500Y-44958543D01*
X22099499Y-44958543D01*
X20500500Y-44958543D01*
X20500500Y-42418543D01*
X22099499Y-42418543D01*
X22137947Y-42611829D01*
X22137950Y-42611839D01*
X22213364Y-42793907D01*
X22213371Y-42793920D01*
X22322860Y-42957781D01*
X22322863Y-42957785D01*
X22462214Y-43097136D01*
X22462218Y-43097139D01*
X22626079Y-43206628D01*
X22626092Y-43206635D01*
X22730786Y-43250000D01*
X22808165Y-43282051D01*
X22808169Y-43282051D01*
X22808170Y-43282052D01*
X23001456Y-43320500D01*
X23001459Y-43320500D01*
X23198543Y-43320500D01*
X23328582Y-43294632D01*
X23391835Y-43282051D01*
X23572526Y-43207207D01*
X23573907Y-43206635D01*
X23573907Y-43206634D01*
X23573914Y-43206632D01*
X23737782Y-43097139D01*
X23877139Y-42957782D01*
X23986632Y-42793914D01*
X24062051Y-42611835D01*
X24081807Y-42512518D01*
X24100500Y-42418543D01*
X39879499Y-42418543D01*
X39917947Y-42611829D01*
X39917950Y-42611839D01*
X39993364Y-42793907D01*
X39993371Y-42793920D01*
X40102860Y-42957781D01*
X40102863Y-42957785D01*
X40242214Y-43097136D01*
X40242218Y-43097139D01*
X40406079Y-43206628D01*
X40406092Y-43206635D01*
X40510786Y-43250000D01*
X40588165Y-43282051D01*
X40588169Y-43282051D01*
X40588170Y-43282052D01*
X40781456Y-43320500D01*
X40781459Y-43320500D01*
X40978543Y-43320500D01*
X41108582Y-43294632D01*
X41171835Y-43282051D01*
X41352526Y-43207207D01*
X41353907Y-43206635D01*
X41353907Y-43206634D01*
X41353914Y-43206632D01*
X41517782Y-43097139D01*
X41657139Y-42957782D01*
X41766632Y-42793914D01*
X41842051Y-42611835D01*
X41861807Y-42512518D01*
X41880500Y-42418543D01*
X41880500Y-42221456D01*
X41842052Y-42028170D01*
X41842051Y-42028169D01*
X41842051Y-42028165D01*
X41835372Y-42012040D01*
X41766635Y-41846092D01*
X41766628Y-41846079D01*
X41657139Y-41682218D01*
X41657136Y-41682214D01*
X41517785Y-41542863D01*
X41517781Y-41542860D01*
X41353920Y-41433371D01*
X41353907Y-41433364D01*
X41171839Y-41357950D01*
X41171829Y-41357947D01*
X40978543Y-41319500D01*
X40978541Y-41319500D01*
X40781459Y-41319500D01*
X40781457Y-41319500D01*
X40588170Y-41357947D01*
X40588160Y-41357950D01*
X40406092Y-41433364D01*
X40406079Y-41433371D01*
X40242218Y-41542860D01*
X40242214Y-41542863D01*
X40102863Y-41682214D01*
X40102860Y-41682218D01*
X39993371Y-41846079D01*
X39993364Y-41846092D01*
X39917950Y-42028160D01*
X39917947Y-42028170D01*
X39879500Y-42221456D01*
X39879500Y-42221459D01*
X39879500Y-42418541D01*
X39879500Y-42418543D01*
X39879499Y-42418543D01*
X24100500Y-42418543D01*
X24100500Y-42221456D01*
X24062052Y-42028170D01*
X24062051Y-42028169D01*
X24062051Y-42028165D01*
X24055372Y-42012040D01*
X23986635Y-41846092D01*
X23986628Y-41846079D01*
X23877139Y-41682218D01*
X23877136Y-41682214D01*
X23737785Y-41542863D01*
X23737781Y-41542860D01*
X23573920Y-41433371D01*
X23573907Y-41433364D01*
X23391839Y-41357950D01*
X23391829Y-41357947D01*
X23198543Y-41319500D01*
X23198541Y-41319500D01*
X23001459Y-41319500D01*
X23001457Y-41319500D01*
X22808170Y-41357947D01*
X22808160Y-41357950D01*
X22626092Y-41433364D01*
X22626079Y-41433371D01*
X22462218Y-41542860D01*
X22462214Y-41542863D01*
X22322863Y-41682214D01*
X22322860Y-41682218D01*
X22213371Y-41846079D01*
X22213364Y-41846092D01*
X22137950Y-42028160D01*
X22137947Y-42028170D01*
X22099500Y-42221456D01*
X22099500Y-42221459D01*
X22099500Y-42418541D01*
X22099500Y-42418543D01*
X22099499Y-42418543D01*
X20500500Y-42418543D01*
X20500500Y-39701211D01*
X22094500Y-39701211D01*
X22094500Y-39858788D01*
X22098449Y-39898884D01*
X22129192Y-40053442D01*
X22140887Y-40091997D01*
X22201189Y-40237577D01*
X22201192Y-40237584D01*
X22220182Y-40273112D01*
X22220187Y-40273120D01*
X22220192Y-40273128D01*
X22307725Y-40404131D01*
X22307729Y-40404136D01*
X22307732Y-40404140D01*
X22333289Y-40435280D01*
X22444720Y-40546711D01*
X22475860Y-40572268D01*
X22475863Y-40572270D01*
X22475868Y-40572274D01*
X22606871Y-40659807D01*
X22606874Y-40659809D01*
X22606888Y-40659818D01*
X22642416Y-40678808D01*
X22788007Y-40739114D01*
X22826559Y-40750808D01*
X22981117Y-40781551D01*
X23021207Y-40785500D01*
X23021212Y-40785500D01*
X23739783Y-40785500D01*
X23739783Y-40785499D01*
X23818423Y-40769858D01*
X23864415Y-40750808D01*
X23891925Y-40739413D01*
X23891925Y-40739412D01*
X23891932Y-40739410D01*
X23958601Y-40694862D01*
X24014862Y-40638601D01*
X24059410Y-40571932D01*
X24089858Y-40498423D01*
X24105500Y-40419782D01*
X24105500Y-39140218D01*
X24105499Y-39140214D01*
X39874500Y-39140214D01*
X39874500Y-40419785D01*
X39890140Y-40498417D01*
X39890145Y-40498433D01*
X39920586Y-40571925D01*
X39920588Y-40571929D01*
X39920590Y-40571932D01*
X39965138Y-40638601D01*
X40021399Y-40694862D01*
X40088068Y-40739410D01*
X40088071Y-40739411D01*
X40088074Y-40739413D01*
X40161566Y-40769854D01*
X40161571Y-40769855D01*
X40161577Y-40769858D01*
X40240215Y-40785499D01*
X40240217Y-40785500D01*
X40240218Y-40785500D01*
X40958788Y-40785500D01*
X40958793Y-40785500D01*
X40998883Y-40781551D01*
X41153441Y-40750808D01*
X41191993Y-40739114D01*
X41337584Y-40678808D01*
X41373112Y-40659818D01*
X41504140Y-40572268D01*
X41535280Y-40546711D01*
X41646711Y-40435280D01*
X41672268Y-40404140D01*
X41759818Y-40273112D01*
X41778808Y-40237584D01*
X41839114Y-40091993D01*
X41850808Y-40053441D01*
X41881551Y-39898883D01*
X41885500Y-39858793D01*
X41885500Y-39701207D01*
X41881551Y-39661117D01*
X41850808Y-39506559D01*
X41839114Y-39468007D01*
X41778808Y-39322416D01*
X41759818Y-39286888D01*
X41759807Y-39286871D01*
X41672274Y-39155868D01*
X41672270Y-39155863D01*
X41646711Y-39124720D01*
X41535279Y-39013288D01*
X41519697Y-39000500D01*
X41504140Y-38987732D01*
X41504136Y-38987729D01*
X41504131Y-38987725D01*
X41373128Y-38900192D01*
X41373120Y-38900187D01*
X41373112Y-38900182D01*
X41337584Y-38881192D01*
X41298829Y-38865139D01*
X41191997Y-38820887D01*
X41153442Y-38809192D01*
X40998884Y-38778449D01*
X40998885Y-38778449D01*
X40985584Y-38777139D01*
X40958793Y-38774500D01*
X40240218Y-38774500D01*
X40240214Y-38774500D01*
X40161582Y-38790140D01*
X40161566Y-38790145D01*
X40088074Y-38820586D01*
X40021397Y-38865139D01*
X39965139Y-38921397D01*
X39920586Y-38988074D01*
X39890145Y-39061566D01*
X39890140Y-39061582D01*
X39874500Y-39140214D01*
X24105499Y-39140214D01*
X24089858Y-39061577D01*
X24089855Y-39061571D01*
X24089854Y-39061566D01*
X24059413Y-38988074D01*
X24059411Y-38988071D01*
X24059410Y-38988068D01*
X24014862Y-38921399D01*
X23958601Y-38865138D01*
X23891932Y-38820590D01*
X23891929Y-38820588D01*
X23891925Y-38820586D01*
X23818433Y-38790145D01*
X23818417Y-38790140D01*
X23739785Y-38774500D01*
X23739782Y-38774500D01*
X23021207Y-38774500D01*
X22994416Y-38777139D01*
X22981115Y-38778449D01*
X22826557Y-38809192D01*
X22788002Y-38820887D01*
X22642422Y-38881189D01*
X22642415Y-38881192D01*
X22614182Y-38896282D01*
X22606888Y-38900182D01*
X22606885Y-38900183D01*
X22606871Y-38900192D01*
X22475868Y-38987725D01*
X22475863Y-38987729D01*
X22444720Y-39013288D01*
X22333288Y-39124720D01*
X22307729Y-39155863D01*
X22307725Y-39155868D01*
X22220192Y-39286871D01*
X22220183Y-39286885D01*
X22220182Y-39286888D01*
X22216282Y-39294182D01*
X22201192Y-39322415D01*
X22201189Y-39322422D01*
X22140887Y-39468002D01*
X22129192Y-39506557D01*
X22098449Y-39661115D01*
X22094500Y-39701211D01*
X20500500Y-39701211D01*
X20500500Y-37338543D01*
X22099499Y-37338543D01*
X22137947Y-37531829D01*
X22137950Y-37531839D01*
X22213364Y-37713907D01*
X22213371Y-37713920D01*
X22322860Y-37877781D01*
X22322863Y-37877785D01*
X22462214Y-38017136D01*
X22462218Y-38017139D01*
X22626079Y-38126628D01*
X22626092Y-38126635D01*
X22808160Y-38202049D01*
X22808165Y-38202051D01*
X22808169Y-38202051D01*
X22808170Y-38202052D01*
X23001456Y-38240500D01*
X23001459Y-38240500D01*
X23198543Y-38240500D01*
X23328582Y-38214632D01*
X23391835Y-38202051D01*
X23573914Y-38126632D01*
X23737782Y-38017139D01*
X23877139Y-37877782D01*
X23986632Y-37713914D01*
X24062051Y-37531835D01*
X24091989Y-37381328D01*
X24100500Y-37338543D01*
X39879499Y-37338543D01*
X39917947Y-37531829D01*
X39917950Y-37531839D01*
X39993364Y-37713907D01*
X39993371Y-37713920D01*
X40102860Y-37877781D01*
X40102863Y-37877785D01*
X40242214Y-38017136D01*
X40242218Y-38017139D01*
X40406079Y-38126628D01*
X40406092Y-38126635D01*
X40588160Y-38202049D01*
X40588165Y-38202051D01*
X40588169Y-38202051D01*
X40588170Y-38202052D01*
X40781456Y-38240500D01*
X40781459Y-38240500D01*
X40978543Y-38240500D01*
X41108582Y-38214632D01*
X41171835Y-38202051D01*
X41353914Y-38126632D01*
X41517782Y-38017139D01*
X41657139Y-37877782D01*
X41766632Y-37713914D01*
X41842051Y-37531835D01*
X41871989Y-37381328D01*
X41880500Y-37338543D01*
X41880500Y-37141456D01*
X41842052Y-36948170D01*
X41842051Y-36948169D01*
X41842051Y-36948165D01*
X41816565Y-36886635D01*
X41766635Y-36766092D01*
X41766628Y-36766079D01*
X41657139Y-36602218D01*
X41657136Y-36602214D01*
X41517785Y-36462863D01*
X41517781Y-36462860D01*
X41353920Y-36353371D01*
X41353907Y-36353364D01*
X41171839Y-36277950D01*
X41171829Y-36277947D01*
X40978543Y-36239500D01*
X40978541Y-36239500D01*
X40781459Y-36239500D01*
X40781457Y-36239500D01*
X40588170Y-36277947D01*
X40588160Y-36277950D01*
X40406092Y-36353364D01*
X40406079Y-36353371D01*
X40242218Y-36462860D01*
X40242214Y-36462863D01*
X40102863Y-36602214D01*
X40102860Y-36602218D01*
X39993371Y-36766079D01*
X39993364Y-36766092D01*
X39917950Y-36948160D01*
X39917947Y-36948170D01*
X39879500Y-37141456D01*
X39879500Y-37141459D01*
X39879500Y-37338541D01*
X39879500Y-37338543D01*
X39879499Y-37338543D01*
X24100500Y-37338543D01*
X24100500Y-37141456D01*
X24062052Y-36948170D01*
X24062051Y-36948169D01*
X24062051Y-36948165D01*
X24036565Y-36886635D01*
X23986635Y-36766092D01*
X23986628Y-36766079D01*
X23877139Y-36602218D01*
X23877136Y-36602214D01*
X23737785Y-36462863D01*
X23737781Y-36462860D01*
X23573920Y-36353371D01*
X23573907Y-36353364D01*
X23391839Y-36277950D01*
X23391829Y-36277947D01*
X23198543Y-36239500D01*
X23198541Y-36239500D01*
X23001459Y-36239500D01*
X23001457Y-36239500D01*
X22808170Y-36277947D01*
X22808160Y-36277950D01*
X22626092Y-36353364D01*
X22626079Y-36353371D01*
X22462218Y-36462860D01*
X22462214Y-36462863D01*
X22322863Y-36602214D01*
X22322860Y-36602218D01*
X22213371Y-36766079D01*
X22213364Y-36766092D01*
X22137950Y-36948160D01*
X22137947Y-36948170D01*
X22099500Y-37141456D01*
X22099500Y-37141459D01*
X22099500Y-37338541D01*
X22099500Y-37338543D01*
X22099499Y-37338543D01*
X20500500Y-37338543D01*
X20500500Y-34613428D01*
X22000000Y-34613428D01*
X22000000Y-34786571D01*
X22027085Y-34957584D01*
X22080591Y-35122257D01*
X22159195Y-35276523D01*
X22159196Y-35276525D01*
X22193463Y-35323691D01*
X22193464Y-35323691D01*
X22631980Y-34885176D01*
X22634075Y-34892993D01*
X22699901Y-35007007D01*
X22792993Y-35100099D01*
X22907007Y-35165925D01*
X22914822Y-35168019D01*
X22476307Y-35606534D01*
X22523478Y-35640805D01*
X22677742Y-35719408D01*
X22842415Y-35772914D01*
X23013429Y-35800000D01*
X23186571Y-35800000D01*
X23357584Y-35772914D01*
X23522257Y-35719408D01*
X23676525Y-35640803D01*
X23723692Y-35606534D01*
X23285177Y-35168019D01*
X23292993Y-35165925D01*
X23407007Y-35100099D01*
X23500099Y-35007007D01*
X23565925Y-34892993D01*
X23568019Y-34885177D01*
X24006533Y-35323692D01*
X24006534Y-35323691D01*
X24040803Y-35276525D01*
X24119408Y-35122257D01*
X24172914Y-34957584D01*
X24200000Y-34786571D01*
X24200000Y-34613428D01*
X39780000Y-34613428D01*
X39780000Y-34786571D01*
X39807085Y-34957584D01*
X39860591Y-35122257D01*
X39939195Y-35276523D01*
X39939196Y-35276525D01*
X39973463Y-35323691D01*
X39973464Y-35323691D01*
X40411980Y-34885176D01*
X40414075Y-34892993D01*
X40479901Y-35007007D01*
X40572993Y-35100099D01*
X40687007Y-35165925D01*
X40694822Y-35168019D01*
X40256307Y-35606534D01*
X40303478Y-35640805D01*
X40457742Y-35719408D01*
X40622415Y-35772914D01*
X40793429Y-35800000D01*
X40966571Y-35800000D01*
X41137584Y-35772914D01*
X41302257Y-35719408D01*
X41456525Y-35640803D01*
X41503691Y-35606534D01*
X41503692Y-35606533D01*
X41065178Y-35168019D01*
X41072993Y-35165925D01*
X41187007Y-35100099D01*
X41280099Y-35007007D01*
X41345925Y-34892993D01*
X41348019Y-34885177D01*
X41786533Y-35323692D01*
X41786534Y-35323691D01*
X41820803Y-35276525D01*
X41899408Y-35122257D01*
X41952914Y-34957584D01*
X41980000Y-34786571D01*
X41980000Y-34613428D01*
X41952914Y-34442415D01*
X41899408Y-34277742D01*
X41820805Y-34123478D01*
X41786534Y-34076307D01*
X41348019Y-34514822D01*
X41345925Y-34507007D01*
X41280099Y-34392993D01*
X41187007Y-34299901D01*
X41072993Y-34234075D01*
X41065176Y-34231980D01*
X41503691Y-33793464D01*
X41503691Y-33793463D01*
X41456525Y-33759196D01*
X41456523Y-33759195D01*
X41302257Y-33680591D01*
X41137584Y-33627085D01*
X40966571Y-33600000D01*
X40793429Y-33600000D01*
X40622415Y-33627085D01*
X40457740Y-33680592D01*
X40303475Y-33759196D01*
X40256307Y-33793463D01*
X40256307Y-33793464D01*
X40694823Y-34231980D01*
X40687007Y-34234075D01*
X40572993Y-34299901D01*
X40479901Y-34392993D01*
X40414075Y-34507007D01*
X40411980Y-34514823D01*
X39973464Y-34076307D01*
X39973463Y-34076307D01*
X39939196Y-34123475D01*
X39860592Y-34277740D01*
X39807085Y-34442415D01*
X39780000Y-34613428D01*
X24200000Y-34613428D01*
X24172914Y-34442415D01*
X24119408Y-34277742D01*
X24040805Y-34123478D01*
X24006534Y-34076307D01*
X23568019Y-34514822D01*
X23565925Y-34507007D01*
X23500099Y-34392993D01*
X23407007Y-34299901D01*
X23292993Y-34234075D01*
X23285176Y-34231980D01*
X23723691Y-33793464D01*
X23723691Y-33793463D01*
X23676525Y-33759196D01*
X23676523Y-33759195D01*
X23522257Y-33680591D01*
X23357584Y-33627085D01*
X23186571Y-33600000D01*
X23013429Y-33600000D01*
X22842415Y-33627085D01*
X22677740Y-33680592D01*
X22523475Y-33759196D01*
X22476307Y-33793463D01*
X22476307Y-33793464D01*
X22914823Y-34231980D01*
X22907007Y-34234075D01*
X22792993Y-34299901D01*
X22699901Y-34392993D01*
X22634075Y-34507007D01*
X22631980Y-34514823D01*
X22193464Y-34076307D01*
X22193463Y-34076307D01*
X22159196Y-34123475D01*
X22080592Y-34277740D01*
X22027085Y-34442415D01*
X22000000Y-34613428D01*
X20500500Y-34613428D01*
X20500500Y-32258543D01*
X22099499Y-32258543D01*
X22137947Y-32451829D01*
X22137950Y-32451839D01*
X22213364Y-32633907D01*
X22213371Y-32633920D01*
X22322860Y-32797781D01*
X22322863Y-32797785D01*
X22462214Y-32937136D01*
X22462218Y-32937139D01*
X22626079Y-33046628D01*
X22626092Y-33046635D01*
X22808160Y-33122049D01*
X22808165Y-33122051D01*
X22808169Y-33122051D01*
X22808170Y-33122052D01*
X23001456Y-33160500D01*
X23001459Y-33160500D01*
X23198543Y-33160500D01*
X23328582Y-33134632D01*
X23391835Y-33122051D01*
X23573914Y-33046632D01*
X23737782Y-32937139D01*
X23877139Y-32797782D01*
X23986632Y-32633914D01*
X24062051Y-32451835D01*
X24100500Y-32258543D01*
X39879499Y-32258543D01*
X39917947Y-32451829D01*
X39917950Y-32451839D01*
X39993364Y-32633907D01*
X39993371Y-32633920D01*
X40102860Y-32797781D01*
X40102863Y-32797785D01*
X40242214Y-32937136D01*
X40242218Y-32937139D01*
X40406079Y-33046628D01*
X40406092Y-33046635D01*
X40588160Y-33122049D01*
X40588165Y-33122051D01*
X40588169Y-33122051D01*
X40588170Y-33122052D01*
X40781456Y-33160500D01*
X40781459Y-33160500D01*
X40978543Y-33160500D01*
X41108582Y-33134632D01*
X41171835Y-33122051D01*
X41353914Y-33046632D01*
X41517782Y-32937139D01*
X41657139Y-32797782D01*
X41766632Y-32633914D01*
X41842051Y-32451835D01*
X41880500Y-32258541D01*
X41880500Y-32061459D01*
X41880500Y-32061456D01*
X41842052Y-31868170D01*
X41842051Y-31868169D01*
X41842051Y-31868165D01*
X41798441Y-31762880D01*
X41766635Y-31686092D01*
X41766628Y-31686079D01*
X41657139Y-31522218D01*
X41657136Y-31522214D01*
X41517785Y-31382863D01*
X41517781Y-31382860D01*
X41353920Y-31273371D01*
X41353907Y-31273364D01*
X41171839Y-31197950D01*
X41171829Y-31197947D01*
X40978543Y-31159500D01*
X40978541Y-31159500D01*
X40781459Y-31159500D01*
X40781457Y-31159500D01*
X40588170Y-31197947D01*
X40588160Y-31197950D01*
X40406092Y-31273364D01*
X40406079Y-31273371D01*
X40242218Y-31382860D01*
X40242214Y-31382863D01*
X40102863Y-31522214D01*
X40102860Y-31522218D01*
X39993371Y-31686079D01*
X39993364Y-31686092D01*
X39917950Y-31868160D01*
X39917947Y-31868170D01*
X39879500Y-32061456D01*
X39879500Y-32061459D01*
X39879500Y-32258541D01*
X39879500Y-32258543D01*
X39879499Y-32258543D01*
X24100500Y-32258543D01*
X24100500Y-32258541D01*
X24100500Y-32061459D01*
X24100500Y-32061456D01*
X24062052Y-31868170D01*
X24062051Y-31868169D01*
X24062051Y-31868165D01*
X24018441Y-31762880D01*
X23986635Y-31686092D01*
X23986628Y-31686079D01*
X23877139Y-31522218D01*
X23877136Y-31522214D01*
X23737785Y-31382863D01*
X23737781Y-31382860D01*
X23573920Y-31273371D01*
X23573907Y-31273364D01*
X23391839Y-31197950D01*
X23391829Y-31197947D01*
X23198543Y-31159500D01*
X23198541Y-31159500D01*
X23001459Y-31159500D01*
X23001457Y-31159500D01*
X22808170Y-31197947D01*
X22808160Y-31197950D01*
X22626092Y-31273364D01*
X22626079Y-31273371D01*
X22462218Y-31382860D01*
X22462214Y-31382863D01*
X22322863Y-31522214D01*
X22322860Y-31522218D01*
X22213371Y-31686079D01*
X22213364Y-31686092D01*
X22137950Y-31868160D01*
X22137947Y-31868170D01*
X22099500Y-32061456D01*
X22099500Y-32061459D01*
X22099500Y-32258541D01*
X22099500Y-32258543D01*
X22099499Y-32258543D01*
X20500500Y-32258543D01*
X20500500Y-29718543D01*
X22099499Y-29718543D01*
X22137947Y-29911829D01*
X22137950Y-29911839D01*
X22213364Y-30093907D01*
X22213371Y-30093920D01*
X22322860Y-30257781D01*
X22322863Y-30257785D01*
X22462214Y-30397136D01*
X22462218Y-30397139D01*
X22626079Y-30506628D01*
X22626092Y-30506635D01*
X22808160Y-30582049D01*
X22808165Y-30582051D01*
X22808169Y-30582051D01*
X22808170Y-30582052D01*
X23001456Y-30620500D01*
X23001459Y-30620500D01*
X23198543Y-30620500D01*
X23328582Y-30594632D01*
X23391835Y-30582051D01*
X23573914Y-30506632D01*
X23737782Y-30397139D01*
X23877139Y-30257782D01*
X23986632Y-30093914D01*
X24062051Y-29911835D01*
X24100500Y-29718543D01*
X39879499Y-29718543D01*
X39917947Y-29911829D01*
X39917950Y-29911839D01*
X39993364Y-30093907D01*
X39993371Y-30093920D01*
X40102860Y-30257781D01*
X40102863Y-30257785D01*
X40242214Y-30397136D01*
X40242218Y-30397139D01*
X40406079Y-30506628D01*
X40406092Y-30506635D01*
X40588160Y-30582049D01*
X40588165Y-30582051D01*
X40588169Y-30582051D01*
X40588170Y-30582052D01*
X40781456Y-30620500D01*
X40781459Y-30620500D01*
X40978543Y-30620500D01*
X41108582Y-30594632D01*
X41171835Y-30582051D01*
X41353914Y-30506632D01*
X41517782Y-30397139D01*
X41657139Y-30257782D01*
X41766632Y-30093914D01*
X41842051Y-29911835D01*
X41880500Y-29718541D01*
X41880500Y-29521459D01*
X41880500Y-29521456D01*
X41842052Y-29328170D01*
X41842051Y-29328169D01*
X41842051Y-29328165D01*
X41828278Y-29294914D01*
X41766635Y-29146092D01*
X41766628Y-29146079D01*
X41657139Y-28982218D01*
X41657136Y-28982214D01*
X41517785Y-28842863D01*
X41517781Y-28842860D01*
X41353920Y-28733371D01*
X41353907Y-28733364D01*
X41171839Y-28657950D01*
X41171829Y-28657947D01*
X40978543Y-28619500D01*
X40978541Y-28619500D01*
X40781459Y-28619500D01*
X40781457Y-28619500D01*
X40588170Y-28657947D01*
X40588160Y-28657950D01*
X40406092Y-28733364D01*
X40406079Y-28733371D01*
X40242218Y-28842860D01*
X40242214Y-28842863D01*
X40102863Y-28982214D01*
X40102860Y-28982218D01*
X39993371Y-29146079D01*
X39993364Y-29146092D01*
X39917950Y-29328160D01*
X39917947Y-29328170D01*
X39879500Y-29521456D01*
X39879500Y-29521459D01*
X39879500Y-29718541D01*
X39879500Y-29718543D01*
X39879499Y-29718543D01*
X24100500Y-29718543D01*
X24100500Y-29718541D01*
X24100500Y-29521459D01*
X24100500Y-29521456D01*
X24062052Y-29328170D01*
X24062051Y-29328169D01*
X24062051Y-29328165D01*
X24048278Y-29294914D01*
X23986635Y-29146092D01*
X23986628Y-29146079D01*
X23877139Y-28982218D01*
X23877136Y-28982214D01*
X23737785Y-28842863D01*
X23737781Y-28842860D01*
X23573920Y-28733371D01*
X23573907Y-28733364D01*
X23391839Y-28657950D01*
X23391829Y-28657947D01*
X23198543Y-28619500D01*
X23198541Y-28619500D01*
X23001459Y-28619500D01*
X23001457Y-28619500D01*
X22808170Y-28657947D01*
X22808160Y-28657950D01*
X22626092Y-28733364D01*
X22626079Y-28733371D01*
X22462218Y-28842860D01*
X22462214Y-28842863D01*
X22322863Y-28982214D01*
X22322860Y-28982218D01*
X22213371Y-29146079D01*
X22213364Y-29146092D01*
X22137950Y-29328160D01*
X22137947Y-29328170D01*
X22099500Y-29521456D01*
X22099500Y-29521459D01*
X22099500Y-29718541D01*
X22099500Y-29718543D01*
X22099499Y-29718543D01*
X20500500Y-29718543D01*
X20500500Y-27001211D01*
X22094500Y-27001211D01*
X22094500Y-27158788D01*
X22098449Y-27198884D01*
X22129192Y-27353442D01*
X22140887Y-27391997D01*
X22177381Y-27480099D01*
X22201192Y-27537584D01*
X22220182Y-27573112D01*
X22220187Y-27573120D01*
X22220192Y-27573128D01*
X22307725Y-27704131D01*
X22307729Y-27704136D01*
X22307732Y-27704140D01*
X22333289Y-27735280D01*
X22444720Y-27846711D01*
X22475860Y-27872268D01*
X22475863Y-27872270D01*
X22475868Y-27872274D01*
X22606871Y-27959807D01*
X22606874Y-27959809D01*
X22606888Y-27959818D01*
X22642416Y-27978808D01*
X22788007Y-28039114D01*
X22826559Y-28050808D01*
X22981117Y-28081551D01*
X23021207Y-28085500D01*
X23021212Y-28085500D01*
X23739783Y-28085500D01*
X23739783Y-28085499D01*
X23818423Y-28069858D01*
X23891932Y-28039410D01*
X23958601Y-27994862D01*
X24014862Y-27938601D01*
X24059410Y-27871932D01*
X24069857Y-27846711D01*
X24089854Y-27798433D01*
X24089854Y-27798431D01*
X24089858Y-27798423D01*
X24105500Y-27719782D01*
X24105500Y-26440220D01*
X39775000Y-26440220D01*
X39775000Y-27719767D01*
X39775081Y-27726826D01*
X39798216Y-27836500D01*
X39798216Y-27836502D01*
X39810645Y-27866509D01*
X39810647Y-27866510D01*
X40411980Y-27265176D01*
X40414075Y-27272993D01*
X40479901Y-27387007D01*
X40572993Y-27480099D01*
X40687007Y-27545925D01*
X40694823Y-27548019D01*
X40093489Y-28149353D01*
X40123462Y-28161768D01*
X40130035Y-28164402D01*
X40240220Y-28185000D01*
X40958791Y-28185000D01*
X41018281Y-28179141D01*
X41018285Y-28179141D01*
X41172848Y-28148398D01*
X41230072Y-28131039D01*
X41375661Y-28070733D01*
X41428387Y-28042550D01*
X41428397Y-28042544D01*
X41507108Y-27989951D01*
X41065176Y-27548019D01*
X41072993Y-27545925D01*
X41187007Y-27480099D01*
X41280099Y-27387007D01*
X41345925Y-27272993D01*
X41348019Y-27265176D01*
X41789951Y-27707108D01*
X41842544Y-27628397D01*
X41842550Y-27628387D01*
X41870733Y-27575661D01*
X41931039Y-27430072D01*
X41948398Y-27372848D01*
X41979141Y-27218285D01*
X41979141Y-27218281D01*
X41985000Y-27158791D01*
X41985000Y-27001208D01*
X41979141Y-26941718D01*
X41979141Y-26941714D01*
X41948398Y-26787151D01*
X41931039Y-26729927D01*
X41870733Y-26584338D01*
X41842550Y-26531612D01*
X41842544Y-26531602D01*
X41789951Y-26452890D01*
X41348019Y-26894822D01*
X41345925Y-26887007D01*
X41280099Y-26772993D01*
X41187007Y-26679901D01*
X41072993Y-26614075D01*
X41065176Y-26611980D01*
X41507107Y-26170048D01*
X41428397Y-26117455D01*
X41428387Y-26117449D01*
X41375661Y-26089266D01*
X41230072Y-26028960D01*
X41172848Y-26011601D01*
X41018283Y-25980858D01*
X40958791Y-25975000D01*
X40240232Y-25975000D01*
X40233173Y-25975081D01*
X40123500Y-25998216D01*
X40093488Y-26010645D01*
X40093488Y-26010646D01*
X40694823Y-26611980D01*
X40687007Y-26614075D01*
X40572993Y-26679901D01*
X40479901Y-26772993D01*
X40414075Y-26887007D01*
X40411980Y-26894822D01*
X39810646Y-26293488D01*
X39810645Y-26293488D01*
X39798226Y-26323474D01*
X39795597Y-26330035D01*
X39795597Y-26330036D01*
X39775000Y-26440220D01*
X24105500Y-26440220D01*
X24105500Y-26440218D01*
X24089858Y-26361577D01*
X24089855Y-26361571D01*
X24089854Y-26361566D01*
X24059413Y-26288074D01*
X24059411Y-26288071D01*
X24059410Y-26288068D01*
X24014862Y-26221399D01*
X23958601Y-26165138D01*
X23891932Y-26120590D01*
X23891929Y-26120588D01*
X23891925Y-26120586D01*
X23818433Y-26090145D01*
X23818417Y-26090140D01*
X23739785Y-26074500D01*
X23739782Y-26074500D01*
X23021207Y-26074500D01*
X22992571Y-26077320D01*
X22981115Y-26078449D01*
X22826557Y-26109192D01*
X22788002Y-26120887D01*
X22642422Y-26181189D01*
X22642415Y-26181192D01*
X22614182Y-26196282D01*
X22606888Y-26200182D01*
X22606885Y-26200183D01*
X22606871Y-26200192D01*
X22475868Y-26287725D01*
X22475863Y-26287729D01*
X22444720Y-26313288D01*
X22333288Y-26424720D01*
X22307729Y-26455863D01*
X22307725Y-26455868D01*
X22220192Y-26586871D01*
X22220180Y-26586892D01*
X22201192Y-26622415D01*
X22201189Y-26622422D01*
X22140887Y-26768002D01*
X22129192Y-26806557D01*
X22098449Y-26961115D01*
X22094500Y-27001211D01*
X20500500Y-27001211D01*
X20500500Y-24638543D01*
X22099499Y-24638543D01*
X22137947Y-24831829D01*
X22137950Y-24831839D01*
X22213364Y-25013907D01*
X22213371Y-25013920D01*
X22322860Y-25177781D01*
X22322863Y-25177785D01*
X22462214Y-25317136D01*
X22462218Y-25317139D01*
X22626079Y-25426628D01*
X22626092Y-25426635D01*
X22808160Y-25502049D01*
X22808165Y-25502051D01*
X22808169Y-25502051D01*
X22808170Y-25502052D01*
X23001456Y-25540500D01*
X23001459Y-25540500D01*
X23198543Y-25540500D01*
X23328582Y-25514632D01*
X23391835Y-25502051D01*
X23573914Y-25426632D01*
X23737782Y-25317139D01*
X23877139Y-25177782D01*
X23986632Y-25013914D01*
X24062051Y-24831835D01*
X24100500Y-24638543D01*
X39879499Y-24638543D01*
X39917947Y-24831829D01*
X39917950Y-24831839D01*
X39993364Y-25013907D01*
X39993371Y-25013920D01*
X40102860Y-25177781D01*
X40102863Y-25177785D01*
X40242214Y-25317136D01*
X40242218Y-25317139D01*
X40406079Y-25426628D01*
X40406092Y-25426635D01*
X40588160Y-25502049D01*
X40588165Y-25502051D01*
X40588169Y-25502051D01*
X40588170Y-25502052D01*
X40781456Y-25540500D01*
X40781459Y-25540500D01*
X40978543Y-25540500D01*
X41108582Y-25514632D01*
X41171835Y-25502051D01*
X41353914Y-25426632D01*
X41517782Y-25317139D01*
X41657139Y-25177782D01*
X41766632Y-25013914D01*
X41842051Y-24831835D01*
X41880500Y-24638541D01*
X41880500Y-24441459D01*
X41880500Y-24441456D01*
X41842052Y-24248170D01*
X41842051Y-24248169D01*
X41842051Y-24248165D01*
X41842049Y-24248160D01*
X41766635Y-24066092D01*
X41766628Y-24066079D01*
X41684754Y-23943546D01*
X41684753Y-23943545D01*
X41657136Y-23902214D01*
X41633633Y-23878711D01*
X58149500Y-23878711D01*
X58149500Y-24121288D01*
X58181161Y-24361785D01*
X58243947Y-24596104D01*
X58336773Y-24820205D01*
X58336777Y-24820214D01*
X58343489Y-24831839D01*
X58458064Y-25030289D01*
X58458066Y-25030292D01*
X58458067Y-25030293D01*
X58605733Y-25222736D01*
X58605739Y-25222743D01*
X58777256Y-25394260D01*
X58777263Y-25394266D01*
X58819447Y-25426635D01*
X58969711Y-25541936D01*
X59179788Y-25663224D01*
X59403900Y-25756054D01*
X59638211Y-25818838D01*
X59818586Y-25842584D01*
X59878711Y-25850500D01*
X59878712Y-25850500D01*
X60121289Y-25850500D01*
X60169388Y-25844167D01*
X60361789Y-25818838D01*
X60596100Y-25756054D01*
X60820212Y-25663224D01*
X61030289Y-25541936D01*
X61222738Y-25394265D01*
X61394265Y-25222738D01*
X61541936Y-25030289D01*
X61663224Y-24820212D01*
X61756054Y-24596100D01*
X61818838Y-24361789D01*
X61850500Y-24121288D01*
X61850500Y-23878712D01*
X61818838Y-23638211D01*
X61756054Y-23403900D01*
X61663224Y-23179788D01*
X61541936Y-22969711D01*
X61394265Y-22777262D01*
X61394260Y-22777256D01*
X61222743Y-22605739D01*
X61222736Y-22605733D01*
X61030293Y-22458067D01*
X61030292Y-22458066D01*
X61030289Y-22458064D01*
X60820212Y-22336776D01*
X60820205Y-22336773D01*
X60596104Y-22243947D01*
X60361785Y-22181161D01*
X60121289Y-22149500D01*
X60121288Y-22149500D01*
X59878712Y-22149500D01*
X59878711Y-22149500D01*
X59638214Y-22181161D01*
X59403895Y-22243947D01*
X59179794Y-22336773D01*
X59179785Y-22336777D01*
X58969706Y-22458067D01*
X58777263Y-22605733D01*
X58777256Y-22605739D01*
X58605739Y-22777256D01*
X58605733Y-22777263D01*
X58458067Y-22969706D01*
X58336777Y-23179785D01*
X58336773Y-23179794D01*
X58243947Y-23403895D01*
X58181161Y-23638214D01*
X58149500Y-23878711D01*
X41633633Y-23878711D01*
X41517785Y-23762863D01*
X41517781Y-23762860D01*
X41353920Y-23653371D01*
X41353907Y-23653364D01*
X41171839Y-23577950D01*
X41171829Y-23577947D01*
X40978543Y-23539500D01*
X40978541Y-23539500D01*
X40781459Y-23539500D01*
X40781457Y-23539500D01*
X40588170Y-23577947D01*
X40588160Y-23577950D01*
X40406092Y-23653364D01*
X40406079Y-23653371D01*
X40242218Y-23762860D01*
X40242214Y-23762863D01*
X40102863Y-23902214D01*
X40102860Y-23902218D01*
X39993371Y-24066079D01*
X39993364Y-24066092D01*
X39917950Y-24248160D01*
X39917947Y-24248170D01*
X39879500Y-24441456D01*
X39879500Y-24441459D01*
X39879500Y-24638541D01*
X39879500Y-24638543D01*
X39879499Y-24638543D01*
X24100500Y-24638543D01*
X24100500Y-24638541D01*
X24100500Y-24441459D01*
X24100500Y-24441456D01*
X24062052Y-24248170D01*
X24062051Y-24248169D01*
X24062051Y-24248165D01*
X24062049Y-24248160D01*
X23986635Y-24066092D01*
X23986628Y-24066079D01*
X23877139Y-23902218D01*
X23877136Y-23902214D01*
X23737785Y-23762863D01*
X23737781Y-23762860D01*
X23573920Y-23653371D01*
X23573907Y-23653364D01*
X23391839Y-23577950D01*
X23391829Y-23577947D01*
X23198543Y-23539500D01*
X23198541Y-23539500D01*
X23001459Y-23539500D01*
X23001457Y-23539500D01*
X22808170Y-23577947D01*
X22808160Y-23577950D01*
X22626092Y-23653364D01*
X22626079Y-23653371D01*
X22462218Y-23762860D01*
X22462214Y-23762863D01*
X22322863Y-23902214D01*
X22322860Y-23902218D01*
X22213371Y-24066079D01*
X22213364Y-24066092D01*
X22137950Y-24248160D01*
X22137947Y-24248170D01*
X22099500Y-24441456D01*
X22099500Y-24441459D01*
X22099500Y-24638541D01*
X22099500Y-24638543D01*
X22099499Y-24638543D01*
X20500500Y-24638543D01*
X20500500Y-21368475D01*
X22099500Y-21368475D01*
X22099500Y-22631517D01*
X22110292Y-22699657D01*
X22114354Y-22725304D01*
X22171950Y-22838342D01*
X22171952Y-22838344D01*
X22171954Y-22838347D01*
X22261652Y-22928045D01*
X22261654Y-22928046D01*
X22261658Y-22928050D01*
X22374694Y-22985645D01*
X22374698Y-22985647D01*
X22468475Y-23000499D01*
X22468481Y-23000500D01*
X23731518Y-23000499D01*
X23825304Y-22985646D01*
X23938342Y-22928050D01*
X24028050Y-22838342D01*
X24085646Y-22725304D01*
X24085646Y-22725302D01*
X24085647Y-22725301D01*
X24096282Y-22658147D01*
X24100500Y-22631519D01*
X24100500Y-22098543D01*
X39879499Y-22098543D01*
X39917947Y-22291829D01*
X39917950Y-22291839D01*
X39993364Y-22473907D01*
X39993371Y-22473920D01*
X40102860Y-22637781D01*
X40102863Y-22637785D01*
X40242214Y-22777136D01*
X40242218Y-22777139D01*
X40406079Y-22886628D01*
X40406092Y-22886635D01*
X40588160Y-22962049D01*
X40588165Y-22962051D01*
X40588169Y-22962051D01*
X40588170Y-22962052D01*
X40781456Y-23000500D01*
X40781459Y-23000500D01*
X40978543Y-23000500D01*
X41133351Y-22969706D01*
X41171835Y-22962051D01*
X41353914Y-22886632D01*
X41517782Y-22777139D01*
X41657139Y-22637782D01*
X41766632Y-22473914D01*
X41842051Y-22291835D01*
X41854632Y-22228582D01*
X41880500Y-22098543D01*
X41880500Y-21901456D01*
X41842052Y-21708170D01*
X41842051Y-21708169D01*
X41842051Y-21708165D01*
X41842049Y-21708160D01*
X41766635Y-21526092D01*
X41766628Y-21526079D01*
X41657139Y-21362218D01*
X41657136Y-21362214D01*
X41517785Y-21222863D01*
X41517781Y-21222860D01*
X41353920Y-21113371D01*
X41353907Y-21113364D01*
X41171839Y-21037950D01*
X41171829Y-21037947D01*
X40978543Y-20999500D01*
X40978541Y-20999500D01*
X40781459Y-20999500D01*
X40781457Y-20999500D01*
X40588170Y-21037947D01*
X40588160Y-21037950D01*
X40406092Y-21113364D01*
X40406079Y-21113371D01*
X40242218Y-21222860D01*
X40242214Y-21222863D01*
X40102863Y-21362214D01*
X40102860Y-21362218D01*
X39993371Y-21526079D01*
X39993364Y-21526092D01*
X39917950Y-21708160D01*
X39917947Y-21708170D01*
X39879500Y-21901456D01*
X39879500Y-21901459D01*
X39879500Y-22098541D01*
X39879500Y-22098543D01*
X39879499Y-22098543D01*
X24100500Y-22098543D01*
X24100499Y-21368482D01*
X24085646Y-21274696D01*
X24028050Y-21161658D01*
X24028046Y-21161654D01*
X24028045Y-21161652D01*
X23938347Y-21071954D01*
X23938344Y-21071952D01*
X23938342Y-21071950D01*
X23861517Y-21032805D01*
X23825301Y-21014352D01*
X23731524Y-20999500D01*
X22468482Y-20999500D01*
X22387519Y-21012323D01*
X22374696Y-21014354D01*
X22261658Y-21071950D01*
X22261657Y-21071951D01*
X22261652Y-21071954D01*
X22171954Y-21161652D01*
X22171951Y-21161657D01*
X22114352Y-21274698D01*
X22099500Y-21368475D01*
X20500500Y-21368475D01*
X20500500Y-20624500D01*
X20520185Y-20557461D01*
X20572989Y-20511706D01*
X20624500Y-20500500D01*
X99375500Y-20500500D01*
X99442539Y-20520185D01*
G37*
%TD.AperFunction*%
%TD*%
M02*
