M48
; DRILL file KiCad 10.0.4 date 2026-07-23T21:37:12
; FORMAT={-:-/ absolute / metric / decimal}
; #@! TF.CreationDate,2026-07-23T21:37:12-03:00
; #@! TF.GenerationSoftware,Kicad,Pcbnew,10.0.4
; #@! TF.FileFunction,MixedPlating,1,2
FMAT,2
METRIC
; #@! TA.AperFunction,Plated,PTH,ViaDrill
T1C0.350
; #@! TA.AperFunction,Plated,PTH,ComponentDrill
T2C0.800
; #@! TA.AperFunction,Plated,PTH,ComponentDrill
T3C1.000
; #@! TA.AperFunction,Plated,PTH,ComponentDrill
T4C1.100
; #@! TA.AperFunction,Plated,PTH,ComponentDrill
T5C1.300
; #@! TA.AperFunction,Plated,PTH,ComponentDrill
T6C1.500
; #@! TA.AperFunction,NonPlated,NPTH,ComponentDrill
T7C3.200
%
G90
G05
T1
X43.988Y-53.75
X53.796Y-67.053
T2
X52.5Y-89.0
X55.0Y-48.0
X55.0Y-55.0
X55.0Y-62.0
X55.0Y-68.0
X55.0Y-74.0
X55.0Y-81.0
X55.0Y-89.0
X55.0Y-96.0
X55.0Y-102.0
X57.54Y-62.0
X57.54Y-68.0
X57.54Y-74.0
X57.54Y-96.0
X57.54Y-102.0
X60.0Y-48.0
X60.0Y-55.0
X60.0Y-81.0
X61.0Y-96.0
X63.54Y-96.0
X67.0Y-96.0
X69.54Y-96.0
T3
X23.1Y-22.0
X23.1Y-24.54
X23.1Y-27.08
X23.1Y-29.62
X23.1Y-32.16
X23.1Y-34.7
X23.1Y-37.24
X23.1Y-39.78
X23.1Y-42.32
X23.1Y-44.86
X23.1Y-47.4
X23.1Y-49.94
X23.1Y-52.48
X23.1Y-55.02
X23.1Y-57.56
X23.1Y-60.1
X23.1Y-62.64
X23.1Y-65.18
X23.1Y-67.72
X23.1Y-70.26
X24.0Y-78.0
X24.0Y-90.0
X26.54Y-78.0
X26.54Y-90.0
X29.08Y-78.0
X29.08Y-90.0
X31.62Y-78.0
X33.5Y-102.0
X34.16Y-78.0
X34.16Y-90.0
X36.04Y-102.0
X36.7Y-78.0
X36.7Y-90.0
X39.24Y-90.0
X40.88Y-22.0
X40.88Y-24.54
X40.88Y-27.08
X40.88Y-29.62
X40.88Y-32.16
X40.88Y-34.7
X40.88Y-37.24
X40.88Y-39.78
X40.88Y-42.32
X40.88Y-44.86
X40.88Y-47.4
X40.88Y-49.94
X40.88Y-52.48
X40.88Y-55.02
X40.88Y-57.56
X40.88Y-60.1
X40.88Y-62.64
X40.88Y-65.18
X40.88Y-67.72
X40.88Y-70.26
T4
X46.3Y-42.0
X48.84Y-42.0
X51.38Y-42.0
X53.92Y-42.0
X59.0Y-42.0
X61.54Y-42.0
X66.62Y-42.0
X69.16Y-42.0
X71.7Y-42.0
T6
X67.5Y-51.5
X67.5Y-67.5
X67.5Y-83.5
T7
X25.0Y-104.0
X47.5Y-59.0
X47.5Y-104.0
X70.0Y-104.0
T5
X66.95Y-46.5G85X68.05Y-46.5
G05
X66.95Y-56.5G85X68.05Y-56.5
G05
X66.95Y-62.5G85X68.05Y-62.5
G05
X66.95Y-72.5G85X68.05Y-72.5
G05
X66.95Y-78.5G85X68.05Y-78.5
G05
X66.95Y-88.5G85X68.05Y-88.5
G05
X72.5Y-50.95G85X72.5Y-52.05
G05
X72.5Y-66.95G85X72.5Y-68.05
G05
X72.5Y-82.95G85X72.5Y-84.05
G05
M30
