M48
; DRILL file KiCad 10.0.4 date 2026-07-21T20:45:19
; FORMAT={-:-/ absolute / metric / decimal}
; #@! TF.CreationDate,2026-07-21T20:45:19-03:00
; #@! TF.GenerationSoftware,Kicad,Pcbnew,10.0.4
; #@! TF.FileFunction,MixedPlating,1,2
FMAT,2
METRIC
; #@! TA.AperFunction,Plated,PTH,ComponentDrill
T1C0.800
; #@! TA.AperFunction,Plated,PTH,ComponentDrill
T2C1.000
; #@! TA.AperFunction,Plated,PTH,ComponentDrill
T3C1.100
; #@! TA.AperFunction,Plated,PTH,ComponentDrill
T4C1.300
; #@! TA.AperFunction,Plated,PTH,ComponentDrill
T5C1.500
; #@! TA.AperFunction,NonPlated,NPTH,ComponentDrill
T6C3.200
%
G90
G05
T1
X35.84Y-61.0
X46.0Y-61.0
X51.5Y-57.0
X54.0Y-57.0
X58.0Y-57.0
X58.0Y-62.0
X61.84Y-57.0
X62.0Y-60.5
X62.0Y-70.66
X64.0Y-26.0
X66.0Y-65.0
X66.0Y-75.16
X66.84Y-60.5
X69.0Y-26.0
X72.0Y-26.0
X72.0Y-57.0
X77.0Y-26.0
X77.0Y-60.5
X82.0Y-30.0
X82.0Y-34.0
X92.16Y-30.0
X92.16Y-34.0
T2
X27.74Y-33.0
X27.74Y-50.78
X30.0Y-75.0
X30.28Y-33.0
X30.28Y-50.78
X32.54Y-75.0
X32.82Y-33.0
X32.82Y-50.78
X35.08Y-75.0
X35.36Y-33.0
X35.36Y-50.78
X37.62Y-75.0
X37.9Y-33.0
X37.9Y-50.78
X40.16Y-75.0
X40.44Y-33.0
X40.44Y-50.78
X42.7Y-75.0
X42.98Y-33.0
X42.98Y-50.78
X45.52Y-33.0
X45.52Y-50.78
X48.06Y-33.0
X48.06Y-50.78
X50.6Y-33.0
X50.6Y-50.78
X53.14Y-33.0
X53.14Y-50.78
X54.0Y-75.0
X55.68Y-33.0
X55.68Y-50.78
X56.54Y-75.0
X58.22Y-33.0
X58.22Y-50.78
X59.08Y-75.0
X60.76Y-33.0
X60.76Y-50.78
X63.3Y-33.0
X63.3Y-50.78
X65.84Y-33.0
X65.84Y-50.78
X68.38Y-33.0
X68.38Y-50.78
X70.92Y-33.0
X70.92Y-50.78
X71.0Y-75.0
X73.46Y-33.0
X73.46Y-50.78
X73.54Y-75.0
X76.0Y-33.0
X76.0Y-50.78
X80.0Y-75.0
X82.54Y-75.0
X85.08Y-75.0
T3
X30.0Y-65.0
X32.54Y-65.0
X35.08Y-65.0
X37.62Y-65.0
X40.16Y-65.0
X42.7Y-65.0
X45.24Y-65.0
X47.78Y-65.0
X50.32Y-65.0
T5
X32.0Y-27.0
X48.0Y-27.0
X104.0Y-27.0
T6
X24.0Y-76.0
X94.0Y-25.0
X112.0Y-48.0
X112.0Y-70.0
T4
X27.0Y-27.55G85X27.0Y-26.45
G05
X31.45Y-22.0G85X32.55Y-22.0
G05
X37.0Y-27.55G85X37.0Y-26.45
G05
X43.0Y-27.55G85X43.0Y-26.45
G05
X47.45Y-22.0G85X48.55Y-22.0
G05
X53.0Y-27.55G85X53.0Y-26.45
G05
X99.0Y-27.55G85X99.0Y-26.45
G05
X103.45Y-22.0G85X104.55Y-22.0
G05
X109.0Y-27.55G85X109.0Y-26.45
G05
M30
