%TF.GenerationSoftware,KiCad,Pcbnew,10.0.4*%
%TF.CreationDate,2026-08-19T00:13:11-03:00*%
%TF.ProjectId,pong-retrosc,706f6e67-2d72-4657-9472-6f73632e6b69,rev?*%
%TF.SameCoordinates,Original*%
%TF.FileFunction,Legend,Top*%
%TF.FilePolarity,Positive*%
%FSLAX46Y46*%
G04 Gerber Fmt 4.6, Leading zero omitted, Abs format (unit mm)*
G04 Created by KiCad (PCBNEW 10.0.4) date 2026-08-19 00:13:11*
%MOMM*%
%LPD*%
G01*
G04 APERTURE LIST*
G04 Aperture macros list*
%AMRoundRect*
0 Rectangle with rounded corners*
0 $1 Rounding radius*
0 $2 $3 $4 $5 $6 $7 $8 $9 X,Y pos of 4 corners*
0 Add a 4 corners polygon primitive as box body*
4,1,4,$2,$3,$4,$5,$6,$7,$8,$9,$2,$3,0*
0 Add four circle primitives for the rounded corners*
1,1,$1+$1,$2,$3*
1,1,$1+$1,$4,$5*
1,1,$1+$1,$6,$7*
1,1,$1+$1,$8,$9*
0 Add four rect primitives between the rounded corners*
20,1,$1+$1,$2,$3,$4,$5,0*
20,1,$1+$1,$4,$5,$6,$7,0*
20,1,$1+$1,$6,$7,$8,$9,0*
20,1,$1+$1,$8,$9,$2,$3,0*%
%AMFreePoly0*
4,1,37,0.603843,0.796157,0.639018,0.796157,0.711114,0.766294,0.766294,0.711114,0.796157,0.639018,0.796157,0.603843,0.800000,0.600000,0.800000,-0.600000,0.796157,-0.603843,0.796157,-0.639018,0.766294,-0.711114,0.711114,-0.766294,0.639018,-0.796157,0.603843,-0.796157,0.600000,-0.800000,0.000000,-0.800000,0.000000,-0.796148,-0.078414,-0.796148,-0.232228,-0.765552,-0.377117,-0.705537,
-0.507515,-0.618408,-0.618408,-0.507515,-0.705537,-0.377117,-0.765552,-0.232228,-0.796148,-0.078414,-0.796148,0.078414,-0.765552,0.232228,-0.705537,0.377117,-0.618408,0.507515,-0.507515,0.618408,-0.377117,0.705537,-0.232228,0.765552,-0.078414,0.796148,0.000000,0.796148,0.000000,0.800000,0.600000,0.800000,0.603843,0.796157,0.603843,0.796157,$1*%
%AMFreePoly1*
4,1,37,0.000000,0.796148,0.078414,0.796148,0.232228,0.765552,0.377117,0.705537,0.507515,0.618408,0.618408,0.507515,0.705537,0.377117,0.765552,0.232228,0.796148,0.078414,0.796148,-0.078414,0.765552,-0.232228,0.705537,-0.377117,0.618408,-0.507515,0.507515,-0.618408,0.377117,-0.705537,0.232228,-0.765552,0.078414,-0.796148,0.000000,-0.796148,0.000000,-0.800000,-0.600000,-0.800000,
-0.603843,-0.796157,-0.639018,-0.796157,-0.711114,-0.766294,-0.766294,-0.711114,-0.796157,-0.639018,-0.796157,-0.603843,-0.800000,-0.600000,-0.800000,0.600000,-0.796157,0.603843,-0.796157,0.639018,-0.766294,0.711114,-0.711114,0.766294,-0.639018,0.796157,-0.603843,0.796157,-0.600000,0.800000,0.000000,0.800000,0.000000,0.796148,0.000000,0.796148,$1*%
G04 Aperture macros list end*
%ADD10C,0.120000*%
%ADD11C,0.150000*%
%ADD12C,0.125000*%
%ADD13C,3.200000*%
%ADD14R,1.700000X1.700000*%
%ADD15C,1.700000*%
%ADD16C,2.600000*%
%ADD17O,3.400000X2.300000*%
%ADD18O,2.300000X3.400000*%
%ADD19C,1.600000*%
%ADD20RoundRect,0.200000X-0.600000X-0.600000X0.600000X-0.600000X0.600000X0.600000X-0.600000X0.600000X0*%
%ADD21FreePoly0,0.000000*%
%ADD22FreePoly1,0.000000*%
%ADD23R,1.900000X1.900000*%
%ADD24C,1.900000*%
%ADD25RoundRect,0.250000X-0.550000X-0.550000X0.550000X-0.550000X0.550000X0.550000X-0.550000X0.550000X0*%
G04 APERTURE END LIST*
G36*
X25270000Y-60590000D02*
G01*
X25509999Y-60590000D01*
X25509999Y-63250000D01*
X25270000Y-63250000D01*
X25270000Y-60590000D01*
G37*
G36*
X25490000Y-59710000D02*
G01*
X25730000Y-59710000D01*
X25730000Y-64129999D01*
X25490000Y-64129999D01*
X25490000Y-59710000D01*
G37*
G36*
X25710000Y-59270000D02*
G01*
X25950000Y-59270000D01*
X25950000Y-60390000D01*
X25710000Y-60390000D01*
X25710000Y-59270000D01*
G37*
G36*
X25710000Y-63450000D02*
G01*
X25950000Y-63450000D01*
X25950000Y-64569999D01*
X25710000Y-64569999D01*
X25710000Y-63450000D01*
G37*
G36*
X25930000Y-58830000D02*
G01*
X26170000Y-58830000D01*
X26170000Y-59730000D01*
X25930000Y-59730000D01*
X25930000Y-58830000D01*
G37*
G36*
X25930000Y-64110000D02*
G01*
X26170000Y-64110000D01*
X26170000Y-65009999D01*
X25930000Y-65009999D01*
X25930000Y-64110000D01*
G37*
G36*
X26150000Y-58390000D02*
G01*
X26390000Y-58390000D01*
X26390000Y-59070000D01*
X26150000Y-59070000D01*
X26150000Y-58390000D01*
G37*
G36*
X26150000Y-64770000D02*
G01*
X26390000Y-64770000D01*
X26390000Y-65449999D01*
X26150000Y-65449999D01*
X26150000Y-64770000D01*
G37*
G36*
X26370000Y-58170000D02*
G01*
X26610000Y-58170000D01*
X26610000Y-58850000D01*
X26370000Y-58850000D01*
X26370000Y-58170000D01*
G37*
G36*
X26370000Y-61470000D02*
G01*
X26610000Y-61470000D01*
X26610000Y-62370000D01*
X26370000Y-62370000D01*
X26370000Y-61470000D01*
G37*
G36*
X26370000Y-64990000D02*
G01*
X26610000Y-64990000D01*
X26610000Y-65670000D01*
X26370000Y-65670000D01*
X26370000Y-64990000D01*
G37*
G36*
X26590000Y-49150000D02*
G01*
X26830000Y-49150000D01*
X26830000Y-50490000D01*
X26590000Y-50490000D01*
X26590000Y-49150000D01*
G37*
G36*
X26590000Y-51790000D02*
G01*
X26830000Y-51790000D01*
X26830000Y-52910000D01*
X26590000Y-52910000D01*
X26590000Y-51790000D01*
G37*
G36*
X26590000Y-57510000D02*
G01*
X26830000Y-57510000D01*
X26830000Y-58410000D01*
X26590000Y-58410000D01*
X26590000Y-57510000D01*
G37*
G36*
X26590000Y-60370000D02*
G01*
X26830000Y-60370000D01*
X26830000Y-63470000D01*
X26590000Y-63470000D01*
X26590000Y-60370000D01*
G37*
G36*
X26590000Y-65430000D02*
G01*
X26830000Y-65430000D01*
X26830000Y-66110000D01*
X26590000Y-66110000D01*
X26590000Y-65430000D01*
G37*
G36*
X26810000Y-20990000D02*
G01*
X27050000Y-20990000D01*
X27050000Y-25630000D01*
X26810000Y-25630000D01*
X26810000Y-20990000D01*
G37*
G36*
X26810000Y-27370000D02*
G01*
X27050000Y-27370000D01*
X27050000Y-39050000D01*
X26810000Y-39050000D01*
X26810000Y-27370000D01*
G37*
G36*
X26810000Y-40790000D02*
G01*
X27050000Y-40790000D01*
X27050000Y-50270000D01*
X26810000Y-50270000D01*
X26810000Y-40790000D01*
G37*
G36*
X26810000Y-51570000D02*
G01*
X27050000Y-51570000D01*
X27050000Y-52910000D01*
X26810000Y-52910000D01*
X26810000Y-51570000D01*
G37*
G36*
X26810000Y-57290000D02*
G01*
X27050000Y-57290000D01*
X27050000Y-58190000D01*
X26810000Y-58190000D01*
X26810000Y-57290000D01*
G37*
G36*
X26810000Y-59710000D02*
G01*
X27050000Y-59710000D01*
X27050000Y-64129999D01*
X26810000Y-64129999D01*
X26810000Y-59710000D01*
G37*
G36*
X26810000Y-65650000D02*
G01*
X27050000Y-65650000D01*
X27050000Y-66330000D01*
X26810000Y-66330000D01*
X26810000Y-65650000D01*
G37*
G36*
X27030000Y-20990000D02*
G01*
X27270000Y-20990000D01*
X27270000Y-25410000D01*
X27030000Y-25410000D01*
X27030000Y-20990000D01*
G37*
G36*
X27030000Y-27810000D02*
G01*
X27270000Y-27810000D01*
X27270000Y-38610000D01*
X27030000Y-38610000D01*
X27030000Y-27810000D01*
G37*
G36*
X27030000Y-41010000D02*
G01*
X27270000Y-41010000D01*
X27270000Y-49390000D01*
X27030000Y-49390000D01*
X27030000Y-41010000D01*
G37*
G36*
X27030000Y-51129999D02*
G01*
X27270000Y-51129999D01*
X27270000Y-52690000D01*
X27030000Y-52690000D01*
X27030000Y-51129999D01*
G37*
G36*
X27030000Y-57070000D02*
G01*
X27270000Y-57070000D01*
X27270000Y-57530000D01*
X27030000Y-57530000D01*
X27030000Y-57070000D01*
G37*
G36*
X27030000Y-59270000D02*
G01*
X27270000Y-59270000D01*
X27270000Y-64569999D01*
X27030000Y-64569999D01*
X27030000Y-59270000D01*
G37*
G36*
X27030000Y-66090000D02*
G01*
X27270000Y-66090000D01*
X27270000Y-66550000D01*
X27030000Y-66550000D01*
X27030000Y-66090000D01*
G37*
G36*
X27250000Y-26270000D02*
G01*
X27490000Y-26270000D01*
X27490000Y-26950000D01*
X27250000Y-26950000D01*
X27250000Y-26270000D01*
G37*
G36*
X27250000Y-39470000D02*
G01*
X27490000Y-39470000D01*
X27490000Y-40150000D01*
X27250000Y-40150000D01*
X27250000Y-39470000D01*
G37*
G36*
X27250000Y-50910000D02*
G01*
X27490000Y-50910000D01*
X27490000Y-52470000D01*
X27250000Y-52470000D01*
X27250000Y-50910000D01*
G37*
G36*
X27250000Y-56850000D02*
G01*
X27490000Y-56850000D01*
X27490000Y-57309999D01*
X27250000Y-57309999D01*
X27250000Y-56850000D01*
G37*
G36*
X27250000Y-58830000D02*
G01*
X27490000Y-58830000D01*
X27490000Y-65009999D01*
X27250000Y-65009999D01*
X27250000Y-58830000D01*
G37*
G36*
X27250000Y-66310000D02*
G01*
X27490000Y-66310000D01*
X27490000Y-66769999D01*
X27250000Y-66769999D01*
X27250000Y-66310000D01*
G37*
G36*
X27470000Y-25830000D02*
G01*
X27710000Y-25830000D01*
X27710000Y-26290000D01*
X27470000Y-26290000D01*
X27470000Y-25830000D01*
G37*
G36*
X27470000Y-26710000D02*
G01*
X27710000Y-26710000D01*
X27710000Y-27390000D01*
X27470000Y-27390000D01*
X27470000Y-26710000D01*
G37*
G36*
X27470000Y-39030000D02*
G01*
X27710000Y-39030000D01*
X27710000Y-39710000D01*
X27470000Y-39710000D01*
X27470000Y-39030000D01*
G37*
G36*
X27470000Y-40129999D02*
G01*
X27710000Y-40129999D01*
X27710000Y-40590000D01*
X27470000Y-40590000D01*
X27470000Y-40129999D01*
G37*
G36*
X27470000Y-50470000D02*
G01*
X27710000Y-50470000D01*
X27710000Y-52249999D01*
X27470000Y-52249999D01*
X27470000Y-50470000D01*
G37*
G36*
X27470000Y-56630000D02*
G01*
X27710000Y-56630000D01*
X27710000Y-57090000D01*
X27470000Y-57090000D01*
X27470000Y-56630000D01*
G37*
G36*
X27470000Y-58610000D02*
G01*
X27710000Y-58610000D01*
X27710000Y-65229999D01*
X27470000Y-65229999D01*
X27470000Y-58610000D01*
G37*
G36*
X27470000Y-66530000D02*
G01*
X27710000Y-66530000D01*
X27710000Y-66989999D01*
X27470000Y-66989999D01*
X27470000Y-66530000D01*
G37*
G36*
X27690000Y-25610000D02*
G01*
X27930000Y-25610000D01*
X27930000Y-26070000D01*
X27690000Y-26070000D01*
X27690000Y-25610000D01*
G37*
G36*
X27690000Y-27150000D02*
G01*
X27930000Y-27150000D01*
X27930000Y-27610000D01*
X27690000Y-27610000D01*
X27690000Y-27150000D01*
G37*
G36*
X27690000Y-38810000D02*
G01*
X27930000Y-38810000D01*
X27930000Y-39270000D01*
X27690000Y-39270000D01*
X27690000Y-38810000D01*
G37*
G36*
X27690000Y-40349999D02*
G01*
X27930000Y-40349999D01*
X27930000Y-40810000D01*
X27690000Y-40810000D01*
X27690000Y-40349999D01*
G37*
G36*
X27690000Y-45629999D02*
G01*
X27930000Y-45629999D01*
X27930000Y-47190000D01*
X27690000Y-47190000D01*
X27690000Y-45629999D01*
G37*
G36*
X27690000Y-49810000D02*
G01*
X27930000Y-49810000D01*
X27930000Y-51810000D01*
X27690000Y-51810000D01*
X27690000Y-49810000D01*
G37*
G36*
X27690000Y-56410000D02*
G01*
X27930000Y-56410000D01*
X27930000Y-56870000D01*
X27690000Y-56870000D01*
X27690000Y-56410000D01*
G37*
G36*
X27690000Y-58170000D02*
G01*
X27930000Y-58170000D01*
X27930000Y-65670000D01*
X27690000Y-65670000D01*
X27690000Y-58170000D01*
G37*
G36*
X27690000Y-66750000D02*
G01*
X27930000Y-66750000D01*
X27930000Y-67210000D01*
X27690000Y-67210000D01*
X27690000Y-66750000D01*
G37*
G36*
X27910000Y-20990000D02*
G01*
X28150000Y-20990000D01*
X28150000Y-24530000D01*
X27910000Y-24530000D01*
X27910000Y-20990000D01*
G37*
G36*
X27910000Y-25390000D02*
G01*
X28150000Y-25390000D01*
X28150000Y-25850000D01*
X27910000Y-25850000D01*
X27910000Y-25390000D01*
G37*
G36*
X27910000Y-27370000D02*
G01*
X28150000Y-27370000D01*
X28150000Y-27830000D01*
X27910000Y-27830000D01*
X27910000Y-27370000D01*
G37*
G36*
X27910000Y-28689999D02*
G01*
X28150000Y-28689999D01*
X28150000Y-37730000D01*
X27910000Y-37730000D01*
X27910000Y-28689999D01*
G37*
G36*
X27910000Y-38810000D02*
G01*
X28150000Y-38810000D01*
X28150000Y-39050000D01*
X27910000Y-39050000D01*
X27910000Y-38810000D01*
G37*
G36*
X27910000Y-40570000D02*
G01*
X28150000Y-40570000D01*
X28150000Y-41030000D01*
X27910000Y-41030000D01*
X27910000Y-40570000D01*
G37*
G36*
X27910000Y-42110000D02*
G01*
X28150000Y-42110000D01*
X28150000Y-44550000D01*
X27910000Y-44550000D01*
X27910000Y-42110000D01*
G37*
G36*
X27910000Y-45190000D02*
G01*
X28150000Y-45190000D01*
X28150000Y-46090000D01*
X27910000Y-46090000D01*
X27910000Y-45190000D01*
G37*
G36*
X27910000Y-46730000D02*
G01*
X28150000Y-46730000D01*
X28150000Y-47630000D01*
X27910000Y-47630000D01*
X27910000Y-46730000D01*
G37*
G36*
X27910000Y-48709999D02*
G01*
X28150000Y-48709999D01*
X28150000Y-51590000D01*
X27910000Y-51590000D01*
X27910000Y-48709999D01*
G37*
G36*
X27910000Y-56410000D02*
G01*
X28150000Y-56410000D01*
X28150000Y-56870000D01*
X27910000Y-56870000D01*
X27910000Y-56410000D01*
G37*
G36*
X27910000Y-57950000D02*
G01*
X28150000Y-57950000D01*
X28150000Y-65890000D01*
X27910000Y-65890000D01*
X27910000Y-57950000D01*
G37*
G36*
X27910000Y-66750000D02*
G01*
X28150000Y-66750000D01*
X28150000Y-67210000D01*
X27910000Y-67210000D01*
X27910000Y-66750000D01*
G37*
G36*
X28130000Y-20990000D02*
G01*
X28370000Y-20990000D01*
X28370000Y-24310000D01*
X28130000Y-24310000D01*
X28130000Y-20990000D01*
G37*
G36*
X28130000Y-25170000D02*
G01*
X28370000Y-25170000D01*
X28370000Y-25630000D01*
X28130000Y-25630000D01*
X28130000Y-25170000D01*
G37*
G36*
X28130000Y-26270000D02*
G01*
X28370000Y-26270000D01*
X28370000Y-26730000D01*
X28130000Y-26730000D01*
X28130000Y-26270000D01*
G37*
G36*
X28130000Y-27590000D02*
G01*
X28370000Y-27590000D01*
X28370000Y-28049999D01*
X28130000Y-28049999D01*
X28130000Y-27590000D01*
G37*
G36*
X28130000Y-28910000D02*
G01*
X28370000Y-28910000D01*
X28370000Y-37730000D01*
X28130000Y-37730000D01*
X28130000Y-28910000D01*
G37*
G36*
X28130000Y-38590000D02*
G01*
X28370000Y-38590000D01*
X28370000Y-39050000D01*
X28130000Y-39050000D01*
X28130000Y-38590000D01*
G37*
G36*
X28130000Y-39690000D02*
G01*
X28370000Y-39690000D01*
X28370000Y-40150000D01*
X28130000Y-40150000D01*
X28130000Y-39690000D01*
G37*
G36*
X28130000Y-40790000D02*
G01*
X28370000Y-40790000D01*
X28370000Y-41250000D01*
X28130000Y-41250000D01*
X28130000Y-40790000D01*
G37*
G36*
X28130000Y-42110000D02*
G01*
X28370000Y-42110000D01*
X28370000Y-44550000D01*
X28130000Y-44550000D01*
X28130000Y-42110000D01*
G37*
G36*
X28130000Y-45190000D02*
G01*
X28370000Y-45190000D01*
X28370000Y-45430000D01*
X28130000Y-45430000D01*
X28130000Y-45190000D01*
G37*
G36*
X28130000Y-47390000D02*
G01*
X28370000Y-47390000D01*
X28370000Y-47850000D01*
X28130000Y-47850000D01*
X28130000Y-47390000D01*
G37*
G36*
X28130000Y-48930000D02*
G01*
X28370000Y-48930000D01*
X28370000Y-51150000D01*
X28130000Y-51150000D01*
X28130000Y-48930000D01*
G37*
G36*
X28130000Y-56190000D02*
G01*
X28370000Y-56190000D01*
X28370000Y-56650000D01*
X28130000Y-56650000D01*
X28130000Y-56190000D01*
G37*
G36*
X28130000Y-57510000D02*
G01*
X28370000Y-57510000D01*
X28370000Y-66110000D01*
X28130000Y-66110000D01*
X28130000Y-57510000D01*
G37*
G36*
X28130000Y-66970000D02*
G01*
X28370000Y-66970000D01*
X28370000Y-67430000D01*
X28130000Y-67430000D01*
X28130000Y-66970000D01*
G37*
G36*
X28350000Y-20990000D02*
G01*
X28590000Y-20990000D01*
X28590000Y-22550000D01*
X28350000Y-22550000D01*
X28350000Y-20990000D01*
G37*
G36*
X28350000Y-25170000D02*
G01*
X28590000Y-25170000D01*
X28590000Y-25410000D01*
X28350000Y-25410000D01*
X28350000Y-25170000D01*
G37*
G36*
X28350000Y-26270000D02*
G01*
X28590000Y-26270000D01*
X28590000Y-26950000D01*
X28350000Y-26950000D01*
X28350000Y-26270000D01*
G37*
G36*
X28350000Y-27810000D02*
G01*
X28590000Y-27810000D01*
X28590000Y-28270000D01*
X28350000Y-28270000D01*
X28350000Y-27810000D01*
G37*
G36*
X28350000Y-31990000D02*
G01*
X28590000Y-31990000D01*
X28590000Y-32670000D01*
X28350000Y-32670000D01*
X28350000Y-31990000D01*
G37*
G36*
X28350000Y-38370000D02*
G01*
X28590000Y-38370000D01*
X28590000Y-38830000D01*
X28350000Y-38830000D01*
X28350000Y-38370000D01*
G37*
G36*
X28350000Y-39690000D02*
G01*
X28590000Y-39690000D01*
X28590000Y-40370000D01*
X28350000Y-40370000D01*
X28350000Y-39690000D01*
G37*
G36*
X28350000Y-41010000D02*
G01*
X28590000Y-41010000D01*
X28590000Y-41470000D01*
X28350000Y-41470000D01*
X28350000Y-41010000D01*
G37*
G36*
X28350000Y-43870000D02*
G01*
X28590000Y-43870000D01*
X28590000Y-44550000D01*
X28350000Y-44550000D01*
X28350000Y-43870000D01*
G37*
G36*
X28350000Y-44970000D02*
G01*
X28590000Y-44970000D01*
X28590000Y-45430000D01*
X28350000Y-45430000D01*
X28350000Y-44970000D01*
G37*
G36*
X28350000Y-47610000D02*
G01*
X28590000Y-47610000D01*
X28590000Y-48070000D01*
X28350000Y-48070000D01*
X28350000Y-47610000D01*
G37*
G36*
X28350000Y-55970000D02*
G01*
X28590000Y-55970000D01*
X28590000Y-56430000D01*
X28350000Y-56430000D01*
X28350000Y-55970000D01*
G37*
G36*
X28350000Y-57290000D02*
G01*
X28590000Y-57290000D01*
X28590000Y-66330000D01*
X28350000Y-66330000D01*
X28350000Y-57290000D01*
G37*
G36*
X28350000Y-67190000D02*
G01*
X28590000Y-67190000D01*
X28590000Y-67650000D01*
X28350000Y-67650000D01*
X28350000Y-67190000D01*
G37*
G36*
X28570000Y-24950000D02*
G01*
X28810000Y-24950000D01*
X28810000Y-25189999D01*
X28570000Y-25189999D01*
X28570000Y-24950000D01*
G37*
G36*
X28570000Y-26050000D02*
G01*
X28810000Y-26050000D01*
X28810000Y-27170000D01*
X28570000Y-27170000D01*
X28570000Y-26050000D01*
G37*
G36*
X28570000Y-28030000D02*
G01*
X28810000Y-28030000D01*
X28810000Y-28270000D01*
X28570000Y-28270000D01*
X28570000Y-28030000D01*
G37*
G36*
X28570000Y-38150000D02*
G01*
X28810000Y-38150000D01*
X28810000Y-38610000D01*
X28570000Y-38610000D01*
X28570000Y-38150000D01*
G37*
G36*
X28570000Y-39470000D02*
G01*
X28810000Y-39470000D01*
X28810000Y-40590000D01*
X28570000Y-40590000D01*
X28570000Y-39470000D01*
G37*
G36*
X28570000Y-41230000D02*
G01*
X28810000Y-41230000D01*
X28810000Y-41690000D01*
X28570000Y-41690000D01*
X28570000Y-41230000D01*
G37*
G36*
X28570000Y-44970000D02*
G01*
X28810000Y-44970000D01*
X28810000Y-45430000D01*
X28570000Y-45430000D01*
X28570000Y-44970000D01*
G37*
G36*
X28570000Y-45849999D02*
G01*
X28810000Y-45849999D01*
X28810000Y-46970000D01*
X28570000Y-46970000D01*
X28570000Y-45849999D01*
G37*
G36*
X28570000Y-47830000D02*
G01*
X28810000Y-47830000D01*
X28810000Y-48290000D01*
X28570000Y-48290000D01*
X28570000Y-47830000D01*
G37*
G36*
X28570000Y-55970000D02*
G01*
X28810000Y-55970000D01*
X28810000Y-56430000D01*
X28570000Y-56430000D01*
X28570000Y-55970000D01*
G37*
G36*
X28570000Y-57290000D02*
G01*
X28810000Y-57290000D01*
X28810000Y-58190000D01*
X28570000Y-58190000D01*
X28570000Y-57290000D01*
G37*
G36*
X28570000Y-59490000D02*
G01*
X28810000Y-59490000D01*
X28810000Y-64349999D01*
X28570000Y-64349999D01*
X28570000Y-59490000D01*
G37*
G36*
X28570000Y-65650000D02*
G01*
X28810000Y-65650000D01*
X28810000Y-66330000D01*
X28570000Y-66330000D01*
X28570000Y-65650000D01*
G37*
G36*
X28570000Y-67410000D02*
G01*
X28810000Y-67410000D01*
X28810000Y-67650000D01*
X28570000Y-67650000D01*
X28570000Y-67410000D01*
G37*
G36*
X28790000Y-24509999D02*
G01*
X29030000Y-24509999D01*
X29030000Y-25189999D01*
X28790000Y-25189999D01*
X28790000Y-24509999D01*
G37*
G36*
X28790000Y-25830000D02*
G01*
X29030000Y-25830000D01*
X29030000Y-27610000D01*
X28790000Y-27610000D01*
X28790000Y-25830000D01*
G37*
G36*
X28790000Y-28030000D02*
G01*
X29030000Y-28030000D01*
X29030000Y-28490000D01*
X28790000Y-28490000D01*
X28790000Y-28030000D01*
G37*
G36*
X28790000Y-37930000D02*
G01*
X29030000Y-37930000D01*
X29030000Y-38390000D01*
X28790000Y-38390000D01*
X28790000Y-37930000D01*
G37*
G36*
X28790000Y-39250000D02*
G01*
X29030000Y-39250000D01*
X29030000Y-41030000D01*
X28790000Y-41030000D01*
X28790000Y-39250000D01*
G37*
G36*
X28790000Y-41450000D02*
G01*
X29030000Y-41450000D01*
X29030000Y-41690000D01*
X28790000Y-41690000D01*
X28790000Y-41450000D01*
G37*
G36*
X28790000Y-44970000D02*
G01*
X29030000Y-44970000D01*
X29030000Y-45430000D01*
X28790000Y-45430000D01*
X28790000Y-44970000D01*
G37*
G36*
X28790000Y-45849999D02*
G01*
X29030000Y-45849999D01*
X29030000Y-47190000D01*
X28790000Y-47190000D01*
X28790000Y-45849999D01*
G37*
G36*
X28790000Y-48050000D02*
G01*
X29030000Y-48050000D01*
X29030000Y-48510000D01*
X28790000Y-48510000D01*
X28790000Y-48050000D01*
G37*
G36*
X28790000Y-55750000D02*
G01*
X29030000Y-55750000D01*
X29030000Y-56210000D01*
X28790000Y-56210000D01*
X28790000Y-55750000D01*
G37*
G36*
X28790000Y-57070000D02*
G01*
X29030000Y-57070000D01*
X29030000Y-58190000D01*
X28790000Y-58190000D01*
X28790000Y-57070000D01*
G37*
G36*
X28790000Y-59490000D02*
G01*
X29030000Y-59490000D01*
X29030000Y-64349999D01*
X28790000Y-64349999D01*
X28790000Y-59490000D01*
G37*
G36*
X28790000Y-65650000D02*
G01*
X29030000Y-65650000D01*
X29030000Y-66550000D01*
X28790000Y-66550000D01*
X28790000Y-65650000D01*
G37*
G36*
X28790000Y-67410000D02*
G01*
X29030000Y-67410000D01*
X29030000Y-67870000D01*
X28790000Y-67870000D01*
X28790000Y-67410000D01*
G37*
G36*
X29009999Y-22530000D02*
G01*
X29250000Y-22530000D01*
X29250000Y-24970000D01*
X29009999Y-24970000D01*
X29009999Y-22530000D01*
G37*
G36*
X29009999Y-25610000D02*
G01*
X29250000Y-25610000D01*
X29250000Y-27390000D01*
X29009999Y-27390000D01*
X29009999Y-25610000D01*
G37*
G36*
X29009999Y-28030000D02*
G01*
X29250000Y-28030000D01*
X29250000Y-32009999D01*
X29009999Y-32009999D01*
X29009999Y-28030000D01*
G37*
G36*
X29009999Y-32650000D02*
G01*
X29250000Y-32650000D01*
X29250000Y-38170000D01*
X29009999Y-38170000D01*
X29009999Y-32650000D01*
G37*
G36*
X29009999Y-39030000D02*
G01*
X29250000Y-39030000D01*
X29250000Y-40810000D01*
X29009999Y-40810000D01*
X29009999Y-39030000D01*
G37*
G36*
X29009999Y-41450000D02*
G01*
X29250000Y-41450000D01*
X29250000Y-43890000D01*
X29009999Y-43890000D01*
X29009999Y-41450000D01*
G37*
G36*
X29009999Y-44970000D02*
G01*
X29250000Y-44970000D01*
X29250000Y-45430000D01*
X29009999Y-45430000D01*
X29009999Y-44970000D01*
G37*
G36*
X29009999Y-45849999D02*
G01*
X29250000Y-45849999D01*
X29250000Y-47630000D01*
X29009999Y-47630000D01*
X29009999Y-45849999D01*
G37*
G36*
X29009999Y-48269999D02*
G01*
X29250000Y-48269999D01*
X29250000Y-52910000D01*
X29009999Y-52910000D01*
X29009999Y-48269999D01*
G37*
G36*
X29009999Y-55750000D02*
G01*
X29250000Y-55750000D01*
X29250000Y-55989999D01*
X29009999Y-55989999D01*
X29009999Y-55750000D01*
G37*
G36*
X29009999Y-56850000D02*
G01*
X29250000Y-56850000D01*
X29250000Y-58190000D01*
X29009999Y-58190000D01*
X29009999Y-56850000D01*
G37*
G36*
X29009999Y-59490000D02*
G01*
X29250000Y-59490000D01*
X29250000Y-64349999D01*
X29009999Y-64349999D01*
X29009999Y-59490000D01*
G37*
G36*
X29009999Y-65650000D02*
G01*
X29250000Y-65650000D01*
X29250000Y-66769999D01*
X29009999Y-66769999D01*
X29009999Y-65650000D01*
G37*
G36*
X29009999Y-67630000D02*
G01*
X29250000Y-67630000D01*
X29250000Y-67870000D01*
X29009999Y-67870000D01*
X29009999Y-67630000D01*
G37*
G36*
X29230000Y-22310000D02*
G01*
X29470000Y-22310000D01*
X29470000Y-22770000D01*
X29230000Y-22770000D01*
X29230000Y-22310000D01*
G37*
G36*
X29230000Y-25390000D02*
G01*
X29470000Y-25390000D01*
X29470000Y-27170000D01*
X29230000Y-27170000D01*
X29230000Y-25390000D01*
G37*
G36*
X29230000Y-31770000D02*
G01*
X29470000Y-31770000D01*
X29470000Y-32890000D01*
X29230000Y-32890000D01*
X29230000Y-31770000D01*
G37*
G36*
X29230000Y-38810000D02*
G01*
X29470000Y-38810000D01*
X29470000Y-40590000D01*
X29230000Y-40590000D01*
X29230000Y-38810000D01*
G37*
G36*
X29230000Y-43650000D02*
G01*
X29470000Y-43650000D01*
X29470000Y-44110000D01*
X29230000Y-44110000D01*
X29230000Y-43650000D01*
G37*
G36*
X29230000Y-44970000D02*
G01*
X29470000Y-44970000D01*
X29470000Y-45430000D01*
X29230000Y-45430000D01*
X29230000Y-44970000D01*
G37*
G36*
X29230000Y-45849999D02*
G01*
X29470000Y-45849999D01*
X29470000Y-47850000D01*
X29230000Y-47850000D01*
X29230000Y-45849999D01*
G37*
G36*
X29230000Y-52670000D02*
G01*
X29470000Y-52670000D01*
X29470000Y-53129999D01*
X29230000Y-53129999D01*
X29230000Y-52670000D01*
G37*
G36*
X29230000Y-55530000D02*
G01*
X29470000Y-55530000D01*
X29470000Y-55989999D01*
X29230000Y-55989999D01*
X29230000Y-55530000D01*
G37*
G36*
X29230000Y-56850000D02*
G01*
X29470000Y-56850000D01*
X29470000Y-58190000D01*
X29230000Y-58190000D01*
X29230000Y-56850000D01*
G37*
G36*
X29230000Y-59490000D02*
G01*
X29470000Y-59490000D01*
X29470000Y-64349999D01*
X29230000Y-64349999D01*
X29230000Y-59490000D01*
G37*
G36*
X29230000Y-65650000D02*
G01*
X29470000Y-65650000D01*
X29470000Y-66769999D01*
X29230000Y-66769999D01*
X29230000Y-65650000D01*
G37*
G36*
X29230000Y-67630000D02*
G01*
X29470000Y-67630000D01*
X29470000Y-68090000D01*
X29230000Y-68090000D01*
X29230000Y-67630000D01*
G37*
G36*
X29450000Y-22090000D02*
G01*
X29690000Y-22090000D01*
X29690000Y-22550000D01*
X29450000Y-22550000D01*
X29450000Y-22090000D01*
G37*
G36*
X29450000Y-25170000D02*
G01*
X29690000Y-25170000D01*
X29690000Y-26950000D01*
X29450000Y-26950000D01*
X29450000Y-25170000D01*
G37*
G36*
X29450000Y-31990000D02*
G01*
X29690000Y-31990000D01*
X29690000Y-32670000D01*
X29450000Y-32670000D01*
X29450000Y-31990000D01*
G37*
G36*
X29450000Y-38590000D02*
G01*
X29690000Y-38590000D01*
X29690000Y-40370000D01*
X29450000Y-40370000D01*
X29450000Y-38590000D01*
G37*
G36*
X29450000Y-43870000D02*
G01*
X29690000Y-43870000D01*
X29690000Y-44330000D01*
X29450000Y-44330000D01*
X29450000Y-43870000D01*
G37*
G36*
X29450000Y-44970000D02*
G01*
X29690000Y-44970000D01*
X29690000Y-45430000D01*
X29450000Y-45430000D01*
X29450000Y-44970000D01*
G37*
G36*
X29450000Y-45849999D02*
G01*
X29690000Y-45849999D01*
X29690000Y-48070000D01*
X29450000Y-48070000D01*
X29450000Y-45849999D01*
G37*
G36*
X29450000Y-52890000D02*
G01*
X29690000Y-52890000D01*
X29690000Y-53350000D01*
X29450000Y-53350000D01*
X29450000Y-52890000D01*
G37*
G36*
X29450000Y-55530000D02*
G01*
X29690000Y-55530000D01*
X29690000Y-55989999D01*
X29450000Y-55989999D01*
X29450000Y-55530000D01*
G37*
G36*
X29450000Y-56630000D02*
G01*
X29690000Y-56630000D01*
X29690000Y-58190000D01*
X29450000Y-58190000D01*
X29450000Y-56630000D01*
G37*
G36*
X29450000Y-59490000D02*
G01*
X29690000Y-59490000D01*
X29690000Y-64349999D01*
X29450000Y-64349999D01*
X29450000Y-59490000D01*
G37*
G36*
X29450000Y-65650000D02*
G01*
X29690000Y-65650000D01*
X29690000Y-66989999D01*
X29450000Y-66989999D01*
X29450000Y-65650000D01*
G37*
G36*
X29450000Y-67630000D02*
G01*
X29690000Y-67630000D01*
X29690000Y-68090000D01*
X29450000Y-68090000D01*
X29450000Y-67630000D01*
G37*
G36*
X29670000Y-22090000D02*
G01*
X29910000Y-22090000D01*
X29910000Y-22330000D01*
X29670000Y-22330000D01*
X29670000Y-22090000D01*
G37*
G36*
X29670000Y-24950000D02*
G01*
X29910000Y-24950000D01*
X29910000Y-26730000D01*
X29670000Y-26730000D01*
X29670000Y-24950000D01*
G37*
G36*
X29670000Y-32210000D02*
G01*
X29910000Y-32210000D01*
X29910000Y-32450000D01*
X29670000Y-32450000D01*
X29670000Y-32210000D01*
G37*
G36*
X29670000Y-38370000D02*
G01*
X29910000Y-38370000D01*
X29910000Y-40150000D01*
X29670000Y-40150000D01*
X29670000Y-38370000D01*
G37*
G36*
X29670000Y-44310000D02*
G01*
X29910000Y-44310000D01*
X29910000Y-45210000D01*
X29670000Y-45210000D01*
X29670000Y-44310000D01*
G37*
G36*
X29670000Y-45849999D02*
G01*
X29910000Y-45849999D01*
X29910000Y-48290000D01*
X29670000Y-48290000D01*
X29670000Y-45849999D01*
G37*
G36*
X29670000Y-53110000D02*
G01*
X29910000Y-53110000D01*
X29910000Y-53350000D01*
X29670000Y-53350000D01*
X29670000Y-53110000D01*
G37*
G36*
X29670000Y-55310000D02*
G01*
X29910000Y-55310000D01*
X29910000Y-55769999D01*
X29670000Y-55769999D01*
X29670000Y-55310000D01*
G37*
G36*
X29670000Y-56630000D02*
G01*
X29910000Y-56630000D01*
X29910000Y-58190000D01*
X29670000Y-58190000D01*
X29670000Y-56630000D01*
G37*
G36*
X29670000Y-59490000D02*
G01*
X29910000Y-59490000D01*
X29910000Y-64349999D01*
X29670000Y-64349999D01*
X29670000Y-59490000D01*
G37*
G36*
X29670000Y-65650000D02*
G01*
X29910000Y-65650000D01*
X29910000Y-66989999D01*
X29670000Y-66989999D01*
X29670000Y-65650000D01*
G37*
G36*
X29670000Y-67850000D02*
G01*
X29910000Y-67850000D01*
X29910000Y-68310000D01*
X29670000Y-68310000D01*
X29670000Y-67850000D01*
G37*
G36*
X29890000Y-22090000D02*
G01*
X30130000Y-22090000D01*
X30130000Y-22330000D01*
X29890000Y-22330000D01*
X29890000Y-22090000D01*
G37*
G36*
X29890000Y-22970000D02*
G01*
X30130000Y-22970000D01*
X30130000Y-24310000D01*
X29890000Y-24310000D01*
X29890000Y-22970000D01*
G37*
G36*
X29890000Y-24730000D02*
G01*
X30130000Y-24730000D01*
X30130000Y-26730000D01*
X29890000Y-26730000D01*
X29890000Y-24730000D01*
G37*
G36*
X29890000Y-28250000D02*
G01*
X30130000Y-28250000D01*
X30130000Y-31570000D01*
X29890000Y-31570000D01*
X29890000Y-28250000D01*
G37*
G36*
X29890000Y-32210000D02*
G01*
X30130000Y-32210000D01*
X30130000Y-32450000D01*
X29890000Y-32450000D01*
X29890000Y-32210000D01*
G37*
G36*
X29890000Y-33090000D02*
G01*
X30130000Y-33090000D01*
X30130000Y-35970000D01*
X29890000Y-35970000D01*
X29890000Y-33090000D01*
G37*
G36*
X29890000Y-36170000D02*
G01*
X30130000Y-36170000D01*
X30130000Y-37730000D01*
X29890000Y-37730000D01*
X29890000Y-36170000D01*
G37*
G36*
X29890000Y-38150000D02*
G01*
X30130000Y-38150000D01*
X30130000Y-39930000D01*
X29890000Y-39930000D01*
X29890000Y-38150000D01*
G37*
G36*
X29890000Y-40790000D02*
G01*
X30130000Y-40790000D01*
X30130000Y-43670000D01*
X29890000Y-43670000D01*
X29890000Y-40790000D01*
G37*
G36*
X29890000Y-44530000D02*
G01*
X30130000Y-44530000D01*
X30130000Y-45210000D01*
X29890000Y-45210000D01*
X29890000Y-44530000D01*
G37*
G36*
X29890000Y-46950000D02*
G01*
X30130000Y-46950000D01*
X30130000Y-48510000D01*
X29890000Y-48510000D01*
X29890000Y-46950000D01*
G37*
G36*
X29890000Y-48930000D02*
G01*
X30130000Y-48930000D01*
X30130000Y-52470000D01*
X29890000Y-52470000D01*
X29890000Y-48930000D01*
G37*
G36*
X29890000Y-53110000D02*
G01*
X30130000Y-53110000D01*
X30130000Y-53350000D01*
X29890000Y-53350000D01*
X29890000Y-53110000D01*
G37*
G36*
X29890000Y-55310000D02*
G01*
X30130000Y-55310000D01*
X30130000Y-55769999D01*
X29890000Y-55769999D01*
X29890000Y-55310000D01*
G37*
G36*
X29890000Y-56410000D02*
G01*
X30130000Y-56410000D01*
X30130000Y-58190000D01*
X29890000Y-58190000D01*
X29890000Y-56410000D01*
G37*
G36*
X29890000Y-59490000D02*
G01*
X30130000Y-59490000D01*
X30130000Y-64349999D01*
X29890000Y-64349999D01*
X29890000Y-59490000D01*
G37*
G36*
X29890000Y-65650000D02*
G01*
X30130000Y-65650000D01*
X30130000Y-67210000D01*
X29890000Y-67210000D01*
X29890000Y-65650000D01*
G37*
G36*
X29890000Y-67850000D02*
G01*
X30130000Y-67850000D01*
X30130000Y-68310000D01*
X29890000Y-68310000D01*
X29890000Y-67850000D01*
G37*
G36*
X30110000Y-22090000D02*
G01*
X30350000Y-22090000D01*
X30350000Y-22330000D01*
X30110000Y-22330000D01*
X30110000Y-22090000D01*
G37*
G36*
X30110000Y-22970000D02*
G01*
X30350000Y-22970000D01*
X30350000Y-24310000D01*
X30110000Y-24310000D01*
X30110000Y-22970000D01*
G37*
G36*
X30110000Y-24730000D02*
G01*
X30350000Y-24730000D01*
X30350000Y-26509999D01*
X30110000Y-26509999D01*
X30110000Y-24730000D01*
G37*
G36*
X30110000Y-28030000D02*
G01*
X30350000Y-28030000D01*
X30350000Y-31570000D01*
X30110000Y-31570000D01*
X30110000Y-28030000D01*
G37*
G36*
X30110000Y-32210000D02*
G01*
X30350000Y-32210000D01*
X30350000Y-32450000D01*
X30110000Y-32450000D01*
X30110000Y-32210000D01*
G37*
G36*
X30110000Y-33090000D02*
G01*
X30350000Y-33090000D01*
X30350000Y-35970000D01*
X30110000Y-35970000D01*
X30110000Y-33090000D01*
G37*
G36*
X30110000Y-36170000D02*
G01*
X30350000Y-36170000D01*
X30350000Y-37730000D01*
X30110000Y-37730000D01*
X30110000Y-36170000D01*
G37*
G36*
X30110000Y-38150000D02*
G01*
X30350000Y-38150000D01*
X30350000Y-39710000D01*
X30110000Y-39710000D01*
X30110000Y-38150000D01*
G37*
G36*
X30110000Y-40790000D02*
G01*
X30350000Y-40790000D01*
X30350000Y-43890000D01*
X30110000Y-43890000D01*
X30110000Y-40790000D01*
G37*
G36*
X30110000Y-47170000D02*
G01*
X30350000Y-47170000D01*
X30350000Y-48510000D01*
X30110000Y-48510000D01*
X30110000Y-47170000D01*
G37*
G36*
X30110000Y-48930000D02*
G01*
X30350000Y-48930000D01*
X30350000Y-52470000D01*
X30110000Y-52470000D01*
X30110000Y-48930000D01*
G37*
G36*
X30110000Y-53110000D02*
G01*
X30350000Y-53110000D01*
X30350000Y-53350000D01*
X30110000Y-53350000D01*
X30110000Y-53110000D01*
G37*
G36*
X30110000Y-55310000D02*
G01*
X30350000Y-55310000D01*
X30350000Y-55769999D01*
X30110000Y-55769999D01*
X30110000Y-55310000D01*
G37*
G36*
X30110000Y-56410000D02*
G01*
X30350000Y-56410000D01*
X30350000Y-58190000D01*
X30110000Y-58190000D01*
X30110000Y-56410000D01*
G37*
G36*
X30110000Y-59490000D02*
G01*
X30350000Y-59490000D01*
X30350000Y-64349999D01*
X30110000Y-64349999D01*
X30110000Y-59490000D01*
G37*
G36*
X30110000Y-65650000D02*
G01*
X30350000Y-65650000D01*
X30350000Y-67210000D01*
X30110000Y-67210000D01*
X30110000Y-65650000D01*
G37*
G36*
X30110000Y-67850000D02*
G01*
X30350000Y-67850000D01*
X30350000Y-68310000D01*
X30110000Y-68310000D01*
X30110000Y-67850000D01*
G37*
G36*
X30330000Y-22090000D02*
G01*
X30570000Y-22090000D01*
X30570000Y-22330000D01*
X30330000Y-22330000D01*
X30330000Y-22090000D01*
G37*
G36*
X30330000Y-22970000D02*
G01*
X30570000Y-22970000D01*
X30570000Y-24310000D01*
X30330000Y-24310000D01*
X30330000Y-22970000D01*
G37*
G36*
X30330000Y-24509999D02*
G01*
X30570000Y-24509999D01*
X30570000Y-26290000D01*
X30330000Y-26290000D01*
X30330000Y-24509999D01*
G37*
G36*
X30330000Y-27810000D02*
G01*
X30570000Y-27810000D01*
X30570000Y-31570000D01*
X30330000Y-31570000D01*
X30330000Y-27810000D01*
G37*
G36*
X30330000Y-32210000D02*
G01*
X30570000Y-32210000D01*
X30570000Y-32450000D01*
X30330000Y-32450000D01*
X30330000Y-32210000D01*
G37*
G36*
X30330000Y-33090000D02*
G01*
X30570000Y-33090000D01*
X30570000Y-35970000D01*
X30330000Y-35970000D01*
X30330000Y-33090000D01*
G37*
G36*
X30330000Y-36170000D02*
G01*
X30570000Y-36170000D01*
X30570000Y-37730000D01*
X30330000Y-37730000D01*
X30330000Y-36170000D01*
G37*
G36*
X30330000Y-37930000D02*
G01*
X30570000Y-37930000D01*
X30570000Y-39490000D01*
X30330000Y-39490000D01*
X30330000Y-37930000D01*
G37*
G36*
X30330000Y-40790000D02*
G01*
X30570000Y-40790000D01*
X30570000Y-44110000D01*
X30330000Y-44110000D01*
X30330000Y-40790000D01*
G37*
G36*
X30330000Y-46950000D02*
G01*
X30570000Y-46950000D01*
X30570000Y-48510000D01*
X30330000Y-48510000D01*
X30330000Y-46950000D01*
G37*
G36*
X30330000Y-48930000D02*
G01*
X30570000Y-48930000D01*
X30570000Y-52470000D01*
X30330000Y-52470000D01*
X30330000Y-48930000D01*
G37*
G36*
X30330000Y-53110000D02*
G01*
X30570000Y-53110000D01*
X30570000Y-53350000D01*
X30330000Y-53350000D01*
X30330000Y-53110000D01*
G37*
G36*
X30330000Y-55310000D02*
G01*
X30570000Y-55310000D01*
X30570000Y-55550000D01*
X30330000Y-55550000D01*
X30330000Y-55310000D01*
G37*
G36*
X30330000Y-56410000D02*
G01*
X30570000Y-56410000D01*
X30570000Y-58190000D01*
X30330000Y-58190000D01*
X30330000Y-56410000D01*
G37*
G36*
X30330000Y-59490000D02*
G01*
X30570000Y-59490000D01*
X30570000Y-64349999D01*
X30330000Y-64349999D01*
X30330000Y-59490000D01*
G37*
G36*
X30330000Y-65650000D02*
G01*
X30570000Y-65650000D01*
X30570000Y-67210000D01*
X30330000Y-67210000D01*
X30330000Y-65650000D01*
G37*
G36*
X30330000Y-68070000D02*
G01*
X30570000Y-68070000D01*
X30570000Y-68310000D01*
X30330000Y-68310000D01*
X30330000Y-68070000D01*
G37*
G36*
X30550000Y-22090000D02*
G01*
X30790000Y-22090000D01*
X30790000Y-22330000D01*
X30550000Y-22330000D01*
X30550000Y-22090000D01*
G37*
G36*
X30550000Y-22970000D02*
G01*
X30790000Y-22970000D01*
X30790000Y-26290000D01*
X30550000Y-26290000D01*
X30550000Y-22970000D01*
G37*
G36*
X30550000Y-27590000D02*
G01*
X30790000Y-27590000D01*
X30790000Y-31570000D01*
X30550000Y-31570000D01*
X30550000Y-27590000D01*
G37*
G36*
X30550000Y-32210000D02*
G01*
X30790000Y-32210000D01*
X30790000Y-32450000D01*
X30550000Y-32450000D01*
X30550000Y-32210000D01*
G37*
G36*
X30550000Y-33090000D02*
G01*
X30790000Y-33090000D01*
X30790000Y-35970000D01*
X30550000Y-35970000D01*
X30550000Y-33090000D01*
G37*
G36*
X30550000Y-36170000D02*
G01*
X30790000Y-36170000D01*
X30790000Y-39490000D01*
X30550000Y-39490000D01*
X30550000Y-36170000D01*
G37*
G36*
X30550000Y-40790000D02*
G01*
X30790000Y-40790000D01*
X30790000Y-44330000D01*
X30550000Y-44330000D01*
X30550000Y-40790000D01*
G37*
G36*
X30550000Y-45410000D02*
G01*
X30790000Y-45410000D01*
X30790000Y-48510000D01*
X30550000Y-48510000D01*
X30550000Y-45410000D01*
G37*
G36*
X30550000Y-48930000D02*
G01*
X30790000Y-48930000D01*
X30790000Y-52470000D01*
X30550000Y-52470000D01*
X30550000Y-48930000D01*
G37*
G36*
X30550000Y-53110000D02*
G01*
X30790000Y-53110000D01*
X30790000Y-53350000D01*
X30550000Y-53350000D01*
X30550000Y-53110000D01*
G37*
G36*
X30550000Y-55090000D02*
G01*
X30790000Y-55090000D01*
X30790000Y-55550000D01*
X30550000Y-55550000D01*
X30550000Y-55090000D01*
G37*
G36*
X30550000Y-56410000D02*
G01*
X30790000Y-56410000D01*
X30790000Y-58190000D01*
X30550000Y-58190000D01*
X30550000Y-56410000D01*
G37*
G36*
X30550000Y-59490000D02*
G01*
X30790000Y-59490000D01*
X30790000Y-64349999D01*
X30550000Y-64349999D01*
X30550000Y-59490000D01*
G37*
G36*
X30550000Y-65650000D02*
G01*
X30790000Y-65650000D01*
X30790000Y-67210000D01*
X30550000Y-67210000D01*
X30550000Y-65650000D01*
G37*
G36*
X30550000Y-68070000D02*
G01*
X30790000Y-68070000D01*
X30790000Y-68530000D01*
X30550000Y-68530000D01*
X30550000Y-68070000D01*
G37*
G36*
X30770000Y-22090000D02*
G01*
X31010000Y-22090000D01*
X31010000Y-22330000D01*
X30770000Y-22330000D01*
X30770000Y-22090000D01*
G37*
G36*
X30770000Y-22970000D02*
G01*
X31010000Y-22970000D01*
X31010000Y-26730000D01*
X30770000Y-26730000D01*
X30770000Y-22970000D01*
G37*
G36*
X30770000Y-27370000D02*
G01*
X31010000Y-27370000D01*
X31010000Y-31570000D01*
X30770000Y-31570000D01*
X30770000Y-27370000D01*
G37*
G36*
X30770000Y-32210000D02*
G01*
X31010000Y-32210000D01*
X31010000Y-32450000D01*
X30770000Y-32450000D01*
X30770000Y-32210000D01*
G37*
G36*
X30770000Y-33090000D02*
G01*
X31010000Y-33090000D01*
X31010000Y-35970000D01*
X30770000Y-35970000D01*
X30770000Y-33090000D01*
G37*
G36*
X30770000Y-36170000D02*
G01*
X31010000Y-36170000D01*
X31010000Y-39930000D01*
X30770000Y-39930000D01*
X30770000Y-36170000D01*
G37*
G36*
X30770000Y-40790000D02*
G01*
X31010000Y-40790000D01*
X31010000Y-44550000D01*
X30770000Y-44550000D01*
X30770000Y-40790000D01*
G37*
G36*
X30770000Y-45410000D02*
G01*
X31010000Y-45410000D01*
X31010000Y-48510000D01*
X30770000Y-48510000D01*
X30770000Y-45410000D01*
G37*
G36*
X30770000Y-48930000D02*
G01*
X31010000Y-48930000D01*
X31010000Y-52470000D01*
X30770000Y-52470000D01*
X30770000Y-48930000D01*
G37*
G36*
X30770000Y-53110000D02*
G01*
X31010000Y-53110000D01*
X31010000Y-53350000D01*
X30770000Y-53350000D01*
X30770000Y-53110000D01*
G37*
G36*
X30770000Y-55090000D02*
G01*
X31010000Y-55090000D01*
X31010000Y-55550000D01*
X30770000Y-55550000D01*
X30770000Y-55090000D01*
G37*
G36*
X30770000Y-56190000D02*
G01*
X31010000Y-56190000D01*
X31010000Y-58190000D01*
X30770000Y-58190000D01*
X30770000Y-56190000D01*
G37*
G36*
X30770000Y-61250000D02*
G01*
X31010000Y-61250000D01*
X31010000Y-62590000D01*
X30770000Y-62590000D01*
X30770000Y-61250000D01*
G37*
G36*
X30770000Y-65650000D02*
G01*
X31010000Y-65650000D01*
X31010000Y-67430000D01*
X30770000Y-67430000D01*
X30770000Y-65650000D01*
G37*
G36*
X30770000Y-68070000D02*
G01*
X31010000Y-68070000D01*
X31010000Y-68530000D01*
X30770000Y-68530000D01*
X30770000Y-68070000D01*
G37*
G36*
X30990000Y-22090000D02*
G01*
X31230000Y-22090000D01*
X31230000Y-22330000D01*
X30990000Y-22330000D01*
X30990000Y-22090000D01*
G37*
G36*
X30990000Y-22970000D02*
G01*
X31230000Y-22970000D01*
X31230000Y-26950000D01*
X30990000Y-26950000D01*
X30990000Y-22970000D01*
G37*
G36*
X30990000Y-27370000D02*
G01*
X31230000Y-27370000D01*
X31230000Y-30910000D01*
X30990000Y-30910000D01*
X30990000Y-27370000D01*
G37*
G36*
X30990000Y-31110000D02*
G01*
X31230000Y-31110000D01*
X31230000Y-31570000D01*
X30990000Y-31570000D01*
X30990000Y-31110000D01*
G37*
G36*
X30990000Y-32210000D02*
G01*
X31230000Y-32210000D01*
X31230000Y-32450000D01*
X30990000Y-32450000D01*
X30990000Y-32210000D01*
G37*
G36*
X30990000Y-33090000D02*
G01*
X31230000Y-33090000D01*
X31230000Y-35750000D01*
X30990000Y-35750000D01*
X30990000Y-33090000D01*
G37*
G36*
X30990000Y-36170000D02*
G01*
X31230000Y-36170000D01*
X31230000Y-40150000D01*
X30990000Y-40150000D01*
X30990000Y-36170000D01*
G37*
G36*
X30990000Y-40790000D02*
G01*
X31230000Y-40790000D01*
X31230000Y-44770000D01*
X30990000Y-44770000D01*
X30990000Y-40790000D01*
G37*
G36*
X30990000Y-45410000D02*
G01*
X31230000Y-45410000D01*
X31230000Y-48510000D01*
X30990000Y-48510000D01*
X30990000Y-45410000D01*
G37*
G36*
X30990000Y-48930000D02*
G01*
X31230000Y-48930000D01*
X31230000Y-52470000D01*
X30990000Y-52470000D01*
X30990000Y-48930000D01*
G37*
G36*
X30990000Y-53110000D02*
G01*
X31230000Y-53110000D01*
X31230000Y-53350000D01*
X30990000Y-53350000D01*
X30990000Y-53110000D01*
G37*
G36*
X30990000Y-55090000D02*
G01*
X31230000Y-55090000D01*
X31230000Y-55550000D01*
X30990000Y-55550000D01*
X30990000Y-55090000D01*
G37*
G36*
X30990000Y-56190000D02*
G01*
X31230000Y-56190000D01*
X31230000Y-58190000D01*
X30990000Y-58190000D01*
X30990000Y-56190000D01*
G37*
G36*
X30990000Y-61250000D02*
G01*
X31230000Y-61250000D01*
X31230000Y-62590000D01*
X30990000Y-62590000D01*
X30990000Y-61250000D01*
G37*
G36*
X30990000Y-65650000D02*
G01*
X31230000Y-65650000D01*
X31230000Y-67430000D01*
X30990000Y-67430000D01*
X30990000Y-65650000D01*
G37*
G36*
X30990000Y-68070000D02*
G01*
X31230000Y-68070000D01*
X31230000Y-68530000D01*
X30990000Y-68530000D01*
X30990000Y-68070000D01*
G37*
G36*
X31210000Y-22090000D02*
G01*
X31450000Y-22090000D01*
X31450000Y-22330000D01*
X31210000Y-22330000D01*
X31210000Y-22090000D01*
G37*
G36*
X31210000Y-22970000D02*
G01*
X31450000Y-22970000D01*
X31450000Y-24310000D01*
X31210000Y-24310000D01*
X31210000Y-22970000D01*
G37*
G36*
X31210000Y-25610000D02*
G01*
X31450000Y-25610000D01*
X31450000Y-27170000D01*
X31210000Y-27170000D01*
X31210000Y-25610000D01*
G37*
G36*
X31210000Y-27370000D02*
G01*
X31450000Y-27370000D01*
X31450000Y-28930000D01*
X31210000Y-28930000D01*
X31210000Y-27370000D01*
G37*
G36*
X31210000Y-30230000D02*
G01*
X31450000Y-30230000D01*
X31450000Y-30910000D01*
X31210000Y-30910000D01*
X31210000Y-30230000D01*
G37*
G36*
X31210000Y-31990000D02*
G01*
X31450000Y-31990000D01*
X31450000Y-32450000D01*
X31210000Y-32450000D01*
X31210000Y-31990000D01*
G37*
G36*
X31210000Y-33090000D02*
G01*
X31450000Y-33090000D01*
X31450000Y-34650000D01*
X31210000Y-34650000D01*
X31210000Y-33090000D01*
G37*
G36*
X31210000Y-36170000D02*
G01*
X31450000Y-36170000D01*
X31450000Y-37730000D01*
X31210000Y-37730000D01*
X31210000Y-36170000D01*
G37*
G36*
X31210000Y-39030000D02*
G01*
X31450000Y-39030000D01*
X31450000Y-40370000D01*
X31210000Y-40370000D01*
X31210000Y-39030000D01*
G37*
G36*
X31210000Y-40790000D02*
G01*
X31450000Y-40790000D01*
X31450000Y-42130000D01*
X31210000Y-42130000D01*
X31210000Y-40790000D01*
G37*
G36*
X31210000Y-43650000D02*
G01*
X31450000Y-43650000D01*
X31450000Y-44990000D01*
X31210000Y-44990000D01*
X31210000Y-43650000D01*
G37*
G36*
X31210000Y-45410000D02*
G01*
X31450000Y-45410000D01*
X31450000Y-48510000D01*
X31210000Y-48510000D01*
X31210000Y-45410000D01*
G37*
G36*
X31210000Y-48930000D02*
G01*
X31450000Y-48930000D01*
X31450000Y-50270000D01*
X31210000Y-50270000D01*
X31210000Y-48930000D01*
G37*
G36*
X31210000Y-52890000D02*
G01*
X31450000Y-52890000D01*
X31450000Y-53350000D01*
X31210000Y-53350000D01*
X31210000Y-52890000D01*
G37*
G36*
X31210000Y-55090000D02*
G01*
X31450000Y-55090000D01*
X31450000Y-55550000D01*
X31210000Y-55550000D01*
X31210000Y-55090000D01*
G37*
G36*
X31210000Y-56190000D02*
G01*
X31450000Y-56190000D01*
X31450000Y-58190000D01*
X31210000Y-58190000D01*
X31210000Y-56190000D01*
G37*
G36*
X31210000Y-61250000D02*
G01*
X31450000Y-61250000D01*
X31450000Y-62590000D01*
X31210000Y-62590000D01*
X31210000Y-61250000D01*
G37*
G36*
X31210000Y-65650000D02*
G01*
X31450000Y-65650000D01*
X31450000Y-67430000D01*
X31210000Y-67430000D01*
X31210000Y-65650000D01*
G37*
G36*
X31210000Y-68070000D02*
G01*
X31450000Y-68070000D01*
X31450000Y-68530000D01*
X31210000Y-68530000D01*
X31210000Y-68070000D01*
G37*
G36*
X31430000Y-22090000D02*
G01*
X31670000Y-22090000D01*
X31670000Y-22330000D01*
X31430000Y-22330000D01*
X31430000Y-22090000D01*
G37*
G36*
X31430000Y-22970000D02*
G01*
X31670000Y-22970000D01*
X31670000Y-24310000D01*
X31430000Y-24310000D01*
X31430000Y-22970000D01*
G37*
G36*
X31430000Y-25610000D02*
G01*
X31670000Y-25610000D01*
X31670000Y-27170000D01*
X31430000Y-27170000D01*
X31430000Y-25610000D01*
G37*
G36*
X31430000Y-27370000D02*
G01*
X31670000Y-27370000D01*
X31670000Y-28930000D01*
X31430000Y-28930000D01*
X31430000Y-27370000D01*
G37*
G36*
X31430000Y-30230000D02*
G01*
X31670000Y-30230000D01*
X31670000Y-31130000D01*
X31430000Y-31130000D01*
X31430000Y-30230000D01*
G37*
G36*
X31430000Y-31990000D02*
G01*
X31670000Y-31990000D01*
X31670000Y-32450000D01*
X31430000Y-32450000D01*
X31430000Y-31990000D01*
G37*
G36*
X31430000Y-33090000D02*
G01*
X31670000Y-33090000D01*
X31670000Y-34650000D01*
X31430000Y-34650000D01*
X31430000Y-33090000D01*
G37*
G36*
X31430000Y-36170000D02*
G01*
X31670000Y-36170000D01*
X31670000Y-37730000D01*
X31430000Y-37730000D01*
X31430000Y-36170000D01*
G37*
G36*
X31430000Y-39030000D02*
G01*
X31670000Y-39030000D01*
X31670000Y-40370000D01*
X31430000Y-40370000D01*
X31430000Y-39030000D01*
G37*
G36*
X31430000Y-40790000D02*
G01*
X31670000Y-40790000D01*
X31670000Y-42130000D01*
X31430000Y-42130000D01*
X31430000Y-40790000D01*
G37*
G36*
X31430000Y-43650000D02*
G01*
X31670000Y-43650000D01*
X31670000Y-44990000D01*
X31430000Y-44990000D01*
X31430000Y-43650000D01*
G37*
G36*
X31430000Y-45410000D02*
G01*
X31670000Y-45410000D01*
X31670000Y-48510000D01*
X31430000Y-48510000D01*
X31430000Y-45410000D01*
G37*
G36*
X31430000Y-48930000D02*
G01*
X31670000Y-48930000D01*
X31670000Y-50270000D01*
X31430000Y-50270000D01*
X31430000Y-48930000D01*
G37*
G36*
X31430000Y-52670000D02*
G01*
X31670000Y-52670000D01*
X31670000Y-53129999D01*
X31430000Y-53129999D01*
X31430000Y-52670000D01*
G37*
G36*
X31430000Y-55090000D02*
G01*
X31670000Y-55090000D01*
X31670000Y-55550000D01*
X31430000Y-55550000D01*
X31430000Y-55090000D01*
G37*
G36*
X31430000Y-56190000D02*
G01*
X31670000Y-56190000D01*
X31670000Y-58190000D01*
X31430000Y-58190000D01*
X31430000Y-56190000D01*
G37*
G36*
X31430000Y-61250000D02*
G01*
X31670000Y-61250000D01*
X31670000Y-62590000D01*
X31430000Y-62590000D01*
X31430000Y-61250000D01*
G37*
G36*
X31430000Y-65650000D02*
G01*
X31670000Y-65650000D01*
X31670000Y-67430000D01*
X31430000Y-67430000D01*
X31430000Y-65650000D01*
G37*
G36*
X31430000Y-68070000D02*
G01*
X31670000Y-68070000D01*
X31670000Y-68530000D01*
X31430000Y-68530000D01*
X31430000Y-68070000D01*
G37*
G36*
X31650000Y-22090000D02*
G01*
X31890000Y-22090000D01*
X31890000Y-22330000D01*
X31650000Y-22330000D01*
X31650000Y-22090000D01*
G37*
G36*
X31650000Y-22970000D02*
G01*
X31890000Y-22970000D01*
X31890000Y-24310000D01*
X31650000Y-24310000D01*
X31650000Y-22970000D01*
G37*
G36*
X31650000Y-25610000D02*
G01*
X31890000Y-25610000D01*
X31890000Y-27170000D01*
X31650000Y-27170000D01*
X31650000Y-25610000D01*
G37*
G36*
X31650000Y-27370000D02*
G01*
X31890000Y-27370000D01*
X31890000Y-28930000D01*
X31650000Y-28930000D01*
X31650000Y-27370000D01*
G37*
G36*
X31650000Y-30230000D02*
G01*
X31890000Y-30230000D01*
X31890000Y-31350000D01*
X31650000Y-31350000D01*
X31650000Y-30230000D01*
G37*
G36*
X31650000Y-33090000D02*
G01*
X31890000Y-33090000D01*
X31890000Y-34650000D01*
X31650000Y-34650000D01*
X31650000Y-33090000D01*
G37*
G36*
X31650000Y-36170000D02*
G01*
X31890000Y-36170000D01*
X31890000Y-37730000D01*
X31650000Y-37730000D01*
X31650000Y-36170000D01*
G37*
G36*
X31650000Y-39030000D02*
G01*
X31890000Y-39030000D01*
X31890000Y-40370000D01*
X31650000Y-40370000D01*
X31650000Y-39030000D01*
G37*
G36*
X31650000Y-40790000D02*
G01*
X31890000Y-40790000D01*
X31890000Y-42130000D01*
X31650000Y-42130000D01*
X31650000Y-40790000D01*
G37*
G36*
X31650000Y-43650000D02*
G01*
X31890000Y-43650000D01*
X31890000Y-44990000D01*
X31650000Y-44990000D01*
X31650000Y-43650000D01*
G37*
G36*
X31650000Y-45410000D02*
G01*
X31890000Y-45410000D01*
X31890000Y-46970000D01*
X31650000Y-46970000D01*
X31650000Y-45410000D01*
G37*
G36*
X31650000Y-48930000D02*
G01*
X31890000Y-48930000D01*
X31890000Y-50270000D01*
X31650000Y-50270000D01*
X31650000Y-48930000D01*
G37*
G36*
X31650000Y-52670000D02*
G01*
X31890000Y-52670000D01*
X31890000Y-53129999D01*
X31650000Y-53129999D01*
X31650000Y-52670000D01*
G37*
G36*
X31650000Y-55090000D02*
G01*
X31890000Y-55090000D01*
X31890000Y-55550000D01*
X31650000Y-55550000D01*
X31650000Y-55090000D01*
G37*
G36*
X31650000Y-56190000D02*
G01*
X31890000Y-56190000D01*
X31890000Y-58190000D01*
X31650000Y-58190000D01*
X31650000Y-56190000D01*
G37*
G36*
X31650000Y-61250000D02*
G01*
X31890000Y-61250000D01*
X31890000Y-62590000D01*
X31650000Y-62590000D01*
X31650000Y-61250000D01*
G37*
G36*
X31650000Y-65650000D02*
G01*
X31890000Y-65650000D01*
X31890000Y-67430000D01*
X31650000Y-67430000D01*
X31650000Y-65650000D01*
G37*
G36*
X31650000Y-68070000D02*
G01*
X31890000Y-68070000D01*
X31890000Y-68530000D01*
X31650000Y-68530000D01*
X31650000Y-68070000D01*
G37*
G36*
X31870000Y-22090000D02*
G01*
X32110000Y-22090000D01*
X32110000Y-22330000D01*
X31870000Y-22330000D01*
X31870000Y-22090000D01*
G37*
G36*
X31870000Y-22970000D02*
G01*
X32110000Y-22970000D01*
X32110000Y-24310000D01*
X31870000Y-24310000D01*
X31870000Y-22970000D01*
G37*
G36*
X31870000Y-25610000D02*
G01*
X32110000Y-25610000D01*
X32110000Y-27170000D01*
X31870000Y-27170000D01*
X31870000Y-25610000D01*
G37*
G36*
X31870000Y-27370000D02*
G01*
X32110000Y-27370000D01*
X32110000Y-28930000D01*
X31870000Y-28930000D01*
X31870000Y-27370000D01*
G37*
G36*
X31870000Y-30230000D02*
G01*
X32110000Y-30230000D01*
X32110000Y-31350000D01*
X31870000Y-31350000D01*
X31870000Y-30230000D01*
G37*
G36*
X31870000Y-33090000D02*
G01*
X32110000Y-33090000D01*
X32110000Y-34650000D01*
X31870000Y-34650000D01*
X31870000Y-33090000D01*
G37*
G36*
X31870000Y-36170000D02*
G01*
X32110000Y-36170000D01*
X32110000Y-37730000D01*
X31870000Y-37730000D01*
X31870000Y-36170000D01*
G37*
G36*
X31870000Y-39030000D02*
G01*
X32110000Y-39030000D01*
X32110000Y-40370000D01*
X31870000Y-40370000D01*
X31870000Y-39030000D01*
G37*
G36*
X31870000Y-40790000D02*
G01*
X32110000Y-40790000D01*
X32110000Y-42130000D01*
X31870000Y-42130000D01*
X31870000Y-40790000D01*
G37*
G36*
X31870000Y-43650000D02*
G01*
X32110000Y-43650000D01*
X32110000Y-44990000D01*
X31870000Y-44990000D01*
X31870000Y-43650000D01*
G37*
G36*
X31870000Y-45410000D02*
G01*
X32110000Y-45410000D01*
X32110000Y-46970000D01*
X31870000Y-46970000D01*
X31870000Y-45410000D01*
G37*
G36*
X31870000Y-48930000D02*
G01*
X32110000Y-48930000D01*
X32110000Y-50270000D01*
X31870000Y-50270000D01*
X31870000Y-48930000D01*
G37*
G36*
X31870000Y-52670000D02*
G01*
X32110000Y-52670000D01*
X32110000Y-53129999D01*
X31870000Y-53129999D01*
X31870000Y-52670000D01*
G37*
G36*
X31870000Y-55090000D02*
G01*
X32110000Y-55090000D01*
X32110000Y-55550000D01*
X31870000Y-55550000D01*
X31870000Y-55090000D01*
G37*
G36*
X31870000Y-56190000D02*
G01*
X32110000Y-56190000D01*
X32110000Y-58190000D01*
X31870000Y-58190000D01*
X31870000Y-56190000D01*
G37*
G36*
X31870000Y-61250000D02*
G01*
X32110000Y-61250000D01*
X32110000Y-62590000D01*
X31870000Y-62590000D01*
X31870000Y-61250000D01*
G37*
G36*
X31870000Y-65650000D02*
G01*
X32110000Y-65650000D01*
X32110000Y-67430000D01*
X31870000Y-67430000D01*
X31870000Y-65650000D01*
G37*
G36*
X31870000Y-68070000D02*
G01*
X32110000Y-68070000D01*
X32110000Y-68530000D01*
X31870000Y-68530000D01*
X31870000Y-68070000D01*
G37*
G36*
X32090000Y-22090000D02*
G01*
X32330000Y-22090000D01*
X32330000Y-22330000D01*
X32090000Y-22330000D01*
X32090000Y-22090000D01*
G37*
G36*
X32090000Y-22970000D02*
G01*
X32330000Y-22970000D01*
X32330000Y-24310000D01*
X32090000Y-24310000D01*
X32090000Y-22970000D01*
G37*
G36*
X32090000Y-25610000D02*
G01*
X32330000Y-25610000D01*
X32330000Y-27170000D01*
X32090000Y-27170000D01*
X32090000Y-25610000D01*
G37*
G36*
X32090000Y-27370000D02*
G01*
X32330000Y-27370000D01*
X32330000Y-28930000D01*
X32090000Y-28930000D01*
X32090000Y-27370000D01*
G37*
G36*
X32090000Y-30230000D02*
G01*
X32330000Y-30230000D01*
X32330000Y-31570000D01*
X32090000Y-31570000D01*
X32090000Y-30230000D01*
G37*
G36*
X32090000Y-33090000D02*
G01*
X32330000Y-33090000D01*
X32330000Y-34650000D01*
X32090000Y-34650000D01*
X32090000Y-33090000D01*
G37*
G36*
X32090000Y-36170000D02*
G01*
X32330000Y-36170000D01*
X32330000Y-37730000D01*
X32090000Y-37730000D01*
X32090000Y-36170000D01*
G37*
G36*
X32090000Y-39030000D02*
G01*
X32330000Y-39030000D01*
X32330000Y-40370000D01*
X32090000Y-40370000D01*
X32090000Y-39030000D01*
G37*
G36*
X32090000Y-40790000D02*
G01*
X32330000Y-40790000D01*
X32330000Y-42130000D01*
X32090000Y-42130000D01*
X32090000Y-40790000D01*
G37*
G36*
X32090000Y-43650000D02*
G01*
X32330000Y-43650000D01*
X32330000Y-44990000D01*
X32090000Y-44990000D01*
X32090000Y-43650000D01*
G37*
G36*
X32090000Y-45410000D02*
G01*
X32330000Y-45410000D01*
X32330000Y-46750000D01*
X32090000Y-46750000D01*
X32090000Y-45410000D01*
G37*
G36*
X32090000Y-48930000D02*
G01*
X32330000Y-48930000D01*
X32330000Y-50270000D01*
X32090000Y-50270000D01*
X32090000Y-48930000D01*
G37*
G36*
X32090000Y-52890000D02*
G01*
X32330000Y-52890000D01*
X32330000Y-53350000D01*
X32090000Y-53350000D01*
X32090000Y-52890000D01*
G37*
G36*
X32090000Y-55090000D02*
G01*
X32330000Y-55090000D01*
X32330000Y-55550000D01*
X32090000Y-55550000D01*
X32090000Y-55090000D01*
G37*
G36*
X32090000Y-56190000D02*
G01*
X32330000Y-56190000D01*
X32330000Y-58190000D01*
X32090000Y-58190000D01*
X32090000Y-56190000D01*
G37*
G36*
X32090000Y-61250000D02*
G01*
X32330000Y-61250000D01*
X32330000Y-62590000D01*
X32090000Y-62590000D01*
X32090000Y-61250000D01*
G37*
G36*
X32090000Y-65650000D02*
G01*
X32330000Y-65650000D01*
X32330000Y-67430000D01*
X32090000Y-67430000D01*
X32090000Y-65650000D01*
G37*
G36*
X32090000Y-68070000D02*
G01*
X32330000Y-68070000D01*
X32330000Y-68530000D01*
X32090000Y-68530000D01*
X32090000Y-68070000D01*
G37*
G36*
X32310000Y-22090000D02*
G01*
X32549999Y-22090000D01*
X32549999Y-22330000D01*
X32310000Y-22330000D01*
X32310000Y-22090000D01*
G37*
G36*
X32310000Y-22970000D02*
G01*
X32549999Y-22970000D01*
X32549999Y-24310000D01*
X32310000Y-24310000D01*
X32310000Y-22970000D01*
G37*
G36*
X32310000Y-25610000D02*
G01*
X32549999Y-25610000D01*
X32549999Y-27170000D01*
X32310000Y-27170000D01*
X32310000Y-25610000D01*
G37*
G36*
X32310000Y-27370000D02*
G01*
X32549999Y-27370000D01*
X32549999Y-28930000D01*
X32310000Y-28930000D01*
X32310000Y-27370000D01*
G37*
G36*
X32310000Y-30230000D02*
G01*
X32549999Y-30230000D01*
X32549999Y-31570000D01*
X32310000Y-31570000D01*
X32310000Y-30230000D01*
G37*
G36*
X32310000Y-33090000D02*
G01*
X32549999Y-33090000D01*
X32549999Y-34650000D01*
X32310000Y-34650000D01*
X32310000Y-33090000D01*
G37*
G36*
X32310000Y-36170000D02*
G01*
X32549999Y-36170000D01*
X32549999Y-37730000D01*
X32310000Y-37730000D01*
X32310000Y-36170000D01*
G37*
G36*
X32310000Y-39030000D02*
G01*
X32549999Y-39030000D01*
X32549999Y-40370000D01*
X32310000Y-40370000D01*
X32310000Y-39030000D01*
G37*
G36*
X32310000Y-40790000D02*
G01*
X32549999Y-40790000D01*
X32549999Y-42130000D01*
X32310000Y-42130000D01*
X32310000Y-40790000D01*
G37*
G36*
X32310000Y-43650000D02*
G01*
X32549999Y-43650000D01*
X32549999Y-44990000D01*
X32310000Y-44990000D01*
X32310000Y-43650000D01*
G37*
G36*
X32310000Y-45410000D02*
G01*
X32549999Y-45410000D01*
X32549999Y-46750000D01*
X32310000Y-46750000D01*
X32310000Y-45410000D01*
G37*
G36*
X32310000Y-48930000D02*
G01*
X32549999Y-48930000D01*
X32549999Y-50270000D01*
X32310000Y-50270000D01*
X32310000Y-48930000D01*
G37*
G36*
X32310000Y-53110000D02*
G01*
X32549999Y-53110000D01*
X32549999Y-53350000D01*
X32310000Y-53350000D01*
X32310000Y-53110000D01*
G37*
G36*
X32310000Y-55090000D02*
G01*
X32549999Y-55090000D01*
X32549999Y-55550000D01*
X32310000Y-55550000D01*
X32310000Y-55090000D01*
G37*
G36*
X32310000Y-56190000D02*
G01*
X32549999Y-56190000D01*
X32549999Y-58190000D01*
X32310000Y-58190000D01*
X32310000Y-56190000D01*
G37*
G36*
X32310000Y-65650000D02*
G01*
X32549999Y-65650000D01*
X32549999Y-67430000D01*
X32310000Y-67430000D01*
X32310000Y-65650000D01*
G37*
G36*
X32310000Y-68070000D02*
G01*
X32549999Y-68070000D01*
X32549999Y-68530000D01*
X32310000Y-68530000D01*
X32310000Y-68070000D01*
G37*
G36*
X32530000Y-22090000D02*
G01*
X32770000Y-22090000D01*
X32770000Y-22550000D01*
X32530000Y-22550000D01*
X32530000Y-22090000D01*
G37*
G36*
X32530000Y-23190000D02*
G01*
X32770000Y-23190000D01*
X32770000Y-27170000D01*
X32530000Y-27170000D01*
X32530000Y-23190000D01*
G37*
G36*
X32530000Y-27590000D02*
G01*
X32770000Y-27590000D01*
X32770000Y-35750000D01*
X32530000Y-35750000D01*
X32530000Y-27590000D01*
G37*
G36*
X32530000Y-36390000D02*
G01*
X32770000Y-36390000D01*
X32770000Y-40370000D01*
X32530000Y-40370000D01*
X32530000Y-36390000D01*
G37*
G36*
X32530000Y-41010000D02*
G01*
X32770000Y-41010000D01*
X32770000Y-44990000D01*
X32530000Y-44990000D01*
X32530000Y-41010000D01*
G37*
G36*
X32530000Y-45629999D02*
G01*
X32770000Y-45629999D01*
X32770000Y-48510000D01*
X32530000Y-48510000D01*
X32530000Y-45629999D01*
G37*
G36*
X32530000Y-49150000D02*
G01*
X32770000Y-49150000D01*
X32770000Y-52470000D01*
X32530000Y-52470000D01*
X32530000Y-49150000D01*
G37*
G36*
X32530000Y-53110000D02*
G01*
X32770000Y-53110000D01*
X32770000Y-53350000D01*
X32530000Y-53350000D01*
X32530000Y-53110000D01*
G37*
G36*
X32530000Y-55090000D02*
G01*
X32770000Y-55090000D01*
X32770000Y-55550000D01*
X32530000Y-55550000D01*
X32530000Y-55090000D01*
G37*
G36*
X32530000Y-56190000D02*
G01*
X32770000Y-56190000D01*
X32770000Y-58190000D01*
X32530000Y-58190000D01*
X32530000Y-56190000D01*
G37*
G36*
X32530000Y-65650000D02*
G01*
X32770000Y-65650000D01*
X32770000Y-67430000D01*
X32530000Y-67430000D01*
X32530000Y-65650000D01*
G37*
G36*
X32530000Y-68070000D02*
G01*
X32770000Y-68070000D01*
X32770000Y-68530000D01*
X32530000Y-68530000D01*
X32530000Y-68070000D01*
G37*
G36*
X32750000Y-22310000D02*
G01*
X32990000Y-22310000D01*
X32990000Y-22770000D01*
X32750000Y-22770000D01*
X32750000Y-22310000D01*
G37*
G36*
X32750000Y-23410000D02*
G01*
X32990000Y-23410000D01*
X32990000Y-27170000D01*
X32750000Y-27170000D01*
X32750000Y-23410000D01*
G37*
G36*
X32750000Y-27810000D02*
G01*
X32990000Y-27810000D01*
X32990000Y-31570000D01*
X32750000Y-31570000D01*
X32750000Y-27810000D01*
G37*
G36*
X32750000Y-31990000D02*
G01*
X32990000Y-31990000D01*
X32990000Y-35970000D01*
X32750000Y-35970000D01*
X32750000Y-31990000D01*
G37*
G36*
X32750000Y-36610000D02*
G01*
X32990000Y-36610000D01*
X32990000Y-40370000D01*
X32750000Y-40370000D01*
X32750000Y-36610000D01*
G37*
G36*
X32750000Y-41230000D02*
G01*
X32990000Y-41230000D01*
X32990000Y-44990000D01*
X32750000Y-44990000D01*
X32750000Y-41230000D01*
G37*
G36*
X32750000Y-45849999D02*
G01*
X32990000Y-45849999D01*
X32990000Y-48510000D01*
X32750000Y-48510000D01*
X32750000Y-45849999D01*
G37*
G36*
X32750000Y-49370000D02*
G01*
X32990000Y-49370000D01*
X32990000Y-52470000D01*
X32750000Y-52470000D01*
X32750000Y-49370000D01*
G37*
G36*
X32750000Y-53110000D02*
G01*
X32990000Y-53110000D01*
X32990000Y-53350000D01*
X32750000Y-53350000D01*
X32750000Y-53110000D01*
G37*
G36*
X32750000Y-55090000D02*
G01*
X32990000Y-55090000D01*
X32990000Y-55550000D01*
X32750000Y-55550000D01*
X32750000Y-55090000D01*
G37*
G36*
X32750000Y-56190000D02*
G01*
X32990000Y-56190000D01*
X32990000Y-58190000D01*
X32750000Y-58190000D01*
X32750000Y-56190000D01*
G37*
G36*
X32750000Y-65650000D02*
G01*
X32990000Y-65650000D01*
X32990000Y-67430000D01*
X32750000Y-67430000D01*
X32750000Y-65650000D01*
G37*
G36*
X32750000Y-68070000D02*
G01*
X32990000Y-68070000D01*
X32990000Y-68530000D01*
X32750000Y-68530000D01*
X32750000Y-68070000D01*
G37*
G36*
X32970000Y-22530000D02*
G01*
X33210000Y-22530000D01*
X33210000Y-22990000D01*
X32970000Y-22990000D01*
X32970000Y-22530000D01*
G37*
G36*
X32970000Y-23630000D02*
G01*
X33210000Y-23630000D01*
X33210000Y-27170000D01*
X32970000Y-27170000D01*
X32970000Y-23630000D01*
G37*
G36*
X32970000Y-28030000D02*
G01*
X33210000Y-28030000D01*
X33210000Y-31570000D01*
X32970000Y-31570000D01*
X32970000Y-28030000D01*
G37*
G36*
X32970000Y-32210000D02*
G01*
X33210000Y-32210000D01*
X33210000Y-35970000D01*
X32970000Y-35970000D01*
X32970000Y-32210000D01*
G37*
G36*
X32970000Y-36830000D02*
G01*
X33210000Y-36830000D01*
X33210000Y-40370000D01*
X32970000Y-40370000D01*
X32970000Y-36830000D01*
G37*
G36*
X32970000Y-41450000D02*
G01*
X33210000Y-41450000D01*
X33210000Y-44990000D01*
X32970000Y-44990000D01*
X32970000Y-41450000D01*
G37*
G36*
X32970000Y-46070000D02*
G01*
X33210000Y-46070000D01*
X33210000Y-48510000D01*
X32970000Y-48510000D01*
X32970000Y-46070000D01*
G37*
G36*
X32970000Y-49590000D02*
G01*
X33210000Y-49590000D01*
X33210000Y-52470000D01*
X32970000Y-52470000D01*
X32970000Y-49590000D01*
G37*
G36*
X32970000Y-53110000D02*
G01*
X33210000Y-53110000D01*
X33210000Y-53350000D01*
X32970000Y-53350000D01*
X32970000Y-53110000D01*
G37*
G36*
X32970000Y-55090000D02*
G01*
X33210000Y-55090000D01*
X33210000Y-55550000D01*
X32970000Y-55550000D01*
X32970000Y-55090000D01*
G37*
G36*
X32970000Y-56190000D02*
G01*
X33210000Y-56190000D01*
X33210000Y-58190000D01*
X32970000Y-58190000D01*
X32970000Y-56190000D01*
G37*
G36*
X32970000Y-65650000D02*
G01*
X33210000Y-65650000D01*
X33210000Y-67430000D01*
X32970000Y-67430000D01*
X32970000Y-65650000D01*
G37*
G36*
X32970000Y-68070000D02*
G01*
X33210000Y-68070000D01*
X33210000Y-68530000D01*
X32970000Y-68530000D01*
X32970000Y-68070000D01*
G37*
G36*
X33189999Y-22750000D02*
G01*
X33430000Y-22750000D01*
X33430000Y-23210000D01*
X33189999Y-23210000D01*
X33189999Y-22750000D01*
G37*
G36*
X33189999Y-23850000D02*
G01*
X33430000Y-23850000D01*
X33430000Y-27170000D01*
X33189999Y-27170000D01*
X33189999Y-23850000D01*
G37*
G36*
X33189999Y-28470000D02*
G01*
X33430000Y-28470000D01*
X33430000Y-31570000D01*
X33189999Y-31570000D01*
X33189999Y-28470000D01*
G37*
G36*
X33189999Y-32430000D02*
G01*
X33430000Y-32430000D01*
X33430000Y-35970000D01*
X33189999Y-35970000D01*
X33189999Y-32430000D01*
G37*
G36*
X33189999Y-37050000D02*
G01*
X33430000Y-37050000D01*
X33430000Y-40370000D01*
X33189999Y-40370000D01*
X33189999Y-37050000D01*
G37*
G36*
X33189999Y-41670000D02*
G01*
X33430000Y-41670000D01*
X33430000Y-44990000D01*
X33189999Y-44990000D01*
X33189999Y-41670000D01*
G37*
G36*
X33189999Y-46290000D02*
G01*
X33430000Y-46290000D01*
X33430000Y-48510000D01*
X33189999Y-48510000D01*
X33189999Y-46290000D01*
G37*
G36*
X33189999Y-49810000D02*
G01*
X33430000Y-49810000D01*
X33430000Y-52470000D01*
X33189999Y-52470000D01*
X33189999Y-49810000D01*
G37*
G36*
X33189999Y-53110000D02*
G01*
X33430000Y-53110000D01*
X33430000Y-53350000D01*
X33189999Y-53350000D01*
X33189999Y-53110000D01*
G37*
G36*
X33189999Y-55310000D02*
G01*
X33430000Y-55310000D01*
X33430000Y-55550000D01*
X33189999Y-55550000D01*
X33189999Y-55310000D01*
G37*
G36*
X33189999Y-56410000D02*
G01*
X33430000Y-56410000D01*
X33430000Y-58190000D01*
X33189999Y-58190000D01*
X33189999Y-56410000D01*
G37*
G36*
X33189999Y-65650000D02*
G01*
X33430000Y-65650000D01*
X33430000Y-67210000D01*
X33189999Y-67210000D01*
X33189999Y-65650000D01*
G37*
G36*
X33189999Y-68070000D02*
G01*
X33430000Y-68070000D01*
X33430000Y-68530000D01*
X33189999Y-68530000D01*
X33189999Y-68070000D01*
G37*
G36*
X33409999Y-22970000D02*
G01*
X33650000Y-22970000D01*
X33650000Y-23430000D01*
X33409999Y-23430000D01*
X33409999Y-22970000D01*
G37*
G36*
X33409999Y-24070000D02*
G01*
X33650000Y-24070000D01*
X33650000Y-27170000D01*
X33409999Y-27170000D01*
X33409999Y-24070000D01*
G37*
G36*
X33409999Y-28689999D02*
G01*
X33650000Y-28689999D01*
X33650000Y-31570000D01*
X33409999Y-31570000D01*
X33409999Y-28689999D01*
G37*
G36*
X33409999Y-32650000D02*
G01*
X33650000Y-32650000D01*
X33650000Y-35970000D01*
X33409999Y-35970000D01*
X33409999Y-32650000D01*
G37*
G36*
X33409999Y-37269999D02*
G01*
X33650000Y-37269999D01*
X33650000Y-40370000D01*
X33409999Y-40370000D01*
X33409999Y-37269999D01*
G37*
G36*
X33409999Y-41890000D02*
G01*
X33650000Y-41890000D01*
X33650000Y-44990000D01*
X33409999Y-44990000D01*
X33409999Y-41890000D01*
G37*
G36*
X33409999Y-46510000D02*
G01*
X33650000Y-46510000D01*
X33650000Y-48510000D01*
X33409999Y-48510000D01*
X33409999Y-46510000D01*
G37*
G36*
X33409999Y-50030000D02*
G01*
X33650000Y-50030000D01*
X33650000Y-52470000D01*
X33409999Y-52470000D01*
X33409999Y-50030000D01*
G37*
G36*
X33409999Y-53110000D02*
G01*
X33650000Y-53110000D01*
X33650000Y-53350000D01*
X33409999Y-53350000D01*
X33409999Y-53110000D01*
G37*
G36*
X33409999Y-55310000D02*
G01*
X33650000Y-55310000D01*
X33650000Y-55550000D01*
X33409999Y-55550000D01*
X33409999Y-55310000D01*
G37*
G36*
X33409999Y-56410000D02*
G01*
X33650000Y-56410000D01*
X33650000Y-58190000D01*
X33409999Y-58190000D01*
X33409999Y-56410000D01*
G37*
G36*
X33409999Y-65650000D02*
G01*
X33650000Y-65650000D01*
X33650000Y-67210000D01*
X33409999Y-67210000D01*
X33409999Y-65650000D01*
G37*
G36*
X33409999Y-68070000D02*
G01*
X33650000Y-68070000D01*
X33650000Y-68310000D01*
X33409999Y-68310000D01*
X33409999Y-68070000D01*
G37*
G36*
X33630000Y-23190000D02*
G01*
X33870000Y-23190000D01*
X33870000Y-23650000D01*
X33630000Y-23650000D01*
X33630000Y-23190000D01*
G37*
G36*
X33630000Y-24290000D02*
G01*
X33870000Y-24290000D01*
X33870000Y-27170000D01*
X33630000Y-27170000D01*
X33630000Y-24290000D01*
G37*
G36*
X33630000Y-27590000D02*
G01*
X33870000Y-27590000D01*
X33870000Y-28049999D01*
X33630000Y-28049999D01*
X33630000Y-27590000D01*
G37*
G36*
X33630000Y-28910000D02*
G01*
X33870000Y-28910000D01*
X33870000Y-31570000D01*
X33630000Y-31570000D01*
X33630000Y-28910000D01*
G37*
G36*
X33630000Y-32870000D02*
G01*
X33870000Y-32870000D01*
X33870000Y-35970000D01*
X33630000Y-35970000D01*
X33630000Y-32870000D01*
G37*
G36*
X33630000Y-36390000D02*
G01*
X33870000Y-36390000D01*
X33870000Y-36850000D01*
X33630000Y-36850000D01*
X33630000Y-36390000D01*
G37*
G36*
X33630000Y-37489999D02*
G01*
X33870000Y-37489999D01*
X33870000Y-40370000D01*
X33630000Y-40370000D01*
X33630000Y-37489999D01*
G37*
G36*
X33630000Y-41010000D02*
G01*
X33870000Y-41010000D01*
X33870000Y-41470000D01*
X33630000Y-41470000D01*
X33630000Y-41010000D01*
G37*
G36*
X33630000Y-42330000D02*
G01*
X33870000Y-42330000D01*
X33870000Y-44990000D01*
X33630000Y-44990000D01*
X33630000Y-42330000D01*
G37*
G36*
X33630000Y-45410000D02*
G01*
X33870000Y-45410000D01*
X33870000Y-46090000D01*
X33630000Y-46090000D01*
X33630000Y-45410000D01*
G37*
G36*
X33630000Y-46730000D02*
G01*
X33870000Y-46730000D01*
X33870000Y-48510000D01*
X33630000Y-48510000D01*
X33630000Y-46730000D01*
G37*
G36*
X33630000Y-48930000D02*
G01*
X33870000Y-48930000D01*
X33870000Y-49610000D01*
X33630000Y-49610000D01*
X33630000Y-48930000D01*
G37*
G36*
X33630000Y-50250000D02*
G01*
X33870000Y-50250000D01*
X33870000Y-52470000D01*
X33630000Y-52470000D01*
X33630000Y-50250000D01*
G37*
G36*
X33630000Y-53110000D02*
G01*
X33870000Y-53110000D01*
X33870000Y-53350000D01*
X33630000Y-53350000D01*
X33630000Y-53110000D01*
G37*
G36*
X33630000Y-55310000D02*
G01*
X33870000Y-55310000D01*
X33870000Y-55769999D01*
X33630000Y-55769999D01*
X33630000Y-55310000D01*
G37*
G36*
X33630000Y-56410000D02*
G01*
X33870000Y-56410000D01*
X33870000Y-58190000D01*
X33630000Y-58190000D01*
X33630000Y-56410000D01*
G37*
G36*
X33630000Y-59490000D02*
G01*
X33870000Y-59490000D01*
X33870000Y-60830000D01*
X33630000Y-60830000D01*
X33630000Y-59490000D01*
G37*
G36*
X33630000Y-63010000D02*
G01*
X33870000Y-63010000D01*
X33870000Y-64349999D01*
X33630000Y-64349999D01*
X33630000Y-63010000D01*
G37*
G36*
X33630000Y-65650000D02*
G01*
X33870000Y-65650000D01*
X33870000Y-67210000D01*
X33630000Y-67210000D01*
X33630000Y-65650000D01*
G37*
G36*
X33630000Y-67850000D02*
G01*
X33870000Y-67850000D01*
X33870000Y-68310000D01*
X33630000Y-68310000D01*
X33630000Y-67850000D01*
G37*
G36*
X33850000Y-23410000D02*
G01*
X34090000Y-23410000D01*
X34090000Y-23870000D01*
X33850000Y-23870000D01*
X33850000Y-23410000D01*
G37*
G36*
X33850000Y-27590000D02*
G01*
X34090000Y-27590000D01*
X34090000Y-28270000D01*
X33850000Y-28270000D01*
X33850000Y-27590000D01*
G37*
G36*
X33850000Y-33090000D02*
G01*
X34090000Y-33090000D01*
X34090000Y-34650000D01*
X33850000Y-34650000D01*
X33850000Y-33090000D01*
G37*
G36*
X33850000Y-36390000D02*
G01*
X34090000Y-36390000D01*
X34090000Y-37070000D01*
X33850000Y-37070000D01*
X33850000Y-36390000D01*
G37*
G36*
X33850000Y-40790000D02*
G01*
X34090000Y-40790000D01*
X34090000Y-41690000D01*
X33850000Y-41690000D01*
X33850000Y-40790000D01*
G37*
G36*
X33850000Y-45410000D02*
G01*
X34090000Y-45410000D01*
X34090000Y-46310000D01*
X33850000Y-46310000D01*
X33850000Y-45410000D01*
G37*
G36*
X33850000Y-48930000D02*
G01*
X34090000Y-48930000D01*
X34090000Y-49830000D01*
X33850000Y-49830000D01*
X33850000Y-48930000D01*
G37*
G36*
X33850000Y-52890000D02*
G01*
X34090000Y-52890000D01*
X34090000Y-53350000D01*
X33850000Y-53350000D01*
X33850000Y-52890000D01*
G37*
G36*
X33850000Y-55310000D02*
G01*
X34090000Y-55310000D01*
X34090000Y-55769999D01*
X33850000Y-55769999D01*
X33850000Y-55310000D01*
G37*
G36*
X33850000Y-56410000D02*
G01*
X34090000Y-56410000D01*
X34090000Y-58190000D01*
X33850000Y-58190000D01*
X33850000Y-56410000D01*
G37*
G36*
X33850000Y-59490000D02*
G01*
X34090000Y-59490000D01*
X34090000Y-60830000D01*
X33850000Y-60830000D01*
X33850000Y-59490000D01*
G37*
G36*
X33850000Y-63010000D02*
G01*
X34090000Y-63010000D01*
X34090000Y-64349999D01*
X33850000Y-64349999D01*
X33850000Y-63010000D01*
G37*
G36*
X33850000Y-65650000D02*
G01*
X34090000Y-65650000D01*
X34090000Y-67210000D01*
X33850000Y-67210000D01*
X33850000Y-65650000D01*
G37*
G36*
X33850000Y-67850000D02*
G01*
X34090000Y-67850000D01*
X34090000Y-68310000D01*
X33850000Y-68310000D01*
X33850000Y-67850000D01*
G37*
G36*
X34070000Y-23630000D02*
G01*
X34310000Y-23630000D01*
X34310000Y-24090000D01*
X34070000Y-24090000D01*
X34070000Y-23630000D01*
G37*
G36*
X34070000Y-27370000D02*
G01*
X34310000Y-27370000D01*
X34310000Y-28710000D01*
X34070000Y-28710000D01*
X34070000Y-27370000D01*
G37*
G36*
X34070000Y-31990000D02*
G01*
X34310000Y-31990000D01*
X34310000Y-32450000D01*
X34070000Y-32450000D01*
X34070000Y-31990000D01*
G37*
G36*
X34070000Y-33090000D02*
G01*
X34310000Y-33090000D01*
X34310000Y-34650000D01*
X34070000Y-34650000D01*
X34070000Y-33090000D01*
G37*
G36*
X34070000Y-36170000D02*
G01*
X34310000Y-36170000D01*
X34310000Y-36629999D01*
X34070000Y-36629999D01*
X34070000Y-36170000D01*
G37*
G36*
X34070000Y-36830000D02*
G01*
X34310000Y-36830000D01*
X34310000Y-37290000D01*
X34070000Y-37290000D01*
X34070000Y-36830000D01*
G37*
G36*
X34070000Y-40790000D02*
G01*
X34310000Y-40790000D01*
X34310000Y-41250000D01*
X34070000Y-41250000D01*
X34070000Y-40790000D01*
G37*
G36*
X34070000Y-41450000D02*
G01*
X34310000Y-41450000D01*
X34310000Y-41910000D01*
X34070000Y-41910000D01*
X34070000Y-41450000D01*
G37*
G36*
X34070000Y-45410000D02*
G01*
X34310000Y-45410000D01*
X34310000Y-45650000D01*
X34070000Y-45650000D01*
X34070000Y-45410000D01*
G37*
G36*
X34070000Y-46070000D02*
G01*
X34310000Y-46070000D01*
X34310000Y-46530000D01*
X34070000Y-46530000D01*
X34070000Y-46070000D01*
G37*
G36*
X34070000Y-48709999D02*
G01*
X34310000Y-48709999D01*
X34310000Y-49170000D01*
X34070000Y-49170000D01*
X34070000Y-48709999D01*
G37*
G36*
X34070000Y-49590000D02*
G01*
X34310000Y-49590000D01*
X34310000Y-50050000D01*
X34070000Y-50050000D01*
X34070000Y-49590000D01*
G37*
G36*
X34070000Y-52890000D02*
G01*
X34310000Y-52890000D01*
X34310000Y-53350000D01*
X34070000Y-53350000D01*
X34070000Y-52890000D01*
G37*
G36*
X34070000Y-55530000D02*
G01*
X34310000Y-55530000D01*
X34310000Y-55769999D01*
X34070000Y-55769999D01*
X34070000Y-55530000D01*
G37*
G36*
X34070000Y-56630000D02*
G01*
X34310000Y-56630000D01*
X34310000Y-58190000D01*
X34070000Y-58190000D01*
X34070000Y-56630000D01*
G37*
G36*
X34070000Y-59490000D02*
G01*
X34310000Y-59490000D01*
X34310000Y-60830000D01*
X34070000Y-60830000D01*
X34070000Y-59490000D01*
G37*
G36*
X34070000Y-63010000D02*
G01*
X34310000Y-63010000D01*
X34310000Y-64349999D01*
X34070000Y-64349999D01*
X34070000Y-63010000D01*
G37*
G36*
X34070000Y-65650000D02*
G01*
X34310000Y-65650000D01*
X34310000Y-66989999D01*
X34070000Y-66989999D01*
X34070000Y-65650000D01*
G37*
G36*
X34070000Y-67850000D02*
G01*
X34310000Y-67850000D01*
X34310000Y-68090000D01*
X34070000Y-68090000D01*
X34070000Y-67850000D01*
G37*
G36*
X34290000Y-23850000D02*
G01*
X34530000Y-23850000D01*
X34530000Y-27830000D01*
X34290000Y-27830000D01*
X34290000Y-23850000D01*
G37*
G36*
X34290000Y-28250000D02*
G01*
X34530000Y-28250000D01*
X34530000Y-32450000D01*
X34290000Y-32450000D01*
X34290000Y-28250000D01*
G37*
G36*
X34290000Y-33090000D02*
G01*
X34530000Y-33090000D01*
X34530000Y-34650000D01*
X34290000Y-34650000D01*
X34290000Y-33090000D01*
G37*
G36*
X34290000Y-35510000D02*
G01*
X34530000Y-35510000D01*
X34530000Y-36410000D01*
X34290000Y-36410000D01*
X34290000Y-35510000D01*
G37*
G36*
X34290000Y-37050000D02*
G01*
X34530000Y-37050000D01*
X34530000Y-41030000D01*
X34290000Y-41030000D01*
X34290000Y-37050000D01*
G37*
G36*
X34290000Y-41670000D02*
G01*
X34530000Y-41670000D01*
X34530000Y-45650000D01*
X34290000Y-45650000D01*
X34290000Y-41670000D01*
G37*
G36*
X34290000Y-46290000D02*
G01*
X34530000Y-46290000D01*
X34530000Y-48950000D01*
X34290000Y-48950000D01*
X34290000Y-46290000D01*
G37*
G36*
X34290000Y-49810000D02*
G01*
X34530000Y-49810000D01*
X34530000Y-53129999D01*
X34290000Y-53129999D01*
X34290000Y-49810000D01*
G37*
G36*
X34290000Y-55530000D02*
G01*
X34530000Y-55530000D01*
X34530000Y-55989999D01*
X34290000Y-55989999D01*
X34290000Y-55530000D01*
G37*
G36*
X34290000Y-56630000D02*
G01*
X34530000Y-56630000D01*
X34530000Y-58190000D01*
X34290000Y-58190000D01*
X34290000Y-56630000D01*
G37*
G36*
X34290000Y-59490000D02*
G01*
X34530000Y-59490000D01*
X34530000Y-60830000D01*
X34290000Y-60830000D01*
X34290000Y-59490000D01*
G37*
G36*
X34290000Y-63010000D02*
G01*
X34530000Y-63010000D01*
X34530000Y-64349999D01*
X34290000Y-64349999D01*
X34290000Y-63010000D01*
G37*
G36*
X34290000Y-65650000D02*
G01*
X34530000Y-65650000D01*
X34530000Y-66989999D01*
X34290000Y-66989999D01*
X34290000Y-65650000D01*
G37*
G36*
X34290000Y-67630000D02*
G01*
X34530000Y-67630000D01*
X34530000Y-68090000D01*
X34290000Y-68090000D01*
X34290000Y-67630000D01*
G37*
G36*
X34510000Y-24290000D02*
G01*
X34750000Y-24290000D01*
X34750000Y-27390000D01*
X34510000Y-27390000D01*
X34510000Y-24290000D01*
G37*
G36*
X34510000Y-28689999D02*
G01*
X34750000Y-28689999D01*
X34750000Y-31790000D01*
X34510000Y-31790000D01*
X34510000Y-28689999D01*
G37*
G36*
X34510000Y-31990000D02*
G01*
X34750000Y-31990000D01*
X34750000Y-32450000D01*
X34510000Y-32450000D01*
X34510000Y-31990000D01*
G37*
G36*
X34510000Y-33090000D02*
G01*
X34750000Y-33090000D01*
X34750000Y-34650000D01*
X34510000Y-34650000D01*
X34510000Y-33090000D01*
G37*
G36*
X34510000Y-35290000D02*
G01*
X34750000Y-35290000D01*
X34750000Y-36190000D01*
X34510000Y-36190000D01*
X34510000Y-35290000D01*
G37*
G36*
X34510000Y-37489999D02*
G01*
X34750000Y-37489999D01*
X34750000Y-40590000D01*
X34510000Y-40590000D01*
X34510000Y-37489999D01*
G37*
G36*
X34510000Y-42110000D02*
G01*
X34750000Y-42110000D01*
X34750000Y-45210000D01*
X34510000Y-45210000D01*
X34510000Y-42110000D01*
G37*
G36*
X34510000Y-46730000D02*
G01*
X34750000Y-46730000D01*
X34750000Y-48730000D01*
X34510000Y-48730000D01*
X34510000Y-46730000D01*
G37*
G36*
X34510000Y-50030000D02*
G01*
X34750000Y-50030000D01*
X34750000Y-52690000D01*
X34510000Y-52690000D01*
X34510000Y-50030000D01*
G37*
G36*
X34510000Y-55530000D02*
G01*
X34750000Y-55530000D01*
X34750000Y-55989999D01*
X34510000Y-55989999D01*
X34510000Y-55530000D01*
G37*
G36*
X34510000Y-56850000D02*
G01*
X34750000Y-56850000D01*
X34750000Y-58190000D01*
X34510000Y-58190000D01*
X34510000Y-56850000D01*
G37*
G36*
X34510000Y-59490000D02*
G01*
X34750000Y-59490000D01*
X34750000Y-60830000D01*
X34510000Y-60830000D01*
X34510000Y-59490000D01*
G37*
G36*
X34510000Y-63010000D02*
G01*
X34750000Y-63010000D01*
X34750000Y-64349999D01*
X34510000Y-64349999D01*
X34510000Y-63010000D01*
G37*
G36*
X34510000Y-65650000D02*
G01*
X34750000Y-65650000D01*
X34750000Y-66769999D01*
X34510000Y-66769999D01*
X34510000Y-65650000D01*
G37*
G36*
X34510000Y-67630000D02*
G01*
X34750000Y-67630000D01*
X34750000Y-68090000D01*
X34510000Y-68090000D01*
X34510000Y-67630000D01*
G37*
G36*
X34730000Y-32210000D02*
G01*
X34970000Y-32210000D01*
X34970000Y-32450000D01*
X34730000Y-32450000D01*
X34730000Y-32210000D01*
G37*
G36*
X34730000Y-33090000D02*
G01*
X34970000Y-33090000D01*
X34970000Y-34650000D01*
X34730000Y-34650000D01*
X34730000Y-33090000D01*
G37*
G36*
X34730000Y-35290000D02*
G01*
X34970000Y-35290000D01*
X34970000Y-35530000D01*
X34730000Y-35530000D01*
X34730000Y-35290000D01*
G37*
G36*
X34730000Y-55750000D02*
G01*
X34970000Y-55750000D01*
X34970000Y-56210000D01*
X34730000Y-56210000D01*
X34730000Y-55750000D01*
G37*
G36*
X34730000Y-56850000D02*
G01*
X34970000Y-56850000D01*
X34970000Y-58190000D01*
X34730000Y-58190000D01*
X34730000Y-56850000D01*
G37*
G36*
X34730000Y-59490000D02*
G01*
X34970000Y-59490000D01*
X34970000Y-60830000D01*
X34730000Y-60830000D01*
X34730000Y-59490000D01*
G37*
G36*
X34730000Y-63010000D02*
G01*
X34970000Y-63010000D01*
X34970000Y-64349999D01*
X34730000Y-64349999D01*
X34730000Y-63010000D01*
G37*
G36*
X34730000Y-65650000D02*
G01*
X34970000Y-65650000D01*
X34970000Y-66769999D01*
X34730000Y-66769999D01*
X34730000Y-65650000D01*
G37*
G36*
X34730000Y-67410000D02*
G01*
X34970000Y-67410000D01*
X34970000Y-67870000D01*
X34730000Y-67870000D01*
X34730000Y-67410000D01*
G37*
G36*
X34950000Y-20990000D02*
G01*
X35190000Y-20990000D01*
X35190000Y-23870000D01*
X34950000Y-23870000D01*
X34950000Y-20990000D01*
G37*
G36*
X34950000Y-27810000D02*
G01*
X35190000Y-27810000D01*
X35190000Y-28270000D01*
X34950000Y-28270000D01*
X34950000Y-27810000D01*
G37*
G36*
X34950000Y-32210000D02*
G01*
X35190000Y-32210000D01*
X35190000Y-32450000D01*
X34950000Y-32450000D01*
X34950000Y-32210000D01*
G37*
G36*
X34950000Y-33090000D02*
G01*
X35190000Y-33090000D01*
X35190000Y-34650000D01*
X34950000Y-34650000D01*
X34950000Y-33090000D01*
G37*
G36*
X34950000Y-35070000D02*
G01*
X35190000Y-35070000D01*
X35190000Y-35530000D01*
X34950000Y-35530000D01*
X34950000Y-35070000D01*
G37*
G36*
X34950000Y-36610000D02*
G01*
X35190000Y-36610000D01*
X35190000Y-37070000D01*
X34950000Y-37070000D01*
X34950000Y-36610000D01*
G37*
G36*
X34950000Y-41010000D02*
G01*
X35190000Y-41010000D01*
X35190000Y-41690000D01*
X34950000Y-41690000D01*
X34950000Y-41010000D01*
G37*
G36*
X34950000Y-45629999D02*
G01*
X35190000Y-45629999D01*
X35190000Y-46310000D01*
X34950000Y-46310000D01*
X34950000Y-45629999D01*
G37*
G36*
X34950000Y-49150000D02*
G01*
X35190000Y-49150000D01*
X35190000Y-49830000D01*
X34950000Y-49830000D01*
X34950000Y-49150000D01*
G37*
G36*
X34950000Y-55750000D02*
G01*
X35190000Y-55750000D01*
X35190000Y-56210000D01*
X34950000Y-56210000D01*
X34950000Y-55750000D01*
G37*
G36*
X34950000Y-57070000D02*
G01*
X35190000Y-57070000D01*
X35190000Y-59510000D01*
X34950000Y-59510000D01*
X34950000Y-57070000D01*
G37*
G36*
X34950000Y-64330000D02*
G01*
X35190000Y-64330000D01*
X35190000Y-66550000D01*
X34950000Y-66550000D01*
X34950000Y-64330000D01*
G37*
G36*
X34950000Y-67410000D02*
G01*
X35190000Y-67410000D01*
X35190000Y-67870000D01*
X34950000Y-67870000D01*
X34950000Y-67410000D01*
G37*
G36*
X35170000Y-20990000D02*
G01*
X35410000Y-20990000D01*
X35410000Y-31790000D01*
X35170000Y-31790000D01*
X35170000Y-20990000D01*
G37*
G36*
X35170000Y-32210000D02*
G01*
X35410000Y-32210000D01*
X35410000Y-32670000D01*
X35170000Y-32670000D01*
X35170000Y-32210000D01*
G37*
G36*
X35170000Y-35070000D02*
G01*
X35410000Y-35070000D01*
X35410000Y-35530000D01*
X35170000Y-35530000D01*
X35170000Y-35070000D01*
G37*
G36*
X35170000Y-35950000D02*
G01*
X35410000Y-35950000D01*
X35410000Y-50710000D01*
X35170000Y-50710000D01*
X35170000Y-35950000D01*
G37*
G36*
X35170000Y-55970000D02*
G01*
X35410000Y-55970000D01*
X35410000Y-56430000D01*
X35170000Y-56430000D01*
X35170000Y-55970000D01*
G37*
G36*
X35170000Y-57290000D02*
G01*
X35410000Y-57290000D01*
X35410000Y-59510000D01*
X35170000Y-59510000D01*
X35170000Y-57290000D01*
G37*
G36*
X35170000Y-64330000D02*
G01*
X35410000Y-64330000D01*
X35410000Y-66330000D01*
X35170000Y-66330000D01*
X35170000Y-64330000D01*
G37*
G36*
X35170000Y-67190000D02*
G01*
X35410000Y-67190000D01*
X35410000Y-67650000D01*
X35170000Y-67650000D01*
X35170000Y-67190000D01*
G37*
G36*
X35390000Y-20990000D02*
G01*
X35630000Y-20990000D01*
X35630000Y-31790000D01*
X35390000Y-31790000D01*
X35390000Y-20990000D01*
G37*
G36*
X35390000Y-32430000D02*
G01*
X35630000Y-32430000D01*
X35630000Y-32890000D01*
X35390000Y-32890000D01*
X35390000Y-32430000D01*
G37*
G36*
X35390000Y-34850000D02*
G01*
X35630000Y-34850000D01*
X35630000Y-35310000D01*
X35390000Y-35310000D01*
X35390000Y-34850000D01*
G37*
G36*
X35390000Y-35950000D02*
G01*
X35630000Y-35950000D01*
X35630000Y-51150000D01*
X35390000Y-51150000D01*
X35390000Y-35950000D01*
G37*
G36*
X35390000Y-55970000D02*
G01*
X35630000Y-55970000D01*
X35630000Y-56430000D01*
X35390000Y-56430000D01*
X35390000Y-55970000D01*
G37*
G36*
X35390000Y-57290000D02*
G01*
X35630000Y-57290000D01*
X35630000Y-59510000D01*
X35390000Y-59510000D01*
X35390000Y-57290000D01*
G37*
G36*
X35390000Y-64330000D02*
G01*
X35630000Y-64330000D01*
X35630000Y-66330000D01*
X35390000Y-66330000D01*
X35390000Y-64330000D01*
G37*
G36*
X35390000Y-67190000D02*
G01*
X35630000Y-67190000D01*
X35630000Y-67650000D01*
X35390000Y-67650000D01*
X35390000Y-67190000D01*
G37*
G36*
X35610000Y-20990000D02*
G01*
X35850000Y-20990000D01*
X35850000Y-31790000D01*
X35610000Y-31790000D01*
X35610000Y-20990000D01*
G37*
G36*
X35610000Y-32430000D02*
G01*
X35850000Y-32430000D01*
X35850000Y-35090000D01*
X35610000Y-35090000D01*
X35610000Y-32430000D01*
G37*
G36*
X35610000Y-35950000D02*
G01*
X35850000Y-35950000D01*
X35850000Y-51590000D01*
X35610000Y-51590000D01*
X35610000Y-35950000D01*
G37*
G36*
X35610000Y-56190000D02*
G01*
X35850000Y-56190000D01*
X35850000Y-56650000D01*
X35610000Y-56650000D01*
X35610000Y-56190000D01*
G37*
G36*
X35610000Y-57510000D02*
G01*
X35850000Y-57510000D01*
X35850000Y-59510000D01*
X35610000Y-59510000D01*
X35610000Y-57510000D01*
G37*
G36*
X35610000Y-64330000D02*
G01*
X35850000Y-64330000D01*
X35850000Y-66110000D01*
X35610000Y-66110000D01*
X35610000Y-64330000D01*
G37*
G36*
X35610000Y-66970000D02*
G01*
X35850000Y-66970000D01*
X35850000Y-67430000D01*
X35610000Y-67430000D01*
X35610000Y-66970000D01*
G37*
G36*
X35830000Y-32870000D02*
G01*
X36070000Y-32870000D01*
X36070000Y-34870000D01*
X35830000Y-34870000D01*
X35830000Y-32870000D01*
G37*
G36*
X35830000Y-49810000D02*
G01*
X36070000Y-49810000D01*
X36070000Y-51810000D01*
X35830000Y-51810000D01*
X35830000Y-49810000D01*
G37*
G36*
X35830000Y-56410000D02*
G01*
X36070000Y-56410000D01*
X36070000Y-56870000D01*
X35830000Y-56870000D01*
X35830000Y-56410000D01*
G37*
G36*
X35830000Y-57950000D02*
G01*
X36070000Y-57950000D01*
X36070000Y-59510000D01*
X35830000Y-59510000D01*
X35830000Y-57950000D01*
G37*
G36*
X35830000Y-64330000D02*
G01*
X36070000Y-64330000D01*
X36070000Y-65890000D01*
X35830000Y-65890000D01*
X35830000Y-64330000D01*
G37*
G36*
X35830000Y-66750000D02*
G01*
X36070000Y-66750000D01*
X36070000Y-67210000D01*
X35830000Y-67210000D01*
X35830000Y-66750000D01*
G37*
G36*
X36050000Y-50470000D02*
G01*
X36290000Y-50470000D01*
X36290000Y-52249999D01*
X36050000Y-52249999D01*
X36050000Y-50470000D01*
G37*
G36*
X36050000Y-56630000D02*
G01*
X36290000Y-56630000D01*
X36290000Y-57090000D01*
X36050000Y-57090000D01*
X36050000Y-56630000D01*
G37*
G36*
X36050000Y-58170000D02*
G01*
X36290000Y-58170000D01*
X36290000Y-65670000D01*
X36050000Y-65670000D01*
X36050000Y-58170000D01*
G37*
G36*
X36050000Y-66530000D02*
G01*
X36290000Y-66530000D01*
X36290000Y-66989999D01*
X36050000Y-66989999D01*
X36050000Y-66530000D01*
G37*
G36*
X36269999Y-50910000D02*
G01*
X36510000Y-50910000D01*
X36510000Y-52470000D01*
X36269999Y-52470000D01*
X36269999Y-50910000D01*
G37*
G36*
X36269999Y-56630000D02*
G01*
X36510000Y-56630000D01*
X36510000Y-57309999D01*
X36269999Y-57309999D01*
X36269999Y-56630000D01*
G37*
G36*
X36269999Y-58390000D02*
G01*
X36510000Y-58390000D01*
X36510000Y-65449999D01*
X36269999Y-65449999D01*
X36269999Y-58390000D01*
G37*
G36*
X36269999Y-66310000D02*
G01*
X36510000Y-66310000D01*
X36510000Y-66989999D01*
X36269999Y-66989999D01*
X36269999Y-66310000D01*
G37*
G36*
X36489999Y-20990000D02*
G01*
X36730000Y-20990000D01*
X36730000Y-49390000D01*
X36489999Y-49390000D01*
X36489999Y-20990000D01*
G37*
G36*
X36489999Y-51129999D02*
G01*
X36730000Y-51129999D01*
X36730000Y-52690000D01*
X36489999Y-52690000D01*
X36489999Y-51129999D01*
G37*
G36*
X36489999Y-56850000D02*
G01*
X36730000Y-56850000D01*
X36730000Y-57530000D01*
X36489999Y-57530000D01*
X36489999Y-56850000D01*
G37*
G36*
X36489999Y-58830000D02*
G01*
X36730000Y-58830000D01*
X36730000Y-65009999D01*
X36489999Y-65009999D01*
X36489999Y-58830000D01*
G37*
G36*
X36489999Y-66090000D02*
G01*
X36730000Y-66090000D01*
X36730000Y-66769999D01*
X36489999Y-66769999D01*
X36489999Y-66090000D01*
G37*
G36*
X36709999Y-20990000D02*
G01*
X36949999Y-20990000D01*
X36949999Y-50270000D01*
X36709999Y-50270000D01*
X36709999Y-20990000D01*
G37*
G36*
X36709999Y-51570000D02*
G01*
X36949999Y-51570000D01*
X36949999Y-52910000D01*
X36709999Y-52910000D01*
X36709999Y-51570000D01*
G37*
G36*
X36709999Y-57070000D02*
G01*
X36949999Y-57070000D01*
X36949999Y-57970000D01*
X36709999Y-57970000D01*
X36709999Y-57070000D01*
G37*
G36*
X36709999Y-59050000D02*
G01*
X36949999Y-59050000D01*
X36949999Y-64789999D01*
X36709999Y-64789999D01*
X36709999Y-59050000D01*
G37*
G36*
X36709999Y-65870000D02*
G01*
X36949999Y-65870000D01*
X36949999Y-66550000D01*
X36709999Y-66550000D01*
X36709999Y-65870000D01*
G37*
G36*
X36930000Y-49150000D02*
G01*
X37170000Y-49150000D01*
X37170000Y-50490000D01*
X36930000Y-50490000D01*
X36930000Y-49150000D01*
G37*
G36*
X36930000Y-51790000D02*
G01*
X37170000Y-51790000D01*
X37170000Y-52910000D01*
X36930000Y-52910000D01*
X36930000Y-51790000D01*
G37*
G36*
X36930000Y-57290000D02*
G01*
X37170000Y-57290000D01*
X37170000Y-58190000D01*
X36930000Y-58190000D01*
X36930000Y-57290000D01*
G37*
G36*
X36930000Y-59490000D02*
G01*
X37170000Y-59490000D01*
X37170000Y-64349999D01*
X36930000Y-64349999D01*
X36930000Y-59490000D01*
G37*
G36*
X36930000Y-65650000D02*
G01*
X37170000Y-65650000D01*
X37170000Y-66330000D01*
X36930000Y-66330000D01*
X36930000Y-65650000D01*
G37*
G36*
X37150000Y-57950000D02*
G01*
X37390000Y-57950000D01*
X37390000Y-58410000D01*
X37150000Y-58410000D01*
X37150000Y-57950000D01*
G37*
G36*
X37150000Y-60150000D02*
G01*
X37390000Y-60150000D01*
X37390000Y-63690000D01*
X37150000Y-63690000D01*
X37150000Y-60150000D01*
G37*
G36*
X37150000Y-65430000D02*
G01*
X37390000Y-65430000D01*
X37390000Y-65890000D01*
X37150000Y-65890000D01*
X37150000Y-65430000D01*
G37*
G36*
X37370000Y-58170000D02*
G01*
X37610000Y-58170000D01*
X37610000Y-58850000D01*
X37370000Y-58850000D01*
X37370000Y-58170000D01*
G37*
G36*
X37370000Y-61030000D02*
G01*
X37610000Y-61030000D01*
X37610000Y-63030000D01*
X37370000Y-63030000D01*
X37370000Y-61030000D01*
G37*
G36*
X37370000Y-64990000D02*
G01*
X37610000Y-64990000D01*
X37610000Y-65670000D01*
X37370000Y-65670000D01*
X37370000Y-64990000D01*
G37*
G36*
X37590000Y-58610000D02*
G01*
X37830000Y-58610000D01*
X37830000Y-59290000D01*
X37590000Y-59290000D01*
X37590000Y-58610000D01*
G37*
G36*
X37590000Y-64550000D02*
G01*
X37830000Y-64550000D01*
X37830000Y-65449999D01*
X37590000Y-65449999D01*
X37590000Y-64550000D01*
G37*
G36*
X37810000Y-58830000D02*
G01*
X38050000Y-58830000D01*
X38050000Y-59949999D01*
X37810000Y-59949999D01*
X37810000Y-58830000D01*
G37*
G36*
X37810000Y-64110000D02*
G01*
X38050000Y-64110000D01*
X38050000Y-65009999D01*
X37810000Y-65009999D01*
X37810000Y-64110000D01*
G37*
G36*
X38030000Y-59490000D02*
G01*
X38269999Y-59490000D01*
X38269999Y-60610000D01*
X38030000Y-60610000D01*
X38030000Y-59490000D01*
G37*
G36*
X38030000Y-63230000D02*
G01*
X38269999Y-63230000D01*
X38269999Y-64569999D01*
X38030000Y-64569999D01*
X38030000Y-63230000D01*
G37*
G36*
X38250000Y-59930000D02*
G01*
X38489999Y-59930000D01*
X38489999Y-63910000D01*
X38250000Y-63910000D01*
X38250000Y-59930000D01*
G37*
G36*
X38470000Y-61030000D02*
G01*
X38709999Y-61030000D01*
X38709999Y-62809999D01*
X38470000Y-62809999D01*
X38470000Y-61030000D01*
G37*
D10*
X63466666Y-46363855D02*
X63466666Y-45563855D01*
X63466666Y-45563855D02*
X63771428Y-45563855D01*
X63771428Y-45563855D02*
X63847618Y-45601950D01*
X63847618Y-45601950D02*
X63885713Y-45640045D01*
X63885713Y-45640045D02*
X63923809Y-45716236D01*
X63923809Y-45716236D02*
X63923809Y-45830521D01*
X63923809Y-45830521D02*
X63885713Y-45906712D01*
X63885713Y-45906712D02*
X63847618Y-45944807D01*
X63847618Y-45944807D02*
X63771428Y-45982902D01*
X63771428Y-45982902D02*
X63466666Y-45982902D01*
X64228570Y-46135283D02*
X64609523Y-46135283D01*
X64152380Y-46363855D02*
X64419047Y-45563855D01*
X64419047Y-45563855D02*
X64685713Y-46363855D01*
X64952380Y-46363855D02*
X64952380Y-45563855D01*
X64952380Y-45563855D02*
X65219046Y-46135283D01*
X65219046Y-46135283D02*
X65485713Y-45563855D01*
X65485713Y-45563855D02*
X65485713Y-46363855D01*
X65980951Y-45906712D02*
X65904761Y-45868617D01*
X65904761Y-45868617D02*
X65866666Y-45830521D01*
X65866666Y-45830521D02*
X65828570Y-45754331D01*
X65828570Y-45754331D02*
X65828570Y-45716236D01*
X65828570Y-45716236D02*
X65866666Y-45640045D01*
X65866666Y-45640045D02*
X65904761Y-45601950D01*
X65904761Y-45601950D02*
X65980951Y-45563855D01*
X65980951Y-45563855D02*
X66133332Y-45563855D01*
X66133332Y-45563855D02*
X66209523Y-45601950D01*
X66209523Y-45601950D02*
X66247618Y-45640045D01*
X66247618Y-45640045D02*
X66285713Y-45716236D01*
X66285713Y-45716236D02*
X66285713Y-45754331D01*
X66285713Y-45754331D02*
X66247618Y-45830521D01*
X66247618Y-45830521D02*
X66209523Y-45868617D01*
X66209523Y-45868617D02*
X66133332Y-45906712D01*
X66133332Y-45906712D02*
X65980951Y-45906712D01*
X65980951Y-45906712D02*
X65904761Y-45944807D01*
X65904761Y-45944807D02*
X65866666Y-45982902D01*
X65866666Y-45982902D02*
X65828570Y-46059093D01*
X65828570Y-46059093D02*
X65828570Y-46211474D01*
X65828570Y-46211474D02*
X65866666Y-46287664D01*
X65866666Y-46287664D02*
X65904761Y-46325760D01*
X65904761Y-46325760D02*
X65980951Y-46363855D01*
X65980951Y-46363855D02*
X66133332Y-46363855D01*
X66133332Y-46363855D02*
X66209523Y-46325760D01*
X66209523Y-46325760D02*
X66247618Y-46287664D01*
X66247618Y-46287664D02*
X66285713Y-46211474D01*
X66285713Y-46211474D02*
X66285713Y-46059093D01*
X66285713Y-46059093D02*
X66247618Y-45982902D01*
X66247618Y-45982902D02*
X66209523Y-45944807D01*
X66209523Y-45944807D02*
X66133332Y-45906712D01*
X66971428Y-45830521D02*
X66971428Y-46363855D01*
X66780952Y-45525760D02*
X66590475Y-46097188D01*
X66590475Y-46097188D02*
X67085714Y-46097188D01*
X67542857Y-45563855D02*
X67619047Y-45563855D01*
X67619047Y-45563855D02*
X67695238Y-45601950D01*
X67695238Y-45601950D02*
X67733333Y-45640045D01*
X67733333Y-45640045D02*
X67771428Y-45716236D01*
X67771428Y-45716236D02*
X67809523Y-45868617D01*
X67809523Y-45868617D02*
X67809523Y-46059093D01*
X67809523Y-46059093D02*
X67771428Y-46211474D01*
X67771428Y-46211474D02*
X67733333Y-46287664D01*
X67733333Y-46287664D02*
X67695238Y-46325760D01*
X67695238Y-46325760D02*
X67619047Y-46363855D01*
X67619047Y-46363855D02*
X67542857Y-46363855D01*
X67542857Y-46363855D02*
X67466666Y-46325760D01*
X67466666Y-46325760D02*
X67428571Y-46287664D01*
X67428571Y-46287664D02*
X67390476Y-46211474D01*
X67390476Y-46211474D02*
X67352380Y-46059093D01*
X67352380Y-46059093D02*
X67352380Y-45868617D01*
X67352380Y-45868617D02*
X67390476Y-45716236D01*
X67390476Y-45716236D02*
X67428571Y-45640045D01*
X67428571Y-45640045D02*
X67466666Y-45601950D01*
X67466666Y-45601950D02*
X67542857Y-45563855D01*
X68076190Y-45563855D02*
X68571428Y-45563855D01*
X68571428Y-45563855D02*
X68304762Y-45868617D01*
X68304762Y-45868617D02*
X68419047Y-45868617D01*
X68419047Y-45868617D02*
X68495238Y-45906712D01*
X68495238Y-45906712D02*
X68533333Y-45944807D01*
X68533333Y-45944807D02*
X68571428Y-46020998D01*
X68571428Y-46020998D02*
X68571428Y-46211474D01*
X68571428Y-46211474D02*
X68533333Y-46287664D01*
X68533333Y-46287664D02*
X68495238Y-46325760D01*
X68495238Y-46325760D02*
X68419047Y-46363855D01*
X68419047Y-46363855D02*
X68190476Y-46363855D01*
X68190476Y-46363855D02*
X68114285Y-46325760D01*
X68114285Y-46325760D02*
X68076190Y-46287664D01*
X71752381Y-63135283D02*
X72133334Y-63135283D01*
X71676191Y-63363855D02*
X71942858Y-62563855D01*
X71942858Y-62563855D02*
X72209524Y-63363855D01*
X72476191Y-62563855D02*
X72476191Y-63211474D01*
X72476191Y-63211474D02*
X72514286Y-63287664D01*
X72514286Y-63287664D02*
X72552381Y-63325760D01*
X72552381Y-63325760D02*
X72628572Y-63363855D01*
X72628572Y-63363855D02*
X72780953Y-63363855D01*
X72780953Y-63363855D02*
X72857143Y-63325760D01*
X72857143Y-63325760D02*
X72895238Y-63287664D01*
X72895238Y-63287664D02*
X72933334Y-63211474D01*
X72933334Y-63211474D02*
X72933334Y-62563855D01*
X73314286Y-63363855D02*
X73314286Y-62563855D01*
X73314286Y-62563855D02*
X73504762Y-62563855D01*
X73504762Y-62563855D02*
X73619048Y-62601950D01*
X73619048Y-62601950D02*
X73695238Y-62678140D01*
X73695238Y-62678140D02*
X73733333Y-62754331D01*
X73733333Y-62754331D02*
X73771429Y-62906712D01*
X73771429Y-62906712D02*
X73771429Y-63020998D01*
X73771429Y-63020998D02*
X73733333Y-63173379D01*
X73733333Y-63173379D02*
X73695238Y-63249569D01*
X73695238Y-63249569D02*
X73619048Y-63325760D01*
X73619048Y-63325760D02*
X73504762Y-63363855D01*
X73504762Y-63363855D02*
X73314286Y-63363855D01*
X74114286Y-63363855D02*
X74114286Y-62563855D01*
X74647619Y-62563855D02*
X74800000Y-62563855D01*
X74800000Y-62563855D02*
X74876190Y-62601950D01*
X74876190Y-62601950D02*
X74952381Y-62678140D01*
X74952381Y-62678140D02*
X74990476Y-62830521D01*
X74990476Y-62830521D02*
X74990476Y-63097188D01*
X74990476Y-63097188D02*
X74952381Y-63249569D01*
X74952381Y-63249569D02*
X74876190Y-63325760D01*
X74876190Y-63325760D02*
X74800000Y-63363855D01*
X74800000Y-63363855D02*
X74647619Y-63363855D01*
X74647619Y-63363855D02*
X74571428Y-63325760D01*
X74571428Y-63325760D02*
X74495238Y-63249569D01*
X74495238Y-63249569D02*
X74457142Y-63097188D01*
X74457142Y-63097188D02*
X74457142Y-62830521D01*
X74457142Y-62830521D02*
X74495238Y-62678140D01*
X74495238Y-62678140D02*
X74571428Y-62601950D01*
X74571428Y-62601950D02*
X74647619Y-62563855D01*
X76323809Y-63363855D02*
X75942857Y-63363855D01*
X75942857Y-63363855D02*
X75942857Y-62563855D01*
X71676190Y-76135283D02*
X72057143Y-76135283D01*
X71600000Y-76363855D02*
X71866667Y-75563855D01*
X71866667Y-75563855D02*
X72133333Y-76363855D01*
X72400000Y-75563855D02*
X72400000Y-76211474D01*
X72400000Y-76211474D02*
X72438095Y-76287664D01*
X72438095Y-76287664D02*
X72476190Y-76325760D01*
X72476190Y-76325760D02*
X72552381Y-76363855D01*
X72552381Y-76363855D02*
X72704762Y-76363855D01*
X72704762Y-76363855D02*
X72780952Y-76325760D01*
X72780952Y-76325760D02*
X72819047Y-76287664D01*
X72819047Y-76287664D02*
X72857143Y-76211474D01*
X72857143Y-76211474D02*
X72857143Y-75563855D01*
X73238095Y-76363855D02*
X73238095Y-75563855D01*
X73238095Y-75563855D02*
X73428571Y-75563855D01*
X73428571Y-75563855D02*
X73542857Y-75601950D01*
X73542857Y-75601950D02*
X73619047Y-75678140D01*
X73619047Y-75678140D02*
X73657142Y-75754331D01*
X73657142Y-75754331D02*
X73695238Y-75906712D01*
X73695238Y-75906712D02*
X73695238Y-76020998D01*
X73695238Y-76020998D02*
X73657142Y-76173379D01*
X73657142Y-76173379D02*
X73619047Y-76249569D01*
X73619047Y-76249569D02*
X73542857Y-76325760D01*
X73542857Y-76325760D02*
X73428571Y-76363855D01*
X73428571Y-76363855D02*
X73238095Y-76363855D01*
X74038095Y-76363855D02*
X74038095Y-75563855D01*
X74571428Y-75563855D02*
X74723809Y-75563855D01*
X74723809Y-75563855D02*
X74799999Y-75601950D01*
X74799999Y-75601950D02*
X74876190Y-75678140D01*
X74876190Y-75678140D02*
X74914285Y-75830521D01*
X74914285Y-75830521D02*
X74914285Y-76097188D01*
X74914285Y-76097188D02*
X74876190Y-76249569D01*
X74876190Y-76249569D02*
X74799999Y-76325760D01*
X74799999Y-76325760D02*
X74723809Y-76363855D01*
X74723809Y-76363855D02*
X74571428Y-76363855D01*
X74571428Y-76363855D02*
X74495237Y-76325760D01*
X74495237Y-76325760D02*
X74419047Y-76249569D01*
X74419047Y-76249569D02*
X74380951Y-76097188D01*
X74380951Y-76097188D02*
X74380951Y-75830521D01*
X74380951Y-75830521D02*
X74419047Y-75678140D01*
X74419047Y-75678140D02*
X74495237Y-75601950D01*
X74495237Y-75601950D02*
X74571428Y-75563855D01*
X76323809Y-76363855D02*
X76057142Y-75982902D01*
X75866666Y-76363855D02*
X75866666Y-75563855D01*
X75866666Y-75563855D02*
X76171428Y-75563855D01*
X76171428Y-75563855D02*
X76247618Y-75601950D01*
X76247618Y-75601950D02*
X76285713Y-75640045D01*
X76285713Y-75640045D02*
X76323809Y-75716236D01*
X76323809Y-75716236D02*
X76323809Y-75830521D01*
X76323809Y-75830521D02*
X76285713Y-75906712D01*
X76285713Y-75906712D02*
X76247618Y-75944807D01*
X76247618Y-75944807D02*
X76171428Y-75982902D01*
X76171428Y-75982902D02*
X75866666Y-75982902D01*
X74361905Y-49563855D02*
X74628572Y-50363855D01*
X74628572Y-50363855D02*
X74895238Y-49563855D01*
X75161905Y-50363855D02*
X75161905Y-49563855D01*
X75542857Y-50363855D02*
X75542857Y-49563855D01*
X75542857Y-49563855D02*
X75733333Y-49563855D01*
X75733333Y-49563855D02*
X75847619Y-49601950D01*
X75847619Y-49601950D02*
X75923809Y-49678140D01*
X75923809Y-49678140D02*
X75961904Y-49754331D01*
X75961904Y-49754331D02*
X76000000Y-49906712D01*
X76000000Y-49906712D02*
X76000000Y-50020998D01*
X76000000Y-50020998D02*
X75961904Y-50173379D01*
X75961904Y-50173379D02*
X75923809Y-50249569D01*
X75923809Y-50249569D02*
X75847619Y-50325760D01*
X75847619Y-50325760D02*
X75733333Y-50363855D01*
X75733333Y-50363855D02*
X75542857Y-50363855D01*
X76342857Y-49944807D02*
X76609523Y-49944807D01*
X76723809Y-50363855D02*
X76342857Y-50363855D01*
X76342857Y-50363855D02*
X76342857Y-49563855D01*
X76342857Y-49563855D02*
X76723809Y-49563855D01*
X77219048Y-49563855D02*
X77371429Y-49563855D01*
X77371429Y-49563855D02*
X77447619Y-49601950D01*
X77447619Y-49601950D02*
X77523810Y-49678140D01*
X77523810Y-49678140D02*
X77561905Y-49830521D01*
X77561905Y-49830521D02*
X77561905Y-50097188D01*
X77561905Y-50097188D02*
X77523810Y-50249569D01*
X77523810Y-50249569D02*
X77447619Y-50325760D01*
X77447619Y-50325760D02*
X77371429Y-50363855D01*
X77371429Y-50363855D02*
X77219048Y-50363855D01*
X77219048Y-50363855D02*
X77142857Y-50325760D01*
X77142857Y-50325760D02*
X77066667Y-50249569D01*
X77066667Y-50249569D02*
X77028571Y-50097188D01*
X77028571Y-50097188D02*
X77028571Y-49830521D01*
X77028571Y-49830521D02*
X77066667Y-49678140D01*
X77066667Y-49678140D02*
X77142857Y-49601950D01*
X77142857Y-49601950D02*
X77219048Y-49563855D01*
D11*
X22362295Y-77799999D02*
X21981342Y-78066666D01*
X22362295Y-78257142D02*
X21562295Y-78257142D01*
X21562295Y-78257142D02*
X21562295Y-77952380D01*
X21562295Y-77952380D02*
X21600390Y-77876190D01*
X21600390Y-77876190D02*
X21638485Y-77838095D01*
X21638485Y-77838095D02*
X21714676Y-77799999D01*
X21714676Y-77799999D02*
X21828961Y-77799999D01*
X21828961Y-77799999D02*
X21905152Y-77838095D01*
X21905152Y-77838095D02*
X21943247Y-77876190D01*
X21943247Y-77876190D02*
X21981342Y-77952380D01*
X21981342Y-77952380D02*
X21981342Y-78257142D01*
X22286104Y-76999999D02*
X22324200Y-77038095D01*
X22324200Y-77038095D02*
X22362295Y-77152380D01*
X22362295Y-77152380D02*
X22362295Y-77228571D01*
X22362295Y-77228571D02*
X22324200Y-77342857D01*
X22324200Y-77342857D02*
X22248009Y-77419047D01*
X22248009Y-77419047D02*
X22171819Y-77457142D01*
X22171819Y-77457142D02*
X22019438Y-77495238D01*
X22019438Y-77495238D02*
X21905152Y-77495238D01*
X21905152Y-77495238D02*
X21752771Y-77457142D01*
X21752771Y-77457142D02*
X21676580Y-77419047D01*
X21676580Y-77419047D02*
X21600390Y-77342857D01*
X21600390Y-77342857D02*
X21562295Y-77228571D01*
X21562295Y-77228571D02*
X21562295Y-77152380D01*
X21562295Y-77152380D02*
X21600390Y-77038095D01*
X21600390Y-77038095D02*
X21638485Y-76999999D01*
X22133723Y-76695238D02*
X22133723Y-76314285D01*
X22362295Y-76771428D02*
X21562295Y-76504761D01*
X21562295Y-76504761D02*
X22362295Y-76238095D01*
X22438485Y-76161905D02*
X22438485Y-75552381D01*
X22286104Y-74904761D02*
X22324200Y-74942857D01*
X22324200Y-74942857D02*
X22362295Y-75057142D01*
X22362295Y-75057142D02*
X22362295Y-75133333D01*
X22362295Y-75133333D02*
X22324200Y-75247619D01*
X22324200Y-75247619D02*
X22248009Y-75323809D01*
X22248009Y-75323809D02*
X22171819Y-75361904D01*
X22171819Y-75361904D02*
X22019438Y-75400000D01*
X22019438Y-75400000D02*
X21905152Y-75400000D01*
X21905152Y-75400000D02*
X21752771Y-75361904D01*
X21752771Y-75361904D02*
X21676580Y-75323809D01*
X21676580Y-75323809D02*
X21600390Y-75247619D01*
X21600390Y-75247619D02*
X21562295Y-75133333D01*
X21562295Y-75133333D02*
X21562295Y-75057142D01*
X21562295Y-75057142D02*
X21600390Y-74942857D01*
X21600390Y-74942857D02*
X21638485Y-74904761D01*
X24902295Y-77780951D02*
X24521342Y-78047618D01*
X24902295Y-78238094D02*
X24102295Y-78238094D01*
X24102295Y-78238094D02*
X24102295Y-77933332D01*
X24102295Y-77933332D02*
X24140390Y-77857142D01*
X24140390Y-77857142D02*
X24178485Y-77819047D01*
X24178485Y-77819047D02*
X24254676Y-77780951D01*
X24254676Y-77780951D02*
X24368961Y-77780951D01*
X24368961Y-77780951D02*
X24445152Y-77819047D01*
X24445152Y-77819047D02*
X24483247Y-77857142D01*
X24483247Y-77857142D02*
X24521342Y-77933332D01*
X24521342Y-77933332D02*
X24521342Y-78238094D01*
X24826104Y-76980951D02*
X24864200Y-77019047D01*
X24864200Y-77019047D02*
X24902295Y-77133332D01*
X24902295Y-77133332D02*
X24902295Y-77209523D01*
X24902295Y-77209523D02*
X24864200Y-77323809D01*
X24864200Y-77323809D02*
X24788009Y-77399999D01*
X24788009Y-77399999D02*
X24711819Y-77438094D01*
X24711819Y-77438094D02*
X24559438Y-77476190D01*
X24559438Y-77476190D02*
X24445152Y-77476190D01*
X24445152Y-77476190D02*
X24292771Y-77438094D01*
X24292771Y-77438094D02*
X24216580Y-77399999D01*
X24216580Y-77399999D02*
X24140390Y-77323809D01*
X24140390Y-77323809D02*
X24102295Y-77209523D01*
X24102295Y-77209523D02*
X24102295Y-77133332D01*
X24102295Y-77133332D02*
X24140390Y-77019047D01*
X24140390Y-77019047D02*
X24178485Y-76980951D01*
X24673723Y-76676190D02*
X24673723Y-76295237D01*
X24902295Y-76752380D02*
X24102295Y-76485713D01*
X24102295Y-76485713D02*
X24902295Y-76219047D01*
X24978485Y-76142857D02*
X24978485Y-75533333D01*
X24864200Y-75380952D02*
X24902295Y-75266666D01*
X24902295Y-75266666D02*
X24902295Y-75076190D01*
X24902295Y-75076190D02*
X24864200Y-74999999D01*
X24864200Y-74999999D02*
X24826104Y-74961904D01*
X24826104Y-74961904D02*
X24749914Y-74923809D01*
X24749914Y-74923809D02*
X24673723Y-74923809D01*
X24673723Y-74923809D02*
X24597533Y-74961904D01*
X24597533Y-74961904D02*
X24559438Y-74999999D01*
X24559438Y-74999999D02*
X24521342Y-75076190D01*
X24521342Y-75076190D02*
X24483247Y-75228571D01*
X24483247Y-75228571D02*
X24445152Y-75304761D01*
X24445152Y-75304761D02*
X24407057Y-75342856D01*
X24407057Y-75342856D02*
X24330866Y-75380952D01*
X24330866Y-75380952D02*
X24254676Y-75380952D01*
X24254676Y-75380952D02*
X24178485Y-75342856D01*
X24178485Y-75342856D02*
X24140390Y-75304761D01*
X24140390Y-75304761D02*
X24102295Y-75228571D01*
X24102295Y-75228571D02*
X24102295Y-75038094D01*
X24102295Y-75038094D02*
X24140390Y-74923809D01*
X27442295Y-77723808D02*
X27442295Y-78104760D01*
X27442295Y-78104760D02*
X26642295Y-78104760D01*
X27442295Y-77457141D02*
X26642295Y-77457141D01*
X27442295Y-77076189D02*
X26642295Y-77076189D01*
X26642295Y-77076189D02*
X27442295Y-76619046D01*
X27442295Y-76619046D02*
X26642295Y-76619046D01*
X27442295Y-76238094D02*
X26642295Y-76238094D01*
X27023247Y-76238094D02*
X27023247Y-75780951D01*
X27442295Y-75780951D02*
X26642295Y-75780951D01*
X27213723Y-75438095D02*
X27213723Y-75057142D01*
X27442295Y-75514285D02*
X26642295Y-75247618D01*
X26642295Y-75247618D02*
X27442295Y-74980952D01*
X29220390Y-77209523D02*
X29182295Y-77285713D01*
X29182295Y-77285713D02*
X29182295Y-77399999D01*
X29182295Y-77399999D02*
X29220390Y-77514285D01*
X29220390Y-77514285D02*
X29296580Y-77590475D01*
X29296580Y-77590475D02*
X29372771Y-77628570D01*
X29372771Y-77628570D02*
X29525152Y-77666666D01*
X29525152Y-77666666D02*
X29639438Y-77666666D01*
X29639438Y-77666666D02*
X29791819Y-77628570D01*
X29791819Y-77628570D02*
X29868009Y-77590475D01*
X29868009Y-77590475D02*
X29944200Y-77514285D01*
X29944200Y-77514285D02*
X29982295Y-77399999D01*
X29982295Y-77399999D02*
X29982295Y-77323808D01*
X29982295Y-77323808D02*
X29944200Y-77209523D01*
X29944200Y-77209523D02*
X29906104Y-77171427D01*
X29906104Y-77171427D02*
X29639438Y-77171427D01*
X29639438Y-77171427D02*
X29639438Y-77323808D01*
X29982295Y-76828570D02*
X29182295Y-76828570D01*
X29182295Y-76828570D02*
X29982295Y-76371427D01*
X29982295Y-76371427D02*
X29182295Y-76371427D01*
X29982295Y-75990475D02*
X29182295Y-75990475D01*
X29182295Y-75990475D02*
X29182295Y-75799999D01*
X29182295Y-75799999D02*
X29220390Y-75685713D01*
X29220390Y-75685713D02*
X29296580Y-75609523D01*
X29296580Y-75609523D02*
X29372771Y-75571428D01*
X29372771Y-75571428D02*
X29525152Y-75533332D01*
X29525152Y-75533332D02*
X29639438Y-75533332D01*
X29639438Y-75533332D02*
X29791819Y-75571428D01*
X29791819Y-75571428D02*
X29868009Y-75609523D01*
X29868009Y-75609523D02*
X29944200Y-75685713D01*
X29944200Y-75685713D02*
X29982295Y-75799999D01*
X29982295Y-75799999D02*
X29982295Y-75990475D01*
X32522294Y-77990475D02*
X32522294Y-78371427D01*
X32522294Y-78371427D02*
X31722294Y-78371427D01*
X31722294Y-77571427D02*
X31722294Y-77419046D01*
X31722294Y-77419046D02*
X31760389Y-77342856D01*
X31760389Y-77342856D02*
X31836579Y-77266665D01*
X31836579Y-77266665D02*
X31988960Y-77228570D01*
X31988960Y-77228570D02*
X32255627Y-77228570D01*
X32255627Y-77228570D02*
X32408008Y-77266665D01*
X32408008Y-77266665D02*
X32484199Y-77342856D01*
X32484199Y-77342856D02*
X32522294Y-77419046D01*
X32522294Y-77419046D02*
X32522294Y-77571427D01*
X32522294Y-77571427D02*
X32484199Y-77647618D01*
X32484199Y-77647618D02*
X32408008Y-77723808D01*
X32408008Y-77723808D02*
X32255627Y-77761904D01*
X32255627Y-77761904D02*
X31988960Y-77761904D01*
X31988960Y-77761904D02*
X31836579Y-77723808D01*
X31836579Y-77723808D02*
X31760389Y-77647618D01*
X31760389Y-77647618D02*
X31722294Y-77571427D01*
X31722294Y-76885713D02*
X32369913Y-76885713D01*
X32369913Y-76885713D02*
X32446103Y-76847618D01*
X32446103Y-76847618D02*
X32484199Y-76809523D01*
X32484199Y-76809523D02*
X32522294Y-76733332D01*
X32522294Y-76733332D02*
X32522294Y-76580951D01*
X32522294Y-76580951D02*
X32484199Y-76504761D01*
X32484199Y-76504761D02*
X32446103Y-76466666D01*
X32446103Y-76466666D02*
X32369913Y-76428570D01*
X32369913Y-76428570D02*
X31722294Y-76428570D01*
X31722294Y-76161904D02*
X31722294Y-75704761D01*
X32522294Y-75933333D02*
X31722294Y-75933333D01*
X32217532Y-75438094D02*
X32217532Y-74828571D01*
X32522294Y-75133332D02*
X31912770Y-75133332D01*
X35062295Y-77990475D02*
X35062295Y-78371427D01*
X35062295Y-78371427D02*
X34262295Y-78371427D01*
X34262295Y-77571427D02*
X34262295Y-77419046D01*
X34262295Y-77419046D02*
X34300390Y-77342856D01*
X34300390Y-77342856D02*
X34376580Y-77266665D01*
X34376580Y-77266665D02*
X34528961Y-77228570D01*
X34528961Y-77228570D02*
X34795628Y-77228570D01*
X34795628Y-77228570D02*
X34948009Y-77266665D01*
X34948009Y-77266665D02*
X35024200Y-77342856D01*
X35024200Y-77342856D02*
X35062295Y-77419046D01*
X35062295Y-77419046D02*
X35062295Y-77571427D01*
X35062295Y-77571427D02*
X35024200Y-77647618D01*
X35024200Y-77647618D02*
X34948009Y-77723808D01*
X34948009Y-77723808D02*
X34795628Y-77761904D01*
X34795628Y-77761904D02*
X34528961Y-77761904D01*
X34528961Y-77761904D02*
X34376580Y-77723808D01*
X34376580Y-77723808D02*
X34300390Y-77647618D01*
X34300390Y-77647618D02*
X34262295Y-77571427D01*
X34262295Y-76885713D02*
X34909914Y-76885713D01*
X34909914Y-76885713D02*
X34986104Y-76847618D01*
X34986104Y-76847618D02*
X35024200Y-76809523D01*
X35024200Y-76809523D02*
X35062295Y-76733332D01*
X35062295Y-76733332D02*
X35062295Y-76580951D01*
X35062295Y-76580951D02*
X35024200Y-76504761D01*
X35024200Y-76504761D02*
X34986104Y-76466666D01*
X34986104Y-76466666D02*
X34909914Y-76428570D01*
X34909914Y-76428570D02*
X34262295Y-76428570D01*
X34262295Y-76161904D02*
X34262295Y-75704761D01*
X35062295Y-75933333D02*
X34262295Y-75933333D01*
X34757533Y-75438094D02*
X34757533Y-74828571D01*
X38062295Y-77590476D02*
X38062295Y-77095238D01*
X38062295Y-77095238D02*
X38367057Y-77361904D01*
X38367057Y-77361904D02*
X38367057Y-77247619D01*
X38367057Y-77247619D02*
X38405152Y-77171428D01*
X38405152Y-77171428D02*
X38443247Y-77133333D01*
X38443247Y-77133333D02*
X38519438Y-77095238D01*
X38519438Y-77095238D02*
X38709914Y-77095238D01*
X38709914Y-77095238D02*
X38786104Y-77133333D01*
X38786104Y-77133333D02*
X38824200Y-77171428D01*
X38824200Y-77171428D02*
X38862295Y-77247619D01*
X38862295Y-77247619D02*
X38862295Y-77476190D01*
X38862295Y-77476190D02*
X38824200Y-77552381D01*
X38824200Y-77552381D02*
X38786104Y-77590476D01*
X38062295Y-76866666D02*
X38862295Y-76599999D01*
X38862295Y-76599999D02*
X38062295Y-76333333D01*
X38062295Y-76142857D02*
X38062295Y-75647619D01*
X38062295Y-75647619D02*
X38367057Y-75914285D01*
X38367057Y-75914285D02*
X38367057Y-75800000D01*
X38367057Y-75800000D02*
X38405152Y-75723809D01*
X38405152Y-75723809D02*
X38443247Y-75685714D01*
X38443247Y-75685714D02*
X38519438Y-75647619D01*
X38519438Y-75647619D02*
X38709914Y-75647619D01*
X38709914Y-75647619D02*
X38786104Y-75685714D01*
X38786104Y-75685714D02*
X38824200Y-75723809D01*
X38824200Y-75723809D02*
X38862295Y-75800000D01*
X38862295Y-75800000D02*
X38862295Y-76028571D01*
X38862295Y-76028571D02*
X38824200Y-76104762D01*
X38824200Y-76104762D02*
X38786104Y-76142857D01*
X41402295Y-77190475D02*
X40602295Y-77190475D01*
X40602295Y-77190475D02*
X40602295Y-76885713D01*
X40602295Y-76885713D02*
X40640390Y-76809523D01*
X40640390Y-76809523D02*
X40678485Y-76771428D01*
X40678485Y-76771428D02*
X40754676Y-76733332D01*
X40754676Y-76733332D02*
X40868961Y-76733332D01*
X40868961Y-76733332D02*
X40945152Y-76771428D01*
X40945152Y-76771428D02*
X40983247Y-76809523D01*
X40983247Y-76809523D02*
X41021342Y-76885713D01*
X41021342Y-76885713D02*
X41021342Y-77190475D01*
X41402295Y-75971428D02*
X41402295Y-76428571D01*
X41402295Y-76199999D02*
X40602295Y-76199999D01*
X40602295Y-76199999D02*
X40716580Y-76276190D01*
X40716580Y-76276190D02*
X40792771Y-76352380D01*
X40792771Y-76352380D02*
X40830866Y-76428571D01*
X43080390Y-63592381D02*
X43042295Y-63668571D01*
X43042295Y-63668571D02*
X43042295Y-63782857D01*
X43042295Y-63782857D02*
X43080390Y-63897143D01*
X43080390Y-63897143D02*
X43156580Y-63973333D01*
X43156580Y-63973333D02*
X43232771Y-64011428D01*
X43232771Y-64011428D02*
X43385152Y-64049524D01*
X43385152Y-64049524D02*
X43499438Y-64049524D01*
X43499438Y-64049524D02*
X43651819Y-64011428D01*
X43651819Y-64011428D02*
X43728009Y-63973333D01*
X43728009Y-63973333D02*
X43804200Y-63897143D01*
X43804200Y-63897143D02*
X43842295Y-63782857D01*
X43842295Y-63782857D02*
X43842295Y-63706666D01*
X43842295Y-63706666D02*
X43804200Y-63592381D01*
X43804200Y-63592381D02*
X43766104Y-63554285D01*
X43766104Y-63554285D02*
X43499438Y-63554285D01*
X43499438Y-63554285D02*
X43499438Y-63706666D01*
X43842295Y-63211428D02*
X43042295Y-63211428D01*
X43042295Y-63211428D02*
X43042295Y-62906666D01*
X43042295Y-62906666D02*
X43080390Y-62830476D01*
X43080390Y-62830476D02*
X43118485Y-62792381D01*
X43118485Y-62792381D02*
X43194676Y-62754285D01*
X43194676Y-62754285D02*
X43308961Y-62754285D01*
X43308961Y-62754285D02*
X43385152Y-62792381D01*
X43385152Y-62792381D02*
X43423247Y-62830476D01*
X43423247Y-62830476D02*
X43461342Y-62906666D01*
X43461342Y-62906666D02*
X43461342Y-63211428D01*
X43842295Y-61992381D02*
X43842295Y-62449524D01*
X43842295Y-62220952D02*
X43042295Y-62220952D01*
X43042295Y-62220952D02*
X43156580Y-62297143D01*
X43156580Y-62297143D02*
X43232771Y-62373333D01*
X43232771Y-62373333D02*
X43270866Y-62449524D01*
X43385152Y-61535238D02*
X43347057Y-61611428D01*
X43347057Y-61611428D02*
X43308961Y-61649523D01*
X43308961Y-61649523D02*
X43232771Y-61687619D01*
X43232771Y-61687619D02*
X43194676Y-61687619D01*
X43194676Y-61687619D02*
X43118485Y-61649523D01*
X43118485Y-61649523D02*
X43080390Y-61611428D01*
X43080390Y-61611428D02*
X43042295Y-61535238D01*
X43042295Y-61535238D02*
X43042295Y-61382857D01*
X43042295Y-61382857D02*
X43080390Y-61306666D01*
X43080390Y-61306666D02*
X43118485Y-61268571D01*
X43118485Y-61268571D02*
X43194676Y-61230476D01*
X43194676Y-61230476D02*
X43232771Y-61230476D01*
X43232771Y-61230476D02*
X43308961Y-61268571D01*
X43308961Y-61268571D02*
X43347057Y-61306666D01*
X43347057Y-61306666D02*
X43385152Y-61382857D01*
X43385152Y-61382857D02*
X43385152Y-61535238D01*
X43385152Y-61535238D02*
X43423247Y-61611428D01*
X43423247Y-61611428D02*
X43461342Y-61649523D01*
X43461342Y-61649523D02*
X43537533Y-61687619D01*
X43537533Y-61687619D02*
X43689914Y-61687619D01*
X43689914Y-61687619D02*
X43766104Y-61649523D01*
X43766104Y-61649523D02*
X43804200Y-61611428D01*
X43804200Y-61611428D02*
X43842295Y-61535238D01*
X43842295Y-61535238D02*
X43842295Y-61382857D01*
X43842295Y-61382857D02*
X43804200Y-61306666D01*
X43804200Y-61306666D02*
X43766104Y-61268571D01*
X43766104Y-61268571D02*
X43689914Y-61230476D01*
X43689914Y-61230476D02*
X43537533Y-61230476D01*
X43537533Y-61230476D02*
X43461342Y-61268571D01*
X43461342Y-61268571D02*
X43423247Y-61306666D01*
X43423247Y-61306666D02*
X43385152Y-61382857D01*
X43080390Y-68672381D02*
X43042295Y-68748571D01*
X43042295Y-68748571D02*
X43042295Y-68862857D01*
X43042295Y-68862857D02*
X43080390Y-68977143D01*
X43080390Y-68977143D02*
X43156580Y-69053333D01*
X43156580Y-69053333D02*
X43232771Y-69091428D01*
X43232771Y-69091428D02*
X43385152Y-69129524D01*
X43385152Y-69129524D02*
X43499438Y-69129524D01*
X43499438Y-69129524D02*
X43651819Y-69091428D01*
X43651819Y-69091428D02*
X43728009Y-69053333D01*
X43728009Y-69053333D02*
X43804200Y-68977143D01*
X43804200Y-68977143D02*
X43842295Y-68862857D01*
X43842295Y-68862857D02*
X43842295Y-68786666D01*
X43842295Y-68786666D02*
X43804200Y-68672381D01*
X43804200Y-68672381D02*
X43766104Y-68634285D01*
X43766104Y-68634285D02*
X43499438Y-68634285D01*
X43499438Y-68634285D02*
X43499438Y-68786666D01*
X43842295Y-68291428D02*
X43042295Y-68291428D01*
X43042295Y-68291428D02*
X43042295Y-67986666D01*
X43042295Y-67986666D02*
X43080390Y-67910476D01*
X43080390Y-67910476D02*
X43118485Y-67872381D01*
X43118485Y-67872381D02*
X43194676Y-67834285D01*
X43194676Y-67834285D02*
X43308961Y-67834285D01*
X43308961Y-67834285D02*
X43385152Y-67872381D01*
X43385152Y-67872381D02*
X43423247Y-67910476D01*
X43423247Y-67910476D02*
X43461342Y-67986666D01*
X43461342Y-67986666D02*
X43461342Y-68291428D01*
X43842295Y-67072381D02*
X43842295Y-67529524D01*
X43842295Y-67300952D02*
X43042295Y-67300952D01*
X43042295Y-67300952D02*
X43156580Y-67377143D01*
X43156580Y-67377143D02*
X43232771Y-67453333D01*
X43232771Y-67453333D02*
X43270866Y-67529524D01*
X43042295Y-66805714D02*
X43042295Y-66272380D01*
X43042295Y-66272380D02*
X43842295Y-66615238D01*
X43713723Y-78009523D02*
X43713723Y-77628570D01*
X43942295Y-78085713D02*
X43142295Y-77819046D01*
X43142295Y-77819046D02*
X43942295Y-77552380D01*
X43180390Y-76866666D02*
X43142295Y-76942856D01*
X43142295Y-76942856D02*
X43142295Y-77057142D01*
X43142295Y-77057142D02*
X43180390Y-77171428D01*
X43180390Y-77171428D02*
X43256580Y-77247618D01*
X43256580Y-77247618D02*
X43332771Y-77285713D01*
X43332771Y-77285713D02*
X43485152Y-77323809D01*
X43485152Y-77323809D02*
X43599438Y-77323809D01*
X43599438Y-77323809D02*
X43751819Y-77285713D01*
X43751819Y-77285713D02*
X43828009Y-77247618D01*
X43828009Y-77247618D02*
X43904200Y-77171428D01*
X43904200Y-77171428D02*
X43942295Y-77057142D01*
X43942295Y-77057142D02*
X43942295Y-76980951D01*
X43942295Y-76980951D02*
X43904200Y-76866666D01*
X43904200Y-76866666D02*
X43866104Y-76828570D01*
X43866104Y-76828570D02*
X43599438Y-76828570D01*
X43599438Y-76828570D02*
X43599438Y-76980951D01*
X43942295Y-76485713D02*
X43142295Y-76485713D01*
X43142295Y-76485713D02*
X43942295Y-76028570D01*
X43942295Y-76028570D02*
X43142295Y-76028570D01*
X43942295Y-75647618D02*
X43142295Y-75647618D01*
X43142295Y-75647618D02*
X43142295Y-75457142D01*
X43142295Y-75457142D02*
X43180390Y-75342856D01*
X43180390Y-75342856D02*
X43256580Y-75266666D01*
X43256580Y-75266666D02*
X43332771Y-75228571D01*
X43332771Y-75228571D02*
X43485152Y-75190475D01*
X43485152Y-75190475D02*
X43599438Y-75190475D01*
X43599438Y-75190475D02*
X43751819Y-75228571D01*
X43751819Y-75228571D02*
X43828009Y-75266666D01*
X43828009Y-75266666D02*
X43904200Y-75342856D01*
X43904200Y-75342856D02*
X43942295Y-75457142D01*
X43942295Y-75457142D02*
X43942295Y-75647618D01*
X48222295Y-77590476D02*
X48222295Y-77095238D01*
X48222295Y-77095238D02*
X48527057Y-77361904D01*
X48527057Y-77361904D02*
X48527057Y-77247619D01*
X48527057Y-77247619D02*
X48565152Y-77171428D01*
X48565152Y-77171428D02*
X48603247Y-77133333D01*
X48603247Y-77133333D02*
X48679438Y-77095238D01*
X48679438Y-77095238D02*
X48869914Y-77095238D01*
X48869914Y-77095238D02*
X48946104Y-77133333D01*
X48946104Y-77133333D02*
X48984200Y-77171428D01*
X48984200Y-77171428D02*
X49022295Y-77247619D01*
X49022295Y-77247619D02*
X49022295Y-77476190D01*
X49022295Y-77476190D02*
X48984200Y-77552381D01*
X48984200Y-77552381D02*
X48946104Y-77590476D01*
X48222295Y-76866666D02*
X49022295Y-76599999D01*
X49022295Y-76599999D02*
X48222295Y-76333333D01*
X48222295Y-76142857D02*
X48222295Y-75647619D01*
X48222295Y-75647619D02*
X48527057Y-75914285D01*
X48527057Y-75914285D02*
X48527057Y-75800000D01*
X48527057Y-75800000D02*
X48565152Y-75723809D01*
X48565152Y-75723809D02*
X48603247Y-75685714D01*
X48603247Y-75685714D02*
X48679438Y-75647619D01*
X48679438Y-75647619D02*
X48869914Y-75647619D01*
X48869914Y-75647619D02*
X48946104Y-75685714D01*
X48946104Y-75685714D02*
X48984200Y-75723809D01*
X48984200Y-75723809D02*
X49022295Y-75800000D01*
X49022295Y-75800000D02*
X49022295Y-76028571D01*
X49022295Y-76028571D02*
X48984200Y-76104762D01*
X48984200Y-76104762D02*
X48946104Y-76142857D01*
X51562295Y-77190475D02*
X50762295Y-77190475D01*
X50762295Y-77190475D02*
X50762295Y-76885713D01*
X50762295Y-76885713D02*
X50800390Y-76809523D01*
X50800390Y-76809523D02*
X50838485Y-76771428D01*
X50838485Y-76771428D02*
X50914676Y-76733332D01*
X50914676Y-76733332D02*
X51028961Y-76733332D01*
X51028961Y-76733332D02*
X51105152Y-76771428D01*
X51105152Y-76771428D02*
X51143247Y-76809523D01*
X51143247Y-76809523D02*
X51181342Y-76885713D01*
X51181342Y-76885713D02*
X51181342Y-77190475D01*
X50838485Y-76428571D02*
X50800390Y-76390475D01*
X50800390Y-76390475D02*
X50762295Y-76314285D01*
X50762295Y-76314285D02*
X50762295Y-76123809D01*
X50762295Y-76123809D02*
X50800390Y-76047618D01*
X50800390Y-76047618D02*
X50838485Y-76009523D01*
X50838485Y-76009523D02*
X50914676Y-75971428D01*
X50914676Y-75971428D02*
X50990866Y-75971428D01*
X50990866Y-75971428D02*
X51105152Y-76009523D01*
X51105152Y-76009523D02*
X51562295Y-76466666D01*
X51562295Y-76466666D02*
X51562295Y-75971428D01*
X53873723Y-78009523D02*
X53873723Y-77628570D01*
X54102295Y-78085713D02*
X53302295Y-77819046D01*
X53302295Y-77819046D02*
X54102295Y-77552380D01*
X53340390Y-76866666D02*
X53302295Y-76942856D01*
X53302295Y-76942856D02*
X53302295Y-77057142D01*
X53302295Y-77057142D02*
X53340390Y-77171428D01*
X53340390Y-77171428D02*
X53416580Y-77247618D01*
X53416580Y-77247618D02*
X53492771Y-77285713D01*
X53492771Y-77285713D02*
X53645152Y-77323809D01*
X53645152Y-77323809D02*
X53759438Y-77323809D01*
X53759438Y-77323809D02*
X53911819Y-77285713D01*
X53911819Y-77285713D02*
X53988009Y-77247618D01*
X53988009Y-77247618D02*
X54064200Y-77171428D01*
X54064200Y-77171428D02*
X54102295Y-77057142D01*
X54102295Y-77057142D02*
X54102295Y-76980951D01*
X54102295Y-76980951D02*
X54064200Y-76866666D01*
X54064200Y-76866666D02*
X54026104Y-76828570D01*
X54026104Y-76828570D02*
X53759438Y-76828570D01*
X53759438Y-76828570D02*
X53759438Y-76980951D01*
X54102295Y-76485713D02*
X53302295Y-76485713D01*
X53302295Y-76485713D02*
X54102295Y-76028570D01*
X54102295Y-76028570D02*
X53302295Y-76028570D01*
X54102295Y-75647618D02*
X53302295Y-75647618D01*
X53302295Y-75647618D02*
X53302295Y-75457142D01*
X53302295Y-75457142D02*
X53340390Y-75342856D01*
X53340390Y-75342856D02*
X53416580Y-75266666D01*
X53416580Y-75266666D02*
X53492771Y-75228571D01*
X53492771Y-75228571D02*
X53645152Y-75190475D01*
X53645152Y-75190475D02*
X53759438Y-75190475D01*
X53759438Y-75190475D02*
X53911819Y-75228571D01*
X53911819Y-75228571D02*
X53988009Y-75266666D01*
X53988009Y-75266666D02*
X54064200Y-75342856D01*
X54064200Y-75342856D02*
X54102295Y-75457142D01*
X54102295Y-75457142D02*
X54102295Y-75647618D01*
X66324200Y-78180952D02*
X66362295Y-78066666D01*
X66362295Y-78066666D02*
X66362295Y-77876190D01*
X66362295Y-77876190D02*
X66324200Y-77799999D01*
X66324200Y-77799999D02*
X66286104Y-77761904D01*
X66286104Y-77761904D02*
X66209914Y-77723809D01*
X66209914Y-77723809D02*
X66133723Y-77723809D01*
X66133723Y-77723809D02*
X66057533Y-77761904D01*
X66057533Y-77761904D02*
X66019438Y-77799999D01*
X66019438Y-77799999D02*
X65981342Y-77876190D01*
X65981342Y-77876190D02*
X65943247Y-78028571D01*
X65943247Y-78028571D02*
X65905152Y-78104761D01*
X65905152Y-78104761D02*
X65867057Y-78142856D01*
X65867057Y-78142856D02*
X65790866Y-78180952D01*
X65790866Y-78180952D02*
X65714676Y-78180952D01*
X65714676Y-78180952D02*
X65638485Y-78142856D01*
X65638485Y-78142856D02*
X65600390Y-78104761D01*
X65600390Y-78104761D02*
X65562295Y-78028571D01*
X65562295Y-78028571D02*
X65562295Y-77838094D01*
X65562295Y-77838094D02*
X65600390Y-77723809D01*
X65562295Y-77495237D02*
X65562295Y-77038094D01*
X66362295Y-77266666D02*
X65562295Y-77266666D01*
X66133723Y-76809523D02*
X66133723Y-76428570D01*
X66362295Y-76885713D02*
X65562295Y-76619046D01*
X65562295Y-76619046D02*
X66362295Y-76352380D01*
X66362295Y-75628570D02*
X65981342Y-75895237D01*
X66362295Y-76085713D02*
X65562295Y-76085713D01*
X65562295Y-76085713D02*
X65562295Y-75780951D01*
X65562295Y-75780951D02*
X65600390Y-75704761D01*
X65600390Y-75704761D02*
X65638485Y-75666666D01*
X65638485Y-75666666D02*
X65714676Y-75628570D01*
X65714676Y-75628570D02*
X65828961Y-75628570D01*
X65828961Y-75628570D02*
X65905152Y-75666666D01*
X65905152Y-75666666D02*
X65943247Y-75704761D01*
X65943247Y-75704761D02*
X65981342Y-75780951D01*
X65981342Y-75780951D02*
X65981342Y-76085713D01*
X65562295Y-75399999D02*
X65562295Y-74942856D01*
X66362295Y-75171428D02*
X65562295Y-75171428D01*
X68140390Y-77209523D02*
X68102295Y-77285713D01*
X68102295Y-77285713D02*
X68102295Y-77399999D01*
X68102295Y-77399999D02*
X68140390Y-77514285D01*
X68140390Y-77514285D02*
X68216580Y-77590475D01*
X68216580Y-77590475D02*
X68292771Y-77628570D01*
X68292771Y-77628570D02*
X68445152Y-77666666D01*
X68445152Y-77666666D02*
X68559438Y-77666666D01*
X68559438Y-77666666D02*
X68711819Y-77628570D01*
X68711819Y-77628570D02*
X68788009Y-77590475D01*
X68788009Y-77590475D02*
X68864200Y-77514285D01*
X68864200Y-77514285D02*
X68902295Y-77399999D01*
X68902295Y-77399999D02*
X68902295Y-77323808D01*
X68902295Y-77323808D02*
X68864200Y-77209523D01*
X68864200Y-77209523D02*
X68826104Y-77171427D01*
X68826104Y-77171427D02*
X68559438Y-77171427D01*
X68559438Y-77171427D02*
X68559438Y-77323808D01*
X68902295Y-76828570D02*
X68102295Y-76828570D01*
X68102295Y-76828570D02*
X68902295Y-76371427D01*
X68902295Y-76371427D02*
X68102295Y-76371427D01*
X68902295Y-75990475D02*
X68102295Y-75990475D01*
X68102295Y-75990475D02*
X68102295Y-75799999D01*
X68102295Y-75799999D02*
X68140390Y-75685713D01*
X68140390Y-75685713D02*
X68216580Y-75609523D01*
X68216580Y-75609523D02*
X68292771Y-75571428D01*
X68292771Y-75571428D02*
X68445152Y-75533332D01*
X68445152Y-75533332D02*
X68559438Y-75533332D01*
X68559438Y-75533332D02*
X68711819Y-75571428D01*
X68711819Y-75571428D02*
X68788009Y-75609523D01*
X68788009Y-75609523D02*
X68864200Y-75685713D01*
X68864200Y-75685713D02*
X68902295Y-75799999D01*
X68902295Y-75799999D02*
X68902295Y-75990475D01*
X23042857Y-84822842D02*
X23000000Y-84865700D01*
X23000000Y-84865700D02*
X22871428Y-84908557D01*
X22871428Y-84908557D02*
X22785714Y-84908557D01*
X22785714Y-84908557D02*
X22657143Y-84865700D01*
X22657143Y-84865700D02*
X22571428Y-84779985D01*
X22571428Y-84779985D02*
X22528571Y-84694271D01*
X22528571Y-84694271D02*
X22485714Y-84522842D01*
X22485714Y-84522842D02*
X22485714Y-84394271D01*
X22485714Y-84394271D02*
X22528571Y-84222842D01*
X22528571Y-84222842D02*
X22571428Y-84137128D01*
X22571428Y-84137128D02*
X22657143Y-84051414D01*
X22657143Y-84051414D02*
X22785714Y-84008557D01*
X22785714Y-84008557D02*
X22871428Y-84008557D01*
X22871428Y-84008557D02*
X23000000Y-84051414D01*
X23000000Y-84051414D02*
X23042857Y-84094271D01*
X23428571Y-84908557D02*
X23428571Y-84008557D01*
X23428571Y-84437128D02*
X23942857Y-84437128D01*
X23942857Y-84908557D02*
X23942857Y-84008557D01*
X24328571Y-84651414D02*
X24757143Y-84651414D01*
X24242857Y-84908557D02*
X24542857Y-84008557D01*
X24542857Y-84008557D02*
X24842857Y-84908557D01*
X25014286Y-84008557D02*
X25314286Y-84908557D01*
X25314286Y-84908557D02*
X25614286Y-84008557D01*
X25914286Y-84437128D02*
X26214286Y-84437128D01*
X26342858Y-84908557D02*
X25914286Y-84908557D01*
X25914286Y-84908557D02*
X25914286Y-84008557D01*
X25914286Y-84008557D02*
X26342858Y-84008557D01*
X27371429Y-84651414D02*
X27800001Y-84651414D01*
X27285715Y-84908557D02*
X27585715Y-84008557D01*
X27585715Y-84008557D02*
X27885715Y-84908557D01*
X28185715Y-84008557D02*
X28185715Y-84737128D01*
X28185715Y-84737128D02*
X28228572Y-84822842D01*
X28228572Y-84822842D02*
X28271430Y-84865700D01*
X28271430Y-84865700D02*
X28357144Y-84908557D01*
X28357144Y-84908557D02*
X28528572Y-84908557D01*
X28528572Y-84908557D02*
X28614287Y-84865700D01*
X28614287Y-84865700D02*
X28657144Y-84822842D01*
X28657144Y-84822842D02*
X28700001Y-84737128D01*
X28700001Y-84737128D02*
X28700001Y-84008557D01*
X29128572Y-84908557D02*
X29128572Y-84008557D01*
X29128572Y-84008557D02*
X29342858Y-84008557D01*
X29342858Y-84008557D02*
X29471429Y-84051414D01*
X29471429Y-84051414D02*
X29557144Y-84137128D01*
X29557144Y-84137128D02*
X29600001Y-84222842D01*
X29600001Y-84222842D02*
X29642858Y-84394271D01*
X29642858Y-84394271D02*
X29642858Y-84522842D01*
X29642858Y-84522842D02*
X29600001Y-84694271D01*
X29600001Y-84694271D02*
X29557144Y-84779985D01*
X29557144Y-84779985D02*
X29471429Y-84865700D01*
X29471429Y-84865700D02*
X29342858Y-84908557D01*
X29342858Y-84908557D02*
X29128572Y-84908557D01*
X30028572Y-84908557D02*
X30028572Y-84008557D01*
X30628572Y-84008557D02*
X30800000Y-84008557D01*
X30800000Y-84008557D02*
X30885715Y-84051414D01*
X30885715Y-84051414D02*
X30971429Y-84137128D01*
X30971429Y-84137128D02*
X31014286Y-84308557D01*
X31014286Y-84308557D02*
X31014286Y-84608557D01*
X31014286Y-84608557D02*
X30971429Y-84779985D01*
X30971429Y-84779985D02*
X30885715Y-84865700D01*
X30885715Y-84865700D02*
X30800000Y-84908557D01*
X30800000Y-84908557D02*
X30628572Y-84908557D01*
X30628572Y-84908557D02*
X30542858Y-84865700D01*
X30542858Y-84865700D02*
X30457143Y-84779985D01*
X30457143Y-84779985D02*
X30414286Y-84608557D01*
X30414286Y-84608557D02*
X30414286Y-84308557D01*
X30414286Y-84308557D02*
X30457143Y-84137128D01*
X30457143Y-84137128D02*
X30542858Y-84051414D01*
X30542858Y-84051414D02*
X30628572Y-84008557D01*
X32042857Y-84651414D02*
X32471429Y-84651414D01*
X31957143Y-84908557D02*
X32257143Y-84008557D01*
X32257143Y-84008557D02*
X32557143Y-84908557D01*
X33500000Y-83965700D02*
X32728572Y-85122842D01*
X34100000Y-84437128D02*
X34228572Y-84479985D01*
X34228572Y-84479985D02*
X34271429Y-84522842D01*
X34271429Y-84522842D02*
X34314286Y-84608557D01*
X34314286Y-84608557D02*
X34314286Y-84737128D01*
X34314286Y-84737128D02*
X34271429Y-84822842D01*
X34271429Y-84822842D02*
X34228572Y-84865700D01*
X34228572Y-84865700D02*
X34142857Y-84908557D01*
X34142857Y-84908557D02*
X33800000Y-84908557D01*
X33800000Y-84908557D02*
X33800000Y-84008557D01*
X33800000Y-84008557D02*
X34100000Y-84008557D01*
X34100000Y-84008557D02*
X34185715Y-84051414D01*
X34185715Y-84051414D02*
X34228572Y-84094271D01*
X34228572Y-84094271D02*
X34271429Y-84179985D01*
X34271429Y-84179985D02*
X34271429Y-84265700D01*
X34271429Y-84265700D02*
X34228572Y-84351414D01*
X34228572Y-84351414D02*
X34185715Y-84394271D01*
X34185715Y-84394271D02*
X34100000Y-84437128D01*
X34100000Y-84437128D02*
X33800000Y-84437128D01*
X38728571Y-84908557D02*
X38728571Y-84008557D01*
X38728571Y-84008557D02*
X39071428Y-84008557D01*
X39071428Y-84008557D02*
X39157143Y-84051414D01*
X39157143Y-84051414D02*
X39200000Y-84094271D01*
X39200000Y-84094271D02*
X39242857Y-84179985D01*
X39242857Y-84179985D02*
X39242857Y-84308557D01*
X39242857Y-84308557D02*
X39200000Y-84394271D01*
X39200000Y-84394271D02*
X39157143Y-84437128D01*
X39157143Y-84437128D02*
X39071428Y-84479985D01*
X39071428Y-84479985D02*
X38728571Y-84479985D01*
X39800000Y-84008557D02*
X39971428Y-84008557D01*
X39971428Y-84008557D02*
X40057143Y-84051414D01*
X40057143Y-84051414D02*
X40142857Y-84137128D01*
X40142857Y-84137128D02*
X40185714Y-84308557D01*
X40185714Y-84308557D02*
X40185714Y-84608557D01*
X40185714Y-84608557D02*
X40142857Y-84779985D01*
X40142857Y-84779985D02*
X40057143Y-84865700D01*
X40057143Y-84865700D02*
X39971428Y-84908557D01*
X39971428Y-84908557D02*
X39800000Y-84908557D01*
X39800000Y-84908557D02*
X39714286Y-84865700D01*
X39714286Y-84865700D02*
X39628571Y-84779985D01*
X39628571Y-84779985D02*
X39585714Y-84608557D01*
X39585714Y-84608557D02*
X39585714Y-84308557D01*
X39585714Y-84308557D02*
X39628571Y-84137128D01*
X39628571Y-84137128D02*
X39714286Y-84051414D01*
X39714286Y-84051414D02*
X39800000Y-84008557D01*
X40442857Y-84008557D02*
X40957143Y-84008557D01*
X40700000Y-84908557D02*
X40700000Y-84008557D01*
X41942856Y-84908557D02*
X41942856Y-84008557D01*
X41942856Y-84008557D02*
X42285713Y-84008557D01*
X42285713Y-84008557D02*
X42371428Y-84051414D01*
X42371428Y-84051414D02*
X42414285Y-84094271D01*
X42414285Y-84094271D02*
X42457142Y-84179985D01*
X42457142Y-84179985D02*
X42457142Y-84308557D01*
X42457142Y-84308557D02*
X42414285Y-84394271D01*
X42414285Y-84394271D02*
X42371428Y-84437128D01*
X42371428Y-84437128D02*
X42285713Y-84479985D01*
X42285713Y-84479985D02*
X41942856Y-84479985D01*
X43314285Y-84908557D02*
X42799999Y-84908557D01*
X43057142Y-84908557D02*
X43057142Y-84008557D01*
X43057142Y-84008557D02*
X42971428Y-84137128D01*
X42971428Y-84137128D02*
X42885713Y-84222842D01*
X42885713Y-84222842D02*
X42799999Y-84265700D01*
X48928571Y-84908557D02*
X48928571Y-84008557D01*
X48928571Y-84008557D02*
X49271428Y-84008557D01*
X49271428Y-84008557D02*
X49357143Y-84051414D01*
X49357143Y-84051414D02*
X49400000Y-84094271D01*
X49400000Y-84094271D02*
X49442857Y-84179985D01*
X49442857Y-84179985D02*
X49442857Y-84308557D01*
X49442857Y-84308557D02*
X49400000Y-84394271D01*
X49400000Y-84394271D02*
X49357143Y-84437128D01*
X49357143Y-84437128D02*
X49271428Y-84479985D01*
X49271428Y-84479985D02*
X48928571Y-84479985D01*
X50000000Y-84008557D02*
X50171428Y-84008557D01*
X50171428Y-84008557D02*
X50257143Y-84051414D01*
X50257143Y-84051414D02*
X50342857Y-84137128D01*
X50342857Y-84137128D02*
X50385714Y-84308557D01*
X50385714Y-84308557D02*
X50385714Y-84608557D01*
X50385714Y-84608557D02*
X50342857Y-84779985D01*
X50342857Y-84779985D02*
X50257143Y-84865700D01*
X50257143Y-84865700D02*
X50171428Y-84908557D01*
X50171428Y-84908557D02*
X50000000Y-84908557D01*
X50000000Y-84908557D02*
X49914286Y-84865700D01*
X49914286Y-84865700D02*
X49828571Y-84779985D01*
X49828571Y-84779985D02*
X49785714Y-84608557D01*
X49785714Y-84608557D02*
X49785714Y-84308557D01*
X49785714Y-84308557D02*
X49828571Y-84137128D01*
X49828571Y-84137128D02*
X49914286Y-84051414D01*
X49914286Y-84051414D02*
X50000000Y-84008557D01*
X50642857Y-84008557D02*
X51157143Y-84008557D01*
X50900000Y-84908557D02*
X50900000Y-84008557D01*
X52142856Y-84908557D02*
X52142856Y-84008557D01*
X52142856Y-84008557D02*
X52485713Y-84008557D01*
X52485713Y-84008557D02*
X52571428Y-84051414D01*
X52571428Y-84051414D02*
X52614285Y-84094271D01*
X52614285Y-84094271D02*
X52657142Y-84179985D01*
X52657142Y-84179985D02*
X52657142Y-84308557D01*
X52657142Y-84308557D02*
X52614285Y-84394271D01*
X52614285Y-84394271D02*
X52571428Y-84437128D01*
X52571428Y-84437128D02*
X52485713Y-84479985D01*
X52485713Y-84479985D02*
X52142856Y-84479985D01*
X52999999Y-84094271D02*
X53042856Y-84051414D01*
X53042856Y-84051414D02*
X53128571Y-84008557D01*
X53128571Y-84008557D02*
X53342856Y-84008557D01*
X53342856Y-84008557D02*
X53428571Y-84051414D01*
X53428571Y-84051414D02*
X53471428Y-84094271D01*
X53471428Y-84094271D02*
X53514285Y-84179985D01*
X53514285Y-84179985D02*
X53514285Y-84265700D01*
X53514285Y-84265700D02*
X53471428Y-84394271D01*
X53471428Y-84394271D02*
X52957142Y-84908557D01*
X52957142Y-84908557D02*
X53514285Y-84908557D01*
X65521428Y-84865700D02*
X65650000Y-84908557D01*
X65650000Y-84908557D02*
X65864285Y-84908557D01*
X65864285Y-84908557D02*
X65950000Y-84865700D01*
X65950000Y-84865700D02*
X65992857Y-84822842D01*
X65992857Y-84822842D02*
X66035714Y-84737128D01*
X66035714Y-84737128D02*
X66035714Y-84651414D01*
X66035714Y-84651414D02*
X65992857Y-84565700D01*
X65992857Y-84565700D02*
X65950000Y-84522842D01*
X65950000Y-84522842D02*
X65864285Y-84479985D01*
X65864285Y-84479985D02*
X65692857Y-84437128D01*
X65692857Y-84437128D02*
X65607142Y-84394271D01*
X65607142Y-84394271D02*
X65564285Y-84351414D01*
X65564285Y-84351414D02*
X65521428Y-84265700D01*
X65521428Y-84265700D02*
X65521428Y-84179985D01*
X65521428Y-84179985D02*
X65564285Y-84094271D01*
X65564285Y-84094271D02*
X65607142Y-84051414D01*
X65607142Y-84051414D02*
X65692857Y-84008557D01*
X65692857Y-84008557D02*
X65907142Y-84008557D01*
X65907142Y-84008557D02*
X66035714Y-84051414D01*
X66292857Y-84008557D02*
X66807143Y-84008557D01*
X66550000Y-84908557D02*
X66550000Y-84008557D01*
X67064285Y-84651414D02*
X67492857Y-84651414D01*
X66978571Y-84908557D02*
X67278571Y-84008557D01*
X67278571Y-84008557D02*
X67578571Y-84908557D01*
X68392857Y-84908557D02*
X68092857Y-84479985D01*
X67878571Y-84908557D02*
X67878571Y-84008557D01*
X67878571Y-84008557D02*
X68221428Y-84008557D01*
X68221428Y-84008557D02*
X68307143Y-84051414D01*
X68307143Y-84051414D02*
X68350000Y-84094271D01*
X68350000Y-84094271D02*
X68392857Y-84179985D01*
X68392857Y-84179985D02*
X68392857Y-84308557D01*
X68392857Y-84308557D02*
X68350000Y-84394271D01*
X68350000Y-84394271D02*
X68307143Y-84437128D01*
X68307143Y-84437128D02*
X68221428Y-84479985D01*
X68221428Y-84479985D02*
X67878571Y-84479985D01*
X68650000Y-84008557D02*
X69164286Y-84008557D01*
X68907143Y-84908557D02*
X68907143Y-84008557D01*
D12*
X74666665Y-84956119D02*
X74333332Y-84479928D01*
X74095237Y-84956119D02*
X74095237Y-83956119D01*
X74095237Y-83956119D02*
X74476189Y-83956119D01*
X74476189Y-83956119D02*
X74571427Y-84003738D01*
X74571427Y-84003738D02*
X74619046Y-84051357D01*
X74619046Y-84051357D02*
X74666665Y-84146595D01*
X74666665Y-84146595D02*
X74666665Y-84289452D01*
X74666665Y-84289452D02*
X74619046Y-84384690D01*
X74619046Y-84384690D02*
X74571427Y-84432309D01*
X74571427Y-84432309D02*
X74476189Y-84479928D01*
X74476189Y-84479928D02*
X74095237Y-84479928D01*
X75476189Y-84908500D02*
X75380951Y-84956119D01*
X75380951Y-84956119D02*
X75190475Y-84956119D01*
X75190475Y-84956119D02*
X75095237Y-84908500D01*
X75095237Y-84908500D02*
X75047618Y-84813261D01*
X75047618Y-84813261D02*
X75047618Y-84432309D01*
X75047618Y-84432309D02*
X75095237Y-84337071D01*
X75095237Y-84337071D02*
X75190475Y-84289452D01*
X75190475Y-84289452D02*
X75380951Y-84289452D01*
X75380951Y-84289452D02*
X75476189Y-84337071D01*
X75476189Y-84337071D02*
X75523808Y-84432309D01*
X75523808Y-84432309D02*
X75523808Y-84527547D01*
X75523808Y-84527547D02*
X75047618Y-84622785D01*
X75809523Y-84289452D02*
X76190475Y-84289452D01*
X75952380Y-83956119D02*
X75952380Y-84813261D01*
X75952380Y-84813261D02*
X75999999Y-84908500D01*
X75999999Y-84908500D02*
X76095237Y-84956119D01*
X76095237Y-84956119D02*
X76190475Y-84956119D01*
X76523809Y-84956119D02*
X76523809Y-84289452D01*
X76523809Y-84479928D02*
X76571428Y-84384690D01*
X76571428Y-84384690D02*
X76619047Y-84337071D01*
X76619047Y-84337071D02*
X76714285Y-84289452D01*
X76714285Y-84289452D02*
X76809523Y-84289452D01*
X77285714Y-84956119D02*
X77190476Y-84908500D01*
X77190476Y-84908500D02*
X77142857Y-84860880D01*
X77142857Y-84860880D02*
X77095238Y-84765642D01*
X77095238Y-84765642D02*
X77095238Y-84479928D01*
X77095238Y-84479928D02*
X77142857Y-84384690D01*
X77142857Y-84384690D02*
X77190476Y-84337071D01*
X77190476Y-84337071D02*
X77285714Y-84289452D01*
X77285714Y-84289452D02*
X77428571Y-84289452D01*
X77428571Y-84289452D02*
X77523809Y-84337071D01*
X77523809Y-84337071D02*
X77571428Y-84384690D01*
X77571428Y-84384690D02*
X77619047Y-84479928D01*
X77619047Y-84479928D02*
X77619047Y-84765642D01*
X77619047Y-84765642D02*
X77571428Y-84860880D01*
X77571428Y-84860880D02*
X77523809Y-84908500D01*
X77523809Y-84908500D02*
X77428571Y-84956119D01*
X77428571Y-84956119D02*
X77285714Y-84956119D01*
X78000000Y-84908500D02*
X78142857Y-84956119D01*
X78142857Y-84956119D02*
X78380952Y-84956119D01*
X78380952Y-84956119D02*
X78476190Y-84908500D01*
X78476190Y-84908500D02*
X78523809Y-84860880D01*
X78523809Y-84860880D02*
X78571428Y-84765642D01*
X78571428Y-84765642D02*
X78571428Y-84670404D01*
X78571428Y-84670404D02*
X78523809Y-84575166D01*
X78523809Y-84575166D02*
X78476190Y-84527547D01*
X78476190Y-84527547D02*
X78380952Y-84479928D01*
X78380952Y-84479928D02*
X78190476Y-84432309D01*
X78190476Y-84432309D02*
X78095238Y-84384690D01*
X78095238Y-84384690D02*
X78047619Y-84337071D01*
X78047619Y-84337071D02*
X78000000Y-84241833D01*
X78000000Y-84241833D02*
X78000000Y-84146595D01*
X78000000Y-84146595D02*
X78047619Y-84051357D01*
X78047619Y-84051357D02*
X78095238Y-84003738D01*
X78095238Y-84003738D02*
X78190476Y-83956119D01*
X78190476Y-83956119D02*
X78428571Y-83956119D01*
X78428571Y-83956119D02*
X78571428Y-84003738D01*
X79571428Y-84860880D02*
X79523809Y-84908500D01*
X79523809Y-84908500D02*
X79380952Y-84956119D01*
X79380952Y-84956119D02*
X79285714Y-84956119D01*
X79285714Y-84956119D02*
X79142857Y-84908500D01*
X79142857Y-84908500D02*
X79047619Y-84813261D01*
X79047619Y-84813261D02*
X79000000Y-84718023D01*
X79000000Y-84718023D02*
X78952381Y-84527547D01*
X78952381Y-84527547D02*
X78952381Y-84384690D01*
X78952381Y-84384690D02*
X79000000Y-84194214D01*
X79000000Y-84194214D02*
X79047619Y-84098976D01*
X79047619Y-84098976D02*
X79142857Y-84003738D01*
X79142857Y-84003738D02*
X79285714Y-83956119D01*
X79285714Y-83956119D02*
X79380952Y-83956119D01*
X79380952Y-83956119D02*
X79523809Y-84003738D01*
X79523809Y-84003738D02*
X79571428Y-84051357D01*
X80761905Y-84956119D02*
X80761905Y-83956119D01*
X80761905Y-83956119D02*
X81142857Y-83956119D01*
X81142857Y-83956119D02*
X81238095Y-84003738D01*
X81238095Y-84003738D02*
X81285714Y-84051357D01*
X81285714Y-84051357D02*
X81333333Y-84146595D01*
X81333333Y-84146595D02*
X81333333Y-84289452D01*
X81333333Y-84289452D02*
X81285714Y-84384690D01*
X81285714Y-84384690D02*
X81238095Y-84432309D01*
X81238095Y-84432309D02*
X81142857Y-84479928D01*
X81142857Y-84479928D02*
X80761905Y-84479928D01*
X81904762Y-84956119D02*
X81809524Y-84908500D01*
X81809524Y-84908500D02*
X81761905Y-84860880D01*
X81761905Y-84860880D02*
X81714286Y-84765642D01*
X81714286Y-84765642D02*
X81714286Y-84479928D01*
X81714286Y-84479928D02*
X81761905Y-84384690D01*
X81761905Y-84384690D02*
X81809524Y-84337071D01*
X81809524Y-84337071D02*
X81904762Y-84289452D01*
X81904762Y-84289452D02*
X82047619Y-84289452D01*
X82047619Y-84289452D02*
X82142857Y-84337071D01*
X82142857Y-84337071D02*
X82190476Y-84384690D01*
X82190476Y-84384690D02*
X82238095Y-84479928D01*
X82238095Y-84479928D02*
X82238095Y-84765642D01*
X82238095Y-84765642D02*
X82190476Y-84860880D01*
X82190476Y-84860880D02*
X82142857Y-84908500D01*
X82142857Y-84908500D02*
X82047619Y-84956119D01*
X82047619Y-84956119D02*
X81904762Y-84956119D01*
X82666667Y-84289452D02*
X82666667Y-84956119D01*
X82666667Y-84384690D02*
X82714286Y-84337071D01*
X82714286Y-84337071D02*
X82809524Y-84289452D01*
X82809524Y-84289452D02*
X82952381Y-84289452D01*
X82952381Y-84289452D02*
X83047619Y-84337071D01*
X83047619Y-84337071D02*
X83095238Y-84432309D01*
X83095238Y-84432309D02*
X83095238Y-84956119D01*
X84000000Y-84289452D02*
X84000000Y-85098976D01*
X84000000Y-85098976D02*
X83952381Y-85194214D01*
X83952381Y-85194214D02*
X83904762Y-85241833D01*
X83904762Y-85241833D02*
X83809524Y-85289452D01*
X83809524Y-85289452D02*
X83666667Y-85289452D01*
X83666667Y-85289452D02*
X83571429Y-85241833D01*
X84000000Y-84908500D02*
X83904762Y-84956119D01*
X83904762Y-84956119D02*
X83714286Y-84956119D01*
X83714286Y-84956119D02*
X83619048Y-84908500D01*
X83619048Y-84908500D02*
X83571429Y-84860880D01*
X83571429Y-84860880D02*
X83523810Y-84765642D01*
X83523810Y-84765642D02*
X83523810Y-84479928D01*
X83523810Y-84479928D02*
X83571429Y-84384690D01*
X83571429Y-84384690D02*
X83619048Y-84337071D01*
X83619048Y-84337071D02*
X83714286Y-84289452D01*
X83714286Y-84289452D02*
X83904762Y-84289452D01*
X83904762Y-84289452D02*
X84000000Y-84337071D01*
X85142858Y-84289452D02*
X85380953Y-84956119D01*
X85380953Y-84956119D02*
X85619048Y-84289452D01*
X86523810Y-84956119D02*
X85952382Y-84956119D01*
X86238096Y-84956119D02*
X86238096Y-83956119D01*
X86238096Y-83956119D02*
X86142858Y-84098976D01*
X86142858Y-84098976D02*
X86047620Y-84194214D01*
X86047620Y-84194214D02*
X85952382Y-84241833D01*
X86952382Y-84860880D02*
X87000001Y-84908500D01*
X87000001Y-84908500D02*
X86952382Y-84956119D01*
X86952382Y-84956119D02*
X86904763Y-84908500D01*
X86904763Y-84908500D02*
X86952382Y-84860880D01*
X86952382Y-84860880D02*
X86952382Y-84956119D01*
X87619048Y-83956119D02*
X87714286Y-83956119D01*
X87714286Y-83956119D02*
X87809524Y-84003738D01*
X87809524Y-84003738D02*
X87857143Y-84051357D01*
X87857143Y-84051357D02*
X87904762Y-84146595D01*
X87904762Y-84146595D02*
X87952381Y-84337071D01*
X87952381Y-84337071D02*
X87952381Y-84575166D01*
X87952381Y-84575166D02*
X87904762Y-84765642D01*
X87904762Y-84765642D02*
X87857143Y-84860880D01*
X87857143Y-84860880D02*
X87809524Y-84908500D01*
X87809524Y-84908500D02*
X87714286Y-84956119D01*
X87714286Y-84956119D02*
X87619048Y-84956119D01*
X87619048Y-84956119D02*
X87523810Y-84908500D01*
X87523810Y-84908500D02*
X87476191Y-84860880D01*
X87476191Y-84860880D02*
X87428572Y-84765642D01*
X87428572Y-84765642D02*
X87380953Y-84575166D01*
X87380953Y-84575166D02*
X87380953Y-84337071D01*
X87380953Y-84337071D02*
X87428572Y-84146595D01*
X87428572Y-84146595D02*
X87476191Y-84051357D01*
X87476191Y-84051357D02*
X87523810Y-84003738D01*
X87523810Y-84003738D02*
X87619048Y-83956119D01*
D11*
X59238095Y-20304819D02*
X59238095Y-19304819D01*
X59238095Y-19781009D02*
X59809523Y-19781009D01*
X59809523Y-20304819D02*
X59809523Y-19304819D01*
X60809523Y-20304819D02*
X60238095Y-20304819D01*
X60523809Y-20304819D02*
X60523809Y-19304819D01*
X60523809Y-19304819D02*
X60428571Y-19447676D01*
X60428571Y-19447676D02*
X60333333Y-19542914D01*
X60333333Y-19542914D02*
X60238095Y-19590533D01*
X45734819Y-80333333D02*
X46449104Y-80333333D01*
X46449104Y-80333333D02*
X46591961Y-80380952D01*
X46591961Y-80380952D02*
X46687200Y-80476190D01*
X46687200Y-80476190D02*
X46734819Y-80619047D01*
X46734819Y-80619047D02*
X46734819Y-80714285D01*
X45734819Y-79428571D02*
X45734819Y-79619047D01*
X45734819Y-79619047D02*
X45782438Y-79714285D01*
X45782438Y-79714285D02*
X45830057Y-79761904D01*
X45830057Y-79761904D02*
X45972914Y-79857142D01*
X45972914Y-79857142D02*
X46163390Y-79904761D01*
X46163390Y-79904761D02*
X46544342Y-79904761D01*
X46544342Y-79904761D02*
X46639580Y-79857142D01*
X46639580Y-79857142D02*
X46687200Y-79809523D01*
X46687200Y-79809523D02*
X46734819Y-79714285D01*
X46734819Y-79714285D02*
X46734819Y-79523809D01*
X46734819Y-79523809D02*
X46687200Y-79428571D01*
X46687200Y-79428571D02*
X46639580Y-79380952D01*
X46639580Y-79380952D02*
X46544342Y-79333333D01*
X46544342Y-79333333D02*
X46306247Y-79333333D01*
X46306247Y-79333333D02*
X46211009Y-79380952D01*
X46211009Y-79380952D02*
X46163390Y-79428571D01*
X46163390Y-79428571D02*
X46115771Y-79523809D01*
X46115771Y-79523809D02*
X46115771Y-79714285D01*
X46115771Y-79714285D02*
X46163390Y-79809523D01*
X46163390Y-79809523D02*
X46211009Y-79857142D01*
X46211009Y-79857142D02*
X46306247Y-79904761D01*
X92954819Y-66333333D02*
X93669104Y-66333333D01*
X93669104Y-66333333D02*
X93811961Y-66380952D01*
X93811961Y-66380952D02*
X93907200Y-66476190D01*
X93907200Y-66476190D02*
X93954819Y-66619047D01*
X93954819Y-66619047D02*
X93954819Y-66714285D01*
X93383390Y-65714285D02*
X93335771Y-65809523D01*
X93335771Y-65809523D02*
X93288152Y-65857142D01*
X93288152Y-65857142D02*
X93192914Y-65904761D01*
X93192914Y-65904761D02*
X93145295Y-65904761D01*
X93145295Y-65904761D02*
X93050057Y-65857142D01*
X93050057Y-65857142D02*
X93002438Y-65809523D01*
X93002438Y-65809523D02*
X92954819Y-65714285D01*
X92954819Y-65714285D02*
X92954819Y-65523809D01*
X92954819Y-65523809D02*
X93002438Y-65428571D01*
X93002438Y-65428571D02*
X93050057Y-65380952D01*
X93050057Y-65380952D02*
X93145295Y-65333333D01*
X93145295Y-65333333D02*
X93192914Y-65333333D01*
X93192914Y-65333333D02*
X93288152Y-65380952D01*
X93288152Y-65380952D02*
X93335771Y-65428571D01*
X93335771Y-65428571D02*
X93383390Y-65523809D01*
X93383390Y-65523809D02*
X93383390Y-65714285D01*
X93383390Y-65714285D02*
X93431009Y-65809523D01*
X93431009Y-65809523D02*
X93478628Y-65857142D01*
X93478628Y-65857142D02*
X93573866Y-65904761D01*
X93573866Y-65904761D02*
X93764342Y-65904761D01*
X93764342Y-65904761D02*
X93859580Y-65857142D01*
X93859580Y-65857142D02*
X93907200Y-65809523D01*
X93907200Y-65809523D02*
X93954819Y-65714285D01*
X93954819Y-65714285D02*
X93954819Y-65523809D01*
X93954819Y-65523809D02*
X93907200Y-65428571D01*
X93907200Y-65428571D02*
X93859580Y-65380952D01*
X93859580Y-65380952D02*
X93764342Y-65333333D01*
X93764342Y-65333333D02*
X93573866Y-65333333D01*
X93573866Y-65333333D02*
X93478628Y-65380952D01*
X93478628Y-65380952D02*
X93431009Y-65428571D01*
X93431009Y-65428571D02*
X93383390Y-65523809D01*
X57103333Y-48084819D02*
X56770000Y-47608628D01*
X56531905Y-48084819D02*
X56531905Y-47084819D01*
X56531905Y-47084819D02*
X56912857Y-47084819D01*
X56912857Y-47084819D02*
X57008095Y-47132438D01*
X57008095Y-47132438D02*
X57055714Y-47180057D01*
X57055714Y-47180057D02*
X57103333Y-47275295D01*
X57103333Y-47275295D02*
X57103333Y-47418152D01*
X57103333Y-47418152D02*
X57055714Y-47513390D01*
X57055714Y-47513390D02*
X57008095Y-47561009D01*
X57008095Y-47561009D02*
X56912857Y-47608628D01*
X56912857Y-47608628D02*
X56531905Y-47608628D01*
X57960476Y-47084819D02*
X57770000Y-47084819D01*
X57770000Y-47084819D02*
X57674762Y-47132438D01*
X57674762Y-47132438D02*
X57627143Y-47180057D01*
X57627143Y-47180057D02*
X57531905Y-47322914D01*
X57531905Y-47322914D02*
X57484286Y-47513390D01*
X57484286Y-47513390D02*
X57484286Y-47894342D01*
X57484286Y-47894342D02*
X57531905Y-47989580D01*
X57531905Y-47989580D02*
X57579524Y-48037200D01*
X57579524Y-48037200D02*
X57674762Y-48084819D01*
X57674762Y-48084819D02*
X57865238Y-48084819D01*
X57865238Y-48084819D02*
X57960476Y-48037200D01*
X57960476Y-48037200D02*
X58008095Y-47989580D01*
X58008095Y-47989580D02*
X58055714Y-47894342D01*
X58055714Y-47894342D02*
X58055714Y-47656247D01*
X58055714Y-47656247D02*
X58008095Y-47561009D01*
X58008095Y-47561009D02*
X57960476Y-47513390D01*
X57960476Y-47513390D02*
X57865238Y-47465771D01*
X57865238Y-47465771D02*
X57674762Y-47465771D01*
X57674762Y-47465771D02*
X57579524Y-47513390D01*
X57579524Y-47513390D02*
X57531905Y-47561009D01*
X57531905Y-47561009D02*
X57484286Y-47656247D01*
X92954819Y-79333333D02*
X93669104Y-79333333D01*
X93669104Y-79333333D02*
X93811961Y-79380952D01*
X93811961Y-79380952D02*
X93907200Y-79476190D01*
X93907200Y-79476190D02*
X93954819Y-79619047D01*
X93954819Y-79619047D02*
X93954819Y-79714285D01*
X93954819Y-78809523D02*
X93954819Y-78619047D01*
X93954819Y-78619047D02*
X93907200Y-78523809D01*
X93907200Y-78523809D02*
X93859580Y-78476190D01*
X93859580Y-78476190D02*
X93716723Y-78380952D01*
X93716723Y-78380952D02*
X93526247Y-78333333D01*
X93526247Y-78333333D02*
X93145295Y-78333333D01*
X93145295Y-78333333D02*
X93050057Y-78380952D01*
X93050057Y-78380952D02*
X93002438Y-78428571D01*
X93002438Y-78428571D02*
X92954819Y-78523809D01*
X92954819Y-78523809D02*
X92954819Y-78714285D01*
X92954819Y-78714285D02*
X93002438Y-78809523D01*
X93002438Y-78809523D02*
X93050057Y-78857142D01*
X93050057Y-78857142D02*
X93145295Y-78904761D01*
X93145295Y-78904761D02*
X93383390Y-78904761D01*
X93383390Y-78904761D02*
X93478628Y-78857142D01*
X93478628Y-78857142D02*
X93526247Y-78809523D01*
X93526247Y-78809523D02*
X93573866Y-78714285D01*
X93573866Y-78714285D02*
X93573866Y-78523809D01*
X93573866Y-78523809D02*
X93526247Y-78428571D01*
X93526247Y-78428571D02*
X93478628Y-78380952D01*
X93478628Y-78380952D02*
X93383390Y-78333333D01*
X59238095Y-78304819D02*
X59238095Y-77304819D01*
X59238095Y-77781009D02*
X59809523Y-77781009D01*
X59809523Y-78304819D02*
X59809523Y-77304819D01*
X60238095Y-77400057D02*
X60285714Y-77352438D01*
X60285714Y-77352438D02*
X60380952Y-77304819D01*
X60380952Y-77304819D02*
X60619047Y-77304819D01*
X60619047Y-77304819D02*
X60714285Y-77352438D01*
X60714285Y-77352438D02*
X60761904Y-77400057D01*
X60761904Y-77400057D02*
X60809523Y-77495295D01*
X60809523Y-77495295D02*
X60809523Y-77590533D01*
X60809523Y-77590533D02*
X60761904Y-77733390D01*
X60761904Y-77733390D02*
X60190476Y-78304819D01*
X60190476Y-78304819D02*
X60809523Y-78304819D01*
X35574819Y-80333333D02*
X36289104Y-80333333D01*
X36289104Y-80333333D02*
X36431961Y-80380952D01*
X36431961Y-80380952D02*
X36527200Y-80476190D01*
X36527200Y-80476190D02*
X36574819Y-80619047D01*
X36574819Y-80619047D02*
X36574819Y-80714285D01*
X35574819Y-79380952D02*
X35574819Y-79857142D01*
X35574819Y-79857142D02*
X36051009Y-79904761D01*
X36051009Y-79904761D02*
X36003390Y-79857142D01*
X36003390Y-79857142D02*
X35955771Y-79761904D01*
X35955771Y-79761904D02*
X35955771Y-79523809D01*
X35955771Y-79523809D02*
X36003390Y-79428571D01*
X36003390Y-79428571D02*
X36051009Y-79380952D01*
X36051009Y-79380952D02*
X36146247Y-79333333D01*
X36146247Y-79333333D02*
X36384342Y-79333333D01*
X36384342Y-79333333D02*
X36479580Y-79380952D01*
X36479580Y-79380952D02*
X36527200Y-79428571D01*
X36527200Y-79428571D02*
X36574819Y-79523809D01*
X36574819Y-79523809D02*
X36574819Y-79761904D01*
X36574819Y-79761904D02*
X36527200Y-79857142D01*
X36527200Y-79857142D02*
X36479580Y-79904761D01*
X47103333Y-46084819D02*
X46770000Y-45608628D01*
X46531905Y-46084819D02*
X46531905Y-45084819D01*
X46531905Y-45084819D02*
X46912857Y-45084819D01*
X46912857Y-45084819D02*
X47008095Y-45132438D01*
X47008095Y-45132438D02*
X47055714Y-45180057D01*
X47055714Y-45180057D02*
X47103333Y-45275295D01*
X47103333Y-45275295D02*
X47103333Y-45418152D01*
X47103333Y-45418152D02*
X47055714Y-45513390D01*
X47055714Y-45513390D02*
X47008095Y-45561009D01*
X47008095Y-45561009D02*
X46912857Y-45608628D01*
X46912857Y-45608628D02*
X46531905Y-45608628D01*
X47484286Y-45180057D02*
X47531905Y-45132438D01*
X47531905Y-45132438D02*
X47627143Y-45084819D01*
X47627143Y-45084819D02*
X47865238Y-45084819D01*
X47865238Y-45084819D02*
X47960476Y-45132438D01*
X47960476Y-45132438D02*
X48008095Y-45180057D01*
X48008095Y-45180057D02*
X48055714Y-45275295D01*
X48055714Y-45275295D02*
X48055714Y-45370533D01*
X48055714Y-45370533D02*
X48008095Y-45513390D01*
X48008095Y-45513390D02*
X47436667Y-46084819D01*
X47436667Y-46084819D02*
X48055714Y-46084819D01*
X57103333Y-54084819D02*
X56770000Y-53608628D01*
X56531905Y-54084819D02*
X56531905Y-53084819D01*
X56531905Y-53084819D02*
X56912857Y-53084819D01*
X56912857Y-53084819D02*
X57008095Y-53132438D01*
X57008095Y-53132438D02*
X57055714Y-53180057D01*
X57055714Y-53180057D02*
X57103333Y-53275295D01*
X57103333Y-53275295D02*
X57103333Y-53418152D01*
X57103333Y-53418152D02*
X57055714Y-53513390D01*
X57055714Y-53513390D02*
X57008095Y-53561009D01*
X57008095Y-53561009D02*
X56912857Y-53608628D01*
X56912857Y-53608628D02*
X56531905Y-53608628D01*
X57436667Y-53084819D02*
X58103333Y-53084819D01*
X58103333Y-53084819D02*
X57674762Y-54084819D01*
X48333333Y-57859580D02*
X48285714Y-57907200D01*
X48285714Y-57907200D02*
X48142857Y-57954819D01*
X48142857Y-57954819D02*
X48047619Y-57954819D01*
X48047619Y-57954819D02*
X47904762Y-57907200D01*
X47904762Y-57907200D02*
X47809524Y-57811961D01*
X47809524Y-57811961D02*
X47761905Y-57716723D01*
X47761905Y-57716723D02*
X47714286Y-57526247D01*
X47714286Y-57526247D02*
X47714286Y-57383390D01*
X47714286Y-57383390D02*
X47761905Y-57192914D01*
X47761905Y-57192914D02*
X47809524Y-57097676D01*
X47809524Y-57097676D02*
X47904762Y-57002438D01*
X47904762Y-57002438D02*
X48047619Y-56954819D01*
X48047619Y-56954819D02*
X48142857Y-56954819D01*
X48142857Y-56954819D02*
X48285714Y-57002438D01*
X48285714Y-57002438D02*
X48333333Y-57050057D01*
X49285714Y-57954819D02*
X48714286Y-57954819D01*
X49000000Y-57954819D02*
X49000000Y-56954819D01*
X49000000Y-56954819D02*
X48904762Y-57097676D01*
X48904762Y-57097676D02*
X48809524Y-57192914D01*
X48809524Y-57192914D02*
X48714286Y-57240533D01*
X44074279Y-70349819D02*
X44074279Y-71159342D01*
X44074279Y-71159342D02*
X44121898Y-71254580D01*
X44121898Y-71254580D02*
X44169517Y-71302200D01*
X44169517Y-71302200D02*
X44264755Y-71349819D01*
X44264755Y-71349819D02*
X44455231Y-71349819D01*
X44455231Y-71349819D02*
X44550469Y-71302200D01*
X44550469Y-71302200D02*
X44598088Y-71254580D01*
X44598088Y-71254580D02*
X44645707Y-71159342D01*
X44645707Y-71159342D02*
X44645707Y-70349819D01*
X45645707Y-71349819D02*
X45074279Y-71349819D01*
X45359993Y-71349819D02*
X45359993Y-70349819D01*
X45359993Y-70349819D02*
X45264755Y-70492676D01*
X45264755Y-70492676D02*
X45169517Y-70587914D01*
X45169517Y-70587914D02*
X45074279Y-70635533D01*
X47103333Y-40084819D02*
X46770000Y-39608628D01*
X46531905Y-40084819D02*
X46531905Y-39084819D01*
X46531905Y-39084819D02*
X46912857Y-39084819D01*
X46912857Y-39084819D02*
X47008095Y-39132438D01*
X47008095Y-39132438D02*
X47055714Y-39180057D01*
X47055714Y-39180057D02*
X47103333Y-39275295D01*
X47103333Y-39275295D02*
X47103333Y-39418152D01*
X47103333Y-39418152D02*
X47055714Y-39513390D01*
X47055714Y-39513390D02*
X47008095Y-39561009D01*
X47008095Y-39561009D02*
X46912857Y-39608628D01*
X46912857Y-39608628D02*
X46531905Y-39608628D01*
X48055714Y-40084819D02*
X47484286Y-40084819D01*
X47770000Y-40084819D02*
X47770000Y-39084819D01*
X47770000Y-39084819D02*
X47674762Y-39227676D01*
X47674762Y-39227676D02*
X47579524Y-39322914D01*
X47579524Y-39322914D02*
X47484286Y-39370533D01*
X57103333Y-36084819D02*
X56770000Y-35608628D01*
X56531905Y-36084819D02*
X56531905Y-35084819D01*
X56531905Y-35084819D02*
X56912857Y-35084819D01*
X56912857Y-35084819D02*
X57008095Y-35132438D01*
X57008095Y-35132438D02*
X57055714Y-35180057D01*
X57055714Y-35180057D02*
X57103333Y-35275295D01*
X57103333Y-35275295D02*
X57103333Y-35418152D01*
X57103333Y-35418152D02*
X57055714Y-35513390D01*
X57055714Y-35513390D02*
X57008095Y-35561009D01*
X57008095Y-35561009D02*
X56912857Y-35608628D01*
X56912857Y-35608628D02*
X56531905Y-35608628D01*
X57960476Y-35418152D02*
X57960476Y-36084819D01*
X57722381Y-35037200D02*
X57484286Y-35751485D01*
X57484286Y-35751485D02*
X58103333Y-35751485D01*
X63074819Y-80333333D02*
X63789104Y-80333333D01*
X63789104Y-80333333D02*
X63931961Y-80380952D01*
X63931961Y-80380952D02*
X64027200Y-80476190D01*
X64027200Y-80476190D02*
X64074819Y-80619047D01*
X64074819Y-80619047D02*
X64074819Y-80714285D01*
X63074819Y-79952380D02*
X63074819Y-79285714D01*
X63074819Y-79285714D02*
X64074819Y-79714285D01*
X47103333Y-52084819D02*
X46770000Y-51608628D01*
X46531905Y-52084819D02*
X46531905Y-51084819D01*
X46531905Y-51084819D02*
X46912857Y-51084819D01*
X46912857Y-51084819D02*
X47008095Y-51132438D01*
X47008095Y-51132438D02*
X47055714Y-51180057D01*
X47055714Y-51180057D02*
X47103333Y-51275295D01*
X47103333Y-51275295D02*
X47103333Y-51418152D01*
X47103333Y-51418152D02*
X47055714Y-51513390D01*
X47055714Y-51513390D02*
X47008095Y-51561009D01*
X47008095Y-51561009D02*
X46912857Y-51608628D01*
X46912857Y-51608628D02*
X46531905Y-51608628D01*
X47436667Y-51084819D02*
X48055714Y-51084819D01*
X48055714Y-51084819D02*
X47722381Y-51465771D01*
X47722381Y-51465771D02*
X47865238Y-51465771D01*
X47865238Y-51465771D02*
X47960476Y-51513390D01*
X47960476Y-51513390D02*
X48008095Y-51561009D01*
X48008095Y-51561009D02*
X48055714Y-51656247D01*
X48055714Y-51656247D02*
X48055714Y-51894342D01*
X48055714Y-51894342D02*
X48008095Y-51989580D01*
X48008095Y-51989580D02*
X47960476Y-52037200D01*
X47960476Y-52037200D02*
X47865238Y-52084819D01*
X47865238Y-52084819D02*
X47579524Y-52084819D01*
X47579524Y-52084819D02*
X47484286Y-52037200D01*
X47484286Y-52037200D02*
X47436667Y-51989580D01*
X57103333Y-42084819D02*
X56770000Y-41608628D01*
X56531905Y-42084819D02*
X56531905Y-41084819D01*
X56531905Y-41084819D02*
X56912857Y-41084819D01*
X56912857Y-41084819D02*
X57008095Y-41132438D01*
X57008095Y-41132438D02*
X57055714Y-41180057D01*
X57055714Y-41180057D02*
X57103333Y-41275295D01*
X57103333Y-41275295D02*
X57103333Y-41418152D01*
X57103333Y-41418152D02*
X57055714Y-41513390D01*
X57055714Y-41513390D02*
X57008095Y-41561009D01*
X57008095Y-41561009D02*
X56912857Y-41608628D01*
X56912857Y-41608628D02*
X56531905Y-41608628D01*
X58008095Y-41084819D02*
X57531905Y-41084819D01*
X57531905Y-41084819D02*
X57484286Y-41561009D01*
X57484286Y-41561009D02*
X57531905Y-41513390D01*
X57531905Y-41513390D02*
X57627143Y-41465771D01*
X57627143Y-41465771D02*
X57865238Y-41465771D01*
X57865238Y-41465771D02*
X57960476Y-41513390D01*
X57960476Y-41513390D02*
X58008095Y-41561009D01*
X58008095Y-41561009D02*
X58055714Y-41656247D01*
X58055714Y-41656247D02*
X58055714Y-41894342D01*
X58055714Y-41894342D02*
X58008095Y-41989580D01*
X58008095Y-41989580D02*
X57960476Y-42037200D01*
X57960476Y-42037200D02*
X57865238Y-42084819D01*
X57865238Y-42084819D02*
X57627143Y-42084819D01*
X57627143Y-42084819D02*
X57531905Y-42037200D01*
X57531905Y-42037200D02*
X57484286Y-41989580D01*
X48333333Y-33859580D02*
X48285714Y-33907200D01*
X48285714Y-33907200D02*
X48142857Y-33954819D01*
X48142857Y-33954819D02*
X48047619Y-33954819D01*
X48047619Y-33954819D02*
X47904762Y-33907200D01*
X47904762Y-33907200D02*
X47809524Y-33811961D01*
X47809524Y-33811961D02*
X47761905Y-33716723D01*
X47761905Y-33716723D02*
X47714286Y-33526247D01*
X47714286Y-33526247D02*
X47714286Y-33383390D01*
X47714286Y-33383390D02*
X47761905Y-33192914D01*
X47761905Y-33192914D02*
X47809524Y-33097676D01*
X47809524Y-33097676D02*
X47904762Y-33002438D01*
X47904762Y-33002438D02*
X48047619Y-32954819D01*
X48047619Y-32954819D02*
X48142857Y-32954819D01*
X48142857Y-32954819D02*
X48285714Y-33002438D01*
X48285714Y-33002438D02*
X48333333Y-33050057D01*
X49190476Y-33288152D02*
X49190476Y-33954819D01*
X48952381Y-32907200D02*
X48714286Y-33621485D01*
X48714286Y-33621485D02*
X49333333Y-33621485D01*
X19074819Y-80333333D02*
X19789104Y-80333333D01*
X19789104Y-80333333D02*
X19931961Y-80380952D01*
X19931961Y-80380952D02*
X20027200Y-80476190D01*
X20027200Y-80476190D02*
X20074819Y-80619047D01*
X20074819Y-80619047D02*
X20074819Y-80714285D01*
X19408152Y-79428571D02*
X20074819Y-79428571D01*
X19027200Y-79666666D02*
X19741485Y-79904761D01*
X19741485Y-79904761D02*
X19741485Y-79285714D01*
X48333333Y-27859580D02*
X48285714Y-27907200D01*
X48285714Y-27907200D02*
X48142857Y-27954819D01*
X48142857Y-27954819D02*
X48047619Y-27954819D01*
X48047619Y-27954819D02*
X47904762Y-27907200D01*
X47904762Y-27907200D02*
X47809524Y-27811961D01*
X47809524Y-27811961D02*
X47761905Y-27716723D01*
X47761905Y-27716723D02*
X47714286Y-27526247D01*
X47714286Y-27526247D02*
X47714286Y-27383390D01*
X47714286Y-27383390D02*
X47761905Y-27192914D01*
X47761905Y-27192914D02*
X47809524Y-27097676D01*
X47809524Y-27097676D02*
X47904762Y-27002438D01*
X47904762Y-27002438D02*
X48047619Y-26954819D01*
X48047619Y-26954819D02*
X48142857Y-26954819D01*
X48142857Y-26954819D02*
X48285714Y-27002438D01*
X48285714Y-27002438D02*
X48333333Y-27050057D01*
X48666667Y-26954819D02*
X49285714Y-26954819D01*
X49285714Y-26954819D02*
X48952381Y-27335771D01*
X48952381Y-27335771D02*
X49095238Y-27335771D01*
X49095238Y-27335771D02*
X49190476Y-27383390D01*
X49190476Y-27383390D02*
X49238095Y-27431009D01*
X49238095Y-27431009D02*
X49285714Y-27526247D01*
X49285714Y-27526247D02*
X49285714Y-27764342D01*
X49285714Y-27764342D02*
X49238095Y-27859580D01*
X49238095Y-27859580D02*
X49190476Y-27907200D01*
X49190476Y-27907200D02*
X49095238Y-27954819D01*
X49095238Y-27954819D02*
X48809524Y-27954819D01*
X48809524Y-27954819D02*
X48714286Y-27907200D01*
X48714286Y-27907200D02*
X48666667Y-27859580D01*
X66238095Y-40454819D02*
X66238095Y-41264342D01*
X66238095Y-41264342D02*
X66285714Y-41359580D01*
X66285714Y-41359580D02*
X66333333Y-41407200D01*
X66333333Y-41407200D02*
X66428571Y-41454819D01*
X66428571Y-41454819D02*
X66619047Y-41454819D01*
X66619047Y-41454819D02*
X66714285Y-41407200D01*
X66714285Y-41407200D02*
X66761904Y-41359580D01*
X66761904Y-41359580D02*
X66809523Y-41264342D01*
X66809523Y-41264342D02*
X66809523Y-40454819D01*
X67238095Y-40550057D02*
X67285714Y-40502438D01*
X67285714Y-40502438D02*
X67380952Y-40454819D01*
X67380952Y-40454819D02*
X67619047Y-40454819D01*
X67619047Y-40454819D02*
X67714285Y-40502438D01*
X67714285Y-40502438D02*
X67761904Y-40550057D01*
X67761904Y-40550057D02*
X67809523Y-40645295D01*
X67809523Y-40645295D02*
X67809523Y-40740533D01*
X67809523Y-40740533D02*
X67761904Y-40883390D01*
X67761904Y-40883390D02*
X67190476Y-41454819D01*
X67190476Y-41454819D02*
X67809523Y-41454819D01*
D10*
X77166666Y-23063855D02*
X77166666Y-22263855D01*
X77166666Y-22263855D02*
X77471428Y-22263855D01*
X77471428Y-22263855D02*
X77547618Y-22301950D01*
X77547618Y-22301950D02*
X77585713Y-22340045D01*
X77585713Y-22340045D02*
X77623809Y-22416236D01*
X77623809Y-22416236D02*
X77623809Y-22530521D01*
X77623809Y-22530521D02*
X77585713Y-22606712D01*
X77585713Y-22606712D02*
X77547618Y-22644807D01*
X77547618Y-22644807D02*
X77471428Y-22682902D01*
X77471428Y-22682902D02*
X77166666Y-22682902D01*
X77928570Y-22835283D02*
X78309523Y-22835283D01*
X77852380Y-23063855D02*
X78119047Y-22263855D01*
X78119047Y-22263855D02*
X78385713Y-23063855D01*
X78652380Y-23063855D02*
X78652380Y-22263855D01*
X78652380Y-22263855D02*
X78919046Y-22835283D01*
X78919046Y-22835283D02*
X79185713Y-22263855D01*
X79185713Y-22263855D02*
X79185713Y-23063855D01*
X79680951Y-22606712D02*
X79604761Y-22568617D01*
X79604761Y-22568617D02*
X79566666Y-22530521D01*
X79566666Y-22530521D02*
X79528570Y-22454331D01*
X79528570Y-22454331D02*
X79528570Y-22416236D01*
X79528570Y-22416236D02*
X79566666Y-22340045D01*
X79566666Y-22340045D02*
X79604761Y-22301950D01*
X79604761Y-22301950D02*
X79680951Y-22263855D01*
X79680951Y-22263855D02*
X79833332Y-22263855D01*
X79833332Y-22263855D02*
X79909523Y-22301950D01*
X79909523Y-22301950D02*
X79947618Y-22340045D01*
X79947618Y-22340045D02*
X79985713Y-22416236D01*
X79985713Y-22416236D02*
X79985713Y-22454331D01*
X79985713Y-22454331D02*
X79947618Y-22530521D01*
X79947618Y-22530521D02*
X79909523Y-22568617D01*
X79909523Y-22568617D02*
X79833332Y-22606712D01*
X79833332Y-22606712D02*
X79680951Y-22606712D01*
X79680951Y-22606712D02*
X79604761Y-22644807D01*
X79604761Y-22644807D02*
X79566666Y-22682902D01*
X79566666Y-22682902D02*
X79528570Y-22759093D01*
X79528570Y-22759093D02*
X79528570Y-22911474D01*
X79528570Y-22911474D02*
X79566666Y-22987664D01*
X79566666Y-22987664D02*
X79604761Y-23025760D01*
X79604761Y-23025760D02*
X79680951Y-23063855D01*
X79680951Y-23063855D02*
X79833332Y-23063855D01*
X79833332Y-23063855D02*
X79909523Y-23025760D01*
X79909523Y-23025760D02*
X79947618Y-22987664D01*
X79947618Y-22987664D02*
X79985713Y-22911474D01*
X79985713Y-22911474D02*
X79985713Y-22759093D01*
X79985713Y-22759093D02*
X79947618Y-22682902D01*
X79947618Y-22682902D02*
X79909523Y-22644807D01*
X79909523Y-22644807D02*
X79833332Y-22606712D01*
X80671428Y-22530521D02*
X80671428Y-23063855D01*
X80480952Y-22225760D02*
X80290475Y-22797188D01*
X80290475Y-22797188D02*
X80785714Y-22797188D01*
X81242857Y-22263855D02*
X81319047Y-22263855D01*
X81319047Y-22263855D02*
X81395238Y-22301950D01*
X81395238Y-22301950D02*
X81433333Y-22340045D01*
X81433333Y-22340045D02*
X81471428Y-22416236D01*
X81471428Y-22416236D02*
X81509523Y-22568617D01*
X81509523Y-22568617D02*
X81509523Y-22759093D01*
X81509523Y-22759093D02*
X81471428Y-22911474D01*
X81471428Y-22911474D02*
X81433333Y-22987664D01*
X81433333Y-22987664D02*
X81395238Y-23025760D01*
X81395238Y-23025760D02*
X81319047Y-23063855D01*
X81319047Y-23063855D02*
X81242857Y-23063855D01*
X81242857Y-23063855D02*
X81166666Y-23025760D01*
X81166666Y-23025760D02*
X81128571Y-22987664D01*
X81128571Y-22987664D02*
X81090476Y-22911474D01*
X81090476Y-22911474D02*
X81052380Y-22759093D01*
X81052380Y-22759093D02*
X81052380Y-22568617D01*
X81052380Y-22568617D02*
X81090476Y-22416236D01*
X81090476Y-22416236D02*
X81128571Y-22340045D01*
X81128571Y-22340045D02*
X81166666Y-22301950D01*
X81166666Y-22301950D02*
X81242857Y-22263855D01*
X81776190Y-22263855D02*
X82271428Y-22263855D01*
X82271428Y-22263855D02*
X82004762Y-22568617D01*
X82004762Y-22568617D02*
X82119047Y-22568617D01*
X82119047Y-22568617D02*
X82195238Y-22606712D01*
X82195238Y-22606712D02*
X82233333Y-22644807D01*
X82233333Y-22644807D02*
X82271428Y-22720998D01*
X82271428Y-22720998D02*
X82271428Y-22911474D01*
X82271428Y-22911474D02*
X82233333Y-22987664D01*
X82233333Y-22987664D02*
X82195238Y-23025760D01*
X82195238Y-23025760D02*
X82119047Y-23063855D01*
X82119047Y-23063855D02*
X81890476Y-23063855D01*
X81890476Y-23063855D02*
X81814285Y-23025760D01*
X81814285Y-23025760D02*
X81776190Y-22987664D01*
D11*
X92954819Y-53333333D02*
X93669104Y-53333333D01*
X93669104Y-53333333D02*
X93811961Y-53380952D01*
X93811961Y-53380952D02*
X93907200Y-53476190D01*
X93907200Y-53476190D02*
X93954819Y-53619047D01*
X93954819Y-53619047D02*
X93954819Y-53714285D01*
X93954819Y-52333333D02*
X93954819Y-52904761D01*
X93954819Y-52619047D02*
X92954819Y-52619047D01*
X92954819Y-52619047D02*
X93097676Y-52714285D01*
X93097676Y-52714285D02*
X93192914Y-52809523D01*
X93192914Y-52809523D02*
X93240533Y-52904761D01*
X57083333Y-27609580D02*
X57035714Y-27657200D01*
X57035714Y-27657200D02*
X56892857Y-27704819D01*
X56892857Y-27704819D02*
X56797619Y-27704819D01*
X56797619Y-27704819D02*
X56654762Y-27657200D01*
X56654762Y-27657200D02*
X56559524Y-27561961D01*
X56559524Y-27561961D02*
X56511905Y-27466723D01*
X56511905Y-27466723D02*
X56464286Y-27276247D01*
X56464286Y-27276247D02*
X56464286Y-27133390D01*
X56464286Y-27133390D02*
X56511905Y-26942914D01*
X56511905Y-26942914D02*
X56559524Y-26847676D01*
X56559524Y-26847676D02*
X56654762Y-26752438D01*
X56654762Y-26752438D02*
X56797619Y-26704819D01*
X56797619Y-26704819D02*
X56892857Y-26704819D01*
X56892857Y-26704819D02*
X57035714Y-26752438D01*
X57035714Y-26752438D02*
X57083333Y-26800057D01*
X57464286Y-26800057D02*
X57511905Y-26752438D01*
X57511905Y-26752438D02*
X57607143Y-26704819D01*
X57607143Y-26704819D02*
X57845238Y-26704819D01*
X57845238Y-26704819D02*
X57940476Y-26752438D01*
X57940476Y-26752438D02*
X57988095Y-26800057D01*
X57988095Y-26800057D02*
X58035714Y-26895295D01*
X58035714Y-26895295D02*
X58035714Y-26990533D01*
X58035714Y-26990533D02*
X57988095Y-27133390D01*
X57988095Y-27133390D02*
X57416667Y-27704819D01*
X57416667Y-27704819D02*
X58035714Y-27704819D01*
%TO.C,J6*%
D10*
X47280000Y-81380000D02*
X47280000Y-80000000D01*
X48660000Y-81380000D02*
X47280000Y-81380000D01*
X49930000Y-78620000D02*
X55120000Y-78620000D01*
X49930000Y-81380000D02*
X49930000Y-78620000D01*
X49930000Y-81380000D02*
X55120000Y-81380000D01*
X55120000Y-81380000D02*
X55120000Y-78620000D01*
%TO.C,J8*%
X89500000Y-60000000D02*
X99500000Y-60000000D01*
X89500000Y-72000000D02*
X89500000Y-60000000D01*
X99500000Y-60000000D02*
X99500000Y-72000000D01*
X99500000Y-61800000D02*
X108500000Y-61800000D01*
X99500000Y-70200000D02*
X108500000Y-70200000D01*
X99500000Y-72000000D02*
X89500000Y-72000000D01*
%TO.C,R6*%
X57370000Y-50000000D02*
X57440000Y-50000000D01*
X57370000Y-50000000D02*
G75*
G02*
X54630000Y-50000000I-1370000J0D01*
G01*
X54630000Y-50000000D02*
G75*
G02*
X57370000Y-50000000I1370000J0D01*
G01*
%TO.C,J9*%
X89500000Y-73000000D02*
X99500000Y-73000000D01*
X89500000Y-85000000D02*
X89500000Y-73000000D01*
X99500000Y-73000000D02*
X99500000Y-85000000D01*
X99500000Y-74800000D02*
X108500000Y-74800000D01*
X99500000Y-83200000D02*
X108500000Y-83200000D01*
X99500000Y-85000000D02*
X89500000Y-85000000D01*
%TO.C,J5*%
X37120000Y-81380000D02*
X37120000Y-80000000D01*
X38500000Y-81380000D02*
X37120000Y-81380000D01*
X39770000Y-78620000D02*
X44960000Y-78620000D01*
X39770000Y-81380000D02*
X39770000Y-78620000D01*
X39770000Y-81380000D02*
X44960000Y-81380000D01*
X44960000Y-81380000D02*
X44960000Y-78620000D01*
%TO.C,R2*%
X47370000Y-48000000D02*
X47440000Y-48000000D01*
X47370000Y-48000000D02*
G75*
G02*
X44630000Y-48000000I-1370000J0D01*
G01*
X44630000Y-48000000D02*
G75*
G02*
X47370000Y-48000000I1370000J0D01*
G01*
%TO.C,R7*%
X57370000Y-56000000D02*
X57440000Y-56000000D01*
X57370000Y-56000000D02*
G75*
G02*
X54630000Y-56000000I-1370000J0D01*
G01*
X54630000Y-56000000D02*
G75*
G02*
X57370000Y-56000000I1370000J0D01*
G01*
%TO.C,C1*%
X45880000Y-58630000D02*
X51120000Y-58630000D01*
X45880000Y-58967000D02*
X45880000Y-58630000D01*
X45880000Y-61370000D02*
X45880000Y-61033000D01*
X51120000Y-58630000D02*
X51120000Y-58967000D01*
X51120000Y-61033000D02*
X51120000Y-61370000D01*
X51120000Y-61370000D02*
X45880000Y-61370000D01*
%TO.C,U1*%
X21060000Y-22800000D02*
X21060000Y-21200000D01*
X21380000Y-21130000D02*
X21380000Y-71130000D01*
X21720000Y-20583000D02*
X21720000Y-71677000D01*
X21990000Y-20520000D02*
X24480000Y-20520000D01*
X21990000Y-71740000D02*
X25827939Y-71740000D01*
X24480000Y-20520000D02*
X24480000Y-21433520D01*
X24480000Y-20520000D02*
X25827940Y-20520000D01*
X24480000Y-23826480D02*
X24480000Y-68433520D01*
X24480000Y-70826480D02*
X24480000Y-71740000D01*
X26752061Y-20520000D02*
X27755000Y-20520000D01*
X27755000Y-20520000D02*
X36225000Y-20520000D01*
X27880000Y-19220000D02*
X27880000Y-20040000D01*
X27880000Y-19220000D02*
X36100000Y-19220000D01*
X27880000Y-20040000D02*
X28090000Y-20040000D01*
X28090000Y-20040000D02*
X28090000Y-21436000D01*
X28090000Y-23824000D02*
X28090000Y-25040000D01*
X28390000Y-71740000D02*
X26752061Y-71740000D01*
X35590000Y-71740000D02*
X28390000Y-71740000D01*
X35890000Y-20040000D02*
X35890000Y-21436000D01*
X35890000Y-23824000D02*
X35890000Y-25040000D01*
X35890000Y-25040000D02*
X28090000Y-25040000D01*
X36100000Y-19220000D02*
X36100000Y-20040000D01*
X36100000Y-20040000D02*
X35890000Y-20040000D01*
X36225000Y-20520000D02*
X37227939Y-20520000D01*
X37227939Y-71740000D02*
X35590000Y-71740000D01*
X38152061Y-20520000D02*
X39500000Y-20520000D01*
X38152061Y-71740000D02*
X41990000Y-71740000D01*
X39500000Y-20520000D02*
X39500000Y-21433520D01*
X39500000Y-23826480D02*
X39500000Y-68433520D01*
X39500000Y-70826480D02*
X39500000Y-71740000D01*
X41990000Y-20520000D02*
X39500000Y-20520000D01*
X42260000Y-71677000D02*
X42260000Y-20583000D01*
X42600000Y-21130000D02*
X42600000Y-71130000D01*
X21380000Y-21130000D02*
G75*
G02*
X21990000Y-20520000I610000J0D01*
G01*
X21990000Y-71740000D02*
G75*
G02*
X21380000Y-71130000I-99J609901D01*
G01*
X41990000Y-20520000D02*
G75*
G02*
X42600000Y-21130000I0J-610000D01*
G01*
X42600000Y-71130000D02*
G75*
G02*
X41990000Y-71740000I-610000J0D01*
G01*
%TO.C,R1*%
X47370000Y-42000000D02*
X47440000Y-42000000D01*
X47370000Y-42000000D02*
G75*
G02*
X44630000Y-42000000I-1370000J0D01*
G01*
X44630000Y-42000000D02*
G75*
G02*
X47370000Y-42000000I1370000J0D01*
G01*
%TO.C,R4*%
X57370000Y-38000000D02*
X57440000Y-38000000D01*
X57370000Y-38000000D02*
G75*
G02*
X54630000Y-38000000I-1370000J0D01*
G01*
X54630000Y-38000000D02*
G75*
G02*
X57370000Y-38000000I1370000J0D01*
G01*
%TO.C,J7*%
X64620000Y-81380000D02*
X64620000Y-80000000D01*
X66000000Y-81380000D02*
X64620000Y-81380000D01*
X67270000Y-78620000D02*
X69920000Y-78620000D01*
X67270000Y-81380000D02*
X67270000Y-78620000D01*
X67270000Y-81380000D02*
X69920000Y-81380000D01*
X69920000Y-81380000D02*
X69920000Y-78620000D01*
%TO.C,R3*%
X47370000Y-54000000D02*
X47440000Y-54000000D01*
X47370000Y-54000000D02*
G75*
G02*
X44630000Y-54000000I-1370000J0D01*
G01*
X44630000Y-54000000D02*
G75*
G02*
X47370000Y-54000000I1370000J0D01*
G01*
%TO.C,R5*%
X57370000Y-44000000D02*
X57440000Y-44000000D01*
X57370000Y-44000000D02*
G75*
G02*
X54630000Y-44000000I-1370000J0D01*
G01*
X54630000Y-44000000D02*
G75*
G02*
X57370000Y-44000000I1370000J0D01*
G01*
%TO.C,C4*%
X45880000Y-34630000D02*
X51120000Y-34630000D01*
X45880000Y-34967000D02*
X45880000Y-34630000D01*
X45880000Y-37370000D02*
X45880000Y-37033000D01*
X51120000Y-34630000D02*
X51120000Y-34967000D01*
X51120000Y-37033000D02*
X51120000Y-37370000D01*
X51120000Y-37370000D02*
X45880000Y-37370000D01*
%TO.C,J4*%
X20620000Y-81380000D02*
X20620000Y-80000000D01*
X22000000Y-81380000D02*
X20620000Y-81380000D01*
X23270000Y-78620000D02*
X36080000Y-78620000D01*
X23270000Y-81380000D02*
X23270000Y-78620000D01*
X23270000Y-81380000D02*
X36080000Y-81380000D01*
X36080000Y-81380000D02*
X36080000Y-78620000D01*
%TO.C,C3*%
X45880000Y-28630000D02*
X51120000Y-28630000D01*
X45880000Y-28967000D02*
X45880000Y-28630000D01*
X45880000Y-31370000D02*
X45880000Y-31033000D01*
X51120000Y-28630000D02*
X51120000Y-28967000D01*
X51120000Y-31033000D02*
X51120000Y-31370000D01*
X51120000Y-31370000D02*
X45880000Y-31370000D01*
%TO.C,U2*%
X65200000Y-20200000D02*
X65200000Y-40200000D01*
X65200000Y-40200000D02*
X94200000Y-40200000D01*
X94200000Y-20200000D02*
X65200000Y-20200000D01*
X94200000Y-40200000D02*
X94200000Y-20200000D01*
%TO.C,J1*%
X89500000Y-47000000D02*
X99500000Y-47000000D01*
X89500000Y-59000000D02*
X89500000Y-47000000D01*
X99500000Y-47000000D02*
X99500000Y-59000000D01*
X99500000Y-48800000D02*
X108500000Y-48800000D01*
X99500000Y-57200000D02*
X108500000Y-57200000D01*
X99500000Y-59000000D02*
X89500000Y-59000000D01*
%TO.C,C2*%
X54445225Y-29525000D02*
X54945225Y-29525000D01*
X54695225Y-29275000D02*
X54695225Y-29775000D01*
X57250000Y-28420000D02*
X57250000Y-33580000D01*
X57290000Y-28420000D02*
X57290000Y-33580000D01*
X57330000Y-28421000D02*
X57330000Y-33579000D01*
X57370000Y-28423000D02*
X57370000Y-33577000D01*
X57410000Y-28425000D02*
X57410000Y-33575000D01*
X57450000Y-28428000D02*
X57450000Y-33572000D01*
X57490000Y-28431000D02*
X57490000Y-29960000D01*
X57490000Y-32040000D02*
X57490000Y-33569000D01*
X57530000Y-28435000D02*
X57530000Y-29960000D01*
X57530000Y-32040000D02*
X57530000Y-33565000D01*
X57570000Y-28440000D02*
X57570000Y-29960000D01*
X57570000Y-32040000D02*
X57570000Y-33560000D01*
X57610000Y-28445000D02*
X57610000Y-29960000D01*
X57610000Y-32040000D02*
X57610000Y-33555000D01*
X57650000Y-28451000D02*
X57650000Y-29960000D01*
X57650000Y-32040000D02*
X57650000Y-33549000D01*
X57690000Y-28457000D02*
X57690000Y-29960000D01*
X57690000Y-32040000D02*
X57690000Y-33543000D01*
X57730000Y-28464000D02*
X57730000Y-29960000D01*
X57730000Y-32040000D02*
X57730000Y-33536000D01*
X57770000Y-28472000D02*
X57770000Y-29960000D01*
X57770000Y-32040000D02*
X57770000Y-33528000D01*
X57810000Y-28481000D02*
X57810000Y-29960000D01*
X57810000Y-32040000D02*
X57810000Y-33519000D01*
X57850000Y-28490000D02*
X57850000Y-29960000D01*
X57850000Y-32040000D02*
X57850000Y-33510000D01*
X57890000Y-28499000D02*
X57890000Y-29960000D01*
X57890000Y-32040000D02*
X57890000Y-33501000D01*
X57930000Y-28510000D02*
X57930000Y-29960000D01*
X57930000Y-32040000D02*
X57930000Y-33490000D01*
X57970000Y-28521000D02*
X57970000Y-29960000D01*
X57970000Y-32040000D02*
X57970000Y-33479000D01*
X58010000Y-28533000D02*
X58010000Y-29960000D01*
X58010000Y-32040000D02*
X58010000Y-33467000D01*
X58050000Y-28545000D02*
X58050000Y-29960000D01*
X58050000Y-32040000D02*
X58050000Y-33455000D01*
X58090000Y-28558000D02*
X58090000Y-29960000D01*
X58090000Y-32040000D02*
X58090000Y-33442000D01*
X58130000Y-28572000D02*
X58130000Y-29960000D01*
X58130000Y-32040000D02*
X58130000Y-33428000D01*
X58170000Y-28587000D02*
X58170000Y-29960000D01*
X58170000Y-32040000D02*
X58170000Y-33413000D01*
X58210000Y-28602000D02*
X58210000Y-29960000D01*
X58210000Y-32040000D02*
X58210000Y-33398000D01*
X58250000Y-28618000D02*
X58250000Y-29960000D01*
X58250000Y-32040000D02*
X58250000Y-33382000D01*
X58290000Y-28635000D02*
X58290000Y-29960000D01*
X58290000Y-32040000D02*
X58290000Y-33365000D01*
X58330000Y-28653000D02*
X58330000Y-29960000D01*
X58330000Y-32040000D02*
X58330000Y-33347000D01*
X58370000Y-28671000D02*
X58370000Y-29960000D01*
X58370000Y-32040000D02*
X58370000Y-33329000D01*
X58410000Y-28691000D02*
X58410000Y-29960000D01*
X58410000Y-32040000D02*
X58410000Y-33309000D01*
X58450000Y-28711000D02*
X58450000Y-29960000D01*
X58450000Y-32040000D02*
X58450000Y-33289000D01*
X58490000Y-28732000D02*
X58490000Y-29960000D01*
X58490000Y-32040000D02*
X58490000Y-33268000D01*
X58530000Y-28754000D02*
X58530000Y-29960000D01*
X58530000Y-32040000D02*
X58530000Y-33246000D01*
X58570000Y-28777000D02*
X58570000Y-29960000D01*
X58570000Y-32040000D02*
X58570000Y-33223000D01*
X58610000Y-28801000D02*
X58610000Y-29960000D01*
X58610000Y-32040000D02*
X58610000Y-33199000D01*
X58650000Y-28825000D02*
X58650000Y-29960000D01*
X58650000Y-32040000D02*
X58650000Y-33175000D01*
X58690000Y-28851000D02*
X58690000Y-29960000D01*
X58690000Y-32040000D02*
X58690000Y-33149000D01*
X58730000Y-28878000D02*
X58730000Y-29960000D01*
X58730000Y-32040000D02*
X58730000Y-33122000D01*
X58770000Y-28906000D02*
X58770000Y-29960000D01*
X58770000Y-32040000D02*
X58770000Y-33094000D01*
X58810000Y-28935000D02*
X58810000Y-29960000D01*
X58810000Y-32040000D02*
X58810000Y-33065000D01*
X58850000Y-28965000D02*
X58850000Y-29960000D01*
X58850000Y-32040000D02*
X58850000Y-33035000D01*
X58890000Y-28997000D02*
X58890000Y-29960000D01*
X58890000Y-32040000D02*
X58890000Y-33003000D01*
X58930000Y-29030000D02*
X58930000Y-29960000D01*
X58930000Y-32040000D02*
X58930000Y-32970000D01*
X58970000Y-29064000D02*
X58970000Y-29960000D01*
X58970000Y-32040000D02*
X58970000Y-32936000D01*
X59010000Y-29099000D02*
X59010000Y-29960000D01*
X59010000Y-32040000D02*
X59010000Y-32901000D01*
X59050000Y-29136000D02*
X59050000Y-29960000D01*
X59050000Y-32040000D02*
X59050000Y-32864000D01*
X59090000Y-29175000D02*
X59090000Y-29960000D01*
X59090000Y-32040000D02*
X59090000Y-32825000D01*
X59130000Y-29215000D02*
X59130000Y-29960000D01*
X59130000Y-32040000D02*
X59130000Y-32785000D01*
X59170000Y-29257000D02*
X59170000Y-29960000D01*
X59170000Y-32040000D02*
X59170000Y-32743000D01*
X59210000Y-29301000D02*
X59210000Y-29960000D01*
X59210000Y-32040000D02*
X59210000Y-32699000D01*
X59250000Y-29348000D02*
X59250000Y-29960000D01*
X59250000Y-32040000D02*
X59250000Y-32652000D01*
X59290000Y-29396000D02*
X59290000Y-29960000D01*
X59290000Y-32040000D02*
X59290000Y-32604000D01*
X59330000Y-29447000D02*
X59330000Y-29960000D01*
X59330000Y-32040000D02*
X59330000Y-32553000D01*
X59370000Y-29501000D02*
X59370000Y-29960000D01*
X59370000Y-32040000D02*
X59370000Y-32499000D01*
X59410000Y-29557000D02*
X59410000Y-29960000D01*
X59410000Y-32040000D02*
X59410000Y-32443000D01*
X59450000Y-29617000D02*
X59450000Y-29960000D01*
X59450000Y-32040000D02*
X59450000Y-32383000D01*
X59490000Y-29681000D02*
X59490000Y-29960000D01*
X59490000Y-32040000D02*
X59490000Y-32319000D01*
X59530000Y-29749000D02*
X59530000Y-29960000D01*
X59530000Y-32040000D02*
X59530000Y-32251000D01*
X59570000Y-29823000D02*
X59570000Y-32177000D01*
X59610000Y-29902000D02*
X59610000Y-32098000D01*
X59650000Y-29989000D02*
X59650000Y-32011000D01*
X59690000Y-30086000D02*
X59690000Y-31914000D01*
X59730000Y-30195000D02*
X59730000Y-31805000D01*
X59770000Y-30323000D02*
X59770000Y-31677000D01*
X59810000Y-30483000D02*
X59810000Y-31517000D01*
X59850000Y-30717000D02*
X59850000Y-31283000D01*
X59870000Y-31000000D02*
G75*
G02*
X54630000Y-31000000I-2620000J0D01*
G01*
X54630000Y-31000000D02*
G75*
G02*
X59870000Y-31000000I2620000J0D01*
G01*
%TD*%
%LPC*%
D13*
%TO.C,H1*%
X60000000Y-24000000D03*
%TD*%
D14*
%TO.C,J6*%
X48660000Y-80000000D03*
D15*
X51200000Y-80000000D03*
X53740000Y-80000000D03*
%TD*%
D16*
%TO.C,J8*%
X92500000Y-66000000D03*
D17*
X92500000Y-61000000D03*
D18*
X97500000Y-66000000D03*
D17*
X92500000Y-71000000D03*
%TD*%
D19*
%TO.C,R6*%
X56000000Y-50000000D03*
X58540000Y-50000000D03*
%TD*%
D16*
%TO.C,J9*%
X92500000Y-79000000D03*
D17*
X92500000Y-74000000D03*
D18*
X97500000Y-79000000D03*
D17*
X92500000Y-84000000D03*
%TD*%
D13*
%TO.C,H2*%
X60000000Y-82000000D03*
%TD*%
D14*
%TO.C,J5*%
X38500000Y-80000000D03*
D15*
X41040000Y-80000000D03*
X43580000Y-80000000D03*
%TD*%
D19*
%TO.C,R2*%
X46000000Y-48000000D03*
X48540000Y-48000000D03*
%TD*%
%TO.C,R7*%
X56000000Y-56000000D03*
X58540000Y-56000000D03*
%TD*%
%TO.C,C1*%
X46000000Y-60000000D03*
X51000000Y-60000000D03*
%TD*%
D20*
%TO.C,U1*%
X23100000Y-22000000D03*
D19*
X23100000Y-24540000D03*
D21*
X23100000Y-27080000D03*
D19*
X23100000Y-29620000D03*
X23100000Y-32160000D03*
X23100000Y-34700000D03*
X23100000Y-37240000D03*
D21*
X23100000Y-39780000D03*
D19*
X23100000Y-42320000D03*
X23100000Y-44860000D03*
X23100000Y-47400000D03*
X23100000Y-49940000D03*
D21*
X23100000Y-52480000D03*
D19*
X23100000Y-55020000D03*
X23100000Y-57560000D03*
X23100000Y-60100000D03*
X23100000Y-62640000D03*
D21*
X23100000Y-65180000D03*
D19*
X23100000Y-67720000D03*
X23100000Y-70260000D03*
X40880000Y-70260000D03*
X40880000Y-67720000D03*
D22*
X40880000Y-65180000D03*
D19*
X40880000Y-62640000D03*
X40880000Y-60100000D03*
X40880000Y-57560000D03*
X40880000Y-55020000D03*
D22*
X40880000Y-52480000D03*
D19*
X40880000Y-49940000D03*
X40880000Y-47400000D03*
X40880000Y-44860000D03*
X40880000Y-42320000D03*
D22*
X40880000Y-39780000D03*
D19*
X40880000Y-37240000D03*
X40880000Y-34700000D03*
X40880000Y-32160000D03*
X40880000Y-29620000D03*
D22*
X40880000Y-27080000D03*
D19*
X40880000Y-24540000D03*
X40880000Y-22000000D03*
%TD*%
%TO.C,R1*%
X46000000Y-42000000D03*
X48540000Y-42000000D03*
%TD*%
%TO.C,R4*%
X56000000Y-38000000D03*
X58540000Y-38000000D03*
%TD*%
D14*
%TO.C,J7*%
X66000000Y-80000000D03*
D15*
X68540000Y-80000000D03*
%TD*%
D19*
%TO.C,R3*%
X46000000Y-54000000D03*
X48540000Y-54000000D03*
%TD*%
%TO.C,R5*%
X56000000Y-44000000D03*
X58540000Y-44000000D03*
%TD*%
%TO.C,C4*%
X46000000Y-36000000D03*
X51000000Y-36000000D03*
%TD*%
D14*
%TO.C,J4*%
X22000000Y-80000000D03*
D15*
X24540000Y-80000000D03*
X27080000Y-80000000D03*
X29620000Y-80000000D03*
X32160000Y-80000000D03*
X34700000Y-80000000D03*
%TD*%
D19*
%TO.C,C3*%
X46000000Y-30000000D03*
X51000000Y-30000000D03*
%TD*%
D23*
%TO.C,U2*%
X67000000Y-42000000D03*
D24*
X69540000Y-42000000D03*
X72080000Y-42000000D03*
X74620000Y-42000000D03*
X79700000Y-42000000D03*
X82240000Y-42000000D03*
X87320000Y-42000000D03*
X89860000Y-42000000D03*
X92400000Y-42000000D03*
%TD*%
D16*
%TO.C,J1*%
X92500000Y-53000000D03*
D17*
X92500000Y-48000000D03*
D18*
X97500000Y-53000000D03*
D17*
X92500000Y-58000000D03*
%TD*%
D25*
%TO.C,C2*%
X56000000Y-31000000D03*
D19*
X58500000Y-31000000D03*
%TD*%
%LPD*%
M02*
