%TF.GenerationSoftware,KiCad,Pcbnew,10.0.4*%
%TF.CreationDate,2026-08-19T00:49:35-03:00*%
%TF.ProjectId,pong-retrosc,706f6e67-2d72-4657-9472-6f73632e6b69,rev?*%
%TF.SameCoordinates,Original*%
%TF.FileFunction,Legend,Top*%
%TF.FilePolarity,Positive*%
%FSLAX46Y46*%
G04 Gerber Fmt 4.6, Leading zero omitted, Abs format (unit mm)*
G04 Created by KiCad (PCBNEW 10.0.4) date 2026-08-19 00:49:35*
%MOMM*%
%LPD*%
G01*
G04 APERTURE LIST*
G04 Aperture macros list*
%AMRoundRect*
0 Rectangle with rounded corners*
0 $1 Rounding radius*
0 $2 $3 $4 $5 $6 $7 $8 $9 X,Y pos of 4 corners*
0 Add a 4 corners polygon primitive as box body*
4,1,4,$2,$3,$4,$5,$6,$7,$8,$9,$2,$3,0*
0 Add four circle primitives for the rounded corners*
1,1,$1+$1,$2,$3*
1,1,$1+$1,$4,$5*
1,1,$1+$1,$6,$7*
1,1,$1+$1,$8,$9*
0 Add four rect primitives between the rounded corners*
20,1,$1+$1,$2,$3,$4,$5,0*
20,1,$1+$1,$4,$5,$6,$7,0*
20,1,$1+$1,$6,$7,$8,$9,0*
20,1,$1+$1,$8,$9,$2,$3,0*%
%AMFreePoly0*
4,1,37,0.603843,0.796157,0.639018,0.796157,0.711114,0.766294,0.766294,0.711114,0.796157,0.639018,0.796157,0.603843,0.800000,0.600000,0.800000,-0.600000,0.796157,-0.603843,0.796157,-0.639018,0.766294,-0.711114,0.711114,-0.766294,0.639018,-0.796157,0.603843,-0.796157,0.600000,-0.800000,0.000000,-0.800000,0.000000,-0.796148,-0.078414,-0.796148,-0.232228,-0.765552,-0.377117,-0.705537,
-0.507515,-0.618408,-0.618408,-0.507515,-0.705537,-0.377117,-0.765552,-0.232228,-0.796148,-0.078414,-0.796148,0.078414,-0.765552,0.232228,-0.705537,0.377117,-0.618408,0.507515,-0.507515,0.618408,-0.377117,0.705537,-0.232228,0.765552,-0.078414,0.796148,0.000000,0.796148,0.000000,0.800000,0.600000,0.800000,0.603843,0.796157,0.603843,0.796157,$1*%
%AMFreePoly1*
4,1,37,0.000000,0.796148,0.078414,0.796148,0.232228,0.765552,0.377117,0.705537,0.507515,0.618408,0.618408,0.507515,0.705537,0.377117,0.765552,0.232228,0.796148,0.078414,0.796148,-0.078414,0.765552,-0.232228,0.705537,-0.377117,0.618408,-0.507515,0.507515,-0.618408,0.377117,-0.705537,0.232228,-0.765552,0.078414,-0.796148,0.000000,-0.796148,0.000000,-0.800000,-0.600000,-0.800000,
-0.603843,-0.796157,-0.639018,-0.796157,-0.711114,-0.766294,-0.766294,-0.711114,-0.796157,-0.639018,-0.796157,-0.603843,-0.800000,-0.600000,-0.800000,0.600000,-0.796157,0.603843,-0.796157,0.639018,-0.766294,0.711114,-0.711114,0.766294,-0.639018,0.796157,-0.603843,0.796157,-0.600000,0.800000,0.000000,0.800000,0.000000,0.796148,0.000000,0.796148,$1*%
G04 Aperture macros list end*
%ADD10C,0.120000*%
%ADD11C,0.150000*%
%ADD12C,0.125000*%
%ADD13R,1.700000X1.700000*%
%ADD14C,1.700000*%
%ADD15C,1.600000*%
%ADD16C,2.600000*%
%ADD17O,3.400000X2.300000*%
%ADD18O,2.300000X3.400000*%
%ADD19RoundRect,0.250000X-0.550000X-0.550000X0.550000X-0.550000X0.550000X0.550000X-0.550000X0.550000X0*%
%ADD20RoundRect,0.200000X-0.600000X-0.600000X0.600000X-0.600000X0.600000X0.600000X-0.600000X0.600000X0*%
%ADD21FreePoly0,0.000000*%
%ADD22FreePoly1,0.000000*%
%ADD23R,1.900000X1.900000*%
%ADD24C,1.900000*%
%ADD25C,3.200000*%
G04 APERTURE END LIST*
G36*
X26200000Y-61190000D02*
G01*
X26410000Y-61190000D01*
X26410000Y-63490000D01*
X26200000Y-63490000D01*
X26200000Y-61190000D01*
G37*
G36*
X26390000Y-60430000D02*
G01*
X26600000Y-60430000D01*
X26600000Y-64250000D01*
X26390000Y-64250000D01*
X26390000Y-60430000D01*
G37*
G36*
X26580000Y-60050000D02*
G01*
X26790000Y-60050000D01*
X26790000Y-61019999D01*
X26580000Y-61019999D01*
X26580000Y-60050000D01*
G37*
G36*
X26580000Y-63660000D02*
G01*
X26790000Y-63660000D01*
X26790000Y-64629999D01*
X26580000Y-64629999D01*
X26580000Y-63660000D01*
G37*
G36*
X26770000Y-59670000D02*
G01*
X26980000Y-59670000D01*
X26980000Y-60449999D01*
X26770000Y-60449999D01*
X26770000Y-59670000D01*
G37*
G36*
X26770000Y-64230000D02*
G01*
X26980000Y-64230000D01*
X26980000Y-65009999D01*
X26770000Y-65009999D01*
X26770000Y-64230000D01*
G37*
G36*
X26960000Y-59290000D02*
G01*
X27170000Y-59290000D01*
X27170000Y-59879999D01*
X26960000Y-59879999D01*
X26960000Y-59290000D01*
G37*
G36*
X26960000Y-64800000D02*
G01*
X27170000Y-64800000D01*
X27170000Y-65390000D01*
X26960000Y-65390000D01*
X26960000Y-64800000D01*
G37*
G36*
X27150000Y-59100000D02*
G01*
X27360000Y-59100000D01*
X27360000Y-59690000D01*
X27150000Y-59690000D01*
X27150000Y-59100000D01*
G37*
G36*
X27150000Y-61950000D02*
G01*
X27360000Y-61950000D01*
X27360000Y-62730000D01*
X27150000Y-62730000D01*
X27150000Y-61950000D01*
G37*
G36*
X27150000Y-64990000D02*
G01*
X27360000Y-64990000D01*
X27360000Y-65580000D01*
X27150000Y-65580000D01*
X27150000Y-64990000D01*
G37*
G36*
X27340000Y-51310000D02*
G01*
X27550000Y-51310000D01*
X27550000Y-52470000D01*
X27340000Y-52470000D01*
X27340000Y-51310000D01*
G37*
G36*
X27340000Y-53590000D02*
G01*
X27550000Y-53590000D01*
X27550000Y-54559999D01*
X27340000Y-54559999D01*
X27340000Y-53590000D01*
G37*
G36*
X27340000Y-58530000D02*
G01*
X27550000Y-58530000D01*
X27550000Y-59309999D01*
X27340000Y-59309999D01*
X27340000Y-58530000D01*
G37*
G36*
X27340000Y-61000000D02*
G01*
X27550000Y-61000000D01*
X27550000Y-63680000D01*
X27340000Y-63680000D01*
X27340000Y-61000000D01*
G37*
G36*
X27340000Y-65370000D02*
G01*
X27550000Y-65370000D01*
X27550000Y-65960000D01*
X27340000Y-65960000D01*
X27340000Y-65370000D01*
G37*
G36*
X27530000Y-26990000D02*
G01*
X27740000Y-26990000D01*
X27740000Y-31000000D01*
X27530000Y-31000000D01*
X27530000Y-26990000D01*
G37*
G36*
X27530000Y-32500000D02*
G01*
X27740000Y-32500000D01*
X27740000Y-42590000D01*
X27530000Y-42590000D01*
X27530000Y-32500000D01*
G37*
G36*
X27530000Y-44090000D02*
G01*
X27740000Y-44090000D01*
X27740000Y-52279999D01*
X27530000Y-52279999D01*
X27530000Y-44090000D01*
G37*
G36*
X27530000Y-53400000D02*
G01*
X27740000Y-53400000D01*
X27740000Y-54559999D01*
X27530000Y-54559999D01*
X27530000Y-53400000D01*
G37*
G36*
X27530000Y-58340000D02*
G01*
X27740000Y-58340000D01*
X27740000Y-59120000D01*
X27530000Y-59120000D01*
X27530000Y-58340000D01*
G37*
G36*
X27530000Y-60430000D02*
G01*
X27740000Y-60430000D01*
X27740000Y-64250000D01*
X27530000Y-64250000D01*
X27530000Y-60430000D01*
G37*
G36*
X27530000Y-65560000D02*
G01*
X27740000Y-65560000D01*
X27740000Y-66150000D01*
X27530000Y-66150000D01*
X27530000Y-65560000D01*
G37*
G36*
X27720000Y-26990000D02*
G01*
X27930000Y-26990000D01*
X27930000Y-30810000D01*
X27720000Y-30810000D01*
X27720000Y-26990000D01*
G37*
G36*
X27720000Y-32880000D02*
G01*
X27930000Y-32880000D01*
X27930000Y-42210000D01*
X27720000Y-42210000D01*
X27720000Y-32880000D01*
G37*
G36*
X27720000Y-44280000D02*
G01*
X27930000Y-44280000D01*
X27930000Y-51520000D01*
X27720000Y-51520000D01*
X27720000Y-44280000D01*
G37*
G36*
X27720000Y-53020000D02*
G01*
X27930000Y-53020000D01*
X27930000Y-54370000D01*
X27720000Y-54370000D01*
X27720000Y-53020000D01*
G37*
G36*
X27720000Y-58150000D02*
G01*
X27930000Y-58150000D01*
X27930000Y-58550000D01*
X27720000Y-58550000D01*
X27720000Y-58150000D01*
G37*
G36*
X27720000Y-60050000D02*
G01*
X27930000Y-60050000D01*
X27930000Y-64629999D01*
X27720000Y-64629999D01*
X27720000Y-60050000D01*
G37*
G36*
X27720000Y-65940000D02*
G01*
X27930000Y-65940000D01*
X27930000Y-66340000D01*
X27720000Y-66340000D01*
X27720000Y-65940000D01*
G37*
G36*
X27910000Y-31550000D02*
G01*
X28119999Y-31550000D01*
X28119999Y-32140000D01*
X27910000Y-32140000D01*
X27910000Y-31550000D01*
G37*
G36*
X27910000Y-42950000D02*
G01*
X28119999Y-42950000D01*
X28119999Y-43540000D01*
X27910000Y-43540000D01*
X27910000Y-42950000D01*
G37*
G36*
X27910000Y-52830000D02*
G01*
X28119999Y-52830000D01*
X28119999Y-54180000D01*
X27910000Y-54180000D01*
X27910000Y-52830000D01*
G37*
G36*
X27910000Y-57960000D02*
G01*
X28119999Y-57960000D01*
X28119999Y-58360000D01*
X27910000Y-58360000D01*
X27910000Y-57960000D01*
G37*
G36*
X27910000Y-59670000D02*
G01*
X28119999Y-59670000D01*
X28119999Y-65009999D01*
X27910000Y-65009999D01*
X27910000Y-59670000D01*
G37*
G36*
X27910000Y-66129999D02*
G01*
X28119999Y-66129999D01*
X28119999Y-66530000D01*
X27910000Y-66530000D01*
X27910000Y-66129999D01*
G37*
G36*
X28100000Y-31170000D02*
G01*
X28310000Y-31170000D01*
X28310000Y-31570000D01*
X28100000Y-31570000D01*
X28100000Y-31170000D01*
G37*
G36*
X28100000Y-31930000D02*
G01*
X28310000Y-31930000D01*
X28310000Y-32519999D01*
X28100000Y-32519999D01*
X28100000Y-31930000D01*
G37*
G36*
X28100000Y-42569999D02*
G01*
X28310000Y-42569999D01*
X28310000Y-43160000D01*
X28100000Y-43160000D01*
X28100000Y-42569999D01*
G37*
G36*
X28100000Y-43519999D02*
G01*
X28310000Y-43519999D01*
X28310000Y-43920000D01*
X28100000Y-43920000D01*
X28100000Y-43519999D01*
G37*
G36*
X28100000Y-52450000D02*
G01*
X28310000Y-52450000D01*
X28310000Y-53990000D01*
X28100000Y-53990000D01*
X28100000Y-52450000D01*
G37*
G36*
X28100000Y-57770000D02*
G01*
X28310000Y-57770000D01*
X28310000Y-58169999D01*
X28100000Y-58169999D01*
X28100000Y-57770000D01*
G37*
G36*
X28100000Y-59480000D02*
G01*
X28310000Y-59480000D01*
X28310000Y-65199999D01*
X28100000Y-65199999D01*
X28100000Y-59480000D01*
G37*
G36*
X28100000Y-66319999D02*
G01*
X28310000Y-66319999D01*
X28310000Y-66720000D01*
X28100000Y-66720000D01*
X28100000Y-66319999D01*
G37*
G36*
X28290000Y-30980000D02*
G01*
X28500000Y-30980000D01*
X28500000Y-31380000D01*
X28290000Y-31380000D01*
X28290000Y-30980000D01*
G37*
G36*
X28290000Y-32310000D02*
G01*
X28500000Y-32310000D01*
X28500000Y-32710000D01*
X28290000Y-32710000D01*
X28290000Y-32310000D01*
G37*
G36*
X28290000Y-42379999D02*
G01*
X28500000Y-42379999D01*
X28500000Y-42780000D01*
X28290000Y-42780000D01*
X28290000Y-42379999D01*
G37*
G36*
X28290000Y-43709999D02*
G01*
X28500000Y-43709999D01*
X28500000Y-44110000D01*
X28290000Y-44110000D01*
X28290000Y-43709999D01*
G37*
G36*
X28290000Y-48269999D02*
G01*
X28500000Y-48269999D01*
X28500000Y-49620000D01*
X28290000Y-49620000D01*
X28290000Y-48269999D01*
G37*
G36*
X28290000Y-51879999D02*
G01*
X28500000Y-51879999D01*
X28500000Y-53610000D01*
X28290000Y-53610000D01*
X28290000Y-51879999D01*
G37*
G36*
X28290000Y-57580000D02*
G01*
X28500000Y-57580000D01*
X28500000Y-57980000D01*
X28290000Y-57980000D01*
X28290000Y-57580000D01*
G37*
G36*
X28290000Y-59100000D02*
G01*
X28500000Y-59100000D01*
X28500000Y-65580000D01*
X28290000Y-65580000D01*
X28290000Y-59100000D01*
G37*
G36*
X28290000Y-66510000D02*
G01*
X28500000Y-66510000D01*
X28500000Y-66910000D01*
X28290000Y-66910000D01*
X28290000Y-66510000D01*
G37*
G36*
X28480000Y-26990000D02*
G01*
X28689999Y-26990000D01*
X28689999Y-30049999D01*
X28480000Y-30049999D01*
X28480000Y-26990000D01*
G37*
G36*
X28480000Y-30790000D02*
G01*
X28689999Y-30790000D01*
X28689999Y-31189999D01*
X28480000Y-31189999D01*
X28480000Y-30790000D01*
G37*
G36*
X28480000Y-32500000D02*
G01*
X28689999Y-32500000D01*
X28689999Y-32900000D01*
X28480000Y-32900000D01*
X28480000Y-32500000D01*
G37*
G36*
X28480000Y-33640000D02*
G01*
X28689999Y-33640000D01*
X28689999Y-41450000D01*
X28480000Y-41450000D01*
X28480000Y-33640000D01*
G37*
G36*
X28480000Y-42379999D02*
G01*
X28689999Y-42379999D01*
X28689999Y-42590000D01*
X28480000Y-42590000D01*
X28480000Y-42379999D01*
G37*
G36*
X28480000Y-43900000D02*
G01*
X28689999Y-43900000D01*
X28689999Y-44300000D01*
X28480000Y-44300000D01*
X28480000Y-43900000D01*
G37*
G36*
X28480000Y-45230000D02*
G01*
X28689999Y-45230000D01*
X28689999Y-47340000D01*
X28480000Y-47340000D01*
X28480000Y-45230000D01*
G37*
G36*
X28480000Y-47890000D02*
G01*
X28689999Y-47890000D01*
X28689999Y-48670000D01*
X28480000Y-48670000D01*
X28480000Y-47890000D01*
G37*
G36*
X28480000Y-49220000D02*
G01*
X28689999Y-49220000D01*
X28689999Y-50000000D01*
X28480000Y-50000000D01*
X28480000Y-49220000D01*
G37*
G36*
X28480000Y-50930000D02*
G01*
X28689999Y-50930000D01*
X28689999Y-53419999D01*
X28480000Y-53419999D01*
X28480000Y-50930000D01*
G37*
G36*
X28480000Y-57580000D02*
G01*
X28689999Y-57580000D01*
X28689999Y-57980000D01*
X28480000Y-57980000D01*
X28480000Y-57580000D01*
G37*
G36*
X28480000Y-58910000D02*
G01*
X28689999Y-58910000D01*
X28689999Y-65769999D01*
X28480000Y-65769999D01*
X28480000Y-58910000D01*
G37*
G36*
X28480000Y-66510000D02*
G01*
X28689999Y-66510000D01*
X28689999Y-66910000D01*
X28480000Y-66910000D01*
X28480000Y-66510000D01*
G37*
G36*
X28670000Y-26990000D02*
G01*
X28880000Y-26990000D01*
X28880000Y-29860000D01*
X28670000Y-29860000D01*
X28670000Y-26990000D01*
G37*
G36*
X28670000Y-30600000D02*
G01*
X28880000Y-30600000D01*
X28880000Y-31000000D01*
X28670000Y-31000000D01*
X28670000Y-30600000D01*
G37*
G36*
X28670000Y-31550000D02*
G01*
X28880000Y-31550000D01*
X28880000Y-31950000D01*
X28670000Y-31950000D01*
X28670000Y-31550000D01*
G37*
G36*
X28670000Y-32689999D02*
G01*
X28880000Y-32689999D01*
X28880000Y-33090000D01*
X28670000Y-33090000D01*
X28670000Y-32689999D01*
G37*
G36*
X28670000Y-33830000D02*
G01*
X28880000Y-33830000D01*
X28880000Y-41450000D01*
X28670000Y-41450000D01*
X28670000Y-33830000D01*
G37*
G36*
X28670000Y-42190000D02*
G01*
X28880000Y-42190000D01*
X28880000Y-42590000D01*
X28670000Y-42590000D01*
X28670000Y-42190000D01*
G37*
G36*
X28670000Y-43140000D02*
G01*
X28880000Y-43140000D01*
X28880000Y-43540000D01*
X28670000Y-43540000D01*
X28670000Y-43140000D01*
G37*
G36*
X28670000Y-44090000D02*
G01*
X28880000Y-44090000D01*
X28880000Y-44490000D01*
X28670000Y-44490000D01*
X28670000Y-44090000D01*
G37*
G36*
X28670000Y-45230000D02*
G01*
X28880000Y-45230000D01*
X28880000Y-47340000D01*
X28670000Y-47340000D01*
X28670000Y-45230000D01*
G37*
G36*
X28670000Y-47890000D02*
G01*
X28880000Y-47890000D01*
X28880000Y-48100000D01*
X28670000Y-48100000D01*
X28670000Y-47890000D01*
G37*
G36*
X28670000Y-49790000D02*
G01*
X28880000Y-49790000D01*
X28880000Y-50190000D01*
X28670000Y-50190000D01*
X28670000Y-49790000D01*
G37*
G36*
X28670000Y-51120000D02*
G01*
X28880000Y-51120000D01*
X28880000Y-53040000D01*
X28670000Y-53040000D01*
X28670000Y-51120000D01*
G37*
G36*
X28670000Y-57390000D02*
G01*
X28880000Y-57390000D01*
X28880000Y-57790000D01*
X28670000Y-57790000D01*
X28670000Y-57390000D01*
G37*
G36*
X28670000Y-58530000D02*
G01*
X28880000Y-58530000D01*
X28880000Y-65960000D01*
X28670000Y-65960000D01*
X28670000Y-58530000D01*
G37*
G36*
X28670000Y-66700000D02*
G01*
X28880000Y-66700000D01*
X28880000Y-67099999D01*
X28670000Y-67099999D01*
X28670000Y-66700000D01*
G37*
G36*
X28860000Y-26990000D02*
G01*
X29070000Y-26990000D01*
X29070000Y-28340000D01*
X28860000Y-28340000D01*
X28860000Y-26990000D01*
G37*
G36*
X28860000Y-30600000D02*
G01*
X29070000Y-30600000D01*
X29070000Y-30810000D01*
X28860000Y-30810000D01*
X28860000Y-30600000D01*
G37*
G36*
X28860000Y-31550000D02*
G01*
X29070000Y-31550000D01*
X29070000Y-32140000D01*
X28860000Y-32140000D01*
X28860000Y-31550000D01*
G37*
G36*
X28860000Y-32880000D02*
G01*
X29070000Y-32880000D01*
X29070000Y-33280000D01*
X28860000Y-33280000D01*
X28860000Y-32880000D01*
G37*
G36*
X28860000Y-36489999D02*
G01*
X29070000Y-36489999D01*
X29070000Y-37080000D01*
X28860000Y-37080000D01*
X28860000Y-36489999D01*
G37*
G36*
X28860000Y-42000000D02*
G01*
X29070000Y-42000000D01*
X29070000Y-42400000D01*
X28860000Y-42400000D01*
X28860000Y-42000000D01*
G37*
G36*
X28860000Y-43140000D02*
G01*
X29070000Y-43140000D01*
X29070000Y-43730000D01*
X28860000Y-43730000D01*
X28860000Y-43140000D01*
G37*
G36*
X28860000Y-44280000D02*
G01*
X29070000Y-44280000D01*
X29070000Y-44680000D01*
X28860000Y-44680000D01*
X28860000Y-44280000D01*
G37*
G36*
X28860000Y-46750000D02*
G01*
X29070000Y-46750000D01*
X29070000Y-47340000D01*
X28860000Y-47340000D01*
X28860000Y-46750000D01*
G37*
G36*
X28860000Y-47700000D02*
G01*
X29070000Y-47700000D01*
X29070000Y-48100000D01*
X28860000Y-48100000D01*
X28860000Y-47700000D01*
G37*
G36*
X28860000Y-49980000D02*
G01*
X29070000Y-49980000D01*
X29070000Y-50380000D01*
X28860000Y-50380000D01*
X28860000Y-49980000D01*
G37*
G36*
X28860000Y-57200000D02*
G01*
X29070000Y-57200000D01*
X29070000Y-57600000D01*
X28860000Y-57600000D01*
X28860000Y-57200000D01*
G37*
G36*
X28860000Y-58340000D02*
G01*
X29070000Y-58340000D01*
X29070000Y-66150000D01*
X28860000Y-66150000D01*
X28860000Y-58340000D01*
G37*
G36*
X28860000Y-66890000D02*
G01*
X29070000Y-66890000D01*
X29070000Y-67289999D01*
X28860000Y-67289999D01*
X28860000Y-66890000D01*
G37*
G36*
X29050000Y-30410000D02*
G01*
X29259999Y-30410000D01*
X29259999Y-30619999D01*
X29050000Y-30619999D01*
X29050000Y-30410000D01*
G37*
G36*
X29050000Y-31360000D02*
G01*
X29259999Y-31360000D01*
X29259999Y-32330000D01*
X29050000Y-32330000D01*
X29050000Y-31360000D01*
G37*
G36*
X29050000Y-33070000D02*
G01*
X29259999Y-33070000D01*
X29259999Y-33280000D01*
X29050000Y-33280000D01*
X29050000Y-33070000D01*
G37*
G36*
X29050000Y-41810000D02*
G01*
X29259999Y-41810000D01*
X29259999Y-42210000D01*
X29050000Y-42210000D01*
X29050000Y-41810000D01*
G37*
G36*
X29050000Y-42950000D02*
G01*
X29259999Y-42950000D01*
X29259999Y-43920000D01*
X29050000Y-43920000D01*
X29050000Y-42950000D01*
G37*
G36*
X29050000Y-44470000D02*
G01*
X29259999Y-44470000D01*
X29259999Y-44870000D01*
X29050000Y-44870000D01*
X29050000Y-44470000D01*
G37*
G36*
X29050000Y-47700000D02*
G01*
X29259999Y-47700000D01*
X29259999Y-48100000D01*
X29050000Y-48100000D01*
X29050000Y-47700000D01*
G37*
G36*
X29050000Y-48459999D02*
G01*
X29259999Y-48459999D01*
X29259999Y-49430000D01*
X29050000Y-49430000D01*
X29050000Y-48459999D01*
G37*
G36*
X29050000Y-50170000D02*
G01*
X29259999Y-50170000D01*
X29259999Y-50570000D01*
X29050000Y-50570000D01*
X29050000Y-50170000D01*
G37*
G36*
X29050000Y-57200000D02*
G01*
X29259999Y-57200000D01*
X29259999Y-57600000D01*
X29050000Y-57600000D01*
X29050000Y-57200000D01*
G37*
G36*
X29050000Y-58340000D02*
G01*
X29259999Y-58340000D01*
X29259999Y-59120000D01*
X29050000Y-59120000D01*
X29050000Y-58340000D01*
G37*
G36*
X29050000Y-60240000D02*
G01*
X29259999Y-60240000D01*
X29259999Y-64440000D01*
X29050000Y-64440000D01*
X29050000Y-60240000D01*
G37*
G36*
X29050000Y-65560000D02*
G01*
X29259999Y-65560000D01*
X29259999Y-66150000D01*
X29050000Y-66150000D01*
X29050000Y-65560000D01*
G37*
G36*
X29050000Y-67080000D02*
G01*
X29259999Y-67080000D01*
X29259999Y-67289999D01*
X29050000Y-67289999D01*
X29050000Y-67080000D01*
G37*
G36*
X29240000Y-30030000D02*
G01*
X29450000Y-30030000D01*
X29450000Y-30619999D01*
X29240000Y-30619999D01*
X29240000Y-30030000D01*
G37*
G36*
X29240000Y-31170000D02*
G01*
X29450000Y-31170000D01*
X29450000Y-32710000D01*
X29240000Y-32710000D01*
X29240000Y-31170000D01*
G37*
G36*
X29240000Y-33070000D02*
G01*
X29450000Y-33070000D01*
X29450000Y-33470000D01*
X29240000Y-33470000D01*
X29240000Y-33070000D01*
G37*
G36*
X29240000Y-41620000D02*
G01*
X29450000Y-41620000D01*
X29450000Y-42019999D01*
X29240000Y-42019999D01*
X29240000Y-41620000D01*
G37*
G36*
X29240000Y-42760000D02*
G01*
X29450000Y-42760000D01*
X29450000Y-44300000D01*
X29240000Y-44300000D01*
X29240000Y-42760000D01*
G37*
G36*
X29240000Y-44660000D02*
G01*
X29450000Y-44660000D01*
X29450000Y-44870000D01*
X29240000Y-44870000D01*
X29240000Y-44660000D01*
G37*
G36*
X29240000Y-47700000D02*
G01*
X29450000Y-47700000D01*
X29450000Y-48100000D01*
X29240000Y-48100000D01*
X29240000Y-47700000D01*
G37*
G36*
X29240000Y-48459999D02*
G01*
X29450000Y-48459999D01*
X29450000Y-49620000D01*
X29240000Y-49620000D01*
X29240000Y-48459999D01*
G37*
G36*
X29240000Y-50360000D02*
G01*
X29450000Y-50360000D01*
X29450000Y-50760000D01*
X29240000Y-50760000D01*
X29240000Y-50360000D01*
G37*
G36*
X29240000Y-57010000D02*
G01*
X29450000Y-57010000D01*
X29450000Y-57410000D01*
X29240000Y-57410000D01*
X29240000Y-57010000D01*
G37*
G36*
X29240000Y-58150000D02*
G01*
X29450000Y-58150000D01*
X29450000Y-59120000D01*
X29240000Y-59120000D01*
X29240000Y-58150000D01*
G37*
G36*
X29240000Y-60240000D02*
G01*
X29450000Y-60240000D01*
X29450000Y-64440000D01*
X29240000Y-64440000D01*
X29240000Y-60240000D01*
G37*
G36*
X29240000Y-65560000D02*
G01*
X29450000Y-65560000D01*
X29450000Y-66340000D01*
X29240000Y-66340000D01*
X29240000Y-65560000D01*
G37*
G36*
X29240000Y-67080000D02*
G01*
X29450000Y-67080000D01*
X29450000Y-67479999D01*
X29240000Y-67479999D01*
X29240000Y-67080000D01*
G37*
G36*
X29430000Y-28320000D02*
G01*
X29640000Y-28320000D01*
X29640000Y-30430000D01*
X29430000Y-30430000D01*
X29430000Y-28320000D01*
G37*
G36*
X29430000Y-30980000D02*
G01*
X29640000Y-30980000D01*
X29640000Y-32519999D01*
X29430000Y-32519999D01*
X29430000Y-30980000D01*
G37*
G36*
X29430000Y-33070000D02*
G01*
X29640000Y-33070000D01*
X29640000Y-36510000D01*
X29430000Y-36510000D01*
X29430000Y-33070000D01*
G37*
G36*
X29430000Y-37060000D02*
G01*
X29640000Y-37060000D01*
X29640000Y-41830000D01*
X29430000Y-41830000D01*
X29430000Y-37060000D01*
G37*
G36*
X29430000Y-42569999D02*
G01*
X29640000Y-42569999D01*
X29640000Y-44110000D01*
X29430000Y-44110000D01*
X29430000Y-42569999D01*
G37*
G36*
X29430000Y-44660000D02*
G01*
X29640000Y-44660000D01*
X29640000Y-46770000D01*
X29430000Y-46770000D01*
X29430000Y-44660000D01*
G37*
G36*
X29430000Y-47700000D02*
G01*
X29640000Y-47700000D01*
X29640000Y-48100000D01*
X29430000Y-48100000D01*
X29430000Y-47700000D01*
G37*
G36*
X29430000Y-48459999D02*
G01*
X29640000Y-48459999D01*
X29640000Y-50000000D01*
X29430000Y-50000000D01*
X29430000Y-48459999D01*
G37*
G36*
X29430000Y-50550000D02*
G01*
X29640000Y-50550000D01*
X29640000Y-54559999D01*
X29430000Y-54559999D01*
X29430000Y-50550000D01*
G37*
G36*
X29430000Y-57010000D02*
G01*
X29640000Y-57010000D01*
X29640000Y-57220000D01*
X29430000Y-57220000D01*
X29430000Y-57010000D01*
G37*
G36*
X29430000Y-57960000D02*
G01*
X29640000Y-57960000D01*
X29640000Y-59120000D01*
X29430000Y-59120000D01*
X29430000Y-57960000D01*
G37*
G36*
X29430000Y-60240000D02*
G01*
X29640000Y-60240000D01*
X29640000Y-64440000D01*
X29430000Y-64440000D01*
X29430000Y-60240000D01*
G37*
G36*
X29430000Y-65560000D02*
G01*
X29640000Y-65560000D01*
X29640000Y-66530000D01*
X29430000Y-66530000D01*
X29430000Y-65560000D01*
G37*
G36*
X29430000Y-67270000D02*
G01*
X29640000Y-67270000D01*
X29640000Y-67479999D01*
X29430000Y-67479999D01*
X29430000Y-67270000D01*
G37*
G36*
X29619999Y-28130000D02*
G01*
X29830000Y-28130000D01*
X29830000Y-28530000D01*
X29619999Y-28530000D01*
X29619999Y-28130000D01*
G37*
G36*
X29619999Y-30790000D02*
G01*
X29830000Y-30790000D01*
X29830000Y-32330000D01*
X29619999Y-32330000D01*
X29619999Y-30790000D01*
G37*
G36*
X29619999Y-36300000D02*
G01*
X29830000Y-36300000D01*
X29830000Y-37269999D01*
X29619999Y-37269999D01*
X29619999Y-36300000D01*
G37*
G36*
X29619999Y-42379999D02*
G01*
X29830000Y-42379999D01*
X29830000Y-43920000D01*
X29619999Y-43920000D01*
X29619999Y-42379999D01*
G37*
G36*
X29619999Y-46560000D02*
G01*
X29830000Y-46560000D01*
X29830000Y-46960000D01*
X29619999Y-46960000D01*
X29619999Y-46560000D01*
G37*
G36*
X29619999Y-47700000D02*
G01*
X29830000Y-47700000D01*
X29830000Y-48100000D01*
X29619999Y-48100000D01*
X29619999Y-47700000D01*
G37*
G36*
X29619999Y-48459999D02*
G01*
X29830000Y-48459999D01*
X29830000Y-50190000D01*
X29619999Y-50190000D01*
X29619999Y-48459999D01*
G37*
G36*
X29619999Y-54350000D02*
G01*
X29830000Y-54350000D01*
X29830000Y-54750000D01*
X29619999Y-54750000D01*
X29619999Y-54350000D01*
G37*
G36*
X29619999Y-56820000D02*
G01*
X29830000Y-56820000D01*
X29830000Y-57220000D01*
X29619999Y-57220000D01*
X29619999Y-56820000D01*
G37*
G36*
X29619999Y-57960000D02*
G01*
X29830000Y-57960000D01*
X29830000Y-59120000D01*
X29619999Y-59120000D01*
X29619999Y-57960000D01*
G37*
G36*
X29619999Y-60240000D02*
G01*
X29830000Y-60240000D01*
X29830000Y-64440000D01*
X29619999Y-64440000D01*
X29619999Y-60240000D01*
G37*
G36*
X29619999Y-65560000D02*
G01*
X29830000Y-65560000D01*
X29830000Y-66530000D01*
X29619999Y-66530000D01*
X29619999Y-65560000D01*
G37*
G36*
X29619999Y-67270000D02*
G01*
X29830000Y-67270000D01*
X29830000Y-67670000D01*
X29619999Y-67670000D01*
X29619999Y-67270000D01*
G37*
G36*
X29810000Y-27940000D02*
G01*
X30020000Y-27940000D01*
X30020000Y-28340000D01*
X29810000Y-28340000D01*
X29810000Y-27940000D01*
G37*
G36*
X29810000Y-30600000D02*
G01*
X30020000Y-30600000D01*
X30020000Y-32140000D01*
X29810000Y-32140000D01*
X29810000Y-30600000D01*
G37*
G36*
X29810000Y-36489999D02*
G01*
X30020000Y-36489999D01*
X30020000Y-37080000D01*
X29810000Y-37080000D01*
X29810000Y-36489999D01*
G37*
G36*
X29810000Y-42190000D02*
G01*
X30020000Y-42190000D01*
X30020000Y-43730000D01*
X29810000Y-43730000D01*
X29810000Y-42190000D01*
G37*
G36*
X29810000Y-46750000D02*
G01*
X30020000Y-46750000D01*
X30020000Y-47150000D01*
X29810000Y-47150000D01*
X29810000Y-46750000D01*
G37*
G36*
X29810000Y-47700000D02*
G01*
X30020000Y-47700000D01*
X30020000Y-48100000D01*
X29810000Y-48100000D01*
X29810000Y-47700000D01*
G37*
G36*
X29810000Y-48459999D02*
G01*
X30020000Y-48459999D01*
X30020000Y-50380000D01*
X29810000Y-50380000D01*
X29810000Y-48459999D01*
G37*
G36*
X29810000Y-54540000D02*
G01*
X30020000Y-54540000D01*
X30020000Y-54940000D01*
X29810000Y-54940000D01*
X29810000Y-54540000D01*
G37*
G36*
X29810000Y-56820000D02*
G01*
X30020000Y-56820000D01*
X30020000Y-57220000D01*
X29810000Y-57220000D01*
X29810000Y-56820000D01*
G37*
G36*
X29810000Y-57770000D02*
G01*
X30020000Y-57770000D01*
X30020000Y-59120000D01*
X29810000Y-59120000D01*
X29810000Y-57770000D01*
G37*
G36*
X29810000Y-60240000D02*
G01*
X30020000Y-60240000D01*
X30020000Y-64440000D01*
X29810000Y-64440000D01*
X29810000Y-60240000D01*
G37*
G36*
X29810000Y-65560000D02*
G01*
X30020000Y-65560000D01*
X30020000Y-66720000D01*
X29810000Y-66720000D01*
X29810000Y-65560000D01*
G37*
G36*
X29810000Y-67270000D02*
G01*
X30020000Y-67270000D01*
X30020000Y-67670000D01*
X29810000Y-67670000D01*
X29810000Y-67270000D01*
G37*
G36*
X30000000Y-27940000D02*
G01*
X30210000Y-27940000D01*
X30210000Y-28150000D01*
X30000000Y-28150000D01*
X30000000Y-27940000D01*
G37*
G36*
X30000000Y-30410000D02*
G01*
X30210000Y-30410000D01*
X30210000Y-31950000D01*
X30000000Y-31950000D01*
X30000000Y-30410000D01*
G37*
G36*
X30000000Y-36679999D02*
G01*
X30210000Y-36679999D01*
X30210000Y-36890000D01*
X30000000Y-36890000D01*
X30000000Y-36679999D01*
G37*
G36*
X30000000Y-42000000D02*
G01*
X30210000Y-42000000D01*
X30210000Y-43540000D01*
X30000000Y-43540000D01*
X30000000Y-42000000D01*
G37*
G36*
X30000000Y-47129999D02*
G01*
X30210000Y-47129999D01*
X30210000Y-47910000D01*
X30000000Y-47910000D01*
X30000000Y-47129999D01*
G37*
G36*
X30000000Y-48459999D02*
G01*
X30210000Y-48459999D01*
X30210000Y-50570000D01*
X30000000Y-50570000D01*
X30000000Y-48459999D01*
G37*
G36*
X30000000Y-54730000D02*
G01*
X30210000Y-54730000D01*
X30210000Y-54940000D01*
X30000000Y-54940000D01*
X30000000Y-54730000D01*
G37*
G36*
X30000000Y-56630000D02*
G01*
X30210000Y-56630000D01*
X30210000Y-57029999D01*
X30000000Y-57029999D01*
X30000000Y-56630000D01*
G37*
G36*
X30000000Y-57770000D02*
G01*
X30210000Y-57770000D01*
X30210000Y-59120000D01*
X30000000Y-59120000D01*
X30000000Y-57770000D01*
G37*
G36*
X30000000Y-60240000D02*
G01*
X30210000Y-60240000D01*
X30210000Y-64440000D01*
X30000000Y-64440000D01*
X30000000Y-60240000D01*
G37*
G36*
X30000000Y-65560000D02*
G01*
X30210000Y-65560000D01*
X30210000Y-66720000D01*
X30000000Y-66720000D01*
X30000000Y-65560000D01*
G37*
G36*
X30000000Y-67460000D02*
G01*
X30210000Y-67460000D01*
X30210000Y-67860000D01*
X30000000Y-67860000D01*
X30000000Y-67460000D01*
G37*
G36*
X30189999Y-27940000D02*
G01*
X30400000Y-27940000D01*
X30400000Y-28150000D01*
X30189999Y-28150000D01*
X30189999Y-27940000D01*
G37*
G36*
X30189999Y-28700000D02*
G01*
X30400000Y-28700000D01*
X30400000Y-29860000D01*
X30189999Y-29860000D01*
X30189999Y-28700000D01*
G37*
G36*
X30189999Y-30220000D02*
G01*
X30400000Y-30220000D01*
X30400000Y-31950000D01*
X30189999Y-31950000D01*
X30189999Y-30220000D01*
G37*
G36*
X30189999Y-33259999D02*
G01*
X30400000Y-33259999D01*
X30400000Y-36130000D01*
X30189999Y-36130000D01*
X30189999Y-33259999D01*
G37*
G36*
X30189999Y-36679999D02*
G01*
X30400000Y-36679999D01*
X30400000Y-36890000D01*
X30189999Y-36890000D01*
X30189999Y-36679999D01*
G37*
G36*
X30189999Y-37440000D02*
G01*
X30400000Y-37440000D01*
X30400000Y-39930000D01*
X30189999Y-39930000D01*
X30189999Y-37440000D01*
G37*
G36*
X30189999Y-40099999D02*
G01*
X30400000Y-40099999D01*
X30400000Y-41450000D01*
X30189999Y-41450000D01*
X30189999Y-40099999D01*
G37*
G36*
X30189999Y-41810000D02*
G01*
X30400000Y-41810000D01*
X30400000Y-43350000D01*
X30189999Y-43350000D01*
X30189999Y-41810000D01*
G37*
G36*
X30189999Y-44090000D02*
G01*
X30400000Y-44090000D01*
X30400000Y-46580000D01*
X30189999Y-46580000D01*
X30189999Y-44090000D01*
G37*
G36*
X30189999Y-47320000D02*
G01*
X30400000Y-47320000D01*
X30400000Y-47910000D01*
X30189999Y-47910000D01*
X30189999Y-47320000D01*
G37*
G36*
X30189999Y-49410000D02*
G01*
X30400000Y-49410000D01*
X30400000Y-50760000D01*
X30189999Y-50760000D01*
X30189999Y-49410000D01*
G37*
G36*
X30189999Y-51120000D02*
G01*
X30400000Y-51120000D01*
X30400000Y-54180000D01*
X30189999Y-54180000D01*
X30189999Y-51120000D01*
G37*
G36*
X30189999Y-54730000D02*
G01*
X30400000Y-54730000D01*
X30400000Y-54940000D01*
X30189999Y-54940000D01*
X30189999Y-54730000D01*
G37*
G36*
X30189999Y-56630000D02*
G01*
X30400000Y-56630000D01*
X30400000Y-57029999D01*
X30189999Y-57029999D01*
X30189999Y-56630000D01*
G37*
G36*
X30189999Y-57580000D02*
G01*
X30400000Y-57580000D01*
X30400000Y-59120000D01*
X30189999Y-59120000D01*
X30189999Y-57580000D01*
G37*
G36*
X30189999Y-60240000D02*
G01*
X30400000Y-60240000D01*
X30400000Y-64440000D01*
X30189999Y-64440000D01*
X30189999Y-60240000D01*
G37*
G36*
X30189999Y-65560000D02*
G01*
X30400000Y-65560000D01*
X30400000Y-66910000D01*
X30189999Y-66910000D01*
X30189999Y-65560000D01*
G37*
G36*
X30189999Y-67460000D02*
G01*
X30400000Y-67460000D01*
X30400000Y-67860000D01*
X30189999Y-67860000D01*
X30189999Y-67460000D01*
G37*
G36*
X30380000Y-27940000D02*
G01*
X30590000Y-27940000D01*
X30590000Y-28150000D01*
X30380000Y-28150000D01*
X30380000Y-27940000D01*
G37*
G36*
X30380000Y-28700000D02*
G01*
X30590000Y-28700000D01*
X30590000Y-29860000D01*
X30380000Y-29860000D01*
X30380000Y-28700000D01*
G37*
G36*
X30380000Y-30220000D02*
G01*
X30590000Y-30220000D01*
X30590000Y-31759999D01*
X30380000Y-31759999D01*
X30380000Y-30220000D01*
G37*
G36*
X30380000Y-33070000D02*
G01*
X30590000Y-33070000D01*
X30590000Y-36130000D01*
X30380000Y-36130000D01*
X30380000Y-33070000D01*
G37*
G36*
X30380000Y-36679999D02*
G01*
X30590000Y-36679999D01*
X30590000Y-36890000D01*
X30380000Y-36890000D01*
X30380000Y-36679999D01*
G37*
G36*
X30380000Y-37440000D02*
G01*
X30590000Y-37440000D01*
X30590000Y-39930000D01*
X30380000Y-39930000D01*
X30380000Y-37440000D01*
G37*
G36*
X30380000Y-40099999D02*
G01*
X30590000Y-40099999D01*
X30590000Y-41450000D01*
X30380000Y-41450000D01*
X30380000Y-40099999D01*
G37*
G36*
X30380000Y-41810000D02*
G01*
X30590000Y-41810000D01*
X30590000Y-43160000D01*
X30380000Y-43160000D01*
X30380000Y-41810000D01*
G37*
G36*
X30380000Y-44090000D02*
G01*
X30590000Y-44090000D01*
X30590000Y-46770000D01*
X30380000Y-46770000D01*
X30380000Y-44090000D01*
G37*
G36*
X30380000Y-49599999D02*
G01*
X30590000Y-49599999D01*
X30590000Y-50760000D01*
X30380000Y-50760000D01*
X30380000Y-49599999D01*
G37*
G36*
X30380000Y-51120000D02*
G01*
X30590000Y-51120000D01*
X30590000Y-54180000D01*
X30380000Y-54180000D01*
X30380000Y-51120000D01*
G37*
G36*
X30380000Y-54730000D02*
G01*
X30590000Y-54730000D01*
X30590000Y-54940000D01*
X30380000Y-54940000D01*
X30380000Y-54730000D01*
G37*
G36*
X30380000Y-56630000D02*
G01*
X30590000Y-56630000D01*
X30590000Y-57029999D01*
X30380000Y-57029999D01*
X30380000Y-56630000D01*
G37*
G36*
X30380000Y-57580000D02*
G01*
X30590000Y-57580000D01*
X30590000Y-59120000D01*
X30380000Y-59120000D01*
X30380000Y-57580000D01*
G37*
G36*
X30380000Y-60240000D02*
G01*
X30590000Y-60240000D01*
X30590000Y-64440000D01*
X30380000Y-64440000D01*
X30380000Y-60240000D01*
G37*
G36*
X30380000Y-65560000D02*
G01*
X30590000Y-65560000D01*
X30590000Y-66910000D01*
X30380000Y-66910000D01*
X30380000Y-65560000D01*
G37*
G36*
X30380000Y-67460000D02*
G01*
X30590000Y-67460000D01*
X30590000Y-67860000D01*
X30380000Y-67860000D01*
X30380000Y-67460000D01*
G37*
G36*
X30570000Y-27940000D02*
G01*
X30780000Y-27940000D01*
X30780000Y-28150000D01*
X30570000Y-28150000D01*
X30570000Y-27940000D01*
G37*
G36*
X30570000Y-28700000D02*
G01*
X30780000Y-28700000D01*
X30780000Y-29860000D01*
X30570000Y-29860000D01*
X30570000Y-28700000D01*
G37*
G36*
X30570000Y-30030000D02*
G01*
X30780000Y-30030000D01*
X30780000Y-31570000D01*
X30570000Y-31570000D01*
X30570000Y-30030000D01*
G37*
G36*
X30570000Y-32880000D02*
G01*
X30780000Y-32880000D01*
X30780000Y-36130000D01*
X30570000Y-36130000D01*
X30570000Y-32880000D01*
G37*
G36*
X30570000Y-36679999D02*
G01*
X30780000Y-36679999D01*
X30780000Y-36890000D01*
X30570000Y-36890000D01*
X30570000Y-36679999D01*
G37*
G36*
X30570000Y-37440000D02*
G01*
X30780000Y-37440000D01*
X30780000Y-39930000D01*
X30570000Y-39930000D01*
X30570000Y-37440000D01*
G37*
G36*
X30570000Y-40099999D02*
G01*
X30780000Y-40099999D01*
X30780000Y-41450000D01*
X30570000Y-41450000D01*
X30570000Y-40099999D01*
G37*
G36*
X30570000Y-41620000D02*
G01*
X30780000Y-41620000D01*
X30780000Y-42970000D01*
X30570000Y-42970000D01*
X30570000Y-41620000D01*
G37*
G36*
X30570000Y-44090000D02*
G01*
X30780000Y-44090000D01*
X30780000Y-46960000D01*
X30570000Y-46960000D01*
X30570000Y-44090000D01*
G37*
G36*
X30570000Y-49410000D02*
G01*
X30780000Y-49410000D01*
X30780000Y-50760000D01*
X30570000Y-50760000D01*
X30570000Y-49410000D01*
G37*
G36*
X30570000Y-51120000D02*
G01*
X30780000Y-51120000D01*
X30780000Y-54180000D01*
X30570000Y-54180000D01*
X30570000Y-51120000D01*
G37*
G36*
X30570000Y-54730000D02*
G01*
X30780000Y-54730000D01*
X30780000Y-54940000D01*
X30570000Y-54940000D01*
X30570000Y-54730000D01*
G37*
G36*
X30570000Y-56630000D02*
G01*
X30780000Y-56630000D01*
X30780000Y-56840000D01*
X30570000Y-56840000D01*
X30570000Y-56630000D01*
G37*
G36*
X30570000Y-57580000D02*
G01*
X30780000Y-57580000D01*
X30780000Y-59120000D01*
X30570000Y-59120000D01*
X30570000Y-57580000D01*
G37*
G36*
X30570000Y-60240000D02*
G01*
X30780000Y-60240000D01*
X30780000Y-64440000D01*
X30570000Y-64440000D01*
X30570000Y-60240000D01*
G37*
G36*
X30570000Y-65560000D02*
G01*
X30780000Y-65560000D01*
X30780000Y-66910000D01*
X30570000Y-66910000D01*
X30570000Y-65560000D01*
G37*
G36*
X30570000Y-67650000D02*
G01*
X30780000Y-67650000D01*
X30780000Y-67860000D01*
X30570000Y-67860000D01*
X30570000Y-67650000D01*
G37*
G36*
X30759999Y-27940000D02*
G01*
X30970000Y-27940000D01*
X30970000Y-28150000D01*
X30759999Y-28150000D01*
X30759999Y-27940000D01*
G37*
G36*
X30759999Y-28700000D02*
G01*
X30970000Y-28700000D01*
X30970000Y-31570000D01*
X30759999Y-31570000D01*
X30759999Y-28700000D01*
G37*
G36*
X30759999Y-32689999D02*
G01*
X30970000Y-32689999D01*
X30970000Y-36130000D01*
X30759999Y-36130000D01*
X30759999Y-32689999D01*
G37*
G36*
X30759999Y-36679999D02*
G01*
X30970000Y-36679999D01*
X30970000Y-36890000D01*
X30759999Y-36890000D01*
X30759999Y-36679999D01*
G37*
G36*
X30759999Y-37440000D02*
G01*
X30970000Y-37440000D01*
X30970000Y-39930000D01*
X30759999Y-39930000D01*
X30759999Y-37440000D01*
G37*
G36*
X30759999Y-40099999D02*
G01*
X30970000Y-40099999D01*
X30970000Y-42970000D01*
X30759999Y-42970000D01*
X30759999Y-40099999D01*
G37*
G36*
X30759999Y-44090000D02*
G01*
X30970000Y-44090000D01*
X30970000Y-47150000D01*
X30759999Y-47150000D01*
X30759999Y-44090000D01*
G37*
G36*
X30759999Y-48080000D02*
G01*
X30970000Y-48080000D01*
X30970000Y-50760000D01*
X30759999Y-50760000D01*
X30759999Y-48080000D01*
G37*
G36*
X30759999Y-51120000D02*
G01*
X30970000Y-51120000D01*
X30970000Y-54180000D01*
X30759999Y-54180000D01*
X30759999Y-51120000D01*
G37*
G36*
X30759999Y-54730000D02*
G01*
X30970000Y-54730000D01*
X30970000Y-54940000D01*
X30759999Y-54940000D01*
X30759999Y-54730000D01*
G37*
G36*
X30759999Y-56440000D02*
G01*
X30970000Y-56440000D01*
X30970000Y-56840000D01*
X30759999Y-56840000D01*
X30759999Y-56440000D01*
G37*
G36*
X30759999Y-57580000D02*
G01*
X30970000Y-57580000D01*
X30970000Y-59120000D01*
X30759999Y-59120000D01*
X30759999Y-57580000D01*
G37*
G36*
X30759999Y-60240000D02*
G01*
X30970000Y-60240000D01*
X30970000Y-64440000D01*
X30759999Y-64440000D01*
X30759999Y-60240000D01*
G37*
G36*
X30759999Y-65560000D02*
G01*
X30970000Y-65560000D01*
X30970000Y-66910000D01*
X30759999Y-66910000D01*
X30759999Y-65560000D01*
G37*
G36*
X30759999Y-67650000D02*
G01*
X30970000Y-67650000D01*
X30970000Y-68050000D01*
X30759999Y-68050000D01*
X30759999Y-67650000D01*
G37*
G36*
X30950000Y-27940000D02*
G01*
X31160000Y-27940000D01*
X31160000Y-28150000D01*
X30950000Y-28150000D01*
X30950000Y-27940000D01*
G37*
G36*
X30950000Y-28700000D02*
G01*
X31160000Y-28700000D01*
X31160000Y-31950000D01*
X30950000Y-31950000D01*
X30950000Y-28700000D01*
G37*
G36*
X30950000Y-32500000D02*
G01*
X31160000Y-32500000D01*
X31160000Y-36130000D01*
X30950000Y-36130000D01*
X30950000Y-32500000D01*
G37*
G36*
X30950000Y-36679999D02*
G01*
X31160000Y-36679999D01*
X31160000Y-36890000D01*
X30950000Y-36890000D01*
X30950000Y-36679999D01*
G37*
G36*
X30950000Y-37440000D02*
G01*
X31160000Y-37440000D01*
X31160000Y-39930000D01*
X30950000Y-39930000D01*
X30950000Y-37440000D01*
G37*
G36*
X30950000Y-40099999D02*
G01*
X31160000Y-40099999D01*
X31160000Y-43350000D01*
X30950000Y-43350000D01*
X30950000Y-40099999D01*
G37*
G36*
X30950000Y-44090000D02*
G01*
X31160000Y-44090000D01*
X31160000Y-47340000D01*
X30950000Y-47340000D01*
X30950000Y-44090000D01*
G37*
G36*
X30950000Y-48080000D02*
G01*
X31160000Y-48080000D01*
X31160000Y-50760000D01*
X30950000Y-50760000D01*
X30950000Y-48080000D01*
G37*
G36*
X30950000Y-51120000D02*
G01*
X31160000Y-51120000D01*
X31160000Y-54180000D01*
X30950000Y-54180000D01*
X30950000Y-51120000D01*
G37*
G36*
X30950000Y-54730000D02*
G01*
X31160000Y-54730000D01*
X31160000Y-54940000D01*
X30950000Y-54940000D01*
X30950000Y-54730000D01*
G37*
G36*
X30950000Y-56440000D02*
G01*
X31160000Y-56440000D01*
X31160000Y-56840000D01*
X30950000Y-56840000D01*
X30950000Y-56440000D01*
G37*
G36*
X30950000Y-57390000D02*
G01*
X31160000Y-57390000D01*
X31160000Y-59120000D01*
X30950000Y-59120000D01*
X30950000Y-57390000D01*
G37*
G36*
X30950000Y-61760000D02*
G01*
X31160000Y-61760000D01*
X31160000Y-62920000D01*
X30950000Y-62920000D01*
X30950000Y-61760000D01*
G37*
G36*
X30950000Y-65560000D02*
G01*
X31160000Y-65560000D01*
X31160000Y-67099999D01*
X30950000Y-67099999D01*
X30950000Y-65560000D01*
G37*
G36*
X30950000Y-67650000D02*
G01*
X31160000Y-67650000D01*
X31160000Y-68050000D01*
X30950000Y-68050000D01*
X30950000Y-67650000D01*
G37*
G36*
X31140000Y-27940000D02*
G01*
X31350000Y-27940000D01*
X31350000Y-28150000D01*
X31140000Y-28150000D01*
X31140000Y-27940000D01*
G37*
G36*
X31140000Y-28700000D02*
G01*
X31350000Y-28700000D01*
X31350000Y-32140000D01*
X31140000Y-32140000D01*
X31140000Y-28700000D01*
G37*
G36*
X31140000Y-32500000D02*
G01*
X31350000Y-32500000D01*
X31350000Y-35560000D01*
X31140000Y-35560000D01*
X31140000Y-32500000D01*
G37*
G36*
X31140000Y-35730000D02*
G01*
X31350000Y-35730000D01*
X31350000Y-36130000D01*
X31140000Y-36130000D01*
X31140000Y-35730000D01*
G37*
G36*
X31140000Y-36679999D02*
G01*
X31350000Y-36679999D01*
X31350000Y-36890000D01*
X31140000Y-36890000D01*
X31140000Y-36679999D01*
G37*
G36*
X31140000Y-37440000D02*
G01*
X31350000Y-37440000D01*
X31350000Y-39740000D01*
X31140000Y-39740000D01*
X31140000Y-37440000D01*
G37*
G36*
X31140000Y-40099999D02*
G01*
X31350000Y-40099999D01*
X31350000Y-43540000D01*
X31140000Y-43540000D01*
X31140000Y-40099999D01*
G37*
G36*
X31140000Y-44090000D02*
G01*
X31350000Y-44090000D01*
X31350000Y-47530000D01*
X31140000Y-47530000D01*
X31140000Y-44090000D01*
G37*
G36*
X31140000Y-48080000D02*
G01*
X31350000Y-48080000D01*
X31350000Y-50760000D01*
X31140000Y-50760000D01*
X31140000Y-48080000D01*
G37*
G36*
X31140000Y-51120000D02*
G01*
X31350000Y-51120000D01*
X31350000Y-54180000D01*
X31140000Y-54180000D01*
X31140000Y-51120000D01*
G37*
G36*
X31140000Y-54730000D02*
G01*
X31350000Y-54730000D01*
X31350000Y-54940000D01*
X31140000Y-54940000D01*
X31140000Y-54730000D01*
G37*
G36*
X31140000Y-56440000D02*
G01*
X31350000Y-56440000D01*
X31350000Y-56840000D01*
X31140000Y-56840000D01*
X31140000Y-56440000D01*
G37*
G36*
X31140000Y-57390000D02*
G01*
X31350000Y-57390000D01*
X31350000Y-59120000D01*
X31140000Y-59120000D01*
X31140000Y-57390000D01*
G37*
G36*
X31140000Y-61760000D02*
G01*
X31350000Y-61760000D01*
X31350000Y-62920000D01*
X31140000Y-62920000D01*
X31140000Y-61760000D01*
G37*
G36*
X31140000Y-65560000D02*
G01*
X31350000Y-65560000D01*
X31350000Y-67099999D01*
X31140000Y-67099999D01*
X31140000Y-65560000D01*
G37*
G36*
X31140000Y-67650000D02*
G01*
X31350000Y-67650000D01*
X31350000Y-68050000D01*
X31140000Y-68050000D01*
X31140000Y-67650000D01*
G37*
G36*
X31330000Y-27940000D02*
G01*
X31540000Y-27940000D01*
X31540000Y-28150000D01*
X31330000Y-28150000D01*
X31330000Y-27940000D01*
G37*
G36*
X31330000Y-28700000D02*
G01*
X31540000Y-28700000D01*
X31540000Y-29860000D01*
X31330000Y-29860000D01*
X31330000Y-28700000D01*
G37*
G36*
X31330000Y-30980000D02*
G01*
X31540000Y-30980000D01*
X31540000Y-32330000D01*
X31330000Y-32330000D01*
X31330000Y-30980000D01*
G37*
G36*
X31330000Y-32500000D02*
G01*
X31540000Y-32500000D01*
X31540000Y-33850000D01*
X31330000Y-33850000D01*
X31330000Y-32500000D01*
G37*
G36*
X31330000Y-34970000D02*
G01*
X31540000Y-34970000D01*
X31540000Y-35560000D01*
X31330000Y-35560000D01*
X31330000Y-34970000D01*
G37*
G36*
X31330000Y-36489999D02*
G01*
X31540000Y-36489999D01*
X31540000Y-36890000D01*
X31330000Y-36890000D01*
X31330000Y-36489999D01*
G37*
G36*
X31330000Y-37440000D02*
G01*
X31540000Y-37440000D01*
X31540000Y-38790000D01*
X31330000Y-38790000D01*
X31330000Y-37440000D01*
G37*
G36*
X31330000Y-40099999D02*
G01*
X31540000Y-40099999D01*
X31540000Y-41450000D01*
X31330000Y-41450000D01*
X31330000Y-40099999D01*
G37*
G36*
X31330000Y-42569999D02*
G01*
X31540000Y-42569999D01*
X31540000Y-43730000D01*
X31330000Y-43730000D01*
X31330000Y-42569999D01*
G37*
G36*
X31330000Y-44090000D02*
G01*
X31540000Y-44090000D01*
X31540000Y-45250000D01*
X31330000Y-45250000D01*
X31330000Y-44090000D01*
G37*
G36*
X31330000Y-46560000D02*
G01*
X31540000Y-46560000D01*
X31540000Y-47720000D01*
X31330000Y-47720000D01*
X31330000Y-46560000D01*
G37*
G36*
X31330000Y-48080000D02*
G01*
X31540000Y-48080000D01*
X31540000Y-50760000D01*
X31330000Y-50760000D01*
X31330000Y-48080000D01*
G37*
G36*
X31330000Y-51120000D02*
G01*
X31540000Y-51120000D01*
X31540000Y-52279999D01*
X31330000Y-52279999D01*
X31330000Y-51120000D01*
G37*
G36*
X31330000Y-54540000D02*
G01*
X31540000Y-54540000D01*
X31540000Y-54940000D01*
X31330000Y-54940000D01*
X31330000Y-54540000D01*
G37*
G36*
X31330000Y-56440000D02*
G01*
X31540000Y-56440000D01*
X31540000Y-56840000D01*
X31330000Y-56840000D01*
X31330000Y-56440000D01*
G37*
G36*
X31330000Y-57390000D02*
G01*
X31540000Y-57390000D01*
X31540000Y-59120000D01*
X31330000Y-59120000D01*
X31330000Y-57390000D01*
G37*
G36*
X31330000Y-61760000D02*
G01*
X31540000Y-61760000D01*
X31540000Y-62920000D01*
X31330000Y-62920000D01*
X31330000Y-61760000D01*
G37*
G36*
X31330000Y-65560000D02*
G01*
X31540000Y-65560000D01*
X31540000Y-67099999D01*
X31330000Y-67099999D01*
X31330000Y-65560000D01*
G37*
G36*
X31330000Y-67650000D02*
G01*
X31540000Y-67650000D01*
X31540000Y-68050000D01*
X31330000Y-68050000D01*
X31330000Y-67650000D01*
G37*
G36*
X31520000Y-27940000D02*
G01*
X31730000Y-27940000D01*
X31730000Y-28150000D01*
X31520000Y-28150000D01*
X31520000Y-27940000D01*
G37*
G36*
X31520000Y-28700000D02*
G01*
X31730000Y-28700000D01*
X31730000Y-29860000D01*
X31520000Y-29860000D01*
X31520000Y-28700000D01*
G37*
G36*
X31520000Y-30980000D02*
G01*
X31730000Y-30980000D01*
X31730000Y-32330000D01*
X31520000Y-32330000D01*
X31520000Y-30980000D01*
G37*
G36*
X31520000Y-32500000D02*
G01*
X31730000Y-32500000D01*
X31730000Y-33850000D01*
X31520000Y-33850000D01*
X31520000Y-32500000D01*
G37*
G36*
X31520000Y-34970000D02*
G01*
X31730000Y-34970000D01*
X31730000Y-35750000D01*
X31520000Y-35750000D01*
X31520000Y-34970000D01*
G37*
G36*
X31520000Y-36489999D02*
G01*
X31730000Y-36489999D01*
X31730000Y-36890000D01*
X31520000Y-36890000D01*
X31520000Y-36489999D01*
G37*
G36*
X31520000Y-37440000D02*
G01*
X31730000Y-37440000D01*
X31730000Y-38790000D01*
X31520000Y-38790000D01*
X31520000Y-37440000D01*
G37*
G36*
X31520000Y-40099999D02*
G01*
X31730000Y-40099999D01*
X31730000Y-41450000D01*
X31520000Y-41450000D01*
X31520000Y-40099999D01*
G37*
G36*
X31520000Y-42569999D02*
G01*
X31730000Y-42569999D01*
X31730000Y-43730000D01*
X31520000Y-43730000D01*
X31520000Y-42569999D01*
G37*
G36*
X31520000Y-44090000D02*
G01*
X31730000Y-44090000D01*
X31730000Y-45250000D01*
X31520000Y-45250000D01*
X31520000Y-44090000D01*
G37*
G36*
X31520000Y-46560000D02*
G01*
X31730000Y-46560000D01*
X31730000Y-47720000D01*
X31520000Y-47720000D01*
X31520000Y-46560000D01*
G37*
G36*
X31520000Y-48080000D02*
G01*
X31730000Y-48080000D01*
X31730000Y-50760000D01*
X31520000Y-50760000D01*
X31520000Y-48080000D01*
G37*
G36*
X31520000Y-51120000D02*
G01*
X31730000Y-51120000D01*
X31730000Y-52279999D01*
X31520000Y-52279999D01*
X31520000Y-51120000D01*
G37*
G36*
X31520000Y-54350000D02*
G01*
X31730000Y-54350000D01*
X31730000Y-54750000D01*
X31520000Y-54750000D01*
X31520000Y-54350000D01*
G37*
G36*
X31520000Y-56440000D02*
G01*
X31730000Y-56440000D01*
X31730000Y-56840000D01*
X31520000Y-56840000D01*
X31520000Y-56440000D01*
G37*
G36*
X31520000Y-57390000D02*
G01*
X31730000Y-57390000D01*
X31730000Y-59120000D01*
X31520000Y-59120000D01*
X31520000Y-57390000D01*
G37*
G36*
X31520000Y-61760000D02*
G01*
X31730000Y-61760000D01*
X31730000Y-62920000D01*
X31520000Y-62920000D01*
X31520000Y-61760000D01*
G37*
G36*
X31520000Y-65560000D02*
G01*
X31730000Y-65560000D01*
X31730000Y-67099999D01*
X31520000Y-67099999D01*
X31520000Y-65560000D01*
G37*
G36*
X31520000Y-67650000D02*
G01*
X31730000Y-67650000D01*
X31730000Y-68050000D01*
X31520000Y-68050000D01*
X31520000Y-67650000D01*
G37*
G36*
X31710000Y-27940000D02*
G01*
X31920000Y-27940000D01*
X31920000Y-28150000D01*
X31710000Y-28150000D01*
X31710000Y-27940000D01*
G37*
G36*
X31710000Y-28700000D02*
G01*
X31920000Y-28700000D01*
X31920000Y-29860000D01*
X31710000Y-29860000D01*
X31710000Y-28700000D01*
G37*
G36*
X31710000Y-30980000D02*
G01*
X31920000Y-30980000D01*
X31920000Y-32330000D01*
X31710000Y-32330000D01*
X31710000Y-30980000D01*
G37*
G36*
X31710000Y-32500000D02*
G01*
X31920000Y-32500000D01*
X31920000Y-33850000D01*
X31710000Y-33850000D01*
X31710000Y-32500000D01*
G37*
G36*
X31710000Y-34970000D02*
G01*
X31920000Y-34970000D01*
X31920000Y-35940000D01*
X31710000Y-35940000D01*
X31710000Y-34970000D01*
G37*
G36*
X31710000Y-37440000D02*
G01*
X31920000Y-37440000D01*
X31920000Y-38790000D01*
X31710000Y-38790000D01*
X31710000Y-37440000D01*
G37*
G36*
X31710000Y-40099999D02*
G01*
X31920000Y-40099999D01*
X31920000Y-41450000D01*
X31710000Y-41450000D01*
X31710000Y-40099999D01*
G37*
G36*
X31710000Y-42569999D02*
G01*
X31920000Y-42569999D01*
X31920000Y-43730000D01*
X31710000Y-43730000D01*
X31710000Y-42569999D01*
G37*
G36*
X31710000Y-44090000D02*
G01*
X31920000Y-44090000D01*
X31920000Y-45250000D01*
X31710000Y-45250000D01*
X31710000Y-44090000D01*
G37*
G36*
X31710000Y-46560000D02*
G01*
X31920000Y-46560000D01*
X31920000Y-47720000D01*
X31710000Y-47720000D01*
X31710000Y-46560000D01*
G37*
G36*
X31710000Y-48080000D02*
G01*
X31920000Y-48080000D01*
X31920000Y-49430000D01*
X31710000Y-49430000D01*
X31710000Y-48080000D01*
G37*
G36*
X31710000Y-51120000D02*
G01*
X31920000Y-51120000D01*
X31920000Y-52279999D01*
X31710000Y-52279999D01*
X31710000Y-51120000D01*
G37*
G36*
X31710000Y-54350000D02*
G01*
X31920000Y-54350000D01*
X31920000Y-54750000D01*
X31710000Y-54750000D01*
X31710000Y-54350000D01*
G37*
G36*
X31710000Y-56440000D02*
G01*
X31920000Y-56440000D01*
X31920000Y-56840000D01*
X31710000Y-56840000D01*
X31710000Y-56440000D01*
G37*
G36*
X31710000Y-57390000D02*
G01*
X31920000Y-57390000D01*
X31920000Y-59120000D01*
X31710000Y-59120000D01*
X31710000Y-57390000D01*
G37*
G36*
X31710000Y-61760000D02*
G01*
X31920000Y-61760000D01*
X31920000Y-62920000D01*
X31710000Y-62920000D01*
X31710000Y-61760000D01*
G37*
G36*
X31710000Y-65560000D02*
G01*
X31920000Y-65560000D01*
X31920000Y-67099999D01*
X31710000Y-67099999D01*
X31710000Y-65560000D01*
G37*
G36*
X31710000Y-67650000D02*
G01*
X31920000Y-67650000D01*
X31920000Y-68050000D01*
X31710000Y-68050000D01*
X31710000Y-67650000D01*
G37*
G36*
X31900000Y-27940000D02*
G01*
X32110000Y-27940000D01*
X32110000Y-28150000D01*
X31900000Y-28150000D01*
X31900000Y-27940000D01*
G37*
G36*
X31900000Y-28700000D02*
G01*
X32110000Y-28700000D01*
X32110000Y-29860000D01*
X31900000Y-29860000D01*
X31900000Y-28700000D01*
G37*
G36*
X31900000Y-30980000D02*
G01*
X32110000Y-30980000D01*
X32110000Y-32330000D01*
X31900000Y-32330000D01*
X31900000Y-30980000D01*
G37*
G36*
X31900000Y-32500000D02*
G01*
X32110000Y-32500000D01*
X32110000Y-33850000D01*
X31900000Y-33850000D01*
X31900000Y-32500000D01*
G37*
G36*
X31900000Y-34970000D02*
G01*
X32110000Y-34970000D01*
X32110000Y-35940000D01*
X31900000Y-35940000D01*
X31900000Y-34970000D01*
G37*
G36*
X31900000Y-37440000D02*
G01*
X32110000Y-37440000D01*
X32110000Y-38790000D01*
X31900000Y-38790000D01*
X31900000Y-37440000D01*
G37*
G36*
X31900000Y-40099999D02*
G01*
X32110000Y-40099999D01*
X32110000Y-41450000D01*
X31900000Y-41450000D01*
X31900000Y-40099999D01*
G37*
G36*
X31900000Y-42569999D02*
G01*
X32110000Y-42569999D01*
X32110000Y-43730000D01*
X31900000Y-43730000D01*
X31900000Y-42569999D01*
G37*
G36*
X31900000Y-44090000D02*
G01*
X32110000Y-44090000D01*
X32110000Y-45250000D01*
X31900000Y-45250000D01*
X31900000Y-44090000D01*
G37*
G36*
X31900000Y-46560000D02*
G01*
X32110000Y-46560000D01*
X32110000Y-47720000D01*
X31900000Y-47720000D01*
X31900000Y-46560000D01*
G37*
G36*
X31900000Y-48080000D02*
G01*
X32110000Y-48080000D01*
X32110000Y-49430000D01*
X31900000Y-49430000D01*
X31900000Y-48080000D01*
G37*
G36*
X31900000Y-51120000D02*
G01*
X32110000Y-51120000D01*
X32110000Y-52279999D01*
X31900000Y-52279999D01*
X31900000Y-51120000D01*
G37*
G36*
X31900000Y-54350000D02*
G01*
X32110000Y-54350000D01*
X32110000Y-54750000D01*
X31900000Y-54750000D01*
X31900000Y-54350000D01*
G37*
G36*
X31900000Y-56440000D02*
G01*
X32110000Y-56440000D01*
X32110000Y-56840000D01*
X31900000Y-56840000D01*
X31900000Y-56440000D01*
G37*
G36*
X31900000Y-57390000D02*
G01*
X32110000Y-57390000D01*
X32110000Y-59120000D01*
X31900000Y-59120000D01*
X31900000Y-57390000D01*
G37*
G36*
X31900000Y-61760000D02*
G01*
X32110000Y-61760000D01*
X32110000Y-62920000D01*
X31900000Y-62920000D01*
X31900000Y-61760000D01*
G37*
G36*
X31900000Y-65560000D02*
G01*
X32110000Y-65560000D01*
X32110000Y-67099999D01*
X31900000Y-67099999D01*
X31900000Y-65560000D01*
G37*
G36*
X31900000Y-67650000D02*
G01*
X32110000Y-67650000D01*
X32110000Y-68050000D01*
X31900000Y-68050000D01*
X31900000Y-67650000D01*
G37*
G36*
X32090000Y-27940000D02*
G01*
X32299999Y-27940000D01*
X32299999Y-28150000D01*
X32090000Y-28150000D01*
X32090000Y-27940000D01*
G37*
G36*
X32090000Y-28700000D02*
G01*
X32299999Y-28700000D01*
X32299999Y-29860000D01*
X32090000Y-29860000D01*
X32090000Y-28700000D01*
G37*
G36*
X32090000Y-30980000D02*
G01*
X32299999Y-30980000D01*
X32299999Y-32330000D01*
X32090000Y-32330000D01*
X32090000Y-30980000D01*
G37*
G36*
X32090000Y-32500000D02*
G01*
X32299999Y-32500000D01*
X32299999Y-33850000D01*
X32090000Y-33850000D01*
X32090000Y-32500000D01*
G37*
G36*
X32090000Y-34970000D02*
G01*
X32299999Y-34970000D01*
X32299999Y-36130000D01*
X32090000Y-36130000D01*
X32090000Y-34970000D01*
G37*
G36*
X32090000Y-37440000D02*
G01*
X32299999Y-37440000D01*
X32299999Y-38790000D01*
X32090000Y-38790000D01*
X32090000Y-37440000D01*
G37*
G36*
X32090000Y-40099999D02*
G01*
X32299999Y-40099999D01*
X32299999Y-41450000D01*
X32090000Y-41450000D01*
X32090000Y-40099999D01*
G37*
G36*
X32090000Y-42569999D02*
G01*
X32299999Y-42569999D01*
X32299999Y-43730000D01*
X32090000Y-43730000D01*
X32090000Y-42569999D01*
G37*
G36*
X32090000Y-44090000D02*
G01*
X32299999Y-44090000D01*
X32299999Y-45250000D01*
X32090000Y-45250000D01*
X32090000Y-44090000D01*
G37*
G36*
X32090000Y-46560000D02*
G01*
X32299999Y-46560000D01*
X32299999Y-47720000D01*
X32090000Y-47720000D01*
X32090000Y-46560000D01*
G37*
G36*
X32090000Y-48080000D02*
G01*
X32299999Y-48080000D01*
X32299999Y-49240000D01*
X32090000Y-49240000D01*
X32090000Y-48080000D01*
G37*
G36*
X32090000Y-51120000D02*
G01*
X32299999Y-51120000D01*
X32299999Y-52279999D01*
X32090000Y-52279999D01*
X32090000Y-51120000D01*
G37*
G36*
X32090000Y-54540000D02*
G01*
X32299999Y-54540000D01*
X32299999Y-54940000D01*
X32090000Y-54940000D01*
X32090000Y-54540000D01*
G37*
G36*
X32090000Y-56440000D02*
G01*
X32299999Y-56440000D01*
X32299999Y-56840000D01*
X32090000Y-56840000D01*
X32090000Y-56440000D01*
G37*
G36*
X32090000Y-57390000D02*
G01*
X32299999Y-57390000D01*
X32299999Y-59120000D01*
X32090000Y-59120000D01*
X32090000Y-57390000D01*
G37*
G36*
X32090000Y-61760000D02*
G01*
X32299999Y-61760000D01*
X32299999Y-62920000D01*
X32090000Y-62920000D01*
X32090000Y-61760000D01*
G37*
G36*
X32090000Y-65560000D02*
G01*
X32299999Y-65560000D01*
X32299999Y-67099999D01*
X32090000Y-67099999D01*
X32090000Y-65560000D01*
G37*
G36*
X32090000Y-67650000D02*
G01*
X32299999Y-67650000D01*
X32299999Y-68050000D01*
X32090000Y-68050000D01*
X32090000Y-67650000D01*
G37*
G36*
X32280000Y-27940000D02*
G01*
X32489999Y-27940000D01*
X32489999Y-28150000D01*
X32280000Y-28150000D01*
X32280000Y-27940000D01*
G37*
G36*
X32280000Y-28700000D02*
G01*
X32489999Y-28700000D01*
X32489999Y-29860000D01*
X32280000Y-29860000D01*
X32280000Y-28700000D01*
G37*
G36*
X32280000Y-30980000D02*
G01*
X32489999Y-30980000D01*
X32489999Y-32330000D01*
X32280000Y-32330000D01*
X32280000Y-30980000D01*
G37*
G36*
X32280000Y-32500000D02*
G01*
X32489999Y-32500000D01*
X32489999Y-33850000D01*
X32280000Y-33850000D01*
X32280000Y-32500000D01*
G37*
G36*
X32280000Y-34970000D02*
G01*
X32489999Y-34970000D01*
X32489999Y-36130000D01*
X32280000Y-36130000D01*
X32280000Y-34970000D01*
G37*
G36*
X32280000Y-37440000D02*
G01*
X32489999Y-37440000D01*
X32489999Y-38790000D01*
X32280000Y-38790000D01*
X32280000Y-37440000D01*
G37*
G36*
X32280000Y-40099999D02*
G01*
X32489999Y-40099999D01*
X32489999Y-41450000D01*
X32280000Y-41450000D01*
X32280000Y-40099999D01*
G37*
G36*
X32280000Y-42569999D02*
G01*
X32489999Y-42569999D01*
X32489999Y-43730000D01*
X32280000Y-43730000D01*
X32280000Y-42569999D01*
G37*
G36*
X32280000Y-44090000D02*
G01*
X32489999Y-44090000D01*
X32489999Y-45250000D01*
X32280000Y-45250000D01*
X32280000Y-44090000D01*
G37*
G36*
X32280000Y-46560000D02*
G01*
X32489999Y-46560000D01*
X32489999Y-47720000D01*
X32280000Y-47720000D01*
X32280000Y-46560000D01*
G37*
G36*
X32280000Y-48080000D02*
G01*
X32489999Y-48080000D01*
X32489999Y-49240000D01*
X32280000Y-49240000D01*
X32280000Y-48080000D01*
G37*
G36*
X32280000Y-51120000D02*
G01*
X32489999Y-51120000D01*
X32489999Y-52279999D01*
X32280000Y-52279999D01*
X32280000Y-51120000D01*
G37*
G36*
X32280000Y-54730000D02*
G01*
X32489999Y-54730000D01*
X32489999Y-54940000D01*
X32280000Y-54940000D01*
X32280000Y-54730000D01*
G37*
G36*
X32280000Y-56440000D02*
G01*
X32489999Y-56440000D01*
X32489999Y-56840000D01*
X32280000Y-56840000D01*
X32280000Y-56440000D01*
G37*
G36*
X32280000Y-57390000D02*
G01*
X32489999Y-57390000D01*
X32489999Y-59120000D01*
X32280000Y-59120000D01*
X32280000Y-57390000D01*
G37*
G36*
X32280000Y-65560000D02*
G01*
X32489999Y-65560000D01*
X32489999Y-67099999D01*
X32280000Y-67099999D01*
X32280000Y-65560000D01*
G37*
G36*
X32280000Y-67650000D02*
G01*
X32489999Y-67650000D01*
X32489999Y-68050000D01*
X32280000Y-68050000D01*
X32280000Y-67650000D01*
G37*
G36*
X32470000Y-27940000D02*
G01*
X32680000Y-27940000D01*
X32680000Y-28340000D01*
X32470000Y-28340000D01*
X32470000Y-27940000D01*
G37*
G36*
X32470000Y-28890000D02*
G01*
X32680000Y-28890000D01*
X32680000Y-32330000D01*
X32470000Y-32330000D01*
X32470000Y-28890000D01*
G37*
G36*
X32470000Y-32689999D02*
G01*
X32680000Y-32689999D01*
X32680000Y-39740000D01*
X32470000Y-39740000D01*
X32470000Y-32689999D01*
G37*
G36*
X32470000Y-40290000D02*
G01*
X32680000Y-40290000D01*
X32680000Y-43730000D01*
X32470000Y-43730000D01*
X32470000Y-40290000D01*
G37*
G36*
X32470000Y-44280000D02*
G01*
X32680000Y-44280000D01*
X32680000Y-47720000D01*
X32470000Y-47720000D01*
X32470000Y-44280000D01*
G37*
G36*
X32470000Y-48269999D02*
G01*
X32680000Y-48269999D01*
X32680000Y-50760000D01*
X32470000Y-50760000D01*
X32470000Y-48269999D01*
G37*
G36*
X32470000Y-51310000D02*
G01*
X32680000Y-51310000D01*
X32680000Y-54180000D01*
X32470000Y-54180000D01*
X32470000Y-51310000D01*
G37*
G36*
X32470000Y-54730000D02*
G01*
X32680000Y-54730000D01*
X32680000Y-54940000D01*
X32470000Y-54940000D01*
X32470000Y-54730000D01*
G37*
G36*
X32470000Y-56440000D02*
G01*
X32680000Y-56440000D01*
X32680000Y-56840000D01*
X32470000Y-56840000D01*
X32470000Y-56440000D01*
G37*
G36*
X32470000Y-57390000D02*
G01*
X32680000Y-57390000D01*
X32680000Y-59120000D01*
X32470000Y-59120000D01*
X32470000Y-57390000D01*
G37*
G36*
X32470000Y-65560000D02*
G01*
X32680000Y-65560000D01*
X32680000Y-67099999D01*
X32470000Y-67099999D01*
X32470000Y-65560000D01*
G37*
G36*
X32470000Y-67650000D02*
G01*
X32680000Y-67650000D01*
X32680000Y-68050000D01*
X32470000Y-68050000D01*
X32470000Y-67650000D01*
G37*
G36*
X32659999Y-28130000D02*
G01*
X32869999Y-28130000D01*
X32869999Y-28530000D01*
X32659999Y-28530000D01*
X32659999Y-28130000D01*
G37*
G36*
X32659999Y-29080000D02*
G01*
X32869999Y-29080000D01*
X32869999Y-32330000D01*
X32659999Y-32330000D01*
X32659999Y-29080000D01*
G37*
G36*
X32659999Y-32880000D02*
G01*
X32869999Y-32880000D01*
X32869999Y-36130000D01*
X32659999Y-36130000D01*
X32659999Y-32880000D01*
G37*
G36*
X32659999Y-36489999D02*
G01*
X32869999Y-36489999D01*
X32869999Y-39930000D01*
X32659999Y-39930000D01*
X32659999Y-36489999D01*
G37*
G36*
X32659999Y-40480000D02*
G01*
X32869999Y-40480000D01*
X32869999Y-43730000D01*
X32659999Y-43730000D01*
X32659999Y-40480000D01*
G37*
G36*
X32659999Y-44470000D02*
G01*
X32869999Y-44470000D01*
X32869999Y-47720000D01*
X32659999Y-47720000D01*
X32659999Y-44470000D01*
G37*
G36*
X32659999Y-48459999D02*
G01*
X32869999Y-48459999D01*
X32869999Y-50760000D01*
X32659999Y-50760000D01*
X32659999Y-48459999D01*
G37*
G36*
X32659999Y-51500000D02*
G01*
X32869999Y-51500000D01*
X32869999Y-54180000D01*
X32659999Y-54180000D01*
X32659999Y-51500000D01*
G37*
G36*
X32659999Y-54730000D02*
G01*
X32869999Y-54730000D01*
X32869999Y-54940000D01*
X32659999Y-54940000D01*
X32659999Y-54730000D01*
G37*
G36*
X32659999Y-56440000D02*
G01*
X32869999Y-56440000D01*
X32869999Y-56840000D01*
X32659999Y-56840000D01*
X32659999Y-56440000D01*
G37*
G36*
X32659999Y-57390000D02*
G01*
X32869999Y-57390000D01*
X32869999Y-59120000D01*
X32659999Y-59120000D01*
X32659999Y-57390000D01*
G37*
G36*
X32659999Y-65560000D02*
G01*
X32869999Y-65560000D01*
X32869999Y-67099999D01*
X32659999Y-67099999D01*
X32659999Y-65560000D01*
G37*
G36*
X32659999Y-67650000D02*
G01*
X32869999Y-67650000D01*
X32869999Y-68050000D01*
X32659999Y-68050000D01*
X32659999Y-67650000D01*
G37*
G36*
X32850000Y-28320000D02*
G01*
X33060000Y-28320000D01*
X33060000Y-28720000D01*
X32850000Y-28720000D01*
X32850000Y-28320000D01*
G37*
G36*
X32850000Y-29270000D02*
G01*
X33060000Y-29270000D01*
X33060000Y-32330000D01*
X32850000Y-32330000D01*
X32850000Y-29270000D01*
G37*
G36*
X32850000Y-33070000D02*
G01*
X33060000Y-33070000D01*
X33060000Y-36130000D01*
X32850000Y-36130000D01*
X32850000Y-33070000D01*
G37*
G36*
X32850000Y-36679999D02*
G01*
X33060000Y-36679999D01*
X33060000Y-39930000D01*
X32850000Y-39930000D01*
X32850000Y-36679999D01*
G37*
G36*
X32850000Y-40670000D02*
G01*
X33060000Y-40670000D01*
X33060000Y-43730000D01*
X32850000Y-43730000D01*
X32850000Y-40670000D01*
G37*
G36*
X32850000Y-44660000D02*
G01*
X33060000Y-44660000D01*
X33060000Y-47720000D01*
X32850000Y-47720000D01*
X32850000Y-44660000D01*
G37*
G36*
X32850000Y-48650000D02*
G01*
X33060000Y-48650000D01*
X33060000Y-50760000D01*
X32850000Y-50760000D01*
X32850000Y-48650000D01*
G37*
G36*
X32850000Y-51690000D02*
G01*
X33060000Y-51690000D01*
X33060000Y-54180000D01*
X32850000Y-54180000D01*
X32850000Y-51690000D01*
G37*
G36*
X32850000Y-54730000D02*
G01*
X33060000Y-54730000D01*
X33060000Y-54940000D01*
X32850000Y-54940000D01*
X32850000Y-54730000D01*
G37*
G36*
X32850000Y-56440000D02*
G01*
X33060000Y-56440000D01*
X33060000Y-56840000D01*
X32850000Y-56840000D01*
X32850000Y-56440000D01*
G37*
G36*
X32850000Y-57390000D02*
G01*
X33060000Y-57390000D01*
X33060000Y-59120000D01*
X32850000Y-59120000D01*
X32850000Y-57390000D01*
G37*
G36*
X32850000Y-65560000D02*
G01*
X33060000Y-65560000D01*
X33060000Y-67099999D01*
X32850000Y-67099999D01*
X32850000Y-65560000D01*
G37*
G36*
X32850000Y-67650000D02*
G01*
X33060000Y-67650000D01*
X33060000Y-68050000D01*
X32850000Y-68050000D01*
X32850000Y-67650000D01*
G37*
G36*
X33040000Y-28509999D02*
G01*
X33250000Y-28509999D01*
X33250000Y-28910000D01*
X33040000Y-28910000D01*
X33040000Y-28509999D01*
G37*
G36*
X33040000Y-29460000D02*
G01*
X33250000Y-29460000D01*
X33250000Y-32330000D01*
X33040000Y-32330000D01*
X33040000Y-29460000D01*
G37*
G36*
X33040000Y-33450000D02*
G01*
X33250000Y-33450000D01*
X33250000Y-36130000D01*
X33040000Y-36130000D01*
X33040000Y-33450000D01*
G37*
G36*
X33040000Y-36870000D02*
G01*
X33250000Y-36870000D01*
X33250000Y-39930000D01*
X33040000Y-39930000D01*
X33040000Y-36870000D01*
G37*
G36*
X33040000Y-40860000D02*
G01*
X33250000Y-40860000D01*
X33250000Y-43730000D01*
X33040000Y-43730000D01*
X33040000Y-40860000D01*
G37*
G36*
X33040000Y-44849999D02*
G01*
X33250000Y-44849999D01*
X33250000Y-47720000D01*
X33040000Y-47720000D01*
X33040000Y-44849999D01*
G37*
G36*
X33040000Y-48840000D02*
G01*
X33250000Y-48840000D01*
X33250000Y-50760000D01*
X33040000Y-50760000D01*
X33040000Y-48840000D01*
G37*
G36*
X33040000Y-51879999D02*
G01*
X33250000Y-51879999D01*
X33250000Y-54180000D01*
X33040000Y-54180000D01*
X33040000Y-51879999D01*
G37*
G36*
X33040000Y-54730000D02*
G01*
X33250000Y-54730000D01*
X33250000Y-54940000D01*
X33040000Y-54940000D01*
X33040000Y-54730000D01*
G37*
G36*
X33040000Y-56630000D02*
G01*
X33250000Y-56630000D01*
X33250000Y-56840000D01*
X33040000Y-56840000D01*
X33040000Y-56630000D01*
G37*
G36*
X33040000Y-57580000D02*
G01*
X33250000Y-57580000D01*
X33250000Y-59120000D01*
X33040000Y-59120000D01*
X33040000Y-57580000D01*
G37*
G36*
X33040000Y-65560000D02*
G01*
X33250000Y-65560000D01*
X33250000Y-66910000D01*
X33040000Y-66910000D01*
X33040000Y-65560000D01*
G37*
G36*
X33040000Y-67650000D02*
G01*
X33250000Y-67650000D01*
X33250000Y-68050000D01*
X33040000Y-68050000D01*
X33040000Y-67650000D01*
G37*
G36*
X33230000Y-28700000D02*
G01*
X33439999Y-28700000D01*
X33439999Y-29100000D01*
X33230000Y-29100000D01*
X33230000Y-28700000D01*
G37*
G36*
X33230000Y-29650000D02*
G01*
X33439999Y-29650000D01*
X33439999Y-32330000D01*
X33230000Y-32330000D01*
X33230000Y-29650000D01*
G37*
G36*
X33230000Y-33640000D02*
G01*
X33439999Y-33640000D01*
X33439999Y-36130000D01*
X33230000Y-36130000D01*
X33230000Y-33640000D01*
G37*
G36*
X33230000Y-37060000D02*
G01*
X33439999Y-37060000D01*
X33439999Y-39930000D01*
X33230000Y-39930000D01*
X33230000Y-37060000D01*
G37*
G36*
X33230000Y-41050000D02*
G01*
X33439999Y-41050000D01*
X33439999Y-43730000D01*
X33230000Y-43730000D01*
X33230000Y-41050000D01*
G37*
G36*
X33230000Y-45040000D02*
G01*
X33439999Y-45040000D01*
X33439999Y-47720000D01*
X33230000Y-47720000D01*
X33230000Y-45040000D01*
G37*
G36*
X33230000Y-49030000D02*
G01*
X33439999Y-49030000D01*
X33439999Y-50760000D01*
X33230000Y-50760000D01*
X33230000Y-49030000D01*
G37*
G36*
X33230000Y-52070000D02*
G01*
X33439999Y-52070000D01*
X33439999Y-54180000D01*
X33230000Y-54180000D01*
X33230000Y-52070000D01*
G37*
G36*
X33230000Y-54730000D02*
G01*
X33439999Y-54730000D01*
X33439999Y-54940000D01*
X33230000Y-54940000D01*
X33230000Y-54730000D01*
G37*
G36*
X33230000Y-56630000D02*
G01*
X33439999Y-56630000D01*
X33439999Y-56840000D01*
X33230000Y-56840000D01*
X33230000Y-56630000D01*
G37*
G36*
X33230000Y-57580000D02*
G01*
X33439999Y-57580000D01*
X33439999Y-59120000D01*
X33230000Y-59120000D01*
X33230000Y-57580000D01*
G37*
G36*
X33230000Y-65560000D02*
G01*
X33439999Y-65560000D01*
X33439999Y-66910000D01*
X33230000Y-66910000D01*
X33230000Y-65560000D01*
G37*
G36*
X33230000Y-67650000D02*
G01*
X33439999Y-67650000D01*
X33439999Y-67860000D01*
X33230000Y-67860000D01*
X33230000Y-67650000D01*
G37*
G36*
X33420000Y-28890000D02*
G01*
X33629999Y-28890000D01*
X33629999Y-29290000D01*
X33420000Y-29290000D01*
X33420000Y-28890000D01*
G37*
G36*
X33420000Y-29840000D02*
G01*
X33629999Y-29840000D01*
X33629999Y-32330000D01*
X33420000Y-32330000D01*
X33420000Y-29840000D01*
G37*
G36*
X33420000Y-32689999D02*
G01*
X33629999Y-32689999D01*
X33629999Y-33090000D01*
X33420000Y-33090000D01*
X33420000Y-32689999D01*
G37*
G36*
X33420000Y-33830000D02*
G01*
X33629999Y-33830000D01*
X33629999Y-36130000D01*
X33420000Y-36130000D01*
X33420000Y-33830000D01*
G37*
G36*
X33420000Y-37250000D02*
G01*
X33629999Y-37250000D01*
X33629999Y-39930000D01*
X33420000Y-39930000D01*
X33420000Y-37250000D01*
G37*
G36*
X33420000Y-40290000D02*
G01*
X33629999Y-40290000D01*
X33629999Y-40690000D01*
X33420000Y-40690000D01*
X33420000Y-40290000D01*
G37*
G36*
X33420000Y-41239999D02*
G01*
X33629999Y-41239999D01*
X33629999Y-43730000D01*
X33420000Y-43730000D01*
X33420000Y-41239999D01*
G37*
G36*
X33420000Y-44280000D02*
G01*
X33629999Y-44280000D01*
X33629999Y-44680000D01*
X33420000Y-44680000D01*
X33420000Y-44280000D01*
G37*
G36*
X33420000Y-45420000D02*
G01*
X33629999Y-45420000D01*
X33629999Y-47720000D01*
X33420000Y-47720000D01*
X33420000Y-45420000D01*
G37*
G36*
X33420000Y-48080000D02*
G01*
X33629999Y-48080000D01*
X33629999Y-48670000D01*
X33420000Y-48670000D01*
X33420000Y-48080000D01*
G37*
G36*
X33420000Y-49220000D02*
G01*
X33629999Y-49220000D01*
X33629999Y-50760000D01*
X33420000Y-50760000D01*
X33420000Y-49220000D01*
G37*
G36*
X33420000Y-51120000D02*
G01*
X33629999Y-51120000D01*
X33629999Y-51710000D01*
X33420000Y-51710000D01*
X33420000Y-51120000D01*
G37*
G36*
X33420000Y-52260000D02*
G01*
X33629999Y-52260000D01*
X33629999Y-54180000D01*
X33420000Y-54180000D01*
X33420000Y-52260000D01*
G37*
G36*
X33420000Y-54730000D02*
G01*
X33629999Y-54730000D01*
X33629999Y-54940000D01*
X33420000Y-54940000D01*
X33420000Y-54730000D01*
G37*
G36*
X33420000Y-56630000D02*
G01*
X33629999Y-56630000D01*
X33629999Y-57029999D01*
X33420000Y-57029999D01*
X33420000Y-56630000D01*
G37*
G36*
X33420000Y-57580000D02*
G01*
X33629999Y-57580000D01*
X33629999Y-59120000D01*
X33420000Y-59120000D01*
X33420000Y-57580000D01*
G37*
G36*
X33420000Y-60240000D02*
G01*
X33629999Y-60240000D01*
X33629999Y-61400000D01*
X33420000Y-61400000D01*
X33420000Y-60240000D01*
G37*
G36*
X33420000Y-63280000D02*
G01*
X33629999Y-63280000D01*
X33629999Y-64440000D01*
X33420000Y-64440000D01*
X33420000Y-63280000D01*
G37*
G36*
X33420000Y-65560000D02*
G01*
X33629999Y-65560000D01*
X33629999Y-66910000D01*
X33420000Y-66910000D01*
X33420000Y-65560000D01*
G37*
G36*
X33420000Y-67460000D02*
G01*
X33629999Y-67460000D01*
X33629999Y-67860000D01*
X33420000Y-67860000D01*
X33420000Y-67460000D01*
G37*
G36*
X33610000Y-29080000D02*
G01*
X33820000Y-29080000D01*
X33820000Y-29480000D01*
X33610000Y-29480000D01*
X33610000Y-29080000D01*
G37*
G36*
X33610000Y-32689999D02*
G01*
X33820000Y-32689999D01*
X33820000Y-33280000D01*
X33610000Y-33280000D01*
X33610000Y-32689999D01*
G37*
G36*
X33610000Y-37440000D02*
G01*
X33820000Y-37440000D01*
X33820000Y-38790000D01*
X33610000Y-38790000D01*
X33610000Y-37440000D01*
G37*
G36*
X33610000Y-40290000D02*
G01*
X33820000Y-40290000D01*
X33820000Y-40880000D01*
X33610000Y-40880000D01*
X33610000Y-40290000D01*
G37*
G36*
X33610000Y-44090000D02*
G01*
X33820000Y-44090000D01*
X33820000Y-44870000D01*
X33610000Y-44870000D01*
X33610000Y-44090000D01*
G37*
G36*
X33610000Y-48080000D02*
G01*
X33820000Y-48080000D01*
X33820000Y-48860000D01*
X33610000Y-48860000D01*
X33610000Y-48080000D01*
G37*
G36*
X33610000Y-51120000D02*
G01*
X33820000Y-51120000D01*
X33820000Y-51900000D01*
X33610000Y-51900000D01*
X33610000Y-51120000D01*
G37*
G36*
X33610000Y-54540000D02*
G01*
X33820000Y-54540000D01*
X33820000Y-54940000D01*
X33610000Y-54940000D01*
X33610000Y-54540000D01*
G37*
G36*
X33610000Y-56630000D02*
G01*
X33820000Y-56630000D01*
X33820000Y-57029999D01*
X33610000Y-57029999D01*
X33610000Y-56630000D01*
G37*
G36*
X33610000Y-57580000D02*
G01*
X33820000Y-57580000D01*
X33820000Y-59120000D01*
X33610000Y-59120000D01*
X33610000Y-57580000D01*
G37*
G36*
X33610000Y-60240000D02*
G01*
X33820000Y-60240000D01*
X33820000Y-61400000D01*
X33610000Y-61400000D01*
X33610000Y-60240000D01*
G37*
G36*
X33610000Y-63280000D02*
G01*
X33820000Y-63280000D01*
X33820000Y-64440000D01*
X33610000Y-64440000D01*
X33610000Y-63280000D01*
G37*
G36*
X33610000Y-65560000D02*
G01*
X33820000Y-65560000D01*
X33820000Y-66910000D01*
X33610000Y-66910000D01*
X33610000Y-65560000D01*
G37*
G36*
X33610000Y-67460000D02*
G01*
X33820000Y-67460000D01*
X33820000Y-67860000D01*
X33610000Y-67860000D01*
X33610000Y-67460000D01*
G37*
G36*
X33800000Y-29270000D02*
G01*
X34010000Y-29270000D01*
X34010000Y-29670000D01*
X33800000Y-29670000D01*
X33800000Y-29270000D01*
G37*
G36*
X33800000Y-32500000D02*
G01*
X34010000Y-32500000D01*
X34010000Y-33660000D01*
X33800000Y-33660000D01*
X33800000Y-32500000D01*
G37*
G36*
X33800000Y-36489999D02*
G01*
X34010000Y-36489999D01*
X34010000Y-36890000D01*
X33800000Y-36890000D01*
X33800000Y-36489999D01*
G37*
G36*
X33800000Y-37440000D02*
G01*
X34010000Y-37440000D01*
X34010000Y-38790000D01*
X33800000Y-38790000D01*
X33800000Y-37440000D01*
G37*
G36*
X33800000Y-40099999D02*
G01*
X34010000Y-40099999D01*
X34010000Y-40500000D01*
X33800000Y-40500000D01*
X33800000Y-40099999D01*
G37*
G36*
X33800000Y-40670000D02*
G01*
X34010000Y-40670000D01*
X34010000Y-41070000D01*
X33800000Y-41070000D01*
X33800000Y-40670000D01*
G37*
G36*
X33800000Y-44090000D02*
G01*
X34010000Y-44090000D01*
X34010000Y-44490000D01*
X33800000Y-44490000D01*
X33800000Y-44090000D01*
G37*
G36*
X33800000Y-44660000D02*
G01*
X34010000Y-44660000D01*
X34010000Y-45060000D01*
X33800000Y-45060000D01*
X33800000Y-44660000D01*
G37*
G36*
X33800000Y-48080000D02*
G01*
X34010000Y-48080000D01*
X34010000Y-48290000D01*
X33800000Y-48290000D01*
X33800000Y-48080000D01*
G37*
G36*
X33800000Y-48650000D02*
G01*
X34010000Y-48650000D01*
X34010000Y-49050000D01*
X33800000Y-49050000D01*
X33800000Y-48650000D01*
G37*
G36*
X33800000Y-50930000D02*
G01*
X34010000Y-50930000D01*
X34010000Y-51330000D01*
X33800000Y-51330000D01*
X33800000Y-50930000D01*
G37*
G36*
X33800000Y-51690000D02*
G01*
X34010000Y-51690000D01*
X34010000Y-52090000D01*
X33800000Y-52090000D01*
X33800000Y-51690000D01*
G37*
G36*
X33800000Y-54540000D02*
G01*
X34010000Y-54540000D01*
X34010000Y-54940000D01*
X33800000Y-54940000D01*
X33800000Y-54540000D01*
G37*
G36*
X33800000Y-56820000D02*
G01*
X34010000Y-56820000D01*
X34010000Y-57029999D01*
X33800000Y-57029999D01*
X33800000Y-56820000D01*
G37*
G36*
X33800000Y-57770000D02*
G01*
X34010000Y-57770000D01*
X34010000Y-59120000D01*
X33800000Y-59120000D01*
X33800000Y-57770000D01*
G37*
G36*
X33800000Y-60240000D02*
G01*
X34010000Y-60240000D01*
X34010000Y-61400000D01*
X33800000Y-61400000D01*
X33800000Y-60240000D01*
G37*
G36*
X33800000Y-63280000D02*
G01*
X34010000Y-63280000D01*
X34010000Y-64440000D01*
X33800000Y-64440000D01*
X33800000Y-63280000D01*
G37*
G36*
X33800000Y-65560000D02*
G01*
X34010000Y-65560000D01*
X34010000Y-66720000D01*
X33800000Y-66720000D01*
X33800000Y-65560000D01*
G37*
G36*
X33800000Y-67460000D02*
G01*
X34010000Y-67460000D01*
X34010000Y-67670000D01*
X33800000Y-67670000D01*
X33800000Y-67460000D01*
G37*
G36*
X33990000Y-29460000D02*
G01*
X34200000Y-29460000D01*
X34200000Y-32900000D01*
X33990000Y-32900000D01*
X33990000Y-29460000D01*
G37*
G36*
X33990000Y-33259999D02*
G01*
X34200000Y-33259999D01*
X34200000Y-36890000D01*
X33990000Y-36890000D01*
X33990000Y-33259999D01*
G37*
G36*
X33990000Y-37440000D02*
G01*
X34200000Y-37440000D01*
X34200000Y-38790000D01*
X33990000Y-38790000D01*
X33990000Y-37440000D01*
G37*
G36*
X33990000Y-39530000D02*
G01*
X34200000Y-39530000D01*
X34200000Y-40310000D01*
X33990000Y-40310000D01*
X33990000Y-39530000D01*
G37*
G36*
X33990000Y-40860000D02*
G01*
X34200000Y-40860000D01*
X34200000Y-44300000D01*
X33990000Y-44300000D01*
X33990000Y-40860000D01*
G37*
G36*
X33990000Y-44849999D02*
G01*
X34200000Y-44849999D01*
X34200000Y-48290000D01*
X33990000Y-48290000D01*
X33990000Y-44849999D01*
G37*
G36*
X33990000Y-48840000D02*
G01*
X34200000Y-48840000D01*
X34200000Y-51140000D01*
X33990000Y-51140000D01*
X33990000Y-48840000D01*
G37*
G36*
X33990000Y-51879999D02*
G01*
X34200000Y-51879999D01*
X34200000Y-54750000D01*
X33990000Y-54750000D01*
X33990000Y-51879999D01*
G37*
G36*
X33990000Y-56820000D02*
G01*
X34200000Y-56820000D01*
X34200000Y-57220000D01*
X33990000Y-57220000D01*
X33990000Y-56820000D01*
G37*
G36*
X33990000Y-57770000D02*
G01*
X34200000Y-57770000D01*
X34200000Y-59120000D01*
X33990000Y-59120000D01*
X33990000Y-57770000D01*
G37*
G36*
X33990000Y-60240000D02*
G01*
X34200000Y-60240000D01*
X34200000Y-61400000D01*
X33990000Y-61400000D01*
X33990000Y-60240000D01*
G37*
G36*
X33990000Y-63280000D02*
G01*
X34200000Y-63280000D01*
X34200000Y-64440000D01*
X33990000Y-64440000D01*
X33990000Y-63280000D01*
G37*
G36*
X33990000Y-65560000D02*
G01*
X34200000Y-65560000D01*
X34200000Y-66720000D01*
X33990000Y-66720000D01*
X33990000Y-65560000D01*
G37*
G36*
X33990000Y-67270000D02*
G01*
X34200000Y-67270000D01*
X34200000Y-67670000D01*
X33990000Y-67670000D01*
X33990000Y-67270000D01*
G37*
G36*
X34180000Y-29840000D02*
G01*
X34390000Y-29840000D01*
X34390000Y-32519999D01*
X34180000Y-32519999D01*
X34180000Y-29840000D01*
G37*
G36*
X34180000Y-33640000D02*
G01*
X34390000Y-33640000D01*
X34390000Y-36320000D01*
X34180000Y-36320000D01*
X34180000Y-33640000D01*
G37*
G36*
X34180000Y-36489999D02*
G01*
X34390000Y-36489999D01*
X34390000Y-36890000D01*
X34180000Y-36890000D01*
X34180000Y-36489999D01*
G37*
G36*
X34180000Y-37440000D02*
G01*
X34390000Y-37440000D01*
X34390000Y-38790000D01*
X34180000Y-38790000D01*
X34180000Y-37440000D01*
G37*
G36*
X34180000Y-39340000D02*
G01*
X34390000Y-39340000D01*
X34390000Y-40120000D01*
X34180000Y-40120000D01*
X34180000Y-39340000D01*
G37*
G36*
X34180000Y-41239999D02*
G01*
X34390000Y-41239999D01*
X34390000Y-43920000D01*
X34180000Y-43920000D01*
X34180000Y-41239999D01*
G37*
G36*
X34180000Y-45230000D02*
G01*
X34390000Y-45230000D01*
X34390000Y-47910000D01*
X34180000Y-47910000D01*
X34180000Y-45230000D01*
G37*
G36*
X34180000Y-49220000D02*
G01*
X34390000Y-49220000D01*
X34390000Y-50950000D01*
X34180000Y-50950000D01*
X34180000Y-49220000D01*
G37*
G36*
X34180000Y-52070000D02*
G01*
X34390000Y-52070000D01*
X34390000Y-54370000D01*
X34180000Y-54370000D01*
X34180000Y-52070000D01*
G37*
G36*
X34180000Y-56820000D02*
G01*
X34390000Y-56820000D01*
X34390000Y-57220000D01*
X34180000Y-57220000D01*
X34180000Y-56820000D01*
G37*
G36*
X34180000Y-57960000D02*
G01*
X34390000Y-57960000D01*
X34390000Y-59120000D01*
X34180000Y-59120000D01*
X34180000Y-57960000D01*
G37*
G36*
X34180000Y-60240000D02*
G01*
X34390000Y-60240000D01*
X34390000Y-61400000D01*
X34180000Y-61400000D01*
X34180000Y-60240000D01*
G37*
G36*
X34180000Y-63280000D02*
G01*
X34390000Y-63280000D01*
X34390000Y-64440000D01*
X34180000Y-64440000D01*
X34180000Y-63280000D01*
G37*
G36*
X34180000Y-65560000D02*
G01*
X34390000Y-65560000D01*
X34390000Y-66530000D01*
X34180000Y-66530000D01*
X34180000Y-65560000D01*
G37*
G36*
X34180000Y-67270000D02*
G01*
X34390000Y-67270000D01*
X34390000Y-67670000D01*
X34180000Y-67670000D01*
X34180000Y-67270000D01*
G37*
G36*
X34370000Y-36679999D02*
G01*
X34580000Y-36679999D01*
X34580000Y-36890000D01*
X34370000Y-36890000D01*
X34370000Y-36679999D01*
G37*
G36*
X34370000Y-37440000D02*
G01*
X34580000Y-37440000D01*
X34580000Y-38790000D01*
X34370000Y-38790000D01*
X34370000Y-37440000D01*
G37*
G36*
X34370000Y-39340000D02*
G01*
X34580000Y-39340000D01*
X34580000Y-39550000D01*
X34370000Y-39550000D01*
X34370000Y-39340000D01*
G37*
G36*
X34370000Y-57010000D02*
G01*
X34580000Y-57010000D01*
X34580000Y-57410000D01*
X34370000Y-57410000D01*
X34370000Y-57010000D01*
G37*
G36*
X34370000Y-57960000D02*
G01*
X34580000Y-57960000D01*
X34580000Y-59120000D01*
X34370000Y-59120000D01*
X34370000Y-57960000D01*
G37*
G36*
X34370000Y-60240000D02*
G01*
X34580000Y-60240000D01*
X34580000Y-61400000D01*
X34370000Y-61400000D01*
X34370000Y-60240000D01*
G37*
G36*
X34370000Y-63280000D02*
G01*
X34580000Y-63280000D01*
X34580000Y-64440000D01*
X34370000Y-64440000D01*
X34370000Y-63280000D01*
G37*
G36*
X34370000Y-65560000D02*
G01*
X34580000Y-65560000D01*
X34580000Y-66530000D01*
X34370000Y-66530000D01*
X34370000Y-65560000D01*
G37*
G36*
X34370000Y-67080000D02*
G01*
X34580000Y-67080000D01*
X34580000Y-67479999D01*
X34370000Y-67479999D01*
X34370000Y-67080000D01*
G37*
G36*
X34560000Y-26990000D02*
G01*
X34769999Y-26990000D01*
X34769999Y-29480000D01*
X34560000Y-29480000D01*
X34560000Y-26990000D01*
G37*
G36*
X34560000Y-32880000D02*
G01*
X34769999Y-32880000D01*
X34769999Y-33280000D01*
X34560000Y-33280000D01*
X34560000Y-32880000D01*
G37*
G36*
X34560000Y-36679999D02*
G01*
X34769999Y-36679999D01*
X34769999Y-36890000D01*
X34560000Y-36890000D01*
X34560000Y-36679999D01*
G37*
G36*
X34560000Y-37440000D02*
G01*
X34769999Y-37440000D01*
X34769999Y-38790000D01*
X34560000Y-38790000D01*
X34560000Y-37440000D01*
G37*
G36*
X34560000Y-39150000D02*
G01*
X34769999Y-39150000D01*
X34769999Y-39550000D01*
X34560000Y-39550000D01*
X34560000Y-39150000D01*
G37*
G36*
X34560000Y-40480000D02*
G01*
X34769999Y-40480000D01*
X34769999Y-40880000D01*
X34560000Y-40880000D01*
X34560000Y-40480000D01*
G37*
G36*
X34560000Y-44280000D02*
G01*
X34769999Y-44280000D01*
X34769999Y-44870000D01*
X34560000Y-44870000D01*
X34560000Y-44280000D01*
G37*
G36*
X34560000Y-48269999D02*
G01*
X34769999Y-48269999D01*
X34769999Y-48860000D01*
X34560000Y-48860000D01*
X34560000Y-48269999D01*
G37*
G36*
X34560000Y-51310000D02*
G01*
X34769999Y-51310000D01*
X34769999Y-51900000D01*
X34560000Y-51900000D01*
X34560000Y-51310000D01*
G37*
G36*
X34560000Y-57010000D02*
G01*
X34769999Y-57010000D01*
X34769999Y-57410000D01*
X34560000Y-57410000D01*
X34560000Y-57010000D01*
G37*
G36*
X34560000Y-58150000D02*
G01*
X34769999Y-58150000D01*
X34769999Y-60260000D01*
X34560000Y-60260000D01*
X34560000Y-58150000D01*
G37*
G36*
X34560000Y-64420000D02*
G01*
X34769999Y-64420000D01*
X34769999Y-66340000D01*
X34560000Y-66340000D01*
X34560000Y-64420000D01*
G37*
G36*
X34560000Y-67080000D02*
G01*
X34769999Y-67080000D01*
X34769999Y-67479999D01*
X34560000Y-67479999D01*
X34560000Y-67080000D01*
G37*
G36*
X34750000Y-26990000D02*
G01*
X34960000Y-26990000D01*
X34960000Y-36320000D01*
X34750000Y-36320000D01*
X34750000Y-26990000D01*
G37*
G36*
X34750000Y-36679999D02*
G01*
X34960000Y-36679999D01*
X34960000Y-37080000D01*
X34750000Y-37080000D01*
X34750000Y-36679999D01*
G37*
G36*
X34750000Y-39150000D02*
G01*
X34960000Y-39150000D01*
X34960000Y-39550000D01*
X34750000Y-39550000D01*
X34750000Y-39150000D01*
G37*
G36*
X34750000Y-39910000D02*
G01*
X34960000Y-39910000D01*
X34960000Y-52660000D01*
X34750000Y-52660000D01*
X34750000Y-39910000D01*
G37*
G36*
X34750000Y-57200000D02*
G01*
X34960000Y-57200000D01*
X34960000Y-57600000D01*
X34750000Y-57600000D01*
X34750000Y-57200000D01*
G37*
G36*
X34750000Y-58340000D02*
G01*
X34960000Y-58340000D01*
X34960000Y-60260000D01*
X34750000Y-60260000D01*
X34750000Y-58340000D01*
G37*
G36*
X34750000Y-64420000D02*
G01*
X34960000Y-64420000D01*
X34960000Y-66150000D01*
X34750000Y-66150000D01*
X34750000Y-64420000D01*
G37*
G36*
X34750000Y-66890000D02*
G01*
X34960000Y-66890000D01*
X34960000Y-67289999D01*
X34750000Y-67289999D01*
X34750000Y-66890000D01*
G37*
G36*
X34940000Y-26990000D02*
G01*
X35150000Y-26990000D01*
X35150000Y-36320000D01*
X34940000Y-36320000D01*
X34940000Y-26990000D01*
G37*
G36*
X34940000Y-36870000D02*
G01*
X35150000Y-36870000D01*
X35150000Y-37269999D01*
X34940000Y-37269999D01*
X34940000Y-36870000D01*
G37*
G36*
X34940000Y-38959999D02*
G01*
X35150000Y-38959999D01*
X35150000Y-39360000D01*
X34940000Y-39360000D01*
X34940000Y-38959999D01*
G37*
G36*
X34940000Y-39910000D02*
G01*
X35150000Y-39910000D01*
X35150000Y-53040000D01*
X34940000Y-53040000D01*
X34940000Y-39910000D01*
G37*
G36*
X34940000Y-57200000D02*
G01*
X35150000Y-57200000D01*
X35150000Y-57600000D01*
X34940000Y-57600000D01*
X34940000Y-57200000D01*
G37*
G36*
X34940000Y-58340000D02*
G01*
X35150000Y-58340000D01*
X35150000Y-60260000D01*
X34940000Y-60260000D01*
X34940000Y-58340000D01*
G37*
G36*
X34940000Y-64420000D02*
G01*
X35150000Y-64420000D01*
X35150000Y-66150000D01*
X34940000Y-66150000D01*
X34940000Y-64420000D01*
G37*
G36*
X34940000Y-66890000D02*
G01*
X35150000Y-66890000D01*
X35150000Y-67289999D01*
X34940000Y-67289999D01*
X34940000Y-66890000D01*
G37*
G36*
X35130000Y-26990000D02*
G01*
X35340000Y-26990000D01*
X35340000Y-36320000D01*
X35130000Y-36320000D01*
X35130000Y-26990000D01*
G37*
G36*
X35130000Y-36870000D02*
G01*
X35340000Y-36870000D01*
X35340000Y-39170000D01*
X35130000Y-39170000D01*
X35130000Y-36870000D01*
G37*
G36*
X35130000Y-39910000D02*
G01*
X35340000Y-39910000D01*
X35340000Y-53419999D01*
X35130000Y-53419999D01*
X35130000Y-39910000D01*
G37*
G36*
X35130000Y-57390000D02*
G01*
X35340000Y-57390000D01*
X35340000Y-57790000D01*
X35130000Y-57790000D01*
X35130000Y-57390000D01*
G37*
G36*
X35130000Y-58530000D02*
G01*
X35340000Y-58530000D01*
X35340000Y-60260000D01*
X35130000Y-60260000D01*
X35130000Y-58530000D01*
G37*
G36*
X35130000Y-64420000D02*
G01*
X35340000Y-64420000D01*
X35340000Y-65960000D01*
X35130000Y-65960000D01*
X35130000Y-64420000D01*
G37*
G36*
X35130000Y-66700000D02*
G01*
X35340000Y-66700000D01*
X35340000Y-67099999D01*
X35130000Y-67099999D01*
X35130000Y-66700000D01*
G37*
G36*
X35320000Y-37250000D02*
G01*
X35530000Y-37250000D01*
X35530000Y-38980000D01*
X35320000Y-38980000D01*
X35320000Y-37250000D01*
G37*
G36*
X35320000Y-51879999D02*
G01*
X35530000Y-51879999D01*
X35530000Y-53610000D01*
X35320000Y-53610000D01*
X35320000Y-51879999D01*
G37*
G36*
X35320000Y-57580000D02*
G01*
X35530000Y-57580000D01*
X35530000Y-57980000D01*
X35320000Y-57980000D01*
X35320000Y-57580000D01*
G37*
G36*
X35320000Y-58910000D02*
G01*
X35530000Y-58910000D01*
X35530000Y-60260000D01*
X35320000Y-60260000D01*
X35320000Y-58910000D01*
G37*
G36*
X35320000Y-64420000D02*
G01*
X35530000Y-64420000D01*
X35530000Y-65769999D01*
X35320000Y-65769999D01*
X35320000Y-64420000D01*
G37*
G36*
X35320000Y-66510000D02*
G01*
X35530000Y-66510000D01*
X35530000Y-66910000D01*
X35320000Y-66910000D01*
X35320000Y-66510000D01*
G37*
G36*
X35510000Y-52450000D02*
G01*
X35720000Y-52450000D01*
X35720000Y-53990000D01*
X35510000Y-53990000D01*
X35510000Y-52450000D01*
G37*
G36*
X35510000Y-57770000D02*
G01*
X35720000Y-57770000D01*
X35720000Y-58169999D01*
X35510000Y-58169999D01*
X35510000Y-57770000D01*
G37*
G36*
X35510000Y-59100000D02*
G01*
X35720000Y-59100000D01*
X35720000Y-65580000D01*
X35510000Y-65580000D01*
X35510000Y-59100000D01*
G37*
G36*
X35510000Y-66319999D02*
G01*
X35720000Y-66319999D01*
X35720000Y-66720000D01*
X35510000Y-66720000D01*
X35510000Y-66319999D01*
G37*
G36*
X35700000Y-52830000D02*
G01*
X35910000Y-52830000D01*
X35910000Y-54180000D01*
X35700000Y-54180000D01*
X35700000Y-52830000D01*
G37*
G36*
X35700000Y-57770000D02*
G01*
X35910000Y-57770000D01*
X35910000Y-58360000D01*
X35700000Y-58360000D01*
X35700000Y-57770000D01*
G37*
G36*
X35700000Y-59290000D02*
G01*
X35910000Y-59290000D01*
X35910000Y-65390000D01*
X35700000Y-65390000D01*
X35700000Y-59290000D01*
G37*
G36*
X35700000Y-66129999D02*
G01*
X35910000Y-66129999D01*
X35910000Y-66720000D01*
X35700000Y-66720000D01*
X35700000Y-66129999D01*
G37*
G36*
X35890000Y-26990000D02*
G01*
X36099999Y-26990000D01*
X36099999Y-51520000D01*
X35890000Y-51520000D01*
X35890000Y-26990000D01*
G37*
G36*
X35890000Y-53020000D02*
G01*
X36099999Y-53020000D01*
X36099999Y-54370000D01*
X35890000Y-54370000D01*
X35890000Y-53020000D01*
G37*
G36*
X35890000Y-57960000D02*
G01*
X36099999Y-57960000D01*
X36099999Y-58550000D01*
X35890000Y-58550000D01*
X35890000Y-57960000D01*
G37*
G36*
X35890000Y-59670000D02*
G01*
X36099999Y-59670000D01*
X36099999Y-65009999D01*
X35890000Y-65009999D01*
X35890000Y-59670000D01*
G37*
G36*
X35890000Y-65940000D02*
G01*
X36099999Y-65940000D01*
X36099999Y-66530000D01*
X35890000Y-66530000D01*
X35890000Y-65940000D01*
G37*
G36*
X36080000Y-26990000D02*
G01*
X36290000Y-26990000D01*
X36290000Y-52279999D01*
X36080000Y-52279999D01*
X36080000Y-26990000D01*
G37*
G36*
X36080000Y-53400000D02*
G01*
X36290000Y-53400000D01*
X36290000Y-54559999D01*
X36080000Y-54559999D01*
X36080000Y-53400000D01*
G37*
G36*
X36080000Y-58150000D02*
G01*
X36290000Y-58150000D01*
X36290000Y-58930000D01*
X36080000Y-58930000D01*
X36080000Y-58150000D01*
G37*
G36*
X36080000Y-59860000D02*
G01*
X36290000Y-59860000D01*
X36290000Y-64819999D01*
X36080000Y-64819999D01*
X36080000Y-59860000D01*
G37*
G36*
X36080000Y-65750000D02*
G01*
X36290000Y-65750000D01*
X36290000Y-66340000D01*
X36080000Y-66340000D01*
X36080000Y-65750000D01*
G37*
G36*
X36269999Y-51310000D02*
G01*
X36480000Y-51310000D01*
X36480000Y-52470000D01*
X36269999Y-52470000D01*
X36269999Y-51310000D01*
G37*
G36*
X36269999Y-53590000D02*
G01*
X36480000Y-53590000D01*
X36480000Y-54559999D01*
X36269999Y-54559999D01*
X36269999Y-53590000D01*
G37*
G36*
X36269999Y-58340000D02*
G01*
X36480000Y-58340000D01*
X36480000Y-59120000D01*
X36269999Y-59120000D01*
X36269999Y-58340000D01*
G37*
G36*
X36269999Y-60240000D02*
G01*
X36480000Y-60240000D01*
X36480000Y-64440000D01*
X36269999Y-64440000D01*
X36269999Y-60240000D01*
G37*
G36*
X36269999Y-65560000D02*
G01*
X36480000Y-65560000D01*
X36480000Y-66150000D01*
X36269999Y-66150000D01*
X36269999Y-65560000D01*
G37*
G36*
X36459999Y-58910000D02*
G01*
X36670000Y-58910000D01*
X36670000Y-59309999D01*
X36459999Y-59309999D01*
X36459999Y-58910000D01*
G37*
G36*
X36459999Y-60810000D02*
G01*
X36670000Y-60810000D01*
X36670000Y-63870000D01*
X36459999Y-63870000D01*
X36459999Y-60810000D01*
G37*
G36*
X36459999Y-65370000D02*
G01*
X36670000Y-65370000D01*
X36670000Y-65769999D01*
X36459999Y-65769999D01*
X36459999Y-65370000D01*
G37*
G36*
X36650000Y-59100000D02*
G01*
X36860000Y-59100000D01*
X36860000Y-59690000D01*
X36650000Y-59690000D01*
X36650000Y-59100000D01*
G37*
G36*
X36650000Y-61570000D02*
G01*
X36860000Y-61570000D01*
X36860000Y-63300000D01*
X36650000Y-63300000D01*
X36650000Y-61570000D01*
G37*
G36*
X36650000Y-64990000D02*
G01*
X36860000Y-64990000D01*
X36860000Y-65580000D01*
X36650000Y-65580000D01*
X36650000Y-64990000D01*
G37*
G36*
X36840000Y-59480000D02*
G01*
X37050000Y-59480000D01*
X37050000Y-60070000D01*
X36840000Y-60070000D01*
X36840000Y-59480000D01*
G37*
G36*
X36840000Y-64610000D02*
G01*
X37050000Y-64610000D01*
X37050000Y-65390000D01*
X36840000Y-65390000D01*
X36840000Y-64610000D01*
G37*
G36*
X37030000Y-59670000D02*
G01*
X37239999Y-59670000D01*
X37239999Y-60640000D01*
X37030000Y-60640000D01*
X37030000Y-59670000D01*
G37*
G36*
X37030000Y-64230000D02*
G01*
X37239999Y-64230000D01*
X37239999Y-65009999D01*
X37030000Y-65009999D01*
X37030000Y-64230000D01*
G37*
G36*
X37220000Y-60240000D02*
G01*
X37430000Y-60240000D01*
X37430000Y-61210000D01*
X37220000Y-61210000D01*
X37220000Y-60240000D01*
G37*
G36*
X37220000Y-63470000D02*
G01*
X37430000Y-63470000D01*
X37430000Y-64629999D01*
X37220000Y-64629999D01*
X37220000Y-63470000D01*
G37*
G36*
X37410000Y-60620000D02*
G01*
X37620000Y-60620000D01*
X37620000Y-64060000D01*
X37410000Y-64060000D01*
X37410000Y-60620000D01*
G37*
G36*
X37599999Y-61570000D02*
G01*
X37810000Y-61570000D01*
X37810000Y-63110000D01*
X37599999Y-63110000D01*
X37599999Y-61570000D01*
G37*
D10*
X43080000Y-62640000D02*
X44280000Y-62640000D01*
X43080000Y-67720000D02*
X44280000Y-67720000D01*
X77152381Y-72635283D02*
X77533334Y-72635283D01*
X77076191Y-72863855D02*
X77342858Y-72063855D01*
X77342858Y-72063855D02*
X77609524Y-72863855D01*
X77876191Y-72063855D02*
X77876191Y-72711474D01*
X77876191Y-72711474D02*
X77914286Y-72787664D01*
X77914286Y-72787664D02*
X77952381Y-72825760D01*
X77952381Y-72825760D02*
X78028572Y-72863855D01*
X78028572Y-72863855D02*
X78180953Y-72863855D01*
X78180953Y-72863855D02*
X78257143Y-72825760D01*
X78257143Y-72825760D02*
X78295238Y-72787664D01*
X78295238Y-72787664D02*
X78333334Y-72711474D01*
X78333334Y-72711474D02*
X78333334Y-72063855D01*
X78714286Y-72863855D02*
X78714286Y-72063855D01*
X78714286Y-72063855D02*
X78904762Y-72063855D01*
X78904762Y-72063855D02*
X79019048Y-72101950D01*
X79019048Y-72101950D02*
X79095238Y-72178140D01*
X79095238Y-72178140D02*
X79133333Y-72254331D01*
X79133333Y-72254331D02*
X79171429Y-72406712D01*
X79171429Y-72406712D02*
X79171429Y-72520998D01*
X79171429Y-72520998D02*
X79133333Y-72673379D01*
X79133333Y-72673379D02*
X79095238Y-72749569D01*
X79095238Y-72749569D02*
X79019048Y-72825760D01*
X79019048Y-72825760D02*
X78904762Y-72863855D01*
X78904762Y-72863855D02*
X78714286Y-72863855D01*
X79514286Y-72863855D02*
X79514286Y-72063855D01*
X80047619Y-72063855D02*
X80200000Y-72063855D01*
X80200000Y-72063855D02*
X80276190Y-72101950D01*
X80276190Y-72101950D02*
X80352381Y-72178140D01*
X80352381Y-72178140D02*
X80390476Y-72330521D01*
X80390476Y-72330521D02*
X80390476Y-72597188D01*
X80390476Y-72597188D02*
X80352381Y-72749569D01*
X80352381Y-72749569D02*
X80276190Y-72825760D01*
X80276190Y-72825760D02*
X80200000Y-72863855D01*
X80200000Y-72863855D02*
X80047619Y-72863855D01*
X80047619Y-72863855D02*
X79971428Y-72825760D01*
X79971428Y-72825760D02*
X79895238Y-72749569D01*
X79895238Y-72749569D02*
X79857142Y-72597188D01*
X79857142Y-72597188D02*
X79857142Y-72330521D01*
X79857142Y-72330521D02*
X79895238Y-72178140D01*
X79895238Y-72178140D02*
X79971428Y-72101950D01*
X79971428Y-72101950D02*
X80047619Y-72063855D01*
X81800000Y-72863855D02*
X81533333Y-72482902D01*
X81342857Y-72863855D02*
X81342857Y-72063855D01*
X81342857Y-72063855D02*
X81647619Y-72063855D01*
X81647619Y-72063855D02*
X81723809Y-72101950D01*
X81723809Y-72101950D02*
X81761904Y-72140045D01*
X81761904Y-72140045D02*
X81800000Y-72216236D01*
X81800000Y-72216236D02*
X81800000Y-72330521D01*
X81800000Y-72330521D02*
X81761904Y-72406712D01*
X81761904Y-72406712D02*
X81723809Y-72444807D01*
X81723809Y-72444807D02*
X81647619Y-72482902D01*
X81647619Y-72482902D02*
X81342857Y-72482902D01*
X82980952Y-73168617D02*
X82942857Y-73130521D01*
X82942857Y-73130521D02*
X82866666Y-73016236D01*
X82866666Y-73016236D02*
X82828571Y-72940045D01*
X82828571Y-72940045D02*
X82790476Y-72825760D01*
X82790476Y-72825760D02*
X82752381Y-72635283D01*
X82752381Y-72635283D02*
X82752381Y-72482902D01*
X82752381Y-72482902D02*
X82790476Y-72292426D01*
X82790476Y-72292426D02*
X82828571Y-72178140D01*
X82828571Y-72178140D02*
X82866666Y-72101950D01*
X82866666Y-72101950D02*
X82942857Y-71987664D01*
X82942857Y-71987664D02*
X82980952Y-71949569D01*
X83514285Y-72063855D02*
X83514285Y-72635283D01*
X83514285Y-72635283D02*
X83476190Y-72749569D01*
X83476190Y-72749569D02*
X83399999Y-72825760D01*
X83399999Y-72825760D02*
X83285714Y-72863855D01*
X83285714Y-72863855D02*
X83209523Y-72863855D01*
X83933333Y-72863855D02*
X84085714Y-72863855D01*
X84085714Y-72863855D02*
X84161904Y-72825760D01*
X84161904Y-72825760D02*
X84200000Y-72787664D01*
X84200000Y-72787664D02*
X84276190Y-72673379D01*
X84276190Y-72673379D02*
X84314285Y-72520998D01*
X84314285Y-72520998D02*
X84314285Y-72216236D01*
X84314285Y-72216236D02*
X84276190Y-72140045D01*
X84276190Y-72140045D02*
X84238095Y-72101950D01*
X84238095Y-72101950D02*
X84161904Y-72063855D01*
X84161904Y-72063855D02*
X84009523Y-72063855D01*
X84009523Y-72063855D02*
X83933333Y-72101950D01*
X83933333Y-72101950D02*
X83895238Y-72140045D01*
X83895238Y-72140045D02*
X83857142Y-72216236D01*
X83857142Y-72216236D02*
X83857142Y-72406712D01*
X83857142Y-72406712D02*
X83895238Y-72482902D01*
X83895238Y-72482902D02*
X83933333Y-72520998D01*
X83933333Y-72520998D02*
X84009523Y-72559093D01*
X84009523Y-72559093D02*
X84161904Y-72559093D01*
X84161904Y-72559093D02*
X84238095Y-72520998D01*
X84238095Y-72520998D02*
X84276190Y-72482902D01*
X84276190Y-72482902D02*
X84314285Y-72406712D01*
X84580952Y-73168617D02*
X84619047Y-73130521D01*
X84619047Y-73130521D02*
X84695238Y-73016236D01*
X84695238Y-73016236D02*
X84733333Y-72940045D01*
X84733333Y-72940045D02*
X84771428Y-72825760D01*
X84771428Y-72825760D02*
X84809524Y-72635283D01*
X84809524Y-72635283D02*
X84809524Y-72482902D01*
X84809524Y-72482902D02*
X84771428Y-72292426D01*
X84771428Y-72292426D02*
X84733333Y-72178140D01*
X84733333Y-72178140D02*
X84695238Y-72101950D01*
X84695238Y-72101950D02*
X84619047Y-71987664D01*
X84619047Y-71987664D02*
X84580952Y-71949569D01*
X78228571Y-66135283D02*
X78609524Y-66135283D01*
X78152381Y-66363855D02*
X78419048Y-65563855D01*
X78419048Y-65563855D02*
X78685714Y-66363855D01*
X78952381Y-65563855D02*
X78952381Y-66211474D01*
X78952381Y-66211474D02*
X78990476Y-66287664D01*
X78990476Y-66287664D02*
X79028571Y-66325760D01*
X79028571Y-66325760D02*
X79104762Y-66363855D01*
X79104762Y-66363855D02*
X79257143Y-66363855D01*
X79257143Y-66363855D02*
X79333333Y-66325760D01*
X79333333Y-66325760D02*
X79371428Y-66287664D01*
X79371428Y-66287664D02*
X79409524Y-66211474D01*
X79409524Y-66211474D02*
X79409524Y-65563855D01*
X79790476Y-66363855D02*
X79790476Y-65563855D01*
X79790476Y-65563855D02*
X79980952Y-65563855D01*
X79980952Y-65563855D02*
X80095238Y-65601950D01*
X80095238Y-65601950D02*
X80171428Y-65678140D01*
X80171428Y-65678140D02*
X80209523Y-65754331D01*
X80209523Y-65754331D02*
X80247619Y-65906712D01*
X80247619Y-65906712D02*
X80247619Y-66020998D01*
X80247619Y-66020998D02*
X80209523Y-66173379D01*
X80209523Y-66173379D02*
X80171428Y-66249569D01*
X80171428Y-66249569D02*
X80095238Y-66325760D01*
X80095238Y-66325760D02*
X79980952Y-66363855D01*
X79980952Y-66363855D02*
X79790476Y-66363855D01*
X80590476Y-66363855D02*
X80590476Y-65563855D01*
X81123809Y-65563855D02*
X81276190Y-65563855D01*
X81276190Y-65563855D02*
X81352380Y-65601950D01*
X81352380Y-65601950D02*
X81428571Y-65678140D01*
X81428571Y-65678140D02*
X81466666Y-65830521D01*
X81466666Y-65830521D02*
X81466666Y-66097188D01*
X81466666Y-66097188D02*
X81428571Y-66249569D01*
X81428571Y-66249569D02*
X81352380Y-66325760D01*
X81352380Y-66325760D02*
X81276190Y-66363855D01*
X81276190Y-66363855D02*
X81123809Y-66363855D01*
X81123809Y-66363855D02*
X81047618Y-66325760D01*
X81047618Y-66325760D02*
X80971428Y-66249569D01*
X80971428Y-66249569D02*
X80933332Y-66097188D01*
X80933332Y-66097188D02*
X80933332Y-65830521D01*
X80933332Y-65830521D02*
X80971428Y-65678140D01*
X80971428Y-65678140D02*
X81047618Y-65601950D01*
X81047618Y-65601950D02*
X81123809Y-65563855D01*
X82799999Y-66363855D02*
X82419047Y-66363855D01*
X82419047Y-66363855D02*
X82419047Y-65563855D01*
X83904761Y-66668617D02*
X83866666Y-66630521D01*
X83866666Y-66630521D02*
X83790475Y-66516236D01*
X83790475Y-66516236D02*
X83752380Y-66440045D01*
X83752380Y-66440045D02*
X83714285Y-66325760D01*
X83714285Y-66325760D02*
X83676190Y-66135283D01*
X83676190Y-66135283D02*
X83676190Y-65982902D01*
X83676190Y-65982902D02*
X83714285Y-65792426D01*
X83714285Y-65792426D02*
X83752380Y-65678140D01*
X83752380Y-65678140D02*
X83790475Y-65601950D01*
X83790475Y-65601950D02*
X83866666Y-65487664D01*
X83866666Y-65487664D02*
X83904761Y-65449569D01*
X84438094Y-65563855D02*
X84438094Y-66135283D01*
X84438094Y-66135283D02*
X84399999Y-66249569D01*
X84399999Y-66249569D02*
X84323808Y-66325760D01*
X84323808Y-66325760D02*
X84209523Y-66363855D01*
X84209523Y-66363855D02*
X84133332Y-66363855D01*
X84933332Y-65906712D02*
X84857142Y-65868617D01*
X84857142Y-65868617D02*
X84819047Y-65830521D01*
X84819047Y-65830521D02*
X84780951Y-65754331D01*
X84780951Y-65754331D02*
X84780951Y-65716236D01*
X84780951Y-65716236D02*
X84819047Y-65640045D01*
X84819047Y-65640045D02*
X84857142Y-65601950D01*
X84857142Y-65601950D02*
X84933332Y-65563855D01*
X84933332Y-65563855D02*
X85085713Y-65563855D01*
X85085713Y-65563855D02*
X85161904Y-65601950D01*
X85161904Y-65601950D02*
X85199999Y-65640045D01*
X85199999Y-65640045D02*
X85238094Y-65716236D01*
X85238094Y-65716236D02*
X85238094Y-65754331D01*
X85238094Y-65754331D02*
X85199999Y-65830521D01*
X85199999Y-65830521D02*
X85161904Y-65868617D01*
X85161904Y-65868617D02*
X85085713Y-65906712D01*
X85085713Y-65906712D02*
X84933332Y-65906712D01*
X84933332Y-65906712D02*
X84857142Y-65944807D01*
X84857142Y-65944807D02*
X84819047Y-65982902D01*
X84819047Y-65982902D02*
X84780951Y-66059093D01*
X84780951Y-66059093D02*
X84780951Y-66211474D01*
X84780951Y-66211474D02*
X84819047Y-66287664D01*
X84819047Y-66287664D02*
X84857142Y-66325760D01*
X84857142Y-66325760D02*
X84933332Y-66363855D01*
X84933332Y-66363855D02*
X85085713Y-66363855D01*
X85085713Y-66363855D02*
X85161904Y-66325760D01*
X85161904Y-66325760D02*
X85199999Y-66287664D01*
X85199999Y-66287664D02*
X85238094Y-66211474D01*
X85238094Y-66211474D02*
X85238094Y-66059093D01*
X85238094Y-66059093D02*
X85199999Y-65982902D01*
X85199999Y-65982902D02*
X85161904Y-65944807D01*
X85161904Y-65944807D02*
X85085713Y-65906712D01*
X85504761Y-66668617D02*
X85542856Y-66630521D01*
X85542856Y-66630521D02*
X85619047Y-66516236D01*
X85619047Y-66516236D02*
X85657142Y-66440045D01*
X85657142Y-66440045D02*
X85695237Y-66325760D01*
X85695237Y-66325760D02*
X85733333Y-66135283D01*
X85733333Y-66135283D02*
X85733333Y-65982902D01*
X85733333Y-65982902D02*
X85695237Y-65792426D01*
X85695237Y-65792426D02*
X85657142Y-65678140D01*
X85657142Y-65678140D02*
X85619047Y-65601950D01*
X85619047Y-65601950D02*
X85542856Y-65487664D01*
X85542856Y-65487664D02*
X85504761Y-65449569D01*
X79838095Y-52563855D02*
X80104762Y-53363855D01*
X80104762Y-53363855D02*
X80371428Y-52563855D01*
X80638095Y-53363855D02*
X80638095Y-52563855D01*
X81019047Y-53363855D02*
X81019047Y-52563855D01*
X81019047Y-52563855D02*
X81209523Y-52563855D01*
X81209523Y-52563855D02*
X81323809Y-52601950D01*
X81323809Y-52601950D02*
X81399999Y-52678140D01*
X81399999Y-52678140D02*
X81438094Y-52754331D01*
X81438094Y-52754331D02*
X81476190Y-52906712D01*
X81476190Y-52906712D02*
X81476190Y-53020998D01*
X81476190Y-53020998D02*
X81438094Y-53173379D01*
X81438094Y-53173379D02*
X81399999Y-53249569D01*
X81399999Y-53249569D02*
X81323809Y-53325760D01*
X81323809Y-53325760D02*
X81209523Y-53363855D01*
X81209523Y-53363855D02*
X81019047Y-53363855D01*
X81819047Y-52944807D02*
X82085713Y-52944807D01*
X82199999Y-53363855D02*
X81819047Y-53363855D01*
X81819047Y-53363855D02*
X81819047Y-52563855D01*
X81819047Y-52563855D02*
X82199999Y-52563855D01*
X82695238Y-52563855D02*
X82847619Y-52563855D01*
X82847619Y-52563855D02*
X82923809Y-52601950D01*
X82923809Y-52601950D02*
X83000000Y-52678140D01*
X83000000Y-52678140D02*
X83038095Y-52830521D01*
X83038095Y-52830521D02*
X83038095Y-53097188D01*
X83038095Y-53097188D02*
X83000000Y-53249569D01*
X83000000Y-53249569D02*
X82923809Y-53325760D01*
X82923809Y-53325760D02*
X82847619Y-53363855D01*
X82847619Y-53363855D02*
X82695238Y-53363855D01*
X82695238Y-53363855D02*
X82619047Y-53325760D01*
X82619047Y-53325760D02*
X82542857Y-53249569D01*
X82542857Y-53249569D02*
X82504761Y-53097188D01*
X82504761Y-53097188D02*
X82504761Y-52830521D01*
X82504761Y-52830521D02*
X82542857Y-52678140D01*
X82542857Y-52678140D02*
X82619047Y-52601950D01*
X82619047Y-52601950D02*
X82695238Y-52563855D01*
X84219047Y-53668617D02*
X84180952Y-53630521D01*
X84180952Y-53630521D02*
X84104761Y-53516236D01*
X84104761Y-53516236D02*
X84066666Y-53440045D01*
X84066666Y-53440045D02*
X84028571Y-53325760D01*
X84028571Y-53325760D02*
X83990476Y-53135283D01*
X83990476Y-53135283D02*
X83990476Y-52982902D01*
X83990476Y-52982902D02*
X84028571Y-52792426D01*
X84028571Y-52792426D02*
X84066666Y-52678140D01*
X84066666Y-52678140D02*
X84104761Y-52601950D01*
X84104761Y-52601950D02*
X84180952Y-52487664D01*
X84180952Y-52487664D02*
X84219047Y-52449569D01*
X84752380Y-52563855D02*
X84752380Y-53135283D01*
X84752380Y-53135283D02*
X84714285Y-53249569D01*
X84714285Y-53249569D02*
X84638094Y-53325760D01*
X84638094Y-53325760D02*
X84523809Y-53363855D01*
X84523809Y-53363855D02*
X84447618Y-53363855D01*
X85552380Y-53363855D02*
X85095237Y-53363855D01*
X85323809Y-53363855D02*
X85323809Y-52563855D01*
X85323809Y-52563855D02*
X85247618Y-52678140D01*
X85247618Y-52678140D02*
X85171428Y-52754331D01*
X85171428Y-52754331D02*
X85095237Y-52792426D01*
X85819047Y-53668617D02*
X85857142Y-53630521D01*
X85857142Y-53630521D02*
X85933333Y-53516236D01*
X85933333Y-53516236D02*
X85971428Y-53440045D01*
X85971428Y-53440045D02*
X86009523Y-53325760D01*
X86009523Y-53325760D02*
X86047619Y-53135283D01*
X86047619Y-53135283D02*
X86047619Y-52982902D01*
X86047619Y-52982902D02*
X86009523Y-52792426D01*
X86009523Y-52792426D02*
X85971428Y-52678140D01*
X85971428Y-52678140D02*
X85933333Y-52601950D01*
X85933333Y-52601950D02*
X85857142Y-52487664D01*
X85857142Y-52487664D02*
X85819047Y-52449569D01*
D11*
X44907618Y-62240390D02*
X44831428Y-62202295D01*
X44831428Y-62202295D02*
X44717142Y-62202295D01*
X44717142Y-62202295D02*
X44602856Y-62240390D01*
X44602856Y-62240390D02*
X44526666Y-62316580D01*
X44526666Y-62316580D02*
X44488571Y-62392771D01*
X44488571Y-62392771D02*
X44450475Y-62545152D01*
X44450475Y-62545152D02*
X44450475Y-62659438D01*
X44450475Y-62659438D02*
X44488571Y-62811819D01*
X44488571Y-62811819D02*
X44526666Y-62888009D01*
X44526666Y-62888009D02*
X44602856Y-62964200D01*
X44602856Y-62964200D02*
X44717142Y-63002295D01*
X44717142Y-63002295D02*
X44793333Y-63002295D01*
X44793333Y-63002295D02*
X44907618Y-62964200D01*
X44907618Y-62964200D02*
X44945714Y-62926104D01*
X44945714Y-62926104D02*
X44945714Y-62659438D01*
X44945714Y-62659438D02*
X44793333Y-62659438D01*
X45288571Y-63002295D02*
X45288571Y-62202295D01*
X45288571Y-62202295D02*
X45593333Y-62202295D01*
X45593333Y-62202295D02*
X45669523Y-62240390D01*
X45669523Y-62240390D02*
X45707618Y-62278485D01*
X45707618Y-62278485D02*
X45745714Y-62354676D01*
X45745714Y-62354676D02*
X45745714Y-62468961D01*
X45745714Y-62468961D02*
X45707618Y-62545152D01*
X45707618Y-62545152D02*
X45669523Y-62583247D01*
X45669523Y-62583247D02*
X45593333Y-62621342D01*
X45593333Y-62621342D02*
X45288571Y-62621342D01*
X46507618Y-63002295D02*
X46050475Y-63002295D01*
X46279047Y-63002295D02*
X46279047Y-62202295D01*
X46279047Y-62202295D02*
X46202856Y-62316580D01*
X46202856Y-62316580D02*
X46126666Y-62392771D01*
X46126666Y-62392771D02*
X46050475Y-62430866D01*
X46964761Y-62545152D02*
X46888571Y-62507057D01*
X46888571Y-62507057D02*
X46850476Y-62468961D01*
X46850476Y-62468961D02*
X46812380Y-62392771D01*
X46812380Y-62392771D02*
X46812380Y-62354676D01*
X46812380Y-62354676D02*
X46850476Y-62278485D01*
X46850476Y-62278485D02*
X46888571Y-62240390D01*
X46888571Y-62240390D02*
X46964761Y-62202295D01*
X46964761Y-62202295D02*
X47117142Y-62202295D01*
X47117142Y-62202295D02*
X47193333Y-62240390D01*
X47193333Y-62240390D02*
X47231428Y-62278485D01*
X47231428Y-62278485D02*
X47269523Y-62354676D01*
X47269523Y-62354676D02*
X47269523Y-62392771D01*
X47269523Y-62392771D02*
X47231428Y-62468961D01*
X47231428Y-62468961D02*
X47193333Y-62507057D01*
X47193333Y-62507057D02*
X47117142Y-62545152D01*
X47117142Y-62545152D02*
X46964761Y-62545152D01*
X46964761Y-62545152D02*
X46888571Y-62583247D01*
X46888571Y-62583247D02*
X46850476Y-62621342D01*
X46850476Y-62621342D02*
X46812380Y-62697533D01*
X46812380Y-62697533D02*
X46812380Y-62849914D01*
X46812380Y-62849914D02*
X46850476Y-62926104D01*
X46850476Y-62926104D02*
X46888571Y-62964200D01*
X46888571Y-62964200D02*
X46964761Y-63002295D01*
X46964761Y-63002295D02*
X47117142Y-63002295D01*
X47117142Y-63002295D02*
X47193333Y-62964200D01*
X47193333Y-62964200D02*
X47231428Y-62926104D01*
X47231428Y-62926104D02*
X47269523Y-62849914D01*
X47269523Y-62849914D02*
X47269523Y-62697533D01*
X47269523Y-62697533D02*
X47231428Y-62621342D01*
X47231428Y-62621342D02*
X47193333Y-62583247D01*
X47193333Y-62583247D02*
X47117142Y-62545152D01*
X44907618Y-67320390D02*
X44831428Y-67282295D01*
X44831428Y-67282295D02*
X44717142Y-67282295D01*
X44717142Y-67282295D02*
X44602856Y-67320390D01*
X44602856Y-67320390D02*
X44526666Y-67396580D01*
X44526666Y-67396580D02*
X44488571Y-67472771D01*
X44488571Y-67472771D02*
X44450475Y-67625152D01*
X44450475Y-67625152D02*
X44450475Y-67739438D01*
X44450475Y-67739438D02*
X44488571Y-67891819D01*
X44488571Y-67891819D02*
X44526666Y-67968009D01*
X44526666Y-67968009D02*
X44602856Y-68044200D01*
X44602856Y-68044200D02*
X44717142Y-68082295D01*
X44717142Y-68082295D02*
X44793333Y-68082295D01*
X44793333Y-68082295D02*
X44907618Y-68044200D01*
X44907618Y-68044200D02*
X44945714Y-68006104D01*
X44945714Y-68006104D02*
X44945714Y-67739438D01*
X44945714Y-67739438D02*
X44793333Y-67739438D01*
X45288571Y-68082295D02*
X45288571Y-67282295D01*
X45288571Y-67282295D02*
X45593333Y-67282295D01*
X45593333Y-67282295D02*
X45669523Y-67320390D01*
X45669523Y-67320390D02*
X45707618Y-67358485D01*
X45707618Y-67358485D02*
X45745714Y-67434676D01*
X45745714Y-67434676D02*
X45745714Y-67548961D01*
X45745714Y-67548961D02*
X45707618Y-67625152D01*
X45707618Y-67625152D02*
X45669523Y-67663247D01*
X45669523Y-67663247D02*
X45593333Y-67701342D01*
X45593333Y-67701342D02*
X45288571Y-67701342D01*
X46507618Y-68082295D02*
X46050475Y-68082295D01*
X46279047Y-68082295D02*
X46279047Y-67282295D01*
X46279047Y-67282295D02*
X46202856Y-67396580D01*
X46202856Y-67396580D02*
X46126666Y-67472771D01*
X46126666Y-67472771D02*
X46050475Y-67510866D01*
X46774285Y-67282295D02*
X47307619Y-67282295D01*
X47307619Y-67282295D02*
X46964761Y-68082295D01*
X22362295Y-77799999D02*
X21981342Y-78066666D01*
X22362295Y-78257142D02*
X21562295Y-78257142D01*
X21562295Y-78257142D02*
X21562295Y-77952380D01*
X21562295Y-77952380D02*
X21600390Y-77876190D01*
X21600390Y-77876190D02*
X21638485Y-77838095D01*
X21638485Y-77838095D02*
X21714676Y-77799999D01*
X21714676Y-77799999D02*
X21828961Y-77799999D01*
X21828961Y-77799999D02*
X21905152Y-77838095D01*
X21905152Y-77838095D02*
X21943247Y-77876190D01*
X21943247Y-77876190D02*
X21981342Y-77952380D01*
X21981342Y-77952380D02*
X21981342Y-78257142D01*
X22286104Y-76999999D02*
X22324200Y-77038095D01*
X22324200Y-77038095D02*
X22362295Y-77152380D01*
X22362295Y-77152380D02*
X22362295Y-77228571D01*
X22362295Y-77228571D02*
X22324200Y-77342857D01*
X22324200Y-77342857D02*
X22248009Y-77419047D01*
X22248009Y-77419047D02*
X22171819Y-77457142D01*
X22171819Y-77457142D02*
X22019438Y-77495238D01*
X22019438Y-77495238D02*
X21905152Y-77495238D01*
X21905152Y-77495238D02*
X21752771Y-77457142D01*
X21752771Y-77457142D02*
X21676580Y-77419047D01*
X21676580Y-77419047D02*
X21600390Y-77342857D01*
X21600390Y-77342857D02*
X21562295Y-77228571D01*
X21562295Y-77228571D02*
X21562295Y-77152380D01*
X21562295Y-77152380D02*
X21600390Y-77038095D01*
X21600390Y-77038095D02*
X21638485Y-76999999D01*
X22133723Y-76695238D02*
X22133723Y-76314285D01*
X22362295Y-76771428D02*
X21562295Y-76504761D01*
X21562295Y-76504761D02*
X22362295Y-76238095D01*
X22438485Y-76161905D02*
X22438485Y-75552381D01*
X22286104Y-74904761D02*
X22324200Y-74942857D01*
X22324200Y-74942857D02*
X22362295Y-75057142D01*
X22362295Y-75057142D02*
X22362295Y-75133333D01*
X22362295Y-75133333D02*
X22324200Y-75247619D01*
X22324200Y-75247619D02*
X22248009Y-75323809D01*
X22248009Y-75323809D02*
X22171819Y-75361904D01*
X22171819Y-75361904D02*
X22019438Y-75400000D01*
X22019438Y-75400000D02*
X21905152Y-75400000D01*
X21905152Y-75400000D02*
X21752771Y-75361904D01*
X21752771Y-75361904D02*
X21676580Y-75323809D01*
X21676580Y-75323809D02*
X21600390Y-75247619D01*
X21600390Y-75247619D02*
X21562295Y-75133333D01*
X21562295Y-75133333D02*
X21562295Y-75057142D01*
X21562295Y-75057142D02*
X21600390Y-74942857D01*
X21600390Y-74942857D02*
X21638485Y-74904761D01*
X24902295Y-77780951D02*
X24521342Y-78047618D01*
X24902295Y-78238094D02*
X24102295Y-78238094D01*
X24102295Y-78238094D02*
X24102295Y-77933332D01*
X24102295Y-77933332D02*
X24140390Y-77857142D01*
X24140390Y-77857142D02*
X24178485Y-77819047D01*
X24178485Y-77819047D02*
X24254676Y-77780951D01*
X24254676Y-77780951D02*
X24368961Y-77780951D01*
X24368961Y-77780951D02*
X24445152Y-77819047D01*
X24445152Y-77819047D02*
X24483247Y-77857142D01*
X24483247Y-77857142D02*
X24521342Y-77933332D01*
X24521342Y-77933332D02*
X24521342Y-78238094D01*
X24826104Y-76980951D02*
X24864200Y-77019047D01*
X24864200Y-77019047D02*
X24902295Y-77133332D01*
X24902295Y-77133332D02*
X24902295Y-77209523D01*
X24902295Y-77209523D02*
X24864200Y-77323809D01*
X24864200Y-77323809D02*
X24788009Y-77399999D01*
X24788009Y-77399999D02*
X24711819Y-77438094D01*
X24711819Y-77438094D02*
X24559438Y-77476190D01*
X24559438Y-77476190D02*
X24445152Y-77476190D01*
X24445152Y-77476190D02*
X24292771Y-77438094D01*
X24292771Y-77438094D02*
X24216580Y-77399999D01*
X24216580Y-77399999D02*
X24140390Y-77323809D01*
X24140390Y-77323809D02*
X24102295Y-77209523D01*
X24102295Y-77209523D02*
X24102295Y-77133332D01*
X24102295Y-77133332D02*
X24140390Y-77019047D01*
X24140390Y-77019047D02*
X24178485Y-76980951D01*
X24673723Y-76676190D02*
X24673723Y-76295237D01*
X24902295Y-76752380D02*
X24102295Y-76485713D01*
X24102295Y-76485713D02*
X24902295Y-76219047D01*
X24978485Y-76142857D02*
X24978485Y-75533333D01*
X24864200Y-75380952D02*
X24902295Y-75266666D01*
X24902295Y-75266666D02*
X24902295Y-75076190D01*
X24902295Y-75076190D02*
X24864200Y-74999999D01*
X24864200Y-74999999D02*
X24826104Y-74961904D01*
X24826104Y-74961904D02*
X24749914Y-74923809D01*
X24749914Y-74923809D02*
X24673723Y-74923809D01*
X24673723Y-74923809D02*
X24597533Y-74961904D01*
X24597533Y-74961904D02*
X24559438Y-74999999D01*
X24559438Y-74999999D02*
X24521342Y-75076190D01*
X24521342Y-75076190D02*
X24483247Y-75228571D01*
X24483247Y-75228571D02*
X24445152Y-75304761D01*
X24445152Y-75304761D02*
X24407057Y-75342856D01*
X24407057Y-75342856D02*
X24330866Y-75380952D01*
X24330866Y-75380952D02*
X24254676Y-75380952D01*
X24254676Y-75380952D02*
X24178485Y-75342856D01*
X24178485Y-75342856D02*
X24140390Y-75304761D01*
X24140390Y-75304761D02*
X24102295Y-75228571D01*
X24102295Y-75228571D02*
X24102295Y-75038094D01*
X24102295Y-75038094D02*
X24140390Y-74923809D01*
X27442295Y-77723808D02*
X27442295Y-78104760D01*
X27442295Y-78104760D02*
X26642295Y-78104760D01*
X27442295Y-77457141D02*
X26642295Y-77457141D01*
X27442295Y-77076189D02*
X26642295Y-77076189D01*
X26642295Y-77076189D02*
X27442295Y-76619046D01*
X27442295Y-76619046D02*
X26642295Y-76619046D01*
X27442295Y-76238094D02*
X26642295Y-76238094D01*
X27023247Y-76238094D02*
X27023247Y-75780951D01*
X27442295Y-75780951D02*
X26642295Y-75780951D01*
X27213723Y-75438095D02*
X27213723Y-75057142D01*
X27442295Y-75514285D02*
X26642295Y-75247618D01*
X26642295Y-75247618D02*
X27442295Y-74980952D01*
X29220390Y-77209523D02*
X29182295Y-77285713D01*
X29182295Y-77285713D02*
X29182295Y-77399999D01*
X29182295Y-77399999D02*
X29220390Y-77514285D01*
X29220390Y-77514285D02*
X29296580Y-77590475D01*
X29296580Y-77590475D02*
X29372771Y-77628570D01*
X29372771Y-77628570D02*
X29525152Y-77666666D01*
X29525152Y-77666666D02*
X29639438Y-77666666D01*
X29639438Y-77666666D02*
X29791819Y-77628570D01*
X29791819Y-77628570D02*
X29868009Y-77590475D01*
X29868009Y-77590475D02*
X29944200Y-77514285D01*
X29944200Y-77514285D02*
X29982295Y-77399999D01*
X29982295Y-77399999D02*
X29982295Y-77323808D01*
X29982295Y-77323808D02*
X29944200Y-77209523D01*
X29944200Y-77209523D02*
X29906104Y-77171427D01*
X29906104Y-77171427D02*
X29639438Y-77171427D01*
X29639438Y-77171427D02*
X29639438Y-77323808D01*
X29982295Y-76828570D02*
X29182295Y-76828570D01*
X29182295Y-76828570D02*
X29982295Y-76371427D01*
X29982295Y-76371427D02*
X29182295Y-76371427D01*
X29982295Y-75990475D02*
X29182295Y-75990475D01*
X29182295Y-75990475D02*
X29182295Y-75799999D01*
X29182295Y-75799999D02*
X29220390Y-75685713D01*
X29220390Y-75685713D02*
X29296580Y-75609523D01*
X29296580Y-75609523D02*
X29372771Y-75571428D01*
X29372771Y-75571428D02*
X29525152Y-75533332D01*
X29525152Y-75533332D02*
X29639438Y-75533332D01*
X29639438Y-75533332D02*
X29791819Y-75571428D01*
X29791819Y-75571428D02*
X29868009Y-75609523D01*
X29868009Y-75609523D02*
X29944200Y-75685713D01*
X29944200Y-75685713D02*
X29982295Y-75799999D01*
X29982295Y-75799999D02*
X29982295Y-75990475D01*
X32522294Y-77990475D02*
X32522294Y-78371427D01*
X32522294Y-78371427D02*
X31722294Y-78371427D01*
X31722294Y-77571427D02*
X31722294Y-77419046D01*
X31722294Y-77419046D02*
X31760389Y-77342856D01*
X31760389Y-77342856D02*
X31836579Y-77266665D01*
X31836579Y-77266665D02*
X31988960Y-77228570D01*
X31988960Y-77228570D02*
X32255627Y-77228570D01*
X32255627Y-77228570D02*
X32408008Y-77266665D01*
X32408008Y-77266665D02*
X32484199Y-77342856D01*
X32484199Y-77342856D02*
X32522294Y-77419046D01*
X32522294Y-77419046D02*
X32522294Y-77571427D01*
X32522294Y-77571427D02*
X32484199Y-77647618D01*
X32484199Y-77647618D02*
X32408008Y-77723808D01*
X32408008Y-77723808D02*
X32255627Y-77761904D01*
X32255627Y-77761904D02*
X31988960Y-77761904D01*
X31988960Y-77761904D02*
X31836579Y-77723808D01*
X31836579Y-77723808D02*
X31760389Y-77647618D01*
X31760389Y-77647618D02*
X31722294Y-77571427D01*
X31722294Y-76885713D02*
X32369913Y-76885713D01*
X32369913Y-76885713D02*
X32446103Y-76847618D01*
X32446103Y-76847618D02*
X32484199Y-76809523D01*
X32484199Y-76809523D02*
X32522294Y-76733332D01*
X32522294Y-76733332D02*
X32522294Y-76580951D01*
X32522294Y-76580951D02*
X32484199Y-76504761D01*
X32484199Y-76504761D02*
X32446103Y-76466666D01*
X32446103Y-76466666D02*
X32369913Y-76428570D01*
X32369913Y-76428570D02*
X31722294Y-76428570D01*
X31722294Y-76161904D02*
X31722294Y-75704761D01*
X32522294Y-75933333D02*
X31722294Y-75933333D01*
X32217532Y-75438094D02*
X32217532Y-74828571D01*
X32522294Y-75133332D02*
X31912770Y-75133332D01*
X35062295Y-77990475D02*
X35062295Y-78371427D01*
X35062295Y-78371427D02*
X34262295Y-78371427D01*
X34262295Y-77571427D02*
X34262295Y-77419046D01*
X34262295Y-77419046D02*
X34300390Y-77342856D01*
X34300390Y-77342856D02*
X34376580Y-77266665D01*
X34376580Y-77266665D02*
X34528961Y-77228570D01*
X34528961Y-77228570D02*
X34795628Y-77228570D01*
X34795628Y-77228570D02*
X34948009Y-77266665D01*
X34948009Y-77266665D02*
X35024200Y-77342856D01*
X35024200Y-77342856D02*
X35062295Y-77419046D01*
X35062295Y-77419046D02*
X35062295Y-77571427D01*
X35062295Y-77571427D02*
X35024200Y-77647618D01*
X35024200Y-77647618D02*
X34948009Y-77723808D01*
X34948009Y-77723808D02*
X34795628Y-77761904D01*
X34795628Y-77761904D02*
X34528961Y-77761904D01*
X34528961Y-77761904D02*
X34376580Y-77723808D01*
X34376580Y-77723808D02*
X34300390Y-77647618D01*
X34300390Y-77647618D02*
X34262295Y-77571427D01*
X34262295Y-76885713D02*
X34909914Y-76885713D01*
X34909914Y-76885713D02*
X34986104Y-76847618D01*
X34986104Y-76847618D02*
X35024200Y-76809523D01*
X35024200Y-76809523D02*
X35062295Y-76733332D01*
X35062295Y-76733332D02*
X35062295Y-76580951D01*
X35062295Y-76580951D02*
X35024200Y-76504761D01*
X35024200Y-76504761D02*
X34986104Y-76466666D01*
X34986104Y-76466666D02*
X34909914Y-76428570D01*
X34909914Y-76428570D02*
X34262295Y-76428570D01*
X34262295Y-76161904D02*
X34262295Y-75704761D01*
X35062295Y-75933333D02*
X34262295Y-75933333D01*
X34757533Y-75438094D02*
X34757533Y-74828571D01*
X46324200Y-78180952D02*
X46362295Y-78066666D01*
X46362295Y-78066666D02*
X46362295Y-77876190D01*
X46362295Y-77876190D02*
X46324200Y-77799999D01*
X46324200Y-77799999D02*
X46286104Y-77761904D01*
X46286104Y-77761904D02*
X46209914Y-77723809D01*
X46209914Y-77723809D02*
X46133723Y-77723809D01*
X46133723Y-77723809D02*
X46057533Y-77761904D01*
X46057533Y-77761904D02*
X46019438Y-77799999D01*
X46019438Y-77799999D02*
X45981342Y-77876190D01*
X45981342Y-77876190D02*
X45943247Y-78028571D01*
X45943247Y-78028571D02*
X45905152Y-78104761D01*
X45905152Y-78104761D02*
X45867057Y-78142856D01*
X45867057Y-78142856D02*
X45790866Y-78180952D01*
X45790866Y-78180952D02*
X45714676Y-78180952D01*
X45714676Y-78180952D02*
X45638485Y-78142856D01*
X45638485Y-78142856D02*
X45600390Y-78104761D01*
X45600390Y-78104761D02*
X45562295Y-78028571D01*
X45562295Y-78028571D02*
X45562295Y-77838094D01*
X45562295Y-77838094D02*
X45600390Y-77723809D01*
X45562295Y-77495237D02*
X45562295Y-77038094D01*
X46362295Y-77266666D02*
X45562295Y-77266666D01*
X46133723Y-76809523D02*
X46133723Y-76428570D01*
X46362295Y-76885713D02*
X45562295Y-76619046D01*
X45562295Y-76619046D02*
X46362295Y-76352380D01*
X46362295Y-75628570D02*
X45981342Y-75895237D01*
X46362295Y-76085713D02*
X45562295Y-76085713D01*
X45562295Y-76085713D02*
X45562295Y-75780951D01*
X45562295Y-75780951D02*
X45600390Y-75704761D01*
X45600390Y-75704761D02*
X45638485Y-75666666D01*
X45638485Y-75666666D02*
X45714676Y-75628570D01*
X45714676Y-75628570D02*
X45828961Y-75628570D01*
X45828961Y-75628570D02*
X45905152Y-75666666D01*
X45905152Y-75666666D02*
X45943247Y-75704761D01*
X45943247Y-75704761D02*
X45981342Y-75780951D01*
X45981342Y-75780951D02*
X45981342Y-76085713D01*
X45562295Y-75399999D02*
X45562295Y-74942856D01*
X46362295Y-75171428D02*
X45562295Y-75171428D01*
X48140390Y-77209523D02*
X48102295Y-77285713D01*
X48102295Y-77285713D02*
X48102295Y-77399999D01*
X48102295Y-77399999D02*
X48140390Y-77514285D01*
X48140390Y-77514285D02*
X48216580Y-77590475D01*
X48216580Y-77590475D02*
X48292771Y-77628570D01*
X48292771Y-77628570D02*
X48445152Y-77666666D01*
X48445152Y-77666666D02*
X48559438Y-77666666D01*
X48559438Y-77666666D02*
X48711819Y-77628570D01*
X48711819Y-77628570D02*
X48788009Y-77590475D01*
X48788009Y-77590475D02*
X48864200Y-77514285D01*
X48864200Y-77514285D02*
X48902295Y-77399999D01*
X48902295Y-77399999D02*
X48902295Y-77323808D01*
X48902295Y-77323808D02*
X48864200Y-77209523D01*
X48864200Y-77209523D02*
X48826104Y-77171427D01*
X48826104Y-77171427D02*
X48559438Y-77171427D01*
X48559438Y-77171427D02*
X48559438Y-77323808D01*
X48902295Y-76828570D02*
X48102295Y-76828570D01*
X48102295Y-76828570D02*
X48902295Y-76371427D01*
X48902295Y-76371427D02*
X48102295Y-76371427D01*
X48902295Y-75990475D02*
X48102295Y-75990475D01*
X48102295Y-75990475D02*
X48102295Y-75799999D01*
X48102295Y-75799999D02*
X48140390Y-75685713D01*
X48140390Y-75685713D02*
X48216580Y-75609523D01*
X48216580Y-75609523D02*
X48292771Y-75571428D01*
X48292771Y-75571428D02*
X48445152Y-75533332D01*
X48445152Y-75533332D02*
X48559438Y-75533332D01*
X48559438Y-75533332D02*
X48711819Y-75571428D01*
X48711819Y-75571428D02*
X48788009Y-75609523D01*
X48788009Y-75609523D02*
X48864200Y-75685713D01*
X48864200Y-75685713D02*
X48902295Y-75799999D01*
X48902295Y-75799999D02*
X48902295Y-75990475D01*
X66562295Y-77590476D02*
X66562295Y-77095238D01*
X66562295Y-77095238D02*
X66867057Y-77361904D01*
X66867057Y-77361904D02*
X66867057Y-77247619D01*
X66867057Y-77247619D02*
X66905152Y-77171428D01*
X66905152Y-77171428D02*
X66943247Y-77133333D01*
X66943247Y-77133333D02*
X67019438Y-77095238D01*
X67019438Y-77095238D02*
X67209914Y-77095238D01*
X67209914Y-77095238D02*
X67286104Y-77133333D01*
X67286104Y-77133333D02*
X67324200Y-77171428D01*
X67324200Y-77171428D02*
X67362295Y-77247619D01*
X67362295Y-77247619D02*
X67362295Y-77476190D01*
X67362295Y-77476190D02*
X67324200Y-77552381D01*
X67324200Y-77552381D02*
X67286104Y-77590476D01*
X66562295Y-76866666D02*
X67362295Y-76599999D01*
X67362295Y-76599999D02*
X66562295Y-76333333D01*
X66562295Y-76142857D02*
X66562295Y-75647619D01*
X66562295Y-75647619D02*
X66867057Y-75914285D01*
X66867057Y-75914285D02*
X66867057Y-75800000D01*
X66867057Y-75800000D02*
X66905152Y-75723809D01*
X66905152Y-75723809D02*
X66943247Y-75685714D01*
X66943247Y-75685714D02*
X67019438Y-75647619D01*
X67019438Y-75647619D02*
X67209914Y-75647619D01*
X67209914Y-75647619D02*
X67286104Y-75685714D01*
X67286104Y-75685714D02*
X67324200Y-75723809D01*
X67324200Y-75723809D02*
X67362295Y-75800000D01*
X67362295Y-75800000D02*
X67362295Y-76028571D01*
X67362295Y-76028571D02*
X67324200Y-76104762D01*
X67324200Y-76104762D02*
X67286104Y-76142857D01*
X69902295Y-77190475D02*
X69102295Y-77190475D01*
X69102295Y-77190475D02*
X69102295Y-76885713D01*
X69102295Y-76885713D02*
X69140390Y-76809523D01*
X69140390Y-76809523D02*
X69178485Y-76771428D01*
X69178485Y-76771428D02*
X69254676Y-76733332D01*
X69254676Y-76733332D02*
X69368961Y-76733332D01*
X69368961Y-76733332D02*
X69445152Y-76771428D01*
X69445152Y-76771428D02*
X69483247Y-76809523D01*
X69483247Y-76809523D02*
X69521342Y-76885713D01*
X69521342Y-76885713D02*
X69521342Y-77190475D01*
X69902295Y-75971428D02*
X69902295Y-76428571D01*
X69902295Y-76199999D02*
X69102295Y-76199999D01*
X69102295Y-76199999D02*
X69216580Y-76276190D01*
X69216580Y-76276190D02*
X69292771Y-76352380D01*
X69292771Y-76352380D02*
X69330866Y-76428571D01*
X72213723Y-78009523D02*
X72213723Y-77628570D01*
X72442295Y-78085713D02*
X71642295Y-77819046D01*
X71642295Y-77819046D02*
X72442295Y-77552380D01*
X71680390Y-76866666D02*
X71642295Y-76942856D01*
X71642295Y-76942856D02*
X71642295Y-77057142D01*
X71642295Y-77057142D02*
X71680390Y-77171428D01*
X71680390Y-77171428D02*
X71756580Y-77247618D01*
X71756580Y-77247618D02*
X71832771Y-77285713D01*
X71832771Y-77285713D02*
X71985152Y-77323809D01*
X71985152Y-77323809D02*
X72099438Y-77323809D01*
X72099438Y-77323809D02*
X72251819Y-77285713D01*
X72251819Y-77285713D02*
X72328009Y-77247618D01*
X72328009Y-77247618D02*
X72404200Y-77171428D01*
X72404200Y-77171428D02*
X72442295Y-77057142D01*
X72442295Y-77057142D02*
X72442295Y-76980951D01*
X72442295Y-76980951D02*
X72404200Y-76866666D01*
X72404200Y-76866666D02*
X72366104Y-76828570D01*
X72366104Y-76828570D02*
X72099438Y-76828570D01*
X72099438Y-76828570D02*
X72099438Y-76980951D01*
X72442295Y-76485713D02*
X71642295Y-76485713D01*
X71642295Y-76485713D02*
X72442295Y-76028570D01*
X72442295Y-76028570D02*
X71642295Y-76028570D01*
X72442295Y-75647618D02*
X71642295Y-75647618D01*
X71642295Y-75647618D02*
X71642295Y-75457142D01*
X71642295Y-75457142D02*
X71680390Y-75342856D01*
X71680390Y-75342856D02*
X71756580Y-75266666D01*
X71756580Y-75266666D02*
X71832771Y-75228571D01*
X71832771Y-75228571D02*
X71985152Y-75190475D01*
X71985152Y-75190475D02*
X72099438Y-75190475D01*
X72099438Y-75190475D02*
X72251819Y-75228571D01*
X72251819Y-75228571D02*
X72328009Y-75266666D01*
X72328009Y-75266666D02*
X72404200Y-75342856D01*
X72404200Y-75342856D02*
X72442295Y-75457142D01*
X72442295Y-75457142D02*
X72442295Y-75647618D01*
X76722295Y-77590476D02*
X76722295Y-77095238D01*
X76722295Y-77095238D02*
X77027057Y-77361904D01*
X77027057Y-77361904D02*
X77027057Y-77247619D01*
X77027057Y-77247619D02*
X77065152Y-77171428D01*
X77065152Y-77171428D02*
X77103247Y-77133333D01*
X77103247Y-77133333D02*
X77179438Y-77095238D01*
X77179438Y-77095238D02*
X77369914Y-77095238D01*
X77369914Y-77095238D02*
X77446104Y-77133333D01*
X77446104Y-77133333D02*
X77484200Y-77171428D01*
X77484200Y-77171428D02*
X77522295Y-77247619D01*
X77522295Y-77247619D02*
X77522295Y-77476190D01*
X77522295Y-77476190D02*
X77484200Y-77552381D01*
X77484200Y-77552381D02*
X77446104Y-77590476D01*
X76722295Y-76866666D02*
X77522295Y-76599999D01*
X77522295Y-76599999D02*
X76722295Y-76333333D01*
X76722295Y-76142857D02*
X76722295Y-75647619D01*
X76722295Y-75647619D02*
X77027057Y-75914285D01*
X77027057Y-75914285D02*
X77027057Y-75800000D01*
X77027057Y-75800000D02*
X77065152Y-75723809D01*
X77065152Y-75723809D02*
X77103247Y-75685714D01*
X77103247Y-75685714D02*
X77179438Y-75647619D01*
X77179438Y-75647619D02*
X77369914Y-75647619D01*
X77369914Y-75647619D02*
X77446104Y-75685714D01*
X77446104Y-75685714D02*
X77484200Y-75723809D01*
X77484200Y-75723809D02*
X77522295Y-75800000D01*
X77522295Y-75800000D02*
X77522295Y-76028571D01*
X77522295Y-76028571D02*
X77484200Y-76104762D01*
X77484200Y-76104762D02*
X77446104Y-76142857D01*
X80062295Y-77190475D02*
X79262295Y-77190475D01*
X79262295Y-77190475D02*
X79262295Y-76885713D01*
X79262295Y-76885713D02*
X79300390Y-76809523D01*
X79300390Y-76809523D02*
X79338485Y-76771428D01*
X79338485Y-76771428D02*
X79414676Y-76733332D01*
X79414676Y-76733332D02*
X79528961Y-76733332D01*
X79528961Y-76733332D02*
X79605152Y-76771428D01*
X79605152Y-76771428D02*
X79643247Y-76809523D01*
X79643247Y-76809523D02*
X79681342Y-76885713D01*
X79681342Y-76885713D02*
X79681342Y-77190475D01*
X79338485Y-76428571D02*
X79300390Y-76390475D01*
X79300390Y-76390475D02*
X79262295Y-76314285D01*
X79262295Y-76314285D02*
X79262295Y-76123809D01*
X79262295Y-76123809D02*
X79300390Y-76047618D01*
X79300390Y-76047618D02*
X79338485Y-76009523D01*
X79338485Y-76009523D02*
X79414676Y-75971428D01*
X79414676Y-75971428D02*
X79490866Y-75971428D01*
X79490866Y-75971428D02*
X79605152Y-76009523D01*
X79605152Y-76009523D02*
X80062295Y-76466666D01*
X80062295Y-76466666D02*
X80062295Y-75971428D01*
X82373723Y-78009523D02*
X82373723Y-77628570D01*
X82602295Y-78085713D02*
X81802295Y-77819046D01*
X81802295Y-77819046D02*
X82602295Y-77552380D01*
X81840390Y-76866666D02*
X81802295Y-76942856D01*
X81802295Y-76942856D02*
X81802295Y-77057142D01*
X81802295Y-77057142D02*
X81840390Y-77171428D01*
X81840390Y-77171428D02*
X81916580Y-77247618D01*
X81916580Y-77247618D02*
X81992771Y-77285713D01*
X81992771Y-77285713D02*
X82145152Y-77323809D01*
X82145152Y-77323809D02*
X82259438Y-77323809D01*
X82259438Y-77323809D02*
X82411819Y-77285713D01*
X82411819Y-77285713D02*
X82488009Y-77247618D01*
X82488009Y-77247618D02*
X82564200Y-77171428D01*
X82564200Y-77171428D02*
X82602295Y-77057142D01*
X82602295Y-77057142D02*
X82602295Y-76980951D01*
X82602295Y-76980951D02*
X82564200Y-76866666D01*
X82564200Y-76866666D02*
X82526104Y-76828570D01*
X82526104Y-76828570D02*
X82259438Y-76828570D01*
X82259438Y-76828570D02*
X82259438Y-76980951D01*
X82602295Y-76485713D02*
X81802295Y-76485713D01*
X81802295Y-76485713D02*
X82602295Y-76028570D01*
X82602295Y-76028570D02*
X81802295Y-76028570D01*
X82602295Y-75647618D02*
X81802295Y-75647618D01*
X81802295Y-75647618D02*
X81802295Y-75457142D01*
X81802295Y-75457142D02*
X81840390Y-75342856D01*
X81840390Y-75342856D02*
X81916580Y-75266666D01*
X81916580Y-75266666D02*
X81992771Y-75228571D01*
X81992771Y-75228571D02*
X82145152Y-75190475D01*
X82145152Y-75190475D02*
X82259438Y-75190475D01*
X82259438Y-75190475D02*
X82411819Y-75228571D01*
X82411819Y-75228571D02*
X82488009Y-75266666D01*
X82488009Y-75266666D02*
X82564200Y-75342856D01*
X82564200Y-75342856D02*
X82602295Y-75457142D01*
X82602295Y-75457142D02*
X82602295Y-75647618D01*
X21328571Y-84822842D02*
X21285714Y-84865700D01*
X21285714Y-84865700D02*
X21157142Y-84908557D01*
X21157142Y-84908557D02*
X21071428Y-84908557D01*
X21071428Y-84908557D02*
X20942857Y-84865700D01*
X20942857Y-84865700D02*
X20857142Y-84779985D01*
X20857142Y-84779985D02*
X20814285Y-84694271D01*
X20814285Y-84694271D02*
X20771428Y-84522842D01*
X20771428Y-84522842D02*
X20771428Y-84394271D01*
X20771428Y-84394271D02*
X20814285Y-84222842D01*
X20814285Y-84222842D02*
X20857142Y-84137128D01*
X20857142Y-84137128D02*
X20942857Y-84051414D01*
X20942857Y-84051414D02*
X21071428Y-84008557D01*
X21071428Y-84008557D02*
X21157142Y-84008557D01*
X21157142Y-84008557D02*
X21285714Y-84051414D01*
X21285714Y-84051414D02*
X21328571Y-84094271D01*
X21714285Y-84908557D02*
X21714285Y-84008557D01*
X21714285Y-84437128D02*
X22228571Y-84437128D01*
X22228571Y-84908557D02*
X22228571Y-84008557D01*
X22614285Y-84651414D02*
X23042857Y-84651414D01*
X22528571Y-84908557D02*
X22828571Y-84008557D01*
X22828571Y-84008557D02*
X23128571Y-84908557D01*
X23300000Y-84008557D02*
X23600000Y-84908557D01*
X23600000Y-84908557D02*
X23900000Y-84008557D01*
X24200000Y-84437128D02*
X24500000Y-84437128D01*
X24628572Y-84908557D02*
X24200000Y-84908557D01*
X24200000Y-84908557D02*
X24200000Y-84008557D01*
X24200000Y-84008557D02*
X24628572Y-84008557D01*
X25657143Y-84651414D02*
X26085715Y-84651414D01*
X25571429Y-84908557D02*
X25871429Y-84008557D01*
X25871429Y-84008557D02*
X26171429Y-84908557D01*
X26471429Y-84008557D02*
X26471429Y-84737128D01*
X26471429Y-84737128D02*
X26514286Y-84822842D01*
X26514286Y-84822842D02*
X26557144Y-84865700D01*
X26557144Y-84865700D02*
X26642858Y-84908557D01*
X26642858Y-84908557D02*
X26814286Y-84908557D01*
X26814286Y-84908557D02*
X26900001Y-84865700D01*
X26900001Y-84865700D02*
X26942858Y-84822842D01*
X26942858Y-84822842D02*
X26985715Y-84737128D01*
X26985715Y-84737128D02*
X26985715Y-84008557D01*
X27414286Y-84908557D02*
X27414286Y-84008557D01*
X27414286Y-84008557D02*
X27628572Y-84008557D01*
X27628572Y-84008557D02*
X27757143Y-84051414D01*
X27757143Y-84051414D02*
X27842858Y-84137128D01*
X27842858Y-84137128D02*
X27885715Y-84222842D01*
X27885715Y-84222842D02*
X27928572Y-84394271D01*
X27928572Y-84394271D02*
X27928572Y-84522842D01*
X27928572Y-84522842D02*
X27885715Y-84694271D01*
X27885715Y-84694271D02*
X27842858Y-84779985D01*
X27842858Y-84779985D02*
X27757143Y-84865700D01*
X27757143Y-84865700D02*
X27628572Y-84908557D01*
X27628572Y-84908557D02*
X27414286Y-84908557D01*
X28314286Y-84908557D02*
X28314286Y-84008557D01*
X28914286Y-84008557D02*
X29085714Y-84008557D01*
X29085714Y-84008557D02*
X29171429Y-84051414D01*
X29171429Y-84051414D02*
X29257143Y-84137128D01*
X29257143Y-84137128D02*
X29300000Y-84308557D01*
X29300000Y-84308557D02*
X29300000Y-84608557D01*
X29300000Y-84608557D02*
X29257143Y-84779985D01*
X29257143Y-84779985D02*
X29171429Y-84865700D01*
X29171429Y-84865700D02*
X29085714Y-84908557D01*
X29085714Y-84908557D02*
X28914286Y-84908557D01*
X28914286Y-84908557D02*
X28828572Y-84865700D01*
X28828572Y-84865700D02*
X28742857Y-84779985D01*
X28742857Y-84779985D02*
X28700000Y-84608557D01*
X28700000Y-84608557D02*
X28700000Y-84308557D01*
X28700000Y-84308557D02*
X28742857Y-84137128D01*
X28742857Y-84137128D02*
X28828572Y-84051414D01*
X28828572Y-84051414D02*
X28914286Y-84008557D01*
X30328571Y-84651414D02*
X30757143Y-84651414D01*
X30242857Y-84908557D02*
X30542857Y-84008557D01*
X30542857Y-84008557D02*
X30842857Y-84908557D01*
X31785714Y-83965700D02*
X31014286Y-85122842D01*
X32385714Y-84437128D02*
X32514286Y-84479985D01*
X32514286Y-84479985D02*
X32557143Y-84522842D01*
X32557143Y-84522842D02*
X32600000Y-84608557D01*
X32600000Y-84608557D02*
X32600000Y-84737128D01*
X32600000Y-84737128D02*
X32557143Y-84822842D01*
X32557143Y-84822842D02*
X32514286Y-84865700D01*
X32514286Y-84865700D02*
X32428571Y-84908557D01*
X32428571Y-84908557D02*
X32085714Y-84908557D01*
X32085714Y-84908557D02*
X32085714Y-84008557D01*
X32085714Y-84008557D02*
X32385714Y-84008557D01*
X32385714Y-84008557D02*
X32471429Y-84051414D01*
X32471429Y-84051414D02*
X32514286Y-84094271D01*
X32514286Y-84094271D02*
X32557143Y-84179985D01*
X32557143Y-84179985D02*
X32557143Y-84265700D01*
X32557143Y-84265700D02*
X32514286Y-84351414D01*
X32514286Y-84351414D02*
X32471429Y-84394271D01*
X32471429Y-84394271D02*
X32385714Y-84437128D01*
X32385714Y-84437128D02*
X32085714Y-84437128D01*
X33928571Y-85251414D02*
X33885714Y-85208557D01*
X33885714Y-85208557D02*
X33800000Y-85079985D01*
X33800000Y-85079985D02*
X33757143Y-84994271D01*
X33757143Y-84994271D02*
X33714285Y-84865700D01*
X33714285Y-84865700D02*
X33671428Y-84651414D01*
X33671428Y-84651414D02*
X33671428Y-84479985D01*
X33671428Y-84479985D02*
X33714285Y-84265700D01*
X33714285Y-84265700D02*
X33757143Y-84137128D01*
X33757143Y-84137128D02*
X33800000Y-84051414D01*
X33800000Y-84051414D02*
X33885714Y-83922842D01*
X33885714Y-83922842D02*
X33928571Y-83879985D01*
X34528571Y-84008557D02*
X34528571Y-84651414D01*
X34528571Y-84651414D02*
X34485714Y-84779985D01*
X34485714Y-84779985D02*
X34400000Y-84865700D01*
X34400000Y-84865700D02*
X34271428Y-84908557D01*
X34271428Y-84908557D02*
X34185714Y-84908557D01*
X35342857Y-84308557D02*
X35342857Y-84908557D01*
X35128571Y-83965700D02*
X34914285Y-84608557D01*
X34914285Y-84608557D02*
X35471428Y-84608557D01*
X35728571Y-85251414D02*
X35771428Y-85208557D01*
X35771428Y-85208557D02*
X35857142Y-85079985D01*
X35857142Y-85079985D02*
X35900000Y-84994271D01*
X35900000Y-84994271D02*
X35942857Y-84865700D01*
X35942857Y-84865700D02*
X35985714Y-84651414D01*
X35985714Y-84651414D02*
X35985714Y-84479985D01*
X35985714Y-84479985D02*
X35942857Y-84265700D01*
X35942857Y-84265700D02*
X35900000Y-84137128D01*
X35900000Y-84137128D02*
X35857142Y-84051414D01*
X35857142Y-84051414D02*
X35771428Y-83922842D01*
X35771428Y-83922842D02*
X35728571Y-83879985D01*
X43807143Y-84865700D02*
X43935715Y-84908557D01*
X43935715Y-84908557D02*
X44150000Y-84908557D01*
X44150000Y-84908557D02*
X44235715Y-84865700D01*
X44235715Y-84865700D02*
X44278572Y-84822842D01*
X44278572Y-84822842D02*
X44321429Y-84737128D01*
X44321429Y-84737128D02*
X44321429Y-84651414D01*
X44321429Y-84651414D02*
X44278572Y-84565700D01*
X44278572Y-84565700D02*
X44235715Y-84522842D01*
X44235715Y-84522842D02*
X44150000Y-84479985D01*
X44150000Y-84479985D02*
X43978572Y-84437128D01*
X43978572Y-84437128D02*
X43892857Y-84394271D01*
X43892857Y-84394271D02*
X43850000Y-84351414D01*
X43850000Y-84351414D02*
X43807143Y-84265700D01*
X43807143Y-84265700D02*
X43807143Y-84179985D01*
X43807143Y-84179985D02*
X43850000Y-84094271D01*
X43850000Y-84094271D02*
X43892857Y-84051414D01*
X43892857Y-84051414D02*
X43978572Y-84008557D01*
X43978572Y-84008557D02*
X44192857Y-84008557D01*
X44192857Y-84008557D02*
X44321429Y-84051414D01*
X44578572Y-84008557D02*
X45092858Y-84008557D01*
X44835715Y-84908557D02*
X44835715Y-84008557D01*
X45350000Y-84651414D02*
X45778572Y-84651414D01*
X45264286Y-84908557D02*
X45564286Y-84008557D01*
X45564286Y-84008557D02*
X45864286Y-84908557D01*
X46678572Y-84908557D02*
X46378572Y-84479985D01*
X46164286Y-84908557D02*
X46164286Y-84008557D01*
X46164286Y-84008557D02*
X46507143Y-84008557D01*
X46507143Y-84008557D02*
X46592858Y-84051414D01*
X46592858Y-84051414D02*
X46635715Y-84094271D01*
X46635715Y-84094271D02*
X46678572Y-84179985D01*
X46678572Y-84179985D02*
X46678572Y-84308557D01*
X46678572Y-84308557D02*
X46635715Y-84394271D01*
X46635715Y-84394271D02*
X46592858Y-84437128D01*
X46592858Y-84437128D02*
X46507143Y-84479985D01*
X46507143Y-84479985D02*
X46164286Y-84479985D01*
X46935715Y-84008557D02*
X47450001Y-84008557D01*
X47192858Y-84908557D02*
X47192858Y-84008557D01*
X48692857Y-85251414D02*
X48650000Y-85208557D01*
X48650000Y-85208557D02*
X48564286Y-85079985D01*
X48564286Y-85079985D02*
X48521429Y-84994271D01*
X48521429Y-84994271D02*
X48478571Y-84865700D01*
X48478571Y-84865700D02*
X48435714Y-84651414D01*
X48435714Y-84651414D02*
X48435714Y-84479985D01*
X48435714Y-84479985D02*
X48478571Y-84265700D01*
X48478571Y-84265700D02*
X48521429Y-84137128D01*
X48521429Y-84137128D02*
X48564286Y-84051414D01*
X48564286Y-84051414D02*
X48650000Y-83922842D01*
X48650000Y-83922842D02*
X48692857Y-83879985D01*
X49292857Y-84008557D02*
X49292857Y-84651414D01*
X49292857Y-84651414D02*
X49250000Y-84779985D01*
X49250000Y-84779985D02*
X49164286Y-84865700D01*
X49164286Y-84865700D02*
X49035714Y-84908557D01*
X49035714Y-84908557D02*
X48950000Y-84908557D01*
X49635714Y-84008557D02*
X50235714Y-84008557D01*
X50235714Y-84008557D02*
X49850000Y-84908557D01*
X50492857Y-85251414D02*
X50535714Y-85208557D01*
X50535714Y-85208557D02*
X50621428Y-85079985D01*
X50621428Y-85079985D02*
X50664286Y-84994271D01*
X50664286Y-84994271D02*
X50707143Y-84865700D01*
X50707143Y-84865700D02*
X50750000Y-84651414D01*
X50750000Y-84651414D02*
X50750000Y-84479985D01*
X50750000Y-84479985D02*
X50707143Y-84265700D01*
X50707143Y-84265700D02*
X50664286Y-84137128D01*
X50664286Y-84137128D02*
X50621428Y-84051414D01*
X50621428Y-84051414D02*
X50535714Y-83922842D01*
X50535714Y-83922842D02*
X50492857Y-83879985D01*
X65514286Y-84908557D02*
X65514286Y-84008557D01*
X65514286Y-84008557D02*
X65857143Y-84008557D01*
X65857143Y-84008557D02*
X65942858Y-84051414D01*
X65942858Y-84051414D02*
X65985715Y-84094271D01*
X65985715Y-84094271D02*
X66028572Y-84179985D01*
X66028572Y-84179985D02*
X66028572Y-84308557D01*
X66028572Y-84308557D02*
X65985715Y-84394271D01*
X65985715Y-84394271D02*
X65942858Y-84437128D01*
X65942858Y-84437128D02*
X65857143Y-84479985D01*
X65857143Y-84479985D02*
X65514286Y-84479985D01*
X66585715Y-84008557D02*
X66757143Y-84008557D01*
X66757143Y-84008557D02*
X66842858Y-84051414D01*
X66842858Y-84051414D02*
X66928572Y-84137128D01*
X66928572Y-84137128D02*
X66971429Y-84308557D01*
X66971429Y-84308557D02*
X66971429Y-84608557D01*
X66971429Y-84608557D02*
X66928572Y-84779985D01*
X66928572Y-84779985D02*
X66842858Y-84865700D01*
X66842858Y-84865700D02*
X66757143Y-84908557D01*
X66757143Y-84908557D02*
X66585715Y-84908557D01*
X66585715Y-84908557D02*
X66500001Y-84865700D01*
X66500001Y-84865700D02*
X66414286Y-84779985D01*
X66414286Y-84779985D02*
X66371429Y-84608557D01*
X66371429Y-84608557D02*
X66371429Y-84308557D01*
X66371429Y-84308557D02*
X66414286Y-84137128D01*
X66414286Y-84137128D02*
X66500001Y-84051414D01*
X66500001Y-84051414D02*
X66585715Y-84008557D01*
X67228572Y-84008557D02*
X67742858Y-84008557D01*
X67485715Y-84908557D02*
X67485715Y-84008557D01*
X68728571Y-84908557D02*
X68728571Y-84008557D01*
X68728571Y-84008557D02*
X69071428Y-84008557D01*
X69071428Y-84008557D02*
X69157143Y-84051414D01*
X69157143Y-84051414D02*
X69200000Y-84094271D01*
X69200000Y-84094271D02*
X69242857Y-84179985D01*
X69242857Y-84179985D02*
X69242857Y-84308557D01*
X69242857Y-84308557D02*
X69200000Y-84394271D01*
X69200000Y-84394271D02*
X69157143Y-84437128D01*
X69157143Y-84437128D02*
X69071428Y-84479985D01*
X69071428Y-84479985D02*
X68728571Y-84479985D01*
X70100000Y-84908557D02*
X69585714Y-84908557D01*
X69842857Y-84908557D02*
X69842857Y-84008557D01*
X69842857Y-84008557D02*
X69757143Y-84137128D01*
X69757143Y-84137128D02*
X69671428Y-84222842D01*
X69671428Y-84222842D02*
X69585714Y-84265700D01*
X71428571Y-85251414D02*
X71385714Y-85208557D01*
X71385714Y-85208557D02*
X71300000Y-85079985D01*
X71300000Y-85079985D02*
X71257143Y-84994271D01*
X71257143Y-84994271D02*
X71214285Y-84865700D01*
X71214285Y-84865700D02*
X71171428Y-84651414D01*
X71171428Y-84651414D02*
X71171428Y-84479985D01*
X71171428Y-84479985D02*
X71214285Y-84265700D01*
X71214285Y-84265700D02*
X71257143Y-84137128D01*
X71257143Y-84137128D02*
X71300000Y-84051414D01*
X71300000Y-84051414D02*
X71385714Y-83922842D01*
X71385714Y-83922842D02*
X71428571Y-83879985D01*
X72028571Y-84008557D02*
X72028571Y-84651414D01*
X72028571Y-84651414D02*
X71985714Y-84779985D01*
X71985714Y-84779985D02*
X71900000Y-84865700D01*
X71900000Y-84865700D02*
X71771428Y-84908557D01*
X71771428Y-84908557D02*
X71685714Y-84908557D01*
X72885714Y-84008557D02*
X72457142Y-84008557D01*
X72457142Y-84008557D02*
X72414285Y-84437128D01*
X72414285Y-84437128D02*
X72457142Y-84394271D01*
X72457142Y-84394271D02*
X72542857Y-84351414D01*
X72542857Y-84351414D02*
X72757142Y-84351414D01*
X72757142Y-84351414D02*
X72842857Y-84394271D01*
X72842857Y-84394271D02*
X72885714Y-84437128D01*
X72885714Y-84437128D02*
X72928571Y-84522842D01*
X72928571Y-84522842D02*
X72928571Y-84737128D01*
X72928571Y-84737128D02*
X72885714Y-84822842D01*
X72885714Y-84822842D02*
X72842857Y-84865700D01*
X72842857Y-84865700D02*
X72757142Y-84908557D01*
X72757142Y-84908557D02*
X72542857Y-84908557D01*
X72542857Y-84908557D02*
X72457142Y-84865700D01*
X72457142Y-84865700D02*
X72414285Y-84822842D01*
X73228571Y-85251414D02*
X73271428Y-85208557D01*
X73271428Y-85208557D02*
X73357142Y-85079985D01*
X73357142Y-85079985D02*
X73400000Y-84994271D01*
X73400000Y-84994271D02*
X73442857Y-84865700D01*
X73442857Y-84865700D02*
X73485714Y-84651414D01*
X73485714Y-84651414D02*
X73485714Y-84479985D01*
X73485714Y-84479985D02*
X73442857Y-84265700D01*
X73442857Y-84265700D02*
X73400000Y-84137128D01*
X73400000Y-84137128D02*
X73357142Y-84051414D01*
X73357142Y-84051414D02*
X73271428Y-83922842D01*
X73271428Y-83922842D02*
X73228571Y-83879985D01*
X75714286Y-84908557D02*
X75714286Y-84008557D01*
X75714286Y-84008557D02*
X76057143Y-84008557D01*
X76057143Y-84008557D02*
X76142858Y-84051414D01*
X76142858Y-84051414D02*
X76185715Y-84094271D01*
X76185715Y-84094271D02*
X76228572Y-84179985D01*
X76228572Y-84179985D02*
X76228572Y-84308557D01*
X76228572Y-84308557D02*
X76185715Y-84394271D01*
X76185715Y-84394271D02*
X76142858Y-84437128D01*
X76142858Y-84437128D02*
X76057143Y-84479985D01*
X76057143Y-84479985D02*
X75714286Y-84479985D01*
X76785715Y-84008557D02*
X76957143Y-84008557D01*
X76957143Y-84008557D02*
X77042858Y-84051414D01*
X77042858Y-84051414D02*
X77128572Y-84137128D01*
X77128572Y-84137128D02*
X77171429Y-84308557D01*
X77171429Y-84308557D02*
X77171429Y-84608557D01*
X77171429Y-84608557D02*
X77128572Y-84779985D01*
X77128572Y-84779985D02*
X77042858Y-84865700D01*
X77042858Y-84865700D02*
X76957143Y-84908557D01*
X76957143Y-84908557D02*
X76785715Y-84908557D01*
X76785715Y-84908557D02*
X76700001Y-84865700D01*
X76700001Y-84865700D02*
X76614286Y-84779985D01*
X76614286Y-84779985D02*
X76571429Y-84608557D01*
X76571429Y-84608557D02*
X76571429Y-84308557D01*
X76571429Y-84308557D02*
X76614286Y-84137128D01*
X76614286Y-84137128D02*
X76700001Y-84051414D01*
X76700001Y-84051414D02*
X76785715Y-84008557D01*
X77428572Y-84008557D02*
X77942858Y-84008557D01*
X77685715Y-84908557D02*
X77685715Y-84008557D01*
X78928571Y-84908557D02*
X78928571Y-84008557D01*
X78928571Y-84008557D02*
X79271428Y-84008557D01*
X79271428Y-84008557D02*
X79357143Y-84051414D01*
X79357143Y-84051414D02*
X79400000Y-84094271D01*
X79400000Y-84094271D02*
X79442857Y-84179985D01*
X79442857Y-84179985D02*
X79442857Y-84308557D01*
X79442857Y-84308557D02*
X79400000Y-84394271D01*
X79400000Y-84394271D02*
X79357143Y-84437128D01*
X79357143Y-84437128D02*
X79271428Y-84479985D01*
X79271428Y-84479985D02*
X78928571Y-84479985D01*
X79785714Y-84094271D02*
X79828571Y-84051414D01*
X79828571Y-84051414D02*
X79914286Y-84008557D01*
X79914286Y-84008557D02*
X80128571Y-84008557D01*
X80128571Y-84008557D02*
X80214286Y-84051414D01*
X80214286Y-84051414D02*
X80257143Y-84094271D01*
X80257143Y-84094271D02*
X80300000Y-84179985D01*
X80300000Y-84179985D02*
X80300000Y-84265700D01*
X80300000Y-84265700D02*
X80257143Y-84394271D01*
X80257143Y-84394271D02*
X79742857Y-84908557D01*
X79742857Y-84908557D02*
X80300000Y-84908557D01*
X81628571Y-85251414D02*
X81585714Y-85208557D01*
X81585714Y-85208557D02*
X81500000Y-85079985D01*
X81500000Y-85079985D02*
X81457143Y-84994271D01*
X81457143Y-84994271D02*
X81414285Y-84865700D01*
X81414285Y-84865700D02*
X81371428Y-84651414D01*
X81371428Y-84651414D02*
X81371428Y-84479985D01*
X81371428Y-84479985D02*
X81414285Y-84265700D01*
X81414285Y-84265700D02*
X81457143Y-84137128D01*
X81457143Y-84137128D02*
X81500000Y-84051414D01*
X81500000Y-84051414D02*
X81585714Y-83922842D01*
X81585714Y-83922842D02*
X81628571Y-83879985D01*
X82228571Y-84008557D02*
X82228571Y-84651414D01*
X82228571Y-84651414D02*
X82185714Y-84779985D01*
X82185714Y-84779985D02*
X82100000Y-84865700D01*
X82100000Y-84865700D02*
X81971428Y-84908557D01*
X81971428Y-84908557D02*
X81885714Y-84908557D01*
X83042857Y-84008557D02*
X82871428Y-84008557D01*
X82871428Y-84008557D02*
X82785714Y-84051414D01*
X82785714Y-84051414D02*
X82742857Y-84094271D01*
X82742857Y-84094271D02*
X82657142Y-84222842D01*
X82657142Y-84222842D02*
X82614285Y-84394271D01*
X82614285Y-84394271D02*
X82614285Y-84737128D01*
X82614285Y-84737128D02*
X82657142Y-84822842D01*
X82657142Y-84822842D02*
X82699999Y-84865700D01*
X82699999Y-84865700D02*
X82785714Y-84908557D01*
X82785714Y-84908557D02*
X82957142Y-84908557D01*
X82957142Y-84908557D02*
X83042857Y-84865700D01*
X83042857Y-84865700D02*
X83085714Y-84822842D01*
X83085714Y-84822842D02*
X83128571Y-84737128D01*
X83128571Y-84737128D02*
X83128571Y-84522842D01*
X83128571Y-84522842D02*
X83085714Y-84437128D01*
X83085714Y-84437128D02*
X83042857Y-84394271D01*
X83042857Y-84394271D02*
X82957142Y-84351414D01*
X82957142Y-84351414D02*
X82785714Y-84351414D01*
X82785714Y-84351414D02*
X82699999Y-84394271D01*
X82699999Y-84394271D02*
X82657142Y-84437128D01*
X82657142Y-84437128D02*
X82614285Y-84522842D01*
X83428571Y-85251414D02*
X83471428Y-85208557D01*
X83471428Y-85208557D02*
X83557142Y-85079985D01*
X83557142Y-85079985D02*
X83600000Y-84994271D01*
X83600000Y-84994271D02*
X83642857Y-84865700D01*
X83642857Y-84865700D02*
X83685714Y-84651414D01*
X83685714Y-84651414D02*
X83685714Y-84479985D01*
X83685714Y-84479985D02*
X83642857Y-84265700D01*
X83642857Y-84265700D02*
X83600000Y-84137128D01*
X83600000Y-84137128D02*
X83557142Y-84051414D01*
X83557142Y-84051414D02*
X83471428Y-83922842D01*
X83471428Y-83922842D02*
X83428571Y-83879985D01*
D12*
X69666665Y-56456119D02*
X69333332Y-55979928D01*
X69095237Y-56456119D02*
X69095237Y-55456119D01*
X69095237Y-55456119D02*
X69476189Y-55456119D01*
X69476189Y-55456119D02*
X69571427Y-55503738D01*
X69571427Y-55503738D02*
X69619046Y-55551357D01*
X69619046Y-55551357D02*
X69666665Y-55646595D01*
X69666665Y-55646595D02*
X69666665Y-55789452D01*
X69666665Y-55789452D02*
X69619046Y-55884690D01*
X69619046Y-55884690D02*
X69571427Y-55932309D01*
X69571427Y-55932309D02*
X69476189Y-55979928D01*
X69476189Y-55979928D02*
X69095237Y-55979928D01*
X70476189Y-56408500D02*
X70380951Y-56456119D01*
X70380951Y-56456119D02*
X70190475Y-56456119D01*
X70190475Y-56456119D02*
X70095237Y-56408500D01*
X70095237Y-56408500D02*
X70047618Y-56313261D01*
X70047618Y-56313261D02*
X70047618Y-55932309D01*
X70047618Y-55932309D02*
X70095237Y-55837071D01*
X70095237Y-55837071D02*
X70190475Y-55789452D01*
X70190475Y-55789452D02*
X70380951Y-55789452D01*
X70380951Y-55789452D02*
X70476189Y-55837071D01*
X70476189Y-55837071D02*
X70523808Y-55932309D01*
X70523808Y-55932309D02*
X70523808Y-56027547D01*
X70523808Y-56027547D02*
X70047618Y-56122785D01*
X70809523Y-55789452D02*
X71190475Y-55789452D01*
X70952380Y-55456119D02*
X70952380Y-56313261D01*
X70952380Y-56313261D02*
X70999999Y-56408500D01*
X70999999Y-56408500D02*
X71095237Y-56456119D01*
X71095237Y-56456119D02*
X71190475Y-56456119D01*
X71523809Y-56456119D02*
X71523809Y-55789452D01*
X71523809Y-55979928D02*
X71571428Y-55884690D01*
X71571428Y-55884690D02*
X71619047Y-55837071D01*
X71619047Y-55837071D02*
X71714285Y-55789452D01*
X71714285Y-55789452D02*
X71809523Y-55789452D01*
X72285714Y-56456119D02*
X72190476Y-56408500D01*
X72190476Y-56408500D02*
X72142857Y-56360880D01*
X72142857Y-56360880D02*
X72095238Y-56265642D01*
X72095238Y-56265642D02*
X72095238Y-55979928D01*
X72095238Y-55979928D02*
X72142857Y-55884690D01*
X72142857Y-55884690D02*
X72190476Y-55837071D01*
X72190476Y-55837071D02*
X72285714Y-55789452D01*
X72285714Y-55789452D02*
X72428571Y-55789452D01*
X72428571Y-55789452D02*
X72523809Y-55837071D01*
X72523809Y-55837071D02*
X72571428Y-55884690D01*
X72571428Y-55884690D02*
X72619047Y-55979928D01*
X72619047Y-55979928D02*
X72619047Y-56265642D01*
X72619047Y-56265642D02*
X72571428Y-56360880D01*
X72571428Y-56360880D02*
X72523809Y-56408500D01*
X72523809Y-56408500D02*
X72428571Y-56456119D01*
X72428571Y-56456119D02*
X72285714Y-56456119D01*
X73000000Y-56408500D02*
X73142857Y-56456119D01*
X73142857Y-56456119D02*
X73380952Y-56456119D01*
X73380952Y-56456119D02*
X73476190Y-56408500D01*
X73476190Y-56408500D02*
X73523809Y-56360880D01*
X73523809Y-56360880D02*
X73571428Y-56265642D01*
X73571428Y-56265642D02*
X73571428Y-56170404D01*
X73571428Y-56170404D02*
X73523809Y-56075166D01*
X73523809Y-56075166D02*
X73476190Y-56027547D01*
X73476190Y-56027547D02*
X73380952Y-55979928D01*
X73380952Y-55979928D02*
X73190476Y-55932309D01*
X73190476Y-55932309D02*
X73095238Y-55884690D01*
X73095238Y-55884690D02*
X73047619Y-55837071D01*
X73047619Y-55837071D02*
X73000000Y-55741833D01*
X73000000Y-55741833D02*
X73000000Y-55646595D01*
X73000000Y-55646595D02*
X73047619Y-55551357D01*
X73047619Y-55551357D02*
X73095238Y-55503738D01*
X73095238Y-55503738D02*
X73190476Y-55456119D01*
X73190476Y-55456119D02*
X73428571Y-55456119D01*
X73428571Y-55456119D02*
X73571428Y-55503738D01*
X74571428Y-56360880D02*
X74523809Y-56408500D01*
X74523809Y-56408500D02*
X74380952Y-56456119D01*
X74380952Y-56456119D02*
X74285714Y-56456119D01*
X74285714Y-56456119D02*
X74142857Y-56408500D01*
X74142857Y-56408500D02*
X74047619Y-56313261D01*
X74047619Y-56313261D02*
X74000000Y-56218023D01*
X74000000Y-56218023D02*
X73952381Y-56027547D01*
X73952381Y-56027547D02*
X73952381Y-55884690D01*
X73952381Y-55884690D02*
X74000000Y-55694214D01*
X74000000Y-55694214D02*
X74047619Y-55598976D01*
X74047619Y-55598976D02*
X74142857Y-55503738D01*
X74142857Y-55503738D02*
X74285714Y-55456119D01*
X74285714Y-55456119D02*
X74380952Y-55456119D01*
X74380952Y-55456119D02*
X74523809Y-55503738D01*
X74523809Y-55503738D02*
X74571428Y-55551357D01*
X75761905Y-56456119D02*
X75761905Y-55456119D01*
X75761905Y-55456119D02*
X76142857Y-55456119D01*
X76142857Y-55456119D02*
X76238095Y-55503738D01*
X76238095Y-55503738D02*
X76285714Y-55551357D01*
X76285714Y-55551357D02*
X76333333Y-55646595D01*
X76333333Y-55646595D02*
X76333333Y-55789452D01*
X76333333Y-55789452D02*
X76285714Y-55884690D01*
X76285714Y-55884690D02*
X76238095Y-55932309D01*
X76238095Y-55932309D02*
X76142857Y-55979928D01*
X76142857Y-55979928D02*
X75761905Y-55979928D01*
X76904762Y-56456119D02*
X76809524Y-56408500D01*
X76809524Y-56408500D02*
X76761905Y-56360880D01*
X76761905Y-56360880D02*
X76714286Y-56265642D01*
X76714286Y-56265642D02*
X76714286Y-55979928D01*
X76714286Y-55979928D02*
X76761905Y-55884690D01*
X76761905Y-55884690D02*
X76809524Y-55837071D01*
X76809524Y-55837071D02*
X76904762Y-55789452D01*
X76904762Y-55789452D02*
X77047619Y-55789452D01*
X77047619Y-55789452D02*
X77142857Y-55837071D01*
X77142857Y-55837071D02*
X77190476Y-55884690D01*
X77190476Y-55884690D02*
X77238095Y-55979928D01*
X77238095Y-55979928D02*
X77238095Y-56265642D01*
X77238095Y-56265642D02*
X77190476Y-56360880D01*
X77190476Y-56360880D02*
X77142857Y-56408500D01*
X77142857Y-56408500D02*
X77047619Y-56456119D01*
X77047619Y-56456119D02*
X76904762Y-56456119D01*
X77666667Y-55789452D02*
X77666667Y-56456119D01*
X77666667Y-55884690D02*
X77714286Y-55837071D01*
X77714286Y-55837071D02*
X77809524Y-55789452D01*
X77809524Y-55789452D02*
X77952381Y-55789452D01*
X77952381Y-55789452D02*
X78047619Y-55837071D01*
X78047619Y-55837071D02*
X78095238Y-55932309D01*
X78095238Y-55932309D02*
X78095238Y-56456119D01*
X79000000Y-55789452D02*
X79000000Y-56598976D01*
X79000000Y-56598976D02*
X78952381Y-56694214D01*
X78952381Y-56694214D02*
X78904762Y-56741833D01*
X78904762Y-56741833D02*
X78809524Y-56789452D01*
X78809524Y-56789452D02*
X78666667Y-56789452D01*
X78666667Y-56789452D02*
X78571429Y-56741833D01*
X79000000Y-56408500D02*
X78904762Y-56456119D01*
X78904762Y-56456119D02*
X78714286Y-56456119D01*
X78714286Y-56456119D02*
X78619048Y-56408500D01*
X78619048Y-56408500D02*
X78571429Y-56360880D01*
X78571429Y-56360880D02*
X78523810Y-56265642D01*
X78523810Y-56265642D02*
X78523810Y-55979928D01*
X78523810Y-55979928D02*
X78571429Y-55884690D01*
X78571429Y-55884690D02*
X78619048Y-55837071D01*
X78619048Y-55837071D02*
X78714286Y-55789452D01*
X78714286Y-55789452D02*
X78904762Y-55789452D01*
X78904762Y-55789452D02*
X79000000Y-55837071D01*
X80142858Y-55789452D02*
X80380953Y-56456119D01*
X80380953Y-56456119D02*
X80619048Y-55789452D01*
X81523810Y-56456119D02*
X80952382Y-56456119D01*
X81238096Y-56456119D02*
X81238096Y-55456119D01*
X81238096Y-55456119D02*
X81142858Y-55598976D01*
X81142858Y-55598976D02*
X81047620Y-55694214D01*
X81047620Y-55694214D02*
X80952382Y-55741833D01*
X81952382Y-56360880D02*
X82000001Y-56408500D01*
X82000001Y-56408500D02*
X81952382Y-56456119D01*
X81952382Y-56456119D02*
X81904763Y-56408500D01*
X81904763Y-56408500D02*
X81952382Y-56360880D01*
X81952382Y-56360880D02*
X81952382Y-56456119D01*
X82619048Y-55456119D02*
X82714286Y-55456119D01*
X82714286Y-55456119D02*
X82809524Y-55503738D01*
X82809524Y-55503738D02*
X82857143Y-55551357D01*
X82857143Y-55551357D02*
X82904762Y-55646595D01*
X82904762Y-55646595D02*
X82952381Y-55837071D01*
X82952381Y-55837071D02*
X82952381Y-56075166D01*
X82952381Y-56075166D02*
X82904762Y-56265642D01*
X82904762Y-56265642D02*
X82857143Y-56360880D01*
X82857143Y-56360880D02*
X82809524Y-56408500D01*
X82809524Y-56408500D02*
X82714286Y-56456119D01*
X82714286Y-56456119D02*
X82619048Y-56456119D01*
X82619048Y-56456119D02*
X82523810Y-56408500D01*
X82523810Y-56408500D02*
X82476191Y-56360880D01*
X82476191Y-56360880D02*
X82428572Y-56265642D01*
X82428572Y-56265642D02*
X82380953Y-56075166D01*
X82380953Y-56075166D02*
X82380953Y-55837071D01*
X82380953Y-55837071D02*
X82428572Y-55646595D01*
X82428572Y-55646595D02*
X82476191Y-55551357D01*
X82476191Y-55551357D02*
X82523810Y-55503738D01*
X82523810Y-55503738D02*
X82619048Y-55456119D01*
D11*
X48333333Y-33859580D02*
X48285714Y-33907200D01*
X48285714Y-33907200D02*
X48142857Y-33954819D01*
X48142857Y-33954819D02*
X48047619Y-33954819D01*
X48047619Y-33954819D02*
X47904762Y-33907200D01*
X47904762Y-33907200D02*
X47809524Y-33811961D01*
X47809524Y-33811961D02*
X47761905Y-33716723D01*
X47761905Y-33716723D02*
X47714286Y-33526247D01*
X47714286Y-33526247D02*
X47714286Y-33383390D01*
X47714286Y-33383390D02*
X47761905Y-33192914D01*
X47761905Y-33192914D02*
X47809524Y-33097676D01*
X47809524Y-33097676D02*
X47904762Y-33002438D01*
X47904762Y-33002438D02*
X48047619Y-32954819D01*
X48047619Y-32954819D02*
X48142857Y-32954819D01*
X48142857Y-32954819D02*
X48285714Y-33002438D01*
X48285714Y-33002438D02*
X48333333Y-33050057D01*
X49190476Y-33288152D02*
X49190476Y-33954819D01*
X48952381Y-32907200D02*
X48714286Y-33621485D01*
X48714286Y-33621485D02*
X49333333Y-33621485D01*
X57083333Y-27609580D02*
X57035714Y-27657200D01*
X57035714Y-27657200D02*
X56892857Y-27704819D01*
X56892857Y-27704819D02*
X56797619Y-27704819D01*
X56797619Y-27704819D02*
X56654762Y-27657200D01*
X56654762Y-27657200D02*
X56559524Y-27561961D01*
X56559524Y-27561961D02*
X56511905Y-27466723D01*
X56511905Y-27466723D02*
X56464286Y-27276247D01*
X56464286Y-27276247D02*
X56464286Y-27133390D01*
X56464286Y-27133390D02*
X56511905Y-26942914D01*
X56511905Y-26942914D02*
X56559524Y-26847676D01*
X56559524Y-26847676D02*
X56654762Y-26752438D01*
X56654762Y-26752438D02*
X56797619Y-26704819D01*
X56797619Y-26704819D02*
X56892857Y-26704819D01*
X56892857Y-26704819D02*
X57035714Y-26752438D01*
X57035714Y-26752438D02*
X57083333Y-26800057D01*
X57464286Y-26800057D02*
X57511905Y-26752438D01*
X57511905Y-26752438D02*
X57607143Y-26704819D01*
X57607143Y-26704819D02*
X57845238Y-26704819D01*
X57845238Y-26704819D02*
X57940476Y-26752438D01*
X57940476Y-26752438D02*
X57988095Y-26800057D01*
X57988095Y-26800057D02*
X58035714Y-26895295D01*
X58035714Y-26895295D02*
X58035714Y-26990533D01*
X58035714Y-26990533D02*
X57988095Y-27133390D01*
X57988095Y-27133390D02*
X57416667Y-27704819D01*
X57416667Y-27704819D02*
X58035714Y-27704819D01*
X57103333Y-48084819D02*
X56770000Y-47608628D01*
X56531905Y-48084819D02*
X56531905Y-47084819D01*
X56531905Y-47084819D02*
X56912857Y-47084819D01*
X56912857Y-47084819D02*
X57008095Y-47132438D01*
X57008095Y-47132438D02*
X57055714Y-47180057D01*
X57055714Y-47180057D02*
X57103333Y-47275295D01*
X57103333Y-47275295D02*
X57103333Y-47418152D01*
X57103333Y-47418152D02*
X57055714Y-47513390D01*
X57055714Y-47513390D02*
X57008095Y-47561009D01*
X57008095Y-47561009D02*
X56912857Y-47608628D01*
X56912857Y-47608628D02*
X56531905Y-47608628D01*
X57960476Y-47084819D02*
X57770000Y-47084819D01*
X57770000Y-47084819D02*
X57674762Y-47132438D01*
X57674762Y-47132438D02*
X57627143Y-47180057D01*
X57627143Y-47180057D02*
X57531905Y-47322914D01*
X57531905Y-47322914D02*
X57484286Y-47513390D01*
X57484286Y-47513390D02*
X57484286Y-47894342D01*
X57484286Y-47894342D02*
X57531905Y-47989580D01*
X57531905Y-47989580D02*
X57579524Y-48037200D01*
X57579524Y-48037200D02*
X57674762Y-48084819D01*
X57674762Y-48084819D02*
X57865238Y-48084819D01*
X57865238Y-48084819D02*
X57960476Y-48037200D01*
X57960476Y-48037200D02*
X58008095Y-47989580D01*
X58008095Y-47989580D02*
X58055714Y-47894342D01*
X58055714Y-47894342D02*
X58055714Y-47656247D01*
X58055714Y-47656247D02*
X58008095Y-47561009D01*
X58008095Y-47561009D02*
X57960476Y-47513390D01*
X57960476Y-47513390D02*
X57865238Y-47465771D01*
X57865238Y-47465771D02*
X57674762Y-47465771D01*
X57674762Y-47465771D02*
X57579524Y-47513390D01*
X57579524Y-47513390D02*
X57531905Y-47561009D01*
X57531905Y-47561009D02*
X57484286Y-47656247D01*
X57103333Y-54084819D02*
X56770000Y-53608628D01*
X56531905Y-54084819D02*
X56531905Y-53084819D01*
X56531905Y-53084819D02*
X56912857Y-53084819D01*
X56912857Y-53084819D02*
X57008095Y-53132438D01*
X57008095Y-53132438D02*
X57055714Y-53180057D01*
X57055714Y-53180057D02*
X57103333Y-53275295D01*
X57103333Y-53275295D02*
X57103333Y-53418152D01*
X57103333Y-53418152D02*
X57055714Y-53513390D01*
X57055714Y-53513390D02*
X57008095Y-53561009D01*
X57008095Y-53561009D02*
X56912857Y-53608628D01*
X56912857Y-53608628D02*
X56531905Y-53608628D01*
X57436667Y-53084819D02*
X58103333Y-53084819D01*
X58103333Y-53084819D02*
X57674762Y-54084819D01*
X48333333Y-27859580D02*
X48285714Y-27907200D01*
X48285714Y-27907200D02*
X48142857Y-27954819D01*
X48142857Y-27954819D02*
X48047619Y-27954819D01*
X48047619Y-27954819D02*
X47904762Y-27907200D01*
X47904762Y-27907200D02*
X47809524Y-27811961D01*
X47809524Y-27811961D02*
X47761905Y-27716723D01*
X47761905Y-27716723D02*
X47714286Y-27526247D01*
X47714286Y-27526247D02*
X47714286Y-27383390D01*
X47714286Y-27383390D02*
X47761905Y-27192914D01*
X47761905Y-27192914D02*
X47809524Y-27097676D01*
X47809524Y-27097676D02*
X47904762Y-27002438D01*
X47904762Y-27002438D02*
X48047619Y-26954819D01*
X48047619Y-26954819D02*
X48142857Y-26954819D01*
X48142857Y-26954819D02*
X48285714Y-27002438D01*
X48285714Y-27002438D02*
X48333333Y-27050057D01*
X48666667Y-26954819D02*
X49285714Y-26954819D01*
X49285714Y-26954819D02*
X48952381Y-27335771D01*
X48952381Y-27335771D02*
X49095238Y-27335771D01*
X49095238Y-27335771D02*
X49190476Y-27383390D01*
X49190476Y-27383390D02*
X49238095Y-27431009D01*
X49238095Y-27431009D02*
X49285714Y-27526247D01*
X49285714Y-27526247D02*
X49285714Y-27764342D01*
X49285714Y-27764342D02*
X49238095Y-27859580D01*
X49238095Y-27859580D02*
X49190476Y-27907200D01*
X49190476Y-27907200D02*
X49095238Y-27954819D01*
X49095238Y-27954819D02*
X48809524Y-27954819D01*
X48809524Y-27954819D02*
X48714286Y-27907200D01*
X48714286Y-27907200D02*
X48666667Y-27859580D01*
X44074279Y-70349819D02*
X44074279Y-71159342D01*
X44074279Y-71159342D02*
X44121898Y-71254580D01*
X44121898Y-71254580D02*
X44169517Y-71302200D01*
X44169517Y-71302200D02*
X44264755Y-71349819D01*
X44264755Y-71349819D02*
X44455231Y-71349819D01*
X44455231Y-71349819D02*
X44550469Y-71302200D01*
X44550469Y-71302200D02*
X44598088Y-71254580D01*
X44598088Y-71254580D02*
X44645707Y-71159342D01*
X44645707Y-71159342D02*
X44645707Y-70349819D01*
X45645707Y-71349819D02*
X45074279Y-71349819D01*
X45359993Y-71349819D02*
X45359993Y-70349819D01*
X45359993Y-70349819D02*
X45264755Y-70492676D01*
X45264755Y-70492676D02*
X45169517Y-70587914D01*
X45169517Y-70587914D02*
X45074279Y-70635533D01*
X47103333Y-46084819D02*
X46770000Y-45608628D01*
X46531905Y-46084819D02*
X46531905Y-45084819D01*
X46531905Y-45084819D02*
X46912857Y-45084819D01*
X46912857Y-45084819D02*
X47008095Y-45132438D01*
X47008095Y-45132438D02*
X47055714Y-45180057D01*
X47055714Y-45180057D02*
X47103333Y-45275295D01*
X47103333Y-45275295D02*
X47103333Y-45418152D01*
X47103333Y-45418152D02*
X47055714Y-45513390D01*
X47055714Y-45513390D02*
X47008095Y-45561009D01*
X47008095Y-45561009D02*
X46912857Y-45608628D01*
X46912857Y-45608628D02*
X46531905Y-45608628D01*
X47484286Y-45180057D02*
X47531905Y-45132438D01*
X47531905Y-45132438D02*
X47627143Y-45084819D01*
X47627143Y-45084819D02*
X47865238Y-45084819D01*
X47865238Y-45084819D02*
X47960476Y-45132438D01*
X47960476Y-45132438D02*
X48008095Y-45180057D01*
X48008095Y-45180057D02*
X48055714Y-45275295D01*
X48055714Y-45275295D02*
X48055714Y-45370533D01*
X48055714Y-45370533D02*
X48008095Y-45513390D01*
X48008095Y-45513390D02*
X47436667Y-46084819D01*
X47436667Y-46084819D02*
X48055714Y-46084819D01*
X71238095Y-44454819D02*
X71238095Y-45264342D01*
X71238095Y-45264342D02*
X71285714Y-45359580D01*
X71285714Y-45359580D02*
X71333333Y-45407200D01*
X71333333Y-45407200D02*
X71428571Y-45454819D01*
X71428571Y-45454819D02*
X71619047Y-45454819D01*
X71619047Y-45454819D02*
X71714285Y-45407200D01*
X71714285Y-45407200D02*
X71761904Y-45359580D01*
X71761904Y-45359580D02*
X71809523Y-45264342D01*
X71809523Y-45264342D02*
X71809523Y-44454819D01*
X72238095Y-44550057D02*
X72285714Y-44502438D01*
X72285714Y-44502438D02*
X72380952Y-44454819D01*
X72380952Y-44454819D02*
X72619047Y-44454819D01*
X72619047Y-44454819D02*
X72714285Y-44502438D01*
X72714285Y-44502438D02*
X72761904Y-44550057D01*
X72761904Y-44550057D02*
X72809523Y-44645295D01*
X72809523Y-44645295D02*
X72809523Y-44740533D01*
X72809523Y-44740533D02*
X72761904Y-44883390D01*
X72761904Y-44883390D02*
X72190476Y-45454819D01*
X72190476Y-45454819D02*
X72809523Y-45454819D01*
D10*
X77166666Y-23063855D02*
X77166666Y-22263855D01*
X77166666Y-22263855D02*
X77471428Y-22263855D01*
X77471428Y-22263855D02*
X77547618Y-22301950D01*
X77547618Y-22301950D02*
X77585713Y-22340045D01*
X77585713Y-22340045D02*
X77623809Y-22416236D01*
X77623809Y-22416236D02*
X77623809Y-22530521D01*
X77623809Y-22530521D02*
X77585713Y-22606712D01*
X77585713Y-22606712D02*
X77547618Y-22644807D01*
X77547618Y-22644807D02*
X77471428Y-22682902D01*
X77471428Y-22682902D02*
X77166666Y-22682902D01*
X77928570Y-22835283D02*
X78309523Y-22835283D01*
X77852380Y-23063855D02*
X78119047Y-22263855D01*
X78119047Y-22263855D02*
X78385713Y-23063855D01*
X78652380Y-23063855D02*
X78652380Y-22263855D01*
X78652380Y-22263855D02*
X78919046Y-22835283D01*
X78919046Y-22835283D02*
X79185713Y-22263855D01*
X79185713Y-22263855D02*
X79185713Y-23063855D01*
X79680951Y-22606712D02*
X79604761Y-22568617D01*
X79604761Y-22568617D02*
X79566666Y-22530521D01*
X79566666Y-22530521D02*
X79528570Y-22454331D01*
X79528570Y-22454331D02*
X79528570Y-22416236D01*
X79528570Y-22416236D02*
X79566666Y-22340045D01*
X79566666Y-22340045D02*
X79604761Y-22301950D01*
X79604761Y-22301950D02*
X79680951Y-22263855D01*
X79680951Y-22263855D02*
X79833332Y-22263855D01*
X79833332Y-22263855D02*
X79909523Y-22301950D01*
X79909523Y-22301950D02*
X79947618Y-22340045D01*
X79947618Y-22340045D02*
X79985713Y-22416236D01*
X79985713Y-22416236D02*
X79985713Y-22454331D01*
X79985713Y-22454331D02*
X79947618Y-22530521D01*
X79947618Y-22530521D02*
X79909523Y-22568617D01*
X79909523Y-22568617D02*
X79833332Y-22606712D01*
X79833332Y-22606712D02*
X79680951Y-22606712D01*
X79680951Y-22606712D02*
X79604761Y-22644807D01*
X79604761Y-22644807D02*
X79566666Y-22682902D01*
X79566666Y-22682902D02*
X79528570Y-22759093D01*
X79528570Y-22759093D02*
X79528570Y-22911474D01*
X79528570Y-22911474D02*
X79566666Y-22987664D01*
X79566666Y-22987664D02*
X79604761Y-23025760D01*
X79604761Y-23025760D02*
X79680951Y-23063855D01*
X79680951Y-23063855D02*
X79833332Y-23063855D01*
X79833332Y-23063855D02*
X79909523Y-23025760D01*
X79909523Y-23025760D02*
X79947618Y-22987664D01*
X79947618Y-22987664D02*
X79985713Y-22911474D01*
X79985713Y-22911474D02*
X79985713Y-22759093D01*
X79985713Y-22759093D02*
X79947618Y-22682902D01*
X79947618Y-22682902D02*
X79909523Y-22644807D01*
X79909523Y-22644807D02*
X79833332Y-22606712D01*
X80671428Y-22530521D02*
X80671428Y-23063855D01*
X80480952Y-22225760D02*
X80290475Y-22797188D01*
X80290475Y-22797188D02*
X80785714Y-22797188D01*
X81242857Y-22263855D02*
X81319047Y-22263855D01*
X81319047Y-22263855D02*
X81395238Y-22301950D01*
X81395238Y-22301950D02*
X81433333Y-22340045D01*
X81433333Y-22340045D02*
X81471428Y-22416236D01*
X81471428Y-22416236D02*
X81509523Y-22568617D01*
X81509523Y-22568617D02*
X81509523Y-22759093D01*
X81509523Y-22759093D02*
X81471428Y-22911474D01*
X81471428Y-22911474D02*
X81433333Y-22987664D01*
X81433333Y-22987664D02*
X81395238Y-23025760D01*
X81395238Y-23025760D02*
X81319047Y-23063855D01*
X81319047Y-23063855D02*
X81242857Y-23063855D01*
X81242857Y-23063855D02*
X81166666Y-23025760D01*
X81166666Y-23025760D02*
X81128571Y-22987664D01*
X81128571Y-22987664D02*
X81090476Y-22911474D01*
X81090476Y-22911474D02*
X81052380Y-22759093D01*
X81052380Y-22759093D02*
X81052380Y-22568617D01*
X81052380Y-22568617D02*
X81090476Y-22416236D01*
X81090476Y-22416236D02*
X81128571Y-22340045D01*
X81128571Y-22340045D02*
X81166666Y-22301950D01*
X81166666Y-22301950D02*
X81242857Y-22263855D01*
X81776190Y-22263855D02*
X82271428Y-22263855D01*
X82271428Y-22263855D02*
X82004762Y-22568617D01*
X82004762Y-22568617D02*
X82119047Y-22568617D01*
X82119047Y-22568617D02*
X82195238Y-22606712D01*
X82195238Y-22606712D02*
X82233333Y-22644807D01*
X82233333Y-22644807D02*
X82271428Y-22720998D01*
X82271428Y-22720998D02*
X82271428Y-22911474D01*
X82271428Y-22911474D02*
X82233333Y-22987664D01*
X82233333Y-22987664D02*
X82195238Y-23025760D01*
X82195238Y-23025760D02*
X82119047Y-23063855D01*
X82119047Y-23063855D02*
X81890476Y-23063855D01*
X81890476Y-23063855D02*
X81814285Y-23025760D01*
X81814285Y-23025760D02*
X81776190Y-22987664D01*
D11*
X47103333Y-40084819D02*
X46770000Y-39608628D01*
X46531905Y-40084819D02*
X46531905Y-39084819D01*
X46531905Y-39084819D02*
X46912857Y-39084819D01*
X46912857Y-39084819D02*
X47008095Y-39132438D01*
X47008095Y-39132438D02*
X47055714Y-39180057D01*
X47055714Y-39180057D02*
X47103333Y-39275295D01*
X47103333Y-39275295D02*
X47103333Y-39418152D01*
X47103333Y-39418152D02*
X47055714Y-39513390D01*
X47055714Y-39513390D02*
X47008095Y-39561009D01*
X47008095Y-39561009D02*
X46912857Y-39608628D01*
X46912857Y-39608628D02*
X46531905Y-39608628D01*
X48055714Y-40084819D02*
X47484286Y-40084819D01*
X47770000Y-40084819D02*
X47770000Y-39084819D01*
X47770000Y-39084819D02*
X47674762Y-39227676D01*
X47674762Y-39227676D02*
X47579524Y-39322914D01*
X47579524Y-39322914D02*
X47484286Y-39370533D01*
X57103333Y-42084819D02*
X56770000Y-41608628D01*
X56531905Y-42084819D02*
X56531905Y-41084819D01*
X56531905Y-41084819D02*
X56912857Y-41084819D01*
X56912857Y-41084819D02*
X57008095Y-41132438D01*
X57008095Y-41132438D02*
X57055714Y-41180057D01*
X57055714Y-41180057D02*
X57103333Y-41275295D01*
X57103333Y-41275295D02*
X57103333Y-41418152D01*
X57103333Y-41418152D02*
X57055714Y-41513390D01*
X57055714Y-41513390D02*
X57008095Y-41561009D01*
X57008095Y-41561009D02*
X56912857Y-41608628D01*
X56912857Y-41608628D02*
X56531905Y-41608628D01*
X58008095Y-41084819D02*
X57531905Y-41084819D01*
X57531905Y-41084819D02*
X57484286Y-41561009D01*
X57484286Y-41561009D02*
X57531905Y-41513390D01*
X57531905Y-41513390D02*
X57627143Y-41465771D01*
X57627143Y-41465771D02*
X57865238Y-41465771D01*
X57865238Y-41465771D02*
X57960476Y-41513390D01*
X57960476Y-41513390D02*
X58008095Y-41561009D01*
X58008095Y-41561009D02*
X58055714Y-41656247D01*
X58055714Y-41656247D02*
X58055714Y-41894342D01*
X58055714Y-41894342D02*
X58008095Y-41989580D01*
X58008095Y-41989580D02*
X57960476Y-42037200D01*
X57960476Y-42037200D02*
X57865238Y-42084819D01*
X57865238Y-42084819D02*
X57627143Y-42084819D01*
X57627143Y-42084819D02*
X57531905Y-42037200D01*
X57531905Y-42037200D02*
X57484286Y-41989580D01*
X57103333Y-36084819D02*
X56770000Y-35608628D01*
X56531905Y-36084819D02*
X56531905Y-35084819D01*
X56531905Y-35084819D02*
X56912857Y-35084819D01*
X56912857Y-35084819D02*
X57008095Y-35132438D01*
X57008095Y-35132438D02*
X57055714Y-35180057D01*
X57055714Y-35180057D02*
X57103333Y-35275295D01*
X57103333Y-35275295D02*
X57103333Y-35418152D01*
X57103333Y-35418152D02*
X57055714Y-35513390D01*
X57055714Y-35513390D02*
X57008095Y-35561009D01*
X57008095Y-35561009D02*
X56912857Y-35608628D01*
X56912857Y-35608628D02*
X56531905Y-35608628D01*
X57960476Y-35418152D02*
X57960476Y-36084819D01*
X57722381Y-35037200D02*
X57484286Y-35751485D01*
X57484286Y-35751485D02*
X58103333Y-35751485D01*
X47103333Y-52084819D02*
X46770000Y-51608628D01*
X46531905Y-52084819D02*
X46531905Y-51084819D01*
X46531905Y-51084819D02*
X46912857Y-51084819D01*
X46912857Y-51084819D02*
X47008095Y-51132438D01*
X47008095Y-51132438D02*
X47055714Y-51180057D01*
X47055714Y-51180057D02*
X47103333Y-51275295D01*
X47103333Y-51275295D02*
X47103333Y-51418152D01*
X47103333Y-51418152D02*
X47055714Y-51513390D01*
X47055714Y-51513390D02*
X47008095Y-51561009D01*
X47008095Y-51561009D02*
X46912857Y-51608628D01*
X46912857Y-51608628D02*
X46531905Y-51608628D01*
X47436667Y-51084819D02*
X48055714Y-51084819D01*
X48055714Y-51084819D02*
X47722381Y-51465771D01*
X47722381Y-51465771D02*
X47865238Y-51465771D01*
X47865238Y-51465771D02*
X47960476Y-51513390D01*
X47960476Y-51513390D02*
X48008095Y-51561009D01*
X48008095Y-51561009D02*
X48055714Y-51656247D01*
X48055714Y-51656247D02*
X48055714Y-51894342D01*
X48055714Y-51894342D02*
X48008095Y-51989580D01*
X48008095Y-51989580D02*
X47960476Y-52037200D01*
X47960476Y-52037200D02*
X47865238Y-52084819D01*
X47865238Y-52084819D02*
X47579524Y-52084819D01*
X47579524Y-52084819D02*
X47484286Y-52037200D01*
X47484286Y-52037200D02*
X47436667Y-51989580D01*
X48333333Y-57859580D02*
X48285714Y-57907200D01*
X48285714Y-57907200D02*
X48142857Y-57954819D01*
X48142857Y-57954819D02*
X48047619Y-57954819D01*
X48047619Y-57954819D02*
X47904762Y-57907200D01*
X47904762Y-57907200D02*
X47809524Y-57811961D01*
X47809524Y-57811961D02*
X47761905Y-57716723D01*
X47761905Y-57716723D02*
X47714286Y-57526247D01*
X47714286Y-57526247D02*
X47714286Y-57383390D01*
X47714286Y-57383390D02*
X47761905Y-57192914D01*
X47761905Y-57192914D02*
X47809524Y-57097676D01*
X47809524Y-57097676D02*
X47904762Y-57002438D01*
X47904762Y-57002438D02*
X48047619Y-56954819D01*
X48047619Y-56954819D02*
X48142857Y-56954819D01*
X48142857Y-56954819D02*
X48285714Y-57002438D01*
X48285714Y-57002438D02*
X48333333Y-57050057D01*
X49285714Y-57954819D02*
X48714286Y-57954819D01*
X49000000Y-57954819D02*
X49000000Y-56954819D01*
X49000000Y-56954819D02*
X48904762Y-57097676D01*
X48904762Y-57097676D02*
X48809524Y-57192914D01*
X48809524Y-57192914D02*
X48714286Y-57240533D01*
%TO.C,J6*%
D10*
X75780000Y-81380000D02*
X75780000Y-80000000D01*
X77160000Y-81380000D02*
X75780000Y-81380000D01*
X78430000Y-78620000D02*
X83620000Y-78620000D01*
X78430000Y-81380000D02*
X78430000Y-78620000D01*
X78430000Y-81380000D02*
X83620000Y-81380000D01*
X83620000Y-81380000D02*
X83620000Y-78620000D01*
%TO.C,C4*%
X45880000Y-34630000D02*
X51120000Y-34630000D01*
X45880000Y-34967000D02*
X45880000Y-34630000D01*
X45880000Y-37370000D02*
X45880000Y-37033000D01*
X51120000Y-34630000D02*
X51120000Y-34967000D01*
X51120000Y-37033000D02*
X51120000Y-37370000D01*
X51120000Y-37370000D02*
X45880000Y-37370000D01*
%TO.C,J8*%
X89500000Y-60000000D02*
X89500000Y-72000000D01*
X90950000Y-60000000D02*
X89500000Y-60000000D01*
X90950000Y-72000000D02*
X89500000Y-72000000D01*
X99500000Y-60000000D02*
X94050000Y-60000000D01*
X99500000Y-60000000D02*
X99500000Y-72000000D01*
X99500000Y-61800000D02*
X108500000Y-61800000D01*
X99500000Y-70200000D02*
X108500000Y-70200000D01*
X99500000Y-72000000D02*
X94050000Y-72000000D01*
%TO.C,C2*%
X54445225Y-29525000D02*
X54945225Y-29525000D01*
X54695225Y-29275000D02*
X54695225Y-29775000D01*
X57250000Y-28420000D02*
X57250000Y-33580000D01*
X57290000Y-28420000D02*
X57290000Y-33580000D01*
X57330000Y-28421000D02*
X57330000Y-33579000D01*
X57370000Y-28423000D02*
X57370000Y-33577000D01*
X57410000Y-28425000D02*
X57410000Y-33575000D01*
X57450000Y-28428000D02*
X57450000Y-33572000D01*
X57490000Y-28431000D02*
X57490000Y-29960000D01*
X57490000Y-32040000D02*
X57490000Y-33569000D01*
X57530000Y-28435000D02*
X57530000Y-29960000D01*
X57530000Y-32040000D02*
X57530000Y-33565000D01*
X57570000Y-28440000D02*
X57570000Y-29960000D01*
X57570000Y-32040000D02*
X57570000Y-33560000D01*
X57610000Y-28445000D02*
X57610000Y-29960000D01*
X57610000Y-32040000D02*
X57610000Y-33555000D01*
X57650000Y-28451000D02*
X57650000Y-29960000D01*
X57650000Y-32040000D02*
X57650000Y-33549000D01*
X57690000Y-28457000D02*
X57690000Y-29960000D01*
X57690000Y-32040000D02*
X57690000Y-33543000D01*
X57730000Y-28464000D02*
X57730000Y-29960000D01*
X57730000Y-32040000D02*
X57730000Y-33536000D01*
X57770000Y-28472000D02*
X57770000Y-29960000D01*
X57770000Y-32040000D02*
X57770000Y-33528000D01*
X57810000Y-28481000D02*
X57810000Y-29960000D01*
X57810000Y-32040000D02*
X57810000Y-33519000D01*
X57850000Y-28490000D02*
X57850000Y-29960000D01*
X57850000Y-32040000D02*
X57850000Y-33510000D01*
X57890000Y-28499000D02*
X57890000Y-29960000D01*
X57890000Y-32040000D02*
X57890000Y-33501000D01*
X57930000Y-28510000D02*
X57930000Y-29960000D01*
X57930000Y-32040000D02*
X57930000Y-33490000D01*
X57970000Y-28521000D02*
X57970000Y-29960000D01*
X57970000Y-32040000D02*
X57970000Y-33479000D01*
X58010000Y-28533000D02*
X58010000Y-29960000D01*
X58010000Y-32040000D02*
X58010000Y-33467000D01*
X58050000Y-28545000D02*
X58050000Y-29960000D01*
X58050000Y-32040000D02*
X58050000Y-33455000D01*
X58090000Y-28558000D02*
X58090000Y-29960000D01*
X58090000Y-32040000D02*
X58090000Y-33442000D01*
X58130000Y-28572000D02*
X58130000Y-29960000D01*
X58130000Y-32040000D02*
X58130000Y-33428000D01*
X58170000Y-28587000D02*
X58170000Y-29960000D01*
X58170000Y-32040000D02*
X58170000Y-33413000D01*
X58210000Y-28602000D02*
X58210000Y-29960000D01*
X58210000Y-32040000D02*
X58210000Y-33398000D01*
X58250000Y-28618000D02*
X58250000Y-29960000D01*
X58250000Y-32040000D02*
X58250000Y-33382000D01*
X58290000Y-28635000D02*
X58290000Y-29960000D01*
X58290000Y-32040000D02*
X58290000Y-33365000D01*
X58330000Y-28653000D02*
X58330000Y-29960000D01*
X58330000Y-32040000D02*
X58330000Y-33347000D01*
X58370000Y-28671000D02*
X58370000Y-29960000D01*
X58370000Y-32040000D02*
X58370000Y-33329000D01*
X58410000Y-28691000D02*
X58410000Y-29960000D01*
X58410000Y-32040000D02*
X58410000Y-33309000D01*
X58450000Y-28711000D02*
X58450000Y-29960000D01*
X58450000Y-32040000D02*
X58450000Y-33289000D01*
X58490000Y-28732000D02*
X58490000Y-29960000D01*
X58490000Y-32040000D02*
X58490000Y-33268000D01*
X58530000Y-28754000D02*
X58530000Y-29960000D01*
X58530000Y-32040000D02*
X58530000Y-33246000D01*
X58570000Y-28777000D02*
X58570000Y-29960000D01*
X58570000Y-32040000D02*
X58570000Y-33223000D01*
X58610000Y-28801000D02*
X58610000Y-29960000D01*
X58610000Y-32040000D02*
X58610000Y-33199000D01*
X58650000Y-28825000D02*
X58650000Y-29960000D01*
X58650000Y-32040000D02*
X58650000Y-33175000D01*
X58690000Y-28851000D02*
X58690000Y-29960000D01*
X58690000Y-32040000D02*
X58690000Y-33149000D01*
X58730000Y-28878000D02*
X58730000Y-29960000D01*
X58730000Y-32040000D02*
X58730000Y-33122000D01*
X58770000Y-28906000D02*
X58770000Y-29960000D01*
X58770000Y-32040000D02*
X58770000Y-33094000D01*
X58810000Y-28935000D02*
X58810000Y-29960000D01*
X58810000Y-32040000D02*
X58810000Y-33065000D01*
X58850000Y-28965000D02*
X58850000Y-29960000D01*
X58850000Y-32040000D02*
X58850000Y-33035000D01*
X58890000Y-28997000D02*
X58890000Y-29960000D01*
X58890000Y-32040000D02*
X58890000Y-33003000D01*
X58930000Y-29030000D02*
X58930000Y-29960000D01*
X58930000Y-32040000D02*
X58930000Y-32970000D01*
X58970000Y-29064000D02*
X58970000Y-29960000D01*
X58970000Y-32040000D02*
X58970000Y-32936000D01*
X59010000Y-29099000D02*
X59010000Y-29960000D01*
X59010000Y-32040000D02*
X59010000Y-32901000D01*
X59050000Y-29136000D02*
X59050000Y-29960000D01*
X59050000Y-32040000D02*
X59050000Y-32864000D01*
X59090000Y-29175000D02*
X59090000Y-29960000D01*
X59090000Y-32040000D02*
X59090000Y-32825000D01*
X59130000Y-29215000D02*
X59130000Y-29960000D01*
X59130000Y-32040000D02*
X59130000Y-32785000D01*
X59170000Y-29257000D02*
X59170000Y-29960000D01*
X59170000Y-32040000D02*
X59170000Y-32743000D01*
X59210000Y-29301000D02*
X59210000Y-29960000D01*
X59210000Y-32040000D02*
X59210000Y-32699000D01*
X59250000Y-29348000D02*
X59250000Y-29960000D01*
X59250000Y-32040000D02*
X59250000Y-32652000D01*
X59290000Y-29396000D02*
X59290000Y-29960000D01*
X59290000Y-32040000D02*
X59290000Y-32604000D01*
X59330000Y-29447000D02*
X59330000Y-29960000D01*
X59330000Y-32040000D02*
X59330000Y-32553000D01*
X59370000Y-29501000D02*
X59370000Y-29960000D01*
X59370000Y-32040000D02*
X59370000Y-32499000D01*
X59410000Y-29557000D02*
X59410000Y-29960000D01*
X59410000Y-32040000D02*
X59410000Y-32443000D01*
X59450000Y-29617000D02*
X59450000Y-29960000D01*
X59450000Y-32040000D02*
X59450000Y-32383000D01*
X59490000Y-29681000D02*
X59490000Y-29960000D01*
X59490000Y-32040000D02*
X59490000Y-32319000D01*
X59530000Y-29749000D02*
X59530000Y-29960000D01*
X59530000Y-32040000D02*
X59530000Y-32251000D01*
X59570000Y-29823000D02*
X59570000Y-32177000D01*
X59610000Y-29902000D02*
X59610000Y-32098000D01*
X59650000Y-29989000D02*
X59650000Y-32011000D01*
X59690000Y-30086000D02*
X59690000Y-31914000D01*
X59730000Y-30195000D02*
X59730000Y-31805000D01*
X59770000Y-30323000D02*
X59770000Y-31677000D01*
X59810000Y-30483000D02*
X59810000Y-31517000D01*
X59850000Y-30717000D02*
X59850000Y-31283000D01*
X59870000Y-31000000D02*
G75*
G02*
X54630000Y-31000000I-2620000J0D01*
G01*
X54630000Y-31000000D02*
G75*
G02*
X59870000Y-31000000I2620000J0D01*
G01*
%TO.C,J4*%
X20620000Y-81380000D02*
X20620000Y-80000000D01*
X22000000Y-81380000D02*
X20620000Y-81380000D01*
X23270000Y-78620000D02*
X36080000Y-78620000D01*
X23270000Y-81380000D02*
X23270000Y-78620000D01*
X23270000Y-81380000D02*
X36080000Y-81380000D01*
X36080000Y-81380000D02*
X36080000Y-78620000D01*
%TO.C,R6*%
X57370000Y-50000000D02*
X57440000Y-50000000D01*
X57370000Y-50000000D02*
G75*
G02*
X54630000Y-50000000I-1370000J0D01*
G01*
X54630000Y-50000000D02*
G75*
G02*
X57370000Y-50000000I1370000J0D01*
G01*
%TO.C,J5*%
X65620000Y-81380000D02*
X65620000Y-80000000D01*
X67000000Y-81380000D02*
X65620000Y-81380000D01*
X68270000Y-78620000D02*
X73460000Y-78620000D01*
X68270000Y-81380000D02*
X68270000Y-78620000D01*
X68270000Y-81380000D02*
X73460000Y-81380000D01*
X73460000Y-81380000D02*
X73460000Y-78620000D01*
%TO.C,R7*%
X57370000Y-56000000D02*
X57440000Y-56000000D01*
X57370000Y-56000000D02*
G75*
G02*
X54630000Y-56000000I-1370000J0D01*
G01*
X54630000Y-56000000D02*
G75*
G02*
X57370000Y-56000000I1370000J0D01*
G01*
%TO.C,C3*%
X45880000Y-28630000D02*
X51120000Y-28630000D01*
X45880000Y-28967000D02*
X45880000Y-28630000D01*
X45880000Y-31370000D02*
X45880000Y-31033000D01*
X51120000Y-28630000D02*
X51120000Y-28967000D01*
X51120000Y-31033000D02*
X51120000Y-31370000D01*
X51120000Y-31370000D02*
X45880000Y-31370000D01*
%TO.C,U1*%
X21060000Y-22800000D02*
X21060000Y-21200000D01*
X21380000Y-21130000D02*
X21380000Y-71130000D01*
X21720000Y-20583000D02*
X21720000Y-71677000D01*
X21990000Y-20520000D02*
X24480000Y-20520000D01*
X21990000Y-71740000D02*
X25827939Y-71740000D01*
X24480000Y-20520000D02*
X24480000Y-21433520D01*
X24480000Y-20520000D02*
X25827940Y-20520000D01*
X24480000Y-23826480D02*
X24480000Y-68433520D01*
X24480000Y-70826480D02*
X24480000Y-71740000D01*
X26752061Y-20520000D02*
X27755000Y-20520000D01*
X27755000Y-20520000D02*
X36225000Y-20520000D01*
X27880000Y-19220000D02*
X27880000Y-20040000D01*
X27880000Y-19220000D02*
X36100000Y-19220000D01*
X27880000Y-20040000D02*
X28090000Y-20040000D01*
X28090000Y-20040000D02*
X28090000Y-21436000D01*
X28090000Y-23824000D02*
X28090000Y-25040000D01*
X28390000Y-71740000D02*
X26752061Y-71740000D01*
X35590000Y-71740000D02*
X28390000Y-71740000D01*
X35890000Y-20040000D02*
X35890000Y-21436000D01*
X35890000Y-23824000D02*
X35890000Y-25040000D01*
X35890000Y-25040000D02*
X28090000Y-25040000D01*
X36100000Y-19220000D02*
X36100000Y-20040000D01*
X36100000Y-20040000D02*
X35890000Y-20040000D01*
X36225000Y-20520000D02*
X37227939Y-20520000D01*
X37227939Y-71740000D02*
X35590000Y-71740000D01*
X38152061Y-20520000D02*
X39500000Y-20520000D01*
X38152061Y-71740000D02*
X41990000Y-71740000D01*
X39500000Y-20520000D02*
X39500000Y-21433520D01*
X39500000Y-23826480D02*
X39500000Y-68433520D01*
X39500000Y-70826480D02*
X39500000Y-71740000D01*
X41990000Y-20520000D02*
X39500000Y-20520000D01*
X42260000Y-71677000D02*
X42260000Y-20583000D01*
X42600000Y-21130000D02*
X42600000Y-71130000D01*
X21380000Y-21130000D02*
G75*
G02*
X21990000Y-20520000I610000J0D01*
G01*
X21990000Y-71740000D02*
G75*
G02*
X21380000Y-71130000I-99J609901D01*
G01*
X41990000Y-20520000D02*
G75*
G02*
X42600000Y-21130000I0J-610000D01*
G01*
X42600000Y-71130000D02*
G75*
G02*
X41990000Y-71740000I-610000J0D01*
G01*
%TO.C,R2*%
X47370000Y-48000000D02*
X47440000Y-48000000D01*
X47370000Y-48000000D02*
G75*
G02*
X44630000Y-48000000I-1370000J0D01*
G01*
X44630000Y-48000000D02*
G75*
G02*
X47370000Y-48000000I1370000J0D01*
G01*
%TO.C,U2*%
X65200000Y-20200000D02*
X65200000Y-40200000D01*
X65200000Y-40200000D02*
X94200000Y-40200000D01*
X94200000Y-20200000D02*
X65200000Y-20200000D01*
X94200000Y-40200000D02*
X94200000Y-20200000D01*
%TO.C,R1*%
X47370000Y-42000000D02*
X47440000Y-42000000D01*
X47370000Y-42000000D02*
G75*
G02*
X44630000Y-42000000I-1370000J0D01*
G01*
X44630000Y-42000000D02*
G75*
G02*
X47370000Y-42000000I1370000J0D01*
G01*
%TO.C,J9*%
X89500000Y-73000000D02*
X89500000Y-85000000D01*
X90950000Y-73000000D02*
X89500000Y-73000000D01*
X90950000Y-85000000D02*
X89500000Y-85000000D01*
X99500000Y-73000000D02*
X94050000Y-73000000D01*
X99500000Y-73000000D02*
X99500000Y-85000000D01*
X99500000Y-74800000D02*
X108500000Y-74800000D01*
X99500000Y-83200000D02*
X108500000Y-83200000D01*
X99500000Y-85000000D02*
X94050000Y-85000000D01*
%TO.C,J7*%
X44620000Y-81380000D02*
X44620000Y-80000000D01*
X46000000Y-81380000D02*
X44620000Y-81380000D01*
X47270000Y-78620000D02*
X49920000Y-78620000D01*
X47270000Y-81380000D02*
X47270000Y-78620000D01*
X47270000Y-81380000D02*
X49920000Y-81380000D01*
X49920000Y-81380000D02*
X49920000Y-78620000D01*
%TO.C,J1*%
X89500000Y-47000000D02*
X89500000Y-59000000D01*
X90950000Y-47000000D02*
X89500000Y-47000000D01*
X90950000Y-59000000D02*
X89500000Y-59000000D01*
X99500000Y-47000000D02*
X94050000Y-47000000D01*
X99500000Y-47000000D02*
X99500000Y-59000000D01*
X99500000Y-48800000D02*
X108500000Y-48800000D01*
X99500000Y-57200000D02*
X108500000Y-57200000D01*
X99500000Y-59000000D02*
X94050000Y-59000000D01*
%TO.C,R5*%
X57370000Y-44000000D02*
X57440000Y-44000000D01*
X57370000Y-44000000D02*
G75*
G02*
X54630000Y-44000000I-1370000J0D01*
G01*
X54630000Y-44000000D02*
G75*
G02*
X57370000Y-44000000I1370000J0D01*
G01*
%TO.C,R4*%
X57370000Y-38000000D02*
X57440000Y-38000000D01*
X57370000Y-38000000D02*
G75*
G02*
X54630000Y-38000000I-1370000J0D01*
G01*
X54630000Y-38000000D02*
G75*
G02*
X57370000Y-38000000I1370000J0D01*
G01*
%TO.C,R3*%
X47370000Y-54000000D02*
X47440000Y-54000000D01*
X47370000Y-54000000D02*
G75*
G02*
X44630000Y-54000000I-1370000J0D01*
G01*
X44630000Y-54000000D02*
G75*
G02*
X47370000Y-54000000I1370000J0D01*
G01*
%TO.C,C1*%
X45880000Y-58630000D02*
X51120000Y-58630000D01*
X45880000Y-58967000D02*
X45880000Y-58630000D01*
X45880000Y-61370000D02*
X45880000Y-61033000D01*
X51120000Y-58630000D02*
X51120000Y-58967000D01*
X51120000Y-61033000D02*
X51120000Y-61370000D01*
X51120000Y-61370000D02*
X45880000Y-61370000D01*
%TD*%
%LPC*%
D13*
%TO.C,J6*%
X77160000Y-80000000D03*
D14*
X79700000Y-80000000D03*
X82240000Y-80000000D03*
%TD*%
D15*
%TO.C,C4*%
X46000000Y-36000000D03*
X51000000Y-36000000D03*
%TD*%
D16*
%TO.C,J8*%
X92500000Y-66000000D03*
D17*
X92500000Y-61000000D03*
D18*
X97500000Y-66000000D03*
D17*
X92500000Y-71000000D03*
%TD*%
D19*
%TO.C,C2*%
X56000000Y-31000000D03*
D15*
X58500000Y-31000000D03*
%TD*%
D13*
%TO.C,J4*%
X22000000Y-80000000D03*
D14*
X24540000Y-80000000D03*
X27080000Y-80000000D03*
X29620000Y-80000000D03*
X32160000Y-80000000D03*
X34700000Y-80000000D03*
%TD*%
D15*
%TO.C,R6*%
X56000000Y-50000000D03*
X58540000Y-50000000D03*
%TD*%
D13*
%TO.C,J5*%
X67000000Y-80000000D03*
D14*
X69540000Y-80000000D03*
X72080000Y-80000000D03*
%TD*%
D15*
%TO.C,R7*%
X56000000Y-56000000D03*
X58540000Y-56000000D03*
%TD*%
%TO.C,C3*%
X46000000Y-30000000D03*
X51000000Y-30000000D03*
%TD*%
D20*
%TO.C,U1*%
X23100000Y-22000000D03*
D15*
X23100000Y-24540000D03*
D21*
X23100000Y-27080000D03*
D15*
X23100000Y-29620000D03*
X23100000Y-32160000D03*
X23100000Y-34700000D03*
X23100000Y-37240000D03*
D21*
X23100000Y-39780000D03*
D15*
X23100000Y-42320000D03*
X23100000Y-44860000D03*
X23100000Y-47400000D03*
X23100000Y-49940000D03*
D21*
X23100000Y-52480000D03*
D15*
X23100000Y-55020000D03*
X23100000Y-57560000D03*
X23100000Y-60100000D03*
X23100000Y-62640000D03*
D21*
X23100000Y-65180000D03*
D15*
X23100000Y-67720000D03*
X23100000Y-70260000D03*
X40880000Y-70260000D03*
X40880000Y-67720000D03*
D22*
X40880000Y-65180000D03*
D15*
X40880000Y-62640000D03*
X40880000Y-60100000D03*
X40880000Y-57560000D03*
X40880000Y-55020000D03*
D22*
X40880000Y-52480000D03*
D15*
X40880000Y-49940000D03*
X40880000Y-47400000D03*
X40880000Y-44860000D03*
X40880000Y-42320000D03*
D22*
X40880000Y-39780000D03*
D15*
X40880000Y-37240000D03*
X40880000Y-34700000D03*
X40880000Y-32160000D03*
X40880000Y-29620000D03*
D22*
X40880000Y-27080000D03*
D15*
X40880000Y-24540000D03*
X40880000Y-22000000D03*
%TD*%
%TO.C,R2*%
X46000000Y-48000000D03*
X48540000Y-48000000D03*
%TD*%
D23*
%TO.C,U2*%
X67000000Y-42000000D03*
D24*
X69540000Y-42000000D03*
X72080000Y-42000000D03*
X74620000Y-42000000D03*
X79700000Y-42000000D03*
X82240000Y-42000000D03*
X87320000Y-42000000D03*
X89860000Y-42000000D03*
X92400000Y-42000000D03*
%TD*%
D25*
%TO.C,H2*%
X60000000Y-82000000D03*
%TD*%
%TO.C,H1*%
X60000000Y-24000000D03*
%TD*%
D15*
%TO.C,R1*%
X46000000Y-42000000D03*
X48540000Y-42000000D03*
%TD*%
D16*
%TO.C,J9*%
X92500000Y-79000000D03*
D17*
X92500000Y-74000000D03*
D18*
X97500000Y-79000000D03*
D17*
X92500000Y-84000000D03*
%TD*%
D13*
%TO.C,J7*%
X46000000Y-80000000D03*
D14*
X48540000Y-80000000D03*
%TD*%
D16*
%TO.C,J1*%
X92500000Y-53000000D03*
D17*
X92500000Y-48000000D03*
D18*
X97500000Y-53000000D03*
D17*
X92500000Y-58000000D03*
%TD*%
D15*
%TO.C,R5*%
X56000000Y-44000000D03*
X58540000Y-44000000D03*
%TD*%
%TO.C,R4*%
X56000000Y-38000000D03*
X58540000Y-38000000D03*
%TD*%
%TO.C,R3*%
X46000000Y-54000000D03*
X48540000Y-54000000D03*
%TD*%
%TO.C,C1*%
X46000000Y-60000000D03*
X51000000Y-60000000D03*
%TD*%
%LPD*%
M02*
