%TF.GenerationSoftware,KiCad,Pcbnew,10.0.4*%
%TF.CreationDate,2026-08-19T00:40:15-03:00*%
%TF.ProjectId,pong-retrosc,706f6e67-2d72-4657-9472-6f73632e6b69,rev?*%
%TF.SameCoordinates,Original*%
%TF.FileFunction,Copper,L1,Top*%
%TF.FilePolarity,Positive*%
%FSLAX46Y46*%
G04 Gerber Fmt 4.6, Leading zero omitted, Abs format (unit mm)*
G04 Created by KiCad (PCBNEW 10.0.4) date 2026-08-19 00:40:15*
%MOMM*%
%LPD*%
G01*
G04 APERTURE LIST*
G04 Aperture macros list*
%AMRoundRect*
0 Rectangle with rounded corners*
0 $1 Rounding radius*
0 $2 $3 $4 $5 $6 $7 $8 $9 X,Y pos of 4 corners*
0 Add a 4 corners polygon primitive as box body*
4,1,4,$2,$3,$4,$5,$6,$7,$8,$9,$2,$3,0*
0 Add four circle primitives for the rounded corners*
1,1,$1+$1,$2,$3*
1,1,$1+$1,$4,$5*
1,1,$1+$1,$6,$7*
1,1,$1+$1,$8,$9*
0 Add four rect primitives between the rounded corners*
20,1,$1+$1,$2,$3,$4,$5,0*
20,1,$1+$1,$4,$5,$6,$7,0*
20,1,$1+$1,$6,$7,$8,$9,0*
20,1,$1+$1,$8,$9,$2,$3,0*%
%AMFreePoly0*
4,1,37,0.603843,0.796157,0.639018,0.796157,0.711114,0.766294,0.766294,0.711114,0.796157,0.639018,0.796157,0.603843,0.800000,0.600000,0.800000,-0.600000,0.796157,-0.603843,0.796157,-0.639018,0.766294,-0.711114,0.711114,-0.766294,0.639018,-0.796157,0.603843,-0.796157,0.600000,-0.800000,0.000000,-0.800000,0.000000,-0.796148,-0.078414,-0.796148,-0.232228,-0.765552,-0.377117,-0.705537,
-0.507515,-0.618408,-0.618408,-0.507515,-0.705537,-0.377117,-0.765552,-0.232228,-0.796148,-0.078414,-0.796148,0.078414,-0.765552,0.232228,-0.705537,0.377117,-0.618408,0.507515,-0.507515,0.618408,-0.377117,0.705537,-0.232228,0.765552,-0.078414,0.796148,0.000000,0.796148,0.000000,0.800000,0.600000,0.800000,0.603843,0.796157,0.603843,0.796157,$1*%
%AMFreePoly1*
4,1,37,0.000000,0.796148,0.078414,0.796148,0.232228,0.765552,0.377117,0.705537,0.507515,0.618408,0.618408,0.507515,0.705537,0.377117,0.765552,0.232228,0.796148,0.078414,0.796148,-0.078414,0.765552,-0.232228,0.705537,-0.377117,0.618408,-0.507515,0.507515,-0.618408,0.377117,-0.705537,0.232228,-0.765552,0.078414,-0.796148,0.000000,-0.796148,0.000000,-0.800000,-0.600000,-0.800000,
-0.603843,-0.796157,-0.639018,-0.796157,-0.711114,-0.766294,-0.766294,-0.711114,-0.796157,-0.639018,-0.796157,-0.603843,-0.800000,-0.600000,-0.800000,0.600000,-0.796157,0.603843,-0.796157,0.639018,-0.766294,0.711114,-0.711114,0.766294,-0.639018,0.796157,-0.603843,0.796157,-0.600000,0.800000,0.000000,0.800000,0.000000,0.796148,0.000000,0.796148,$1*%
G04 Aperture macros list end*
%TA.AperFunction,ComponentPad*%
%ADD10C,2.600000*%
%TD*%
%TA.AperFunction,ComponentPad*%
%ADD11O,3.400000X2.300000*%
%TD*%
%TA.AperFunction,ComponentPad*%
%ADD12O,2.300000X3.400000*%
%TD*%
%TA.AperFunction,ComponentPad*%
%ADD13C,1.600000*%
%TD*%
%TA.AperFunction,ComponentPad*%
%ADD14R,1.700000X1.700000*%
%TD*%
%TA.AperFunction,ComponentPad*%
%ADD15C,1.700000*%
%TD*%
%TA.AperFunction,ComponentPad*%
%ADD16RoundRect,0.200000X-0.600000X-0.600000X0.600000X-0.600000X0.600000X0.600000X-0.600000X0.600000X0*%
%TD*%
%TA.AperFunction,ComponentPad*%
%ADD17FreePoly0,0.000000*%
%TD*%
%TA.AperFunction,ComponentPad*%
%ADD18FreePoly1,0.000000*%
%TD*%
%TA.AperFunction,ComponentPad*%
%ADD19R,1.900000X1.900000*%
%TD*%
%TA.AperFunction,ComponentPad*%
%ADD20C,1.900000*%
%TD*%
%TA.AperFunction,ComponentPad*%
%ADD21RoundRect,0.250000X-0.550000X-0.550000X0.550000X-0.550000X0.550000X0.550000X-0.550000X0.550000X0*%
%TD*%
%TA.AperFunction,ViaPad*%
%ADD22C,0.700000*%
%TD*%
%TA.AperFunction,Conductor*%
%ADD23C,0.300000*%
%TD*%
G04 APERTURE END LIST*
D10*
%TO.P,J9,1*%
%TO.N,RCA_C*%
X92500000Y-79000000D03*
D11*
%TO.P,J9,2*%
%TO.N,RCA_S*%
X92500000Y-74000000D03*
D12*
X97500000Y-79000000D03*
D11*
X92500000Y-84000000D03*
%TD*%
D13*
%TO.P,R2,1*%
%TO.N,VIDEO*%
X46000000Y-48000000D03*
%TO.P,R2,2*%
%TO.N,COMPOSITE*%
X48540000Y-48000000D03*
%TD*%
%TO.P,R7,1*%
%TO.N,AUD_C*%
X56000000Y-56000000D03*
%TO.P,R7,2*%
%TO.N,AMP_R*%
X58540000Y-56000000D03*
%TD*%
D14*
%TO.P,J4,1*%
%TO.N,RCA_C*%
X22000000Y-80000000D03*
D15*
%TO.P,J4,2*%
%TO.N,RCA_S*%
X24540000Y-80000000D03*
%TO.P,J4,3*%
%TO.N,LINHA*%
X27080000Y-80000000D03*
%TO.P,J4,4*%
%TO.N,GND*%
X29620000Y-80000000D03*
%TO.P,J4,5*%
%TO.N,LOUT_P*%
X32160000Y-80000000D03*
%TO.P,J4,6*%
%TO.N,LOUT_N*%
X34700000Y-80000000D03*
%TD*%
D16*
%TO.P,U1,1*%
%TO.N,N/C*%
X23100000Y-22000000D03*
D13*
%TO.P,U1,2*%
X23100000Y-24540000D03*
D17*
%TO.P,U1,3*%
%TO.N,GND*%
X23100000Y-27080000D03*
D13*
%TO.P,U1,4*%
%TO.N,N/C*%
X23100000Y-29620000D03*
%TO.P,U1,5*%
X23100000Y-32160000D03*
%TO.P,U1,6*%
X23100000Y-34700000D03*
%TO.P,U1,7*%
X23100000Y-37240000D03*
D17*
%TO.P,U1,8*%
%TO.N,GND*%
X23100000Y-39780000D03*
D13*
%TO.P,U1,9*%
%TO.N,N/C*%
X23100000Y-42320000D03*
%TO.P,U1,10*%
X23100000Y-44860000D03*
%TO.P,U1,11*%
X23100000Y-47400000D03*
%TO.P,U1,12*%
X23100000Y-49940000D03*
D17*
%TO.P,U1,13*%
%TO.N,GND*%
X23100000Y-52480000D03*
D13*
%TO.P,U1,14*%
%TO.N,N/C*%
X23100000Y-55020000D03*
%TO.P,U1,15*%
X23100000Y-57560000D03*
%TO.P,U1,16*%
X23100000Y-60100000D03*
%TO.P,U1,17*%
X23100000Y-62640000D03*
D17*
%TO.P,U1,18*%
%TO.N,GND*%
X23100000Y-65180000D03*
D13*
%TO.P,U1,19*%
%TO.N,N/C*%
X23100000Y-67720000D03*
%TO.P,U1,20*%
X23100000Y-70260000D03*
%TO.P,U1,21*%
%TO.N,SYNC*%
X40880000Y-70260000D03*
%TO.P,U1,22*%
%TO.N,VIDEO*%
X40880000Y-67720000D03*
D18*
%TO.P,U1,23*%
%TO.N,GND*%
X40880000Y-65180000D03*
D13*
%TO.P,U1,24*%
%TO.N,AUDIO_PWM*%
X40880000Y-62640000D03*
%TO.P,U1,25*%
%TO.N,N/C*%
X40880000Y-60100000D03*
%TO.P,U1,26*%
X40880000Y-57560000D03*
%TO.P,U1,27*%
X40880000Y-55020000D03*
D18*
%TO.P,U1,28*%
%TO.N,GND*%
X40880000Y-52480000D03*
D13*
%TO.P,U1,29*%
%TO.N,START*%
X40880000Y-49940000D03*
%TO.P,U1,30*%
%TO.N,N/C*%
X40880000Y-47400000D03*
%TO.P,U1,31*%
%TO.N,POT1*%
X40880000Y-44860000D03*
%TO.P,U1,32*%
%TO.N,POT2*%
X40880000Y-42320000D03*
D18*
%TO.P,U1,33*%
%TO.N,AGND*%
X40880000Y-39780000D03*
D13*
%TO.P,U1,34*%
%TO.N,N/C*%
X40880000Y-37240000D03*
%TO.P,U1,35*%
X40880000Y-34700000D03*
%TO.P,U1,36*%
%TO.N,+3V3*%
X40880000Y-32160000D03*
%TO.P,U1,37*%
%TO.N,N/C*%
X40880000Y-29620000D03*
D18*
%TO.P,U1,38*%
%TO.N,GND*%
X40880000Y-27080000D03*
D13*
%TO.P,U1,39*%
%TO.N,N/C*%
X40880000Y-24540000D03*
%TO.P,U1,40*%
%TO.N,+5V*%
X40880000Y-22000000D03*
%TD*%
D10*
%TO.P,J1,1*%
%TO.N,COMPOSITE*%
X92500000Y-53000000D03*
D11*
%TO.P,J1,2*%
%TO.N,GND*%
X92500000Y-48000000D03*
D12*
X97500000Y-53000000D03*
D11*
X92500000Y-58000000D03*
%TD*%
D14*
%TO.P,J5,1*%
%TO.N,+3V3*%
X38500000Y-80000000D03*
D15*
%TO.P,J5,2*%
%TO.N,POT1*%
X41040000Y-80000000D03*
%TO.P,J5,3*%
%TO.N,AGND*%
X43580000Y-80000000D03*
%TD*%
D13*
%TO.P,C4,1*%
%TO.N,POT2*%
X46000000Y-36000000D03*
%TO.P,C4,2*%
%TO.N,AGND*%
X51000000Y-36000000D03*
%TD*%
D14*
%TO.P,J6,1*%
%TO.N,+3V3*%
X48660000Y-80000000D03*
D15*
%TO.P,J6,2*%
%TO.N,POT2*%
X51200000Y-80000000D03*
%TO.P,J6,3*%
%TO.N,AGND*%
X53740000Y-80000000D03*
%TD*%
D19*
%TO.P,U2,1*%
%TO.N,N/C*%
X67000000Y-42000000D03*
D20*
%TO.P,U2,2*%
X69540000Y-42000000D03*
%TO.P,U2,3*%
%TO.N,LOUT_P*%
X72080000Y-42000000D03*
%TO.P,U2,4*%
%TO.N,LOUT_N*%
X74620000Y-42000000D03*
%TO.P,U2,5*%
%TO.N,GND*%
X79700000Y-42000000D03*
%TO.P,U2,6*%
%TO.N,+5V*%
X82240000Y-42000000D03*
%TO.P,U2,7*%
%TO.N,AMP_L*%
X87320000Y-42000000D03*
%TO.P,U2,8*%
%TO.N,GND*%
X89860000Y-42000000D03*
%TO.P,U2,9*%
%TO.N,AMP_R*%
X92400000Y-42000000D03*
%TD*%
D13*
%TO.P,R1,1*%
%TO.N,SYNC*%
X46000000Y-42000000D03*
%TO.P,R1,2*%
%TO.N,COMPOSITE*%
X48540000Y-42000000D03*
%TD*%
%TO.P,R6,1*%
%TO.N,AUD_C*%
X56000000Y-50000000D03*
%TO.P,R6,2*%
%TO.N,AMP_L*%
X58540000Y-50000000D03*
%TD*%
%TO.P,R4,1*%
%TO.N,AUD_C*%
X56000000Y-38000000D03*
%TO.P,R4,2*%
%TO.N,LINHA*%
X58540000Y-38000000D03*
%TD*%
%TO.P,C1,1*%
%TO.N,AUD_F*%
X46000000Y-60000000D03*
%TO.P,C1,2*%
%TO.N,GND*%
X51000000Y-60000000D03*
%TD*%
D10*
%TO.P,J8,1*%
%TO.N,RCA_C*%
X92500000Y-66000000D03*
D11*
%TO.P,J8,2*%
%TO.N,RCA_S*%
X92500000Y-61000000D03*
D12*
X97500000Y-66000000D03*
D11*
X92500000Y-71000000D03*
%TD*%
D13*
%TO.P,C3,1*%
%TO.N,POT1*%
X46000000Y-30000000D03*
%TO.P,C3,2*%
%TO.N,AGND*%
X51000000Y-30000000D03*
%TD*%
D14*
%TO.P,J7,1*%
%TO.N,START*%
X66000000Y-80000000D03*
D15*
%TO.P,J7,2*%
%TO.N,GND*%
X68540000Y-80000000D03*
%TD*%
D13*
%TO.P,R5,1*%
%TO.N,LINHA*%
X56000000Y-44000000D03*
%TO.P,R5,2*%
%TO.N,GND*%
X58540000Y-44000000D03*
%TD*%
%TO.P,R3,1*%
%TO.N,AUDIO_PWM*%
X46000000Y-54000000D03*
%TO.P,R3,2*%
%TO.N,AUD_F*%
X48540000Y-54000000D03*
%TD*%
D21*
%TO.P,C2,1*%
%TO.N,AUD_F*%
X56000000Y-31000000D03*
D13*
%TO.P,C2,2*%
%TO.N,AUD_C*%
X58500000Y-31000000D03*
%TD*%
D22*
%TO.N,LOUT_P*%
X72080000Y-74778900D03*
%TO.N,LOUT_N*%
X74620000Y-76666600D03*
%TO.N,START*%
X42931100Y-66250200D03*
X52250200Y-66250200D03*
%TO.N,POT2*%
X54270100Y-46775400D03*
%TO.N,AGND*%
X55617800Y-45314800D03*
%TD*%
%TO.N,RCA_C*%
D23*
X91575400Y-78075400D02*
X92500000Y-79000000D01*
X24029400Y-81165600D02*
X35207700Y-81165600D01*
X22000000Y-80000000D02*
X23151700Y-80000000D01*
X38297900Y-78075400D02*
X91575400Y-78075400D01*
X23151700Y-80287900D02*
X24029400Y-81165600D01*
X35207700Y-81165600D02*
X38297900Y-78075400D01*
X23151700Y-80000000D02*
X23151700Y-80287900D01*
%TO.N,RCA_S*%
X92500000Y-74000000D02*
X30540000Y-74000000D01*
X30540000Y-74000000D02*
X24540000Y-80000000D01*
%TO.N,VIDEO*%
X47101700Y-56736500D02*
X47101700Y-49101700D01*
X39749400Y-64335900D02*
X40172600Y-63912700D01*
X43948500Y-61153600D02*
X43948500Y-59889700D01*
X41189400Y-63912700D02*
X43948500Y-61153600D01*
X39749400Y-66589400D02*
X39749400Y-64335900D01*
X47101700Y-49101700D02*
X46000000Y-48000000D01*
X43948500Y-59889700D02*
X47101700Y-56736500D01*
X40880000Y-67720000D02*
X39749400Y-66589400D01*
X40172600Y-63912700D02*
X41189400Y-63912700D01*
%TO.N,COMPOSITE*%
X57438300Y-49847000D02*
X57438300Y-50461700D01*
X48540000Y-48000000D02*
X55591300Y-48000000D01*
X55591300Y-48000000D02*
X57438300Y-49847000D01*
X57438300Y-50461700D02*
X59976600Y-53000000D01*
X59976600Y-53000000D02*
X92500000Y-53000000D01*
%TO.N,AUD_C*%
X56000000Y-50000000D02*
X56000000Y-56000000D01*
%TO.N,AMP_R*%
X91808900Y-56000000D02*
X58540000Y-56000000D01*
X94557000Y-53251900D02*
X91808900Y-56000000D01*
X92400000Y-42000000D02*
X94557000Y-44157000D01*
X94557000Y-44157000D02*
X94557000Y-53251900D01*
%TO.N,LINHA*%
X58540000Y-41460000D02*
X56000000Y-44000000D01*
X58540000Y-38000000D02*
X58540000Y-41460000D01*
%TO.N,LOUT_P*%
X37381100Y-74778900D02*
X72080000Y-74778900D01*
X32160000Y-80000000D02*
X37381100Y-74778900D01*
%TO.N,LOUT_N*%
X34700000Y-80000000D02*
X38033400Y-76666600D01*
X38033400Y-76666600D02*
X74620000Y-76666600D01*
%TO.N,AUDIO_PWM*%
X43337800Y-60182200D02*
X40880000Y-62640000D01*
X46000000Y-54000000D02*
X43337800Y-56662200D01*
X43337800Y-56662200D02*
X43337800Y-60182200D01*
%TO.N,START*%
X42931100Y-66250200D02*
X52250200Y-66250200D01*
%TO.N,POT2*%
X40294400Y-38433900D02*
X39760500Y-38967800D01*
X40880000Y-42320000D02*
X45335400Y-46775400D01*
X46000000Y-36000000D02*
X43566100Y-38433900D01*
X45335400Y-46775400D02*
X54270100Y-46775400D01*
X39760500Y-41200500D02*
X40880000Y-42320000D01*
X39760500Y-38967800D02*
X39760500Y-41200500D01*
X43566100Y-38433900D02*
X40294400Y-38433900D01*
%TO.N,AGND*%
X47895200Y-39780000D02*
X48989100Y-38686100D01*
X52588300Y-81151700D02*
X44731700Y-81151700D01*
X48989100Y-38686100D02*
X55617800Y-45314800D01*
X51000000Y-36000000D02*
X48989100Y-38010900D01*
X48989100Y-38010900D02*
X48989100Y-38686100D01*
X44731700Y-81151700D02*
X43580000Y-80000000D01*
X40880000Y-39780000D02*
X47895200Y-39780000D01*
X53740000Y-80000000D02*
X52588300Y-81151700D01*
%TO.N,+3V3*%
X48660000Y-80000000D02*
X47508300Y-80000000D01*
X39651700Y-79712000D02*
X39651700Y-80000000D01*
X47508300Y-80000000D02*
X46356600Y-78848300D01*
X40515400Y-78848300D02*
X39651700Y-79712000D01*
X38500000Y-80000000D02*
X39651700Y-80000000D01*
X46356600Y-78848300D02*
X40515400Y-78848300D01*
%TO.N,+5V*%
X69139800Y-28899800D02*
X56099800Y-28899800D01*
X49200000Y-22000000D02*
X40880000Y-22000000D01*
X56099800Y-28899800D02*
X49200000Y-22000000D01*
X82240000Y-42000000D02*
X69139800Y-28899800D01*
%TO.N,AMP_L*%
X79320000Y-50000000D02*
X58540000Y-50000000D01*
X87320000Y-42000000D02*
X79320000Y-50000000D01*
%TD*%
%TA.AperFunction,Conductor*%
%TO.N,GND*%
G36*
X37081496Y-74370185D02*
G01*
X37127251Y-74422989D01*
X37137195Y-74492147D01*
X37108170Y-74555703D01*
X37102138Y-74562181D01*
X32672103Y-78992213D01*
X32610780Y-79025698D01*
X32541088Y-79020714D01*
X32536990Y-79019101D01*
X32466420Y-78989870D01*
X32466412Y-78989868D01*
X32263469Y-78949500D01*
X32263465Y-78949500D01*
X32056535Y-78949500D01*
X32056530Y-78949500D01*
X31853587Y-78989868D01*
X31853579Y-78989870D01*
X31662403Y-79069058D01*
X31490342Y-79184024D01*
X31344024Y-79330342D01*
X31229058Y-79502403D01*
X31149870Y-79693579D01*
X31149868Y-79693587D01*
X31109500Y-79896530D01*
X31109500Y-80103469D01*
X31149868Y-80306412D01*
X31149870Y-80306420D01*
X31229059Y-80497599D01*
X31312321Y-80622210D01*
X31333199Y-80688887D01*
X31314714Y-80756267D01*
X31262735Y-80802957D01*
X31209219Y-80815100D01*
X30692637Y-80815100D01*
X30625598Y-80795415D01*
X30579843Y-80742611D01*
X30569899Y-80673453D01*
X30592319Y-80618215D01*
X30603565Y-80602734D01*
X30685747Y-80441447D01*
X30685748Y-80441444D01*
X30741682Y-80269293D01*
X30770000Y-80090506D01*
X30770000Y-79909493D01*
X30741682Y-79730706D01*
X30685748Y-79558555D01*
X30685747Y-79558552D01*
X30603565Y-79397265D01*
X30562331Y-79340511D01*
X30562330Y-79340510D01*
X30088018Y-79814821D01*
X30085925Y-79807007D01*
X30020099Y-79692993D01*
X29927007Y-79599901D01*
X29812993Y-79534075D01*
X29805176Y-79531980D01*
X30279487Y-79057668D01*
X30279487Y-79057667D01*
X30222734Y-79016434D01*
X30061447Y-78934252D01*
X30061444Y-78934251D01*
X29889293Y-78878317D01*
X29710506Y-78850000D01*
X29529494Y-78850000D01*
X29350706Y-78878317D01*
X29178555Y-78934251D01*
X29178552Y-78934252D01*
X29017270Y-79016431D01*
X29017268Y-79016432D01*
X28960511Y-79057667D01*
X28960511Y-79057668D01*
X29434823Y-79531980D01*
X29427007Y-79534075D01*
X29312993Y-79599901D01*
X29219901Y-79692993D01*
X29154075Y-79807007D01*
X29151980Y-79814823D01*
X28677668Y-79340511D01*
X28677667Y-79340511D01*
X28636432Y-79397268D01*
X28636431Y-79397270D01*
X28554252Y-79558552D01*
X28554251Y-79558555D01*
X28498317Y-79730706D01*
X28470000Y-79909493D01*
X28470000Y-80090506D01*
X28498317Y-80269293D01*
X28554251Y-80441444D01*
X28554252Y-80441447D01*
X28636434Y-80602734D01*
X28647681Y-80618215D01*
X28671161Y-80684021D01*
X28655335Y-80752075D01*
X28605229Y-80800770D01*
X28547363Y-80815100D01*
X28030781Y-80815100D01*
X27963742Y-80795415D01*
X27917987Y-80742611D01*
X27908043Y-80673453D01*
X27927679Y-80622210D01*
X28001248Y-80512104D01*
X28010941Y-80497598D01*
X28090130Y-80306420D01*
X28130500Y-80103465D01*
X28130500Y-79896535D01*
X28090130Y-79693580D01*
X28010941Y-79502402D01*
X27895977Y-79330345D01*
X27895975Y-79330342D01*
X27749657Y-79184024D01*
X27581655Y-79071770D01*
X27577598Y-79069059D01*
X27550095Y-79057667D01*
X27386420Y-78989870D01*
X27386412Y-78989868D01*
X27183469Y-78949500D01*
X27183465Y-78949500D01*
X26976535Y-78949500D01*
X26976530Y-78949500D01*
X26773587Y-78989868D01*
X26773579Y-78989870D01*
X26582403Y-79069058D01*
X26410342Y-79184024D01*
X26264024Y-79330342D01*
X26149058Y-79502403D01*
X26069870Y-79693579D01*
X26069868Y-79693587D01*
X26029500Y-79896530D01*
X26029500Y-80103469D01*
X26069868Y-80306412D01*
X26069870Y-80306420D01*
X26149059Y-80497599D01*
X26232321Y-80622210D01*
X26253199Y-80688887D01*
X26234714Y-80756267D01*
X26182735Y-80802957D01*
X26129219Y-80815100D01*
X25490781Y-80815100D01*
X25423742Y-80795415D01*
X25377987Y-80742611D01*
X25368043Y-80673453D01*
X25387679Y-80622210D01*
X25461248Y-80512104D01*
X25470941Y-80497598D01*
X25550130Y-80306420D01*
X25590500Y-80103465D01*
X25590500Y-79896535D01*
X25550130Y-79693580D01*
X25520906Y-79623028D01*
X25513437Y-79553559D01*
X25544712Y-79491079D01*
X25547758Y-79487922D01*
X30648862Y-74386819D01*
X30710185Y-74353334D01*
X30736543Y-74350500D01*
X37014457Y-74350500D01*
X37081496Y-74370185D01*
G37*
%TD.AperFunction*%
%TA.AperFunction,Conductor*%
G36*
X89419890Y-42337708D02*
G01*
X89522292Y-42440110D01*
X89636686Y-42506154D01*
X89128918Y-43013922D01*
X89204856Y-43069095D01*
X89380164Y-43158418D01*
X89567294Y-43219221D01*
X89761618Y-43250000D01*
X89958382Y-43250000D01*
X90152705Y-43219221D01*
X90339835Y-43158418D01*
X90515143Y-43069095D01*
X90591079Y-43013922D01*
X90591080Y-43013921D01*
X90083313Y-42506154D01*
X90197708Y-42440110D01*
X90300110Y-42337708D01*
X90366154Y-42223313D01*
X90873921Y-42731080D01*
X90873922Y-42731079D01*
X90929095Y-42655143D01*
X91018418Y-42479835D01*
X91064378Y-42338387D01*
X91103815Y-42280712D01*
X91168174Y-42253513D01*
X91237020Y-42265428D01*
X91288496Y-42312672D01*
X91300240Y-42338387D01*
X91333787Y-42441636D01*
X91333788Y-42441639D01*
X91378508Y-42529404D01*
X91404367Y-42580156D01*
X91416006Y-42602997D01*
X91522441Y-42749494D01*
X91522445Y-42749499D01*
X91650500Y-42877554D01*
X91650505Y-42877558D01*
X91777395Y-42969748D01*
X91797006Y-42983996D01*
X91902484Y-43037740D01*
X91958360Y-43066211D01*
X91958363Y-43066212D01*
X91991511Y-43076982D01*
X92130591Y-43122171D01*
X92213429Y-43135291D01*
X92309449Y-43150500D01*
X92309454Y-43150500D01*
X92490551Y-43150500D01*
X92577259Y-43136765D01*
X92669409Y-43122171D01*
X92841639Y-43066211D01*
X92846751Y-43063606D01*
X92915416Y-43050709D01*
X92980157Y-43076982D01*
X92990727Y-43086409D01*
X94170181Y-44265863D01*
X94203666Y-44327186D01*
X94206500Y-44353544D01*
X94206500Y-46806528D01*
X94186815Y-46873567D01*
X94134011Y-46919322D01*
X94064853Y-46929266D01*
X94001297Y-46900241D01*
X93994819Y-46894209D01*
X93994614Y-46894004D01*
X93809966Y-46759849D01*
X93606604Y-46656230D01*
X93389544Y-46585704D01*
X93164116Y-46550000D01*
X92700000Y-46550000D01*
X92700000Y-47350000D01*
X92300000Y-47350000D01*
X92300000Y-46550000D01*
X91835884Y-46550000D01*
X91610455Y-46585704D01*
X91393395Y-46656230D01*
X91190033Y-46759849D01*
X91005385Y-46894004D01*
X90844004Y-47055385D01*
X90709849Y-47240033D01*
X90606230Y-47443395D01*
X90535704Y-47660455D01*
X90513603Y-47800000D01*
X91329288Y-47800000D01*
X91324979Y-47810402D01*
X91300000Y-47935981D01*
X91300000Y-48064019D01*
X91324979Y-48189598D01*
X91329288Y-48200000D01*
X90513603Y-48200000D01*
X90535704Y-48339544D01*
X90606230Y-48556604D01*
X90709849Y-48759966D01*
X90844004Y-48944614D01*
X91005385Y-49105995D01*
X91190033Y-49240150D01*
X91393395Y-49343769D01*
X91610455Y-49414295D01*
X91835884Y-49450000D01*
X92300000Y-49450000D01*
X92300000Y-48650000D01*
X92700000Y-48650000D01*
X92700000Y-49450000D01*
X93164116Y-49450000D01*
X93389544Y-49414295D01*
X93606604Y-49343769D01*
X93809966Y-49240150D01*
X93994614Y-49105995D01*
X93994819Y-49105791D01*
X93994915Y-49105738D01*
X93998316Y-49102834D01*
X93998926Y-49103548D01*
X94056142Y-49072306D01*
X94125834Y-49077290D01*
X94181767Y-49119162D01*
X94206184Y-49184626D01*
X94206500Y-49193472D01*
X94206500Y-52613438D01*
X94186815Y-52680477D01*
X94134011Y-52726232D01*
X94064853Y-52736176D01*
X94001297Y-52707151D01*
X93964569Y-52651757D01*
X93890566Y-52424003D01*
X93834002Y-52312991D01*
X93783343Y-52213567D01*
X93644517Y-52022490D01*
X93477510Y-51855483D01*
X93286433Y-51716657D01*
X93075996Y-51609433D01*
X92851368Y-51536446D01*
X92618097Y-51499500D01*
X92618092Y-51499500D01*
X92381908Y-51499500D01*
X92381903Y-51499500D01*
X92148631Y-51536446D01*
X91924003Y-51609433D01*
X91713566Y-51716657D01*
X91695152Y-51730036D01*
X91522490Y-51855483D01*
X91522488Y-51855485D01*
X91522487Y-51855485D01*
X91355485Y-52022487D01*
X91355485Y-52022488D01*
X91355483Y-52022490D01*
X91295862Y-52104550D01*
X91216657Y-52213566D01*
X91109433Y-52424005D01*
X91064005Y-52563818D01*
X91024567Y-52621494D01*
X90960209Y-52648692D01*
X90946074Y-52649500D01*
X60173143Y-52649500D01*
X60106104Y-52629815D01*
X60085462Y-52613181D01*
X59305453Y-51833172D01*
X58664320Y-51192039D01*
X58630837Y-51130718D01*
X58635821Y-51061026D01*
X58677693Y-51005093D01*
X58727812Y-50982743D01*
X58763272Y-50975689D01*
X58831835Y-50962051D01*
X59013914Y-50886632D01*
X59177782Y-50777139D01*
X59317139Y-50637782D01*
X59426632Y-50473914D01*
X59446044Y-50427046D01*
X59489884Y-50372645D01*
X59556178Y-50350579D01*
X59560605Y-50350500D01*
X79366142Y-50350500D01*
X79366144Y-50350500D01*
X79455288Y-50326614D01*
X79455638Y-50326412D01*
X79535212Y-50280470D01*
X86729273Y-43086407D01*
X86790594Y-43052924D01*
X86860286Y-43057908D01*
X86873246Y-43063605D01*
X86873955Y-43063966D01*
X86878363Y-43066212D01*
X86911511Y-43076982D01*
X87050591Y-43122171D01*
X87133429Y-43135291D01*
X87229449Y-43150500D01*
X87229454Y-43150500D01*
X87410551Y-43150500D01*
X87497259Y-43136765D01*
X87589409Y-43122171D01*
X87761639Y-43066211D01*
X87922994Y-42983996D01*
X88069501Y-42877553D01*
X88197553Y-42749501D01*
X88303996Y-42602994D01*
X88386211Y-42441639D01*
X88419759Y-42338388D01*
X88459196Y-42280712D01*
X88523554Y-42253513D01*
X88592401Y-42265427D01*
X88643877Y-42312671D01*
X88655621Y-42338386D01*
X88701582Y-42479837D01*
X88790904Y-42655143D01*
X88846076Y-42731079D01*
X88846077Y-42731080D01*
X89353844Y-42223312D01*
X89419890Y-42337708D01*
G37*
%TD.AperFunction*%
%TA.AperFunction,Conductor*%
G36*
X99442539Y-20520185D02*
G01*
X99488294Y-20572989D01*
X99499500Y-20624500D01*
X99499500Y-85375500D01*
X99479815Y-85442539D01*
X99427011Y-85488294D01*
X99375500Y-85499500D01*
X93588226Y-85499500D01*
X93521187Y-85479815D01*
X93475432Y-85427011D01*
X93465488Y-85357853D01*
X93494513Y-85294297D01*
X93549906Y-85257569D01*
X93568412Y-85251557D01*
X93757816Y-85155051D01*
X93779789Y-85139086D01*
X93929786Y-85030109D01*
X93929788Y-85030106D01*
X93929792Y-85030104D01*
X94080104Y-84879792D01*
X94080106Y-84879788D01*
X94080109Y-84879786D01*
X94205048Y-84707820D01*
X94205047Y-84707820D01*
X94205051Y-84707816D01*
X94301557Y-84518412D01*
X94367246Y-84316243D01*
X94400500Y-84106287D01*
X94400500Y-83893713D01*
X94367246Y-83683757D01*
X94301557Y-83481588D01*
X94205051Y-83292184D01*
X94205049Y-83292181D01*
X94205048Y-83292179D01*
X94080109Y-83120213D01*
X93929786Y-82969890D01*
X93757820Y-82844951D01*
X93568414Y-82748444D01*
X93568413Y-82748443D01*
X93568412Y-82748443D01*
X93366243Y-82682754D01*
X93366241Y-82682753D01*
X93366240Y-82682753D01*
X93204957Y-82657208D01*
X93156287Y-82649500D01*
X91843713Y-82649500D01*
X91795042Y-82657208D01*
X91633760Y-82682753D01*
X91431585Y-82748444D01*
X91242179Y-82844951D01*
X91070213Y-82969890D01*
X90919890Y-83120213D01*
X90794951Y-83292179D01*
X90698444Y-83481585D01*
X90632753Y-83683760D01*
X90599500Y-83893713D01*
X90599500Y-84106286D01*
X90632753Y-84316239D01*
X90698444Y-84518414D01*
X90794951Y-84707820D01*
X90919890Y-84879786D01*
X91070213Y-85030109D01*
X91242179Y-85155048D01*
X91242181Y-85155049D01*
X91242184Y-85155051D01*
X91431588Y-85251557D01*
X91450092Y-85257569D01*
X91507768Y-85297006D01*
X91534966Y-85361365D01*
X91523051Y-85430211D01*
X91475807Y-85481687D01*
X91411774Y-85499500D01*
X20624500Y-85499500D01*
X20557461Y-85479815D01*
X20511706Y-85427011D01*
X20500500Y-85375500D01*
X20500500Y-81878711D01*
X58149500Y-81878711D01*
X58149500Y-82121288D01*
X58181161Y-82361785D01*
X58243947Y-82596104D01*
X58279839Y-82682754D01*
X58336776Y-82820212D01*
X58458064Y-83030289D01*
X58458066Y-83030292D01*
X58458067Y-83030293D01*
X58605733Y-83222736D01*
X58605739Y-83222743D01*
X58777256Y-83394260D01*
X58777262Y-83394265D01*
X58969711Y-83541936D01*
X59179788Y-83663224D01*
X59403900Y-83756054D01*
X59638211Y-83818838D01*
X59818586Y-83842584D01*
X59878711Y-83850500D01*
X59878712Y-83850500D01*
X60121289Y-83850500D01*
X60169388Y-83844167D01*
X60361789Y-83818838D01*
X60596100Y-83756054D01*
X60820212Y-83663224D01*
X61030289Y-83541936D01*
X61222738Y-83394265D01*
X61394265Y-83222738D01*
X61541936Y-83030289D01*
X61663224Y-82820212D01*
X61756054Y-82596100D01*
X61818838Y-82361789D01*
X61850500Y-82121288D01*
X61850500Y-81878712D01*
X61818838Y-81638211D01*
X61756054Y-81403900D01*
X61663224Y-81179788D01*
X61541936Y-80969711D01*
X61423972Y-80815977D01*
X61394266Y-80777263D01*
X61394260Y-80777256D01*
X61222743Y-80605739D01*
X61222736Y-80605733D01*
X61030293Y-80458067D01*
X61030292Y-80458066D01*
X61030289Y-80458064D01*
X60843981Y-80350499D01*
X60820214Y-80336777D01*
X60820205Y-80336773D01*
X60596104Y-80243947D01*
X60478944Y-80212554D01*
X60361789Y-80181162D01*
X60361788Y-80181161D01*
X60361785Y-80181161D01*
X60121289Y-80149500D01*
X60121288Y-80149500D01*
X59878712Y-80149500D01*
X59878711Y-80149500D01*
X59638214Y-80181161D01*
X59403895Y-80243947D01*
X59179794Y-80336773D01*
X59179785Y-80336777D01*
X58969706Y-80458067D01*
X58777263Y-80605733D01*
X58777256Y-80605739D01*
X58605739Y-80777256D01*
X58605733Y-80777263D01*
X58458067Y-80969706D01*
X58458064Y-80969710D01*
X58458064Y-80969711D01*
X58451601Y-80980906D01*
X58336777Y-81179785D01*
X58336773Y-81179794D01*
X58243947Y-81403895D01*
X58181161Y-81638214D01*
X58149500Y-81878711D01*
X20500500Y-81878711D01*
X20500500Y-79130247D01*
X20949500Y-79130247D01*
X20949500Y-80869752D01*
X20961131Y-80928229D01*
X20961132Y-80928230D01*
X21005447Y-80994552D01*
X21071769Y-81038867D01*
X21071770Y-81038868D01*
X21130247Y-81050499D01*
X21130250Y-81050500D01*
X21130252Y-81050500D01*
X22869750Y-81050500D01*
X22869751Y-81050499D01*
X22884568Y-81047552D01*
X22928229Y-81038868D01*
X22928229Y-81038867D01*
X22928231Y-81038867D01*
X22994552Y-80994552D01*
X23038867Y-80928231D01*
X23038868Y-80928222D01*
X23043263Y-80917616D01*
X23087104Y-80863213D01*
X23153398Y-80841147D01*
X23221097Y-80858426D01*
X23245506Y-80877387D01*
X23748931Y-81380812D01*
X23814188Y-81446069D01*
X23814191Y-81446070D01*
X23814194Y-81446073D01*
X23894106Y-81492211D01*
X23894107Y-81492211D01*
X23894112Y-81492214D01*
X23983256Y-81516100D01*
X23983258Y-81516100D01*
X35253842Y-81516100D01*
X35253844Y-81516100D01*
X35342988Y-81492214D01*
X35422912Y-81446070D01*
X37237819Y-79631163D01*
X37299142Y-79597678D01*
X37368834Y-79602662D01*
X37424767Y-79644534D01*
X37449184Y-79709998D01*
X37449500Y-79718844D01*
X37449500Y-80869752D01*
X37461131Y-80928229D01*
X37461132Y-80928230D01*
X37505447Y-80994552D01*
X37571769Y-81038867D01*
X37571770Y-81038868D01*
X37630247Y-81050499D01*
X37630250Y-81050500D01*
X37630252Y-81050500D01*
X39369750Y-81050500D01*
X39369751Y-81050499D01*
X39384568Y-81047552D01*
X39428229Y-81038868D01*
X39428229Y-81038867D01*
X39428231Y-81038867D01*
X39494552Y-80994552D01*
X39538867Y-80928231D01*
X39538867Y-80928229D01*
X39538868Y-80928229D01*
X39547552Y-80884568D01*
X39550500Y-80869748D01*
X39550500Y-80474500D01*
X39570185Y-80407461D01*
X39622989Y-80361706D01*
X39674500Y-80350500D01*
X39697842Y-80350500D01*
X39697844Y-80350500D01*
X39786988Y-80326614D01*
X39786992Y-80326612D01*
X39803390Y-80317143D01*
X39866912Y-80280469D01*
X39866913Y-80280467D01*
X39867292Y-80280249D01*
X39935192Y-80263775D01*
X40001219Y-80286626D01*
X40043854Y-80340181D01*
X40068673Y-80400099D01*
X40095939Y-80465925D01*
X40109059Y-80497598D01*
X40118752Y-80512104D01*
X40224024Y-80669657D01*
X40370342Y-80815975D01*
X40370345Y-80815977D01*
X40542402Y-80930941D01*
X40733580Y-81010130D01*
X40878052Y-81038867D01*
X40936530Y-81050499D01*
X40936534Y-81050500D01*
X40936535Y-81050500D01*
X41143466Y-81050500D01*
X41143467Y-81050499D01*
X41346420Y-81010130D01*
X41537598Y-80930941D01*
X41709655Y-80815977D01*
X41855977Y-80669655D01*
X41970941Y-80497598D01*
X42050130Y-80306420D01*
X42090500Y-80103465D01*
X42090500Y-79896535D01*
X42050130Y-79693580D01*
X41970941Y-79502402D01*
X41896965Y-79391689D01*
X41876089Y-79325013D01*
X41894574Y-79257633D01*
X41946553Y-79210943D01*
X42000069Y-79198800D01*
X42619931Y-79198800D01*
X42686970Y-79218485D01*
X42732725Y-79271289D01*
X42742669Y-79340447D01*
X42723034Y-79391689D01*
X42717569Y-79399869D01*
X42649058Y-79502403D01*
X42569870Y-79693579D01*
X42569868Y-79693587D01*
X42529500Y-79896530D01*
X42529500Y-80103469D01*
X42569868Y-80306412D01*
X42569870Y-80306420D01*
X42635939Y-80465925D01*
X42649059Y-80497598D01*
X42658752Y-80512104D01*
X42764024Y-80669657D01*
X42910342Y-80815975D01*
X42910345Y-80815977D01*
X43082402Y-80930941D01*
X43273580Y-81010130D01*
X43418052Y-81038867D01*
X43476530Y-81050499D01*
X43476534Y-81050500D01*
X43476535Y-81050500D01*
X43683466Y-81050500D01*
X43683467Y-81050499D01*
X43886420Y-81010130D01*
X43956972Y-80980905D01*
X44026438Y-80973437D01*
X44088918Y-81004711D01*
X44092104Y-81007786D01*
X44516488Y-81432170D01*
X44516489Y-81432171D01*
X44516491Y-81432172D01*
X44540567Y-81446072D01*
X44596412Y-81478314D01*
X44685556Y-81502200D01*
X44685557Y-81502200D01*
X44685558Y-81502200D01*
X52634442Y-81502200D01*
X52634444Y-81502200D01*
X52723588Y-81478314D01*
X52803512Y-81432170D01*
X53227896Y-81007784D01*
X53289217Y-80974301D01*
X53358908Y-80979285D01*
X53363028Y-80980906D01*
X53433580Y-81010130D01*
X53578052Y-81038867D01*
X53636530Y-81050499D01*
X53636534Y-81050500D01*
X53636535Y-81050500D01*
X53843466Y-81050500D01*
X53843467Y-81050499D01*
X54046420Y-81010130D01*
X54237598Y-80930941D01*
X54409655Y-80815977D01*
X54555977Y-80669655D01*
X54670941Y-80497598D01*
X54750130Y-80306420D01*
X54790500Y-80103465D01*
X54790500Y-79896535D01*
X54750130Y-79693580D01*
X54670941Y-79502402D01*
X54555977Y-79330345D01*
X54555975Y-79330342D01*
X54409657Y-79184024D01*
X54329173Y-79130247D01*
X64949500Y-79130247D01*
X64949500Y-80869752D01*
X64961131Y-80928229D01*
X64961132Y-80928230D01*
X65005447Y-80994552D01*
X65071769Y-81038867D01*
X65071770Y-81038868D01*
X65130247Y-81050499D01*
X65130250Y-81050500D01*
X65130252Y-81050500D01*
X66869750Y-81050500D01*
X66869751Y-81050499D01*
X66884568Y-81047552D01*
X66928229Y-81038868D01*
X66928229Y-81038867D01*
X66928231Y-81038867D01*
X66994552Y-80994552D01*
X67038867Y-80928231D01*
X67048981Y-80877387D01*
X67050276Y-80870879D01*
X67050499Y-80869752D01*
X67050500Y-80869750D01*
X67050500Y-79909493D01*
X67390000Y-79909493D01*
X67390000Y-80090506D01*
X67418317Y-80269293D01*
X67474251Y-80441444D01*
X67474252Y-80441447D01*
X67556434Y-80602734D01*
X67597667Y-80659487D01*
X67597668Y-80659487D01*
X68071980Y-80185176D01*
X68074075Y-80192993D01*
X68139901Y-80307007D01*
X68232993Y-80400099D01*
X68347007Y-80465925D01*
X68354822Y-80468019D01*
X67880510Y-80942330D01*
X67880511Y-80942331D01*
X67937265Y-80983565D01*
X68098552Y-81065747D01*
X68098555Y-81065748D01*
X68270706Y-81121682D01*
X68449494Y-81150000D01*
X68630506Y-81150000D01*
X68809293Y-81121682D01*
X68981444Y-81065748D01*
X68981447Y-81065747D01*
X69142730Y-80983568D01*
X69199487Y-80942330D01*
X69199488Y-80942329D01*
X68725178Y-80468019D01*
X68732993Y-80465925D01*
X68847007Y-80400099D01*
X68940099Y-80307007D01*
X69005925Y-80192993D01*
X69008019Y-80185177D01*
X69482329Y-80659488D01*
X69482330Y-80659487D01*
X69523568Y-80602730D01*
X69605747Y-80441447D01*
X69605748Y-80441444D01*
X69661682Y-80269293D01*
X69690000Y-80090506D01*
X69690000Y-79909493D01*
X69661682Y-79730706D01*
X69605748Y-79558555D01*
X69605747Y-79558552D01*
X69523565Y-79397265D01*
X69482331Y-79340511D01*
X69482330Y-79340510D01*
X69008018Y-79814821D01*
X69005925Y-79807007D01*
X68940099Y-79692993D01*
X68847007Y-79599901D01*
X68732993Y-79534075D01*
X68725176Y-79531980D01*
X69199487Y-79057668D01*
X69199487Y-79057667D01*
X69142734Y-79016434D01*
X68981447Y-78934252D01*
X68981444Y-78934251D01*
X68809293Y-78878317D01*
X68630506Y-78850000D01*
X68449494Y-78850000D01*
X68270706Y-78878317D01*
X68098555Y-78934251D01*
X68098552Y-78934252D01*
X67937270Y-79016431D01*
X67937268Y-79016432D01*
X67880511Y-79057667D01*
X67880511Y-79057668D01*
X68354823Y-79531980D01*
X68347007Y-79534075D01*
X68232993Y-79599901D01*
X68139901Y-79692993D01*
X68074075Y-79807007D01*
X68071980Y-79814823D01*
X67597668Y-79340511D01*
X67597667Y-79340511D01*
X67556432Y-79397268D01*
X67556431Y-79397270D01*
X67474252Y-79558552D01*
X67474251Y-79558555D01*
X67418317Y-79730706D01*
X67390000Y-79909493D01*
X67050500Y-79909493D01*
X67050500Y-79130251D01*
X67050275Y-79129120D01*
X67050275Y-79129118D01*
X67038868Y-79071770D01*
X67038867Y-79071769D01*
X66994552Y-79005447D01*
X66928230Y-78961132D01*
X66928229Y-78961131D01*
X66869752Y-78949500D01*
X66869748Y-78949500D01*
X65130252Y-78949500D01*
X65130247Y-78949500D01*
X65071770Y-78961131D01*
X65071769Y-78961132D01*
X65005447Y-79005447D01*
X64961132Y-79071769D01*
X64961131Y-79071770D01*
X64949500Y-79130247D01*
X54329173Y-79130247D01*
X54241655Y-79071770D01*
X54237598Y-79069059D01*
X54210095Y-79057667D01*
X54046420Y-78989870D01*
X54046412Y-78989868D01*
X53843469Y-78949500D01*
X53843465Y-78949500D01*
X53636535Y-78949500D01*
X53636530Y-78949500D01*
X53433587Y-78989868D01*
X53433579Y-78989870D01*
X53242403Y-79069058D01*
X53070342Y-79184024D01*
X52924024Y-79330342D01*
X52809058Y-79502403D01*
X52729870Y-79693579D01*
X52729868Y-79693587D01*
X52689500Y-79896530D01*
X52689500Y-80103469D01*
X52729868Y-80306412D01*
X52729870Y-80306420D01*
X52759093Y-80376970D01*
X52766562Y-80446440D01*
X52735287Y-80508919D01*
X52732213Y-80512104D01*
X52479437Y-80764881D01*
X52452509Y-80779584D01*
X52426691Y-80796177D01*
X52420490Y-80797068D01*
X52418114Y-80798366D01*
X52391756Y-80801200D01*
X52160069Y-80801200D01*
X52093030Y-80781515D01*
X52047275Y-80728711D01*
X52037331Y-80659553D01*
X52056966Y-80608310D01*
X52060692Y-80602734D01*
X52130941Y-80497598D01*
X52210130Y-80306420D01*
X52250500Y-80103465D01*
X52250500Y-79896535D01*
X52210130Y-79693580D01*
X52130941Y-79502402D01*
X52015977Y-79330345D01*
X52015975Y-79330342D01*
X51869657Y-79184024D01*
X51701655Y-79071770D01*
X51697598Y-79069059D01*
X51670095Y-79057667D01*
X51506420Y-78989870D01*
X51506412Y-78989868D01*
X51303469Y-78949500D01*
X51303465Y-78949500D01*
X51096535Y-78949500D01*
X51096530Y-78949500D01*
X50893587Y-78989868D01*
X50893579Y-78989870D01*
X50702403Y-79069058D01*
X50530342Y-79184024D01*
X50384024Y-79330342D01*
X50269058Y-79502403D01*
X50189870Y-79693579D01*
X50189868Y-79693587D01*
X50149500Y-79896530D01*
X50149500Y-80103469D01*
X50189868Y-80306412D01*
X50189870Y-80306420D01*
X50255939Y-80465925D01*
X50269059Y-80497598D01*
X50339308Y-80602734D01*
X50343034Y-80608310D01*
X50363911Y-80674987D01*
X50345426Y-80742367D01*
X50293447Y-80789057D01*
X50239931Y-80801200D01*
X49834500Y-80801200D01*
X49767461Y-80781515D01*
X49721706Y-80728711D01*
X49710500Y-80677200D01*
X49710500Y-79130249D01*
X49710499Y-79130247D01*
X49698868Y-79071770D01*
X49698867Y-79071769D01*
X49654552Y-79005447D01*
X49588230Y-78961132D01*
X49588229Y-78961131D01*
X49529752Y-78949500D01*
X49529748Y-78949500D01*
X47790252Y-78949500D01*
X47790247Y-78949500D01*
X47731770Y-78961131D01*
X47731769Y-78961132D01*
X47665447Y-79005447D01*
X47621132Y-79071769D01*
X47621131Y-79071770D01*
X47609500Y-79130247D01*
X47609500Y-79306156D01*
X47589815Y-79373195D01*
X47537011Y-79418950D01*
X47467853Y-79428894D01*
X47404297Y-79399869D01*
X47397819Y-79393837D01*
X46641563Y-78637581D01*
X46608078Y-78576258D01*
X46613062Y-78506566D01*
X46654934Y-78450633D01*
X46720398Y-78426216D01*
X46729244Y-78425900D01*
X90938145Y-78425900D01*
X91005184Y-78445585D01*
X91050939Y-78498389D01*
X91060883Y-78567547D01*
X91056076Y-78588218D01*
X91036447Y-78648627D01*
X91036447Y-78648630D01*
X90999500Y-78881902D01*
X90999500Y-79118097D01*
X91036446Y-79351368D01*
X91109433Y-79575996D01*
X91191105Y-79736285D01*
X91216657Y-79786433D01*
X91355483Y-79977510D01*
X91522490Y-80144517D01*
X91713567Y-80283343D01*
X91798487Y-80326612D01*
X91924003Y-80390566D01*
X91924005Y-80390566D01*
X91924008Y-80390568D01*
X92023789Y-80422989D01*
X92148631Y-80463553D01*
X92381903Y-80500500D01*
X92381908Y-80500500D01*
X92618097Y-80500500D01*
X92851368Y-80463553D01*
X92868261Y-80458064D01*
X93075992Y-80390568D01*
X93286433Y-80283343D01*
X93477510Y-80144517D01*
X93644517Y-79977510D01*
X93783343Y-79786433D01*
X93890568Y-79575992D01*
X93963553Y-79351368D01*
X93981965Y-79235119D01*
X94000500Y-79118097D01*
X94000500Y-78881902D01*
X93963553Y-78648631D01*
X93914736Y-78498389D01*
X93890568Y-78424008D01*
X93890566Y-78424005D01*
X93890566Y-78424003D01*
X93875857Y-78395136D01*
X93849656Y-78343713D01*
X96149500Y-78343713D01*
X96149500Y-79656286D01*
X96182511Y-79864712D01*
X96182754Y-79866243D01*
X96243675Y-80053739D01*
X96248444Y-80068414D01*
X96344951Y-80257820D01*
X96469890Y-80429786D01*
X96620213Y-80580109D01*
X96792179Y-80705048D01*
X96792181Y-80705049D01*
X96792184Y-80705051D01*
X96981588Y-80801557D01*
X97183757Y-80867246D01*
X97393713Y-80900500D01*
X97393714Y-80900500D01*
X97606286Y-80900500D01*
X97606287Y-80900500D01*
X97816243Y-80867246D01*
X98018412Y-80801557D01*
X98207816Y-80705051D01*
X98321838Y-80622210D01*
X98379786Y-80580109D01*
X98379788Y-80580106D01*
X98379792Y-80580104D01*
X98530104Y-80429792D01*
X98530106Y-80429788D01*
X98530109Y-80429786D01*
X98639086Y-80279789D01*
X98655051Y-80257816D01*
X98751557Y-80068412D01*
X98817246Y-79866243D01*
X98850500Y-79656287D01*
X98850500Y-78343713D01*
X98817246Y-78133757D01*
X98751557Y-77931588D01*
X98655051Y-77742184D01*
X98655049Y-77742181D01*
X98655048Y-77742179D01*
X98530109Y-77570213D01*
X98379786Y-77419890D01*
X98207820Y-77294951D01*
X98018414Y-77198444D01*
X98018413Y-77198443D01*
X98018412Y-77198443D01*
X97816243Y-77132754D01*
X97816241Y-77132753D01*
X97816240Y-77132753D01*
X97654309Y-77107106D01*
X97606287Y-77099500D01*
X97393713Y-77099500D01*
X97345691Y-77107106D01*
X97183760Y-77132753D01*
X96981585Y-77198444D01*
X96792179Y-77294951D01*
X96620213Y-77419890D01*
X96469890Y-77570213D01*
X96344951Y-77742179D01*
X96248444Y-77931585D01*
X96182753Y-78133760D01*
X96149500Y-78343713D01*
X93849656Y-78343713D01*
X93783342Y-78213566D01*
X93644517Y-78022490D01*
X93477510Y-77855483D01*
X93286433Y-77716657D01*
X93286339Y-77716609D01*
X93075996Y-77609433D01*
X92851368Y-77536446D01*
X92618097Y-77499500D01*
X92618092Y-77499500D01*
X92381908Y-77499500D01*
X92381903Y-77499500D01*
X92148631Y-77536446D01*
X91924003Y-77609433D01*
X91757280Y-77694383D01*
X91713660Y-77716609D01*
X91644993Y-77729505D01*
X91625275Y-77725899D01*
X91621549Y-77724900D01*
X91621544Y-77724900D01*
X38251756Y-77724900D01*
X38251754Y-77724900D01*
X38187252Y-77742182D01*
X38187253Y-77742183D01*
X38162614Y-77748785D01*
X38162609Y-77748787D01*
X38082691Y-77794927D01*
X38082686Y-77794931D01*
X35952796Y-79924821D01*
X35891473Y-79958306D01*
X35821781Y-79953322D01*
X35765848Y-79911450D01*
X35743498Y-79861331D01*
X35717515Y-79730706D01*
X35710130Y-79693580D01*
X35680906Y-79623028D01*
X35673437Y-79553559D01*
X35704712Y-79491079D01*
X35707757Y-79487923D01*
X38142263Y-77053419D01*
X38203586Y-77019934D01*
X38229944Y-77017100D01*
X74140614Y-77017100D01*
X74207653Y-77036785D01*
X74228295Y-77053419D01*
X74281985Y-77107109D01*
X74281986Y-77107110D01*
X74281988Y-77107111D01*
X74407511Y-77179582D01*
X74407512Y-77179582D01*
X74407515Y-77179584D01*
X74547525Y-77217100D01*
X74547528Y-77217100D01*
X74692472Y-77217100D01*
X74692475Y-77217100D01*
X74832485Y-77179584D01*
X74958015Y-77107109D01*
X75060509Y-77004615D01*
X75132984Y-76879085D01*
X75170500Y-76739075D01*
X75170500Y-76594125D01*
X75132984Y-76454115D01*
X75093734Y-76386133D01*
X75060511Y-76328588D01*
X75060506Y-76328582D01*
X74958017Y-76226093D01*
X74958011Y-76226088D01*
X74832488Y-76153617D01*
X74832489Y-76153617D01*
X74821006Y-76150540D01*
X74692475Y-76116100D01*
X74547525Y-76116100D01*
X74418993Y-76150540D01*
X74407511Y-76153617D01*
X74281988Y-76226088D01*
X74281982Y-76226093D01*
X74228295Y-76279781D01*
X74166972Y-76313266D01*
X74140614Y-76316100D01*
X37987256Y-76316100D01*
X37898111Y-76339986D01*
X37818187Y-76386131D01*
X37818184Y-76386133D01*
X35212103Y-78992213D01*
X35150780Y-79025698D01*
X35081088Y-79020714D01*
X35076990Y-79019101D01*
X35006420Y-78989870D01*
X35006412Y-78989868D01*
X34803469Y-78949500D01*
X34803465Y-78949500D01*
X34596535Y-78949500D01*
X34596530Y-78949500D01*
X34393587Y-78989868D01*
X34393579Y-78989870D01*
X34202403Y-79069058D01*
X34030342Y-79184024D01*
X33884024Y-79330342D01*
X33769058Y-79502403D01*
X33689870Y-79693579D01*
X33689868Y-79693587D01*
X33649500Y-79896530D01*
X33649500Y-80103469D01*
X33689868Y-80306412D01*
X33689870Y-80306420D01*
X33769059Y-80497599D01*
X33852321Y-80622210D01*
X33873199Y-80688887D01*
X33854714Y-80756267D01*
X33802735Y-80802957D01*
X33749219Y-80815100D01*
X33110781Y-80815100D01*
X33043742Y-80795415D01*
X32997987Y-80742611D01*
X32988043Y-80673453D01*
X33007679Y-80622210D01*
X33081248Y-80512104D01*
X33090941Y-80497598D01*
X33170130Y-80306420D01*
X33210500Y-80103465D01*
X33210500Y-79896535D01*
X33170130Y-79693580D01*
X33140906Y-79623028D01*
X33133437Y-79553559D01*
X33164712Y-79491079D01*
X33167758Y-79487922D01*
X37489962Y-75165719D01*
X37551285Y-75132234D01*
X37577643Y-75129400D01*
X71600614Y-75129400D01*
X71667653Y-75149085D01*
X71688295Y-75165719D01*
X71741985Y-75219409D01*
X71741986Y-75219410D01*
X71741988Y-75219411D01*
X71867511Y-75291882D01*
X71867512Y-75291882D01*
X71867515Y-75291884D01*
X72007525Y-75329400D01*
X72007528Y-75329400D01*
X72152472Y-75329400D01*
X72152475Y-75329400D01*
X72292485Y-75291884D01*
X72418015Y-75219409D01*
X72520509Y-75116915D01*
X72592984Y-74991385D01*
X72630500Y-74851375D01*
X72630500Y-74706425D01*
X72592984Y-74566415D01*
X72592982Y-74566411D01*
X72575713Y-74536500D01*
X72559240Y-74468600D01*
X72582092Y-74402573D01*
X72637013Y-74359383D01*
X72683100Y-74350500D01*
X90553794Y-74350500D01*
X90620833Y-74370185D01*
X90666588Y-74422989D01*
X90671723Y-74436179D01*
X90676957Y-74452286D01*
X90698444Y-74518414D01*
X90794951Y-74707820D01*
X90919890Y-74879786D01*
X91070213Y-75030109D01*
X91242179Y-75155048D01*
X91242181Y-75155049D01*
X91242184Y-75155051D01*
X91431588Y-75251557D01*
X91633757Y-75317246D01*
X91843713Y-75350500D01*
X91843714Y-75350500D01*
X93156286Y-75350500D01*
X93156287Y-75350500D01*
X93366243Y-75317246D01*
X93568412Y-75251557D01*
X93757816Y-75155051D01*
X93810312Y-75116911D01*
X93929786Y-75030109D01*
X93929788Y-75030106D01*
X93929792Y-75030104D01*
X94080104Y-74879792D01*
X94080106Y-74879788D01*
X94080109Y-74879786D01*
X94205048Y-74707820D01*
X94205047Y-74707820D01*
X94205051Y-74707816D01*
X94301557Y-74518412D01*
X94367246Y-74316243D01*
X94400500Y-74106287D01*
X94400500Y-73893713D01*
X94367246Y-73683757D01*
X94301557Y-73481588D01*
X94205051Y-73292184D01*
X94205049Y-73292181D01*
X94205048Y-73292179D01*
X94080109Y-73120213D01*
X93929786Y-72969890D01*
X93757820Y-72844951D01*
X93568414Y-72748444D01*
X93568413Y-72748443D01*
X93568412Y-72748443D01*
X93366243Y-72682754D01*
X93366241Y-72682753D01*
X93366240Y-72682753D01*
X93204957Y-72657208D01*
X93156287Y-72649500D01*
X91843713Y-72649500D01*
X91795042Y-72657208D01*
X91633760Y-72682753D01*
X91431585Y-72748444D01*
X91242179Y-72844951D01*
X91070213Y-72969890D01*
X90919890Y-73120213D01*
X90794951Y-73292179D01*
X90698444Y-73481585D01*
X90671725Y-73563818D01*
X90632287Y-73621494D01*
X90567929Y-73648692D01*
X90553794Y-73649500D01*
X30493856Y-73649500D01*
X30404712Y-73673386D01*
X30404711Y-73673386D01*
X30404709Y-73673387D01*
X30404706Y-73673388D01*
X30324794Y-73719526D01*
X30324785Y-73719533D01*
X25052103Y-78992213D01*
X24990780Y-79025698D01*
X24921088Y-79020714D01*
X24916990Y-79019101D01*
X24846420Y-78989870D01*
X24846412Y-78989868D01*
X24643469Y-78949500D01*
X24643465Y-78949500D01*
X24436535Y-78949500D01*
X24436530Y-78949500D01*
X24233587Y-78989868D01*
X24233579Y-78989870D01*
X24042403Y-79069058D01*
X23870342Y-79184024D01*
X23724024Y-79330342D01*
X23609057Y-79502403D01*
X23543855Y-79659817D01*
X23500014Y-79714220D01*
X23433720Y-79736285D01*
X23367293Y-79719751D01*
X23321976Y-79693587D01*
X23286988Y-79673386D01*
X23197844Y-79649500D01*
X23197843Y-79649500D01*
X23174500Y-79649500D01*
X23107461Y-79629815D01*
X23061706Y-79577011D01*
X23050500Y-79525500D01*
X23050500Y-79130249D01*
X23050499Y-79130247D01*
X23038868Y-79071770D01*
X23038867Y-79071769D01*
X22994552Y-79005447D01*
X22928230Y-78961132D01*
X22928229Y-78961131D01*
X22869752Y-78949500D01*
X22869748Y-78949500D01*
X21130252Y-78949500D01*
X21130247Y-78949500D01*
X21071770Y-78961131D01*
X21071769Y-78961132D01*
X21005447Y-79005447D01*
X20961132Y-79071769D01*
X20961131Y-79071770D01*
X20949500Y-79130247D01*
X20500500Y-79130247D01*
X20500500Y-70358543D01*
X22099499Y-70358543D01*
X22137947Y-70551829D01*
X22137950Y-70551839D01*
X22213364Y-70733907D01*
X22213371Y-70733920D01*
X22322860Y-70897781D01*
X22322863Y-70897785D01*
X22462214Y-71037136D01*
X22462218Y-71037139D01*
X22626079Y-71146628D01*
X22626092Y-71146635D01*
X22708085Y-71180597D01*
X22808165Y-71222051D01*
X22808169Y-71222051D01*
X22808170Y-71222052D01*
X23001456Y-71260500D01*
X23001459Y-71260500D01*
X23198543Y-71260500D01*
X23328582Y-71234632D01*
X23391835Y-71222051D01*
X23573914Y-71146632D01*
X23737782Y-71037139D01*
X23877139Y-70897782D01*
X23986632Y-70733914D01*
X24062051Y-70551835D01*
X24100500Y-70358541D01*
X24100500Y-70161459D01*
X24100500Y-70161456D01*
X24062052Y-69968170D01*
X24062051Y-69968169D01*
X24062051Y-69968165D01*
X24062049Y-69968160D01*
X23986635Y-69786092D01*
X23986628Y-69786079D01*
X23877139Y-69622218D01*
X23877136Y-69622214D01*
X23737785Y-69482863D01*
X23737781Y-69482860D01*
X23573920Y-69373371D01*
X23573907Y-69373364D01*
X23391839Y-69297950D01*
X23391829Y-69297947D01*
X23198543Y-69259500D01*
X23198541Y-69259500D01*
X23001459Y-69259500D01*
X23001457Y-69259500D01*
X22808170Y-69297947D01*
X22808160Y-69297950D01*
X22626092Y-69373364D01*
X22626079Y-69373371D01*
X22462218Y-69482860D01*
X22462214Y-69482863D01*
X22322863Y-69622214D01*
X22322860Y-69622218D01*
X22213371Y-69786079D01*
X22213364Y-69786092D01*
X22137950Y-69968160D01*
X22137947Y-69968170D01*
X22099500Y-70161456D01*
X22099500Y-70161459D01*
X22099500Y-70358541D01*
X22099500Y-70358543D01*
X22099499Y-70358543D01*
X20500500Y-70358543D01*
X20500500Y-67818543D01*
X22099499Y-67818543D01*
X22137947Y-68011829D01*
X22137950Y-68011839D01*
X22213364Y-68193907D01*
X22213371Y-68193920D01*
X22322860Y-68357781D01*
X22322863Y-68357785D01*
X22462214Y-68497136D01*
X22462218Y-68497139D01*
X22626079Y-68606628D01*
X22626092Y-68606635D01*
X22808160Y-68682049D01*
X22808165Y-68682051D01*
X22808169Y-68682051D01*
X22808170Y-68682052D01*
X23001456Y-68720500D01*
X23001459Y-68720500D01*
X23198543Y-68720500D01*
X23328582Y-68694632D01*
X23391835Y-68682051D01*
X23573914Y-68606632D01*
X23737782Y-68497139D01*
X23877139Y-68357782D01*
X23986632Y-68193914D01*
X24062051Y-68011835D01*
X24100500Y-67818541D01*
X24100500Y-67621459D01*
X24100500Y-67621456D01*
X24070352Y-67469895D01*
X24890000Y-67469895D01*
X29542057Y-71082663D01*
X29582931Y-71139327D01*
X29590000Y-71180597D01*
X29590000Y-72130000D01*
X34390000Y-72130000D01*
X34390000Y-71180597D01*
X34409685Y-71113558D01*
X34437941Y-71082664D01*
X35370371Y-70358543D01*
X39879499Y-70358543D01*
X39917947Y-70551829D01*
X39917950Y-70551839D01*
X39993364Y-70733907D01*
X39993371Y-70733920D01*
X40102860Y-70897781D01*
X40102863Y-70897785D01*
X40242214Y-71037136D01*
X40242218Y-71037139D01*
X40406079Y-71146628D01*
X40406092Y-71146635D01*
X40488085Y-71180597D01*
X40588165Y-71222051D01*
X40588169Y-71222051D01*
X40588170Y-71222052D01*
X40781456Y-71260500D01*
X40781459Y-71260500D01*
X40978543Y-71260500D01*
X41108582Y-71234632D01*
X41171835Y-71222051D01*
X41353914Y-71146632D01*
X41517782Y-71037139D01*
X41657139Y-70897782D01*
X41659858Y-70893713D01*
X90599500Y-70893713D01*
X90599500Y-71106286D01*
X90632753Y-71316239D01*
X90698444Y-71518414D01*
X90794951Y-71707820D01*
X90919890Y-71879786D01*
X91070213Y-72030109D01*
X91242179Y-72155048D01*
X91242181Y-72155049D01*
X91242184Y-72155051D01*
X91431588Y-72251557D01*
X91633757Y-72317246D01*
X91843713Y-72350500D01*
X91843714Y-72350500D01*
X93156286Y-72350500D01*
X93156287Y-72350500D01*
X93366243Y-72317246D01*
X93568412Y-72251557D01*
X93757816Y-72155051D01*
X93792296Y-72130000D01*
X93929786Y-72030109D01*
X93929788Y-72030106D01*
X93929792Y-72030104D01*
X94080104Y-71879792D01*
X94080106Y-71879788D01*
X94080109Y-71879786D01*
X94205048Y-71707820D01*
X94205047Y-71707820D01*
X94205051Y-71707816D01*
X94301557Y-71518412D01*
X94367246Y-71316243D01*
X94400500Y-71106287D01*
X94400500Y-70893713D01*
X94367246Y-70683757D01*
X94301557Y-70481588D01*
X94205051Y-70292184D01*
X94205049Y-70292181D01*
X94205048Y-70292179D01*
X94080109Y-70120213D01*
X93929786Y-69969890D01*
X93757820Y-69844951D01*
X93568414Y-69748444D01*
X93568413Y-69748443D01*
X93568412Y-69748443D01*
X93366243Y-69682754D01*
X93366241Y-69682753D01*
X93366240Y-69682753D01*
X93204957Y-69657208D01*
X93156287Y-69649500D01*
X91843713Y-69649500D01*
X91795042Y-69657208D01*
X91633760Y-69682753D01*
X91431585Y-69748444D01*
X91242179Y-69844951D01*
X91070213Y-69969890D01*
X90919890Y-70120213D01*
X90794951Y-70292179D01*
X90698444Y-70481585D01*
X90632753Y-70683760D01*
X90599500Y-70893713D01*
X41659858Y-70893713D01*
X41766632Y-70733914D01*
X41842051Y-70551835D01*
X41880500Y-70358541D01*
X41880500Y-70161459D01*
X41880500Y-70161456D01*
X41842052Y-69968170D01*
X41842051Y-69968169D01*
X41842051Y-69968165D01*
X41842049Y-69968160D01*
X41766635Y-69786092D01*
X41766628Y-69786079D01*
X41657139Y-69622218D01*
X41657136Y-69622214D01*
X41517785Y-69482863D01*
X41517781Y-69482860D01*
X41353920Y-69373371D01*
X41353907Y-69373364D01*
X41171839Y-69297950D01*
X41171829Y-69297947D01*
X40978543Y-69259500D01*
X40978541Y-69259500D01*
X40781459Y-69259500D01*
X40781457Y-69259500D01*
X40588170Y-69297947D01*
X40588160Y-69297950D01*
X40406092Y-69373364D01*
X40406079Y-69373371D01*
X40242218Y-69482860D01*
X40242214Y-69482863D01*
X40102863Y-69622214D01*
X40102860Y-69622218D01*
X39993371Y-69786079D01*
X39993364Y-69786092D01*
X39917950Y-69968160D01*
X39917947Y-69968170D01*
X39879500Y-70161456D01*
X39879500Y-70161459D01*
X39879500Y-70358541D01*
X39879500Y-70358543D01*
X39879499Y-70358543D01*
X35370371Y-70358543D01*
X39090000Y-67469895D01*
X39090000Y-64289756D01*
X39398900Y-64289756D01*
X39398900Y-64289758D01*
X39398900Y-66635543D01*
X39421396Y-66719501D01*
X39421396Y-66719502D01*
X39422785Y-66724686D01*
X39468927Y-66804608D01*
X39468931Y-66804613D01*
X39910482Y-67246164D01*
X39943967Y-67307487D01*
X39938983Y-67377179D01*
X39937362Y-67381297D01*
X39917949Y-67428163D01*
X39917947Y-67428171D01*
X39879500Y-67621456D01*
X39879500Y-67621459D01*
X39879500Y-67818541D01*
X39879500Y-67818543D01*
X39879499Y-67818543D01*
X39917947Y-68011829D01*
X39917950Y-68011839D01*
X39993364Y-68193907D01*
X39993371Y-68193920D01*
X40102860Y-68357781D01*
X40102863Y-68357785D01*
X40242214Y-68497136D01*
X40242218Y-68497139D01*
X40406079Y-68606628D01*
X40406092Y-68606635D01*
X40588160Y-68682049D01*
X40588165Y-68682051D01*
X40588169Y-68682051D01*
X40588170Y-68682052D01*
X40781456Y-68720500D01*
X40781459Y-68720500D01*
X40978543Y-68720500D01*
X41108582Y-68694632D01*
X41171835Y-68682051D01*
X41353914Y-68606632D01*
X41517782Y-68497139D01*
X41657139Y-68357782D01*
X41766632Y-68193914D01*
X41842051Y-68011835D01*
X41880500Y-67818541D01*
X41880500Y-67621459D01*
X41880500Y-67621456D01*
X41842052Y-67428170D01*
X41842051Y-67428169D01*
X41842051Y-67428165D01*
X41792065Y-67307487D01*
X41766635Y-67246092D01*
X41766628Y-67246079D01*
X41657139Y-67082218D01*
X41657136Y-67082214D01*
X41517785Y-66942863D01*
X41517781Y-66942860D01*
X41353920Y-66833371D01*
X41353907Y-66833364D01*
X41171839Y-66757950D01*
X41171829Y-66757947D01*
X40978543Y-66719500D01*
X40978541Y-66719500D01*
X40781459Y-66719500D01*
X40781457Y-66719500D01*
X40588171Y-66757947D01*
X40588163Y-66757949D01*
X40541297Y-66777362D01*
X40471827Y-66784831D01*
X40409348Y-66753555D01*
X40406164Y-66750482D01*
X40152363Y-66496681D01*
X40118878Y-66435358D01*
X40123862Y-66365666D01*
X40165734Y-66309733D01*
X40231198Y-66285316D01*
X40240044Y-66285000D01*
X40958791Y-66285000D01*
X41018281Y-66279141D01*
X41018285Y-66279141D01*
X41172848Y-66248398D01*
X41230072Y-66231039D01*
X41358781Y-66177725D01*
X42380600Y-66177725D01*
X42380600Y-66322675D01*
X42392120Y-66365666D01*
X42418117Y-66462688D01*
X42490588Y-66588211D01*
X42490590Y-66588213D01*
X42490591Y-66588215D01*
X42593085Y-66690709D01*
X42593086Y-66690710D01*
X42593088Y-66690711D01*
X42718611Y-66763182D01*
X42718612Y-66763182D01*
X42718615Y-66763184D01*
X42858625Y-66800700D01*
X42858628Y-66800700D01*
X43003572Y-66800700D01*
X43003575Y-66800700D01*
X43143585Y-66763184D01*
X43269115Y-66690709D01*
X43322805Y-66637019D01*
X43384128Y-66603534D01*
X43410486Y-66600700D01*
X51770814Y-66600700D01*
X51837853Y-66620385D01*
X51858495Y-66637019D01*
X51912185Y-66690709D01*
X51912186Y-66690710D01*
X51912188Y-66690711D01*
X52037711Y-66763182D01*
X52037712Y-66763182D01*
X52037715Y-66763184D01*
X52177725Y-66800700D01*
X52177728Y-66800700D01*
X52322672Y-66800700D01*
X52322675Y-66800700D01*
X52462685Y-66763184D01*
X52588215Y-66690709D01*
X52690709Y-66588215D01*
X52763184Y-66462685D01*
X52800700Y-66322675D01*
X52800700Y-66177725D01*
X52763184Y-66037715D01*
X52722074Y-65966510D01*
X52706212Y-65939036D01*
X52706211Y-65939034D01*
X52690713Y-65912191D01*
X52690710Y-65912188D01*
X52690709Y-65912185D01*
X52660426Y-65881902D01*
X90999500Y-65881902D01*
X90999500Y-66118097D01*
X91036446Y-66351368D01*
X91109433Y-66575996D01*
X91167883Y-66690709D01*
X91216657Y-66786433D01*
X91355483Y-66977510D01*
X91522490Y-67144517D01*
X91713567Y-67283343D01*
X91812991Y-67334002D01*
X91924003Y-67390566D01*
X91924005Y-67390566D01*
X91924008Y-67390568D01*
X92039704Y-67428160D01*
X92148631Y-67463553D01*
X92381903Y-67500500D01*
X92381908Y-67500500D01*
X92618097Y-67500500D01*
X92851368Y-67463553D01*
X93075992Y-67390568D01*
X93286433Y-67283343D01*
X93477510Y-67144517D01*
X93644517Y-66977510D01*
X93783343Y-66786433D01*
X93890568Y-66575992D01*
X93963553Y-66351368D01*
X94000500Y-66118097D01*
X94000500Y-65881902D01*
X93963553Y-65648631D01*
X93890566Y-65424003D01*
X93875857Y-65395136D01*
X93849656Y-65343713D01*
X96149500Y-65343713D01*
X96149500Y-66656287D01*
X96154952Y-66690709D01*
X96177547Y-66833371D01*
X96182754Y-66866243D01*
X96218907Y-66977511D01*
X96248444Y-67068414D01*
X96344951Y-67257820D01*
X96469890Y-67429786D01*
X96620213Y-67580109D01*
X96792179Y-67705048D01*
X96792181Y-67705049D01*
X96792184Y-67705051D01*
X96981588Y-67801557D01*
X97183757Y-67867246D01*
X97393713Y-67900500D01*
X97393714Y-67900500D01*
X97606286Y-67900500D01*
X97606287Y-67900500D01*
X97816243Y-67867246D01*
X98018412Y-67801557D01*
X98207816Y-67705051D01*
X98229789Y-67689086D01*
X98379786Y-67580109D01*
X98379788Y-67580106D01*
X98379792Y-67580104D01*
X98530104Y-67429792D01*
X98530106Y-67429788D01*
X98530109Y-67429786D01*
X98655048Y-67257820D01*
X98655047Y-67257820D01*
X98655051Y-67257816D01*
X98751557Y-67068412D01*
X98817246Y-66866243D01*
X98850500Y-66656287D01*
X98850500Y-65343713D01*
X98817246Y-65133757D01*
X98751557Y-64931588D01*
X98655051Y-64742184D01*
X98655049Y-64742181D01*
X98655048Y-64742179D01*
X98530109Y-64570213D01*
X98379786Y-64419890D01*
X98207820Y-64294951D01*
X98018414Y-64198444D01*
X98018413Y-64198443D01*
X98018412Y-64198443D01*
X97816243Y-64132754D01*
X97816241Y-64132753D01*
X97816240Y-64132753D01*
X97654957Y-64107208D01*
X97606287Y-64099500D01*
X97393713Y-64099500D01*
X97345042Y-64107208D01*
X97183760Y-64132753D01*
X97183757Y-64132754D01*
X96997814Y-64193171D01*
X96981585Y-64198444D01*
X96792179Y-64294951D01*
X96620213Y-64419890D01*
X96469890Y-64570213D01*
X96344951Y-64742179D01*
X96248444Y-64931585D01*
X96182753Y-65133760D01*
X96153528Y-65318281D01*
X96149500Y-65343713D01*
X93849656Y-65343713D01*
X93806866Y-65259734D01*
X93783343Y-65213567D01*
X93644517Y-65022490D01*
X93477510Y-64855483D01*
X93286433Y-64716657D01*
X93281366Y-64714075D01*
X93075996Y-64609433D01*
X92851368Y-64536446D01*
X92618097Y-64499500D01*
X92618092Y-64499500D01*
X92381908Y-64499500D01*
X92381903Y-64499500D01*
X92148631Y-64536446D01*
X91924003Y-64609433D01*
X91713566Y-64716657D01*
X91678432Y-64742184D01*
X91522490Y-64855483D01*
X91522488Y-64855485D01*
X91522487Y-64855485D01*
X91355485Y-65022487D01*
X91355485Y-65022488D01*
X91355483Y-65022490D01*
X91341516Y-65041714D01*
X91216657Y-65213566D01*
X91109433Y-65424003D01*
X91036446Y-65648631D01*
X90999500Y-65881902D01*
X52660426Y-65881902D01*
X52588215Y-65809691D01*
X52588213Y-65809690D01*
X52588211Y-65809688D01*
X52462688Y-65737217D01*
X52462689Y-65737217D01*
X52429735Y-65728387D01*
X52322675Y-65699700D01*
X52177725Y-65699700D01*
X52070665Y-65728387D01*
X52037711Y-65737217D01*
X51912188Y-65809688D01*
X51912182Y-65809693D01*
X51858495Y-65863381D01*
X51797172Y-65896866D01*
X51770814Y-65899700D01*
X43410486Y-65899700D01*
X43343447Y-65880015D01*
X43322805Y-65863381D01*
X43269117Y-65809693D01*
X43269111Y-65809688D01*
X43143588Y-65737217D01*
X43143589Y-65737217D01*
X43110635Y-65728387D01*
X43003575Y-65699700D01*
X42858625Y-65699700D01*
X42751565Y-65728387D01*
X42718611Y-65737217D01*
X42593088Y-65809688D01*
X42593082Y-65809693D01*
X42490593Y-65912182D01*
X42490588Y-65912188D01*
X42418117Y-66037711D01*
X42418116Y-66037715D01*
X42380600Y-66177725D01*
X41358781Y-66177725D01*
X41375661Y-66170733D01*
X41428387Y-66142550D01*
X41428397Y-66142544D01*
X41507108Y-66089951D01*
X41065176Y-65648019D01*
X41072993Y-65645925D01*
X41187007Y-65580099D01*
X41280099Y-65487007D01*
X41345925Y-65372993D01*
X41348019Y-65365176D01*
X41789951Y-65807108D01*
X41842544Y-65728397D01*
X41842550Y-65728387D01*
X41870733Y-65675661D01*
X41931039Y-65530072D01*
X41948398Y-65472848D01*
X41979141Y-65318285D01*
X41979141Y-65318281D01*
X41985000Y-65258791D01*
X41985000Y-65101208D01*
X41979141Y-65041718D01*
X41979141Y-65041714D01*
X41948398Y-64887151D01*
X41931039Y-64829927D01*
X41870733Y-64684338D01*
X41842550Y-64631612D01*
X41842544Y-64631602D01*
X41789951Y-64552890D01*
X41348019Y-64994822D01*
X41345925Y-64987007D01*
X41280099Y-64872993D01*
X41187007Y-64779901D01*
X41072993Y-64714075D01*
X41065174Y-64711980D01*
X41507107Y-64270048D01*
X41506039Y-64259203D01*
X41480405Y-64228530D01*
X41471699Y-64159205D01*
X41501855Y-64096178D01*
X41506421Y-64091361D01*
X42859241Y-62738541D01*
X44228970Y-61368812D01*
X44275114Y-61288888D01*
X44299000Y-61199743D01*
X44299000Y-61107456D01*
X44299000Y-60086244D01*
X44318685Y-60019205D01*
X44335319Y-59998563D01*
X44591467Y-59742415D01*
X44888639Y-59445242D01*
X44949960Y-59411759D01*
X45019651Y-59416743D01*
X45075585Y-59458614D01*
X45100002Y-59524079D01*
X45090879Y-59580377D01*
X45037950Y-59708160D01*
X45037947Y-59708170D01*
X44999500Y-59901456D01*
X44999500Y-59901459D01*
X44999500Y-60098541D01*
X44999500Y-60098543D01*
X44999499Y-60098543D01*
X45037947Y-60291829D01*
X45037950Y-60291839D01*
X45113364Y-60473907D01*
X45113371Y-60473920D01*
X45222860Y-60637781D01*
X45222863Y-60637785D01*
X45362214Y-60777136D01*
X45362218Y-60777139D01*
X45526079Y-60886628D01*
X45526092Y-60886635D01*
X45656867Y-60940803D01*
X45708165Y-60962051D01*
X45708169Y-60962051D01*
X45708170Y-60962052D01*
X45901456Y-61000500D01*
X45901459Y-61000500D01*
X46098543Y-61000500D01*
X46228582Y-60974632D01*
X46291835Y-60962051D01*
X46473914Y-60886632D01*
X46637782Y-60777139D01*
X46637785Y-60777136D01*
X46643327Y-60771595D01*
X46777136Y-60637785D01*
X46777139Y-60637782D01*
X46886632Y-60473914D01*
X46962051Y-60291835D01*
X47000500Y-60098541D01*
X47000500Y-59913428D01*
X49900000Y-59913428D01*
X49900000Y-60086571D01*
X49927085Y-60257584D01*
X49980591Y-60422257D01*
X50059195Y-60576523D01*
X50059196Y-60576525D01*
X50093463Y-60623691D01*
X50093464Y-60623691D01*
X50613629Y-60103527D01*
X50627259Y-60154394D01*
X50679920Y-60245606D01*
X50754394Y-60320080D01*
X50845606Y-60372741D01*
X50896471Y-60386370D01*
X50376307Y-60906534D01*
X50423478Y-60940805D01*
X50577742Y-61019408D01*
X50742415Y-61072914D01*
X50913429Y-61100000D01*
X51086571Y-61100000D01*
X51257584Y-61072914D01*
X51422257Y-61019408D01*
X51576525Y-60940803D01*
X51623691Y-60906534D01*
X51623692Y-60906533D01*
X51103529Y-60386370D01*
X51154394Y-60372741D01*
X51245606Y-60320080D01*
X51320080Y-60245606D01*
X51372741Y-60154394D01*
X51386370Y-60103528D01*
X51906533Y-60623692D01*
X51906534Y-60623691D01*
X51940803Y-60576525D01*
X52019408Y-60422257D01*
X52072914Y-60257584D01*
X52100000Y-60086571D01*
X52100000Y-59913428D01*
X52072914Y-59742415D01*
X52019408Y-59577742D01*
X51940805Y-59423478D01*
X51906534Y-59376307D01*
X51386370Y-59896471D01*
X51372741Y-59845606D01*
X51320080Y-59754394D01*
X51245606Y-59679920D01*
X51154394Y-59627259D01*
X51103527Y-59613629D01*
X51623691Y-59093464D01*
X51623691Y-59093463D01*
X51576525Y-59059196D01*
X51576523Y-59059195D01*
X51422257Y-58980591D01*
X51257584Y-58927085D01*
X51086571Y-58900000D01*
X50913429Y-58900000D01*
X50742415Y-58927085D01*
X50577740Y-58980592D01*
X50423475Y-59059196D01*
X50376307Y-59093463D01*
X50376307Y-59093464D01*
X50896472Y-59613629D01*
X50845606Y-59627259D01*
X50754394Y-59679920D01*
X50679920Y-59754394D01*
X50627259Y-59845606D01*
X50613629Y-59896472D01*
X50093464Y-59376307D01*
X50093463Y-59376307D01*
X50059196Y-59423475D01*
X49980592Y-59577740D01*
X49927085Y-59742415D01*
X49900000Y-59913428D01*
X47000500Y-59913428D01*
X47000500Y-59901459D01*
X47000500Y-59901456D01*
X46962052Y-59708170D01*
X46962051Y-59708169D01*
X46962051Y-59708165D01*
X46939706Y-59654218D01*
X46886635Y-59526092D01*
X46886628Y-59526079D01*
X46777139Y-59362218D01*
X46777136Y-59362214D01*
X46637785Y-59222863D01*
X46637781Y-59222860D01*
X46473920Y-59113371D01*
X46473907Y-59113364D01*
X46291839Y-59037950D01*
X46291829Y-59037947D01*
X46098543Y-58999500D01*
X46098541Y-58999500D01*
X45901459Y-58999500D01*
X45901457Y-58999500D01*
X45708170Y-59037947D01*
X45708160Y-59037950D01*
X45580377Y-59090879D01*
X45510907Y-59098348D01*
X45448428Y-59067072D01*
X45412777Y-59006983D01*
X45415271Y-58937158D01*
X45445242Y-58888639D01*
X47382170Y-56951712D01*
X47428314Y-56871788D01*
X47452200Y-56782644D01*
X47452200Y-54581618D01*
X47471885Y-54514579D01*
X47524689Y-54468824D01*
X47593847Y-54458880D01*
X47657403Y-54487905D01*
X47679302Y-54512728D01*
X47762857Y-54637777D01*
X47762863Y-54637785D01*
X47902214Y-54777136D01*
X47902218Y-54777139D01*
X48066079Y-54886628D01*
X48066092Y-54886635D01*
X48201295Y-54942637D01*
X48248165Y-54962051D01*
X48248169Y-54962051D01*
X48248170Y-54962052D01*
X48441456Y-55000500D01*
X48441459Y-55000500D01*
X48638543Y-55000500D01*
X48794301Y-54969517D01*
X48831835Y-54962051D01*
X49013914Y-54886632D01*
X49177782Y-54777139D01*
X49317139Y-54637782D01*
X49426632Y-54473914D01*
X49502051Y-54291835D01*
X49531355Y-54144517D01*
X49540500Y-54098543D01*
X49540500Y-53901456D01*
X49502052Y-53708170D01*
X49502051Y-53708169D01*
X49502051Y-53708165D01*
X49502049Y-53708160D01*
X49426635Y-53526092D01*
X49426628Y-53526079D01*
X49317139Y-53362218D01*
X49317136Y-53362214D01*
X49177785Y-53222863D01*
X49177781Y-53222860D01*
X49013920Y-53113371D01*
X49013907Y-53113364D01*
X48831839Y-53037950D01*
X48831829Y-53037947D01*
X48638543Y-52999500D01*
X48638541Y-52999500D01*
X48441459Y-52999500D01*
X48441457Y-52999500D01*
X48248170Y-53037947D01*
X48248160Y-53037950D01*
X48066092Y-53113364D01*
X48066079Y-53113371D01*
X47902218Y-53222860D01*
X47902214Y-53222863D01*
X47762863Y-53362214D01*
X47762860Y-53362218D01*
X47679302Y-53487272D01*
X47625690Y-53532077D01*
X47556365Y-53540784D01*
X47493337Y-53510630D01*
X47456618Y-53451186D01*
X47452200Y-53418381D01*
X47452200Y-49055558D01*
X47452200Y-49055556D01*
X47428314Y-48966412D01*
X47412776Y-48939500D01*
X47412775Y-48939498D01*
X47412775Y-48939497D01*
X47382172Y-48886491D01*
X47382168Y-48886486D01*
X46969517Y-48473835D01*
X46936032Y-48412512D01*
X46941016Y-48342820D01*
X46942615Y-48338757D01*
X46962051Y-48291835D01*
X46980318Y-48200000D01*
X47000500Y-48098543D01*
X47000500Y-47901456D01*
X46962052Y-47708170D01*
X46962051Y-47708169D01*
X46962051Y-47708165D01*
X46955287Y-47691835D01*
X46886635Y-47526092D01*
X46886628Y-47526079D01*
X46777139Y-47362218D01*
X46777136Y-47362214D01*
X46752503Y-47337581D01*
X46719018Y-47276258D01*
X46724002Y-47206566D01*
X46765874Y-47150633D01*
X46831338Y-47126216D01*
X46840184Y-47125900D01*
X47699816Y-47125900D01*
X47766855Y-47145585D01*
X47812610Y-47198389D01*
X47822554Y-47267547D01*
X47793529Y-47331103D01*
X47787497Y-47337581D01*
X47762863Y-47362214D01*
X47762860Y-47362218D01*
X47653371Y-47526079D01*
X47653364Y-47526092D01*
X47577950Y-47708160D01*
X47577947Y-47708170D01*
X47539500Y-47901456D01*
X47539500Y-47901459D01*
X47539500Y-48098541D01*
X47539500Y-48098543D01*
X47539499Y-48098543D01*
X47577947Y-48291829D01*
X47577950Y-48291839D01*
X47653364Y-48473907D01*
X47653371Y-48473920D01*
X47762860Y-48637781D01*
X47762863Y-48637785D01*
X47902214Y-48777136D01*
X47902218Y-48777139D01*
X48066079Y-48886628D01*
X48066092Y-48886635D01*
X48206068Y-48944614D01*
X48248165Y-48962051D01*
X48248169Y-48962051D01*
X48248170Y-48962052D01*
X48441456Y-49000500D01*
X48441459Y-49000500D01*
X48638543Y-49000500D01*
X48809765Y-48966441D01*
X48831835Y-48962051D01*
X49013914Y-48886632D01*
X49177782Y-48777139D01*
X49317139Y-48637782D01*
X49426632Y-48473914D01*
X49446044Y-48427046D01*
X49489884Y-48372645D01*
X49556178Y-48350579D01*
X49560605Y-48350500D01*
X55394756Y-48350500D01*
X55461795Y-48370185D01*
X55482437Y-48386819D01*
X55898947Y-48803329D01*
X55932432Y-48864652D01*
X55927448Y-48934344D01*
X55885576Y-48990277D01*
X55835459Y-49012627D01*
X55708169Y-49037948D01*
X55708160Y-49037950D01*
X55526092Y-49113364D01*
X55526079Y-49113371D01*
X55362218Y-49222860D01*
X55362214Y-49222863D01*
X55222863Y-49362214D01*
X55222860Y-49362218D01*
X55113371Y-49526079D01*
X55113364Y-49526092D01*
X55037950Y-49708160D01*
X55037947Y-49708170D01*
X54999500Y-49901456D01*
X54999500Y-49901459D01*
X54999500Y-50098541D01*
X54999500Y-50098543D01*
X54999499Y-50098543D01*
X55037947Y-50291829D01*
X55037950Y-50291839D01*
X55113364Y-50473907D01*
X55113371Y-50473920D01*
X55222860Y-50637781D01*
X55222863Y-50637785D01*
X55362217Y-50777139D01*
X55436294Y-50826635D01*
X55526086Y-50886632D01*
X55572953Y-50906044D01*
X55627355Y-50949884D01*
X55649421Y-51016178D01*
X55649500Y-51020605D01*
X55649500Y-54979393D01*
X55629815Y-55046432D01*
X55577011Y-55092187D01*
X55572954Y-55093953D01*
X55526094Y-55113363D01*
X55526079Y-55113371D01*
X55362218Y-55222860D01*
X55362214Y-55222863D01*
X55222863Y-55362214D01*
X55222860Y-55362218D01*
X55113371Y-55526079D01*
X55113364Y-55526092D01*
X55037950Y-55708160D01*
X55037947Y-55708170D01*
X54999500Y-55901456D01*
X54999500Y-55901459D01*
X54999500Y-56098541D01*
X54999500Y-56098543D01*
X54999499Y-56098543D01*
X55037947Y-56291829D01*
X55037950Y-56291839D01*
X55113364Y-56473907D01*
X55113371Y-56473920D01*
X55222860Y-56637781D01*
X55222863Y-56637785D01*
X55362214Y-56777136D01*
X55362218Y-56777139D01*
X55526079Y-56886628D01*
X55526092Y-56886635D01*
X55708160Y-56962049D01*
X55708165Y-56962051D01*
X55708169Y-56962051D01*
X55708170Y-56962052D01*
X55901456Y-57000500D01*
X55901459Y-57000500D01*
X56098543Y-57000500D01*
X56228582Y-56974632D01*
X56291835Y-56962051D01*
X56473914Y-56886632D01*
X56637782Y-56777139D01*
X56777139Y-56637782D01*
X56886632Y-56473914D01*
X56962051Y-56291835D01*
X57000500Y-56098541D01*
X57000500Y-55901459D01*
X57000500Y-55901456D01*
X56962052Y-55708170D01*
X56962051Y-55708169D01*
X56962051Y-55708165D01*
X56941182Y-55657782D01*
X56886635Y-55526092D01*
X56886628Y-55526079D01*
X56777139Y-55362218D01*
X56777136Y-55362214D01*
X56637785Y-55222863D01*
X56637781Y-55222860D01*
X56473920Y-55113371D01*
X56473905Y-55113363D01*
X56427046Y-55093953D01*
X56372643Y-55050112D01*
X56350579Y-54983817D01*
X56350500Y-54979393D01*
X56350500Y-51020605D01*
X56370185Y-50953566D01*
X56422989Y-50907811D01*
X56427009Y-50906060D01*
X56473914Y-50886632D01*
X56637782Y-50777139D01*
X56777139Y-50637782D01*
X56871685Y-50496282D01*
X56925297Y-50451478D01*
X56994621Y-50442771D01*
X57057649Y-50472925D01*
X57094369Y-50532368D01*
X57094562Y-50533080D01*
X57106186Y-50576463D01*
X57111685Y-50596986D01*
X57111687Y-50596990D01*
X57157827Y-50676908D01*
X57157829Y-50676911D01*
X57157830Y-50676912D01*
X59696131Y-53215212D01*
X59761388Y-53280469D01*
X59761391Y-53280470D01*
X59761394Y-53280473D01*
X59841306Y-53326611D01*
X59841307Y-53326611D01*
X59841312Y-53326614D01*
X59930456Y-53350500D01*
X90946074Y-53350500D01*
X91013113Y-53370185D01*
X91058868Y-53422989D01*
X91064003Y-53436179D01*
X91109432Y-53575992D01*
X91216657Y-53786433D01*
X91355483Y-53977510D01*
X91522490Y-54144517D01*
X91713567Y-54283343D01*
X91765818Y-54309966D01*
X91924003Y-54390566D01*
X91924005Y-54390566D01*
X91924008Y-54390568D01*
X91999968Y-54415249D01*
X92148631Y-54463553D01*
X92381903Y-54500500D01*
X92513356Y-54500500D01*
X92580395Y-54520185D01*
X92626150Y-54572989D01*
X92636094Y-54642147D01*
X92607069Y-54705703D01*
X92601037Y-54712181D01*
X91700037Y-55613181D01*
X91638714Y-55646666D01*
X91612356Y-55649500D01*
X59560605Y-55649500D01*
X59493566Y-55629815D01*
X59447811Y-55577011D01*
X59446060Y-55572990D01*
X59426632Y-55526086D01*
X59426627Y-55526079D01*
X59317139Y-55362217D01*
X59177785Y-55222863D01*
X59177781Y-55222860D01*
X59013920Y-55113371D01*
X59013907Y-55113364D01*
X58831839Y-55037950D01*
X58831829Y-55037947D01*
X58638543Y-54999500D01*
X58638541Y-54999500D01*
X58441459Y-54999500D01*
X58441457Y-54999500D01*
X58248170Y-55037947D01*
X58248160Y-55037950D01*
X58066092Y-55113364D01*
X58066079Y-55113371D01*
X57902218Y-55222860D01*
X57902214Y-55222863D01*
X57762863Y-55362214D01*
X57762860Y-55362218D01*
X57653371Y-55526079D01*
X57653364Y-55526092D01*
X57577950Y-55708160D01*
X57577947Y-55708170D01*
X57539500Y-55901456D01*
X57539500Y-55901459D01*
X57539500Y-56098541D01*
X57539500Y-56098543D01*
X57539499Y-56098543D01*
X57577947Y-56291829D01*
X57577950Y-56291839D01*
X57653364Y-56473907D01*
X57653371Y-56473920D01*
X57762860Y-56637781D01*
X57762863Y-56637785D01*
X57902214Y-56777136D01*
X57902218Y-56777139D01*
X58066079Y-56886628D01*
X58066092Y-56886635D01*
X58248160Y-56962049D01*
X58248165Y-56962051D01*
X58248169Y-56962051D01*
X58248170Y-56962052D01*
X58441456Y-57000500D01*
X58441459Y-57000500D01*
X58638543Y-57000500D01*
X58768582Y-56974632D01*
X58831835Y-56962051D01*
X59013914Y-56886632D01*
X59177782Y-56777139D01*
X59317139Y-56637782D01*
X59426632Y-56473914D01*
X59446044Y-56427046D01*
X59489884Y-56372645D01*
X59556178Y-56350579D01*
X59560605Y-56350500D01*
X91551434Y-56350500D01*
X91618473Y-56370185D01*
X91664228Y-56422989D01*
X91674172Y-56492147D01*
X91645147Y-56555703D01*
X91589752Y-56592431D01*
X91393395Y-56656230D01*
X91190033Y-56759849D01*
X91005385Y-56894004D01*
X90844004Y-57055385D01*
X90709849Y-57240033D01*
X90606230Y-57443395D01*
X90535704Y-57660455D01*
X90513603Y-57800000D01*
X91329288Y-57800000D01*
X91324979Y-57810402D01*
X91300000Y-57935981D01*
X91300000Y-58064019D01*
X91324979Y-58189598D01*
X91329288Y-58200000D01*
X90513603Y-58200000D01*
X90535704Y-58339544D01*
X90606230Y-58556604D01*
X90709849Y-58759966D01*
X90844004Y-58944614D01*
X91005385Y-59105995D01*
X91190033Y-59240150D01*
X91393395Y-59343769D01*
X91610455Y-59414295D01*
X91696330Y-59427897D01*
X91759465Y-59457826D01*
X91796396Y-59517138D01*
X91795398Y-59587000D01*
X91756788Y-59645233D01*
X91696330Y-59672843D01*
X91633760Y-59682753D01*
X91431585Y-59748444D01*
X91242179Y-59844951D01*
X91070213Y-59969890D01*
X90919890Y-60120213D01*
X90794951Y-60292179D01*
X90698444Y-60481585D01*
X90632753Y-60683760D01*
X90599500Y-60893713D01*
X90599500Y-61106286D01*
X90628421Y-61288890D01*
X90632754Y-61316243D01*
X90649833Y-61368808D01*
X90698444Y-61518414D01*
X90794951Y-61707820D01*
X90919890Y-61879786D01*
X91070213Y-62030109D01*
X91242179Y-62155048D01*
X91242181Y-62155049D01*
X91242184Y-62155051D01*
X91431588Y-62251557D01*
X91633757Y-62317246D01*
X91843713Y-62350500D01*
X91843714Y-62350500D01*
X93156286Y-62350500D01*
X93156287Y-62350500D01*
X93366243Y-62317246D01*
X93568412Y-62251557D01*
X93757816Y-62155051D01*
X93779789Y-62139086D01*
X93929786Y-62030109D01*
X93929788Y-62030106D01*
X93929792Y-62030104D01*
X94080104Y-61879792D01*
X94080106Y-61879788D01*
X94080109Y-61879786D01*
X94205048Y-61707820D01*
X94205047Y-61707820D01*
X94205051Y-61707816D01*
X94301557Y-61518412D01*
X94367246Y-61316243D01*
X94400500Y-61106287D01*
X94400500Y-60893713D01*
X94367246Y-60683757D01*
X94301557Y-60481588D01*
X94205051Y-60292184D01*
X94205049Y-60292181D01*
X94205048Y-60292179D01*
X94080109Y-60120213D01*
X93929786Y-59969890D01*
X93757820Y-59844951D01*
X93568414Y-59748444D01*
X93568413Y-59748443D01*
X93568412Y-59748443D01*
X93366243Y-59682754D01*
X93366241Y-59682753D01*
X93366239Y-59682753D01*
X93303669Y-59672843D01*
X93240534Y-59642914D01*
X93203603Y-59583602D01*
X93204601Y-59513740D01*
X93243211Y-59455507D01*
X93303669Y-59427897D01*
X93389544Y-59414295D01*
X93606604Y-59343769D01*
X93809966Y-59240150D01*
X93994614Y-59105995D01*
X94155995Y-58944614D01*
X94290150Y-58759966D01*
X94393769Y-58556604D01*
X94464295Y-58339544D01*
X94486397Y-58200000D01*
X93670712Y-58200000D01*
X93675021Y-58189598D01*
X93700000Y-58064019D01*
X93700000Y-57935981D01*
X93675021Y-57810402D01*
X93670712Y-57800000D01*
X94486397Y-57800000D01*
X94464295Y-57660455D01*
X94393769Y-57443395D01*
X94290150Y-57240033D01*
X94155995Y-57055385D01*
X93994614Y-56894004D01*
X93809966Y-56759849D01*
X93606604Y-56656230D01*
X93389544Y-56585704D01*
X93164116Y-56550000D01*
X92700000Y-56550000D01*
X92700000Y-57350000D01*
X92300000Y-57350000D01*
X92300000Y-56550000D01*
X92020046Y-56550000D01*
X91953007Y-56530315D01*
X91907252Y-56477511D01*
X91897308Y-56408353D01*
X91926333Y-56344797D01*
X91958044Y-56318613D01*
X92024112Y-56280470D01*
X94837469Y-53467112D01*
X94883614Y-53387188D01*
X94887014Y-53374499D01*
X94907500Y-53298044D01*
X94907500Y-52335883D01*
X96050000Y-52335883D01*
X96050000Y-52800000D01*
X96850000Y-52800000D01*
X96850000Y-53200000D01*
X96050000Y-53200000D01*
X96050000Y-53664116D01*
X96085704Y-53889544D01*
X96156230Y-54106604D01*
X96259849Y-54309966D01*
X96394004Y-54494614D01*
X96555385Y-54655995D01*
X96740033Y-54790150D01*
X96943395Y-54893769D01*
X97160455Y-54964295D01*
X97300000Y-54986397D01*
X97300000Y-54170712D01*
X97310402Y-54175021D01*
X97435981Y-54200000D01*
X97564019Y-54200000D01*
X97689598Y-54175021D01*
X97700000Y-54170712D01*
X97700000Y-54986396D01*
X97839544Y-54964295D01*
X98056604Y-54893769D01*
X98259966Y-54790150D01*
X98444614Y-54655995D01*
X98605995Y-54494614D01*
X98740150Y-54309966D01*
X98843769Y-54106604D01*
X98914295Y-53889544D01*
X98950000Y-53664116D01*
X98950000Y-53200000D01*
X98150000Y-53200000D01*
X98150000Y-52800000D01*
X98950000Y-52800000D01*
X98950000Y-52335883D01*
X98914295Y-52110455D01*
X98843769Y-51893395D01*
X98740150Y-51690033D01*
X98605995Y-51505385D01*
X98444614Y-51344004D01*
X98259966Y-51209849D01*
X98056604Y-51106230D01*
X97839545Y-51035704D01*
X97700000Y-51013601D01*
X97700000Y-51829287D01*
X97689598Y-51824979D01*
X97564019Y-51800000D01*
X97435981Y-51800000D01*
X97310402Y-51824979D01*
X97300000Y-51829287D01*
X97300000Y-51013601D01*
X97160455Y-51035704D01*
X97160452Y-51035704D01*
X96943395Y-51106230D01*
X96740033Y-51209849D01*
X96555385Y-51344004D01*
X96394004Y-51505385D01*
X96259849Y-51690033D01*
X96156230Y-51893395D01*
X96085704Y-52110455D01*
X96050000Y-52335883D01*
X94907500Y-52335883D01*
X94907500Y-44110856D01*
X94883614Y-44021712D01*
X94837470Y-43941788D01*
X93486408Y-42590726D01*
X93452924Y-42529404D01*
X93457908Y-42459712D01*
X93463598Y-42446765D01*
X93466211Y-42441639D01*
X93522171Y-42269409D01*
X93539954Y-42157131D01*
X93550500Y-42090551D01*
X93550500Y-41909448D01*
X93531217Y-41787708D01*
X93522171Y-41730591D01*
X93478209Y-41595287D01*
X93466212Y-41558363D01*
X93466211Y-41558360D01*
X93422705Y-41472976D01*
X93383996Y-41397006D01*
X93339519Y-41335788D01*
X93277558Y-41250505D01*
X93277554Y-41250500D01*
X93149499Y-41122445D01*
X93149494Y-41122441D01*
X93002997Y-41016006D01*
X93002996Y-41016005D01*
X93002994Y-41016004D01*
X92944257Y-40986076D01*
X92841639Y-40933788D01*
X92841636Y-40933787D01*
X92669410Y-40877829D01*
X92490551Y-40849500D01*
X92490546Y-40849500D01*
X92309454Y-40849500D01*
X92309449Y-40849500D01*
X92130589Y-40877829D01*
X91958363Y-40933787D01*
X91958360Y-40933788D01*
X91797002Y-41016006D01*
X91650505Y-41122441D01*
X91650500Y-41122445D01*
X91522445Y-41250500D01*
X91522441Y-41250505D01*
X91416006Y-41397002D01*
X91333788Y-41558360D01*
X91333787Y-41558363D01*
X91300240Y-41661612D01*
X91260802Y-41719288D01*
X91196444Y-41746486D01*
X91127597Y-41734571D01*
X91076122Y-41687327D01*
X91064378Y-41661612D01*
X91018418Y-41520164D01*
X90929095Y-41344856D01*
X90873922Y-41268919D01*
X90873922Y-41268918D01*
X90366154Y-41776686D01*
X90300110Y-41662292D01*
X90197708Y-41559890D01*
X90083312Y-41493844D01*
X90591080Y-40986077D01*
X90591079Y-40986076D01*
X90515143Y-40930904D01*
X90339835Y-40841581D01*
X90152705Y-40780778D01*
X89958382Y-40750000D01*
X89761618Y-40750000D01*
X89567294Y-40780778D01*
X89380164Y-40841581D01*
X89204855Y-40930905D01*
X89204846Y-40930911D01*
X89128919Y-40986075D01*
X89128918Y-40986076D01*
X89636687Y-41493844D01*
X89522292Y-41559890D01*
X89419890Y-41662292D01*
X89353844Y-41776686D01*
X88846076Y-41268918D01*
X88846075Y-41268919D01*
X88790911Y-41344846D01*
X88790905Y-41344855D01*
X88701581Y-41520162D01*
X88655621Y-41661613D01*
X88616183Y-41719288D01*
X88551824Y-41746486D01*
X88482978Y-41734571D01*
X88431502Y-41687327D01*
X88419759Y-41661611D01*
X88386213Y-41558366D01*
X88386211Y-41558360D01*
X88342705Y-41472976D01*
X88303996Y-41397006D01*
X88259519Y-41335788D01*
X88197558Y-41250505D01*
X88197554Y-41250500D01*
X88069499Y-41122445D01*
X88069494Y-41122441D01*
X87922997Y-41016006D01*
X87922996Y-41016005D01*
X87922994Y-41016004D01*
X87864257Y-40986076D01*
X87761639Y-40933788D01*
X87761636Y-40933787D01*
X87589410Y-40877829D01*
X87410551Y-40849500D01*
X87410546Y-40849500D01*
X87229454Y-40849500D01*
X87229449Y-40849500D01*
X87050589Y-40877829D01*
X86878363Y-40933787D01*
X86878360Y-40933788D01*
X86717002Y-41016006D01*
X86570505Y-41122441D01*
X86570500Y-41122445D01*
X86442445Y-41250500D01*
X86442441Y-41250505D01*
X86336006Y-41397002D01*
X86253788Y-41558360D01*
X86253787Y-41558363D01*
X86197829Y-41730589D01*
X86169500Y-41909448D01*
X86169500Y-42090551D01*
X86197829Y-42269410D01*
X86220241Y-42338387D01*
X86253789Y-42441639D01*
X86256392Y-42446747D01*
X86269290Y-42515415D01*
X86243017Y-42580156D01*
X86233590Y-42590726D01*
X79211137Y-49613181D01*
X79149814Y-49646666D01*
X79123456Y-49649500D01*
X59560605Y-49649500D01*
X59493566Y-49629815D01*
X59447811Y-49577011D01*
X59446060Y-49572990D01*
X59426632Y-49526086D01*
X59394586Y-49478126D01*
X59317139Y-49362217D01*
X59177785Y-49222863D01*
X59177781Y-49222860D01*
X59013920Y-49113371D01*
X59013907Y-49113364D01*
X58831839Y-49037950D01*
X58831829Y-49037947D01*
X58638543Y-48999500D01*
X58638541Y-48999500D01*
X58441459Y-48999500D01*
X58441457Y-48999500D01*
X58248170Y-49037947D01*
X58248160Y-49037950D01*
X58066092Y-49113364D01*
X58066079Y-49113371D01*
X57902218Y-49222860D01*
X57902214Y-49222863D01*
X57762863Y-49362214D01*
X57762860Y-49362218D01*
X57721169Y-49424614D01*
X57667557Y-49469419D01*
X57598232Y-49478126D01*
X57535205Y-49447972D01*
X57530386Y-49443404D01*
X55806513Y-47719531D01*
X55806508Y-47719527D01*
X55726590Y-47673387D01*
X55726589Y-47673386D01*
X55726588Y-47673386D01*
X55637444Y-47649500D01*
X55637443Y-47649500D01*
X49560605Y-47649500D01*
X49493566Y-47629815D01*
X49447811Y-47577011D01*
X49446060Y-47572990D01*
X49426632Y-47526086D01*
X49325666Y-47374979D01*
X49317139Y-47362217D01*
X49292503Y-47337581D01*
X49259018Y-47276258D01*
X49264002Y-47206566D01*
X49305874Y-47150633D01*
X49371338Y-47126216D01*
X49380184Y-47125900D01*
X53790714Y-47125900D01*
X53857753Y-47145585D01*
X53878395Y-47162219D01*
X53932085Y-47215909D01*
X53932086Y-47215910D01*
X53932088Y-47215911D01*
X54057611Y-47288382D01*
X54057612Y-47288382D01*
X54057615Y-47288384D01*
X54197625Y-47325900D01*
X54197628Y-47325900D01*
X54342572Y-47325900D01*
X54342575Y-47325900D01*
X54482585Y-47288384D01*
X54608115Y-47215909D01*
X54710609Y-47113415D01*
X54783084Y-46987885D01*
X54820600Y-46847875D01*
X54820600Y-46702925D01*
X54783084Y-46562915D01*
X54775627Y-46550000D01*
X54710611Y-46437388D01*
X54710606Y-46437382D01*
X54608117Y-46334893D01*
X54608111Y-46334888D01*
X54482588Y-46262417D01*
X54482589Y-46262417D01*
X54471106Y-46259340D01*
X54342575Y-46224900D01*
X54197625Y-46224900D01*
X54069093Y-46259340D01*
X54057611Y-46262417D01*
X53932088Y-46334888D01*
X53932082Y-46334893D01*
X53878395Y-46388581D01*
X53817072Y-46422066D01*
X53790714Y-46424900D01*
X45531944Y-46424900D01*
X45464905Y-46405215D01*
X45444263Y-46388581D01*
X41849517Y-42793835D01*
X41816032Y-42732512D01*
X41821016Y-42662820D01*
X41822615Y-42658757D01*
X41842051Y-42611835D01*
X41861807Y-42512518D01*
X41880500Y-42418543D01*
X41880500Y-42221456D01*
X41856050Y-42098543D01*
X44999499Y-42098543D01*
X45037947Y-42291829D01*
X45037950Y-42291839D01*
X45113364Y-42473907D01*
X45113371Y-42473920D01*
X45222860Y-42637781D01*
X45222863Y-42637785D01*
X45362214Y-42777136D01*
X45362218Y-42777139D01*
X45526079Y-42886628D01*
X45526092Y-42886635D01*
X45697866Y-42957785D01*
X45708165Y-42962051D01*
X45708169Y-42962051D01*
X45708170Y-42962052D01*
X45901456Y-43000500D01*
X45901459Y-43000500D01*
X46098543Y-43000500D01*
X46253140Y-42969748D01*
X46291835Y-42962051D01*
X46473914Y-42886632D01*
X46637782Y-42777139D01*
X46777139Y-42637782D01*
X46886632Y-42473914D01*
X46962051Y-42291835D01*
X47000500Y-42098543D01*
X47539499Y-42098543D01*
X47577947Y-42291829D01*
X47577950Y-42291839D01*
X47653364Y-42473907D01*
X47653371Y-42473920D01*
X47762860Y-42637781D01*
X47762863Y-42637785D01*
X47902214Y-42777136D01*
X47902218Y-42777139D01*
X48066079Y-42886628D01*
X48066092Y-42886635D01*
X48237866Y-42957785D01*
X48248165Y-42962051D01*
X48248169Y-42962051D01*
X48248170Y-42962052D01*
X48441456Y-43000500D01*
X48441459Y-43000500D01*
X48638543Y-43000500D01*
X48793140Y-42969748D01*
X48831835Y-42962051D01*
X49013914Y-42886632D01*
X49177782Y-42777139D01*
X49317139Y-42637782D01*
X49426632Y-42473914D01*
X49502051Y-42291835D01*
X49540500Y-42098541D01*
X49540500Y-41901459D01*
X49540500Y-41901456D01*
X49502052Y-41708170D01*
X49502051Y-41708169D01*
X49502051Y-41708165D01*
X49492617Y-41685390D01*
X49426635Y-41526092D01*
X49426628Y-41526079D01*
X49317139Y-41362218D01*
X49317136Y-41362214D01*
X49177785Y-41222863D01*
X49177781Y-41222860D01*
X49013920Y-41113371D01*
X49013907Y-41113364D01*
X48831839Y-41037950D01*
X48831829Y-41037947D01*
X48638543Y-40999500D01*
X48638541Y-40999500D01*
X48441459Y-40999500D01*
X48441457Y-40999500D01*
X48248170Y-41037947D01*
X48248160Y-41037950D01*
X48066092Y-41113364D01*
X48066079Y-41113371D01*
X47902218Y-41222860D01*
X47902214Y-41222863D01*
X47762863Y-41362214D01*
X47762860Y-41362218D01*
X47653371Y-41526079D01*
X47653364Y-41526092D01*
X47577950Y-41708160D01*
X47577947Y-41708170D01*
X47539500Y-41901456D01*
X47539500Y-41901459D01*
X47539500Y-42098541D01*
X47539500Y-42098543D01*
X47539499Y-42098543D01*
X47000500Y-42098543D01*
X47000500Y-42098541D01*
X47000500Y-41901459D01*
X47000500Y-41901456D01*
X46962052Y-41708170D01*
X46962051Y-41708169D01*
X46962051Y-41708165D01*
X46952617Y-41685390D01*
X46886635Y-41526092D01*
X46886628Y-41526079D01*
X46777139Y-41362218D01*
X46777136Y-41362214D01*
X46637785Y-41222863D01*
X46637781Y-41222860D01*
X46473920Y-41113371D01*
X46473907Y-41113364D01*
X46291839Y-41037950D01*
X46291829Y-41037947D01*
X46098543Y-40999500D01*
X46098541Y-40999500D01*
X45901459Y-40999500D01*
X45901457Y-40999500D01*
X45708170Y-41037947D01*
X45708160Y-41037950D01*
X45526092Y-41113364D01*
X45526079Y-41113371D01*
X45362218Y-41222860D01*
X45362214Y-41222863D01*
X45222863Y-41362214D01*
X45222860Y-41362218D01*
X45113371Y-41526079D01*
X45113364Y-41526092D01*
X45037950Y-41708160D01*
X45037947Y-41708170D01*
X44999500Y-41901456D01*
X44999500Y-41901459D01*
X44999500Y-42098541D01*
X44999500Y-42098543D01*
X44999499Y-42098543D01*
X41856050Y-42098543D01*
X41842052Y-42028170D01*
X41842051Y-42028169D01*
X41842051Y-42028165D01*
X41826551Y-41990744D01*
X41806700Y-41942819D01*
X41766635Y-41846092D01*
X41766628Y-41846079D01*
X41657139Y-41682218D01*
X41657136Y-41682214D01*
X41517785Y-41542863D01*
X41517781Y-41542860D01*
X41353920Y-41433371D01*
X41353907Y-41433364D01*
X41171839Y-41357950D01*
X41171829Y-41357947D01*
X40978543Y-41319500D01*
X40978541Y-41319500D01*
X40781459Y-41319500D01*
X40781457Y-41319500D01*
X40588171Y-41357947D01*
X40588163Y-41357949D01*
X40541297Y-41377362D01*
X40471827Y-41384831D01*
X40409348Y-41353555D01*
X40406164Y-41350482D01*
X40147319Y-41091637D01*
X40132615Y-41064709D01*
X40116023Y-41038891D01*
X40115131Y-41032690D01*
X40113834Y-41030314D01*
X40111000Y-41003956D01*
X40111000Y-40909500D01*
X40130685Y-40842461D01*
X40183489Y-40796706D01*
X40235000Y-40785500D01*
X40958788Y-40785500D01*
X40958793Y-40785500D01*
X40998883Y-40781551D01*
X41153441Y-40750808D01*
X41191993Y-40739114D01*
X41337584Y-40678808D01*
X41373112Y-40659818D01*
X41504140Y-40572268D01*
X41535280Y-40546711D01*
X41646711Y-40435280D01*
X41672268Y-40404140D01*
X41759818Y-40273112D01*
X41778808Y-40237584D01*
X41791457Y-40207045D01*
X41835299Y-40152643D01*
X41901593Y-40130579D01*
X41906018Y-40130500D01*
X47941342Y-40130500D01*
X47941344Y-40130500D01*
X48030488Y-40106614D01*
X48055812Y-40091993D01*
X48110412Y-40060470D01*
X48901419Y-39269463D01*
X48962742Y-39235978D01*
X49032434Y-39240962D01*
X49076781Y-39269463D01*
X55030981Y-45223663D01*
X55064466Y-45284986D01*
X55067300Y-45311344D01*
X55067300Y-45387275D01*
X55104816Y-45527285D01*
X55104817Y-45527288D01*
X55177288Y-45652811D01*
X55177290Y-45652813D01*
X55177291Y-45652815D01*
X55279785Y-45755309D01*
X55279786Y-45755310D01*
X55279788Y-45755311D01*
X55405311Y-45827782D01*
X55405312Y-45827782D01*
X55405315Y-45827784D01*
X55545325Y-45865300D01*
X55545328Y-45865300D01*
X55690272Y-45865300D01*
X55690275Y-45865300D01*
X55830285Y-45827784D01*
X55955815Y-45755309D01*
X56058309Y-45652815D01*
X56130784Y-45527285D01*
X56168300Y-45387275D01*
X56168300Y-45242325D01*
X56137517Y-45127442D01*
X56139180Y-45057595D01*
X56178342Y-44999732D01*
X56233098Y-44973734D01*
X56291835Y-44962051D01*
X56473914Y-44886632D01*
X56637782Y-44777139D01*
X56637785Y-44777136D01*
X56643327Y-44771595D01*
X56777136Y-44637785D01*
X56777139Y-44637782D01*
X56886632Y-44473914D01*
X56962051Y-44291835D01*
X56998050Y-44110858D01*
X57000500Y-44098543D01*
X57000500Y-43913428D01*
X57440000Y-43913428D01*
X57440000Y-44086571D01*
X57467085Y-44257584D01*
X57520591Y-44422257D01*
X57599195Y-44576523D01*
X57599196Y-44576525D01*
X57633463Y-44623691D01*
X57633464Y-44623691D01*
X58153629Y-44103527D01*
X58167259Y-44154394D01*
X58219920Y-44245606D01*
X58294394Y-44320080D01*
X58385606Y-44372741D01*
X58436471Y-44386370D01*
X57916307Y-44906534D01*
X57963478Y-44940805D01*
X58117742Y-45019408D01*
X58282415Y-45072914D01*
X58453429Y-45100000D01*
X58626571Y-45100000D01*
X58797584Y-45072914D01*
X58962257Y-45019408D01*
X59116525Y-44940803D01*
X59163691Y-44906534D01*
X59163692Y-44906533D01*
X58643529Y-44386370D01*
X58694394Y-44372741D01*
X58785606Y-44320080D01*
X58860080Y-44245606D01*
X58912741Y-44154394D01*
X58926370Y-44103528D01*
X59446533Y-44623692D01*
X59446534Y-44623691D01*
X59480803Y-44576525D01*
X59559408Y-44422257D01*
X59612914Y-44257584D01*
X59640000Y-44086571D01*
X59640000Y-43913428D01*
X59612914Y-43742415D01*
X59559408Y-43577742D01*
X59480805Y-43423478D01*
X59446534Y-43376307D01*
X58926370Y-43896471D01*
X58912741Y-43845606D01*
X58860080Y-43754394D01*
X58785606Y-43679920D01*
X58694394Y-43627259D01*
X58643527Y-43613629D01*
X59163691Y-43093464D01*
X59163691Y-43093463D01*
X59116525Y-43059196D01*
X59116523Y-43059195D01*
X58962257Y-42980591D01*
X58797584Y-42927085D01*
X58626571Y-42900000D01*
X58453429Y-42900000D01*
X58282415Y-42927085D01*
X58117740Y-42980592D01*
X57963475Y-43059196D01*
X57916307Y-43093463D01*
X57916307Y-43093464D01*
X58436472Y-43613629D01*
X58385606Y-43627259D01*
X58294394Y-43679920D01*
X58219920Y-43754394D01*
X58167259Y-43845606D01*
X58153629Y-43896472D01*
X57633464Y-43376307D01*
X57633463Y-43376307D01*
X57599196Y-43423475D01*
X57520592Y-43577740D01*
X57467085Y-43742415D01*
X57440000Y-43913428D01*
X57000500Y-43913428D01*
X57000500Y-43901456D01*
X56962052Y-43708170D01*
X56962051Y-43708169D01*
X56962051Y-43708165D01*
X56942636Y-43661294D01*
X56935168Y-43591828D01*
X56966442Y-43529349D01*
X56969488Y-43526192D01*
X58820469Y-41675213D01*
X58866614Y-41595288D01*
X58873524Y-41569500D01*
X58876508Y-41558366D01*
X58885155Y-41526092D01*
X58890500Y-41506144D01*
X58890500Y-41030247D01*
X65849500Y-41030247D01*
X65849500Y-42969752D01*
X65861131Y-43028229D01*
X65861132Y-43028230D01*
X65905447Y-43094552D01*
X65971769Y-43138867D01*
X65971770Y-43138868D01*
X66030247Y-43150499D01*
X66030250Y-43150500D01*
X66030252Y-43150500D01*
X67969750Y-43150500D01*
X67969751Y-43150499D01*
X67984568Y-43147552D01*
X68028229Y-43138868D01*
X68028229Y-43138867D01*
X68028231Y-43138867D01*
X68094552Y-43094552D01*
X68138867Y-43028231D01*
X68138867Y-43028229D01*
X68138868Y-43028229D01*
X68150499Y-42969752D01*
X68150500Y-42969750D01*
X68150500Y-42157131D01*
X68170185Y-42090092D01*
X68222989Y-42044337D01*
X68292147Y-42034393D01*
X68355703Y-42063418D01*
X68393477Y-42122196D01*
X68396973Y-42137733D01*
X68417829Y-42269410D01*
X68473787Y-42441636D01*
X68473788Y-42441639D01*
X68518508Y-42529404D01*
X68544367Y-42580156D01*
X68556006Y-42602997D01*
X68662441Y-42749494D01*
X68662445Y-42749499D01*
X68790500Y-42877554D01*
X68790505Y-42877558D01*
X68917395Y-42969748D01*
X68937006Y-42983996D01*
X69042484Y-43037740D01*
X69098360Y-43066211D01*
X69098363Y-43066212D01*
X69131511Y-43076982D01*
X69270591Y-43122171D01*
X69353429Y-43135291D01*
X69449449Y-43150500D01*
X69449454Y-43150500D01*
X69630551Y-43150500D01*
X69717259Y-43136765D01*
X69809409Y-43122171D01*
X69981639Y-43066211D01*
X70142994Y-42983996D01*
X70289501Y-42877553D01*
X70417553Y-42749501D01*
X70523996Y-42602994D01*
X70606211Y-42441639D01*
X70662171Y-42269409D01*
X70679954Y-42157131D01*
X70687527Y-42109321D01*
X70717456Y-42046186D01*
X70776768Y-42009255D01*
X70846630Y-42010253D01*
X70904863Y-42048863D01*
X70932473Y-42109321D01*
X70957829Y-42269410D01*
X71013787Y-42441636D01*
X71013788Y-42441639D01*
X71058508Y-42529404D01*
X71084367Y-42580156D01*
X71096006Y-42602997D01*
X71202441Y-42749494D01*
X71202445Y-42749499D01*
X71330500Y-42877554D01*
X71330505Y-42877558D01*
X71457395Y-42969748D01*
X71477006Y-42983996D01*
X71582484Y-43037740D01*
X71638360Y-43066211D01*
X71638363Y-43066212D01*
X71671511Y-43076982D01*
X71810591Y-43122171D01*
X71893429Y-43135291D01*
X71989449Y-43150500D01*
X71989454Y-43150500D01*
X72170551Y-43150500D01*
X72257259Y-43136765D01*
X72349409Y-43122171D01*
X72521639Y-43066211D01*
X72682994Y-42983996D01*
X72829501Y-42877553D01*
X72957553Y-42749501D01*
X73063996Y-42602994D01*
X73146211Y-42441639D01*
X73202171Y-42269409D01*
X73219954Y-42157131D01*
X73227527Y-42109321D01*
X73257456Y-42046186D01*
X73316768Y-42009255D01*
X73386630Y-42010253D01*
X73444863Y-42048863D01*
X73472473Y-42109321D01*
X73497829Y-42269410D01*
X73553787Y-42441636D01*
X73553788Y-42441639D01*
X73598508Y-42529404D01*
X73624367Y-42580156D01*
X73636006Y-42602997D01*
X73742441Y-42749494D01*
X73742445Y-42749499D01*
X73870500Y-42877554D01*
X73870505Y-42877558D01*
X73997395Y-42969748D01*
X74017006Y-42983996D01*
X74122484Y-43037740D01*
X74178360Y-43066211D01*
X74178363Y-43066212D01*
X74211511Y-43076982D01*
X74350591Y-43122171D01*
X74433429Y-43135291D01*
X74529449Y-43150500D01*
X74529454Y-43150500D01*
X74710551Y-43150500D01*
X74797259Y-43136765D01*
X74889409Y-43122171D01*
X75061639Y-43066211D01*
X75222994Y-42983996D01*
X75369501Y-42877553D01*
X75497553Y-42749501D01*
X75603996Y-42602994D01*
X75686211Y-42441639D01*
X75742171Y-42269409D01*
X75759954Y-42157131D01*
X75770500Y-42090551D01*
X75770500Y-41909449D01*
X75770499Y-41909447D01*
X75760464Y-41846092D01*
X75742171Y-41730591D01*
X75698209Y-41595287D01*
X75686212Y-41558363D01*
X75686211Y-41558360D01*
X75642705Y-41472976D01*
X75603996Y-41397006D01*
X75559519Y-41335788D01*
X75497558Y-41250505D01*
X75497554Y-41250500D01*
X75369499Y-41122445D01*
X75369494Y-41122441D01*
X75222997Y-41016006D01*
X75222996Y-41016005D01*
X75222994Y-41016004D01*
X75164257Y-40986076D01*
X75061639Y-40933788D01*
X75061636Y-40933787D01*
X74889410Y-40877829D01*
X74710551Y-40849500D01*
X74710546Y-40849500D01*
X74529454Y-40849500D01*
X74529449Y-40849500D01*
X74350589Y-40877829D01*
X74178363Y-40933787D01*
X74178360Y-40933788D01*
X74017002Y-41016006D01*
X73870505Y-41122441D01*
X73870500Y-41122445D01*
X73742445Y-41250500D01*
X73742441Y-41250505D01*
X73636006Y-41397002D01*
X73553788Y-41558360D01*
X73553787Y-41558363D01*
X73497829Y-41730589D01*
X73472473Y-41890678D01*
X73442544Y-41953813D01*
X73383232Y-41990744D01*
X73313369Y-41989746D01*
X73255137Y-41951136D01*
X73227527Y-41890678D01*
X73211217Y-41787708D01*
X73202171Y-41730591D01*
X73158209Y-41595287D01*
X73146212Y-41558363D01*
X73146211Y-41558360D01*
X73102705Y-41472976D01*
X73063996Y-41397006D01*
X73019519Y-41335788D01*
X72957558Y-41250505D01*
X72957554Y-41250500D01*
X72829499Y-41122445D01*
X72829494Y-41122441D01*
X72682997Y-41016006D01*
X72682996Y-41016005D01*
X72682994Y-41016004D01*
X72624257Y-40986076D01*
X72521639Y-40933788D01*
X72521636Y-40933787D01*
X72349410Y-40877829D01*
X72170551Y-40849500D01*
X72170546Y-40849500D01*
X71989454Y-40849500D01*
X71989449Y-40849500D01*
X71810589Y-40877829D01*
X71638363Y-40933787D01*
X71638360Y-40933788D01*
X71477002Y-41016006D01*
X71330505Y-41122441D01*
X71330500Y-41122445D01*
X71202445Y-41250500D01*
X71202441Y-41250505D01*
X71096006Y-41397002D01*
X71013788Y-41558360D01*
X71013787Y-41558363D01*
X70957829Y-41730589D01*
X70932473Y-41890678D01*
X70902544Y-41953813D01*
X70843232Y-41990744D01*
X70773369Y-41989746D01*
X70715137Y-41951136D01*
X70687527Y-41890678D01*
X70671217Y-41787708D01*
X70662171Y-41730591D01*
X70618209Y-41595287D01*
X70606212Y-41558363D01*
X70606211Y-41558360D01*
X70562705Y-41472976D01*
X70523996Y-41397006D01*
X70479519Y-41335788D01*
X70417558Y-41250505D01*
X70417554Y-41250500D01*
X70289499Y-41122445D01*
X70289494Y-41122441D01*
X70142997Y-41016006D01*
X70142996Y-41016005D01*
X70142994Y-41016004D01*
X70084257Y-40986076D01*
X69981639Y-40933788D01*
X69981636Y-40933787D01*
X69809410Y-40877829D01*
X69630551Y-40849500D01*
X69630546Y-40849500D01*
X69449454Y-40849500D01*
X69449449Y-40849500D01*
X69270589Y-40877829D01*
X69098363Y-40933787D01*
X69098360Y-40933788D01*
X68937002Y-41016006D01*
X68790505Y-41122441D01*
X68790500Y-41122445D01*
X68662445Y-41250500D01*
X68662441Y-41250505D01*
X68556006Y-41397002D01*
X68473788Y-41558360D01*
X68473787Y-41558363D01*
X68417829Y-41730589D01*
X68396973Y-41862266D01*
X68367044Y-41925401D01*
X68307732Y-41962332D01*
X68237869Y-41961334D01*
X68179637Y-41922724D01*
X68151523Y-41858760D01*
X68150500Y-41842868D01*
X68150500Y-41030249D01*
X68150499Y-41030247D01*
X68138868Y-40971770D01*
X68138867Y-40971769D01*
X68094552Y-40905447D01*
X68028230Y-40861132D01*
X68028229Y-40861131D01*
X67969752Y-40849500D01*
X67969748Y-40849500D01*
X66030252Y-40849500D01*
X66030247Y-40849500D01*
X65971770Y-40861131D01*
X65971769Y-40861132D01*
X65905447Y-40905447D01*
X65861132Y-40971769D01*
X65861131Y-40971770D01*
X65849500Y-41030247D01*
X58890500Y-41030247D01*
X58890500Y-39020605D01*
X58910185Y-38953566D01*
X58962989Y-38907811D01*
X58967009Y-38906060D01*
X59013914Y-38886632D01*
X59177782Y-38777139D01*
X59317139Y-38637782D01*
X59426632Y-38473914D01*
X59502051Y-38291835D01*
X59529582Y-38153430D01*
X59540500Y-38098543D01*
X59540500Y-37901456D01*
X59502052Y-37708170D01*
X59502051Y-37708169D01*
X59502051Y-37708165D01*
X59429015Y-37531839D01*
X59426635Y-37526092D01*
X59426628Y-37526079D01*
X59317139Y-37362218D01*
X59317136Y-37362214D01*
X59177785Y-37222863D01*
X59177781Y-37222860D01*
X59013920Y-37113371D01*
X59013907Y-37113364D01*
X58831839Y-37037950D01*
X58831829Y-37037947D01*
X58638543Y-36999500D01*
X58638541Y-36999500D01*
X58441459Y-36999500D01*
X58441457Y-36999500D01*
X58248170Y-37037947D01*
X58248160Y-37037950D01*
X58066092Y-37113364D01*
X58066079Y-37113371D01*
X57902218Y-37222860D01*
X57902214Y-37222863D01*
X57762863Y-37362214D01*
X57762860Y-37362218D01*
X57653371Y-37526079D01*
X57653364Y-37526092D01*
X57577950Y-37708160D01*
X57577947Y-37708170D01*
X57539500Y-37901456D01*
X57539500Y-37901459D01*
X57539500Y-38098541D01*
X57539500Y-38098543D01*
X57539499Y-38098543D01*
X57577947Y-38291829D01*
X57577950Y-38291839D01*
X57653364Y-38473907D01*
X57653371Y-38473920D01*
X57762860Y-38637781D01*
X57762863Y-38637785D01*
X57902217Y-38777139D01*
X58041266Y-38870048D01*
X58066086Y-38886632D01*
X58112953Y-38906044D01*
X58167355Y-38949884D01*
X58189421Y-39016178D01*
X58189500Y-39020605D01*
X58189500Y-41263455D01*
X58169815Y-41330494D01*
X58153181Y-41351136D01*
X56473835Y-43030481D01*
X56412512Y-43063966D01*
X56342820Y-43058982D01*
X56338703Y-43057362D01*
X56327988Y-43052924D01*
X56291835Y-43037949D01*
X56291831Y-43037948D01*
X56291828Y-43037947D01*
X56098543Y-42999500D01*
X56098541Y-42999500D01*
X55901459Y-42999500D01*
X55901457Y-42999500D01*
X55708170Y-43037947D01*
X55708160Y-43037950D01*
X55526092Y-43113364D01*
X55526079Y-43113371D01*
X55362218Y-43222860D01*
X55362214Y-43222863D01*
X55222863Y-43362214D01*
X55222860Y-43362218D01*
X55113371Y-43526079D01*
X55113364Y-43526092D01*
X55037950Y-43708160D01*
X55037947Y-43708170D01*
X54999499Y-43901456D01*
X54998903Y-43907519D01*
X54997752Y-43907405D01*
X54979815Y-43968495D01*
X54927011Y-44014250D01*
X54857853Y-44024194D01*
X54794297Y-43995169D01*
X54787819Y-43989137D01*
X49375919Y-38577237D01*
X49342434Y-38515914D01*
X49339600Y-38489556D01*
X49339600Y-38207443D01*
X49359285Y-38140404D01*
X49375914Y-38119766D01*
X49397137Y-38098543D01*
X54999499Y-38098543D01*
X55037947Y-38291829D01*
X55037950Y-38291839D01*
X55113364Y-38473907D01*
X55113371Y-38473920D01*
X55222860Y-38637781D01*
X55222863Y-38637785D01*
X55362214Y-38777136D01*
X55362218Y-38777139D01*
X55526079Y-38886628D01*
X55526092Y-38886635D01*
X55649499Y-38937751D01*
X55708165Y-38962051D01*
X55708169Y-38962051D01*
X55708170Y-38962052D01*
X55901456Y-39000500D01*
X55901459Y-39000500D01*
X56098543Y-39000500D01*
X56228582Y-38974632D01*
X56291835Y-38962051D01*
X56473914Y-38886632D01*
X56637782Y-38777139D01*
X56777139Y-38637782D01*
X56886632Y-38473914D01*
X56962051Y-38291835D01*
X56989582Y-38153430D01*
X57000500Y-38098543D01*
X57000500Y-37901456D01*
X56962052Y-37708170D01*
X56962051Y-37708169D01*
X56962051Y-37708165D01*
X56889015Y-37531839D01*
X56886635Y-37526092D01*
X56886628Y-37526079D01*
X56777139Y-37362218D01*
X56777136Y-37362214D01*
X56637785Y-37222863D01*
X56637781Y-37222860D01*
X56473920Y-37113371D01*
X56473907Y-37113364D01*
X56291839Y-37037950D01*
X56291829Y-37037947D01*
X56098543Y-36999500D01*
X56098541Y-36999500D01*
X55901459Y-36999500D01*
X55901457Y-36999500D01*
X55708170Y-37037947D01*
X55708160Y-37037950D01*
X55526092Y-37113364D01*
X55526079Y-37113371D01*
X55362218Y-37222860D01*
X55362214Y-37222863D01*
X55222863Y-37362214D01*
X55222860Y-37362218D01*
X55113371Y-37526079D01*
X55113364Y-37526092D01*
X55037950Y-37708160D01*
X55037947Y-37708170D01*
X54999500Y-37901456D01*
X54999500Y-37901459D01*
X54999500Y-38098541D01*
X54999500Y-38098543D01*
X54999499Y-38098543D01*
X49397137Y-38098543D01*
X50526165Y-36969515D01*
X50587486Y-36936032D01*
X50657177Y-36941016D01*
X50661244Y-36942615D01*
X50708165Y-36962051D01*
X50708169Y-36962051D01*
X50708170Y-36962052D01*
X50901456Y-37000500D01*
X50901459Y-37000500D01*
X51098543Y-37000500D01*
X51254301Y-36969517D01*
X51291835Y-36962051D01*
X51473914Y-36886632D01*
X51637782Y-36777139D01*
X51777139Y-36637782D01*
X51886632Y-36473914D01*
X51891210Y-36462863D01*
X51962049Y-36291839D01*
X51962051Y-36291835D01*
X52000500Y-36098541D01*
X52000500Y-35901459D01*
X52000500Y-35901456D01*
X51962052Y-35708170D01*
X51962051Y-35708169D01*
X51962051Y-35708165D01*
X51911709Y-35586628D01*
X51886635Y-35526092D01*
X51886628Y-35526079D01*
X51777139Y-35362218D01*
X51777136Y-35362214D01*
X51637785Y-35222863D01*
X51637781Y-35222860D01*
X51473920Y-35113371D01*
X51473907Y-35113364D01*
X51291839Y-35037950D01*
X51291829Y-35037947D01*
X51098543Y-34999500D01*
X51098541Y-34999500D01*
X50901459Y-34999500D01*
X50901457Y-34999500D01*
X50708170Y-35037947D01*
X50708160Y-35037950D01*
X50526092Y-35113364D01*
X50526079Y-35113371D01*
X50362218Y-35222860D01*
X50362214Y-35222863D01*
X50222863Y-35362214D01*
X50222860Y-35362218D01*
X50113371Y-35526079D01*
X50113364Y-35526092D01*
X50037950Y-35708160D01*
X50037947Y-35708170D01*
X49999500Y-35901456D01*
X49999500Y-35901459D01*
X49999500Y-36098541D01*
X49999500Y-36098543D01*
X49999499Y-36098543D01*
X50037947Y-36291828D01*
X50037948Y-36291831D01*
X50037949Y-36291835D01*
X50037951Y-36291839D01*
X50057362Y-36338703D01*
X50064829Y-36408173D01*
X50033553Y-36470652D01*
X50030481Y-36473835D01*
X48708631Y-37795686D01*
X48708627Y-37795691D01*
X48692891Y-37822949D01*
X48692890Y-37822951D01*
X48677688Y-37849281D01*
X48662486Y-37875611D01*
X48638600Y-37964756D01*
X48638600Y-38489556D01*
X48618915Y-38556595D01*
X48602281Y-38577237D01*
X47786337Y-39393181D01*
X47725014Y-39426666D01*
X47698656Y-39429500D01*
X41906018Y-39429500D01*
X41838979Y-39409815D01*
X41793224Y-39357011D01*
X41791457Y-39352954D01*
X41778808Y-39322416D01*
X41759818Y-39286888D01*
X41759807Y-39286871D01*
X41672274Y-39155868D01*
X41672270Y-39155863D01*
X41646711Y-39124720D01*
X41535283Y-39013292D01*
X41535280Y-39013289D01*
X41524266Y-39004250D01*
X41484935Y-38946505D01*
X41483066Y-38876661D01*
X41519254Y-38816893D01*
X41582011Y-38786178D01*
X41602935Y-38784400D01*
X43612242Y-38784400D01*
X43612244Y-38784400D01*
X43701388Y-38760514D01*
X43715116Y-38752588D01*
X43781312Y-38714370D01*
X45526165Y-36969515D01*
X45587486Y-36936032D01*
X45657177Y-36941016D01*
X45661244Y-36942615D01*
X45708165Y-36962051D01*
X45708169Y-36962051D01*
X45708170Y-36962052D01*
X45901456Y-37000500D01*
X45901459Y-37000500D01*
X46098543Y-37000500D01*
X46254301Y-36969517D01*
X46291835Y-36962051D01*
X46473914Y-36886632D01*
X46637782Y-36777139D01*
X46777139Y-36637782D01*
X46886632Y-36473914D01*
X46891210Y-36462863D01*
X46962049Y-36291839D01*
X46962051Y-36291835D01*
X47000500Y-36098541D01*
X47000500Y-35901459D01*
X47000500Y-35901456D01*
X46962052Y-35708170D01*
X46962051Y-35708169D01*
X46962051Y-35708165D01*
X46911709Y-35586628D01*
X46886635Y-35526092D01*
X46886628Y-35526079D01*
X46777139Y-35362218D01*
X46777136Y-35362214D01*
X46637785Y-35222863D01*
X46637781Y-35222860D01*
X46473920Y-35113371D01*
X46473907Y-35113364D01*
X46291839Y-35037950D01*
X46291829Y-35037947D01*
X46098543Y-34999500D01*
X46098541Y-34999500D01*
X45901459Y-34999500D01*
X45901457Y-34999500D01*
X45708170Y-35037947D01*
X45708160Y-35037950D01*
X45526092Y-35113364D01*
X45526079Y-35113371D01*
X45362218Y-35222860D01*
X45362214Y-35222863D01*
X45222863Y-35362214D01*
X45222860Y-35362218D01*
X45113371Y-35526079D01*
X45113364Y-35526092D01*
X45037950Y-35708160D01*
X45037947Y-35708170D01*
X44999500Y-35901456D01*
X44999500Y-35901459D01*
X44999500Y-36098541D01*
X44999500Y-36098543D01*
X44999499Y-36098543D01*
X45037947Y-36291828D01*
X45037948Y-36291831D01*
X45037949Y-36291835D01*
X45037951Y-36291839D01*
X45057362Y-36338703D01*
X45064829Y-36408173D01*
X45033553Y-36470652D01*
X45030481Y-36473835D01*
X43457237Y-38047081D01*
X43395914Y-38080566D01*
X43369556Y-38083400D01*
X41750569Y-38083400D01*
X41683530Y-38063715D01*
X41637775Y-38010911D01*
X41627831Y-37941753D01*
X41653778Y-37882862D01*
X41653755Y-37882847D01*
X41653842Y-37882715D01*
X41654715Y-37880736D01*
X41657136Y-37877785D01*
X41657139Y-37877782D01*
X41766632Y-37713914D01*
X41842051Y-37531835D01*
X41854632Y-37468582D01*
X41880500Y-37338543D01*
X41880500Y-37141456D01*
X41842052Y-36948170D01*
X41842051Y-36948169D01*
X41842051Y-36948165D01*
X41816565Y-36886635D01*
X41766635Y-36766092D01*
X41766628Y-36766079D01*
X41657139Y-36602218D01*
X41657136Y-36602214D01*
X41517785Y-36462863D01*
X41517781Y-36462860D01*
X41353920Y-36353371D01*
X41353907Y-36353364D01*
X41171839Y-36277950D01*
X41171829Y-36277947D01*
X40978543Y-36239500D01*
X40978541Y-36239500D01*
X40781459Y-36239500D01*
X40781457Y-36239500D01*
X40588170Y-36277947D01*
X40588160Y-36277950D01*
X40406092Y-36353364D01*
X40406079Y-36353371D01*
X40242218Y-36462860D01*
X40242214Y-36462863D01*
X40102863Y-36602214D01*
X40102860Y-36602218D01*
X39993371Y-36766079D01*
X39993364Y-36766092D01*
X39917950Y-36948160D01*
X39917947Y-36948170D01*
X39879500Y-37141456D01*
X39879500Y-37141459D01*
X39879500Y-37338541D01*
X39879500Y-37338543D01*
X39879499Y-37338543D01*
X39917947Y-37531829D01*
X39917950Y-37531839D01*
X39993364Y-37713907D01*
X39993371Y-37713920D01*
X40102860Y-37877781D01*
X40102863Y-37877785D01*
X40154680Y-37929602D01*
X40188165Y-37990925D01*
X40183181Y-38060617D01*
X40141309Y-38116550D01*
X40129001Y-38124669D01*
X40079191Y-38153427D01*
X40079186Y-38153431D01*
X39480031Y-38752586D01*
X39480030Y-38752588D01*
X39433887Y-38832509D01*
X39433886Y-38832512D01*
X39410000Y-38921656D01*
X39410000Y-41246644D01*
X39421780Y-41290608D01*
X39433884Y-41335785D01*
X39433885Y-41335786D01*
X39480027Y-41415708D01*
X39480031Y-41415713D01*
X39910482Y-41846164D01*
X39943967Y-41907487D01*
X39938983Y-41977179D01*
X39937362Y-41981297D01*
X39917949Y-42028163D01*
X39917947Y-42028171D01*
X39879500Y-42221456D01*
X39879500Y-42221459D01*
X39879500Y-42418541D01*
X39879500Y-42418543D01*
X39879499Y-42418543D01*
X39917947Y-42611829D01*
X39917950Y-42611839D01*
X39993364Y-42793907D01*
X39993371Y-42793920D01*
X40102860Y-42957781D01*
X40102863Y-42957785D01*
X40242214Y-43097136D01*
X40242218Y-43097139D01*
X40406079Y-43206628D01*
X40406092Y-43206635D01*
X40588160Y-43282049D01*
X40588165Y-43282051D01*
X40588169Y-43282051D01*
X40588170Y-43282052D01*
X40781456Y-43320500D01*
X40781459Y-43320500D01*
X40978543Y-43320500D01*
X41149765Y-43286441D01*
X41171835Y-43282051D01*
X41218702Y-43262637D01*
X41288168Y-43255168D01*
X41350648Y-43286441D01*
X41353835Y-43289517D01*
X45120188Y-47055870D01*
X45200112Y-47102014D01*
X45215813Y-47106221D01*
X45275472Y-47142582D01*
X45306003Y-47205428D01*
X45297710Y-47274804D01*
X45271402Y-47313675D01*
X45222864Y-47362213D01*
X45222860Y-47362218D01*
X45113371Y-47526079D01*
X45113364Y-47526092D01*
X45037950Y-47708160D01*
X45037947Y-47708170D01*
X44999500Y-47901456D01*
X44999500Y-47901459D01*
X44999500Y-48098541D01*
X44999500Y-48098543D01*
X44999499Y-48098543D01*
X45037947Y-48291829D01*
X45037950Y-48291839D01*
X45113364Y-48473907D01*
X45113371Y-48473920D01*
X45222860Y-48637781D01*
X45222863Y-48637785D01*
X45362214Y-48777136D01*
X45362218Y-48777139D01*
X45526079Y-48886628D01*
X45526092Y-48886635D01*
X45666068Y-48944614D01*
X45708165Y-48962051D01*
X45708169Y-48962051D01*
X45708170Y-48962052D01*
X45901456Y-49000500D01*
X45901459Y-49000500D01*
X46098543Y-49000500D01*
X46269765Y-48966441D01*
X46291835Y-48962051D01*
X46338702Y-48942637D01*
X46408168Y-48935168D01*
X46470648Y-48966441D01*
X46473835Y-48969517D01*
X46714881Y-49210563D01*
X46748366Y-49271886D01*
X46751200Y-49298244D01*
X46751200Y-53066656D01*
X46731515Y-53133695D01*
X46678711Y-53179450D01*
X46609553Y-53189394D01*
X46558309Y-53169758D01*
X46473920Y-53113371D01*
X46473907Y-53113364D01*
X46291839Y-53037950D01*
X46291829Y-53037947D01*
X46098543Y-52999500D01*
X46098541Y-52999500D01*
X45901459Y-52999500D01*
X45901457Y-52999500D01*
X45708170Y-53037947D01*
X45708160Y-53037950D01*
X45526092Y-53113364D01*
X45526079Y-53113371D01*
X45362218Y-53222860D01*
X45362214Y-53222863D01*
X45222863Y-53362214D01*
X45222860Y-53362218D01*
X45113371Y-53526079D01*
X45113364Y-53526092D01*
X45037950Y-53708160D01*
X45037947Y-53708170D01*
X44999500Y-53901456D01*
X44999500Y-53901459D01*
X44999500Y-54098541D01*
X44999500Y-54098543D01*
X44999499Y-54098543D01*
X45037947Y-54291828D01*
X45037948Y-54291831D01*
X45037949Y-54291835D01*
X45037951Y-54291839D01*
X45057362Y-54338703D01*
X45064829Y-54408173D01*
X45033553Y-54470652D01*
X45030481Y-54473835D01*
X43057331Y-56446986D01*
X43057329Y-56446988D01*
X43023680Y-56505273D01*
X43023678Y-56505275D01*
X43011187Y-56526909D01*
X43011186Y-56526911D01*
X43011186Y-56526912D01*
X42989728Y-56606995D01*
X42987300Y-56616056D01*
X42987300Y-59985655D01*
X42967615Y-60052694D01*
X42950981Y-60073336D01*
X41353835Y-61670481D01*
X41292512Y-61703966D01*
X41222820Y-61698982D01*
X41218703Y-61697362D01*
X41213874Y-61695361D01*
X41171835Y-61677949D01*
X41171831Y-61677948D01*
X41171828Y-61677947D01*
X40978543Y-61639500D01*
X40978541Y-61639500D01*
X40781459Y-61639500D01*
X40781457Y-61639500D01*
X40588170Y-61677947D01*
X40588160Y-61677950D01*
X40406092Y-61753364D01*
X40406079Y-61753371D01*
X40242218Y-61862860D01*
X40242214Y-61862863D01*
X40102863Y-62002214D01*
X40102860Y-62002218D01*
X39993371Y-62166079D01*
X39993364Y-62166092D01*
X39917950Y-62348160D01*
X39917947Y-62348170D01*
X39879500Y-62541456D01*
X39879500Y-62541459D01*
X39879500Y-62738541D01*
X39879500Y-62738543D01*
X39879499Y-62738543D01*
X39917947Y-62931829D01*
X39917950Y-62931839D01*
X39993364Y-63113907D01*
X39993371Y-63113920D01*
X40102860Y-63277781D01*
X40102863Y-63277785D01*
X40180291Y-63355213D01*
X40213776Y-63416536D01*
X40208792Y-63486228D01*
X40166920Y-63542161D01*
X40124705Y-63562668D01*
X40037316Y-63586084D01*
X40037309Y-63586087D01*
X39957391Y-63632227D01*
X39957386Y-63632231D01*
X39468932Y-64120685D01*
X39468930Y-64120688D01*
X39427083Y-64193169D01*
X39427082Y-64193171D01*
X39422787Y-64200608D01*
X39422786Y-64200612D01*
X39398900Y-64289756D01*
X39090000Y-64289756D01*
X39090000Y-63130000D01*
X24890000Y-63130000D01*
X24890000Y-67469895D01*
X24070352Y-67469895D01*
X24062052Y-67428170D01*
X24062051Y-67428169D01*
X24062051Y-67428165D01*
X24012065Y-67307487D01*
X23986635Y-67246092D01*
X23986628Y-67246079D01*
X23877139Y-67082218D01*
X23877136Y-67082214D01*
X23737785Y-66942863D01*
X23737781Y-66942860D01*
X23573920Y-66833371D01*
X23573907Y-66833364D01*
X23391839Y-66757950D01*
X23391829Y-66757947D01*
X23198543Y-66719500D01*
X23198541Y-66719500D01*
X23001459Y-66719500D01*
X23001457Y-66719500D01*
X22808170Y-66757947D01*
X22808160Y-66757950D01*
X22626092Y-66833364D01*
X22626079Y-66833371D01*
X22462218Y-66942860D01*
X22462214Y-66942863D01*
X22322863Y-67082214D01*
X22322860Y-67082218D01*
X22213371Y-67246079D01*
X22213364Y-67246092D01*
X22137950Y-67428160D01*
X22137947Y-67428170D01*
X22099500Y-67621456D01*
X22099500Y-67621459D01*
X22099500Y-67818541D01*
X22099500Y-67818543D01*
X22099499Y-67818543D01*
X20500500Y-67818543D01*
X20500500Y-65101208D01*
X21995000Y-65101208D01*
X21995000Y-65258791D01*
X22000858Y-65318281D01*
X22000858Y-65318285D01*
X22031601Y-65472848D01*
X22048960Y-65530072D01*
X22109266Y-65675661D01*
X22137449Y-65728387D01*
X22137455Y-65728397D01*
X22190048Y-65807107D01*
X22631980Y-65365176D01*
X22634075Y-65372993D01*
X22699901Y-65487007D01*
X22792993Y-65580099D01*
X22907007Y-65645925D01*
X22914823Y-65648019D01*
X22472890Y-66089951D01*
X22551602Y-66142544D01*
X22551612Y-66142550D01*
X22604338Y-66170733D01*
X22749927Y-66231039D01*
X22807151Y-66248398D01*
X22961716Y-66279141D01*
X23021209Y-66285000D01*
X23739768Y-66285000D01*
X23746826Y-66284918D01*
X23856497Y-66261784D01*
X23886510Y-66249352D01*
X23285177Y-65648019D01*
X23292993Y-65645925D01*
X23407007Y-65580099D01*
X23500099Y-65487007D01*
X23565925Y-65372993D01*
X23568019Y-65365177D01*
X24169352Y-65966510D01*
X24181781Y-65936505D01*
X24184402Y-65929963D01*
X24205000Y-65819779D01*
X24205000Y-64540232D01*
X24204918Y-64533173D01*
X24181785Y-64423504D01*
X24169352Y-64393489D01*
X23568019Y-64994822D01*
X23565925Y-64987007D01*
X23500099Y-64872993D01*
X23407007Y-64779901D01*
X23292993Y-64714075D01*
X23285177Y-64711980D01*
X23886510Y-64110647D01*
X23886509Y-64110645D01*
X23856524Y-64098226D01*
X23849967Y-64095598D01*
X23849963Y-64095597D01*
X23739780Y-64075000D01*
X23021209Y-64075000D01*
X22961718Y-64080858D01*
X22961714Y-64080858D01*
X22807151Y-64111601D01*
X22749927Y-64128960D01*
X22604338Y-64189266D01*
X22551607Y-64217452D01*
X22472891Y-64270048D01*
X22472890Y-64270048D01*
X22914823Y-64711980D01*
X22907007Y-64714075D01*
X22792993Y-64779901D01*
X22699901Y-64872993D01*
X22634075Y-64987007D01*
X22631980Y-64994822D01*
X22190048Y-64552890D01*
X22190048Y-64552891D01*
X22137452Y-64631607D01*
X22109266Y-64684338D01*
X22048960Y-64829927D01*
X22031601Y-64887151D01*
X22000858Y-65041714D01*
X22000858Y-65041718D01*
X21995000Y-65101208D01*
X20500500Y-65101208D01*
X20500500Y-62738543D01*
X22099499Y-62738543D01*
X22137947Y-62931829D01*
X22137950Y-62931839D01*
X22213364Y-63113907D01*
X22213371Y-63113920D01*
X22322860Y-63277781D01*
X22322863Y-63277785D01*
X22462214Y-63417136D01*
X22462218Y-63417139D01*
X22626079Y-63526628D01*
X22626092Y-63526635D01*
X22769624Y-63586087D01*
X22808165Y-63602051D01*
X22808169Y-63602051D01*
X22808170Y-63602052D01*
X23001456Y-63640500D01*
X23001459Y-63640500D01*
X23198543Y-63640500D01*
X23328582Y-63614632D01*
X23391835Y-63602051D01*
X23573914Y-63526632D01*
X23737782Y-63417139D01*
X23877139Y-63277782D01*
X23986632Y-63113914D01*
X24062051Y-62931835D01*
X24100500Y-62738541D01*
X24100500Y-62541459D01*
X24100500Y-62541456D01*
X24062052Y-62348170D01*
X24062051Y-62348169D01*
X24062051Y-62348165D01*
X24036134Y-62285596D01*
X23986635Y-62166092D01*
X23986628Y-62166079D01*
X23877139Y-62002218D01*
X23877136Y-62002214D01*
X23737785Y-61862863D01*
X23737781Y-61862860D01*
X23573920Y-61753371D01*
X23573907Y-61753364D01*
X23391839Y-61677950D01*
X23391829Y-61677947D01*
X23198543Y-61639500D01*
X23198541Y-61639500D01*
X23001459Y-61639500D01*
X23001457Y-61639500D01*
X22808170Y-61677947D01*
X22808160Y-61677950D01*
X22626092Y-61753364D01*
X22626079Y-61753371D01*
X22462218Y-61862860D01*
X22462214Y-61862863D01*
X22322863Y-62002214D01*
X22322860Y-62002218D01*
X22213371Y-62166079D01*
X22213364Y-62166092D01*
X22137950Y-62348160D01*
X22137947Y-62348170D01*
X22099500Y-62541456D01*
X22099500Y-62541459D01*
X22099500Y-62738541D01*
X22099500Y-62738543D01*
X22099499Y-62738543D01*
X20500500Y-62738543D01*
X20500500Y-60198543D01*
X22099499Y-60198543D01*
X22137947Y-60391829D01*
X22137950Y-60391839D01*
X22213364Y-60573907D01*
X22213371Y-60573920D01*
X22322860Y-60737781D01*
X22322863Y-60737785D01*
X22462214Y-60877136D01*
X22462218Y-60877139D01*
X22626079Y-60986628D01*
X22626092Y-60986635D01*
X22716530Y-61024095D01*
X22808165Y-61062051D01*
X22808169Y-61062051D01*
X22808170Y-61062052D01*
X23001456Y-61100500D01*
X23001459Y-61100500D01*
X23198543Y-61100500D01*
X23328582Y-61074632D01*
X23391835Y-61062051D01*
X23573914Y-60986632D01*
X23737782Y-60877139D01*
X23877139Y-60737782D01*
X23986632Y-60573914D01*
X24062051Y-60391835D01*
X24081942Y-60291839D01*
X24100500Y-60198543D01*
X39879499Y-60198543D01*
X39917947Y-60391829D01*
X39917950Y-60391839D01*
X39993364Y-60573907D01*
X39993371Y-60573920D01*
X40102860Y-60737781D01*
X40102863Y-60737785D01*
X40242214Y-60877136D01*
X40242218Y-60877139D01*
X40406079Y-60986628D01*
X40406092Y-60986635D01*
X40496530Y-61024095D01*
X40588165Y-61062051D01*
X40588169Y-61062051D01*
X40588170Y-61062052D01*
X40781456Y-61100500D01*
X40781459Y-61100500D01*
X40978543Y-61100500D01*
X41108582Y-61074632D01*
X41171835Y-61062051D01*
X41353914Y-60986632D01*
X41517782Y-60877139D01*
X41657139Y-60737782D01*
X41766632Y-60573914D01*
X41842051Y-60391835D01*
X41861942Y-60291839D01*
X41880500Y-60198543D01*
X41880500Y-60001456D01*
X41842052Y-59808170D01*
X41842051Y-59808169D01*
X41842051Y-59808165D01*
X41842049Y-59808160D01*
X41766635Y-59626092D01*
X41766628Y-59626079D01*
X41657139Y-59462218D01*
X41657136Y-59462214D01*
X41517785Y-59322863D01*
X41517781Y-59322860D01*
X41353920Y-59213371D01*
X41353907Y-59213364D01*
X41171839Y-59137950D01*
X41171829Y-59137947D01*
X40978543Y-59099500D01*
X40978541Y-59099500D01*
X40781459Y-59099500D01*
X40781457Y-59099500D01*
X40588170Y-59137947D01*
X40588160Y-59137950D01*
X40406092Y-59213364D01*
X40406079Y-59213371D01*
X40242218Y-59322860D01*
X40242214Y-59322863D01*
X40102863Y-59462214D01*
X40102860Y-59462218D01*
X39993371Y-59626079D01*
X39993364Y-59626092D01*
X39917950Y-59808160D01*
X39917947Y-59808170D01*
X39879500Y-60001456D01*
X39879500Y-60001459D01*
X39879500Y-60198541D01*
X39879500Y-60198543D01*
X39879499Y-60198543D01*
X24100500Y-60198543D01*
X24100500Y-60001456D01*
X24062052Y-59808170D01*
X24062051Y-59808169D01*
X24062051Y-59808165D01*
X24062049Y-59808160D01*
X23986635Y-59626092D01*
X23986628Y-59626079D01*
X23877139Y-59462218D01*
X23877136Y-59462214D01*
X23737785Y-59322863D01*
X23737781Y-59322860D01*
X23573920Y-59213371D01*
X23573907Y-59213364D01*
X23391839Y-59137950D01*
X23391829Y-59137947D01*
X23198543Y-59099500D01*
X23198541Y-59099500D01*
X23001459Y-59099500D01*
X23001457Y-59099500D01*
X22808170Y-59137947D01*
X22808160Y-59137950D01*
X22626092Y-59213364D01*
X22626079Y-59213371D01*
X22462218Y-59322860D01*
X22462214Y-59322863D01*
X22322863Y-59462214D01*
X22322860Y-59462218D01*
X22213371Y-59626079D01*
X22213364Y-59626092D01*
X22137950Y-59808160D01*
X22137947Y-59808170D01*
X22099500Y-60001456D01*
X22099500Y-60001459D01*
X22099500Y-60198541D01*
X22099500Y-60198543D01*
X22099499Y-60198543D01*
X20500500Y-60198543D01*
X20500500Y-57658543D01*
X22099499Y-57658543D01*
X22137947Y-57851829D01*
X22137950Y-57851839D01*
X22213364Y-58033907D01*
X22213371Y-58033920D01*
X22322860Y-58197781D01*
X22322863Y-58197785D01*
X22462214Y-58337136D01*
X22462218Y-58337139D01*
X22626079Y-58446628D01*
X22626092Y-58446635D01*
X22808160Y-58522049D01*
X22808165Y-58522051D01*
X22808169Y-58522051D01*
X22808170Y-58522052D01*
X23001456Y-58560500D01*
X23001459Y-58560500D01*
X23198543Y-58560500D01*
X23328582Y-58534632D01*
X23391835Y-58522051D01*
X23573914Y-58446632D01*
X23737782Y-58337139D01*
X23877139Y-58197782D01*
X23986632Y-58033914D01*
X24062051Y-57851835D01*
X24093823Y-57692110D01*
X24100500Y-57658543D01*
X39879499Y-57658543D01*
X39917947Y-57851829D01*
X39917950Y-57851839D01*
X39993364Y-58033907D01*
X39993371Y-58033920D01*
X40102860Y-58197781D01*
X40102863Y-58197785D01*
X40242214Y-58337136D01*
X40242218Y-58337139D01*
X40406079Y-58446628D01*
X40406092Y-58446635D01*
X40588160Y-58522049D01*
X40588165Y-58522051D01*
X40588169Y-58522051D01*
X40588170Y-58522052D01*
X40781456Y-58560500D01*
X40781459Y-58560500D01*
X40978543Y-58560500D01*
X41108582Y-58534632D01*
X41171835Y-58522051D01*
X41353914Y-58446632D01*
X41517782Y-58337139D01*
X41657139Y-58197782D01*
X41766632Y-58033914D01*
X41842051Y-57851835D01*
X41873823Y-57692110D01*
X41880500Y-57658543D01*
X41880500Y-57461456D01*
X41842052Y-57268170D01*
X41842051Y-57268169D01*
X41842051Y-57268165D01*
X41842049Y-57268160D01*
X41766635Y-57086092D01*
X41766628Y-57086079D01*
X41657139Y-56922218D01*
X41657136Y-56922214D01*
X41517785Y-56782863D01*
X41517781Y-56782860D01*
X41353920Y-56673371D01*
X41353907Y-56673364D01*
X41171839Y-56597950D01*
X41171829Y-56597947D01*
X40978543Y-56559500D01*
X40978541Y-56559500D01*
X40781459Y-56559500D01*
X40781457Y-56559500D01*
X40588170Y-56597947D01*
X40588160Y-56597950D01*
X40406092Y-56673364D01*
X40406079Y-56673371D01*
X40242218Y-56782860D01*
X40242214Y-56782863D01*
X40102863Y-56922214D01*
X40102860Y-56922218D01*
X39993371Y-57086079D01*
X39993364Y-57086092D01*
X39917950Y-57268160D01*
X39917947Y-57268170D01*
X39879500Y-57461456D01*
X39879500Y-57461459D01*
X39879500Y-57658541D01*
X39879500Y-57658543D01*
X39879499Y-57658543D01*
X24100500Y-57658543D01*
X24100500Y-57461456D01*
X24062052Y-57268170D01*
X24062051Y-57268169D01*
X24062051Y-57268165D01*
X24062049Y-57268160D01*
X23986635Y-57086092D01*
X23986628Y-57086079D01*
X23877139Y-56922218D01*
X23877136Y-56922214D01*
X23737785Y-56782863D01*
X23737781Y-56782860D01*
X23573920Y-56673371D01*
X23573907Y-56673364D01*
X23391839Y-56597950D01*
X23391829Y-56597947D01*
X23198543Y-56559500D01*
X23198541Y-56559500D01*
X23001459Y-56559500D01*
X23001457Y-56559500D01*
X22808170Y-56597947D01*
X22808160Y-56597950D01*
X22626092Y-56673364D01*
X22626079Y-56673371D01*
X22462218Y-56782860D01*
X22462214Y-56782863D01*
X22322863Y-56922214D01*
X22322860Y-56922218D01*
X22213371Y-57086079D01*
X22213364Y-57086092D01*
X22137950Y-57268160D01*
X22137947Y-57268170D01*
X22099500Y-57461456D01*
X22099500Y-57461459D01*
X22099500Y-57658541D01*
X22099500Y-57658543D01*
X22099499Y-57658543D01*
X20500500Y-57658543D01*
X20500500Y-55118543D01*
X22099499Y-55118543D01*
X22137947Y-55311829D01*
X22137950Y-55311839D01*
X22213364Y-55493907D01*
X22213371Y-55493920D01*
X22322860Y-55657781D01*
X22322863Y-55657785D01*
X22462214Y-55797136D01*
X22462218Y-55797139D01*
X22626079Y-55906628D01*
X22626092Y-55906635D01*
X22808160Y-55982049D01*
X22808165Y-55982051D01*
X22808169Y-55982051D01*
X22808170Y-55982052D01*
X23001456Y-56020500D01*
X23001459Y-56020500D01*
X23198543Y-56020500D01*
X23328582Y-55994632D01*
X23391835Y-55982051D01*
X23573914Y-55906632D01*
X23737782Y-55797139D01*
X23877139Y-55657782D01*
X23986632Y-55493914D01*
X24062051Y-55311835D01*
X24079749Y-55222861D01*
X24100500Y-55118543D01*
X39879499Y-55118543D01*
X39917947Y-55311829D01*
X39917950Y-55311839D01*
X39993364Y-55493907D01*
X39993371Y-55493920D01*
X40102860Y-55657781D01*
X40102863Y-55657785D01*
X40242214Y-55797136D01*
X40242218Y-55797139D01*
X40406079Y-55906628D01*
X40406092Y-55906635D01*
X40588160Y-55982049D01*
X40588165Y-55982051D01*
X40588169Y-55982051D01*
X40588170Y-55982052D01*
X40781456Y-56020500D01*
X40781459Y-56020500D01*
X40978543Y-56020500D01*
X41108582Y-55994632D01*
X41171835Y-55982051D01*
X41353914Y-55906632D01*
X41517782Y-55797139D01*
X41657139Y-55657782D01*
X41766632Y-55493914D01*
X41842051Y-55311835D01*
X41859749Y-55222861D01*
X41880500Y-55118543D01*
X41880500Y-54921456D01*
X41842052Y-54728170D01*
X41842051Y-54728169D01*
X41842051Y-54728165D01*
X41815358Y-54663721D01*
X41766635Y-54546092D01*
X41766628Y-54546079D01*
X41657139Y-54382218D01*
X41657136Y-54382214D01*
X41517785Y-54242863D01*
X41517781Y-54242860D01*
X41353920Y-54133371D01*
X41353907Y-54133364D01*
X41171839Y-54057950D01*
X41171829Y-54057947D01*
X40978543Y-54019500D01*
X40978541Y-54019500D01*
X40781459Y-54019500D01*
X40781457Y-54019500D01*
X40588170Y-54057947D01*
X40588160Y-54057950D01*
X40406092Y-54133364D01*
X40406079Y-54133371D01*
X40242218Y-54242860D01*
X40242214Y-54242863D01*
X40102863Y-54382214D01*
X40102860Y-54382218D01*
X39993371Y-54546079D01*
X39993364Y-54546092D01*
X39917950Y-54728160D01*
X39917947Y-54728170D01*
X39879500Y-54921456D01*
X39879500Y-54921459D01*
X39879500Y-55118541D01*
X39879500Y-55118543D01*
X39879499Y-55118543D01*
X24100500Y-55118543D01*
X24100500Y-54921456D01*
X24062052Y-54728170D01*
X24062051Y-54728169D01*
X24062051Y-54728165D01*
X24035358Y-54663721D01*
X23986635Y-54546092D01*
X23986628Y-54546079D01*
X23877139Y-54382218D01*
X23877136Y-54382214D01*
X23737785Y-54242863D01*
X23737781Y-54242860D01*
X23573920Y-54133371D01*
X23573907Y-54133364D01*
X23391839Y-54057950D01*
X23391829Y-54057947D01*
X23198543Y-54019500D01*
X23198541Y-54019500D01*
X23001459Y-54019500D01*
X23001457Y-54019500D01*
X22808170Y-54057947D01*
X22808160Y-54057950D01*
X22626092Y-54133364D01*
X22626079Y-54133371D01*
X22462218Y-54242860D01*
X22462214Y-54242863D01*
X22322863Y-54382214D01*
X22322860Y-54382218D01*
X22213371Y-54546079D01*
X22213364Y-54546092D01*
X22137950Y-54728160D01*
X22137947Y-54728170D01*
X22099500Y-54921456D01*
X22099500Y-54921459D01*
X22099500Y-55118541D01*
X22099500Y-55118543D01*
X22099499Y-55118543D01*
X20500500Y-55118543D01*
X20500500Y-52401208D01*
X21995000Y-52401208D01*
X21995000Y-52558791D01*
X22000858Y-52618281D01*
X22000858Y-52618285D01*
X22031601Y-52772848D01*
X22048960Y-52830072D01*
X22109266Y-52975661D01*
X22137449Y-53028387D01*
X22137455Y-53028397D01*
X22190048Y-53107107D01*
X22631980Y-52665176D01*
X22634075Y-52672993D01*
X22699901Y-52787007D01*
X22792993Y-52880099D01*
X22907007Y-52945925D01*
X22914823Y-52948019D01*
X22472890Y-53389951D01*
X22551602Y-53442544D01*
X22551612Y-53442550D01*
X22604338Y-53470733D01*
X22749927Y-53531039D01*
X22807151Y-53548398D01*
X22961716Y-53579141D01*
X23021209Y-53585000D01*
X23739768Y-53585000D01*
X23746826Y-53584918D01*
X23856497Y-53561784D01*
X23886510Y-53549352D01*
X23285177Y-52948019D01*
X23292993Y-52945925D01*
X23407007Y-52880099D01*
X23500099Y-52787007D01*
X23565925Y-52672993D01*
X23568019Y-52665177D01*
X24169352Y-53266510D01*
X24181781Y-53236505D01*
X24184402Y-53229963D01*
X24205000Y-53119779D01*
X24205000Y-51840245D01*
X24205000Y-51840220D01*
X39775000Y-51840220D01*
X39775000Y-53119767D01*
X39775081Y-53126826D01*
X39798216Y-53236500D01*
X39798216Y-53236502D01*
X39810645Y-53266509D01*
X39810647Y-53266510D01*
X40411980Y-52665176D01*
X40414075Y-52672993D01*
X40479901Y-52787007D01*
X40572993Y-52880099D01*
X40687007Y-52945925D01*
X40694823Y-52948019D01*
X40093489Y-53549353D01*
X40123462Y-53561768D01*
X40130035Y-53564402D01*
X40240220Y-53585000D01*
X40958791Y-53585000D01*
X41018281Y-53579141D01*
X41018285Y-53579141D01*
X41172848Y-53548398D01*
X41230072Y-53531039D01*
X41375661Y-53470733D01*
X41428387Y-53442550D01*
X41428397Y-53442544D01*
X41507108Y-53389951D01*
X41065176Y-52948019D01*
X41072993Y-52945925D01*
X41187007Y-52880099D01*
X41280099Y-52787007D01*
X41345925Y-52672993D01*
X41348019Y-52665176D01*
X41789951Y-53107108D01*
X41842544Y-53028397D01*
X41842550Y-53028387D01*
X41870733Y-52975661D01*
X41931039Y-52830072D01*
X41948398Y-52772848D01*
X41979141Y-52618285D01*
X41979141Y-52618281D01*
X41985000Y-52558791D01*
X41985000Y-52401208D01*
X41979141Y-52341718D01*
X41979141Y-52341714D01*
X41948398Y-52187151D01*
X41931039Y-52129927D01*
X41870733Y-51984338D01*
X41842550Y-51931612D01*
X41842544Y-51931602D01*
X41789951Y-51852890D01*
X41348019Y-52294822D01*
X41345925Y-52287007D01*
X41280099Y-52172993D01*
X41187007Y-52079901D01*
X41072993Y-52014075D01*
X41065176Y-52011980D01*
X41507107Y-51570048D01*
X41428397Y-51517455D01*
X41428387Y-51517449D01*
X41375661Y-51489266D01*
X41230072Y-51428960D01*
X41172848Y-51411601D01*
X41018283Y-51380858D01*
X40958791Y-51375000D01*
X40240232Y-51375000D01*
X40233173Y-51375081D01*
X40123500Y-51398216D01*
X40093488Y-51410645D01*
X40093488Y-51410646D01*
X40694823Y-52011980D01*
X40687007Y-52014075D01*
X40572993Y-52079901D01*
X40479901Y-52172993D01*
X40414075Y-52287007D01*
X40411980Y-52294822D01*
X39810646Y-51693488D01*
X39810645Y-51693488D01*
X39798226Y-51723474D01*
X39795597Y-51730035D01*
X39795597Y-51730036D01*
X39775000Y-51840220D01*
X24205000Y-51840220D01*
X24204950Y-51835918D01*
X24204951Y-51835911D01*
X24204950Y-51835903D01*
X24204918Y-51833172D01*
X24181785Y-51723504D01*
X24169352Y-51693489D01*
X23568019Y-52294822D01*
X23565925Y-52287007D01*
X23500099Y-52172993D01*
X23407007Y-52079901D01*
X23292993Y-52014075D01*
X23285177Y-52011980D01*
X23886510Y-51410647D01*
X23886509Y-51410645D01*
X23856524Y-51398226D01*
X23849967Y-51395598D01*
X23849963Y-51395597D01*
X23739780Y-51375000D01*
X23021209Y-51375000D01*
X22961718Y-51380858D01*
X22961714Y-51380858D01*
X22807151Y-51411601D01*
X22749927Y-51428960D01*
X22604338Y-51489266D01*
X22551607Y-51517452D01*
X22472891Y-51570048D01*
X22472890Y-51570048D01*
X22914823Y-52011980D01*
X22907007Y-52014075D01*
X22792993Y-52079901D01*
X22699901Y-52172993D01*
X22634075Y-52287007D01*
X22631980Y-52294822D01*
X22190048Y-51852890D01*
X22190048Y-51852891D01*
X22137452Y-51931607D01*
X22109266Y-51984338D01*
X22048960Y-52129927D01*
X22031601Y-52187151D01*
X22000858Y-52341714D01*
X22000858Y-52341718D01*
X21995000Y-52401208D01*
X20500500Y-52401208D01*
X20500500Y-50038543D01*
X22099499Y-50038543D01*
X22137947Y-50231829D01*
X22137950Y-50231839D01*
X22213364Y-50413907D01*
X22213371Y-50413920D01*
X22322860Y-50577781D01*
X22322863Y-50577785D01*
X22462214Y-50717136D01*
X22462218Y-50717139D01*
X22626079Y-50826628D01*
X22626092Y-50826635D01*
X22770930Y-50886628D01*
X22808165Y-50902051D01*
X22808169Y-50902051D01*
X22808170Y-50902052D01*
X23001456Y-50940500D01*
X23001459Y-50940500D01*
X23198543Y-50940500D01*
X23328582Y-50914632D01*
X23391835Y-50902051D01*
X23573914Y-50826632D01*
X23737782Y-50717139D01*
X23877139Y-50577782D01*
X23986632Y-50413914D01*
X24062051Y-50231835D01*
X24100500Y-50038543D01*
X39879499Y-50038543D01*
X39917947Y-50231829D01*
X39917950Y-50231839D01*
X39993364Y-50413907D01*
X39993371Y-50413920D01*
X40102860Y-50577781D01*
X40102863Y-50577785D01*
X40242214Y-50717136D01*
X40242218Y-50717139D01*
X40406079Y-50826628D01*
X40406092Y-50826635D01*
X40550930Y-50886628D01*
X40588165Y-50902051D01*
X40588169Y-50902051D01*
X40588170Y-50902052D01*
X40781456Y-50940500D01*
X40781459Y-50940500D01*
X40978543Y-50940500D01*
X41108582Y-50914632D01*
X41171835Y-50902051D01*
X41353914Y-50826632D01*
X41517782Y-50717139D01*
X41657139Y-50577782D01*
X41766632Y-50413914D01*
X41842051Y-50231835D01*
X41880500Y-50038541D01*
X41880500Y-49841459D01*
X41880500Y-49841456D01*
X41842052Y-49648170D01*
X41842051Y-49648169D01*
X41842051Y-49648165D01*
X41827560Y-49613181D01*
X41766635Y-49466092D01*
X41766628Y-49466079D01*
X41657139Y-49302218D01*
X41657136Y-49302214D01*
X41517785Y-49162863D01*
X41517781Y-49162860D01*
X41353920Y-49053371D01*
X41353907Y-49053364D01*
X41171839Y-48977950D01*
X41171829Y-48977947D01*
X40978543Y-48939500D01*
X40978541Y-48939500D01*
X40781459Y-48939500D01*
X40781457Y-48939500D01*
X40588170Y-48977947D01*
X40588160Y-48977950D01*
X40406092Y-49053364D01*
X40406079Y-49053371D01*
X40242218Y-49162860D01*
X40242214Y-49162863D01*
X40102863Y-49302214D01*
X40102860Y-49302218D01*
X39993371Y-49466079D01*
X39993364Y-49466092D01*
X39917950Y-49648160D01*
X39917947Y-49648170D01*
X39879500Y-49841456D01*
X39879500Y-49841459D01*
X39879500Y-50038541D01*
X39879500Y-50038543D01*
X39879499Y-50038543D01*
X24100500Y-50038543D01*
X24100500Y-50038541D01*
X24100500Y-49841459D01*
X24100500Y-49841456D01*
X24062052Y-49648170D01*
X24062051Y-49648169D01*
X24062051Y-49648165D01*
X24047560Y-49613181D01*
X23986635Y-49466092D01*
X23986628Y-49466079D01*
X23877139Y-49302218D01*
X23877136Y-49302214D01*
X23737785Y-49162863D01*
X23737781Y-49162860D01*
X23573920Y-49053371D01*
X23573907Y-49053364D01*
X23391839Y-48977950D01*
X23391829Y-48977947D01*
X23198543Y-48939500D01*
X23198541Y-48939500D01*
X23001459Y-48939500D01*
X23001457Y-48939500D01*
X22808170Y-48977947D01*
X22808160Y-48977950D01*
X22626092Y-49053364D01*
X22626079Y-49053371D01*
X22462218Y-49162860D01*
X22462214Y-49162863D01*
X22322863Y-49302214D01*
X22322860Y-49302218D01*
X22213371Y-49466079D01*
X22213364Y-49466092D01*
X22137950Y-49648160D01*
X22137947Y-49648170D01*
X22099500Y-49841456D01*
X22099500Y-49841459D01*
X22099500Y-50038541D01*
X22099500Y-50038543D01*
X22099499Y-50038543D01*
X20500500Y-50038543D01*
X20500500Y-47498543D01*
X22099499Y-47498543D01*
X22137947Y-47691829D01*
X22137950Y-47691839D01*
X22213364Y-47873907D01*
X22213371Y-47873920D01*
X22322860Y-48037781D01*
X22322863Y-48037785D01*
X22462214Y-48177136D01*
X22462218Y-48177139D01*
X22626079Y-48286628D01*
X22626092Y-48286635D01*
X22780278Y-48350500D01*
X22808165Y-48362051D01*
X22808169Y-48362051D01*
X22808170Y-48362052D01*
X23001456Y-48400500D01*
X23001459Y-48400500D01*
X23198543Y-48400500D01*
X23350943Y-48370185D01*
X23391835Y-48362051D01*
X23573914Y-48286632D01*
X23737782Y-48177139D01*
X23877139Y-48037782D01*
X23986632Y-47873914D01*
X24062051Y-47691835D01*
X24095022Y-47526080D01*
X24100500Y-47498543D01*
X39879499Y-47498543D01*
X39917947Y-47691829D01*
X39917950Y-47691839D01*
X39993364Y-47873907D01*
X39993371Y-47873920D01*
X40102860Y-48037781D01*
X40102863Y-48037785D01*
X40242214Y-48177136D01*
X40242218Y-48177139D01*
X40406079Y-48286628D01*
X40406092Y-48286635D01*
X40560278Y-48350500D01*
X40588165Y-48362051D01*
X40588169Y-48362051D01*
X40588170Y-48362052D01*
X40781456Y-48400500D01*
X40781459Y-48400500D01*
X40978543Y-48400500D01*
X41130943Y-48370185D01*
X41171835Y-48362051D01*
X41353914Y-48286632D01*
X41517782Y-48177139D01*
X41657139Y-48037782D01*
X41766632Y-47873914D01*
X41842051Y-47691835D01*
X41875022Y-47526080D01*
X41880500Y-47498543D01*
X41880500Y-47301456D01*
X41842052Y-47108170D01*
X41842051Y-47108169D01*
X41842051Y-47108165D01*
X41792230Y-46987885D01*
X41766635Y-46926092D01*
X41766628Y-46926079D01*
X41657139Y-46762218D01*
X41657136Y-46762214D01*
X41517785Y-46622863D01*
X41517781Y-46622860D01*
X41353920Y-46513371D01*
X41353907Y-46513364D01*
X41171839Y-46437950D01*
X41171829Y-46437947D01*
X40978543Y-46399500D01*
X40978541Y-46399500D01*
X40781459Y-46399500D01*
X40781457Y-46399500D01*
X40588170Y-46437947D01*
X40588160Y-46437950D01*
X40406092Y-46513364D01*
X40406079Y-46513371D01*
X40242218Y-46622860D01*
X40242214Y-46622863D01*
X40102863Y-46762214D01*
X40102860Y-46762218D01*
X39993371Y-46926079D01*
X39993364Y-46926092D01*
X39917950Y-47108160D01*
X39917947Y-47108170D01*
X39879500Y-47301456D01*
X39879500Y-47301459D01*
X39879500Y-47498541D01*
X39879500Y-47498543D01*
X39879499Y-47498543D01*
X24100500Y-47498543D01*
X24100500Y-47301456D01*
X24062052Y-47108170D01*
X24062051Y-47108169D01*
X24062051Y-47108165D01*
X24012230Y-46987885D01*
X23986635Y-46926092D01*
X23986628Y-46926079D01*
X23877139Y-46762218D01*
X23877136Y-46762214D01*
X23737785Y-46622863D01*
X23737781Y-46622860D01*
X23573920Y-46513371D01*
X23573907Y-46513364D01*
X23391839Y-46437950D01*
X23391829Y-46437947D01*
X23198543Y-46399500D01*
X23198541Y-46399500D01*
X23001459Y-46399500D01*
X23001457Y-46399500D01*
X22808170Y-46437947D01*
X22808160Y-46437950D01*
X22626092Y-46513364D01*
X22626079Y-46513371D01*
X22462218Y-46622860D01*
X22462214Y-46622863D01*
X22322863Y-46762214D01*
X22322860Y-46762218D01*
X22213371Y-46926079D01*
X22213364Y-46926092D01*
X22137950Y-47108160D01*
X22137947Y-47108170D01*
X22099500Y-47301456D01*
X22099500Y-47301459D01*
X22099500Y-47498541D01*
X22099500Y-47498543D01*
X22099499Y-47498543D01*
X20500500Y-47498543D01*
X20500500Y-44958543D01*
X22099499Y-44958543D01*
X22137947Y-45151829D01*
X22137950Y-45151839D01*
X22213364Y-45333907D01*
X22213371Y-45333920D01*
X22322860Y-45497781D01*
X22322863Y-45497785D01*
X22462214Y-45637136D01*
X22462218Y-45637139D01*
X22626079Y-45746628D01*
X22626092Y-45746635D01*
X22808160Y-45822049D01*
X22808165Y-45822051D01*
X22808169Y-45822051D01*
X22808170Y-45822052D01*
X23001456Y-45860500D01*
X23001459Y-45860500D01*
X23198543Y-45860500D01*
X23328582Y-45834632D01*
X23391835Y-45822051D01*
X23573914Y-45746632D01*
X23737782Y-45637139D01*
X23877139Y-45497782D01*
X23986632Y-45333914D01*
X24062051Y-45151835D01*
X24099802Y-44962050D01*
X24100500Y-44958543D01*
X39879499Y-44958543D01*
X39917947Y-45151829D01*
X39917950Y-45151839D01*
X39993364Y-45333907D01*
X39993371Y-45333920D01*
X40102860Y-45497781D01*
X40102863Y-45497785D01*
X40242214Y-45637136D01*
X40242218Y-45637139D01*
X40406079Y-45746628D01*
X40406092Y-45746635D01*
X40588160Y-45822049D01*
X40588165Y-45822051D01*
X40588169Y-45822051D01*
X40588170Y-45822052D01*
X40781456Y-45860500D01*
X40781459Y-45860500D01*
X40978543Y-45860500D01*
X41108582Y-45834632D01*
X41171835Y-45822051D01*
X41353914Y-45746632D01*
X41517782Y-45637139D01*
X41657139Y-45497782D01*
X41766632Y-45333914D01*
X41842051Y-45151835D01*
X41879802Y-44962050D01*
X41880500Y-44958543D01*
X41880500Y-44761456D01*
X41842052Y-44568170D01*
X41842051Y-44568169D01*
X41842051Y-44568165D01*
X41803014Y-44473920D01*
X41766635Y-44386092D01*
X41766628Y-44386079D01*
X41657139Y-44222218D01*
X41657136Y-44222214D01*
X41517785Y-44082863D01*
X41517781Y-44082860D01*
X41353920Y-43973371D01*
X41353907Y-43973364D01*
X41171839Y-43897950D01*
X41171829Y-43897947D01*
X40978543Y-43859500D01*
X40978541Y-43859500D01*
X40781459Y-43859500D01*
X40781457Y-43859500D01*
X40588170Y-43897947D01*
X40588160Y-43897950D01*
X40406092Y-43973364D01*
X40406079Y-43973371D01*
X40242218Y-44082860D01*
X40242214Y-44082863D01*
X40102863Y-44222214D01*
X40102860Y-44222218D01*
X39993371Y-44386079D01*
X39993364Y-44386092D01*
X39917950Y-44568160D01*
X39917947Y-44568170D01*
X39879500Y-44761456D01*
X39879500Y-44761459D01*
X39879500Y-44958541D01*
X39879500Y-44958543D01*
X39879499Y-44958543D01*
X24100500Y-44958543D01*
X24100500Y-44761456D01*
X24062052Y-44568170D01*
X24062051Y-44568169D01*
X24062051Y-44568165D01*
X24023014Y-44473920D01*
X23986635Y-44386092D01*
X23986628Y-44386079D01*
X23877139Y-44222218D01*
X23877136Y-44222214D01*
X23737785Y-44082863D01*
X23737781Y-44082860D01*
X23573920Y-43973371D01*
X23573907Y-43973364D01*
X23391839Y-43897950D01*
X23391829Y-43897947D01*
X23198543Y-43859500D01*
X23198541Y-43859500D01*
X23001459Y-43859500D01*
X23001457Y-43859500D01*
X22808170Y-43897947D01*
X22808160Y-43897950D01*
X22626092Y-43973364D01*
X22626079Y-43973371D01*
X22462218Y-44082860D01*
X22462214Y-44082863D01*
X22322863Y-44222214D01*
X22322860Y-44222218D01*
X22213371Y-44386079D01*
X22213364Y-44386092D01*
X22137950Y-44568160D01*
X22137947Y-44568170D01*
X22099500Y-44761456D01*
X22099500Y-44761459D01*
X22099500Y-44958541D01*
X22099500Y-44958543D01*
X22099499Y-44958543D01*
X20500500Y-44958543D01*
X20500500Y-42418543D01*
X22099499Y-42418543D01*
X22137947Y-42611829D01*
X22137950Y-42611839D01*
X22213364Y-42793907D01*
X22213371Y-42793920D01*
X22322860Y-42957781D01*
X22322863Y-42957785D01*
X22462214Y-43097136D01*
X22462218Y-43097139D01*
X22626079Y-43206628D01*
X22626092Y-43206635D01*
X22808160Y-43282049D01*
X22808165Y-43282051D01*
X22808169Y-43282051D01*
X22808170Y-43282052D01*
X23001456Y-43320500D01*
X23001459Y-43320500D01*
X23198543Y-43320500D01*
X23369765Y-43286441D01*
X23391835Y-43282051D01*
X23573914Y-43206632D01*
X23737782Y-43097139D01*
X23877139Y-42957782D01*
X23986632Y-42793914D01*
X24062051Y-42611835D01*
X24081807Y-42512518D01*
X24100500Y-42418543D01*
X24100500Y-42221456D01*
X24062052Y-42028170D01*
X24062051Y-42028169D01*
X24062051Y-42028165D01*
X24046551Y-41990744D01*
X23986635Y-41846092D01*
X23986628Y-41846079D01*
X23877139Y-41682218D01*
X23877136Y-41682214D01*
X23737785Y-41542863D01*
X23737781Y-41542860D01*
X23573920Y-41433371D01*
X23573907Y-41433364D01*
X23391839Y-41357950D01*
X23391829Y-41357947D01*
X23198543Y-41319500D01*
X23198541Y-41319500D01*
X23001459Y-41319500D01*
X23001457Y-41319500D01*
X22808170Y-41357947D01*
X22808160Y-41357950D01*
X22626092Y-41433364D01*
X22626079Y-41433371D01*
X22462218Y-41542860D01*
X22462214Y-41542863D01*
X22322863Y-41682214D01*
X22322860Y-41682218D01*
X22213371Y-41846079D01*
X22213364Y-41846092D01*
X22137950Y-42028160D01*
X22137947Y-42028170D01*
X22099500Y-42221456D01*
X22099500Y-42221459D01*
X22099500Y-42418541D01*
X22099500Y-42418543D01*
X22099499Y-42418543D01*
X20500500Y-42418543D01*
X20500500Y-39701208D01*
X21995000Y-39701208D01*
X21995000Y-39858791D01*
X22000858Y-39918281D01*
X22000858Y-39918285D01*
X22031601Y-40072848D01*
X22048960Y-40130072D01*
X22109266Y-40275661D01*
X22137449Y-40328387D01*
X22137455Y-40328397D01*
X22190048Y-40407107D01*
X22631980Y-39965176D01*
X22634075Y-39972993D01*
X22699901Y-40087007D01*
X22792993Y-40180099D01*
X22907007Y-40245925D01*
X22914823Y-40248019D01*
X22472890Y-40689951D01*
X22551602Y-40742544D01*
X22551612Y-40742550D01*
X22604338Y-40770733D01*
X22749927Y-40831039D01*
X22807151Y-40848398D01*
X22961716Y-40879141D01*
X23021209Y-40885000D01*
X23739768Y-40885000D01*
X23746826Y-40884918D01*
X23856497Y-40861784D01*
X23886510Y-40849352D01*
X23285177Y-40248019D01*
X23292993Y-40245925D01*
X23407007Y-40180099D01*
X23500099Y-40087007D01*
X23565925Y-39972993D01*
X23568019Y-39965177D01*
X24169352Y-40566510D01*
X24181781Y-40536505D01*
X24184402Y-40529963D01*
X24205000Y-40419779D01*
X24205000Y-39140232D01*
X24204918Y-39133173D01*
X24181785Y-39023504D01*
X24169352Y-38993489D01*
X23568019Y-39594822D01*
X23565925Y-39587007D01*
X23500099Y-39472993D01*
X23407007Y-39379901D01*
X23292993Y-39314075D01*
X23285177Y-39311980D01*
X23886510Y-38710647D01*
X23886509Y-38710645D01*
X23856524Y-38698226D01*
X23849967Y-38695598D01*
X23849963Y-38695597D01*
X23739780Y-38675000D01*
X23021209Y-38675000D01*
X22961718Y-38680858D01*
X22961714Y-38680858D01*
X22807151Y-38711601D01*
X22749927Y-38728960D01*
X22604338Y-38789266D01*
X22551607Y-38817452D01*
X22472891Y-38870048D01*
X22472890Y-38870048D01*
X22914823Y-39311980D01*
X22907007Y-39314075D01*
X22792993Y-39379901D01*
X22699901Y-39472993D01*
X22634075Y-39587007D01*
X22631980Y-39594822D01*
X22190048Y-39152890D01*
X22190048Y-39152891D01*
X22137452Y-39231607D01*
X22109266Y-39284338D01*
X22048960Y-39429927D01*
X22031601Y-39487151D01*
X22000858Y-39641714D01*
X22000858Y-39641718D01*
X21995000Y-39701208D01*
X20500500Y-39701208D01*
X20500500Y-37338543D01*
X22099499Y-37338543D01*
X22137947Y-37531829D01*
X22137950Y-37531839D01*
X22213364Y-37713907D01*
X22213371Y-37713920D01*
X22322860Y-37877781D01*
X22322863Y-37877785D01*
X22462214Y-38017136D01*
X22462218Y-38017139D01*
X22626079Y-38126628D01*
X22626092Y-38126635D01*
X22808160Y-38202049D01*
X22808165Y-38202051D01*
X22808169Y-38202051D01*
X22808170Y-38202052D01*
X23001456Y-38240500D01*
X23001459Y-38240500D01*
X23198543Y-38240500D01*
X23328582Y-38214632D01*
X23391835Y-38202051D01*
X23573914Y-38126632D01*
X23737782Y-38017139D01*
X23877139Y-37877782D01*
X23986632Y-37713914D01*
X24062051Y-37531835D01*
X24074632Y-37468582D01*
X24100500Y-37338543D01*
X24100500Y-37141456D01*
X24062052Y-36948170D01*
X24062051Y-36948169D01*
X24062051Y-36948165D01*
X24036565Y-36886635D01*
X23986635Y-36766092D01*
X23986628Y-36766079D01*
X23877139Y-36602218D01*
X23877136Y-36602214D01*
X23737785Y-36462863D01*
X23737781Y-36462860D01*
X23573920Y-36353371D01*
X23573907Y-36353364D01*
X23391839Y-36277950D01*
X23391829Y-36277947D01*
X23198543Y-36239500D01*
X23198541Y-36239500D01*
X23001459Y-36239500D01*
X23001457Y-36239500D01*
X22808170Y-36277947D01*
X22808160Y-36277950D01*
X22626092Y-36353364D01*
X22626079Y-36353371D01*
X22462218Y-36462860D01*
X22462214Y-36462863D01*
X22322863Y-36602214D01*
X22322860Y-36602218D01*
X22213371Y-36766079D01*
X22213364Y-36766092D01*
X22137950Y-36948160D01*
X22137947Y-36948170D01*
X22099500Y-37141456D01*
X22099500Y-37141459D01*
X22099500Y-37338541D01*
X22099500Y-37338543D01*
X22099499Y-37338543D01*
X20500500Y-37338543D01*
X20500500Y-34798543D01*
X22099499Y-34798543D01*
X22137947Y-34991829D01*
X22137950Y-34991839D01*
X22213364Y-35173907D01*
X22213371Y-35173920D01*
X22322860Y-35337781D01*
X22322863Y-35337785D01*
X22462214Y-35477136D01*
X22462218Y-35477139D01*
X22626079Y-35586628D01*
X22626092Y-35586635D01*
X22808160Y-35662049D01*
X22808165Y-35662051D01*
X22808169Y-35662051D01*
X22808170Y-35662052D01*
X23001456Y-35700500D01*
X23001459Y-35700500D01*
X23198543Y-35700500D01*
X23328582Y-35674632D01*
X23391835Y-35662051D01*
X23573914Y-35586632D01*
X23737782Y-35477139D01*
X23877139Y-35337782D01*
X23986632Y-35173914D01*
X24062051Y-34991835D01*
X24100500Y-34798543D01*
X39879499Y-34798543D01*
X39917947Y-34991829D01*
X39917950Y-34991839D01*
X39993364Y-35173907D01*
X39993371Y-35173920D01*
X40102860Y-35337781D01*
X40102863Y-35337785D01*
X40242214Y-35477136D01*
X40242218Y-35477139D01*
X40406079Y-35586628D01*
X40406092Y-35586635D01*
X40588160Y-35662049D01*
X40588165Y-35662051D01*
X40588169Y-35662051D01*
X40588170Y-35662052D01*
X40781456Y-35700500D01*
X40781459Y-35700500D01*
X40978543Y-35700500D01*
X41108582Y-35674632D01*
X41171835Y-35662051D01*
X41353914Y-35586632D01*
X41517782Y-35477139D01*
X41657139Y-35337782D01*
X41766632Y-35173914D01*
X41842051Y-34991835D01*
X41880500Y-34798541D01*
X41880500Y-34601459D01*
X41880500Y-34601456D01*
X41842052Y-34408170D01*
X41842051Y-34408169D01*
X41842051Y-34408165D01*
X41842049Y-34408160D01*
X41766635Y-34226092D01*
X41766628Y-34226079D01*
X41657139Y-34062218D01*
X41657136Y-34062214D01*
X41517785Y-33922863D01*
X41517781Y-33922860D01*
X41353920Y-33813371D01*
X41353907Y-33813364D01*
X41171839Y-33737950D01*
X41171829Y-33737947D01*
X40978543Y-33699500D01*
X40978541Y-33699500D01*
X40781459Y-33699500D01*
X40781457Y-33699500D01*
X40588170Y-33737947D01*
X40588160Y-33737950D01*
X40406092Y-33813364D01*
X40406079Y-33813371D01*
X40242218Y-33922860D01*
X40242214Y-33922863D01*
X40102863Y-34062214D01*
X40102860Y-34062218D01*
X39993371Y-34226079D01*
X39993364Y-34226092D01*
X39917950Y-34408160D01*
X39917947Y-34408170D01*
X39879500Y-34601456D01*
X39879500Y-34601459D01*
X39879500Y-34798541D01*
X39879500Y-34798543D01*
X39879499Y-34798543D01*
X24100500Y-34798543D01*
X24100500Y-34798541D01*
X24100500Y-34601459D01*
X24100500Y-34601456D01*
X24062052Y-34408170D01*
X24062051Y-34408169D01*
X24062051Y-34408165D01*
X24062049Y-34408160D01*
X23986635Y-34226092D01*
X23986628Y-34226079D01*
X23877139Y-34062218D01*
X23877136Y-34062214D01*
X23737785Y-33922863D01*
X23737781Y-33922860D01*
X23573920Y-33813371D01*
X23573907Y-33813364D01*
X23391839Y-33737950D01*
X23391829Y-33737947D01*
X23198543Y-33699500D01*
X23198541Y-33699500D01*
X23001459Y-33699500D01*
X23001457Y-33699500D01*
X22808170Y-33737947D01*
X22808160Y-33737950D01*
X22626092Y-33813364D01*
X22626079Y-33813371D01*
X22462218Y-33922860D01*
X22462214Y-33922863D01*
X22322863Y-34062214D01*
X22322860Y-34062218D01*
X22213371Y-34226079D01*
X22213364Y-34226092D01*
X22137950Y-34408160D01*
X22137947Y-34408170D01*
X22099500Y-34601456D01*
X22099500Y-34601459D01*
X22099500Y-34798541D01*
X22099500Y-34798543D01*
X22099499Y-34798543D01*
X20500500Y-34798543D01*
X20500500Y-32258543D01*
X22099499Y-32258543D01*
X22137947Y-32451829D01*
X22137950Y-32451839D01*
X22213364Y-32633907D01*
X22213371Y-32633920D01*
X22322860Y-32797781D01*
X22322863Y-32797785D01*
X22462214Y-32937136D01*
X22462218Y-32937139D01*
X22626079Y-33046628D01*
X22626092Y-33046635D01*
X22808160Y-33122049D01*
X22808165Y-33122051D01*
X22808169Y-33122051D01*
X22808170Y-33122052D01*
X23001456Y-33160500D01*
X23001459Y-33160500D01*
X23198543Y-33160500D01*
X23328582Y-33134632D01*
X23391835Y-33122051D01*
X23573914Y-33046632D01*
X23737782Y-32937139D01*
X23877139Y-32797782D01*
X23986632Y-32633914D01*
X24062051Y-32451835D01*
X24100500Y-32258543D01*
X39879499Y-32258543D01*
X39917947Y-32451829D01*
X39917950Y-32451839D01*
X39993364Y-32633907D01*
X39993371Y-32633920D01*
X40102860Y-32797781D01*
X40102863Y-32797785D01*
X40242214Y-32937136D01*
X40242218Y-32937139D01*
X40406079Y-33046628D01*
X40406092Y-33046635D01*
X40588160Y-33122049D01*
X40588165Y-33122051D01*
X40588169Y-33122051D01*
X40588170Y-33122052D01*
X40781456Y-33160500D01*
X40781459Y-33160500D01*
X40978543Y-33160500D01*
X41108582Y-33134632D01*
X41171835Y-33122051D01*
X41353914Y-33046632D01*
X41517782Y-32937139D01*
X41657139Y-32797782D01*
X41766632Y-32633914D01*
X41842051Y-32451835D01*
X41880500Y-32258541D01*
X41880500Y-32061459D01*
X41880500Y-32061456D01*
X41842052Y-31868170D01*
X41842051Y-31868169D01*
X41842051Y-31868165D01*
X41798441Y-31762880D01*
X41766635Y-31686092D01*
X41766628Y-31686079D01*
X41657139Y-31522218D01*
X41657136Y-31522214D01*
X41517785Y-31382863D01*
X41517781Y-31382860D01*
X41353920Y-31273371D01*
X41353907Y-31273364D01*
X41171839Y-31197950D01*
X41171829Y-31197947D01*
X40978543Y-31159500D01*
X40978541Y-31159500D01*
X40781459Y-31159500D01*
X40781457Y-31159500D01*
X40588170Y-31197947D01*
X40588160Y-31197950D01*
X40406092Y-31273364D01*
X40406079Y-31273371D01*
X40242218Y-31382860D01*
X40242214Y-31382863D01*
X40102863Y-31522214D01*
X40102860Y-31522218D01*
X39993371Y-31686079D01*
X39993364Y-31686092D01*
X39917950Y-31868160D01*
X39917947Y-31868170D01*
X39879500Y-32061456D01*
X39879500Y-32061459D01*
X39879500Y-32258541D01*
X39879500Y-32258543D01*
X39879499Y-32258543D01*
X24100500Y-32258543D01*
X24100500Y-32258541D01*
X24100500Y-32061459D01*
X24100500Y-32061456D01*
X24062052Y-31868170D01*
X24062051Y-31868169D01*
X24062051Y-31868165D01*
X24018441Y-31762880D01*
X23986635Y-31686092D01*
X23986628Y-31686079D01*
X23877139Y-31522218D01*
X23877136Y-31522214D01*
X23737785Y-31382863D01*
X23737781Y-31382860D01*
X23573920Y-31273371D01*
X23573907Y-31273364D01*
X23391839Y-31197950D01*
X23391829Y-31197947D01*
X23198543Y-31159500D01*
X23198541Y-31159500D01*
X23001459Y-31159500D01*
X23001457Y-31159500D01*
X22808170Y-31197947D01*
X22808160Y-31197950D01*
X22626092Y-31273364D01*
X22626079Y-31273371D01*
X22462218Y-31382860D01*
X22462214Y-31382863D01*
X22322863Y-31522214D01*
X22322860Y-31522218D01*
X22213371Y-31686079D01*
X22213364Y-31686092D01*
X22137950Y-31868160D01*
X22137947Y-31868170D01*
X22099500Y-32061456D01*
X22099500Y-32061459D01*
X22099500Y-32258541D01*
X22099500Y-32258543D01*
X22099499Y-32258543D01*
X20500500Y-32258543D01*
X20500500Y-29718543D01*
X22099499Y-29718543D01*
X22137947Y-29911829D01*
X22137950Y-29911839D01*
X22213364Y-30093907D01*
X22213371Y-30093920D01*
X22322860Y-30257781D01*
X22322863Y-30257785D01*
X22462214Y-30397136D01*
X22462218Y-30397139D01*
X22626079Y-30506628D01*
X22626092Y-30506635D01*
X22808160Y-30582049D01*
X22808165Y-30582051D01*
X22808169Y-30582051D01*
X22808170Y-30582052D01*
X23001456Y-30620500D01*
X23001459Y-30620500D01*
X23198543Y-30620500D01*
X23328582Y-30594632D01*
X23391835Y-30582051D01*
X23573914Y-30506632D01*
X23737782Y-30397139D01*
X23877139Y-30257782D01*
X23986632Y-30093914D01*
X24062051Y-29911835D01*
X24100500Y-29718543D01*
X39879499Y-29718543D01*
X39917947Y-29911829D01*
X39917950Y-29911839D01*
X39993364Y-30093907D01*
X39993371Y-30093920D01*
X40102860Y-30257781D01*
X40102863Y-30257785D01*
X40242214Y-30397136D01*
X40242218Y-30397139D01*
X40406079Y-30506628D01*
X40406092Y-30506635D01*
X40588160Y-30582049D01*
X40588165Y-30582051D01*
X40588169Y-30582051D01*
X40588170Y-30582052D01*
X40781456Y-30620500D01*
X40781459Y-30620500D01*
X40978543Y-30620500D01*
X41108582Y-30594632D01*
X41171835Y-30582051D01*
X41353914Y-30506632D01*
X41517782Y-30397139D01*
X41657139Y-30257782D01*
X41763539Y-30098543D01*
X44999499Y-30098543D01*
X45037947Y-30291829D01*
X45037950Y-30291839D01*
X45113364Y-30473907D01*
X45113371Y-30473920D01*
X45222860Y-30637781D01*
X45222863Y-30637785D01*
X45362214Y-30777136D01*
X45362218Y-30777139D01*
X45526079Y-30886628D01*
X45526092Y-30886635D01*
X45708160Y-30962049D01*
X45708165Y-30962051D01*
X45708169Y-30962051D01*
X45708170Y-30962052D01*
X45901456Y-31000500D01*
X45901459Y-31000500D01*
X46098543Y-31000500D01*
X46228582Y-30974632D01*
X46291835Y-30962051D01*
X46473914Y-30886632D01*
X46637782Y-30777139D01*
X46777139Y-30637782D01*
X46886632Y-30473914D01*
X46962051Y-30291835D01*
X46997551Y-30113368D01*
X47000500Y-30098543D01*
X49999499Y-30098543D01*
X50037947Y-30291829D01*
X50037950Y-30291839D01*
X50113364Y-30473907D01*
X50113371Y-30473920D01*
X50222860Y-30637781D01*
X50222863Y-30637785D01*
X50362214Y-30777136D01*
X50362218Y-30777139D01*
X50526079Y-30886628D01*
X50526092Y-30886635D01*
X50708160Y-30962049D01*
X50708165Y-30962051D01*
X50708169Y-30962051D01*
X50708170Y-30962052D01*
X50901456Y-31000500D01*
X50901459Y-31000500D01*
X51098543Y-31000500D01*
X51228582Y-30974632D01*
X51291835Y-30962051D01*
X51473914Y-30886632D01*
X51637782Y-30777139D01*
X51777139Y-30637782D01*
X51886632Y-30473914D01*
X51919017Y-30395730D01*
X54999500Y-30395730D01*
X54999500Y-31604269D01*
X55002353Y-31634699D01*
X55002353Y-31634701D01*
X55047206Y-31762880D01*
X55047207Y-31762882D01*
X55127850Y-31872150D01*
X55237118Y-31952793D01*
X55263576Y-31962051D01*
X55365299Y-31997646D01*
X55395730Y-32000500D01*
X55395734Y-32000500D01*
X56604270Y-32000500D01*
X56634699Y-31997646D01*
X56634701Y-31997646D01*
X56698790Y-31975219D01*
X56762882Y-31952793D01*
X56872150Y-31872150D01*
X56952793Y-31762882D01*
X56979665Y-31686086D01*
X56997646Y-31634701D01*
X56997646Y-31634699D01*
X57000500Y-31604269D01*
X57000500Y-31098543D01*
X57499499Y-31098543D01*
X57537947Y-31291829D01*
X57537950Y-31291839D01*
X57613364Y-31473907D01*
X57613371Y-31473920D01*
X57722860Y-31637781D01*
X57722863Y-31637785D01*
X57862214Y-31777136D01*
X57862218Y-31777139D01*
X58026079Y-31886628D01*
X58026092Y-31886635D01*
X58185814Y-31952793D01*
X58208165Y-31962051D01*
X58208169Y-31962051D01*
X58208170Y-31962052D01*
X58401456Y-32000500D01*
X58401459Y-32000500D01*
X58598543Y-32000500D01*
X58728582Y-31974632D01*
X58791835Y-31962051D01*
X58973914Y-31886632D01*
X59137782Y-31777139D01*
X59277139Y-31637782D01*
X59386632Y-31473914D01*
X59462051Y-31291835D01*
X59480727Y-31197947D01*
X59500500Y-31098543D01*
X59500500Y-30901456D01*
X59462052Y-30708170D01*
X59462051Y-30708169D01*
X59462051Y-30708165D01*
X59432897Y-30637781D01*
X59386635Y-30526092D01*
X59386628Y-30526079D01*
X59277139Y-30362218D01*
X59277136Y-30362214D01*
X59137785Y-30222863D01*
X59137781Y-30222860D01*
X58973920Y-30113371D01*
X58973907Y-30113364D01*
X58791839Y-30037950D01*
X58791829Y-30037947D01*
X58598543Y-29999500D01*
X58598541Y-29999500D01*
X58401459Y-29999500D01*
X58401457Y-29999500D01*
X58208170Y-30037947D01*
X58208160Y-30037950D01*
X58026092Y-30113364D01*
X58026079Y-30113371D01*
X57862218Y-30222860D01*
X57862214Y-30222863D01*
X57722863Y-30362214D01*
X57722860Y-30362218D01*
X57613371Y-30526079D01*
X57613364Y-30526092D01*
X57537950Y-30708160D01*
X57537947Y-30708170D01*
X57499500Y-30901456D01*
X57499500Y-30901459D01*
X57499500Y-31098541D01*
X57499500Y-31098543D01*
X57499499Y-31098543D01*
X57000500Y-31098543D01*
X57000500Y-30395730D01*
X56997646Y-30365300D01*
X56997646Y-30365298D01*
X56960025Y-30257785D01*
X56952793Y-30237118D01*
X56872150Y-30127850D01*
X56762882Y-30047207D01*
X56762880Y-30047206D01*
X56634700Y-30002353D01*
X56604270Y-29999500D01*
X56604266Y-29999500D01*
X55395734Y-29999500D01*
X55395730Y-29999500D01*
X55365300Y-30002353D01*
X55365298Y-30002353D01*
X55237119Y-30047206D01*
X55237117Y-30047207D01*
X55127850Y-30127850D01*
X55047207Y-30237117D01*
X55047206Y-30237119D01*
X55002353Y-30365298D01*
X55002353Y-30365300D01*
X54999500Y-30395730D01*
X51919017Y-30395730D01*
X51962051Y-30291835D01*
X51997551Y-30113368D01*
X52000500Y-30098543D01*
X52000500Y-29901456D01*
X51962052Y-29708170D01*
X51962051Y-29708169D01*
X51962051Y-29708165D01*
X51962049Y-29708160D01*
X51886635Y-29526092D01*
X51886628Y-29526079D01*
X51777139Y-29362218D01*
X51777136Y-29362214D01*
X51637785Y-29222863D01*
X51637781Y-29222860D01*
X51473920Y-29113371D01*
X51473907Y-29113364D01*
X51291839Y-29037950D01*
X51291829Y-29037947D01*
X51098543Y-28999500D01*
X51098541Y-28999500D01*
X50901459Y-28999500D01*
X50901457Y-28999500D01*
X50708170Y-29037947D01*
X50708160Y-29037950D01*
X50526092Y-29113364D01*
X50526079Y-29113371D01*
X50362218Y-29222860D01*
X50362214Y-29222863D01*
X50222863Y-29362214D01*
X50222860Y-29362218D01*
X50113371Y-29526079D01*
X50113364Y-29526092D01*
X50037950Y-29708160D01*
X50037947Y-29708170D01*
X49999500Y-29901456D01*
X49999500Y-29901459D01*
X49999500Y-30098541D01*
X49999500Y-30098543D01*
X49999499Y-30098543D01*
X47000500Y-30098543D01*
X47000500Y-29901456D01*
X46962052Y-29708170D01*
X46962051Y-29708169D01*
X46962051Y-29708165D01*
X46962049Y-29708160D01*
X46886635Y-29526092D01*
X46886628Y-29526079D01*
X46777139Y-29362218D01*
X46777136Y-29362214D01*
X46637785Y-29222863D01*
X46637781Y-29222860D01*
X46473920Y-29113371D01*
X46473907Y-29113364D01*
X46291839Y-29037950D01*
X46291829Y-29037947D01*
X46098543Y-28999500D01*
X46098541Y-28999500D01*
X45901459Y-28999500D01*
X45901457Y-28999500D01*
X45708170Y-29037947D01*
X45708160Y-29037950D01*
X45526092Y-29113364D01*
X45526079Y-29113371D01*
X45362218Y-29222860D01*
X45362214Y-29222863D01*
X45222863Y-29362214D01*
X45222860Y-29362218D01*
X45113371Y-29526079D01*
X45113364Y-29526092D01*
X45037950Y-29708160D01*
X45037947Y-29708170D01*
X44999500Y-29901456D01*
X44999500Y-29901459D01*
X44999500Y-30098541D01*
X44999500Y-30098543D01*
X44999499Y-30098543D01*
X41763539Y-30098543D01*
X41766632Y-30093914D01*
X41842051Y-29911835D01*
X41880500Y-29718541D01*
X41880500Y-29521459D01*
X41880500Y-29521456D01*
X41842052Y-29328170D01*
X41842051Y-29328169D01*
X41842051Y-29328165D01*
X41799905Y-29226414D01*
X41766635Y-29146092D01*
X41766628Y-29146079D01*
X41657139Y-28982218D01*
X41657136Y-28982214D01*
X41517785Y-28842863D01*
X41517781Y-28842860D01*
X41353920Y-28733371D01*
X41353907Y-28733364D01*
X41171839Y-28657950D01*
X41171829Y-28657947D01*
X40978543Y-28619500D01*
X40978541Y-28619500D01*
X40781459Y-28619500D01*
X40781457Y-28619500D01*
X40588170Y-28657947D01*
X40588160Y-28657950D01*
X40406092Y-28733364D01*
X40406079Y-28733371D01*
X40242218Y-28842860D01*
X40242214Y-28842863D01*
X40102863Y-28982214D01*
X40102860Y-28982218D01*
X39993371Y-29146079D01*
X39993364Y-29146092D01*
X39917950Y-29328160D01*
X39917947Y-29328170D01*
X39879500Y-29521456D01*
X39879500Y-29521459D01*
X39879500Y-29718541D01*
X39879500Y-29718543D01*
X39879499Y-29718543D01*
X24100500Y-29718543D01*
X24100500Y-29718541D01*
X24100500Y-29521459D01*
X24100500Y-29521456D01*
X24062052Y-29328170D01*
X24062051Y-29328169D01*
X24062051Y-29328165D01*
X24019905Y-29226414D01*
X23986635Y-29146092D01*
X23986628Y-29146079D01*
X23877139Y-28982218D01*
X23877136Y-28982214D01*
X23737785Y-28842863D01*
X23737781Y-28842860D01*
X23573920Y-28733371D01*
X23573907Y-28733364D01*
X23391839Y-28657950D01*
X23391829Y-28657947D01*
X23198543Y-28619500D01*
X23198541Y-28619500D01*
X23001459Y-28619500D01*
X23001457Y-28619500D01*
X22808170Y-28657947D01*
X22808160Y-28657950D01*
X22626092Y-28733364D01*
X22626079Y-28733371D01*
X22462218Y-28842860D01*
X22462214Y-28842863D01*
X22322863Y-28982214D01*
X22322860Y-28982218D01*
X22213371Y-29146079D01*
X22213364Y-29146092D01*
X22137950Y-29328160D01*
X22137947Y-29328170D01*
X22099500Y-29521456D01*
X22099500Y-29521459D01*
X22099500Y-29718541D01*
X22099500Y-29718543D01*
X22099499Y-29718543D01*
X20500500Y-29718543D01*
X20500500Y-27001208D01*
X21995000Y-27001208D01*
X21995000Y-27158791D01*
X22000858Y-27218281D01*
X22000858Y-27218285D01*
X22031601Y-27372848D01*
X22048960Y-27430072D01*
X22109266Y-27575661D01*
X22137449Y-27628387D01*
X22137455Y-27628397D01*
X22190048Y-27707107D01*
X22631980Y-27265176D01*
X22634075Y-27272993D01*
X22699901Y-27387007D01*
X22792993Y-27480099D01*
X22907007Y-27545925D01*
X22914823Y-27548019D01*
X22472890Y-27989951D01*
X22551602Y-28042544D01*
X22551612Y-28042550D01*
X22604338Y-28070733D01*
X22749927Y-28131039D01*
X22807151Y-28148398D01*
X22961716Y-28179141D01*
X23021209Y-28185000D01*
X23739768Y-28185000D01*
X23746826Y-28184918D01*
X23856497Y-28161784D01*
X23886510Y-28149352D01*
X23285177Y-27548019D01*
X23292993Y-27545925D01*
X23407007Y-27480099D01*
X23500099Y-27387007D01*
X23565925Y-27272993D01*
X23568019Y-27265177D01*
X24169352Y-27866510D01*
X24181781Y-27836505D01*
X24184402Y-27829963D01*
X24205000Y-27719779D01*
X24205000Y-26440245D01*
X24205000Y-26440220D01*
X39775000Y-26440220D01*
X39775000Y-27719767D01*
X39775081Y-27726826D01*
X39798216Y-27836500D01*
X39798216Y-27836502D01*
X39810645Y-27866509D01*
X39810647Y-27866510D01*
X40411980Y-27265176D01*
X40414075Y-27272993D01*
X40479901Y-27387007D01*
X40572993Y-27480099D01*
X40687007Y-27545925D01*
X40694823Y-27548019D01*
X40093489Y-28149353D01*
X40123462Y-28161768D01*
X40130035Y-28164402D01*
X40240220Y-28185000D01*
X40958791Y-28185000D01*
X41018281Y-28179141D01*
X41018285Y-28179141D01*
X41172848Y-28148398D01*
X41230072Y-28131039D01*
X41375661Y-28070733D01*
X41428387Y-28042550D01*
X41428397Y-28042544D01*
X41507108Y-27989951D01*
X41065176Y-27548019D01*
X41072993Y-27545925D01*
X41187007Y-27480099D01*
X41280099Y-27387007D01*
X41345925Y-27272993D01*
X41348019Y-27265176D01*
X41789951Y-27707108D01*
X41842544Y-27628397D01*
X41842550Y-27628387D01*
X41870733Y-27575661D01*
X41931039Y-27430072D01*
X41948398Y-27372848D01*
X41979141Y-27218285D01*
X41979141Y-27218281D01*
X41985000Y-27158791D01*
X41985000Y-27001208D01*
X41979141Y-26941718D01*
X41979141Y-26941714D01*
X41948398Y-26787151D01*
X41931039Y-26729927D01*
X41870733Y-26584338D01*
X41842550Y-26531612D01*
X41842544Y-26531602D01*
X41789951Y-26452890D01*
X41348019Y-26894822D01*
X41345925Y-26887007D01*
X41280099Y-26772993D01*
X41187007Y-26679901D01*
X41072993Y-26614075D01*
X41065176Y-26611980D01*
X41507107Y-26170048D01*
X41428397Y-26117455D01*
X41428387Y-26117449D01*
X41375661Y-26089266D01*
X41230072Y-26028960D01*
X41172848Y-26011601D01*
X41018283Y-25980858D01*
X40958791Y-25975000D01*
X40240232Y-25975000D01*
X40233173Y-25975081D01*
X40123500Y-25998216D01*
X40093488Y-26010645D01*
X40093488Y-26010646D01*
X40694823Y-26611980D01*
X40687007Y-26614075D01*
X40572993Y-26679901D01*
X40479901Y-26772993D01*
X40414075Y-26887007D01*
X40411980Y-26894822D01*
X39810646Y-26293488D01*
X39810645Y-26293488D01*
X39798226Y-26323474D01*
X39795597Y-26330035D01*
X39795597Y-26330036D01*
X39775000Y-26440220D01*
X24205000Y-26440220D01*
X24204950Y-26435918D01*
X24204951Y-26435911D01*
X24204950Y-26435903D01*
X24204918Y-26433172D01*
X24181785Y-26323504D01*
X24169352Y-26293489D01*
X23568019Y-26894822D01*
X23565925Y-26887007D01*
X23500099Y-26772993D01*
X23407007Y-26679901D01*
X23292993Y-26614075D01*
X23285177Y-26611980D01*
X23886510Y-26010647D01*
X23886509Y-26010645D01*
X23856524Y-25998226D01*
X23849967Y-25995598D01*
X23849963Y-25995597D01*
X23739780Y-25975000D01*
X23021209Y-25975000D01*
X22961718Y-25980858D01*
X22961714Y-25980858D01*
X22807151Y-26011601D01*
X22749927Y-26028960D01*
X22604338Y-26089266D01*
X22551607Y-26117452D01*
X22472891Y-26170048D01*
X22472890Y-26170048D01*
X22914823Y-26611980D01*
X22907007Y-26614075D01*
X22792993Y-26679901D01*
X22699901Y-26772993D01*
X22634075Y-26887007D01*
X22631980Y-26894822D01*
X22190048Y-26452890D01*
X22190048Y-26452891D01*
X22137452Y-26531607D01*
X22109266Y-26584338D01*
X22048960Y-26729927D01*
X22031601Y-26787151D01*
X22000858Y-26941714D01*
X22000858Y-26941718D01*
X21995000Y-27001208D01*
X20500500Y-27001208D01*
X20500500Y-24638543D01*
X22099499Y-24638543D01*
X22137947Y-24831829D01*
X22137950Y-24831839D01*
X22213364Y-25013907D01*
X22213371Y-25013920D01*
X22322860Y-25177781D01*
X22322863Y-25177785D01*
X22462214Y-25317136D01*
X22462218Y-25317139D01*
X22626079Y-25426628D01*
X22626092Y-25426635D01*
X22808160Y-25502049D01*
X22808165Y-25502051D01*
X22808169Y-25502051D01*
X22808170Y-25502052D01*
X23001456Y-25540500D01*
X23001459Y-25540500D01*
X23198543Y-25540500D01*
X23328582Y-25514632D01*
X23391835Y-25502051D01*
X23573914Y-25426632D01*
X23737782Y-25317139D01*
X23877139Y-25177782D01*
X23986632Y-25013914D01*
X24062051Y-24831835D01*
X24100500Y-24638543D01*
X39879499Y-24638543D01*
X39917947Y-24831829D01*
X39917950Y-24831839D01*
X39993364Y-25013907D01*
X39993371Y-25013920D01*
X40102860Y-25177781D01*
X40102863Y-25177785D01*
X40242214Y-25317136D01*
X40242218Y-25317139D01*
X40406079Y-25426628D01*
X40406092Y-25426635D01*
X40588160Y-25502049D01*
X40588165Y-25502051D01*
X40588169Y-25502051D01*
X40588170Y-25502052D01*
X40781456Y-25540500D01*
X40781459Y-25540500D01*
X40978543Y-25540500D01*
X41108582Y-25514632D01*
X41171835Y-25502051D01*
X41353914Y-25426632D01*
X41517782Y-25317139D01*
X41657139Y-25177782D01*
X41766632Y-25013914D01*
X41842051Y-24831835D01*
X41880500Y-24638541D01*
X41880500Y-24441459D01*
X41880500Y-24441456D01*
X41842052Y-24248170D01*
X41842051Y-24248169D01*
X41842051Y-24248165D01*
X41842049Y-24248160D01*
X41766635Y-24066092D01*
X41766628Y-24066079D01*
X41657139Y-23902218D01*
X41657136Y-23902214D01*
X41517785Y-23762863D01*
X41517781Y-23762860D01*
X41353920Y-23653371D01*
X41353907Y-23653364D01*
X41171839Y-23577950D01*
X41171829Y-23577947D01*
X40978543Y-23539500D01*
X40978541Y-23539500D01*
X40781459Y-23539500D01*
X40781457Y-23539500D01*
X40588170Y-23577947D01*
X40588160Y-23577950D01*
X40406092Y-23653364D01*
X40406079Y-23653371D01*
X40242218Y-23762860D01*
X40242214Y-23762863D01*
X40102863Y-23902214D01*
X40102860Y-23902218D01*
X39993371Y-24066079D01*
X39993364Y-24066092D01*
X39917950Y-24248160D01*
X39917947Y-24248170D01*
X39879500Y-24441456D01*
X39879500Y-24441459D01*
X39879500Y-24638541D01*
X39879500Y-24638543D01*
X39879499Y-24638543D01*
X24100500Y-24638543D01*
X24100500Y-24638541D01*
X24100500Y-24441459D01*
X24100500Y-24441456D01*
X24062052Y-24248170D01*
X24062051Y-24248169D01*
X24062051Y-24248165D01*
X24062049Y-24248160D01*
X23986635Y-24066092D01*
X23986628Y-24066079D01*
X23877139Y-23902218D01*
X23877136Y-23902214D01*
X23737785Y-23762863D01*
X23737781Y-23762860D01*
X23573920Y-23653371D01*
X23573907Y-23653364D01*
X23391839Y-23577950D01*
X23391829Y-23577947D01*
X23198543Y-23539500D01*
X23198541Y-23539500D01*
X23001459Y-23539500D01*
X23001457Y-23539500D01*
X22808170Y-23577947D01*
X22808160Y-23577950D01*
X22626092Y-23653364D01*
X22626079Y-23653371D01*
X22462218Y-23762860D01*
X22462214Y-23762863D01*
X22322863Y-23902214D01*
X22322860Y-23902218D01*
X22213371Y-24066079D01*
X22213364Y-24066092D01*
X22137950Y-24248160D01*
X22137947Y-24248170D01*
X22099500Y-24441456D01*
X22099500Y-24441459D01*
X22099500Y-24638541D01*
X22099500Y-24638543D01*
X22099499Y-24638543D01*
X20500500Y-24638543D01*
X20500500Y-21368475D01*
X22099500Y-21368475D01*
X22099500Y-22631517D01*
X22110292Y-22699657D01*
X22114354Y-22725304D01*
X22171950Y-22838342D01*
X22171952Y-22838344D01*
X22171954Y-22838347D01*
X22261652Y-22928045D01*
X22261654Y-22928046D01*
X22261658Y-22928050D01*
X22374694Y-22985645D01*
X22374698Y-22985647D01*
X22468475Y-23000499D01*
X22468481Y-23000500D01*
X23731518Y-23000499D01*
X23825304Y-22985646D01*
X23938342Y-22928050D01*
X24028050Y-22838342D01*
X24085646Y-22725304D01*
X24085646Y-22725302D01*
X24085647Y-22725301D01*
X24096282Y-22658147D01*
X24100500Y-22631519D01*
X24100500Y-22098543D01*
X39879499Y-22098543D01*
X39917947Y-22291829D01*
X39917950Y-22291839D01*
X39993364Y-22473907D01*
X39993371Y-22473920D01*
X40102860Y-22637781D01*
X40102863Y-22637785D01*
X40242214Y-22777136D01*
X40242218Y-22777139D01*
X40406079Y-22886628D01*
X40406092Y-22886635D01*
X40588160Y-22962049D01*
X40588165Y-22962051D01*
X40588169Y-22962051D01*
X40588170Y-22962052D01*
X40781456Y-23000500D01*
X40781459Y-23000500D01*
X40978543Y-23000500D01*
X41133351Y-22969706D01*
X41171835Y-22962051D01*
X41353914Y-22886632D01*
X41517782Y-22777139D01*
X41657139Y-22637782D01*
X41766632Y-22473914D01*
X41786044Y-22427046D01*
X41829884Y-22372645D01*
X41896178Y-22350579D01*
X41900605Y-22350500D01*
X49003456Y-22350500D01*
X49070495Y-22370185D01*
X49091137Y-22386819D01*
X55884588Y-29180270D01*
X55884590Y-29180271D01*
X55884594Y-29180274D01*
X55958357Y-29222861D01*
X55958358Y-29222861D01*
X55964512Y-29226414D01*
X56053656Y-29250300D01*
X56053657Y-29250300D01*
X56145944Y-29250300D01*
X68943256Y-29250300D01*
X69010295Y-29269985D01*
X69030937Y-29286619D01*
X80454136Y-40709818D01*
X80487621Y-40771141D01*
X80482637Y-40840833D01*
X80440765Y-40896766D01*
X80375301Y-40921183D01*
X80310161Y-40907984D01*
X80179838Y-40841582D01*
X79992705Y-40780778D01*
X79798382Y-40750000D01*
X79601618Y-40750000D01*
X79407294Y-40780778D01*
X79220164Y-40841581D01*
X79044855Y-40930905D01*
X79044846Y-40930911D01*
X78968919Y-40986075D01*
X78968918Y-40986076D01*
X79476686Y-41493844D01*
X79362292Y-41559890D01*
X79259890Y-41662292D01*
X79193844Y-41776686D01*
X78686076Y-41268918D01*
X78686075Y-41268919D01*
X78630911Y-41344846D01*
X78630905Y-41344855D01*
X78541581Y-41520164D01*
X78480778Y-41707294D01*
X78450000Y-41901617D01*
X78450000Y-42098382D01*
X78480778Y-42292705D01*
X78541581Y-42479835D01*
X78630904Y-42655143D01*
X78686076Y-42731079D01*
X78686077Y-42731080D01*
X79193844Y-42223312D01*
X79259890Y-42337708D01*
X79362292Y-42440110D01*
X79476686Y-42506154D01*
X78968918Y-43013922D01*
X79044856Y-43069095D01*
X79220164Y-43158418D01*
X79407294Y-43219221D01*
X79601618Y-43250000D01*
X79798382Y-43250000D01*
X79992705Y-43219221D01*
X80179835Y-43158418D01*
X80355143Y-43069095D01*
X80431079Y-43013922D01*
X80431080Y-43013921D01*
X79923313Y-42506154D01*
X80037708Y-42440110D01*
X80140110Y-42337708D01*
X80206155Y-42223313D01*
X80713922Y-42731080D01*
X80713922Y-42731079D01*
X80769095Y-42655143D01*
X80858418Y-42479835D01*
X80904378Y-42338387D01*
X80943815Y-42280712D01*
X81008174Y-42253513D01*
X81077020Y-42265428D01*
X81128496Y-42312672D01*
X81140240Y-42338387D01*
X81173787Y-42441636D01*
X81173788Y-42441639D01*
X81218508Y-42529404D01*
X81244367Y-42580156D01*
X81256006Y-42602997D01*
X81362441Y-42749494D01*
X81362445Y-42749499D01*
X81490500Y-42877554D01*
X81490505Y-42877558D01*
X81617395Y-42969748D01*
X81637006Y-42983996D01*
X81742484Y-43037740D01*
X81798360Y-43066211D01*
X81798363Y-43066212D01*
X81831511Y-43076982D01*
X81970591Y-43122171D01*
X82053429Y-43135291D01*
X82149449Y-43150500D01*
X82149454Y-43150500D01*
X82330551Y-43150500D01*
X82417259Y-43136765D01*
X82509409Y-43122171D01*
X82681639Y-43066211D01*
X82842994Y-42983996D01*
X82989501Y-42877553D01*
X83117553Y-42749501D01*
X83223996Y-42602994D01*
X83306211Y-42441639D01*
X83362171Y-42269409D01*
X83379954Y-42157131D01*
X83390500Y-42090551D01*
X83390500Y-41909448D01*
X83371217Y-41787708D01*
X83362171Y-41730591D01*
X83318209Y-41595287D01*
X83306212Y-41558363D01*
X83306211Y-41558360D01*
X83262705Y-41472976D01*
X83223996Y-41397006D01*
X83179519Y-41335788D01*
X83117558Y-41250505D01*
X83117554Y-41250500D01*
X82989499Y-41122445D01*
X82989494Y-41122441D01*
X82842997Y-41016006D01*
X82842996Y-41016005D01*
X82842994Y-41016004D01*
X82784257Y-40986076D01*
X82681639Y-40933788D01*
X82681636Y-40933787D01*
X82509410Y-40877829D01*
X82330551Y-40849500D01*
X82330546Y-40849500D01*
X82149454Y-40849500D01*
X82149449Y-40849500D01*
X81970589Y-40877829D01*
X81798361Y-40933788D01*
X81798359Y-40933789D01*
X81793243Y-40936396D01*
X81724573Y-40949289D01*
X81659834Y-40923010D01*
X81649272Y-40913590D01*
X69355013Y-28619331D01*
X69355008Y-28619327D01*
X69275090Y-28573187D01*
X69275089Y-28573186D01*
X69275088Y-28573186D01*
X69185944Y-28549300D01*
X69185943Y-28549300D01*
X56296344Y-28549300D01*
X56229305Y-28529615D01*
X56208663Y-28512981D01*
X51574393Y-23878711D01*
X58149500Y-23878711D01*
X58149500Y-24121288D01*
X58181161Y-24361785D01*
X58243947Y-24596104D01*
X58336773Y-24820205D01*
X58336777Y-24820214D01*
X58343489Y-24831839D01*
X58458064Y-25030289D01*
X58458066Y-25030292D01*
X58458067Y-25030293D01*
X58605733Y-25222736D01*
X58605739Y-25222743D01*
X58777256Y-25394260D01*
X58777263Y-25394266D01*
X58819447Y-25426635D01*
X58969711Y-25541936D01*
X59179788Y-25663224D01*
X59403900Y-25756054D01*
X59638211Y-25818838D01*
X59818586Y-25842584D01*
X59878711Y-25850500D01*
X59878712Y-25850500D01*
X60121289Y-25850500D01*
X60169388Y-25844167D01*
X60361789Y-25818838D01*
X60596100Y-25756054D01*
X60820212Y-25663224D01*
X61030289Y-25541936D01*
X61222738Y-25394265D01*
X61394265Y-25222738D01*
X61541936Y-25030289D01*
X61663224Y-24820212D01*
X61756054Y-24596100D01*
X61818838Y-24361789D01*
X61850500Y-24121288D01*
X61850500Y-23878712D01*
X61818838Y-23638211D01*
X61756054Y-23403900D01*
X61663224Y-23179788D01*
X61541936Y-22969711D01*
X61394265Y-22777262D01*
X61394260Y-22777256D01*
X61222743Y-22605739D01*
X61222736Y-22605733D01*
X61030293Y-22458067D01*
X61030292Y-22458066D01*
X61030289Y-22458064D01*
X60858661Y-22358974D01*
X60820214Y-22336777D01*
X60820205Y-22336773D01*
X60596104Y-22243947D01*
X60361785Y-22181161D01*
X60121289Y-22149500D01*
X60121288Y-22149500D01*
X59878712Y-22149500D01*
X59878711Y-22149500D01*
X59638214Y-22181161D01*
X59403895Y-22243947D01*
X59179794Y-22336773D01*
X59179785Y-22336777D01*
X58969706Y-22458067D01*
X58777263Y-22605733D01*
X58777256Y-22605739D01*
X58605739Y-22777256D01*
X58605733Y-22777263D01*
X58458067Y-22969706D01*
X58336777Y-23179785D01*
X58336773Y-23179794D01*
X58243947Y-23403895D01*
X58181161Y-23638214D01*
X58149500Y-23878711D01*
X51574393Y-23878711D01*
X49415213Y-21719531D01*
X49415208Y-21719527D01*
X49335290Y-21673387D01*
X49335289Y-21673386D01*
X49335288Y-21673386D01*
X49246144Y-21649500D01*
X49246143Y-21649500D01*
X41900605Y-21649500D01*
X41833566Y-21629815D01*
X41787811Y-21577011D01*
X41786060Y-21572990D01*
X41766632Y-21526086D01*
X41766627Y-21526079D01*
X41657139Y-21362217D01*
X41517785Y-21222863D01*
X41517781Y-21222860D01*
X41353920Y-21113371D01*
X41353907Y-21113364D01*
X41171839Y-21037950D01*
X41171829Y-21037947D01*
X40978543Y-20999500D01*
X40978541Y-20999500D01*
X40781459Y-20999500D01*
X40781457Y-20999500D01*
X40588170Y-21037947D01*
X40588160Y-21037950D01*
X40406092Y-21113364D01*
X40406079Y-21113371D01*
X40242218Y-21222860D01*
X40242214Y-21222863D01*
X40102863Y-21362214D01*
X40102860Y-21362218D01*
X39993371Y-21526079D01*
X39993364Y-21526092D01*
X39917950Y-21708160D01*
X39917947Y-21708170D01*
X39879500Y-21901456D01*
X39879500Y-21901459D01*
X39879500Y-22098541D01*
X39879500Y-22098543D01*
X39879499Y-22098543D01*
X24100500Y-22098543D01*
X24100499Y-21368482D01*
X24085646Y-21274696D01*
X24028050Y-21161658D01*
X24028046Y-21161654D01*
X24028045Y-21161652D01*
X23938347Y-21071954D01*
X23938344Y-21071952D01*
X23938342Y-21071950D01*
X23861517Y-21032805D01*
X23825301Y-21014352D01*
X23731524Y-20999500D01*
X22468482Y-20999500D01*
X22387519Y-21012323D01*
X22374696Y-21014354D01*
X22261658Y-21071950D01*
X22261657Y-21071951D01*
X22261652Y-21071954D01*
X22171954Y-21161652D01*
X22171951Y-21161657D01*
X22114352Y-21274698D01*
X22099500Y-21368475D01*
X20500500Y-21368475D01*
X20500500Y-20624500D01*
X20520185Y-20557461D01*
X20572989Y-20511706D01*
X20624500Y-20500500D01*
X99375500Y-20500500D01*
X99442539Y-20520185D01*
G37*
%TD.AperFunction*%
%TD*%
M02*
