%TF.GenerationSoftware,KiCad,Pcbnew,10.0.4*%
%TF.CreationDate,2026-07-23T21:37:11-03:00*%
%TF.ProjectId,pong-retrosc,706f6e67-2d72-4657-9472-6f73632e6b69,rev?*%
%TF.SameCoordinates,Original*%
%TF.FileFunction,Copper,L2,Bot*%
%TF.FilePolarity,Positive*%
%FSLAX46Y46*%
G04 Gerber Fmt 4.6, Leading zero omitted, Abs format (unit mm)*
G04 Created by KiCad (PCBNEW 10.0.4) date 2026-07-23 21:37:11*
%MOMM*%
%LPD*%
G01*
G04 APERTURE LIST*
G04 Aperture macros list*
%AMRoundRect*
0 Rectangle with rounded corners*
0 $1 Rounding radius*
0 $2 $3 $4 $5 $6 $7 $8 $9 X,Y pos of 4 corners*
0 Add a 4 corners polygon primitive as box body*
4,1,4,$2,$3,$4,$5,$6,$7,$8,$9,$2,$3,0*
0 Add four circle primitives for the rounded corners*
1,1,$1+$1,$2,$3*
1,1,$1+$1,$4,$5*
1,1,$1+$1,$6,$7*
1,1,$1+$1,$8,$9*
0 Add four rect primitives between the rounded corners*
20,1,$1+$1,$2,$3,$4,$5,0*
20,1,$1+$1,$4,$5,$6,$7,0*
20,1,$1+$1,$6,$7,$8,$9,0*
20,1,$1+$1,$8,$9,$2,$3,0*%
%AMFreePoly0*
4,1,37,0.603843,0.796157,0.639018,0.796157,0.711114,0.766294,0.766294,0.711114,0.796157,0.639018,0.796157,0.603843,0.800000,0.600000,0.800000,-0.600000,0.796157,-0.603843,0.796157,-0.639018,0.766294,-0.711114,0.711114,-0.766294,0.639018,-0.796157,0.603843,-0.796157,0.600000,-0.800000,0.000000,-0.800000,0.000000,-0.796148,-0.078414,-0.796148,-0.232228,-0.765552,-0.377117,-0.705537,
-0.507515,-0.618408,-0.618408,-0.507515,-0.705537,-0.377117,-0.765552,-0.232228,-0.796148,-0.078414,-0.796148,0.078414,-0.765552,0.232228,-0.705537,0.377117,-0.618408,0.507515,-0.507515,0.618408,-0.377117,0.705537,-0.232228,0.765552,-0.078414,0.796148,0.000000,0.796148,0.000000,0.800000,0.600000,0.800000,0.603843,0.796157,0.603843,0.796157,$1*%
%AMFreePoly1*
4,1,37,0.000000,0.796148,0.078414,0.796148,0.232228,0.765552,0.377117,0.705537,0.507515,0.618408,0.618408,0.507515,0.705537,0.377117,0.765552,0.232228,0.796148,0.078414,0.796148,-0.078414,0.765552,-0.232228,0.705537,-0.377117,0.618408,-0.507515,0.507515,-0.618408,0.377117,-0.705537,0.232228,-0.765552,0.078414,-0.796148,0.000000,-0.796148,0.000000,-0.800000,-0.600000,-0.800000,
-0.603843,-0.796157,-0.639018,-0.796157,-0.711114,-0.766294,-0.766294,-0.711114,-0.796157,-0.639018,-0.796157,-0.603843,-0.800000,-0.600000,-0.800000,0.600000,-0.796157,0.603843,-0.796157,0.639018,-0.766294,0.711114,-0.711114,0.766294,-0.639018,0.796157,-0.603843,0.796157,-0.600000,0.800000,0.000000,0.800000,0.000000,0.796148,0.000000,0.796148,$1*%
G04 Aperture macros list end*
%TA.AperFunction,ComponentPad*%
%ADD10R,1.700000X1.700000*%
%TD*%
%TA.AperFunction,ComponentPad*%
%ADD11C,1.700000*%
%TD*%
%TA.AperFunction,ComponentPad*%
%ADD12RoundRect,0.250000X-0.550000X-0.550000X0.550000X-0.550000X0.550000X0.550000X-0.550000X0.550000X0*%
%TD*%
%TA.AperFunction,ComponentPad*%
%ADD13C,1.600000*%
%TD*%
%TA.AperFunction,ComponentPad*%
%ADD14R,1.900000X1.900000*%
%TD*%
%TA.AperFunction,ComponentPad*%
%ADD15C,1.900000*%
%TD*%
%TA.AperFunction,ComponentPad*%
%ADD16C,2.600000*%
%TD*%
%TA.AperFunction,ComponentPad*%
%ADD17O,3.400000X2.300000*%
%TD*%
%TA.AperFunction,ComponentPad*%
%ADD18O,2.300000X3.400000*%
%TD*%
%TA.AperFunction,ComponentPad*%
%ADD19RoundRect,0.200000X-0.600000X-0.600000X0.600000X-0.600000X0.600000X0.600000X-0.600000X0.600000X0*%
%TD*%
%TA.AperFunction,ComponentPad*%
%ADD20FreePoly0,0.000000*%
%TD*%
%TA.AperFunction,ComponentPad*%
%ADD21FreePoly1,0.000000*%
%TD*%
%TA.AperFunction,ViaPad*%
%ADD22C,0.700000*%
%TD*%
%TA.AperFunction,Conductor*%
%ADD23C,0.300000*%
%TD*%
G04 APERTURE END LIST*
D10*
%TO.P,J5,1*%
%TO.N,+3V3*%
X24000000Y-90000000D03*
D11*
%TO.P,J5,2*%
%TO.N,POT1*%
X26540000Y-90000000D03*
%TO.P,J5,3*%
%TO.N,AGND*%
X29080000Y-90000000D03*
%TD*%
D10*
%TO.P,J4,1*%
%TO.N,RCA_C*%
X24000000Y-78000000D03*
D11*
%TO.P,J4,2*%
%TO.N,RCA_S*%
X26540000Y-78000000D03*
%TO.P,J4,3*%
%TO.N,LINHA*%
X29080000Y-78000000D03*
%TO.P,J4,4*%
%TO.N,GND*%
X31620000Y-78000000D03*
%TO.P,J4,5*%
%TO.N,LOUT_P*%
X34160000Y-78000000D03*
%TO.P,J4,6*%
%TO.N,LOUT_N*%
X36700000Y-78000000D03*
%TD*%
D10*
%TO.P,J6,1*%
%TO.N,+3V3*%
X34160000Y-90000000D03*
D11*
%TO.P,J6,2*%
%TO.N,POT2*%
X36700000Y-90000000D03*
%TO.P,J6,3*%
%TO.N,AGND*%
X39240000Y-90000000D03*
%TD*%
D12*
%TO.P,C2,1*%
%TO.N,AUD_F*%
X52500000Y-89000000D03*
D13*
%TO.P,C2,2*%
%TO.N,AUD_C*%
X55000000Y-89000000D03*
%TD*%
%TO.P,C3,1*%
%TO.N,POT1*%
X55000000Y-48000000D03*
%TO.P,C3,2*%
%TO.N,AGND*%
X60000000Y-48000000D03*
%TD*%
D14*
%TO.P,U2,1*%
%TO.N,N/C*%
X46300000Y-42000000D03*
D15*
%TO.P,U2,2*%
X48840000Y-42000000D03*
%TO.P,U2,3*%
%TO.N,LOUT_P*%
X51380000Y-42000000D03*
%TO.P,U2,4*%
%TO.N,LOUT_N*%
X53920000Y-42000000D03*
%TO.P,U2,5*%
%TO.N,GND*%
X59000000Y-42000000D03*
%TO.P,U2,6*%
%TO.N,+5V*%
X61540000Y-42000000D03*
%TO.P,U2,7*%
%TO.N,AMP_L*%
X66620000Y-42000000D03*
%TO.P,U2,8*%
%TO.N,GND*%
X69160000Y-42000000D03*
%TO.P,U2,9*%
%TO.N,AMP_R*%
X71700000Y-42000000D03*
%TD*%
D13*
%TO.P,R1,1*%
%TO.N,SYNC*%
X55000000Y-62000000D03*
%TO.P,R1,2*%
%TO.N,COMPOSITE*%
X57540000Y-62000000D03*
%TD*%
%TO.P,R6,1*%
%TO.N,AUD_C*%
X55000000Y-96000000D03*
%TO.P,R6,2*%
%TO.N,AMP_L*%
X57540000Y-96000000D03*
%TD*%
%TO.P,R5,1*%
%TO.N,LINHA*%
X67000000Y-96000000D03*
%TO.P,R5,2*%
%TO.N,GND*%
X69540000Y-96000000D03*
%TD*%
D16*
%TO.P,J9,1*%
%TO.N,RCA_C*%
X67500000Y-83500000D03*
D17*
%TO.P,J9,2*%
%TO.N,RCA_S*%
X67500000Y-78500000D03*
D18*
X72500000Y-83500000D03*
D17*
X67500000Y-88500000D03*
%TD*%
D13*
%TO.P,C4,1*%
%TO.N,POT2*%
X55000000Y-55000000D03*
%TO.P,C4,2*%
%TO.N,AGND*%
X60000000Y-55000000D03*
%TD*%
D16*
%TO.P,J1,1*%
%TO.N,COMPOSITE*%
X67500000Y-51500000D03*
D17*
%TO.P,J1,2*%
%TO.N,GND*%
X67500000Y-46500000D03*
D18*
X72500000Y-51500000D03*
D17*
X67500000Y-56500000D03*
%TD*%
D13*
%TO.P,R4,1*%
%TO.N,AUD_C*%
X61000000Y-96000000D03*
%TO.P,R4,2*%
%TO.N,LINHA*%
X63540000Y-96000000D03*
%TD*%
%TO.P,R3,1*%
%TO.N,AUDIO_PWM*%
X55000000Y-74000000D03*
%TO.P,R3,2*%
%TO.N,AUD_F*%
X57540000Y-74000000D03*
%TD*%
%TO.P,C1,1*%
%TO.N,AUD_F*%
X55000000Y-81000000D03*
%TO.P,C1,2*%
%TO.N,GND*%
X60000000Y-81000000D03*
%TD*%
%TO.P,R2,1*%
%TO.N,VIDEO*%
X55000000Y-68000000D03*
%TO.P,R2,2*%
%TO.N,COMPOSITE*%
X57540000Y-68000000D03*
%TD*%
D16*
%TO.P,J8,1*%
%TO.N,RCA_C*%
X67500000Y-67500000D03*
D17*
%TO.P,J8,2*%
%TO.N,RCA_S*%
X67500000Y-62500000D03*
D18*
X72500000Y-67500000D03*
D17*
X67500000Y-72500000D03*
%TD*%
D13*
%TO.P,R7,1*%
%TO.N,AUD_C*%
X55000000Y-102000000D03*
%TO.P,R7,2*%
%TO.N,AMP_R*%
X57540000Y-102000000D03*
%TD*%
D19*
%TO.P,U1,1*%
%TO.N,N/C*%
X23100000Y-22000000D03*
D13*
%TO.P,U1,2*%
X23100000Y-24540000D03*
D20*
%TO.P,U1,3*%
%TO.N,GND*%
X23100000Y-27080000D03*
D13*
%TO.P,U1,4*%
%TO.N,N/C*%
X23100000Y-29620000D03*
%TO.P,U1,5*%
X23100000Y-32160000D03*
%TO.P,U1,6*%
X23100000Y-34700000D03*
%TO.P,U1,7*%
X23100000Y-37240000D03*
D20*
%TO.P,U1,8*%
%TO.N,GND*%
X23100000Y-39780000D03*
D13*
%TO.P,U1,9*%
%TO.N,N/C*%
X23100000Y-42320000D03*
%TO.P,U1,10*%
X23100000Y-44860000D03*
%TO.P,U1,11*%
X23100000Y-47400000D03*
%TO.P,U1,12*%
X23100000Y-49940000D03*
D20*
%TO.P,U1,13*%
%TO.N,GND*%
X23100000Y-52480000D03*
D13*
%TO.P,U1,14*%
%TO.N,N/C*%
X23100000Y-55020000D03*
%TO.P,U1,15*%
X23100000Y-57560000D03*
%TO.P,U1,16*%
X23100000Y-60100000D03*
%TO.P,U1,17*%
X23100000Y-62640000D03*
D20*
%TO.P,U1,18*%
%TO.N,GND*%
X23100000Y-65180000D03*
D13*
%TO.P,U1,19*%
%TO.N,N/C*%
X23100000Y-67720000D03*
%TO.P,U1,20*%
X23100000Y-70260000D03*
%TO.P,U1,21*%
%TO.N,SYNC*%
X40880000Y-70260000D03*
%TO.P,U1,22*%
%TO.N,VIDEO*%
X40880000Y-67720000D03*
D21*
%TO.P,U1,23*%
%TO.N,GND*%
X40880000Y-65180000D03*
D13*
%TO.P,U1,24*%
%TO.N,AUDIO_PWM*%
X40880000Y-62640000D03*
%TO.P,U1,25*%
%TO.N,N/C*%
X40880000Y-60100000D03*
%TO.P,U1,26*%
X40880000Y-57560000D03*
%TO.P,U1,27*%
X40880000Y-55020000D03*
D21*
%TO.P,U1,28*%
%TO.N,GND*%
X40880000Y-52480000D03*
D13*
%TO.P,U1,29*%
%TO.N,START*%
X40880000Y-49940000D03*
%TO.P,U1,30*%
%TO.N,N/C*%
X40880000Y-47400000D03*
%TO.P,U1,31*%
%TO.N,POT1*%
X40880000Y-44860000D03*
%TO.P,U1,32*%
%TO.N,POT2*%
X40880000Y-42320000D03*
D21*
%TO.P,U1,33*%
%TO.N,AGND*%
X40880000Y-39780000D03*
D13*
%TO.P,U1,34*%
%TO.N,N/C*%
X40880000Y-37240000D03*
%TO.P,U1,35*%
X40880000Y-34700000D03*
%TO.P,U1,36*%
%TO.N,+3V3*%
X40880000Y-32160000D03*
%TO.P,U1,37*%
%TO.N,N/C*%
X40880000Y-29620000D03*
D21*
%TO.P,U1,38*%
%TO.N,GND*%
X40880000Y-27080000D03*
D13*
%TO.P,U1,39*%
%TO.N,N/C*%
X40880000Y-24540000D03*
%TO.P,U1,40*%
%TO.N,+5V*%
X40880000Y-22000000D03*
%TD*%
D10*
%TO.P,J7,1*%
%TO.N,START*%
X33500000Y-102000000D03*
D11*
%TO.P,J7,2*%
%TO.N,GND*%
X36040000Y-102000000D03*
%TD*%
D22*
%TO.N,AUDIO_PWM*%
X53795700Y-67052700D03*
%TO.N,START*%
X43987800Y-53750300D03*
%TD*%
%TO.N,+3V3*%
D23*
X25151700Y-89712000D02*
X25151700Y-90000000D01*
X33008300Y-90000000D02*
X31856600Y-88848300D01*
X31856600Y-88848300D02*
X26015400Y-88848300D01*
X24000000Y-90000000D02*
X25151700Y-90000000D01*
X26015400Y-88848300D02*
X25151700Y-89712000D01*
X34160000Y-90000000D02*
X33008300Y-90000000D01*
%TO.N,POT1*%
X48289700Y-48000000D02*
X55000000Y-48000000D01*
X40880000Y-44860000D02*
X39765200Y-43745200D01*
X39765200Y-41860200D02*
X40431700Y-41193700D01*
X40431700Y-41193700D02*
X41483400Y-41193700D01*
X39765200Y-43745200D02*
X39765200Y-41860200D01*
X41483400Y-41193700D02*
X48289700Y-48000000D01*
%TO.N,AGND*%
X30231700Y-91151700D02*
X29080000Y-90000000D01*
X60000000Y-48000000D02*
X56773400Y-44773400D01*
X45873400Y-44773400D02*
X40880000Y-39780000D01*
X38088300Y-91151700D02*
X30231700Y-91151700D01*
X56773400Y-44773400D02*
X45873400Y-44773400D01*
X39240000Y-90000000D02*
X38088300Y-91151700D01*
%TO.N,RCA_C*%
X24000000Y-78000000D02*
X25151700Y-78000000D01*
X62569800Y-72430200D02*
X51919000Y-72430200D01*
X67500000Y-67500000D02*
X62569800Y-72430200D01*
X28515000Y-74348800D02*
X25151700Y-77712100D01*
X51919000Y-72430200D02*
X50000400Y-74348800D01*
X25151700Y-77712100D02*
X25151700Y-78000000D01*
X50000400Y-74348800D02*
X28515000Y-74348800D01*
%TO.N,RCA_S*%
X71684800Y-67500000D02*
X68136500Y-63951700D01*
X67500000Y-71048300D02*
X71048300Y-67500000D01*
X67500000Y-77048300D02*
X66783200Y-76331500D01*
X71684800Y-83500000D02*
X68136500Y-79951700D01*
X67500000Y-78500000D02*
X67500000Y-79951700D01*
X68136500Y-79951700D02*
X67500000Y-79951700D01*
X71684800Y-83500000D02*
X71048300Y-83500000D01*
X72500000Y-67500000D02*
X71774200Y-67500000D01*
X28208500Y-76331500D02*
X26540000Y-78000000D01*
X71774200Y-83500000D02*
X71684800Y-83500000D01*
X67500000Y-88500000D02*
X67500000Y-87048300D01*
X66783200Y-76331500D02*
X28208500Y-76331500D01*
X67500000Y-72500000D02*
X67500000Y-71048300D01*
X72500000Y-83500000D02*
X71774200Y-83500000D01*
X68136500Y-63951700D02*
X67500000Y-63951700D01*
X67500000Y-62500000D02*
X67500000Y-63951700D01*
X67500000Y-87048300D02*
X71048300Y-83500000D01*
X71684800Y-67500000D02*
X71048300Y-67500000D01*
X71774200Y-67500000D02*
X71684800Y-67500000D01*
X67500000Y-78500000D02*
X67500000Y-77048300D01*
%TO.N,LINHA*%
X63540000Y-95928000D02*
X63540000Y-96000000D01*
X30264700Y-76815300D02*
X44427300Y-76815300D01*
X44427300Y-76815300D02*
X63540000Y-95928000D01*
X63540000Y-96000000D02*
X67000000Y-96000000D01*
X29080000Y-78000000D02*
X30264700Y-76815300D01*
%TO.N,POT2*%
X53560000Y-55000000D02*
X55000000Y-55000000D01*
X40880000Y-42320000D02*
X53560000Y-55000000D01*
%TO.N,AUD_C*%
X55000000Y-96000000D02*
X56153700Y-94846300D01*
X56153700Y-94846300D02*
X59846300Y-94846300D01*
X59846300Y-94846300D02*
X61000000Y-96000000D01*
%TO.N,+5V*%
X41540000Y-22000000D02*
X40880000Y-22000000D01*
X61540000Y-42000000D02*
X41540000Y-22000000D01*
%TO.N,SYNC*%
X55000000Y-62000000D02*
X56111200Y-63111200D01*
X56111200Y-68492200D02*
X54343400Y-70260000D01*
X56111200Y-63111200D02*
X56111200Y-68492200D01*
X54343400Y-70260000D02*
X40880000Y-70260000D01*
%TO.N,COMPOSITE*%
X57540000Y-61460000D02*
X57540000Y-62000000D01*
X67500000Y-51500000D02*
X57540000Y-61460000D01*
%TO.N,AUDIO_PWM*%
X49383000Y-62640000D02*
X40880000Y-62640000D01*
X53795700Y-67052700D02*
X49383000Y-62640000D01*
%TO.N,VIDEO*%
X40880000Y-67720000D02*
X54720000Y-67720000D01*
X54720000Y-67720000D02*
X55000000Y-68000000D01*
%TO.N,START*%
X40880000Y-50642500D02*
X43987800Y-53750300D01*
X40880000Y-49940000D02*
X40880000Y-50642500D01*
%TD*%
%TA.AperFunction,Conductor*%
%TO.N,GND*%
G36*
X41426461Y-51724963D02*
G01*
X41452820Y-51726849D01*
X41461873Y-51732667D01*
X41468914Y-51734199D01*
X41497168Y-51755350D01*
X41604649Y-51862831D01*
X41638134Y-51924154D01*
X41633150Y-51993846D01*
X41604649Y-52038193D01*
X41348019Y-52294822D01*
X41345925Y-52287007D01*
X41280099Y-52172993D01*
X41187007Y-52079901D01*
X41072993Y-52014075D01*
X41065176Y-52011980D01*
X41321806Y-51755350D01*
X41329751Y-51751011D01*
X41335177Y-51743764D01*
X41359936Y-51734529D01*
X41383129Y-51721865D01*
X41392158Y-51722510D01*
X41400641Y-51719347D01*
X41426461Y-51724963D01*
G37*
%TD.AperFunction*%
%TA.AperFunction,Conductor*%
G36*
X74442539Y-20520185D02*
G01*
X74488294Y-20572989D01*
X74499500Y-20624500D01*
X74499500Y-107375500D01*
X74479815Y-107442539D01*
X74427011Y-107488294D01*
X74375500Y-107499500D01*
X20624500Y-107499500D01*
X20557461Y-107479815D01*
X20511706Y-107427011D01*
X20500500Y-107375500D01*
X20500500Y-103878711D01*
X23149500Y-103878711D01*
X23149500Y-104121288D01*
X23181161Y-104361785D01*
X23243947Y-104596104D01*
X23336773Y-104820205D01*
X23336776Y-104820212D01*
X23458064Y-105030289D01*
X23458066Y-105030292D01*
X23458067Y-105030293D01*
X23605733Y-105222736D01*
X23605739Y-105222743D01*
X23777256Y-105394260D01*
X23777262Y-105394265D01*
X23969711Y-105541936D01*
X24179788Y-105663224D01*
X24403900Y-105756054D01*
X24638211Y-105818838D01*
X24818586Y-105842584D01*
X24878711Y-105850500D01*
X24878712Y-105850500D01*
X25121289Y-105850500D01*
X25169388Y-105844167D01*
X25361789Y-105818838D01*
X25596100Y-105756054D01*
X25820212Y-105663224D01*
X26030289Y-105541936D01*
X26222738Y-105394265D01*
X26394265Y-105222738D01*
X26541936Y-105030289D01*
X26663224Y-104820212D01*
X26756054Y-104596100D01*
X26818838Y-104361789D01*
X26850500Y-104121288D01*
X26850500Y-103878712D01*
X26850500Y-103878711D01*
X45649500Y-103878711D01*
X45649500Y-104121288D01*
X45681161Y-104361785D01*
X45743947Y-104596104D01*
X45836773Y-104820205D01*
X45836776Y-104820212D01*
X45958064Y-105030289D01*
X45958066Y-105030292D01*
X45958067Y-105030293D01*
X46105733Y-105222736D01*
X46105739Y-105222743D01*
X46277256Y-105394260D01*
X46277262Y-105394265D01*
X46469711Y-105541936D01*
X46679788Y-105663224D01*
X46903900Y-105756054D01*
X47138211Y-105818838D01*
X47318586Y-105842584D01*
X47378711Y-105850500D01*
X47378712Y-105850500D01*
X47621289Y-105850500D01*
X47669388Y-105844167D01*
X47861789Y-105818838D01*
X48096100Y-105756054D01*
X48320212Y-105663224D01*
X48530289Y-105541936D01*
X48722738Y-105394265D01*
X48894265Y-105222738D01*
X49041936Y-105030289D01*
X49163224Y-104820212D01*
X49256054Y-104596100D01*
X49318838Y-104361789D01*
X49350500Y-104121288D01*
X49350500Y-103878712D01*
X49350500Y-103878711D01*
X68149500Y-103878711D01*
X68149500Y-104121288D01*
X68181161Y-104361785D01*
X68243947Y-104596104D01*
X68336773Y-104820205D01*
X68336776Y-104820212D01*
X68458064Y-105030289D01*
X68458066Y-105030292D01*
X68458067Y-105030293D01*
X68605733Y-105222736D01*
X68605739Y-105222743D01*
X68777256Y-105394260D01*
X68777262Y-105394265D01*
X68969711Y-105541936D01*
X69179788Y-105663224D01*
X69403900Y-105756054D01*
X69638211Y-105818838D01*
X69818586Y-105842584D01*
X69878711Y-105850500D01*
X69878712Y-105850500D01*
X70121289Y-105850500D01*
X70169388Y-105844167D01*
X70361789Y-105818838D01*
X70596100Y-105756054D01*
X70820212Y-105663224D01*
X71030289Y-105541936D01*
X71222738Y-105394265D01*
X71394265Y-105222738D01*
X71541936Y-105030289D01*
X71663224Y-104820212D01*
X71756054Y-104596100D01*
X71818838Y-104361789D01*
X71850500Y-104121288D01*
X71850500Y-103878712D01*
X71818838Y-103638211D01*
X71756054Y-103403900D01*
X71663224Y-103179788D01*
X71541936Y-102969711D01*
X71394265Y-102777262D01*
X71394260Y-102777256D01*
X71222743Y-102605739D01*
X71222736Y-102605733D01*
X71030293Y-102458067D01*
X71030292Y-102458066D01*
X71030289Y-102458064D01*
X70820212Y-102336776D01*
X70820205Y-102336773D01*
X70596104Y-102243947D01*
X70478944Y-102212554D01*
X70361789Y-102181162D01*
X70361788Y-102181161D01*
X70361785Y-102181161D01*
X70121289Y-102149500D01*
X70121288Y-102149500D01*
X69878712Y-102149500D01*
X69878711Y-102149500D01*
X69638214Y-102181161D01*
X69403895Y-102243947D01*
X69179794Y-102336773D01*
X69179785Y-102336777D01*
X68969706Y-102458067D01*
X68777263Y-102605733D01*
X68777256Y-102605739D01*
X68605739Y-102777256D01*
X68605733Y-102777263D01*
X68458067Y-102969706D01*
X68336777Y-103179785D01*
X68336773Y-103179794D01*
X68243947Y-103403895D01*
X68181161Y-103638214D01*
X68149500Y-103878711D01*
X49350500Y-103878711D01*
X49318838Y-103638211D01*
X49256054Y-103403900D01*
X49163224Y-103179788D01*
X49041936Y-102969711D01*
X48894265Y-102777262D01*
X48894260Y-102777256D01*
X48722743Y-102605739D01*
X48722736Y-102605733D01*
X48530293Y-102458067D01*
X48530292Y-102458066D01*
X48530289Y-102458064D01*
X48320212Y-102336776D01*
X48320205Y-102336773D01*
X48096104Y-102243947D01*
X47978944Y-102212554D01*
X47861789Y-102181162D01*
X47861788Y-102181161D01*
X47861785Y-102181161D01*
X47621289Y-102149500D01*
X47621288Y-102149500D01*
X47378712Y-102149500D01*
X47378711Y-102149500D01*
X47138214Y-102181161D01*
X46903895Y-102243947D01*
X46679794Y-102336773D01*
X46679785Y-102336777D01*
X46469706Y-102458067D01*
X46277263Y-102605733D01*
X46277256Y-102605739D01*
X46105739Y-102777256D01*
X46105733Y-102777263D01*
X45958067Y-102969706D01*
X45836777Y-103179785D01*
X45836773Y-103179794D01*
X45743947Y-103403895D01*
X45681161Y-103638214D01*
X45649500Y-103878711D01*
X26850500Y-103878711D01*
X26818838Y-103638211D01*
X26756054Y-103403900D01*
X26663224Y-103179788D01*
X26541936Y-102969711D01*
X26394265Y-102777262D01*
X26394260Y-102777256D01*
X26222743Y-102605739D01*
X26222736Y-102605733D01*
X26030293Y-102458067D01*
X26030292Y-102458066D01*
X26030289Y-102458064D01*
X25820212Y-102336776D01*
X25820205Y-102336773D01*
X25596104Y-102243947D01*
X25478944Y-102212554D01*
X25361789Y-102181162D01*
X25361788Y-102181161D01*
X25361785Y-102181161D01*
X25121289Y-102149500D01*
X25121288Y-102149500D01*
X24878712Y-102149500D01*
X24878711Y-102149500D01*
X24638214Y-102181161D01*
X24403895Y-102243947D01*
X24179794Y-102336773D01*
X24179785Y-102336777D01*
X23969706Y-102458067D01*
X23777263Y-102605733D01*
X23777256Y-102605739D01*
X23605739Y-102777256D01*
X23605733Y-102777263D01*
X23458067Y-102969706D01*
X23336777Y-103179785D01*
X23336773Y-103179794D01*
X23243947Y-103403895D01*
X23181161Y-103638214D01*
X23149500Y-103878711D01*
X20500500Y-103878711D01*
X20500500Y-101130247D01*
X32449500Y-101130247D01*
X32449500Y-102869752D01*
X32461131Y-102928229D01*
X32461132Y-102928230D01*
X32505447Y-102994552D01*
X32571769Y-103038867D01*
X32571770Y-103038868D01*
X32630247Y-103050499D01*
X32630250Y-103050500D01*
X32630252Y-103050500D01*
X34369750Y-103050500D01*
X34369751Y-103050499D01*
X34384568Y-103047552D01*
X34428229Y-103038868D01*
X34428229Y-103038867D01*
X34428231Y-103038867D01*
X34494552Y-102994552D01*
X34538867Y-102928231D01*
X34542185Y-102911549D01*
X34550276Y-102870879D01*
X34550499Y-102869752D01*
X34550500Y-102869750D01*
X34550500Y-101909493D01*
X34890000Y-101909493D01*
X34890000Y-102090506D01*
X34918317Y-102269293D01*
X34974251Y-102441444D01*
X34974252Y-102441447D01*
X35056434Y-102602734D01*
X35097667Y-102659487D01*
X35097668Y-102659487D01*
X35571980Y-102185176D01*
X35574075Y-102192993D01*
X35639901Y-102307007D01*
X35732993Y-102400099D01*
X35847007Y-102465925D01*
X35854822Y-102468019D01*
X35380510Y-102942330D01*
X35380511Y-102942331D01*
X35437265Y-102983565D01*
X35598552Y-103065747D01*
X35598555Y-103065748D01*
X35770706Y-103121682D01*
X35949494Y-103150000D01*
X36130506Y-103150000D01*
X36309293Y-103121682D01*
X36481444Y-103065748D01*
X36481447Y-103065747D01*
X36642730Y-102983568D01*
X36699487Y-102942330D01*
X36699488Y-102942329D01*
X36225178Y-102468019D01*
X36232993Y-102465925D01*
X36347007Y-102400099D01*
X36440099Y-102307007D01*
X36505925Y-102192993D01*
X36508019Y-102185177D01*
X36982329Y-102659488D01*
X36982330Y-102659487D01*
X37023568Y-102602730D01*
X37105747Y-102441447D01*
X37105748Y-102441444D01*
X37161682Y-102269293D01*
X37188727Y-102098543D01*
X53999499Y-102098543D01*
X54037947Y-102291829D01*
X54037950Y-102291839D01*
X54113364Y-102473907D01*
X54113371Y-102473920D01*
X54222860Y-102637781D01*
X54222863Y-102637785D01*
X54362214Y-102777136D01*
X54362218Y-102777139D01*
X54526079Y-102886628D01*
X54526092Y-102886635D01*
X54660556Y-102942331D01*
X54708165Y-102962051D01*
X54708169Y-102962051D01*
X54708170Y-102962052D01*
X54901456Y-103000500D01*
X54901459Y-103000500D01*
X55098543Y-103000500D01*
X55253351Y-102969706D01*
X55291835Y-102962051D01*
X55473914Y-102886632D01*
X55637782Y-102777139D01*
X55777139Y-102637782D01*
X55886632Y-102473914D01*
X55962051Y-102291835D01*
X55981712Y-102192993D01*
X56000500Y-102098543D01*
X56539499Y-102098543D01*
X56577947Y-102291829D01*
X56577950Y-102291839D01*
X56653364Y-102473907D01*
X56653371Y-102473920D01*
X56762860Y-102637781D01*
X56762863Y-102637785D01*
X56902214Y-102777136D01*
X56902218Y-102777139D01*
X57066079Y-102886628D01*
X57066092Y-102886635D01*
X57200556Y-102942331D01*
X57248165Y-102962051D01*
X57248169Y-102962051D01*
X57248170Y-102962052D01*
X57441456Y-103000500D01*
X57441459Y-103000500D01*
X57638543Y-103000500D01*
X57793351Y-102969706D01*
X57831835Y-102962051D01*
X58013914Y-102886632D01*
X58177782Y-102777139D01*
X58317139Y-102637782D01*
X58426632Y-102473914D01*
X58502051Y-102291835D01*
X58521712Y-102192993D01*
X58540500Y-102098543D01*
X58540500Y-101901456D01*
X58502052Y-101708170D01*
X58502051Y-101708169D01*
X58502051Y-101708165D01*
X58440080Y-101558552D01*
X58426635Y-101526092D01*
X58426628Y-101526079D01*
X58317139Y-101362218D01*
X58317136Y-101362214D01*
X58177785Y-101222863D01*
X58177781Y-101222860D01*
X58013920Y-101113371D01*
X58013907Y-101113364D01*
X57831839Y-101037950D01*
X57831829Y-101037947D01*
X57638543Y-100999500D01*
X57638541Y-100999500D01*
X57441459Y-100999500D01*
X57441457Y-100999500D01*
X57248170Y-101037947D01*
X57248160Y-101037950D01*
X57066092Y-101113364D01*
X57066079Y-101113371D01*
X56902218Y-101222860D01*
X56902214Y-101222863D01*
X56762863Y-101362214D01*
X56762860Y-101362218D01*
X56653371Y-101526079D01*
X56653364Y-101526092D01*
X56577950Y-101708160D01*
X56577947Y-101708170D01*
X56539500Y-101901456D01*
X56539500Y-101901459D01*
X56539500Y-102098541D01*
X56539500Y-102098543D01*
X56539499Y-102098543D01*
X56000500Y-102098543D01*
X56000500Y-101901456D01*
X55962052Y-101708170D01*
X55962051Y-101708169D01*
X55962051Y-101708165D01*
X55900080Y-101558552D01*
X55886635Y-101526092D01*
X55886628Y-101526079D01*
X55777139Y-101362218D01*
X55777136Y-101362214D01*
X55637785Y-101222863D01*
X55637781Y-101222860D01*
X55473920Y-101113371D01*
X55473907Y-101113364D01*
X55291839Y-101037950D01*
X55291829Y-101037947D01*
X55098543Y-100999500D01*
X55098541Y-100999500D01*
X54901459Y-100999500D01*
X54901457Y-100999500D01*
X54708170Y-101037947D01*
X54708160Y-101037950D01*
X54526092Y-101113364D01*
X54526079Y-101113371D01*
X54362218Y-101222860D01*
X54362214Y-101222863D01*
X54222863Y-101362214D01*
X54222860Y-101362218D01*
X54113371Y-101526079D01*
X54113364Y-101526092D01*
X54037950Y-101708160D01*
X54037947Y-101708170D01*
X53999500Y-101901456D01*
X53999500Y-101901459D01*
X53999500Y-102098541D01*
X53999500Y-102098543D01*
X53999499Y-102098543D01*
X37188727Y-102098543D01*
X37190000Y-102090506D01*
X37190000Y-101909497D01*
X37189999Y-101909490D01*
X37161682Y-101730706D01*
X37105748Y-101558555D01*
X37105747Y-101558552D01*
X37023565Y-101397265D01*
X36982331Y-101340511D01*
X36982330Y-101340510D01*
X36508018Y-101814821D01*
X36505925Y-101807007D01*
X36440099Y-101692993D01*
X36347007Y-101599901D01*
X36232993Y-101534075D01*
X36225176Y-101531980D01*
X36699487Y-101057668D01*
X36699487Y-101057667D01*
X36642734Y-101016434D01*
X36481447Y-100934252D01*
X36481444Y-100934251D01*
X36309293Y-100878317D01*
X36130506Y-100850000D01*
X35949494Y-100850000D01*
X35770706Y-100878317D01*
X35598555Y-100934251D01*
X35598552Y-100934252D01*
X35437270Y-101016431D01*
X35437268Y-101016432D01*
X35380511Y-101057667D01*
X35380511Y-101057668D01*
X35854823Y-101531980D01*
X35847007Y-101534075D01*
X35732993Y-101599901D01*
X35639901Y-101692993D01*
X35574075Y-101807007D01*
X35571980Y-101814823D01*
X35097668Y-101340511D01*
X35097667Y-101340511D01*
X35056432Y-101397268D01*
X35056431Y-101397270D01*
X34974252Y-101558552D01*
X34974251Y-101558555D01*
X34918317Y-101730706D01*
X34890000Y-101909493D01*
X34550500Y-101909493D01*
X34550500Y-101130251D01*
X34550275Y-101129120D01*
X34550275Y-101129118D01*
X34538868Y-101071770D01*
X34538867Y-101071769D01*
X34494552Y-101005447D01*
X34428230Y-100961132D01*
X34428229Y-100961131D01*
X34369752Y-100949500D01*
X34369748Y-100949500D01*
X32630252Y-100949500D01*
X32630247Y-100949500D01*
X32571770Y-100961131D01*
X32571769Y-100961132D01*
X32505447Y-101005447D01*
X32461132Y-101071769D01*
X32461131Y-101071770D01*
X32449500Y-101130247D01*
X20500500Y-101130247D01*
X20500500Y-96098543D01*
X53999499Y-96098543D01*
X54037947Y-96291829D01*
X54037950Y-96291839D01*
X54113364Y-96473907D01*
X54113371Y-96473920D01*
X54222860Y-96637781D01*
X54222863Y-96637785D01*
X54362214Y-96777136D01*
X54362218Y-96777139D01*
X54526079Y-96886628D01*
X54526092Y-96886635D01*
X54656867Y-96940803D01*
X54708165Y-96962051D01*
X54708169Y-96962051D01*
X54708170Y-96962052D01*
X54901456Y-97000500D01*
X54901459Y-97000500D01*
X55098543Y-97000500D01*
X55228582Y-96974632D01*
X55291835Y-96962051D01*
X55473914Y-96886632D01*
X55637782Y-96777139D01*
X55777139Y-96637782D01*
X55886632Y-96473914D01*
X55962051Y-96291835D01*
X56000500Y-96098541D01*
X56000500Y-95901459D01*
X56000500Y-95901456D01*
X55962052Y-95708170D01*
X55962051Y-95708169D01*
X55962051Y-95708165D01*
X55942636Y-95661294D01*
X55935168Y-95591828D01*
X55966442Y-95529349D01*
X55969457Y-95526223D01*
X56262564Y-95233116D01*
X56323886Y-95199634D01*
X56350244Y-95196800D01*
X56641402Y-95196800D01*
X56708441Y-95216485D01*
X56754196Y-95269289D01*
X56764140Y-95338447D01*
X56744504Y-95389691D01*
X56653371Y-95526079D01*
X56653364Y-95526092D01*
X56577950Y-95708160D01*
X56577947Y-95708170D01*
X56539500Y-95901456D01*
X56539500Y-95901459D01*
X56539500Y-96098541D01*
X56539500Y-96098543D01*
X56539499Y-96098543D01*
X56577947Y-96291829D01*
X56577950Y-96291839D01*
X56653364Y-96473907D01*
X56653371Y-96473920D01*
X56762860Y-96637781D01*
X56762863Y-96637785D01*
X56902214Y-96777136D01*
X56902218Y-96777139D01*
X57066079Y-96886628D01*
X57066092Y-96886635D01*
X57196867Y-96940803D01*
X57248165Y-96962051D01*
X57248169Y-96962051D01*
X57248170Y-96962052D01*
X57441456Y-97000500D01*
X57441459Y-97000500D01*
X57638543Y-97000500D01*
X57768582Y-96974632D01*
X57831835Y-96962051D01*
X58013914Y-96886632D01*
X58177782Y-96777139D01*
X58317139Y-96637782D01*
X58426632Y-96473914D01*
X58502051Y-96291835D01*
X58540500Y-96098541D01*
X58540500Y-95901459D01*
X58540500Y-95901456D01*
X58502052Y-95708170D01*
X58502051Y-95708169D01*
X58502051Y-95708165D01*
X58480932Y-95657179D01*
X58426635Y-95526092D01*
X58426628Y-95526079D01*
X58335496Y-95389691D01*
X58314618Y-95323014D01*
X58333102Y-95255633D01*
X58385081Y-95208943D01*
X58438598Y-95196800D01*
X59649756Y-95196800D01*
X59716795Y-95216485D01*
X59737437Y-95233119D01*
X60030482Y-95526164D01*
X60063967Y-95587487D01*
X60058983Y-95657179D01*
X60057362Y-95661297D01*
X60037949Y-95708163D01*
X60037947Y-95708171D01*
X59999500Y-95901456D01*
X59999500Y-95901459D01*
X59999500Y-96098541D01*
X59999500Y-96098543D01*
X59999499Y-96098543D01*
X60037947Y-96291829D01*
X60037950Y-96291839D01*
X60113364Y-96473907D01*
X60113371Y-96473920D01*
X60222860Y-96637781D01*
X60222863Y-96637785D01*
X60362214Y-96777136D01*
X60362218Y-96777139D01*
X60526079Y-96886628D01*
X60526092Y-96886635D01*
X60656867Y-96940803D01*
X60708165Y-96962051D01*
X60708169Y-96962051D01*
X60708170Y-96962052D01*
X60901456Y-97000500D01*
X60901459Y-97000500D01*
X61098543Y-97000500D01*
X61228582Y-96974632D01*
X61291835Y-96962051D01*
X61473914Y-96886632D01*
X61637782Y-96777139D01*
X61777139Y-96637782D01*
X61886632Y-96473914D01*
X61962051Y-96291835D01*
X62000500Y-96098541D01*
X62000500Y-95901459D01*
X62000500Y-95901456D01*
X61962052Y-95708170D01*
X61962051Y-95708169D01*
X61962051Y-95708165D01*
X61940932Y-95657179D01*
X61886635Y-95526092D01*
X61886628Y-95526079D01*
X61777139Y-95362218D01*
X61777136Y-95362214D01*
X61637785Y-95222863D01*
X61637781Y-95222860D01*
X61473920Y-95113371D01*
X61473907Y-95113364D01*
X61291839Y-95037950D01*
X61291829Y-95037947D01*
X61098543Y-94999500D01*
X61098541Y-94999500D01*
X60901459Y-94999500D01*
X60901457Y-94999500D01*
X60708171Y-95037947D01*
X60708163Y-95037949D01*
X60661297Y-95057362D01*
X60591827Y-95064831D01*
X60529348Y-95033555D01*
X60526164Y-95030482D01*
X60061513Y-94565831D01*
X60061508Y-94565827D01*
X59981590Y-94519687D01*
X59981589Y-94519686D01*
X59981588Y-94519686D01*
X59892444Y-94495800D01*
X56107556Y-94495800D01*
X56018412Y-94519686D01*
X56018409Y-94519687D01*
X55938491Y-94565827D01*
X55938486Y-94565831D01*
X55473835Y-95030481D01*
X55412512Y-95063966D01*
X55342820Y-95058982D01*
X55338703Y-95057362D01*
X55333874Y-95055361D01*
X55291835Y-95037949D01*
X55291831Y-95037948D01*
X55291828Y-95037947D01*
X55098543Y-94999500D01*
X55098541Y-94999500D01*
X54901459Y-94999500D01*
X54901457Y-94999500D01*
X54708170Y-95037947D01*
X54708160Y-95037950D01*
X54526092Y-95113364D01*
X54526079Y-95113371D01*
X54362218Y-95222860D01*
X54362214Y-95222863D01*
X54222863Y-95362214D01*
X54222860Y-95362218D01*
X54113371Y-95526079D01*
X54113364Y-95526092D01*
X54037950Y-95708160D01*
X54037947Y-95708170D01*
X53999500Y-95901456D01*
X53999500Y-95901459D01*
X53999500Y-96098541D01*
X53999500Y-96098543D01*
X53999499Y-96098543D01*
X20500500Y-96098543D01*
X20500500Y-89130247D01*
X22949500Y-89130247D01*
X22949500Y-90869752D01*
X22961131Y-90928229D01*
X22961132Y-90928230D01*
X23005447Y-90994552D01*
X23071769Y-91038867D01*
X23071770Y-91038868D01*
X23130247Y-91050499D01*
X23130250Y-91050500D01*
X23130252Y-91050500D01*
X24869750Y-91050500D01*
X24869751Y-91050499D01*
X24884568Y-91047552D01*
X24928229Y-91038868D01*
X24928229Y-91038867D01*
X24928231Y-91038867D01*
X24994552Y-90994552D01*
X25038867Y-90928231D01*
X25038867Y-90928229D01*
X25038868Y-90928229D01*
X25050499Y-90869752D01*
X25050500Y-90869750D01*
X25050500Y-90474500D01*
X25070185Y-90407461D01*
X25122989Y-90361706D01*
X25174500Y-90350500D01*
X25197842Y-90350500D01*
X25197844Y-90350500D01*
X25286988Y-90326614D01*
X25286992Y-90326612D01*
X25321978Y-90306412D01*
X25366912Y-90280469D01*
X25366913Y-90280467D01*
X25367292Y-90280249D01*
X25435192Y-90263775D01*
X25501219Y-90286626D01*
X25543854Y-90340181D01*
X25559093Y-90376969D01*
X25587868Y-90446440D01*
X25609059Y-90497598D01*
X25618752Y-90512104D01*
X25724024Y-90669657D01*
X25870342Y-90815975D01*
X25870345Y-90815977D01*
X26042402Y-90930941D01*
X26233580Y-91010130D01*
X26378052Y-91038867D01*
X26436530Y-91050499D01*
X26436534Y-91050500D01*
X26436535Y-91050500D01*
X26643466Y-91050500D01*
X26643467Y-91050499D01*
X26846420Y-91010130D01*
X27037598Y-90930941D01*
X27209655Y-90815977D01*
X27355977Y-90669655D01*
X27470941Y-90497598D01*
X27550130Y-90306420D01*
X27590500Y-90103465D01*
X27590500Y-89896535D01*
X27550130Y-89693580D01*
X27470941Y-89502402D01*
X27396965Y-89391689D01*
X27376089Y-89325013D01*
X27394574Y-89257633D01*
X27446553Y-89210943D01*
X27500069Y-89198800D01*
X28119931Y-89198800D01*
X28186970Y-89218485D01*
X28232725Y-89271289D01*
X28242669Y-89340447D01*
X28223034Y-89391690D01*
X28149058Y-89502403D01*
X28069870Y-89693579D01*
X28069868Y-89693587D01*
X28029500Y-89896530D01*
X28029500Y-90103469D01*
X28069868Y-90306412D01*
X28069870Y-90306420D01*
X28127868Y-90446440D01*
X28149059Y-90497598D01*
X28158752Y-90512104D01*
X28264024Y-90669657D01*
X28410342Y-90815975D01*
X28410345Y-90815977D01*
X28582402Y-90930941D01*
X28773580Y-91010130D01*
X28918052Y-91038867D01*
X28976530Y-91050499D01*
X28976534Y-91050500D01*
X28976535Y-91050500D01*
X29183466Y-91050500D01*
X29183467Y-91050499D01*
X29386420Y-91010130D01*
X29456972Y-90980905D01*
X29526438Y-90973437D01*
X29588918Y-91004711D01*
X29592104Y-91007786D01*
X30016488Y-91432170D01*
X30096412Y-91478314D01*
X30185556Y-91502200D01*
X30185557Y-91502200D01*
X30185558Y-91502200D01*
X38134442Y-91502200D01*
X38134444Y-91502200D01*
X38223588Y-91478314D01*
X38303512Y-91432170D01*
X38727896Y-91007784D01*
X38789217Y-90974301D01*
X38858908Y-90979285D01*
X38863028Y-90980906D01*
X38933580Y-91010130D01*
X39078052Y-91038867D01*
X39136530Y-91050499D01*
X39136534Y-91050500D01*
X39136535Y-91050500D01*
X39343466Y-91050500D01*
X39343467Y-91050499D01*
X39546420Y-91010130D01*
X39737598Y-90930941D01*
X39909655Y-90815977D01*
X40055977Y-90669655D01*
X40170941Y-90497598D01*
X40250130Y-90306420D01*
X40290500Y-90103465D01*
X40290500Y-89896535D01*
X40250130Y-89693580D01*
X40170941Y-89502402D01*
X40055977Y-89330345D01*
X40055975Y-89330342D01*
X39909657Y-89184024D01*
X39781721Y-89098541D01*
X39737598Y-89069059D01*
X39693495Y-89050791D01*
X39546420Y-88989870D01*
X39546412Y-88989868D01*
X39343469Y-88949500D01*
X39343465Y-88949500D01*
X39136535Y-88949500D01*
X39136530Y-88949500D01*
X38933587Y-88989868D01*
X38933579Y-88989870D01*
X38742403Y-89069058D01*
X38570342Y-89184024D01*
X38424024Y-89330342D01*
X38309058Y-89502403D01*
X38229870Y-89693579D01*
X38229868Y-89693587D01*
X38189500Y-89896530D01*
X38189500Y-90103469D01*
X38229868Y-90306412D01*
X38229870Y-90306420D01*
X38259093Y-90376970D01*
X38266562Y-90446440D01*
X38235287Y-90508919D01*
X38232213Y-90512104D01*
X37979437Y-90764881D01*
X37952509Y-90779584D01*
X37926691Y-90796177D01*
X37920490Y-90797068D01*
X37918114Y-90798366D01*
X37891756Y-90801200D01*
X37660069Y-90801200D01*
X37593030Y-90781515D01*
X37547275Y-90728711D01*
X37537331Y-90659553D01*
X37556966Y-90608310D01*
X37630941Y-90497598D01*
X37710130Y-90306420D01*
X37750500Y-90103465D01*
X37750500Y-89896535D01*
X37710130Y-89693580D01*
X37630941Y-89502402D01*
X37515977Y-89330345D01*
X37515975Y-89330342D01*
X37369657Y-89184024D01*
X37241721Y-89098541D01*
X37197598Y-89069059D01*
X37153495Y-89050791D01*
X37006420Y-88989870D01*
X37006412Y-88989868D01*
X36803469Y-88949500D01*
X36803465Y-88949500D01*
X36596535Y-88949500D01*
X36596530Y-88949500D01*
X36393587Y-88989868D01*
X36393579Y-88989870D01*
X36202403Y-89069058D01*
X36030342Y-89184024D01*
X35884024Y-89330342D01*
X35769058Y-89502403D01*
X35689870Y-89693579D01*
X35689868Y-89693587D01*
X35649500Y-89896530D01*
X35649500Y-90103469D01*
X35689868Y-90306412D01*
X35689870Y-90306420D01*
X35747868Y-90446440D01*
X35769059Y-90497598D01*
X35778752Y-90512104D01*
X35843034Y-90608310D01*
X35863911Y-90674987D01*
X35845426Y-90742367D01*
X35793447Y-90789057D01*
X35739931Y-90801200D01*
X35334500Y-90801200D01*
X35267461Y-90781515D01*
X35221706Y-90728711D01*
X35210500Y-90677200D01*
X35210500Y-89130249D01*
X35210499Y-89130247D01*
X35198868Y-89071770D01*
X35198867Y-89071769D01*
X35154552Y-89005447D01*
X35088230Y-88961132D01*
X35088229Y-88961131D01*
X35029752Y-88949500D01*
X35029748Y-88949500D01*
X33290252Y-88949500D01*
X33290247Y-88949500D01*
X33231770Y-88961131D01*
X33231769Y-88961132D01*
X33165447Y-89005447D01*
X33121132Y-89071769D01*
X33121131Y-89071770D01*
X33109500Y-89130247D01*
X33109500Y-89306156D01*
X33089815Y-89373195D01*
X33037011Y-89418950D01*
X32967853Y-89428894D01*
X32904297Y-89399869D01*
X32897819Y-89393837D01*
X32071813Y-88567831D01*
X32071808Y-88567827D01*
X31991890Y-88521687D01*
X31991889Y-88521686D01*
X31991888Y-88521686D01*
X31902744Y-88497800D01*
X25969256Y-88497800D01*
X25880112Y-88521686D01*
X25880111Y-88521686D01*
X25880109Y-88521687D01*
X25880106Y-88521688D01*
X25800194Y-88567826D01*
X25800185Y-88567833D01*
X25245476Y-89122541D01*
X25184153Y-89156026D01*
X25114461Y-89151042D01*
X25058528Y-89109170D01*
X25043233Y-89082311D01*
X25038867Y-89071770D01*
X25038867Y-89071769D01*
X25003216Y-89018414D01*
X24994552Y-89005447D01*
X24928230Y-88961132D01*
X24928229Y-88961131D01*
X24869752Y-88949500D01*
X24869748Y-88949500D01*
X23130252Y-88949500D01*
X23130247Y-88949500D01*
X23071770Y-88961131D01*
X23071769Y-88961132D01*
X23005447Y-89005447D01*
X22961132Y-89071769D01*
X22961131Y-89071770D01*
X22949500Y-89130247D01*
X20500500Y-89130247D01*
X20500500Y-88395730D01*
X51499500Y-88395730D01*
X51499500Y-89604269D01*
X51502353Y-89634699D01*
X51502353Y-89634701D01*
X51543244Y-89751557D01*
X51547207Y-89762882D01*
X51627850Y-89872150D01*
X51737118Y-89952793D01*
X51763576Y-89962051D01*
X51865299Y-89997646D01*
X51895730Y-90000500D01*
X51895734Y-90000500D01*
X53104270Y-90000500D01*
X53134699Y-89997646D01*
X53134701Y-89997646D01*
X53198790Y-89975219D01*
X53262882Y-89952793D01*
X53372150Y-89872150D01*
X53452793Y-89762882D01*
X53490526Y-89655048D01*
X53497646Y-89634701D01*
X53497646Y-89634699D01*
X53500500Y-89604269D01*
X53500500Y-88395730D01*
X53497646Y-88365300D01*
X53497646Y-88365298D01*
X53452793Y-88237119D01*
X53452792Y-88237117D01*
X53413413Y-88183760D01*
X53372150Y-88127850D01*
X53262882Y-88047207D01*
X53262880Y-88047206D01*
X53134700Y-88002353D01*
X53104270Y-87999500D01*
X53104266Y-87999500D01*
X51895734Y-87999500D01*
X51895730Y-87999500D01*
X51865300Y-88002353D01*
X51865298Y-88002353D01*
X51737119Y-88047206D01*
X51737117Y-88047207D01*
X51627850Y-88127850D01*
X51547207Y-88237117D01*
X51547206Y-88237119D01*
X51502353Y-88365298D01*
X51502353Y-88365300D01*
X51499500Y-88395730D01*
X20500500Y-88395730D01*
X20500500Y-77130247D01*
X22949500Y-77130247D01*
X22949500Y-78869752D01*
X22961131Y-78928229D01*
X22961132Y-78928230D01*
X23005447Y-78994552D01*
X23071769Y-79038867D01*
X23071770Y-79038868D01*
X23130247Y-79050499D01*
X23130250Y-79050500D01*
X23130252Y-79050500D01*
X24869750Y-79050500D01*
X24869751Y-79050499D01*
X24884568Y-79047552D01*
X24928229Y-79038868D01*
X24928229Y-79038867D01*
X24928231Y-79038867D01*
X24994552Y-78994552D01*
X25038867Y-78928231D01*
X25038867Y-78928229D01*
X25038868Y-78928229D01*
X25050499Y-78869752D01*
X25050500Y-78869750D01*
X25050500Y-78474500D01*
X25070185Y-78407461D01*
X25122989Y-78361706D01*
X25174500Y-78350500D01*
X25197842Y-78350500D01*
X25197844Y-78350500D01*
X25286988Y-78326614D01*
X25366912Y-78280469D01*
X25366913Y-78280467D01*
X25367292Y-78280249D01*
X25435192Y-78263775D01*
X25501219Y-78286626D01*
X25543854Y-78340181D01*
X25566028Y-78393713D01*
X25609058Y-78497596D01*
X25724024Y-78669657D01*
X25870342Y-78815975D01*
X25870345Y-78815977D01*
X26042402Y-78930941D01*
X26233580Y-79010130D01*
X26378052Y-79038867D01*
X26436530Y-79050499D01*
X26436534Y-79050500D01*
X26436535Y-79050500D01*
X26643466Y-79050500D01*
X26643467Y-79050499D01*
X26846420Y-79010130D01*
X27037598Y-78930941D01*
X27209655Y-78815977D01*
X27355977Y-78669655D01*
X27470941Y-78497598D01*
X27550130Y-78306420D01*
X27590500Y-78103465D01*
X27590500Y-77896535D01*
X27550130Y-77693580D01*
X27520905Y-77623027D01*
X27513437Y-77553559D01*
X27544712Y-77491079D01*
X27547786Y-77487894D01*
X27926441Y-77109240D01*
X28317362Y-76718319D01*
X28378685Y-76684834D01*
X28405043Y-76682000D01*
X29602955Y-76682000D01*
X29669994Y-76701685D01*
X29715749Y-76754489D01*
X29725693Y-76823647D01*
X29696668Y-76887203D01*
X29690636Y-76893681D01*
X29592104Y-76992213D01*
X29530781Y-77025698D01*
X29461089Y-77020714D01*
X29456970Y-77019093D01*
X29386420Y-76989870D01*
X29386412Y-76989868D01*
X29183469Y-76949500D01*
X29183465Y-76949500D01*
X28976535Y-76949500D01*
X28976530Y-76949500D01*
X28773587Y-76989868D01*
X28773579Y-76989870D01*
X28582403Y-77069058D01*
X28410342Y-77184024D01*
X28264024Y-77330342D01*
X28149058Y-77502403D01*
X28069870Y-77693579D01*
X28069868Y-77693587D01*
X28029500Y-77896530D01*
X28029500Y-78103469D01*
X28069868Y-78306412D01*
X28069870Y-78306420D01*
X28149058Y-78497596D01*
X28264024Y-78669657D01*
X28410342Y-78815975D01*
X28410345Y-78815977D01*
X28582402Y-78930941D01*
X28773580Y-79010130D01*
X28918052Y-79038867D01*
X28976530Y-79050499D01*
X28976534Y-79050500D01*
X28976535Y-79050500D01*
X29183466Y-79050500D01*
X29183467Y-79050499D01*
X29386420Y-79010130D01*
X29577598Y-78930941D01*
X29749655Y-78815977D01*
X29749658Y-78815974D01*
X29758243Y-78807390D01*
X29895974Y-78669658D01*
X29895975Y-78669657D01*
X29895977Y-78669655D01*
X30010941Y-78497598D01*
X30090130Y-78306420D01*
X30130500Y-78103465D01*
X30130500Y-77896535D01*
X30090130Y-77693580D01*
X30060906Y-77623028D01*
X30053437Y-77553559D01*
X30084712Y-77491079D01*
X30087726Y-77487954D01*
X30373564Y-77202116D01*
X30400496Y-77187411D01*
X30426309Y-77170823D01*
X30432509Y-77169931D01*
X30434886Y-77168634D01*
X30461244Y-77165800D01*
X30561240Y-77165800D01*
X30628279Y-77185485D01*
X30674034Y-77238289D01*
X30683978Y-77307447D01*
X30661558Y-77362685D01*
X30636434Y-77397265D01*
X30554252Y-77558552D01*
X30554251Y-77558555D01*
X30498317Y-77730706D01*
X30470000Y-77909493D01*
X30470000Y-78090506D01*
X30498317Y-78269293D01*
X30554251Y-78441444D01*
X30554252Y-78441447D01*
X30636434Y-78602734D01*
X30677667Y-78659487D01*
X30677668Y-78659487D01*
X31151980Y-78185175D01*
X31154075Y-78192993D01*
X31219901Y-78307007D01*
X31312993Y-78400099D01*
X31427007Y-78465925D01*
X31434822Y-78468019D01*
X30960510Y-78942330D01*
X30960511Y-78942331D01*
X31017265Y-78983565D01*
X31178552Y-79065747D01*
X31178555Y-79065748D01*
X31350706Y-79121682D01*
X31529494Y-79150000D01*
X31710506Y-79150000D01*
X31889293Y-79121682D01*
X32061444Y-79065748D01*
X32061447Y-79065747D01*
X32222730Y-78983568D01*
X32279487Y-78942330D01*
X32279488Y-78942329D01*
X31805178Y-78468019D01*
X31812993Y-78465925D01*
X31927007Y-78400099D01*
X32020099Y-78307007D01*
X32085925Y-78192993D01*
X32088019Y-78185177D01*
X32562330Y-78659488D01*
X32562330Y-78659487D01*
X32603568Y-78602730D01*
X32685747Y-78441447D01*
X32685748Y-78441444D01*
X32741682Y-78269293D01*
X32770000Y-78090506D01*
X32770000Y-77909493D01*
X32741682Y-77730706D01*
X32685748Y-77558555D01*
X32685747Y-77558552D01*
X32603565Y-77397265D01*
X32578442Y-77362685D01*
X32554962Y-77296879D01*
X32570788Y-77228825D01*
X32620893Y-77180130D01*
X32678760Y-77165800D01*
X33221981Y-77165800D01*
X33289020Y-77185485D01*
X33334775Y-77238289D01*
X33344719Y-77307447D01*
X33325083Y-77358690D01*
X33229059Y-77502400D01*
X33149870Y-77693579D01*
X33149868Y-77693587D01*
X33109500Y-77896530D01*
X33109500Y-78103469D01*
X33149868Y-78306412D01*
X33149870Y-78306420D01*
X33229058Y-78497596D01*
X33344024Y-78669657D01*
X33490342Y-78815975D01*
X33490345Y-78815977D01*
X33662402Y-78930941D01*
X33853580Y-79010130D01*
X33998052Y-79038867D01*
X34056530Y-79050499D01*
X34056534Y-79050500D01*
X34056535Y-79050500D01*
X34263466Y-79050500D01*
X34263467Y-79050499D01*
X34466420Y-79010130D01*
X34657598Y-78930941D01*
X34829655Y-78815977D01*
X34975977Y-78669655D01*
X35090941Y-78497598D01*
X35170130Y-78306420D01*
X35210500Y-78103465D01*
X35210500Y-77896535D01*
X35170130Y-77693580D01*
X35090941Y-77502402D01*
X35089336Y-77500000D01*
X34994917Y-77358690D01*
X34974039Y-77292013D01*
X34992524Y-77224633D01*
X35044503Y-77177943D01*
X35098019Y-77165800D01*
X35761981Y-77165800D01*
X35829020Y-77185485D01*
X35874775Y-77238289D01*
X35884719Y-77307447D01*
X35865083Y-77358690D01*
X35769059Y-77502400D01*
X35689870Y-77693579D01*
X35689868Y-77693587D01*
X35649500Y-77896530D01*
X35649500Y-78103469D01*
X35689868Y-78306412D01*
X35689870Y-78306420D01*
X35769058Y-78497596D01*
X35884024Y-78669657D01*
X36030342Y-78815975D01*
X36030345Y-78815977D01*
X36202402Y-78930941D01*
X36393580Y-79010130D01*
X36538052Y-79038867D01*
X36596530Y-79050499D01*
X36596534Y-79050500D01*
X36596535Y-79050500D01*
X36803466Y-79050500D01*
X36803467Y-79050499D01*
X37006420Y-79010130D01*
X37197598Y-78930941D01*
X37369655Y-78815977D01*
X37515977Y-78669655D01*
X37630941Y-78497598D01*
X37710130Y-78306420D01*
X37750500Y-78103465D01*
X37750500Y-77896535D01*
X37710130Y-77693580D01*
X37630941Y-77502402D01*
X37629336Y-77500000D01*
X37534917Y-77358690D01*
X37514039Y-77292013D01*
X37532524Y-77224633D01*
X37584503Y-77177943D01*
X37638019Y-77165800D01*
X44230756Y-77165800D01*
X44297795Y-77185485D01*
X44318437Y-77202119D01*
X54916213Y-87799895D01*
X54949698Y-87861218D01*
X54944714Y-87930910D01*
X54902842Y-87986843D01*
X54852724Y-88009193D01*
X54708170Y-88037947D01*
X54708160Y-88037950D01*
X54526092Y-88113364D01*
X54526079Y-88113371D01*
X54362218Y-88222860D01*
X54362214Y-88222863D01*
X54222863Y-88362214D01*
X54222860Y-88362218D01*
X54113371Y-88526079D01*
X54113364Y-88526092D01*
X54037950Y-88708160D01*
X54037947Y-88708170D01*
X53999500Y-88901456D01*
X53999500Y-88901459D01*
X53999500Y-89098541D01*
X53999500Y-89098543D01*
X53999499Y-89098543D01*
X54037947Y-89291829D01*
X54037950Y-89291839D01*
X54113364Y-89473907D01*
X54113371Y-89473920D01*
X54222860Y-89637781D01*
X54222863Y-89637785D01*
X54362214Y-89777136D01*
X54362218Y-89777139D01*
X54526079Y-89886628D01*
X54526092Y-89886635D01*
X54685814Y-89952793D01*
X54708165Y-89962051D01*
X54708169Y-89962051D01*
X54708170Y-89962052D01*
X54901456Y-90000500D01*
X54901459Y-90000500D01*
X55098543Y-90000500D01*
X55228582Y-89974632D01*
X55291835Y-89962051D01*
X55473914Y-89886632D01*
X55637782Y-89777139D01*
X55777139Y-89637782D01*
X55886632Y-89473914D01*
X55962051Y-89291835D01*
X55990806Y-89147276D01*
X56023191Y-89085365D01*
X56083906Y-89050791D01*
X56153676Y-89054530D01*
X56200104Y-89083786D01*
X62591569Y-95475251D01*
X62625054Y-95536574D01*
X62620070Y-95606266D01*
X62618450Y-95610382D01*
X62577949Y-95708164D01*
X62577947Y-95708171D01*
X62539500Y-95901456D01*
X62539500Y-95901459D01*
X62539500Y-96098541D01*
X62539500Y-96098543D01*
X62539499Y-96098543D01*
X62577947Y-96291829D01*
X62577950Y-96291839D01*
X62653364Y-96473907D01*
X62653371Y-96473920D01*
X62762860Y-96637781D01*
X62762863Y-96637785D01*
X62902214Y-96777136D01*
X62902218Y-96777139D01*
X63066079Y-96886628D01*
X63066092Y-96886635D01*
X63196867Y-96940803D01*
X63248165Y-96962051D01*
X63248169Y-96962051D01*
X63248170Y-96962052D01*
X63441456Y-97000500D01*
X63441459Y-97000500D01*
X63638543Y-97000500D01*
X63768582Y-96974632D01*
X63831835Y-96962051D01*
X64013914Y-96886632D01*
X64177782Y-96777139D01*
X64317139Y-96637782D01*
X64426632Y-96473914D01*
X64446044Y-96427046D01*
X64489884Y-96372645D01*
X64556178Y-96350579D01*
X64560605Y-96350500D01*
X65979395Y-96350500D01*
X66046434Y-96370185D01*
X66092189Y-96422989D01*
X66093939Y-96427009D01*
X66110051Y-96465906D01*
X66113367Y-96473912D01*
X66113371Y-96473919D01*
X66222860Y-96637782D01*
X66362214Y-96777136D01*
X66362218Y-96777139D01*
X66526079Y-96886628D01*
X66526092Y-96886635D01*
X66656867Y-96940803D01*
X66708165Y-96962051D01*
X66708169Y-96962051D01*
X66708170Y-96962052D01*
X66901456Y-97000500D01*
X66901459Y-97000500D01*
X67098543Y-97000500D01*
X67228582Y-96974632D01*
X67291835Y-96962051D01*
X67473914Y-96886632D01*
X67637782Y-96777139D01*
X67637785Y-96777136D01*
X67643327Y-96771595D01*
X67777136Y-96637785D01*
X67777139Y-96637782D01*
X67886632Y-96473914D01*
X67962051Y-96291835D01*
X68000500Y-96098541D01*
X68000500Y-95913428D01*
X68440000Y-95913428D01*
X68440000Y-96086571D01*
X68467085Y-96257584D01*
X68520591Y-96422257D01*
X68599195Y-96576523D01*
X68599196Y-96576525D01*
X68633463Y-96623691D01*
X68633464Y-96623691D01*
X69153629Y-96103527D01*
X69167259Y-96154394D01*
X69219920Y-96245606D01*
X69294394Y-96320080D01*
X69385606Y-96372741D01*
X69436471Y-96386370D01*
X68916307Y-96906534D01*
X68963478Y-96940805D01*
X69117742Y-97019408D01*
X69282415Y-97072914D01*
X69453429Y-97100000D01*
X69626571Y-97100000D01*
X69797584Y-97072914D01*
X69962257Y-97019408D01*
X70116525Y-96940803D01*
X70163691Y-96906534D01*
X70163692Y-96906533D01*
X69643529Y-96386370D01*
X69694394Y-96372741D01*
X69785606Y-96320080D01*
X69860080Y-96245606D01*
X69912741Y-96154394D01*
X69926370Y-96103528D01*
X70446533Y-96623692D01*
X70446534Y-96623691D01*
X70480803Y-96576525D01*
X70559408Y-96422257D01*
X70612914Y-96257584D01*
X70640000Y-96086571D01*
X70640000Y-95913428D01*
X70612914Y-95742415D01*
X70559408Y-95577742D01*
X70480805Y-95423478D01*
X70446534Y-95376307D01*
X69926370Y-95896471D01*
X69912741Y-95845606D01*
X69860080Y-95754394D01*
X69785606Y-95679920D01*
X69694394Y-95627259D01*
X69643527Y-95613629D01*
X70163691Y-95093464D01*
X70163691Y-95093463D01*
X70116525Y-95059196D01*
X70116523Y-95059195D01*
X69962257Y-94980591D01*
X69797584Y-94927085D01*
X69626571Y-94900000D01*
X69453429Y-94900000D01*
X69282415Y-94927085D01*
X69117740Y-94980592D01*
X68963475Y-95059196D01*
X68916307Y-95093463D01*
X68916307Y-95093464D01*
X69436472Y-95613629D01*
X69385606Y-95627259D01*
X69294394Y-95679920D01*
X69219920Y-95754394D01*
X69167259Y-95845606D01*
X69153629Y-95896472D01*
X68633464Y-95376307D01*
X68633463Y-95376307D01*
X68599196Y-95423475D01*
X68520592Y-95577740D01*
X68467085Y-95742415D01*
X68440000Y-95913428D01*
X68000500Y-95913428D01*
X68000500Y-95901459D01*
X68000500Y-95901456D01*
X67962052Y-95708170D01*
X67962051Y-95708169D01*
X67962051Y-95708165D01*
X67940932Y-95657179D01*
X67886635Y-95526092D01*
X67886628Y-95526079D01*
X67777139Y-95362218D01*
X67777136Y-95362214D01*
X67637785Y-95222863D01*
X67637781Y-95222860D01*
X67473920Y-95113371D01*
X67473907Y-95113364D01*
X67291839Y-95037950D01*
X67291829Y-95037947D01*
X67098543Y-94999500D01*
X67098541Y-94999500D01*
X66901459Y-94999500D01*
X66901457Y-94999500D01*
X66708170Y-95037947D01*
X66708160Y-95037950D01*
X66526092Y-95113364D01*
X66526079Y-95113371D01*
X66362218Y-95222860D01*
X66362214Y-95222863D01*
X66222860Y-95362217D01*
X66113371Y-95526080D01*
X66113367Y-95526087D01*
X66112016Y-95529349D01*
X66093955Y-95572953D01*
X66050116Y-95627355D01*
X65983822Y-95649421D01*
X65979395Y-95649500D01*
X64560605Y-95649500D01*
X64493566Y-95629815D01*
X64447811Y-95577011D01*
X64446060Y-95572990D01*
X64426632Y-95526086D01*
X64335496Y-95389691D01*
X64317139Y-95362217D01*
X64177785Y-95222863D01*
X64177781Y-95222860D01*
X64013920Y-95113371D01*
X64013907Y-95113364D01*
X63831839Y-95037950D01*
X63831829Y-95037947D01*
X63638543Y-94999500D01*
X63638541Y-94999500D01*
X63441459Y-94999500D01*
X63441457Y-94999500D01*
X63248171Y-95037947D01*
X63242342Y-95039716D01*
X63241642Y-95037411D01*
X63182733Y-95043741D01*
X63120256Y-95012463D01*
X63117076Y-95009394D01*
X51489584Y-83381902D01*
X65999500Y-83381902D01*
X65999500Y-83618097D01*
X66036446Y-83851368D01*
X66109433Y-84075996D01*
X66216657Y-84286433D01*
X66355483Y-84477510D01*
X66522490Y-84644517D01*
X66713567Y-84783343D01*
X66812991Y-84834002D01*
X66924003Y-84890566D01*
X66924005Y-84890566D01*
X66924008Y-84890568D01*
X67044412Y-84929689D01*
X67148631Y-84963553D01*
X67381903Y-85000500D01*
X67381908Y-85000500D01*
X67618097Y-85000500D01*
X67851368Y-84963553D01*
X68075992Y-84890568D01*
X68286433Y-84783343D01*
X68477510Y-84644517D01*
X68644517Y-84477510D01*
X68783343Y-84286433D01*
X68890568Y-84075992D01*
X68963553Y-83851368D01*
X69000500Y-83618097D01*
X69000500Y-83381902D01*
X68963553Y-83148631D01*
X68890566Y-82924003D01*
X68783342Y-82713566D01*
X68644517Y-82522490D01*
X68477510Y-82355483D01*
X68286433Y-82216657D01*
X68075996Y-82109433D01*
X67851368Y-82036446D01*
X67618097Y-81999500D01*
X67618092Y-81999500D01*
X67381908Y-81999500D01*
X67381903Y-81999500D01*
X67148631Y-82036446D01*
X66924003Y-82109433D01*
X66713566Y-82216657D01*
X66604550Y-82295862D01*
X66522490Y-82355483D01*
X66522488Y-82355485D01*
X66522487Y-82355485D01*
X66355485Y-82522487D01*
X66355485Y-82522488D01*
X66355483Y-82522490D01*
X66346745Y-82534517D01*
X66216657Y-82713566D01*
X66109433Y-82924003D01*
X66036446Y-83148631D01*
X65999500Y-83381902D01*
X51489584Y-83381902D01*
X49206225Y-81098543D01*
X53999499Y-81098543D01*
X54037947Y-81291829D01*
X54037950Y-81291839D01*
X54113364Y-81473907D01*
X54113371Y-81473920D01*
X54222860Y-81637781D01*
X54222863Y-81637785D01*
X54362214Y-81777136D01*
X54362218Y-81777139D01*
X54526079Y-81886628D01*
X54526092Y-81886635D01*
X54656867Y-81940803D01*
X54708165Y-81962051D01*
X54708169Y-81962051D01*
X54708170Y-81962052D01*
X54901456Y-82000500D01*
X54901459Y-82000500D01*
X55098543Y-82000500D01*
X55228582Y-81974632D01*
X55291835Y-81962051D01*
X55473914Y-81886632D01*
X55637782Y-81777139D01*
X55637785Y-81777136D01*
X55643327Y-81771595D01*
X55777136Y-81637785D01*
X55777139Y-81637782D01*
X55886632Y-81473914D01*
X55962051Y-81291835D01*
X56000500Y-81098541D01*
X56000500Y-80913428D01*
X58900000Y-80913428D01*
X58900000Y-81086571D01*
X58927085Y-81257584D01*
X58980591Y-81422257D01*
X59059195Y-81576523D01*
X59059196Y-81576525D01*
X59093463Y-81623691D01*
X59093464Y-81623691D01*
X59613629Y-81103527D01*
X59627259Y-81154394D01*
X59679920Y-81245606D01*
X59754394Y-81320080D01*
X59845606Y-81372741D01*
X59896471Y-81386370D01*
X59376307Y-81906534D01*
X59423478Y-81940805D01*
X59577742Y-82019408D01*
X59742415Y-82072914D01*
X59913429Y-82100000D01*
X60086571Y-82100000D01*
X60257584Y-82072914D01*
X60422257Y-82019408D01*
X60576525Y-81940803D01*
X60623691Y-81906534D01*
X60623692Y-81906533D01*
X60103529Y-81386370D01*
X60154394Y-81372741D01*
X60245606Y-81320080D01*
X60320080Y-81245606D01*
X60372741Y-81154394D01*
X60386370Y-81103528D01*
X60906533Y-81623692D01*
X60906534Y-81623691D01*
X60940803Y-81576525D01*
X61019408Y-81422257D01*
X61072914Y-81257584D01*
X61100000Y-81086571D01*
X61100000Y-80913428D01*
X61072914Y-80742415D01*
X61019408Y-80577742D01*
X60940805Y-80423478D01*
X60906534Y-80376307D01*
X60386370Y-80896471D01*
X60372741Y-80845606D01*
X60320080Y-80754394D01*
X60245606Y-80679920D01*
X60154394Y-80627259D01*
X60103527Y-80613629D01*
X60623691Y-80093464D01*
X60623691Y-80093463D01*
X60576525Y-80059196D01*
X60576523Y-80059195D01*
X60422257Y-79980591D01*
X60257584Y-79927085D01*
X60086571Y-79900000D01*
X59913429Y-79900000D01*
X59742415Y-79927085D01*
X59577740Y-79980592D01*
X59423475Y-80059196D01*
X59376307Y-80093463D01*
X59376307Y-80093464D01*
X59896472Y-80613629D01*
X59845606Y-80627259D01*
X59754394Y-80679920D01*
X59679920Y-80754394D01*
X59627259Y-80845606D01*
X59613629Y-80896472D01*
X59093464Y-80376307D01*
X59093463Y-80376307D01*
X59059196Y-80423475D01*
X58980592Y-80577740D01*
X58927085Y-80742415D01*
X58900000Y-80913428D01*
X56000500Y-80913428D01*
X56000500Y-80901459D01*
X56000500Y-80901456D01*
X55962052Y-80708170D01*
X55962051Y-80708169D01*
X55962051Y-80708165D01*
X55917248Y-80600000D01*
X55886635Y-80526092D01*
X55886628Y-80526079D01*
X55777139Y-80362218D01*
X55777136Y-80362214D01*
X55637785Y-80222863D01*
X55637781Y-80222860D01*
X55473920Y-80113371D01*
X55473907Y-80113364D01*
X55291839Y-80037950D01*
X55291829Y-80037947D01*
X55098543Y-79999500D01*
X55098541Y-79999500D01*
X54901459Y-79999500D01*
X54901457Y-79999500D01*
X54708170Y-80037947D01*
X54708160Y-80037950D01*
X54526092Y-80113364D01*
X54526079Y-80113371D01*
X54362218Y-80222860D01*
X54362214Y-80222863D01*
X54222863Y-80362214D01*
X54222860Y-80362218D01*
X54113371Y-80526079D01*
X54113364Y-80526092D01*
X54037950Y-80708160D01*
X54037947Y-80708170D01*
X53999500Y-80901456D01*
X53999500Y-80901459D01*
X53999500Y-81098541D01*
X53999500Y-81098543D01*
X53999499Y-81098543D01*
X49206225Y-81098543D01*
X45001363Y-76893681D01*
X44967878Y-76832358D01*
X44972862Y-76762666D01*
X45014734Y-76706733D01*
X45080198Y-76682316D01*
X45089044Y-76682000D01*
X66586656Y-76682000D01*
X66653695Y-76701685D01*
X66674337Y-76718319D01*
X66897638Y-76941620D01*
X66931123Y-77002943D01*
X66926139Y-77072635D01*
X66884267Y-77128568D01*
X66829355Y-77151774D01*
X66633760Y-77182753D01*
X66431585Y-77248444D01*
X66242179Y-77344951D01*
X66070213Y-77469890D01*
X65919890Y-77620213D01*
X65794951Y-77792179D01*
X65698444Y-77981585D01*
X65632753Y-78183760D01*
X65599500Y-78393713D01*
X65599500Y-78606286D01*
X65632711Y-78815975D01*
X65632754Y-78816243D01*
X65695752Y-79010131D01*
X65698444Y-79018414D01*
X65794951Y-79207820D01*
X65919890Y-79379786D01*
X66070213Y-79530109D01*
X66242179Y-79655048D01*
X66242181Y-79655049D01*
X66242184Y-79655051D01*
X66431588Y-79751557D01*
X66633757Y-79817246D01*
X66843713Y-79850500D01*
X67025500Y-79850500D01*
X67092539Y-79870185D01*
X67138294Y-79922989D01*
X67149500Y-79974500D01*
X67149500Y-79997844D01*
X67165939Y-80059196D01*
X67173387Y-80086990D01*
X67173388Y-80086993D01*
X67219526Y-80166905D01*
X67219529Y-80166909D01*
X67219531Y-80166912D01*
X67284788Y-80232169D01*
X67284791Y-80232170D01*
X67284794Y-80232173D01*
X67364706Y-80278311D01*
X67364707Y-80278311D01*
X67364712Y-80278314D01*
X67453856Y-80302200D01*
X67939956Y-80302200D01*
X68006995Y-80321885D01*
X68027637Y-80338519D01*
X70783187Y-83094069D01*
X70816672Y-83155392D01*
X70811688Y-83225084D01*
X70783187Y-83269431D01*
X67219531Y-86833086D01*
X67219527Y-86833091D01*
X67173387Y-86913009D01*
X67173386Y-86913012D01*
X67149500Y-87002156D01*
X67149500Y-87025500D01*
X67129815Y-87092539D01*
X67077011Y-87138294D01*
X67025500Y-87149500D01*
X66843713Y-87149500D01*
X66829356Y-87151774D01*
X66633760Y-87182753D01*
X66431585Y-87248444D01*
X66242179Y-87344951D01*
X66070213Y-87469890D01*
X65919890Y-87620213D01*
X65794951Y-87792179D01*
X65698444Y-87981585D01*
X65632753Y-88183760D01*
X65604000Y-88365300D01*
X65599500Y-88393713D01*
X65599500Y-88606287D01*
X65632754Y-88816243D01*
X65694230Y-89005447D01*
X65698444Y-89018414D01*
X65794951Y-89207820D01*
X65919890Y-89379786D01*
X66070213Y-89530109D01*
X66242179Y-89655048D01*
X66242181Y-89655049D01*
X66242184Y-89655051D01*
X66431588Y-89751557D01*
X66633757Y-89817246D01*
X66843713Y-89850500D01*
X66843714Y-89850500D01*
X68156286Y-89850500D01*
X68156287Y-89850500D01*
X68366243Y-89817246D01*
X68568412Y-89751557D01*
X68757816Y-89655051D01*
X68827716Y-89604266D01*
X68929786Y-89530109D01*
X68929788Y-89530106D01*
X68929792Y-89530104D01*
X69080104Y-89379792D01*
X69080106Y-89379788D01*
X69080109Y-89379786D01*
X69205048Y-89207820D01*
X69205047Y-89207820D01*
X69205051Y-89207816D01*
X69301557Y-89018412D01*
X69367246Y-88816243D01*
X69400500Y-88606287D01*
X69400500Y-88393713D01*
X69367246Y-88183757D01*
X69301557Y-87981588D01*
X69205051Y-87792184D01*
X69205049Y-87792181D01*
X69205048Y-87792179D01*
X69080109Y-87620213D01*
X68929786Y-87469890D01*
X68757820Y-87344951D01*
X68568414Y-87248444D01*
X68568413Y-87248443D01*
X68568412Y-87248443D01*
X68366243Y-87182754D01*
X68366241Y-87182753D01*
X68366239Y-87182753D01*
X68170644Y-87151774D01*
X68107509Y-87121845D01*
X68070578Y-87062533D01*
X68071576Y-86992671D01*
X68102359Y-86941622D01*
X70941622Y-84102359D01*
X71002943Y-84068876D01*
X71072635Y-84073860D01*
X71128568Y-84115732D01*
X71151773Y-84170643D01*
X71182754Y-84366243D01*
X71218907Y-84477511D01*
X71248444Y-84568414D01*
X71344951Y-84757820D01*
X71469890Y-84929786D01*
X71620213Y-85080109D01*
X71792179Y-85205048D01*
X71792181Y-85205049D01*
X71792184Y-85205051D01*
X71981588Y-85301557D01*
X72183757Y-85367246D01*
X72393713Y-85400500D01*
X72393714Y-85400500D01*
X72606286Y-85400500D01*
X72606287Y-85400500D01*
X72816243Y-85367246D01*
X73018412Y-85301557D01*
X73207816Y-85205051D01*
X73229789Y-85189086D01*
X73379786Y-85080109D01*
X73379788Y-85080106D01*
X73379792Y-85080104D01*
X73530104Y-84929792D01*
X73530106Y-84929788D01*
X73530109Y-84929786D01*
X73655048Y-84757820D01*
X73655047Y-84757820D01*
X73655051Y-84757816D01*
X73751557Y-84568412D01*
X73817246Y-84366243D01*
X73850500Y-84156287D01*
X73850500Y-82843713D01*
X73817246Y-82633757D01*
X73751557Y-82431588D01*
X73655051Y-82242184D01*
X73655049Y-82242181D01*
X73655048Y-82242179D01*
X73530109Y-82070213D01*
X73379786Y-81919890D01*
X73207820Y-81794951D01*
X73018414Y-81698444D01*
X73018413Y-81698443D01*
X73018412Y-81698443D01*
X72816243Y-81632754D01*
X72816241Y-81632753D01*
X72816240Y-81632753D01*
X72654957Y-81607208D01*
X72606287Y-81599500D01*
X72393713Y-81599500D01*
X72345042Y-81607208D01*
X72183760Y-81632753D01*
X71981585Y-81698444D01*
X71792179Y-81794951D01*
X71620213Y-81919890D01*
X71469890Y-82070213D01*
X71344948Y-82242184D01*
X71344947Y-82242185D01*
X71279893Y-82369860D01*
X71231919Y-82420656D01*
X71164098Y-82437451D01*
X71097963Y-82414913D01*
X71081728Y-82401246D01*
X68598753Y-79918271D01*
X68565268Y-79856948D01*
X68570252Y-79787256D01*
X68612124Y-79731323D01*
X68630140Y-79720105D01*
X68757816Y-79655051D01*
X68809255Y-79617678D01*
X68929786Y-79530109D01*
X68929788Y-79530106D01*
X68929792Y-79530104D01*
X69080104Y-79379792D01*
X69080106Y-79379788D01*
X69080109Y-79379786D01*
X69205048Y-79207820D01*
X69205047Y-79207820D01*
X69205051Y-79207816D01*
X69301557Y-79018412D01*
X69367246Y-78816243D01*
X69400500Y-78606287D01*
X69400500Y-78393713D01*
X69367246Y-78183757D01*
X69301557Y-77981588D01*
X69205051Y-77792184D01*
X69205049Y-77792181D01*
X69205048Y-77792179D01*
X69080109Y-77620213D01*
X68929786Y-77469890D01*
X68757820Y-77344951D01*
X68568414Y-77248444D01*
X68568413Y-77248443D01*
X68568412Y-77248443D01*
X68366243Y-77182754D01*
X68366241Y-77182753D01*
X68366240Y-77182753D01*
X68170644Y-77151774D01*
X68156287Y-77149500D01*
X68156286Y-77149500D01*
X67974500Y-77149500D01*
X67907461Y-77129815D01*
X67861706Y-77077011D01*
X67850500Y-77025500D01*
X67850500Y-77002158D01*
X67850500Y-77002156D01*
X67826614Y-76913012D01*
X67826611Y-76913006D01*
X67780473Y-76833094D01*
X67780470Y-76833091D01*
X67780469Y-76833088D01*
X67715212Y-76767831D01*
X66998412Y-76051030D01*
X66998411Y-76051029D01*
X66998408Y-76051027D01*
X66918490Y-76004887D01*
X66918489Y-76004886D01*
X66918488Y-76004886D01*
X66829344Y-75981000D01*
X28162356Y-75981000D01*
X28073212Y-76004886D01*
X28073211Y-76004886D01*
X28073209Y-76004887D01*
X28073206Y-76004888D01*
X27993294Y-76051026D01*
X27993285Y-76051033D01*
X27052104Y-76992213D01*
X26990781Y-77025698D01*
X26921089Y-77020714D01*
X26916980Y-77019097D01*
X26846420Y-76989870D01*
X26846412Y-76989868D01*
X26676248Y-76956020D01*
X26614337Y-76923635D01*
X26579763Y-76862919D01*
X26583502Y-76793150D01*
X26612756Y-76746724D01*
X28623863Y-74735619D01*
X28685186Y-74702134D01*
X28711544Y-74699300D01*
X50046542Y-74699300D01*
X50046544Y-74699300D01*
X50135688Y-74675414D01*
X50178840Y-74650500D01*
X50215612Y-74629270D01*
X52027863Y-72817019D01*
X52089186Y-72783534D01*
X52115544Y-72780700D01*
X54742448Y-72780700D01*
X54809487Y-72800385D01*
X54855242Y-72853189D01*
X54865186Y-72922347D01*
X54836161Y-72985903D01*
X54777383Y-73023677D01*
X54766640Y-73026317D01*
X54708170Y-73037947D01*
X54708160Y-73037950D01*
X54526092Y-73113364D01*
X54526079Y-73113371D01*
X54362218Y-73222860D01*
X54362214Y-73222863D01*
X54222863Y-73362214D01*
X54222860Y-73362218D01*
X54113371Y-73526079D01*
X54113364Y-73526092D01*
X54037950Y-73708160D01*
X54037947Y-73708170D01*
X53999500Y-73901456D01*
X53999500Y-73901459D01*
X53999500Y-74098541D01*
X53999500Y-74098543D01*
X53999499Y-74098543D01*
X54037947Y-74291829D01*
X54037950Y-74291839D01*
X54113364Y-74473907D01*
X54113371Y-74473920D01*
X54222860Y-74637781D01*
X54222863Y-74637785D01*
X54362214Y-74777136D01*
X54362218Y-74777139D01*
X54526079Y-74886628D01*
X54526092Y-74886635D01*
X54708160Y-74962049D01*
X54708165Y-74962051D01*
X54708169Y-74962051D01*
X54708170Y-74962052D01*
X54901456Y-75000500D01*
X54901459Y-75000500D01*
X55098543Y-75000500D01*
X55228582Y-74974632D01*
X55291835Y-74962051D01*
X55473914Y-74886632D01*
X55637782Y-74777139D01*
X55777139Y-74637782D01*
X55886632Y-74473914D01*
X55962051Y-74291835D01*
X56000500Y-74098541D01*
X56000500Y-73901459D01*
X56000500Y-73901456D01*
X55962052Y-73708170D01*
X55962051Y-73708169D01*
X55962051Y-73708165D01*
X55940051Y-73655051D01*
X55886635Y-73526092D01*
X55886628Y-73526079D01*
X55777139Y-73362218D01*
X55777136Y-73362214D01*
X55637785Y-73222863D01*
X55637781Y-73222860D01*
X55473920Y-73113371D01*
X55473907Y-73113364D01*
X55291839Y-73037950D01*
X55291829Y-73037947D01*
X55233360Y-73026317D01*
X55171449Y-72993932D01*
X55136875Y-72933216D01*
X55140615Y-72863447D01*
X55181482Y-72806775D01*
X55246500Y-72781193D01*
X55257552Y-72780700D01*
X57282448Y-72780700D01*
X57349487Y-72800385D01*
X57395242Y-72853189D01*
X57405186Y-72922347D01*
X57376161Y-72985903D01*
X57317383Y-73023677D01*
X57306640Y-73026317D01*
X57248170Y-73037947D01*
X57248160Y-73037950D01*
X57066092Y-73113364D01*
X57066079Y-73113371D01*
X56902218Y-73222860D01*
X56902214Y-73222863D01*
X56762863Y-73362214D01*
X56762860Y-73362218D01*
X56653371Y-73526079D01*
X56653364Y-73526092D01*
X56577950Y-73708160D01*
X56577947Y-73708170D01*
X56539500Y-73901456D01*
X56539500Y-73901459D01*
X56539500Y-74098541D01*
X56539500Y-74098543D01*
X56539499Y-74098543D01*
X56577947Y-74291829D01*
X56577950Y-74291839D01*
X56653364Y-74473907D01*
X56653371Y-74473920D01*
X56762860Y-74637781D01*
X56762863Y-74637785D01*
X56902214Y-74777136D01*
X56902218Y-74777139D01*
X57066079Y-74886628D01*
X57066092Y-74886635D01*
X57248160Y-74962049D01*
X57248165Y-74962051D01*
X57248169Y-74962051D01*
X57248170Y-74962052D01*
X57441456Y-75000500D01*
X57441459Y-75000500D01*
X57638543Y-75000500D01*
X57768582Y-74974632D01*
X57831835Y-74962051D01*
X58013914Y-74886632D01*
X58177782Y-74777139D01*
X58317139Y-74637782D01*
X58426632Y-74473914D01*
X58502051Y-74291835D01*
X58540500Y-74098541D01*
X58540500Y-73901459D01*
X58540500Y-73901456D01*
X58502052Y-73708170D01*
X58502051Y-73708169D01*
X58502051Y-73708165D01*
X58480051Y-73655051D01*
X58426635Y-73526092D01*
X58426628Y-73526079D01*
X58317139Y-73362218D01*
X58317136Y-73362214D01*
X58177785Y-73222863D01*
X58177781Y-73222860D01*
X58013920Y-73113371D01*
X58013907Y-73113364D01*
X57831839Y-73037950D01*
X57831829Y-73037947D01*
X57773360Y-73026317D01*
X57711449Y-72993932D01*
X57676875Y-72933216D01*
X57680615Y-72863447D01*
X57721482Y-72806775D01*
X57786500Y-72781193D01*
X57797552Y-72780700D01*
X62615942Y-72780700D01*
X62615944Y-72780700D01*
X62705088Y-72756814D01*
X62785012Y-72710670D01*
X66649050Y-68846630D01*
X66710371Y-68813147D01*
X66780063Y-68818131D01*
X66793019Y-68823825D01*
X66837779Y-68846632D01*
X66924003Y-68890566D01*
X66924005Y-68890566D01*
X66924008Y-68890568D01*
X67044412Y-68929689D01*
X67148631Y-68963553D01*
X67381903Y-69000500D01*
X67381908Y-69000500D01*
X67618097Y-69000500D01*
X67851368Y-68963553D01*
X67855997Y-68962049D01*
X68075992Y-68890568D01*
X68286433Y-68783343D01*
X68477510Y-68644517D01*
X68644517Y-68477510D01*
X68783343Y-68286433D01*
X68890568Y-68075992D01*
X68963553Y-67851368D01*
X68968752Y-67818541D01*
X69000500Y-67618097D01*
X69000500Y-67381902D01*
X68963553Y-67148631D01*
X68925596Y-67031812D01*
X68890568Y-66924008D01*
X68890566Y-66924005D01*
X68890566Y-66924003D01*
X68805957Y-66757950D01*
X68783343Y-66713567D01*
X68644517Y-66522490D01*
X68477510Y-66355483D01*
X68286433Y-66216657D01*
X68075996Y-66109433D01*
X67851368Y-66036446D01*
X67618097Y-65999500D01*
X67618092Y-65999500D01*
X67381908Y-65999500D01*
X67381903Y-65999500D01*
X67148631Y-66036446D01*
X66924003Y-66109433D01*
X66713566Y-66216657D01*
X66627565Y-66279141D01*
X66522490Y-66355483D01*
X66522488Y-66355485D01*
X66522487Y-66355485D01*
X66355485Y-66522487D01*
X66355485Y-66522488D01*
X66355483Y-66522490D01*
X66346745Y-66534517D01*
X66216657Y-66713566D01*
X66109433Y-66924003D01*
X66036446Y-67148631D01*
X65999500Y-67381902D01*
X65999500Y-67618097D01*
X66036446Y-67851368D01*
X66109435Y-68076001D01*
X66176170Y-68206973D01*
X66189067Y-68275642D01*
X66162791Y-68340382D01*
X66153367Y-68350949D01*
X62460937Y-72043381D01*
X62399614Y-72076866D01*
X62373256Y-72079700D01*
X51872856Y-72079700D01*
X51783712Y-72103586D01*
X51783709Y-72103587D01*
X51703791Y-72149727D01*
X51703786Y-72149731D01*
X49891537Y-73961981D01*
X49830214Y-73995466D01*
X49803856Y-73998300D01*
X28468856Y-73998300D01*
X28379711Y-74022186D01*
X28299787Y-74068331D01*
X28299784Y-74068333D01*
X25245506Y-77122611D01*
X25184183Y-77156096D01*
X25114491Y-77151112D01*
X25058558Y-77109240D01*
X25043265Y-77082385D01*
X25038867Y-77071769D01*
X24994552Y-77005447D01*
X24928230Y-76961132D01*
X24928229Y-76961131D01*
X24869752Y-76949500D01*
X24869748Y-76949500D01*
X23130252Y-76949500D01*
X23130247Y-76949500D01*
X23071770Y-76961131D01*
X23071769Y-76961132D01*
X23005447Y-77005447D01*
X22961132Y-77071769D01*
X22961131Y-77071770D01*
X22949500Y-77130247D01*
X20500500Y-77130247D01*
X20500500Y-70358543D01*
X22099499Y-70358543D01*
X22137947Y-70551829D01*
X22137950Y-70551839D01*
X22213364Y-70733907D01*
X22213371Y-70733920D01*
X22322860Y-70897781D01*
X22322863Y-70897785D01*
X22462214Y-71037136D01*
X22462218Y-71037139D01*
X22626079Y-71146628D01*
X22626092Y-71146635D01*
X22808160Y-71222049D01*
X22808165Y-71222051D01*
X22808169Y-71222051D01*
X22808170Y-71222052D01*
X23001456Y-71260500D01*
X23001459Y-71260500D01*
X23198543Y-71260500D01*
X23328582Y-71234632D01*
X23391835Y-71222051D01*
X23573914Y-71146632D01*
X23737782Y-71037139D01*
X23877139Y-70897782D01*
X23986632Y-70733914D01*
X24062051Y-70551835D01*
X24100500Y-70358541D01*
X24100500Y-70161459D01*
X24100500Y-70161456D01*
X24062052Y-69968170D01*
X24062051Y-69968169D01*
X24062051Y-69968165D01*
X24062049Y-69968160D01*
X23986635Y-69786092D01*
X23986628Y-69786079D01*
X23877139Y-69622218D01*
X23877136Y-69622214D01*
X23737785Y-69482863D01*
X23737781Y-69482860D01*
X23573920Y-69373371D01*
X23573907Y-69373364D01*
X23391839Y-69297950D01*
X23391829Y-69297947D01*
X23198543Y-69259500D01*
X23198541Y-69259500D01*
X23001459Y-69259500D01*
X23001457Y-69259500D01*
X22808170Y-69297947D01*
X22808160Y-69297950D01*
X22626092Y-69373364D01*
X22626079Y-69373371D01*
X22462218Y-69482860D01*
X22462214Y-69482863D01*
X22322863Y-69622214D01*
X22322860Y-69622218D01*
X22213371Y-69786079D01*
X22213364Y-69786092D01*
X22137950Y-69968160D01*
X22137947Y-69968170D01*
X22099500Y-70161456D01*
X22099500Y-70161459D01*
X22099500Y-70358541D01*
X22099500Y-70358543D01*
X22099499Y-70358543D01*
X20500500Y-70358543D01*
X20500500Y-67818543D01*
X22099499Y-67818543D01*
X22137947Y-68011829D01*
X22137950Y-68011839D01*
X22213364Y-68193907D01*
X22213371Y-68193920D01*
X22322860Y-68357781D01*
X22322863Y-68357785D01*
X22462214Y-68497136D01*
X22462218Y-68497139D01*
X22626079Y-68606628D01*
X22626092Y-68606635D01*
X22808160Y-68682049D01*
X22808165Y-68682051D01*
X22808169Y-68682051D01*
X22808170Y-68682052D01*
X23001456Y-68720500D01*
X23001459Y-68720500D01*
X23198543Y-68720500D01*
X23328582Y-68694632D01*
X23391835Y-68682051D01*
X23573914Y-68606632D01*
X23737782Y-68497139D01*
X23877139Y-68357782D01*
X23986632Y-68193914D01*
X24002218Y-68156287D01*
X24028579Y-68092645D01*
X24062051Y-68011835D01*
X24074632Y-67948582D01*
X24100500Y-67818543D01*
X24100500Y-67621456D01*
X24070352Y-67469895D01*
X24890000Y-67469895D01*
X29542057Y-71082663D01*
X29582931Y-71139327D01*
X29590000Y-71180597D01*
X29590000Y-72130000D01*
X34390000Y-72130000D01*
X34390000Y-71180597D01*
X34409685Y-71113558D01*
X34437941Y-71082664D01*
X39090000Y-67469895D01*
X39090000Y-64540220D01*
X39775000Y-64540220D01*
X39775000Y-65819767D01*
X39775081Y-65826826D01*
X39798216Y-65936500D01*
X39798216Y-65936502D01*
X39810645Y-65966509D01*
X39810647Y-65966510D01*
X40411980Y-65365176D01*
X40414075Y-65372993D01*
X40479901Y-65487007D01*
X40572993Y-65580099D01*
X40687007Y-65645925D01*
X40694823Y-65648019D01*
X40093489Y-66249353D01*
X40123462Y-66261768D01*
X40130035Y-66264402D01*
X40240220Y-66285000D01*
X40958791Y-66285000D01*
X41018281Y-66279141D01*
X41018285Y-66279141D01*
X41172848Y-66248398D01*
X41230072Y-66231039D01*
X41375661Y-66170733D01*
X41428387Y-66142550D01*
X41428397Y-66142544D01*
X41507108Y-66089951D01*
X41065176Y-65648019D01*
X41072993Y-65645925D01*
X41187007Y-65580099D01*
X41280099Y-65487007D01*
X41345925Y-65372993D01*
X41348019Y-65365176D01*
X41789951Y-65807108D01*
X41842544Y-65728397D01*
X41842550Y-65728387D01*
X41870733Y-65675661D01*
X41931039Y-65530072D01*
X41948398Y-65472848D01*
X41979141Y-65318285D01*
X41979141Y-65318281D01*
X41985000Y-65258791D01*
X41985000Y-65101208D01*
X41979141Y-65041718D01*
X41979141Y-65041714D01*
X41948398Y-64887151D01*
X41931039Y-64829927D01*
X41870733Y-64684338D01*
X41842550Y-64631612D01*
X41842544Y-64631602D01*
X41789951Y-64552890D01*
X41348019Y-64994822D01*
X41345925Y-64987007D01*
X41280099Y-64872993D01*
X41187007Y-64779901D01*
X41072993Y-64714075D01*
X41065176Y-64711980D01*
X41507107Y-64270048D01*
X41428397Y-64217455D01*
X41428387Y-64217449D01*
X41375661Y-64189266D01*
X41230072Y-64128960D01*
X41172848Y-64111601D01*
X41018283Y-64080858D01*
X40958791Y-64075000D01*
X40240232Y-64075000D01*
X40233173Y-64075081D01*
X40123500Y-64098216D01*
X40093488Y-64110645D01*
X40093488Y-64110646D01*
X40694823Y-64711980D01*
X40687007Y-64714075D01*
X40572993Y-64779901D01*
X40479901Y-64872993D01*
X40414075Y-64987007D01*
X40411980Y-64994822D01*
X39810646Y-64393488D01*
X39810645Y-64393488D01*
X39798226Y-64423474D01*
X39795597Y-64430035D01*
X39795597Y-64430036D01*
X39775000Y-64540220D01*
X39090000Y-64540220D01*
X39090000Y-63130000D01*
X24890000Y-63130000D01*
X24890000Y-67469895D01*
X24070352Y-67469895D01*
X24062052Y-67428170D01*
X24062051Y-67428169D01*
X24062051Y-67428165D01*
X24042891Y-67381908D01*
X23986635Y-67246092D01*
X23986628Y-67246079D01*
X23877139Y-67082218D01*
X23877136Y-67082214D01*
X23737785Y-66942863D01*
X23737781Y-66942860D01*
X23573920Y-66833371D01*
X23573907Y-66833364D01*
X23391839Y-66757950D01*
X23391829Y-66757947D01*
X23198543Y-66719500D01*
X23198541Y-66719500D01*
X23001459Y-66719500D01*
X23001457Y-66719500D01*
X22808170Y-66757947D01*
X22808160Y-66757950D01*
X22626092Y-66833364D01*
X22626079Y-66833371D01*
X22462218Y-66942860D01*
X22462214Y-66942863D01*
X22322863Y-67082214D01*
X22322860Y-67082218D01*
X22213371Y-67246079D01*
X22213364Y-67246092D01*
X22137950Y-67428160D01*
X22137947Y-67428170D01*
X22099500Y-67621456D01*
X22099500Y-67621459D01*
X22099500Y-67818541D01*
X22099500Y-67818543D01*
X22099499Y-67818543D01*
X20500500Y-67818543D01*
X20500500Y-65101208D01*
X21995000Y-65101208D01*
X21995000Y-65258791D01*
X22000858Y-65318281D01*
X22000858Y-65318285D01*
X22031601Y-65472848D01*
X22048960Y-65530072D01*
X22109266Y-65675661D01*
X22137449Y-65728387D01*
X22137455Y-65728397D01*
X22190048Y-65807107D01*
X22631980Y-65365176D01*
X22634075Y-65372993D01*
X22699901Y-65487007D01*
X22792993Y-65580099D01*
X22907007Y-65645925D01*
X22914823Y-65648019D01*
X22472890Y-66089951D01*
X22551602Y-66142544D01*
X22551612Y-66142550D01*
X22604338Y-66170733D01*
X22749927Y-66231039D01*
X22807151Y-66248398D01*
X22961716Y-66279141D01*
X23021209Y-66285000D01*
X23739768Y-66285000D01*
X23746826Y-66284918D01*
X23856497Y-66261784D01*
X23886510Y-66249352D01*
X23285177Y-65648019D01*
X23292993Y-65645925D01*
X23407007Y-65580099D01*
X23500099Y-65487007D01*
X23565925Y-65372993D01*
X23568019Y-65365177D01*
X24169352Y-65966510D01*
X24181781Y-65936505D01*
X24184402Y-65929963D01*
X24205000Y-65819779D01*
X24205000Y-64540232D01*
X24204918Y-64533173D01*
X24181785Y-64423504D01*
X24169352Y-64393489D01*
X23568019Y-64994822D01*
X23565925Y-64987007D01*
X23500099Y-64872993D01*
X23407007Y-64779901D01*
X23292993Y-64714075D01*
X23285177Y-64711980D01*
X23886510Y-64110647D01*
X23886509Y-64110645D01*
X23856524Y-64098226D01*
X23849967Y-64095598D01*
X23849963Y-64095597D01*
X23739780Y-64075000D01*
X23021209Y-64075000D01*
X22961718Y-64080858D01*
X22961714Y-64080858D01*
X22807151Y-64111601D01*
X22749927Y-64128960D01*
X22604338Y-64189266D01*
X22551607Y-64217452D01*
X22472891Y-64270048D01*
X22472890Y-64270048D01*
X22914823Y-64711980D01*
X22907007Y-64714075D01*
X22792993Y-64779901D01*
X22699901Y-64872993D01*
X22634075Y-64987007D01*
X22631980Y-64994822D01*
X22190048Y-64552890D01*
X22190048Y-64552891D01*
X22137452Y-64631607D01*
X22109266Y-64684338D01*
X22048960Y-64829927D01*
X22031601Y-64887151D01*
X22000858Y-65041714D01*
X22000858Y-65041718D01*
X21995000Y-65101208D01*
X20500500Y-65101208D01*
X20500500Y-62738543D01*
X22099499Y-62738543D01*
X22137947Y-62931829D01*
X22137950Y-62931839D01*
X22213364Y-63113907D01*
X22213371Y-63113920D01*
X22322860Y-63277781D01*
X22322863Y-63277785D01*
X22462214Y-63417136D01*
X22462218Y-63417139D01*
X22626079Y-63526628D01*
X22626092Y-63526635D01*
X22808160Y-63602049D01*
X22808165Y-63602051D01*
X22808169Y-63602051D01*
X22808170Y-63602052D01*
X23001456Y-63640500D01*
X23001459Y-63640500D01*
X23198543Y-63640500D01*
X23328582Y-63614632D01*
X23391835Y-63602051D01*
X23573914Y-63526632D01*
X23737782Y-63417139D01*
X23877139Y-63277782D01*
X23986632Y-63113914D01*
X24006869Y-63065058D01*
X24020899Y-63031186D01*
X24049535Y-62962051D01*
X24062051Y-62931835D01*
X24085045Y-62816239D01*
X24100500Y-62738543D01*
X39879499Y-62738543D01*
X39917947Y-62931829D01*
X39917950Y-62931839D01*
X39993364Y-63113907D01*
X39993371Y-63113920D01*
X40102860Y-63277781D01*
X40102863Y-63277785D01*
X40242214Y-63417136D01*
X40242218Y-63417139D01*
X40406079Y-63526628D01*
X40406092Y-63526635D01*
X40588160Y-63602049D01*
X40588165Y-63602051D01*
X40588169Y-63602051D01*
X40588170Y-63602052D01*
X40781456Y-63640500D01*
X40781459Y-63640500D01*
X40978543Y-63640500D01*
X41108582Y-63614632D01*
X41171835Y-63602051D01*
X41353914Y-63526632D01*
X41517782Y-63417139D01*
X41657139Y-63277782D01*
X41766632Y-63113914D01*
X41786044Y-63067046D01*
X41829884Y-63012645D01*
X41896178Y-62990579D01*
X41900605Y-62990500D01*
X49186456Y-62990500D01*
X49253495Y-63010185D01*
X49274137Y-63026819D01*
X53208881Y-66961563D01*
X53219543Y-66981089D01*
X53234084Y-66997930D01*
X53237598Y-67014155D01*
X53242366Y-67022886D01*
X53243969Y-67031812D01*
X53245200Y-67040481D01*
X53245200Y-67125175D01*
X53270782Y-67220649D01*
X53271836Y-67228068D01*
X53267839Y-67255523D01*
X53267179Y-67283256D01*
X53262876Y-67289612D01*
X53261771Y-67297209D01*
X53243563Y-67318147D01*
X53228016Y-67341119D01*
X53220961Y-67344139D01*
X53215924Y-67349933D01*
X53189287Y-67357703D01*
X53163788Y-67368623D01*
X53149067Y-67369500D01*
X41900605Y-67369500D01*
X41833566Y-67349815D01*
X41787811Y-67297011D01*
X41786060Y-67292990D01*
X41766632Y-67246086D01*
X41706032Y-67155391D01*
X41657139Y-67082217D01*
X41517785Y-66942863D01*
X41517781Y-66942860D01*
X41353920Y-66833371D01*
X41353907Y-66833364D01*
X41171839Y-66757950D01*
X41171829Y-66757947D01*
X40978543Y-66719500D01*
X40978541Y-66719500D01*
X40781459Y-66719500D01*
X40781457Y-66719500D01*
X40588170Y-66757947D01*
X40588160Y-66757950D01*
X40406092Y-66833364D01*
X40406079Y-66833371D01*
X40242218Y-66942860D01*
X40242214Y-66942863D01*
X40102863Y-67082214D01*
X40102860Y-67082218D01*
X39993371Y-67246079D01*
X39993364Y-67246092D01*
X39917950Y-67428160D01*
X39917947Y-67428170D01*
X39879500Y-67621456D01*
X39879500Y-67621459D01*
X39879500Y-67818541D01*
X39879500Y-67818543D01*
X39879499Y-67818543D01*
X39917947Y-68011829D01*
X39917950Y-68011839D01*
X39993364Y-68193907D01*
X39993371Y-68193920D01*
X40102860Y-68357781D01*
X40102863Y-68357785D01*
X40242214Y-68497136D01*
X40242218Y-68497139D01*
X40406079Y-68606628D01*
X40406092Y-68606635D01*
X40588160Y-68682049D01*
X40588165Y-68682051D01*
X40588169Y-68682051D01*
X40588170Y-68682052D01*
X40781456Y-68720500D01*
X40781459Y-68720500D01*
X40978543Y-68720500D01*
X41108582Y-68694632D01*
X41171835Y-68682051D01*
X41353914Y-68606632D01*
X41517782Y-68497139D01*
X41657139Y-68357782D01*
X41766632Y-68193914D01*
X41786044Y-68147046D01*
X41829884Y-68092645D01*
X41896178Y-68070579D01*
X41900605Y-68070500D01*
X53892158Y-68070500D01*
X53959197Y-68090185D01*
X54004952Y-68142989D01*
X54013775Y-68170308D01*
X54037947Y-68291829D01*
X54037950Y-68291839D01*
X54113364Y-68473907D01*
X54113371Y-68473920D01*
X54222860Y-68637781D01*
X54222863Y-68637785D01*
X54362214Y-68777136D01*
X54362218Y-68777139D01*
X54526079Y-68886628D01*
X54526092Y-68886635D01*
X54630284Y-68929792D01*
X54708165Y-68962051D01*
X54784304Y-68977196D01*
X54845549Y-68989379D01*
X54907460Y-69021764D01*
X54942034Y-69082480D01*
X54938295Y-69152249D01*
X54909039Y-69198677D01*
X54234537Y-69873181D01*
X54173214Y-69906666D01*
X54146856Y-69909500D01*
X41900605Y-69909500D01*
X41833566Y-69889815D01*
X41787811Y-69837011D01*
X41786060Y-69832990D01*
X41766632Y-69786086D01*
X41766627Y-69786079D01*
X41657139Y-69622217D01*
X41517785Y-69482863D01*
X41517781Y-69482860D01*
X41353920Y-69373371D01*
X41353907Y-69373364D01*
X41171839Y-69297950D01*
X41171829Y-69297947D01*
X40978543Y-69259500D01*
X40978541Y-69259500D01*
X40781459Y-69259500D01*
X40781457Y-69259500D01*
X40588170Y-69297947D01*
X40588160Y-69297950D01*
X40406092Y-69373364D01*
X40406079Y-69373371D01*
X40242218Y-69482860D01*
X40242214Y-69482863D01*
X40102863Y-69622214D01*
X40102860Y-69622218D01*
X39993371Y-69786079D01*
X39993364Y-69786092D01*
X39917950Y-69968160D01*
X39917947Y-69968170D01*
X39879500Y-70161456D01*
X39879500Y-70161459D01*
X39879500Y-70358541D01*
X39879500Y-70358543D01*
X39879499Y-70358543D01*
X39917947Y-70551829D01*
X39917950Y-70551839D01*
X39993364Y-70733907D01*
X39993371Y-70733920D01*
X40102860Y-70897781D01*
X40102863Y-70897785D01*
X40242214Y-71037136D01*
X40242218Y-71037139D01*
X40406079Y-71146628D01*
X40406092Y-71146635D01*
X40588160Y-71222049D01*
X40588165Y-71222051D01*
X40588169Y-71222051D01*
X40588170Y-71222052D01*
X40781456Y-71260500D01*
X40781459Y-71260500D01*
X40978543Y-71260500D01*
X41108582Y-71234632D01*
X41171835Y-71222051D01*
X41353914Y-71146632D01*
X41517782Y-71037139D01*
X41657139Y-70897782D01*
X41766632Y-70733914D01*
X41786044Y-70687046D01*
X41829884Y-70632645D01*
X41896178Y-70610579D01*
X41900605Y-70610500D01*
X54389542Y-70610500D01*
X54389544Y-70610500D01*
X54478688Y-70586614D01*
X54558612Y-70540470D01*
X56391670Y-68707412D01*
X56437814Y-68627488D01*
X56443402Y-68606632D01*
X56458052Y-68551954D01*
X56480854Y-68514548D01*
X56494415Y-68492299D01*
X56494417Y-68492297D01*
X56521196Y-68479289D01*
X56557261Y-68461769D01*
X56557264Y-68461769D01*
X56579488Y-68464426D01*
X56626637Y-68470063D01*
X56626638Y-68470063D01*
X56626639Y-68470064D01*
X56680517Y-68514550D01*
X56680517Y-68514551D01*
X56680928Y-68515161D01*
X56762860Y-68637781D01*
X56762863Y-68637785D01*
X56902214Y-68777136D01*
X56902218Y-68777139D01*
X57066079Y-68886628D01*
X57066092Y-68886635D01*
X57170284Y-68929792D01*
X57248165Y-68962051D01*
X57248169Y-68962051D01*
X57248170Y-68962052D01*
X57441456Y-69000500D01*
X57441459Y-69000500D01*
X57638543Y-69000500D01*
X57768582Y-68974632D01*
X57831835Y-68962051D01*
X58004412Y-68890568D01*
X58013907Y-68886635D01*
X58013907Y-68886634D01*
X58013914Y-68886632D01*
X58177782Y-68777139D01*
X58317139Y-68637782D01*
X58426632Y-68473914D01*
X58502051Y-68291835D01*
X58526158Y-68170644D01*
X58540500Y-68098543D01*
X58540500Y-67901456D01*
X58502052Y-67708170D01*
X58502051Y-67708169D01*
X58502051Y-67708165D01*
X58502049Y-67708160D01*
X58426635Y-67526092D01*
X58426628Y-67526079D01*
X58317139Y-67362218D01*
X58317136Y-67362214D01*
X58177785Y-67222863D01*
X58177781Y-67222860D01*
X58013920Y-67113371D01*
X58013907Y-67113364D01*
X57831839Y-67037950D01*
X57831829Y-67037947D01*
X57638543Y-66999500D01*
X57638541Y-66999500D01*
X57441459Y-66999500D01*
X57441457Y-66999500D01*
X57248170Y-67037947D01*
X57248160Y-67037950D01*
X57066092Y-67113364D01*
X57066079Y-67113371D01*
X56902218Y-67222860D01*
X56902214Y-67222863D01*
X56762863Y-67362214D01*
X56762860Y-67362218D01*
X56688802Y-67473054D01*
X56635190Y-67517859D01*
X56565865Y-67526566D01*
X56502837Y-67496411D01*
X56466118Y-67436968D01*
X56461700Y-67404163D01*
X56461700Y-63065058D01*
X56461700Y-63065056D01*
X56437814Y-62975912D01*
X56409313Y-62926547D01*
X56391670Y-62895988D01*
X55969517Y-62473835D01*
X55936032Y-62412512D01*
X55941016Y-62342820D01*
X55942615Y-62338757D01*
X55962051Y-62291835D01*
X55987064Y-62166087D01*
X56000500Y-62098543D01*
X56539499Y-62098543D01*
X56577947Y-62291829D01*
X56577950Y-62291839D01*
X56653364Y-62473907D01*
X56653371Y-62473920D01*
X56762860Y-62637781D01*
X56762863Y-62637785D01*
X56902214Y-62777136D01*
X56902218Y-62777139D01*
X57066079Y-62886628D01*
X57066092Y-62886635D01*
X57248160Y-62962049D01*
X57248165Y-62962051D01*
X57248169Y-62962051D01*
X57248170Y-62962052D01*
X57441456Y-63000500D01*
X57441459Y-63000500D01*
X57638543Y-63000500D01*
X57809765Y-62966441D01*
X57831835Y-62962051D01*
X57972655Y-62903721D01*
X58013907Y-62886635D01*
X58013907Y-62886634D01*
X58013914Y-62886632D01*
X58177782Y-62777139D01*
X58317139Y-62637782D01*
X58426632Y-62473914D01*
X58459852Y-62393713D01*
X65599500Y-62393713D01*
X65599500Y-62606287D01*
X65632754Y-62816243D01*
X65696569Y-63012645D01*
X65698444Y-63018414D01*
X65794951Y-63207820D01*
X65919890Y-63379786D01*
X66070213Y-63530109D01*
X66242179Y-63655048D01*
X66242181Y-63655049D01*
X66242184Y-63655051D01*
X66431588Y-63751557D01*
X66633757Y-63817246D01*
X66843713Y-63850500D01*
X67025500Y-63850500D01*
X67092539Y-63870185D01*
X67138294Y-63922989D01*
X67149500Y-63974500D01*
X67149500Y-63997844D01*
X67171743Y-64080858D01*
X67173387Y-64086990D01*
X67173388Y-64086993D01*
X67219526Y-64166905D01*
X67219529Y-64166909D01*
X67219531Y-64166912D01*
X67284788Y-64232169D01*
X67284791Y-64232170D01*
X67284794Y-64232173D01*
X67364706Y-64278311D01*
X67364707Y-64278311D01*
X67364712Y-64278314D01*
X67453856Y-64302200D01*
X67546144Y-64302200D01*
X67939956Y-64302200D01*
X68006995Y-64321885D01*
X68027637Y-64338519D01*
X70783186Y-67094068D01*
X70816671Y-67155391D01*
X70811687Y-67225083D01*
X70783186Y-67269430D01*
X67219532Y-70833084D01*
X67219530Y-70833088D01*
X67213836Y-70842951D01*
X67193611Y-70877981D01*
X67173386Y-70913011D01*
X67149500Y-71002156D01*
X67149500Y-71025500D01*
X67129815Y-71092539D01*
X67077011Y-71138294D01*
X67025500Y-71149500D01*
X66843713Y-71149500D01*
X66829356Y-71151774D01*
X66633760Y-71182753D01*
X66431585Y-71248444D01*
X66242179Y-71344951D01*
X66070213Y-71469890D01*
X65919890Y-71620213D01*
X65794951Y-71792179D01*
X65698444Y-71981585D01*
X65632753Y-72183760D01*
X65599500Y-72393713D01*
X65599500Y-72606286D01*
X65627202Y-72781193D01*
X65632754Y-72816243D01*
X65667229Y-72922347D01*
X65698444Y-73018414D01*
X65794951Y-73207820D01*
X65919890Y-73379786D01*
X66070213Y-73530109D01*
X66242179Y-73655048D01*
X66242181Y-73655049D01*
X66242184Y-73655051D01*
X66431588Y-73751557D01*
X66633757Y-73817246D01*
X66843713Y-73850500D01*
X66843714Y-73850500D01*
X68156286Y-73850500D01*
X68156287Y-73850500D01*
X68366243Y-73817246D01*
X68568412Y-73751557D01*
X68757816Y-73655051D01*
X68779789Y-73639086D01*
X68929786Y-73530109D01*
X68929788Y-73530106D01*
X68929792Y-73530104D01*
X69080104Y-73379792D01*
X69080106Y-73379788D01*
X69080109Y-73379786D01*
X69205048Y-73207820D01*
X69205047Y-73207820D01*
X69205051Y-73207816D01*
X69301557Y-73018412D01*
X69367246Y-72816243D01*
X69400500Y-72606287D01*
X69400500Y-72393713D01*
X69367246Y-72183757D01*
X69301557Y-71981588D01*
X69205051Y-71792184D01*
X69205049Y-71792181D01*
X69205048Y-71792179D01*
X69080109Y-71620213D01*
X68929786Y-71469890D01*
X68757820Y-71344951D01*
X68568414Y-71248444D01*
X68568413Y-71248443D01*
X68568412Y-71248443D01*
X68366243Y-71182754D01*
X68366241Y-71182753D01*
X68366239Y-71182753D01*
X68170644Y-71151774D01*
X68107509Y-71121845D01*
X68070578Y-71062533D01*
X68071576Y-70992671D01*
X68102359Y-70941622D01*
X70941622Y-68102359D01*
X71002943Y-68068876D01*
X71072635Y-68073860D01*
X71128568Y-68115732D01*
X71151774Y-68170644D01*
X71181413Y-68357781D01*
X71182754Y-68366243D01*
X71238673Y-68538344D01*
X71248444Y-68568414D01*
X71344951Y-68757820D01*
X71469890Y-68929786D01*
X71620213Y-69080109D01*
X71792179Y-69205048D01*
X71792181Y-69205049D01*
X71792184Y-69205051D01*
X71981588Y-69301557D01*
X72183757Y-69367246D01*
X72393713Y-69400500D01*
X72393714Y-69400500D01*
X72606286Y-69400500D01*
X72606287Y-69400500D01*
X72816243Y-69367246D01*
X73018412Y-69301557D01*
X73207816Y-69205051D01*
X73229789Y-69189086D01*
X73379786Y-69080109D01*
X73379788Y-69080106D01*
X73379792Y-69080104D01*
X73530104Y-68929792D01*
X73530106Y-68929788D01*
X73530109Y-68929786D01*
X73655048Y-68757820D01*
X73655047Y-68757820D01*
X73655051Y-68757816D01*
X73751557Y-68568412D01*
X73817246Y-68366243D01*
X73850500Y-68156287D01*
X73850500Y-66843713D01*
X73817246Y-66633757D01*
X73751557Y-66431588D01*
X73655051Y-66242184D01*
X73655049Y-66242181D01*
X73655048Y-66242179D01*
X73530109Y-66070213D01*
X73379786Y-65919890D01*
X73207820Y-65794951D01*
X73018414Y-65698444D01*
X73018413Y-65698443D01*
X73018412Y-65698443D01*
X72816243Y-65632754D01*
X72816241Y-65632753D01*
X72816240Y-65632753D01*
X72654957Y-65607208D01*
X72606287Y-65599500D01*
X72393713Y-65599500D01*
X72345042Y-65607208D01*
X72183760Y-65632753D01*
X71981585Y-65698444D01*
X71792179Y-65794951D01*
X71620213Y-65919890D01*
X71469890Y-66070213D01*
X71344948Y-66242184D01*
X71344947Y-66242185D01*
X71279893Y-66369860D01*
X71231919Y-66420656D01*
X71164098Y-66437451D01*
X71097963Y-66414913D01*
X71081728Y-66401246D01*
X68598753Y-63918271D01*
X68565268Y-63856948D01*
X68570252Y-63787256D01*
X68612124Y-63731323D01*
X68630140Y-63720105D01*
X68757816Y-63655051D01*
X68809255Y-63617678D01*
X68929786Y-63530109D01*
X68929788Y-63530106D01*
X68929792Y-63530104D01*
X69080104Y-63379792D01*
X69080106Y-63379788D01*
X69080109Y-63379786D01*
X69205048Y-63207820D01*
X69205047Y-63207820D01*
X69205051Y-63207816D01*
X69301557Y-63018412D01*
X69367246Y-62816243D01*
X69400500Y-62606287D01*
X69400500Y-62393713D01*
X69367246Y-62183757D01*
X69301557Y-61981588D01*
X69205051Y-61792184D01*
X69205049Y-61792181D01*
X69205048Y-61792179D01*
X69080109Y-61620213D01*
X68929786Y-61469890D01*
X68757820Y-61344951D01*
X68568414Y-61248444D01*
X68568413Y-61248443D01*
X68568412Y-61248443D01*
X68366243Y-61182754D01*
X68366241Y-61182753D01*
X68366240Y-61182753D01*
X68204957Y-61157208D01*
X68156287Y-61149500D01*
X66843713Y-61149500D01*
X66795042Y-61157208D01*
X66633760Y-61182753D01*
X66431585Y-61248444D01*
X66242179Y-61344951D01*
X66070213Y-61469890D01*
X65919890Y-61620213D01*
X65794951Y-61792179D01*
X65698444Y-61981585D01*
X65632753Y-62183760D01*
X65604914Y-62359530D01*
X65599500Y-62393713D01*
X58459852Y-62393713D01*
X58474011Y-62359530D01*
X58481526Y-62341388D01*
X58485725Y-62331249D01*
X58502051Y-62291835D01*
X58527064Y-62166087D01*
X58540500Y-62098543D01*
X58540500Y-61901456D01*
X58502052Y-61708170D01*
X58502051Y-61708169D01*
X58502051Y-61708165D01*
X58489535Y-61677949D01*
X58426635Y-61526092D01*
X58426628Y-61526079D01*
X58317139Y-61362218D01*
X58317136Y-61362214D01*
X58312982Y-61358060D01*
X58279497Y-61296737D01*
X58284481Y-61227045D01*
X58312980Y-61182700D01*
X63195680Y-56300000D01*
X65513603Y-56300000D01*
X66329288Y-56300000D01*
X66324979Y-56310402D01*
X66300000Y-56435981D01*
X66300000Y-56564019D01*
X66324979Y-56689598D01*
X66329288Y-56700000D01*
X65513603Y-56700000D01*
X65535704Y-56839544D01*
X65606230Y-57056604D01*
X65709849Y-57259966D01*
X65844004Y-57444614D01*
X66005385Y-57605995D01*
X66190033Y-57740150D01*
X66393395Y-57843769D01*
X66610455Y-57914295D01*
X66835884Y-57950000D01*
X67300000Y-57950000D01*
X67300000Y-57150000D01*
X67700000Y-57150000D01*
X67700000Y-57950000D01*
X68164116Y-57950000D01*
X68389544Y-57914295D01*
X68606604Y-57843769D01*
X68809966Y-57740150D01*
X68994614Y-57605995D01*
X69155995Y-57444614D01*
X69290150Y-57259966D01*
X69393769Y-57056604D01*
X69464295Y-56839544D01*
X69486397Y-56700000D01*
X68670712Y-56700000D01*
X68675021Y-56689598D01*
X68700000Y-56564019D01*
X68700000Y-56435981D01*
X68675021Y-56310402D01*
X68670712Y-56300000D01*
X69486397Y-56300000D01*
X69464295Y-56160455D01*
X69393769Y-55943395D01*
X69290150Y-55740033D01*
X69155995Y-55555385D01*
X68994614Y-55394004D01*
X68809966Y-55259849D01*
X68606604Y-55156230D01*
X68389544Y-55085704D01*
X68164116Y-55050000D01*
X67700000Y-55050000D01*
X67700000Y-55850000D01*
X67300000Y-55850000D01*
X67300000Y-55050000D01*
X66835884Y-55050000D01*
X66610455Y-55085704D01*
X66393395Y-55156230D01*
X66190033Y-55259849D01*
X66005385Y-55394004D01*
X65844004Y-55555385D01*
X65709849Y-55740033D01*
X65606230Y-55943395D01*
X65535704Y-56160455D01*
X65513603Y-56300000D01*
X63195680Y-56300000D01*
X66649050Y-52846630D01*
X66710371Y-52813147D01*
X66780063Y-52818131D01*
X66793019Y-52823825D01*
X66805278Y-52830072D01*
X66924003Y-52890566D01*
X66924005Y-52890566D01*
X66924008Y-52890568D01*
X67044412Y-52929689D01*
X67148631Y-52963553D01*
X67381903Y-53000500D01*
X67381908Y-53000500D01*
X67618097Y-53000500D01*
X67851368Y-52963553D01*
X67905621Y-52945925D01*
X68075992Y-52890568D01*
X68286433Y-52783343D01*
X68477510Y-52644517D01*
X68644517Y-52477510D01*
X68783343Y-52286433D01*
X68890568Y-52075992D01*
X68963553Y-51851368D01*
X68980596Y-51743764D01*
X68998735Y-51629240D01*
X68998735Y-51629239D01*
X69000500Y-51618096D01*
X69000500Y-51381902D01*
X68963553Y-51148631D01*
X68940977Y-51079151D01*
X68890568Y-50924008D01*
X68890565Y-50924004D01*
X68890565Y-50924001D01*
X68871868Y-50887307D01*
X68871867Y-50887306D01*
X68871192Y-50885981D01*
X68845666Y-50835883D01*
X71050000Y-50835883D01*
X71050000Y-51300000D01*
X71850000Y-51300000D01*
X71850000Y-51700000D01*
X71050000Y-51700000D01*
X71050000Y-52164116D01*
X71085704Y-52389544D01*
X71156230Y-52606604D01*
X71259849Y-52809966D01*
X71394004Y-52994614D01*
X71555385Y-53155995D01*
X71740033Y-53290150D01*
X71943395Y-53393769D01*
X72160455Y-53464295D01*
X72300000Y-53486397D01*
X72300000Y-52670712D01*
X72310402Y-52675021D01*
X72435981Y-52700000D01*
X72564019Y-52700000D01*
X72689598Y-52675021D01*
X72700000Y-52670712D01*
X72700000Y-53486396D01*
X72839544Y-53464295D01*
X73056604Y-53393769D01*
X73259966Y-53290150D01*
X73444614Y-53155995D01*
X73605995Y-52994614D01*
X73740150Y-52809966D01*
X73843769Y-52606604D01*
X73914295Y-52389544D01*
X73950000Y-52164116D01*
X73950000Y-51700000D01*
X73150000Y-51700000D01*
X73150000Y-51300000D01*
X73950000Y-51300000D01*
X73950000Y-50835883D01*
X73914295Y-50610455D01*
X73843769Y-50393395D01*
X73740150Y-50190033D01*
X73605995Y-50005385D01*
X73444614Y-49844004D01*
X73259966Y-49709849D01*
X73056604Y-49606230D01*
X72839545Y-49535704D01*
X72700000Y-49513601D01*
X72700000Y-50329287D01*
X72689598Y-50324979D01*
X72564019Y-50300000D01*
X72435981Y-50300000D01*
X72310402Y-50324979D01*
X72300000Y-50329287D01*
X72300000Y-49513601D01*
X72160455Y-49535704D01*
X72160452Y-49535704D01*
X71943395Y-49606230D01*
X71740033Y-49709849D01*
X71555385Y-49844004D01*
X71394004Y-50005385D01*
X71259849Y-50190033D01*
X71156230Y-50393395D01*
X71085704Y-50610455D01*
X71050000Y-50835883D01*
X68845666Y-50835883D01*
X68783343Y-50713567D01*
X68644517Y-50522490D01*
X68477510Y-50355483D01*
X68286433Y-50216657D01*
X68075996Y-50109433D01*
X67851368Y-50036446D01*
X67618097Y-49999500D01*
X67618092Y-49999500D01*
X67381908Y-49999500D01*
X67381903Y-49999500D01*
X67148631Y-50036446D01*
X66924003Y-50109433D01*
X66713566Y-50216657D01*
X66604550Y-50295862D01*
X66522490Y-50355483D01*
X66522488Y-50355485D01*
X66522487Y-50355485D01*
X66355485Y-50522487D01*
X66355485Y-50522488D01*
X66355483Y-50522490D01*
X66315312Y-50577781D01*
X66216657Y-50713566D01*
X66109433Y-50924003D01*
X66036446Y-51148631D01*
X65999500Y-51381902D01*
X65999500Y-51618097D01*
X66036446Y-51851368D01*
X66109435Y-52076001D01*
X66176170Y-52206973D01*
X66189067Y-52275642D01*
X66162791Y-52340382D01*
X66153367Y-52350949D01*
X57541137Y-60963181D01*
X57479814Y-60996666D01*
X57453456Y-60999500D01*
X57441457Y-60999500D01*
X57248170Y-61037947D01*
X57248160Y-61037950D01*
X57066092Y-61113364D01*
X57066079Y-61113371D01*
X56902218Y-61222860D01*
X56902214Y-61222863D01*
X56762863Y-61362214D01*
X56762860Y-61362218D01*
X56653371Y-61526079D01*
X56653364Y-61526092D01*
X56577950Y-61708160D01*
X56577947Y-61708170D01*
X56539500Y-61901456D01*
X56539500Y-61901459D01*
X56539500Y-62098541D01*
X56539500Y-62098543D01*
X56539499Y-62098543D01*
X56000500Y-62098543D01*
X56000500Y-61901456D01*
X55962052Y-61708170D01*
X55962051Y-61708169D01*
X55962051Y-61708165D01*
X55949535Y-61677949D01*
X55886635Y-61526092D01*
X55886628Y-61526079D01*
X55777139Y-61362218D01*
X55777136Y-61362214D01*
X55637785Y-61222863D01*
X55637781Y-61222860D01*
X55473920Y-61113371D01*
X55473907Y-61113364D01*
X55291839Y-61037950D01*
X55291829Y-61037947D01*
X55098543Y-60999500D01*
X55098541Y-60999500D01*
X54901459Y-60999500D01*
X54901457Y-60999500D01*
X54708170Y-61037947D01*
X54708160Y-61037950D01*
X54526092Y-61113364D01*
X54526079Y-61113371D01*
X54362218Y-61222860D01*
X54362214Y-61222863D01*
X54222863Y-61362214D01*
X54222860Y-61362218D01*
X54113371Y-61526079D01*
X54113364Y-61526092D01*
X54037950Y-61708160D01*
X54037947Y-61708170D01*
X53999500Y-61901456D01*
X53999500Y-61901459D01*
X53999500Y-62098541D01*
X53999500Y-62098543D01*
X53999499Y-62098543D01*
X54037947Y-62291829D01*
X54037950Y-62291839D01*
X54113364Y-62473907D01*
X54113371Y-62473920D01*
X54222860Y-62637781D01*
X54222863Y-62637785D01*
X54362214Y-62777136D01*
X54362218Y-62777139D01*
X54526079Y-62886628D01*
X54526092Y-62886635D01*
X54708160Y-62962049D01*
X54708165Y-62962051D01*
X54708169Y-62962051D01*
X54708170Y-62962052D01*
X54901456Y-63000500D01*
X54901459Y-63000500D01*
X55098543Y-63000500D01*
X55269765Y-62966441D01*
X55291835Y-62962051D01*
X55338702Y-62942637D01*
X55408168Y-62935168D01*
X55470648Y-62966441D01*
X55473835Y-62969517D01*
X55724381Y-63220063D01*
X55757866Y-63281386D01*
X55760700Y-63307744D01*
X55760700Y-67073004D01*
X55741015Y-67140043D01*
X55688211Y-67185798D01*
X55619053Y-67195742D01*
X55567809Y-67176106D01*
X55473920Y-67113371D01*
X55473907Y-67113364D01*
X55291839Y-67037950D01*
X55291829Y-67037947D01*
X55098543Y-66999500D01*
X55098541Y-66999500D01*
X54901459Y-66999500D01*
X54901457Y-66999500D01*
X54708170Y-67037947D01*
X54708160Y-67037950D01*
X54520457Y-67115699D01*
X54519696Y-67113862D01*
X54460240Y-67126236D01*
X54394998Y-67101231D01*
X54353633Y-67044922D01*
X54346200Y-67002637D01*
X54346200Y-66980227D01*
X54346200Y-66980225D01*
X54308684Y-66840215D01*
X54261186Y-66757947D01*
X54236211Y-66714688D01*
X54236206Y-66714682D01*
X54133717Y-66612193D01*
X54133711Y-66612188D01*
X54008188Y-66539717D01*
X54008189Y-66539717D01*
X53988782Y-66534517D01*
X53868175Y-66502200D01*
X53868172Y-66502200D01*
X53792244Y-66502200D01*
X53725205Y-66482515D01*
X53704563Y-66465881D01*
X49598213Y-62359531D01*
X49598208Y-62359527D01*
X49518290Y-62313387D01*
X49518289Y-62313386D01*
X49518288Y-62313386D01*
X49429144Y-62289500D01*
X49429143Y-62289500D01*
X41900605Y-62289500D01*
X41833566Y-62269815D01*
X41787811Y-62217011D01*
X41786060Y-62212990D01*
X41766632Y-62166086D01*
X41766627Y-62166079D01*
X41657139Y-62002217D01*
X41517785Y-61862863D01*
X41517781Y-61862860D01*
X41353920Y-61753371D01*
X41353907Y-61753364D01*
X41171839Y-61677950D01*
X41171829Y-61677947D01*
X40978543Y-61639500D01*
X40978541Y-61639500D01*
X40781459Y-61639500D01*
X40781457Y-61639500D01*
X40588170Y-61677947D01*
X40588160Y-61677950D01*
X40406092Y-61753364D01*
X40406079Y-61753371D01*
X40242218Y-61862860D01*
X40242214Y-61862863D01*
X40102863Y-62002214D01*
X40102860Y-62002218D01*
X39993371Y-62166079D01*
X39993364Y-62166092D01*
X39917950Y-62348160D01*
X39917947Y-62348170D01*
X39879500Y-62541456D01*
X39879500Y-62541459D01*
X39879500Y-62738541D01*
X39879500Y-62738543D01*
X39879499Y-62738543D01*
X24100500Y-62738543D01*
X24100500Y-62541456D01*
X24062052Y-62348170D01*
X24062051Y-62348169D01*
X24062051Y-62348165D01*
X24038716Y-62291829D01*
X23986635Y-62166092D01*
X23986628Y-62166079D01*
X23877139Y-62002218D01*
X23877136Y-62002214D01*
X23737785Y-61862863D01*
X23737781Y-61862860D01*
X23573920Y-61753371D01*
X23573907Y-61753364D01*
X23391839Y-61677950D01*
X23391829Y-61677947D01*
X23198543Y-61639500D01*
X23198541Y-61639500D01*
X23001459Y-61639500D01*
X23001457Y-61639500D01*
X22808170Y-61677947D01*
X22808160Y-61677950D01*
X22626092Y-61753364D01*
X22626079Y-61753371D01*
X22462218Y-61862860D01*
X22462214Y-61862863D01*
X22322863Y-62002214D01*
X22322860Y-62002218D01*
X22213371Y-62166079D01*
X22213364Y-62166092D01*
X22137950Y-62348160D01*
X22137947Y-62348170D01*
X22099500Y-62541456D01*
X22099500Y-62541459D01*
X22099500Y-62738541D01*
X22099500Y-62738543D01*
X22099499Y-62738543D01*
X20500500Y-62738543D01*
X20500500Y-60198543D01*
X22099499Y-60198543D01*
X22137947Y-60391829D01*
X22137950Y-60391839D01*
X22213364Y-60573907D01*
X22213371Y-60573920D01*
X22322860Y-60737781D01*
X22322863Y-60737785D01*
X22462214Y-60877136D01*
X22462218Y-60877139D01*
X22626079Y-60986628D01*
X22626092Y-60986635D01*
X22808160Y-61062049D01*
X22808165Y-61062051D01*
X22808169Y-61062051D01*
X22808170Y-61062052D01*
X23001456Y-61100500D01*
X23001459Y-61100500D01*
X23198543Y-61100500D01*
X23328582Y-61074632D01*
X23391835Y-61062051D01*
X23573914Y-60986632D01*
X23737782Y-60877139D01*
X23877139Y-60737782D01*
X23986632Y-60573914D01*
X24062051Y-60391835D01*
X24095687Y-60222738D01*
X24100500Y-60198543D01*
X39879499Y-60198543D01*
X39917947Y-60391829D01*
X39917950Y-60391839D01*
X39993364Y-60573907D01*
X39993371Y-60573920D01*
X40102860Y-60737781D01*
X40102863Y-60737785D01*
X40242214Y-60877136D01*
X40242218Y-60877139D01*
X40406079Y-60986628D01*
X40406092Y-60986635D01*
X40588160Y-61062049D01*
X40588165Y-61062051D01*
X40588169Y-61062051D01*
X40588170Y-61062052D01*
X40781456Y-61100500D01*
X40781459Y-61100500D01*
X40978543Y-61100500D01*
X41108582Y-61074632D01*
X41171835Y-61062051D01*
X41353914Y-60986632D01*
X41517782Y-60877139D01*
X41657139Y-60737782D01*
X41766632Y-60573914D01*
X41842051Y-60391835D01*
X41875687Y-60222738D01*
X41880500Y-60198543D01*
X41880500Y-60001456D01*
X41842052Y-59808170D01*
X41842051Y-59808169D01*
X41842051Y-59808165D01*
X41842049Y-59808160D01*
X41766635Y-59626092D01*
X41766628Y-59626079D01*
X41657139Y-59462218D01*
X41657136Y-59462214D01*
X41517785Y-59322863D01*
X41517781Y-59322860D01*
X41353920Y-59213371D01*
X41353907Y-59213364D01*
X41171839Y-59137950D01*
X41171829Y-59137947D01*
X40978543Y-59099500D01*
X40978541Y-59099500D01*
X40781459Y-59099500D01*
X40781457Y-59099500D01*
X40588170Y-59137947D01*
X40588160Y-59137950D01*
X40406092Y-59213364D01*
X40406079Y-59213371D01*
X40242218Y-59322860D01*
X40242214Y-59322863D01*
X40102863Y-59462214D01*
X40102860Y-59462218D01*
X39993371Y-59626079D01*
X39993364Y-59626092D01*
X39917950Y-59808160D01*
X39917947Y-59808170D01*
X39879500Y-60001456D01*
X39879500Y-60001459D01*
X39879500Y-60198541D01*
X39879500Y-60198543D01*
X39879499Y-60198543D01*
X24100500Y-60198543D01*
X24100500Y-60001456D01*
X24062052Y-59808170D01*
X24062051Y-59808169D01*
X24062051Y-59808165D01*
X24062049Y-59808160D01*
X23986635Y-59626092D01*
X23986628Y-59626079D01*
X23877139Y-59462218D01*
X23877136Y-59462214D01*
X23737785Y-59322863D01*
X23737781Y-59322860D01*
X23573920Y-59213371D01*
X23573907Y-59213364D01*
X23391839Y-59137950D01*
X23391829Y-59137947D01*
X23198543Y-59099500D01*
X23198541Y-59099500D01*
X23001459Y-59099500D01*
X23001457Y-59099500D01*
X22808170Y-59137947D01*
X22808160Y-59137950D01*
X22626092Y-59213364D01*
X22626079Y-59213371D01*
X22462218Y-59322860D01*
X22462214Y-59322863D01*
X22322863Y-59462214D01*
X22322860Y-59462218D01*
X22213371Y-59626079D01*
X22213364Y-59626092D01*
X22137950Y-59808160D01*
X22137947Y-59808170D01*
X22099500Y-60001456D01*
X22099500Y-60001459D01*
X22099500Y-60198541D01*
X22099500Y-60198543D01*
X22099499Y-60198543D01*
X20500500Y-60198543D01*
X20500500Y-58878711D01*
X45649500Y-58878711D01*
X45649500Y-59121288D01*
X45681161Y-59361785D01*
X45743947Y-59596104D01*
X45831784Y-59808160D01*
X45836776Y-59820212D01*
X45958064Y-60030289D01*
X45958066Y-60030292D01*
X45958067Y-60030293D01*
X46105733Y-60222736D01*
X46105739Y-60222743D01*
X46277256Y-60394260D01*
X46277262Y-60394265D01*
X46469711Y-60541936D01*
X46679788Y-60663224D01*
X46903900Y-60756054D01*
X47138211Y-60818838D01*
X47318586Y-60842584D01*
X47378711Y-60850500D01*
X47378712Y-60850500D01*
X47621289Y-60850500D01*
X47669388Y-60844167D01*
X47861789Y-60818838D01*
X48096100Y-60756054D01*
X48320212Y-60663224D01*
X48530289Y-60541936D01*
X48722738Y-60394265D01*
X48894265Y-60222738D01*
X49041936Y-60030289D01*
X49163224Y-59820212D01*
X49256054Y-59596100D01*
X49318838Y-59361789D01*
X49350500Y-59121288D01*
X49350500Y-58878712D01*
X49318838Y-58638211D01*
X49256054Y-58403900D01*
X49163224Y-58179788D01*
X49041936Y-57969711D01*
X48894265Y-57777262D01*
X48894260Y-57777256D01*
X48722743Y-57605739D01*
X48722736Y-57605733D01*
X48530293Y-57458067D01*
X48530292Y-57458066D01*
X48530289Y-57458064D01*
X48320212Y-57336776D01*
X48320205Y-57336773D01*
X48096104Y-57243947D01*
X47861785Y-57181161D01*
X47621289Y-57149500D01*
X47621288Y-57149500D01*
X47378712Y-57149500D01*
X47378711Y-57149500D01*
X47138214Y-57181161D01*
X46903895Y-57243947D01*
X46679794Y-57336773D01*
X46679785Y-57336777D01*
X46469706Y-57458067D01*
X46277263Y-57605733D01*
X46277256Y-57605739D01*
X46105739Y-57777256D01*
X46105733Y-57777263D01*
X45958067Y-57969706D01*
X45836777Y-58179785D01*
X45836773Y-58179794D01*
X45743947Y-58403895D01*
X45681161Y-58638214D01*
X45649500Y-58878711D01*
X20500500Y-58878711D01*
X20500500Y-57658543D01*
X22099499Y-57658543D01*
X22137947Y-57851829D01*
X22137950Y-57851839D01*
X22213364Y-58033907D01*
X22213371Y-58033920D01*
X22322860Y-58197781D01*
X22322863Y-58197785D01*
X22462214Y-58337136D01*
X22462218Y-58337139D01*
X22626079Y-58446628D01*
X22626092Y-58446635D01*
X22808160Y-58522049D01*
X22808165Y-58522051D01*
X22808169Y-58522051D01*
X22808170Y-58522052D01*
X23001456Y-58560500D01*
X23001459Y-58560500D01*
X23198543Y-58560500D01*
X23328582Y-58534632D01*
X23391835Y-58522051D01*
X23573914Y-58446632D01*
X23737782Y-58337139D01*
X23877139Y-58197782D01*
X23986632Y-58033914D01*
X24062051Y-57851835D01*
X24100500Y-57658543D01*
X39879499Y-57658543D01*
X39917947Y-57851829D01*
X39917950Y-57851839D01*
X39993364Y-58033907D01*
X39993371Y-58033920D01*
X40102860Y-58197781D01*
X40102863Y-58197785D01*
X40242214Y-58337136D01*
X40242218Y-58337139D01*
X40406079Y-58446628D01*
X40406092Y-58446635D01*
X40588160Y-58522049D01*
X40588165Y-58522051D01*
X40588169Y-58522051D01*
X40588170Y-58522052D01*
X40781456Y-58560500D01*
X40781459Y-58560500D01*
X40978543Y-58560500D01*
X41108582Y-58534632D01*
X41171835Y-58522051D01*
X41353914Y-58446632D01*
X41517782Y-58337139D01*
X41657139Y-58197782D01*
X41766632Y-58033914D01*
X41842051Y-57851835D01*
X41880500Y-57658541D01*
X41880500Y-57461459D01*
X41880500Y-57461456D01*
X41842052Y-57268170D01*
X41842051Y-57268169D01*
X41842051Y-57268165D01*
X41832019Y-57243946D01*
X41766635Y-57086092D01*
X41766628Y-57086079D01*
X41657139Y-56922218D01*
X41657136Y-56922214D01*
X41517785Y-56782863D01*
X41517781Y-56782860D01*
X41353920Y-56673371D01*
X41353907Y-56673364D01*
X41171839Y-56597950D01*
X41171829Y-56597947D01*
X40978543Y-56559500D01*
X40978541Y-56559500D01*
X40781459Y-56559500D01*
X40781457Y-56559500D01*
X40588170Y-56597947D01*
X40588160Y-56597950D01*
X40406092Y-56673364D01*
X40406079Y-56673371D01*
X40242218Y-56782860D01*
X40242214Y-56782863D01*
X40102863Y-56922214D01*
X40102860Y-56922218D01*
X39993371Y-57086079D01*
X39993364Y-57086092D01*
X39917950Y-57268160D01*
X39917947Y-57268170D01*
X39879500Y-57461456D01*
X39879500Y-57461459D01*
X39879500Y-57658541D01*
X39879500Y-57658543D01*
X39879499Y-57658543D01*
X24100500Y-57658543D01*
X24100500Y-57658541D01*
X24100500Y-57461459D01*
X24100500Y-57461456D01*
X24062052Y-57268170D01*
X24062051Y-57268169D01*
X24062051Y-57268165D01*
X24052019Y-57243946D01*
X23986635Y-57086092D01*
X23986628Y-57086079D01*
X23877139Y-56922218D01*
X23877136Y-56922214D01*
X23737785Y-56782863D01*
X23737781Y-56782860D01*
X23573920Y-56673371D01*
X23573907Y-56673364D01*
X23391839Y-56597950D01*
X23391829Y-56597947D01*
X23198543Y-56559500D01*
X23198541Y-56559500D01*
X23001459Y-56559500D01*
X23001457Y-56559500D01*
X22808170Y-56597947D01*
X22808160Y-56597950D01*
X22626092Y-56673364D01*
X22626079Y-56673371D01*
X22462218Y-56782860D01*
X22462214Y-56782863D01*
X22322863Y-56922214D01*
X22322860Y-56922218D01*
X22213371Y-57086079D01*
X22213364Y-57086092D01*
X22137950Y-57268160D01*
X22137947Y-57268170D01*
X22099500Y-57461456D01*
X22099500Y-57461459D01*
X22099500Y-57658541D01*
X22099500Y-57658543D01*
X22099499Y-57658543D01*
X20500500Y-57658543D01*
X20500500Y-55118543D01*
X22099499Y-55118543D01*
X22137947Y-55311829D01*
X22137949Y-55311835D01*
X22213364Y-55493907D01*
X22213371Y-55493920D01*
X22322860Y-55657781D01*
X22322863Y-55657785D01*
X22462214Y-55797136D01*
X22462218Y-55797139D01*
X22626079Y-55906628D01*
X22626092Y-55906635D01*
X22808160Y-55982049D01*
X22808165Y-55982051D01*
X22808169Y-55982051D01*
X22808170Y-55982052D01*
X23001456Y-56020500D01*
X23001459Y-56020500D01*
X23198543Y-56020500D01*
X23328582Y-55994632D01*
X23391835Y-55982051D01*
X23573914Y-55906632D01*
X23737782Y-55797139D01*
X23877139Y-55657782D01*
X23986632Y-55493914D01*
X24062051Y-55311835D01*
X24100500Y-55118543D01*
X39879499Y-55118543D01*
X39917947Y-55311829D01*
X39917949Y-55311835D01*
X39993364Y-55493907D01*
X39993371Y-55493920D01*
X40102860Y-55657781D01*
X40102863Y-55657785D01*
X40242214Y-55797136D01*
X40242218Y-55797139D01*
X40406079Y-55906628D01*
X40406092Y-55906635D01*
X40588160Y-55982049D01*
X40588165Y-55982051D01*
X40588169Y-55982051D01*
X40588170Y-55982052D01*
X40781456Y-56020500D01*
X40781459Y-56020500D01*
X40978543Y-56020500D01*
X41108582Y-55994632D01*
X41171835Y-55982051D01*
X41353914Y-55906632D01*
X41517782Y-55797139D01*
X41657139Y-55657782D01*
X41766632Y-55493914D01*
X41842051Y-55311835D01*
X41880500Y-55118541D01*
X41880500Y-54921459D01*
X41880500Y-54921456D01*
X41842052Y-54728170D01*
X41842051Y-54728169D01*
X41842051Y-54728165D01*
X41809467Y-54649500D01*
X41766635Y-54546092D01*
X41766628Y-54546079D01*
X41657139Y-54382218D01*
X41657136Y-54382214D01*
X41517785Y-54242863D01*
X41517781Y-54242860D01*
X41353920Y-54133371D01*
X41353907Y-54133364D01*
X41171839Y-54057950D01*
X41171829Y-54057947D01*
X40978543Y-54019500D01*
X40978541Y-54019500D01*
X40781459Y-54019500D01*
X40781457Y-54019500D01*
X40588170Y-54057947D01*
X40588160Y-54057950D01*
X40406092Y-54133364D01*
X40406079Y-54133371D01*
X40242218Y-54242860D01*
X40242214Y-54242863D01*
X40102863Y-54382214D01*
X40102860Y-54382218D01*
X39993371Y-54546079D01*
X39993364Y-54546092D01*
X39917950Y-54728160D01*
X39917947Y-54728170D01*
X39879500Y-54921456D01*
X39879500Y-54921459D01*
X39879500Y-55118541D01*
X39879500Y-55118543D01*
X39879499Y-55118543D01*
X24100500Y-55118543D01*
X24100500Y-55118541D01*
X24100500Y-54921459D01*
X24100500Y-54921456D01*
X24062052Y-54728170D01*
X24062051Y-54728169D01*
X24062051Y-54728165D01*
X24029467Y-54649500D01*
X23986635Y-54546092D01*
X23986628Y-54546079D01*
X23877139Y-54382218D01*
X23877136Y-54382214D01*
X23737785Y-54242863D01*
X23737781Y-54242860D01*
X23573920Y-54133371D01*
X23573907Y-54133364D01*
X23391839Y-54057950D01*
X23391829Y-54057947D01*
X23198543Y-54019500D01*
X23198541Y-54019500D01*
X23001459Y-54019500D01*
X23001457Y-54019500D01*
X22808170Y-54057947D01*
X22808160Y-54057950D01*
X22626092Y-54133364D01*
X22626079Y-54133371D01*
X22462218Y-54242860D01*
X22462214Y-54242863D01*
X22322863Y-54382214D01*
X22322860Y-54382218D01*
X22213371Y-54546079D01*
X22213364Y-54546092D01*
X22137950Y-54728160D01*
X22137947Y-54728170D01*
X22099500Y-54921456D01*
X22099500Y-54921459D01*
X22099500Y-55118541D01*
X22099500Y-55118543D01*
X22099499Y-55118543D01*
X20500500Y-55118543D01*
X20500500Y-52401208D01*
X21995000Y-52401208D01*
X21995000Y-52558791D01*
X22000858Y-52618281D01*
X22000858Y-52618285D01*
X22031601Y-52772848D01*
X22048960Y-52830072D01*
X22109266Y-52975661D01*
X22137449Y-53028387D01*
X22137455Y-53028397D01*
X22190048Y-53107107D01*
X22631980Y-52665176D01*
X22634075Y-52672993D01*
X22699901Y-52787007D01*
X22792993Y-52880099D01*
X22907007Y-52945925D01*
X22914823Y-52948019D01*
X22472890Y-53389951D01*
X22551602Y-53442544D01*
X22551612Y-53442550D01*
X22604338Y-53470733D01*
X22749927Y-53531039D01*
X22807151Y-53548398D01*
X22961716Y-53579141D01*
X23021209Y-53585000D01*
X23739768Y-53585000D01*
X23746826Y-53584918D01*
X23856497Y-53561784D01*
X23886510Y-53549352D01*
X23285177Y-52948019D01*
X23292993Y-52945925D01*
X23407007Y-52880099D01*
X23500099Y-52787007D01*
X23565925Y-52672993D01*
X23568019Y-52665177D01*
X24169352Y-53266510D01*
X24181781Y-53236505D01*
X24184402Y-53229963D01*
X24205000Y-53119779D01*
X24205000Y-51840245D01*
X24205000Y-51840220D01*
X39775000Y-51840220D01*
X39775000Y-53119767D01*
X39775081Y-53126826D01*
X39798216Y-53236500D01*
X39798216Y-53236502D01*
X39810645Y-53266509D01*
X39810647Y-53266510D01*
X40411980Y-52665176D01*
X40414075Y-52672993D01*
X40479901Y-52787007D01*
X40572993Y-52880099D01*
X40687007Y-52945925D01*
X40694823Y-52948019D01*
X40093489Y-53549353D01*
X40123462Y-53561768D01*
X40130035Y-53564402D01*
X40240220Y-53585000D01*
X40958791Y-53585000D01*
X41018281Y-53579141D01*
X41018285Y-53579141D01*
X41172848Y-53548398D01*
X41230072Y-53531039D01*
X41375661Y-53470733D01*
X41428387Y-53442550D01*
X41428397Y-53442544D01*
X41507108Y-53389951D01*
X41065176Y-52948019D01*
X41072993Y-52945925D01*
X41187007Y-52880099D01*
X41280099Y-52787007D01*
X41345925Y-52672993D01*
X41348019Y-52665176D01*
X41789951Y-53107108D01*
X41842544Y-53028397D01*
X41842550Y-53028387D01*
X41870733Y-52975661D01*
X41931039Y-52830072D01*
X41948398Y-52772848D01*
X41979141Y-52618285D01*
X41979141Y-52618281D01*
X41985000Y-52558791D01*
X41985000Y-52542544D01*
X42004685Y-52475505D01*
X42057489Y-52429750D01*
X42126647Y-52419806D01*
X42190203Y-52448831D01*
X42196681Y-52454863D01*
X43400981Y-53659163D01*
X43434466Y-53720486D01*
X43437300Y-53746844D01*
X43437300Y-53822775D01*
X43474816Y-53962785D01*
X43474817Y-53962788D01*
X43547288Y-54088311D01*
X43547290Y-54088313D01*
X43547291Y-54088315D01*
X43649785Y-54190809D01*
X43649786Y-54190810D01*
X43649788Y-54190811D01*
X43775311Y-54263282D01*
X43775312Y-54263282D01*
X43775315Y-54263284D01*
X43915325Y-54300800D01*
X43915328Y-54300800D01*
X44060272Y-54300800D01*
X44060275Y-54300800D01*
X44200285Y-54263284D01*
X44325815Y-54190809D01*
X44428309Y-54088315D01*
X44500784Y-53962785D01*
X44538300Y-53822775D01*
X44538300Y-53677825D01*
X44500784Y-53537815D01*
X44428309Y-53412285D01*
X44325815Y-53309791D01*
X44325813Y-53309790D01*
X44325811Y-53309788D01*
X44200288Y-53237317D01*
X44200289Y-53237317D01*
X44188806Y-53234240D01*
X44060275Y-53199800D01*
X44060272Y-53199800D01*
X43984344Y-53199800D01*
X43917305Y-53180115D01*
X43896663Y-53163481D01*
X41571733Y-50838551D01*
X41538248Y-50777228D01*
X41543232Y-50707536D01*
X41571733Y-50663189D01*
X41657136Y-50577785D01*
X41657139Y-50577782D01*
X41766632Y-50413914D01*
X41842051Y-50231835D01*
X41880500Y-50038541D01*
X41880500Y-49841459D01*
X41880500Y-49841456D01*
X41842052Y-49648170D01*
X41842051Y-49648169D01*
X41842051Y-49648165D01*
X41824681Y-49606230D01*
X41766635Y-49466092D01*
X41766628Y-49466079D01*
X41657139Y-49302218D01*
X41657136Y-49302214D01*
X41517785Y-49162863D01*
X41517781Y-49162860D01*
X41353920Y-49053371D01*
X41353907Y-49053364D01*
X41171839Y-48977950D01*
X41171829Y-48977947D01*
X40978543Y-48939500D01*
X40978541Y-48939500D01*
X40781459Y-48939500D01*
X40781457Y-48939500D01*
X40588170Y-48977947D01*
X40588160Y-48977950D01*
X40406092Y-49053364D01*
X40406079Y-49053371D01*
X40242218Y-49162860D01*
X40242214Y-49162863D01*
X40102863Y-49302214D01*
X40102860Y-49302218D01*
X39993371Y-49466079D01*
X39993364Y-49466092D01*
X39917950Y-49648160D01*
X39917947Y-49648170D01*
X39879500Y-49841456D01*
X39879500Y-49841459D01*
X39879500Y-50038541D01*
X39879500Y-50038543D01*
X39879499Y-50038543D01*
X39917947Y-50231829D01*
X39917950Y-50231839D01*
X39993364Y-50413907D01*
X39993371Y-50413920D01*
X40102860Y-50577781D01*
X40102863Y-50577785D01*
X40242214Y-50717136D01*
X40242218Y-50717139D01*
X40406079Y-50826628D01*
X40406092Y-50826635D01*
X40515333Y-50871883D01*
X40588165Y-50902051D01*
X40620809Y-50908544D01*
X40682718Y-50940928D01*
X40684298Y-50942480D01*
X40905137Y-51163319D01*
X40938622Y-51224642D01*
X40933638Y-51294334D01*
X40891766Y-51350267D01*
X40826302Y-51374684D01*
X40817456Y-51375000D01*
X40240232Y-51375000D01*
X40233173Y-51375081D01*
X40123500Y-51398216D01*
X40093488Y-51410645D01*
X40093488Y-51410646D01*
X40694823Y-52011980D01*
X40687007Y-52014075D01*
X40572993Y-52079901D01*
X40479901Y-52172993D01*
X40414075Y-52287007D01*
X40411980Y-52294822D01*
X39810646Y-51693488D01*
X39810645Y-51693488D01*
X39798226Y-51723474D01*
X39795597Y-51730035D01*
X39795597Y-51730036D01*
X39775000Y-51840220D01*
X24205000Y-51840220D01*
X24204950Y-51835918D01*
X24204951Y-51835911D01*
X24204950Y-51835903D01*
X24204918Y-51833172D01*
X24181785Y-51723504D01*
X24169352Y-51693489D01*
X23568019Y-52294822D01*
X23565925Y-52287007D01*
X23500099Y-52172993D01*
X23407007Y-52079901D01*
X23292993Y-52014075D01*
X23285177Y-52011980D01*
X23886510Y-51410647D01*
X23886509Y-51410645D01*
X23856524Y-51398226D01*
X23849967Y-51395598D01*
X23849963Y-51395597D01*
X23739780Y-51375000D01*
X23021209Y-51375000D01*
X22961718Y-51380858D01*
X22961714Y-51380858D01*
X22807151Y-51411601D01*
X22749927Y-51428960D01*
X22604338Y-51489266D01*
X22551607Y-51517452D01*
X22472891Y-51570048D01*
X22472890Y-51570048D01*
X22914823Y-52011980D01*
X22907007Y-52014075D01*
X22792993Y-52079901D01*
X22699901Y-52172993D01*
X22634075Y-52287007D01*
X22631980Y-52294822D01*
X22190048Y-51852890D01*
X22190048Y-51852891D01*
X22137452Y-51931607D01*
X22109266Y-51984338D01*
X22048960Y-52129927D01*
X22031601Y-52187151D01*
X22000858Y-52341714D01*
X22000858Y-52341718D01*
X21995000Y-52401208D01*
X20500500Y-52401208D01*
X20500500Y-50038543D01*
X22099499Y-50038543D01*
X22137947Y-50231829D01*
X22137950Y-50231839D01*
X22213364Y-50413907D01*
X22213371Y-50413920D01*
X22322860Y-50577781D01*
X22322863Y-50577785D01*
X22462214Y-50717136D01*
X22462218Y-50717139D01*
X22626079Y-50826628D01*
X22626092Y-50826635D01*
X22808160Y-50902049D01*
X22808165Y-50902051D01*
X22808169Y-50902051D01*
X22808170Y-50902052D01*
X23001456Y-50940500D01*
X23001459Y-50940500D01*
X23198543Y-50940500D01*
X23328582Y-50914632D01*
X23391835Y-50902051D01*
X23573914Y-50826632D01*
X23737782Y-50717139D01*
X23877139Y-50577782D01*
X23986632Y-50413914D01*
X24062051Y-50231835D01*
X24100500Y-50038541D01*
X24100500Y-49841459D01*
X24100500Y-49841456D01*
X24062052Y-49648170D01*
X24062051Y-49648169D01*
X24062051Y-49648165D01*
X24044681Y-49606230D01*
X23986635Y-49466092D01*
X23986628Y-49466079D01*
X23877139Y-49302218D01*
X23877136Y-49302214D01*
X23737785Y-49162863D01*
X23737781Y-49162860D01*
X23573920Y-49053371D01*
X23573907Y-49053364D01*
X23391839Y-48977950D01*
X23391829Y-48977947D01*
X23198543Y-48939500D01*
X23198541Y-48939500D01*
X23001459Y-48939500D01*
X23001457Y-48939500D01*
X22808170Y-48977947D01*
X22808160Y-48977950D01*
X22626092Y-49053364D01*
X22626079Y-49053371D01*
X22462218Y-49162860D01*
X22462214Y-49162863D01*
X22322863Y-49302214D01*
X22322860Y-49302218D01*
X22213371Y-49466079D01*
X22213364Y-49466092D01*
X22137950Y-49648160D01*
X22137947Y-49648170D01*
X22099500Y-49841456D01*
X22099500Y-49841459D01*
X22099500Y-50038541D01*
X22099500Y-50038543D01*
X22099499Y-50038543D01*
X20500500Y-50038543D01*
X20500500Y-47498543D01*
X22099499Y-47498543D01*
X22137947Y-47691829D01*
X22137950Y-47691839D01*
X22213364Y-47873907D01*
X22213371Y-47873920D01*
X22322860Y-48037781D01*
X22322863Y-48037785D01*
X22462214Y-48177136D01*
X22462218Y-48177139D01*
X22626079Y-48286628D01*
X22626092Y-48286635D01*
X22780278Y-48350500D01*
X22808165Y-48362051D01*
X22808169Y-48362051D01*
X22808170Y-48362052D01*
X23001456Y-48400500D01*
X23001459Y-48400500D01*
X23198543Y-48400500D01*
X23350943Y-48370185D01*
X23391835Y-48362051D01*
X23573914Y-48286632D01*
X23737782Y-48177139D01*
X23877139Y-48037782D01*
X23986632Y-47873914D01*
X24062051Y-47691835D01*
X24085699Y-47572951D01*
X24100500Y-47498543D01*
X39879499Y-47498543D01*
X39917947Y-47691829D01*
X39917950Y-47691839D01*
X39993364Y-47873907D01*
X39993371Y-47873920D01*
X40102860Y-48037781D01*
X40102863Y-48037785D01*
X40242214Y-48177136D01*
X40242218Y-48177139D01*
X40406079Y-48286628D01*
X40406092Y-48286635D01*
X40560278Y-48350500D01*
X40588165Y-48362051D01*
X40588169Y-48362051D01*
X40588170Y-48362052D01*
X40781456Y-48400500D01*
X40781459Y-48400500D01*
X40978543Y-48400500D01*
X41130943Y-48370185D01*
X41171835Y-48362051D01*
X41353914Y-48286632D01*
X41517782Y-48177139D01*
X41657139Y-48037782D01*
X41766632Y-47873914D01*
X41842051Y-47691835D01*
X41865699Y-47572951D01*
X41880500Y-47498543D01*
X41880500Y-47301456D01*
X41842052Y-47108170D01*
X41842051Y-47108169D01*
X41842051Y-47108165D01*
X41797041Y-46999500D01*
X41766635Y-46926092D01*
X41766628Y-46926079D01*
X41657139Y-46762218D01*
X41657136Y-46762214D01*
X41517785Y-46622863D01*
X41517781Y-46622860D01*
X41353920Y-46513371D01*
X41353907Y-46513364D01*
X41171839Y-46437950D01*
X41171829Y-46437947D01*
X40978543Y-46399500D01*
X40978541Y-46399500D01*
X40781459Y-46399500D01*
X40781457Y-46399500D01*
X40588170Y-46437947D01*
X40588160Y-46437950D01*
X40406092Y-46513364D01*
X40406079Y-46513371D01*
X40242218Y-46622860D01*
X40242214Y-46622863D01*
X40102863Y-46762214D01*
X40102860Y-46762218D01*
X39993371Y-46926079D01*
X39993364Y-46926092D01*
X39917950Y-47108160D01*
X39917947Y-47108170D01*
X39879500Y-47301456D01*
X39879500Y-47301459D01*
X39879500Y-47498541D01*
X39879500Y-47498543D01*
X39879499Y-47498543D01*
X24100500Y-47498543D01*
X24100500Y-47301456D01*
X24062052Y-47108170D01*
X24062051Y-47108169D01*
X24062051Y-47108165D01*
X24017041Y-46999500D01*
X23986635Y-46926092D01*
X23986628Y-46926079D01*
X23877139Y-46762218D01*
X23877136Y-46762214D01*
X23737785Y-46622863D01*
X23737781Y-46622860D01*
X23573920Y-46513371D01*
X23573907Y-46513364D01*
X23391839Y-46437950D01*
X23391829Y-46437947D01*
X23198543Y-46399500D01*
X23198541Y-46399500D01*
X23001459Y-46399500D01*
X23001457Y-46399500D01*
X22808170Y-46437947D01*
X22808160Y-46437950D01*
X22626092Y-46513364D01*
X22626079Y-46513371D01*
X22462218Y-46622860D01*
X22462214Y-46622863D01*
X22322863Y-46762214D01*
X22322860Y-46762218D01*
X22213371Y-46926079D01*
X22213364Y-46926092D01*
X22137950Y-47108160D01*
X22137947Y-47108170D01*
X22099500Y-47301456D01*
X22099500Y-47301459D01*
X22099500Y-47498541D01*
X22099500Y-47498543D01*
X22099499Y-47498543D01*
X20500500Y-47498543D01*
X20500500Y-44958543D01*
X22099499Y-44958543D01*
X22137947Y-45151829D01*
X22137950Y-45151839D01*
X22213364Y-45333907D01*
X22213371Y-45333920D01*
X22322860Y-45497781D01*
X22322863Y-45497785D01*
X22462214Y-45637136D01*
X22462218Y-45637139D01*
X22626079Y-45746628D01*
X22626092Y-45746635D01*
X22808160Y-45822049D01*
X22808165Y-45822051D01*
X22808169Y-45822051D01*
X22808170Y-45822052D01*
X23001456Y-45860500D01*
X23001459Y-45860500D01*
X23198543Y-45860500D01*
X23328582Y-45834632D01*
X23391835Y-45822051D01*
X23573914Y-45746632D01*
X23737782Y-45637139D01*
X23877139Y-45497782D01*
X23986632Y-45333914D01*
X24062051Y-45151835D01*
X24075205Y-45085704D01*
X24100500Y-44958543D01*
X24100500Y-44761456D01*
X24062052Y-44568170D01*
X24062051Y-44568169D01*
X24062051Y-44568165D01*
X24040932Y-44517179D01*
X23986635Y-44386092D01*
X23986628Y-44386079D01*
X23877139Y-44222218D01*
X23877136Y-44222214D01*
X23737785Y-44082863D01*
X23737781Y-44082860D01*
X23573920Y-43973371D01*
X23573907Y-43973364D01*
X23391839Y-43897950D01*
X23391829Y-43897947D01*
X23198543Y-43859500D01*
X23198541Y-43859500D01*
X23001459Y-43859500D01*
X23001457Y-43859500D01*
X22808170Y-43897947D01*
X22808160Y-43897950D01*
X22626092Y-43973364D01*
X22626079Y-43973371D01*
X22462218Y-44082860D01*
X22462214Y-44082863D01*
X22322863Y-44222214D01*
X22322860Y-44222218D01*
X22213371Y-44386079D01*
X22213364Y-44386092D01*
X22137950Y-44568160D01*
X22137947Y-44568170D01*
X22099500Y-44761456D01*
X22099500Y-44761459D01*
X22099500Y-44958541D01*
X22099500Y-44958543D01*
X22099499Y-44958543D01*
X20500500Y-44958543D01*
X20500500Y-42418543D01*
X22099499Y-42418543D01*
X22137947Y-42611829D01*
X22137950Y-42611839D01*
X22213364Y-42793907D01*
X22213371Y-42793920D01*
X22322860Y-42957781D01*
X22322863Y-42957785D01*
X22462214Y-43097136D01*
X22462218Y-43097139D01*
X22626079Y-43206628D01*
X22626092Y-43206635D01*
X22808160Y-43282049D01*
X22808165Y-43282051D01*
X22808169Y-43282051D01*
X22808170Y-43282052D01*
X23001456Y-43320500D01*
X23001459Y-43320500D01*
X23198543Y-43320500D01*
X23369765Y-43286441D01*
X23391835Y-43282051D01*
X23573914Y-43206632D01*
X23737782Y-43097139D01*
X23877139Y-42957782D01*
X23986632Y-42793914D01*
X24062051Y-42611835D01*
X24081807Y-42512518D01*
X24100500Y-42418543D01*
X24100500Y-42221456D01*
X24062052Y-42028170D01*
X24062051Y-42028169D01*
X24062051Y-42028165D01*
X23986632Y-41846086D01*
X23986628Y-41846079D01*
X23965231Y-41814056D01*
X39414700Y-41814056D01*
X39414700Y-43791344D01*
X39432963Y-43859500D01*
X39438586Y-43880487D01*
X39438587Y-43880490D01*
X39484727Y-43960408D01*
X39484731Y-43960413D01*
X39910482Y-44386164D01*
X39943967Y-44447487D01*
X39938983Y-44517179D01*
X39937362Y-44521297D01*
X39917949Y-44568163D01*
X39917947Y-44568171D01*
X39879500Y-44761456D01*
X39879500Y-44761459D01*
X39879500Y-44958541D01*
X39879500Y-44958543D01*
X39879499Y-44958543D01*
X39917947Y-45151829D01*
X39917950Y-45151839D01*
X39993364Y-45333907D01*
X39993371Y-45333920D01*
X40102860Y-45497781D01*
X40102863Y-45497785D01*
X40242214Y-45637136D01*
X40242218Y-45637139D01*
X40406079Y-45746628D01*
X40406092Y-45746635D01*
X40588160Y-45822049D01*
X40588165Y-45822051D01*
X40588169Y-45822051D01*
X40588170Y-45822052D01*
X40781456Y-45860500D01*
X40781459Y-45860500D01*
X40978543Y-45860500D01*
X41108582Y-45834632D01*
X41171835Y-45822051D01*
X41353914Y-45746632D01*
X41517782Y-45637139D01*
X41657139Y-45497782D01*
X41766632Y-45333914D01*
X41842051Y-45151835D01*
X41855205Y-45085704D01*
X41880500Y-44958543D01*
X41880500Y-44761456D01*
X41842052Y-44568170D01*
X41842051Y-44568169D01*
X41842051Y-44568165D01*
X41820932Y-44517179D01*
X41766635Y-44386092D01*
X41766628Y-44386079D01*
X41657139Y-44222218D01*
X41657136Y-44222214D01*
X41517785Y-44082863D01*
X41517781Y-44082860D01*
X41353920Y-43973371D01*
X41353907Y-43973364D01*
X41171839Y-43897950D01*
X41171829Y-43897947D01*
X40978543Y-43859500D01*
X40978541Y-43859500D01*
X40781459Y-43859500D01*
X40781457Y-43859500D01*
X40588171Y-43897947D01*
X40588163Y-43897949D01*
X40541297Y-43917362D01*
X40471827Y-43924831D01*
X40409348Y-43893555D01*
X40406164Y-43890482D01*
X40152019Y-43636337D01*
X40118534Y-43575014D01*
X40115700Y-43548656D01*
X40115700Y-43244590D01*
X40135385Y-43177551D01*
X40188189Y-43131796D01*
X40257347Y-43121852D01*
X40308591Y-43141488D01*
X40406079Y-43206628D01*
X40406092Y-43206635D01*
X40588160Y-43282049D01*
X40588165Y-43282051D01*
X40588169Y-43282051D01*
X40588170Y-43282052D01*
X40781456Y-43320500D01*
X40781459Y-43320500D01*
X40978543Y-43320500D01*
X41149765Y-43286441D01*
X41171835Y-43282051D01*
X41218702Y-43262637D01*
X41288168Y-43255168D01*
X41350648Y-43286441D01*
X41353835Y-43289517D01*
X53344788Y-55280470D01*
X53399114Y-55311835D01*
X53424712Y-55326614D01*
X53513856Y-55350500D01*
X53979395Y-55350500D01*
X54046434Y-55370185D01*
X54092189Y-55422989D01*
X54093939Y-55427009D01*
X54110051Y-55465906D01*
X54113367Y-55473912D01*
X54113371Y-55473919D01*
X54222860Y-55637782D01*
X54362214Y-55777136D01*
X54362218Y-55777139D01*
X54526079Y-55886628D01*
X54526092Y-55886635D01*
X54663125Y-55943395D01*
X54708165Y-55962051D01*
X54708169Y-55962051D01*
X54708170Y-55962052D01*
X54901456Y-56000500D01*
X54901459Y-56000500D01*
X55098543Y-56000500D01*
X55228582Y-55974632D01*
X55291835Y-55962051D01*
X55473914Y-55886632D01*
X55637782Y-55777139D01*
X55777139Y-55637782D01*
X55886632Y-55473914D01*
X55962051Y-55291835D01*
X55989025Y-55156230D01*
X56000500Y-55098543D01*
X58999499Y-55098543D01*
X59037947Y-55291829D01*
X59037950Y-55291839D01*
X59113364Y-55473907D01*
X59113371Y-55473920D01*
X59222860Y-55637781D01*
X59222863Y-55637785D01*
X59362214Y-55777136D01*
X59362218Y-55777139D01*
X59526079Y-55886628D01*
X59526092Y-55886635D01*
X59663125Y-55943395D01*
X59708165Y-55962051D01*
X59708169Y-55962051D01*
X59708170Y-55962052D01*
X59901456Y-56000500D01*
X59901459Y-56000500D01*
X60098543Y-56000500D01*
X60228582Y-55974632D01*
X60291835Y-55962051D01*
X60473914Y-55886632D01*
X60637782Y-55777139D01*
X60777139Y-55637782D01*
X60886632Y-55473914D01*
X60962051Y-55291835D01*
X60989025Y-55156230D01*
X61000500Y-55098543D01*
X61000500Y-54901456D01*
X60962052Y-54708170D01*
X60962051Y-54708169D01*
X60962051Y-54708165D01*
X60962049Y-54708160D01*
X60886635Y-54526092D01*
X60886628Y-54526079D01*
X60777139Y-54362218D01*
X60777136Y-54362214D01*
X60637785Y-54222863D01*
X60637781Y-54222860D01*
X60473920Y-54113371D01*
X60473907Y-54113364D01*
X60291839Y-54037950D01*
X60291829Y-54037947D01*
X60098543Y-53999500D01*
X60098541Y-53999500D01*
X59901459Y-53999500D01*
X59901457Y-53999500D01*
X59708170Y-54037947D01*
X59708160Y-54037950D01*
X59526092Y-54113364D01*
X59526079Y-54113371D01*
X59362218Y-54222860D01*
X59362214Y-54222863D01*
X59222863Y-54362214D01*
X59222860Y-54362218D01*
X59113371Y-54526079D01*
X59113364Y-54526092D01*
X59037950Y-54708160D01*
X59037947Y-54708170D01*
X58999500Y-54901456D01*
X58999500Y-54901459D01*
X58999500Y-55098541D01*
X58999500Y-55098543D01*
X58999499Y-55098543D01*
X56000500Y-55098543D01*
X56000500Y-54901456D01*
X55962052Y-54708170D01*
X55962051Y-54708169D01*
X55962051Y-54708165D01*
X55962049Y-54708160D01*
X55886635Y-54526092D01*
X55886628Y-54526079D01*
X55777139Y-54362218D01*
X55777136Y-54362214D01*
X55637785Y-54222863D01*
X55637781Y-54222860D01*
X55473920Y-54113371D01*
X55473907Y-54113364D01*
X55291839Y-54037950D01*
X55291829Y-54037947D01*
X55098543Y-53999500D01*
X55098541Y-53999500D01*
X54901459Y-53999500D01*
X54901457Y-53999500D01*
X54708170Y-54037947D01*
X54708160Y-54037950D01*
X54526092Y-54113364D01*
X54526079Y-54113371D01*
X54362218Y-54222860D01*
X54362214Y-54222863D01*
X54222860Y-54362217D01*
X54113371Y-54526080D01*
X54113367Y-54526087D01*
X54105351Y-54545438D01*
X54093955Y-54572953D01*
X54081413Y-54588517D01*
X54073108Y-54606703D01*
X54059937Y-54615167D01*
X54050116Y-54627355D01*
X54031149Y-54633668D01*
X54014330Y-54644477D01*
X53986770Y-54648439D01*
X53983822Y-54649421D01*
X53979395Y-54649500D01*
X53756544Y-54649500D01*
X53689505Y-54629815D01*
X53668863Y-54613181D01*
X41849517Y-42793835D01*
X41816032Y-42732512D01*
X41821016Y-42662820D01*
X41822615Y-42658757D01*
X41842051Y-42611835D01*
X41861807Y-42512518D01*
X41880500Y-42418543D01*
X41880500Y-42385844D01*
X41900185Y-42318805D01*
X41952989Y-42273050D01*
X42022147Y-42263106D01*
X42085703Y-42292131D01*
X42092181Y-42298163D01*
X48074488Y-48280470D01*
X48154412Y-48326614D01*
X48243556Y-48350500D01*
X48335844Y-48350500D01*
X53979395Y-48350500D01*
X54046434Y-48370185D01*
X54092189Y-48422989D01*
X54093939Y-48427009D01*
X54110051Y-48465906D01*
X54113367Y-48473912D01*
X54113371Y-48473919D01*
X54222860Y-48637782D01*
X54362214Y-48777136D01*
X54362218Y-48777139D01*
X54526079Y-48886628D01*
X54526092Y-48886635D01*
X54708160Y-48962049D01*
X54708165Y-48962051D01*
X54708169Y-48962051D01*
X54708170Y-48962052D01*
X54901456Y-49000500D01*
X54901459Y-49000500D01*
X55098543Y-49000500D01*
X55228582Y-48974632D01*
X55291835Y-48962051D01*
X55473914Y-48886632D01*
X55637782Y-48777139D01*
X55777139Y-48637782D01*
X55886632Y-48473914D01*
X55962051Y-48291835D01*
X56000500Y-48098541D01*
X56000500Y-47901459D01*
X56000500Y-47901456D01*
X55962052Y-47708170D01*
X55962051Y-47708169D01*
X55962051Y-47708165D01*
X55955287Y-47691835D01*
X55886635Y-47526092D01*
X55886628Y-47526079D01*
X55777139Y-47362218D01*
X55777136Y-47362214D01*
X55637785Y-47222863D01*
X55637781Y-47222860D01*
X55473920Y-47113371D01*
X55473907Y-47113364D01*
X55291839Y-47037950D01*
X55291829Y-47037947D01*
X55098543Y-46999500D01*
X55098541Y-46999500D01*
X54901459Y-46999500D01*
X54901457Y-46999500D01*
X54708170Y-47037947D01*
X54708160Y-47037950D01*
X54526092Y-47113364D01*
X54526079Y-47113371D01*
X54362218Y-47222860D01*
X54362214Y-47222863D01*
X54222860Y-47362217D01*
X54113371Y-47526080D01*
X54113367Y-47526087D01*
X54105351Y-47545438D01*
X54093955Y-47572953D01*
X54050116Y-47627355D01*
X53983822Y-47649421D01*
X53979395Y-47649500D01*
X48486244Y-47649500D01*
X48419205Y-47629815D01*
X48398563Y-47613181D01*
X46120963Y-45335581D01*
X46087478Y-45274258D01*
X46092462Y-45204566D01*
X46134334Y-45148633D01*
X46199798Y-45124216D01*
X46208644Y-45123900D01*
X56576856Y-45123900D01*
X56643895Y-45143585D01*
X56664537Y-45160219D01*
X59030482Y-47526164D01*
X59063967Y-47587487D01*
X59058983Y-47657179D01*
X59057362Y-47661297D01*
X59037949Y-47708163D01*
X59037947Y-47708171D01*
X58999500Y-47901456D01*
X58999500Y-47901459D01*
X58999500Y-48098541D01*
X58999500Y-48098543D01*
X58999499Y-48098543D01*
X59037947Y-48291829D01*
X59037950Y-48291839D01*
X59113364Y-48473907D01*
X59113371Y-48473920D01*
X59222860Y-48637781D01*
X59222863Y-48637785D01*
X59362214Y-48777136D01*
X59362218Y-48777139D01*
X59526079Y-48886628D01*
X59526092Y-48886635D01*
X59708160Y-48962049D01*
X59708165Y-48962051D01*
X59708169Y-48962051D01*
X59708170Y-48962052D01*
X59901456Y-49000500D01*
X59901459Y-49000500D01*
X60098543Y-49000500D01*
X60228582Y-48974632D01*
X60291835Y-48962051D01*
X60473914Y-48886632D01*
X60637782Y-48777139D01*
X60777139Y-48637782D01*
X60886632Y-48473914D01*
X60962051Y-48291835D01*
X61000500Y-48098541D01*
X61000500Y-47901459D01*
X61000500Y-47901456D01*
X60962052Y-47708170D01*
X60962051Y-47708169D01*
X60962051Y-47708165D01*
X60955287Y-47691835D01*
X60886635Y-47526092D01*
X60886628Y-47526079D01*
X60777139Y-47362218D01*
X60777136Y-47362214D01*
X60637785Y-47222863D01*
X60637781Y-47222860D01*
X60473920Y-47113371D01*
X60473907Y-47113364D01*
X60291839Y-47037950D01*
X60291829Y-47037947D01*
X60098543Y-46999500D01*
X60098541Y-46999500D01*
X59901459Y-46999500D01*
X59901457Y-46999500D01*
X59708171Y-47037947D01*
X59708163Y-47037949D01*
X59661297Y-47057362D01*
X59591827Y-47064831D01*
X59529348Y-47033555D01*
X59526164Y-47030482D01*
X58795682Y-46300000D01*
X65513603Y-46300000D01*
X66329288Y-46300000D01*
X66324979Y-46310402D01*
X66300000Y-46435981D01*
X66300000Y-46564019D01*
X66324979Y-46689598D01*
X66329288Y-46700000D01*
X65513603Y-46700000D01*
X65535704Y-46839544D01*
X65606230Y-47056604D01*
X65709849Y-47259966D01*
X65844004Y-47444614D01*
X66005385Y-47605995D01*
X66190033Y-47740150D01*
X66393395Y-47843769D01*
X66610455Y-47914295D01*
X66835884Y-47950000D01*
X67300000Y-47950000D01*
X67300000Y-47150000D01*
X67700000Y-47150000D01*
X67700000Y-47950000D01*
X68164116Y-47950000D01*
X68389544Y-47914295D01*
X68606604Y-47843769D01*
X68809966Y-47740150D01*
X68994614Y-47605995D01*
X69155995Y-47444614D01*
X69290150Y-47259966D01*
X69393769Y-47056604D01*
X69464295Y-46839544D01*
X69486397Y-46700000D01*
X68670712Y-46700000D01*
X68675021Y-46689598D01*
X68700000Y-46564019D01*
X68700000Y-46435981D01*
X68675021Y-46310402D01*
X68670712Y-46300000D01*
X69486397Y-46300000D01*
X69464295Y-46160455D01*
X69393769Y-45943395D01*
X69290150Y-45740033D01*
X69155995Y-45555385D01*
X68994614Y-45394004D01*
X68809966Y-45259849D01*
X68606604Y-45156230D01*
X68389544Y-45085704D01*
X68164116Y-45050000D01*
X67700000Y-45050000D01*
X67700000Y-45850000D01*
X67300000Y-45850000D01*
X67300000Y-45050000D01*
X66835884Y-45050000D01*
X66610455Y-45085704D01*
X66393395Y-45156230D01*
X66190033Y-45259849D01*
X66005385Y-45394004D01*
X65844004Y-45555385D01*
X65709849Y-45740033D01*
X65606230Y-45943395D01*
X65535704Y-46160455D01*
X65513603Y-46300000D01*
X58795682Y-46300000D01*
X56988613Y-44492931D01*
X56988608Y-44492927D01*
X56908690Y-44446787D01*
X56908689Y-44446786D01*
X56908688Y-44446786D01*
X56819544Y-44422900D01*
X56819543Y-44422900D01*
X46069944Y-44422900D01*
X46002905Y-44403215D01*
X45982263Y-44386581D01*
X42625929Y-41030247D01*
X45149500Y-41030247D01*
X45149500Y-42969752D01*
X45161131Y-43028229D01*
X45161132Y-43028230D01*
X45205447Y-43094552D01*
X45271769Y-43138867D01*
X45271770Y-43138868D01*
X45330247Y-43150499D01*
X45330250Y-43150500D01*
X45330252Y-43150500D01*
X47269750Y-43150500D01*
X47269751Y-43150499D01*
X47284568Y-43147552D01*
X47328229Y-43138868D01*
X47328229Y-43138867D01*
X47328231Y-43138867D01*
X47394552Y-43094552D01*
X47438867Y-43028231D01*
X47438867Y-43028229D01*
X47438868Y-43028229D01*
X47450499Y-42969752D01*
X47450500Y-42969750D01*
X47450500Y-42157131D01*
X47470185Y-42090092D01*
X47522989Y-42044337D01*
X47592147Y-42034393D01*
X47655703Y-42063418D01*
X47693477Y-42122196D01*
X47696973Y-42137733D01*
X47717829Y-42269410D01*
X47773787Y-42441636D01*
X47773788Y-42441639D01*
X47856006Y-42602997D01*
X47962441Y-42749494D01*
X47962445Y-42749499D01*
X48090500Y-42877554D01*
X48090505Y-42877558D01*
X48200924Y-42957781D01*
X48237006Y-42983996D01*
X48323818Y-43028229D01*
X48398360Y-43066211D01*
X48398363Y-43066212D01*
X48484476Y-43094191D01*
X48570591Y-43122171D01*
X48653429Y-43135291D01*
X48749449Y-43150500D01*
X48749454Y-43150500D01*
X48930551Y-43150500D01*
X49017259Y-43136765D01*
X49109409Y-43122171D01*
X49281639Y-43066211D01*
X49442994Y-42983996D01*
X49589501Y-42877553D01*
X49717553Y-42749501D01*
X49823996Y-42602994D01*
X49906211Y-42441639D01*
X49962171Y-42269409D01*
X49979954Y-42157131D01*
X49987527Y-42109321D01*
X50017456Y-42046186D01*
X50076768Y-42009255D01*
X50146630Y-42010253D01*
X50204863Y-42048863D01*
X50232473Y-42109321D01*
X50257829Y-42269410D01*
X50313787Y-42441636D01*
X50313788Y-42441639D01*
X50396006Y-42602997D01*
X50502441Y-42749494D01*
X50502445Y-42749499D01*
X50630500Y-42877554D01*
X50630505Y-42877558D01*
X50740924Y-42957781D01*
X50777006Y-42983996D01*
X50863818Y-43028229D01*
X50938360Y-43066211D01*
X50938363Y-43066212D01*
X51024476Y-43094191D01*
X51110591Y-43122171D01*
X51193429Y-43135291D01*
X51289449Y-43150500D01*
X51289454Y-43150500D01*
X51470551Y-43150500D01*
X51557259Y-43136765D01*
X51649409Y-43122171D01*
X51821639Y-43066211D01*
X51982994Y-42983996D01*
X52129501Y-42877553D01*
X52257553Y-42749501D01*
X52363996Y-42602994D01*
X52446211Y-42441639D01*
X52502171Y-42269409D01*
X52519954Y-42157131D01*
X52527527Y-42109321D01*
X52557456Y-42046186D01*
X52616768Y-42009255D01*
X52686630Y-42010253D01*
X52744863Y-42048863D01*
X52772473Y-42109321D01*
X52797829Y-42269410D01*
X52853787Y-42441636D01*
X52853788Y-42441639D01*
X52936006Y-42602997D01*
X53042441Y-42749494D01*
X53042445Y-42749499D01*
X53170500Y-42877554D01*
X53170505Y-42877558D01*
X53280924Y-42957781D01*
X53317006Y-42983996D01*
X53403818Y-43028229D01*
X53478360Y-43066211D01*
X53478363Y-43066212D01*
X53564476Y-43094191D01*
X53650591Y-43122171D01*
X53733429Y-43135291D01*
X53829449Y-43150500D01*
X53829454Y-43150500D01*
X54010551Y-43150500D01*
X54097259Y-43136765D01*
X54189409Y-43122171D01*
X54361639Y-43066211D01*
X54522994Y-42983996D01*
X54669501Y-42877553D01*
X54797553Y-42749501D01*
X54903996Y-42602994D01*
X54986211Y-42441639D01*
X55042171Y-42269409D01*
X55059954Y-42157131D01*
X55070500Y-42090551D01*
X55070500Y-41909449D01*
X55070499Y-41909447D01*
X55060464Y-41846092D01*
X55042171Y-41730591D01*
X54986211Y-41558361D01*
X54986211Y-41558360D01*
X54941491Y-41470594D01*
X54903996Y-41397006D01*
X54810936Y-41268919D01*
X54797558Y-41250505D01*
X54797554Y-41250500D01*
X54669499Y-41122445D01*
X54669494Y-41122441D01*
X54522997Y-41016006D01*
X54522996Y-41016005D01*
X54522994Y-41016004D01*
X54464257Y-40986076D01*
X54361639Y-40933788D01*
X54361636Y-40933787D01*
X54189410Y-40877829D01*
X54010551Y-40849500D01*
X54010546Y-40849500D01*
X53829454Y-40849500D01*
X53829449Y-40849500D01*
X53650589Y-40877829D01*
X53478363Y-40933787D01*
X53478360Y-40933788D01*
X53317002Y-41016006D01*
X53170505Y-41122441D01*
X53170500Y-41122445D01*
X53042445Y-41250500D01*
X53042441Y-41250505D01*
X52936006Y-41397002D01*
X52853788Y-41558360D01*
X52853787Y-41558363D01*
X52797829Y-41730589D01*
X52772473Y-41890678D01*
X52742544Y-41953813D01*
X52683232Y-41990744D01*
X52613369Y-41989746D01*
X52555137Y-41951136D01*
X52527527Y-41890678D01*
X52511217Y-41787708D01*
X52502171Y-41730591D01*
X52446211Y-41558361D01*
X52446211Y-41558360D01*
X52401491Y-41470594D01*
X52363996Y-41397006D01*
X52270936Y-41268919D01*
X52257558Y-41250505D01*
X52257554Y-41250500D01*
X52129499Y-41122445D01*
X52129494Y-41122441D01*
X51982997Y-41016006D01*
X51982996Y-41016005D01*
X51982994Y-41016004D01*
X51924257Y-40986076D01*
X51821639Y-40933788D01*
X51821636Y-40933787D01*
X51649410Y-40877829D01*
X51470551Y-40849500D01*
X51470546Y-40849500D01*
X51289454Y-40849500D01*
X51289449Y-40849500D01*
X51110589Y-40877829D01*
X50938363Y-40933787D01*
X50938360Y-40933788D01*
X50777002Y-41016006D01*
X50630505Y-41122441D01*
X50630500Y-41122445D01*
X50502445Y-41250500D01*
X50502441Y-41250505D01*
X50396006Y-41397002D01*
X50313788Y-41558360D01*
X50313787Y-41558363D01*
X50257829Y-41730589D01*
X50232473Y-41890678D01*
X50202544Y-41953813D01*
X50143232Y-41990744D01*
X50073369Y-41989746D01*
X50015137Y-41951136D01*
X49987527Y-41890678D01*
X49971217Y-41787708D01*
X49962171Y-41730591D01*
X49906211Y-41558361D01*
X49906211Y-41558360D01*
X49861491Y-41470594D01*
X49823996Y-41397006D01*
X49730936Y-41268919D01*
X49717558Y-41250505D01*
X49717554Y-41250500D01*
X49589499Y-41122445D01*
X49589494Y-41122441D01*
X49442997Y-41016006D01*
X49442996Y-41016005D01*
X49442994Y-41016004D01*
X49384257Y-40986076D01*
X49281639Y-40933788D01*
X49281636Y-40933787D01*
X49109410Y-40877829D01*
X48930551Y-40849500D01*
X48930546Y-40849500D01*
X48749454Y-40849500D01*
X48749449Y-40849500D01*
X48570589Y-40877829D01*
X48398363Y-40933787D01*
X48398360Y-40933788D01*
X48237002Y-41016006D01*
X48090505Y-41122441D01*
X48090500Y-41122445D01*
X47962445Y-41250500D01*
X47962441Y-41250505D01*
X47856006Y-41397002D01*
X47773788Y-41558360D01*
X47773787Y-41558363D01*
X47717829Y-41730589D01*
X47696973Y-41862266D01*
X47667044Y-41925401D01*
X47607732Y-41962332D01*
X47537869Y-41961334D01*
X47479637Y-41922724D01*
X47451523Y-41858760D01*
X47450500Y-41842868D01*
X47450500Y-41030249D01*
X47450499Y-41030247D01*
X47438868Y-40971770D01*
X47438867Y-40971769D01*
X47394552Y-40905447D01*
X47328230Y-40861132D01*
X47328229Y-40861131D01*
X47269752Y-40849500D01*
X47269748Y-40849500D01*
X45330252Y-40849500D01*
X45330247Y-40849500D01*
X45271770Y-40861131D01*
X45271769Y-40861132D01*
X45205447Y-40905447D01*
X45161132Y-40971769D01*
X45161131Y-40971770D01*
X45149500Y-41030247D01*
X42625929Y-41030247D01*
X41853345Y-40257663D01*
X41819860Y-40196340D01*
X41824844Y-40126648D01*
X41826466Y-40122527D01*
X41839110Y-40092002D01*
X41839114Y-40091993D01*
X41850808Y-40053441D01*
X41881551Y-39898883D01*
X41885500Y-39858793D01*
X41885500Y-39701207D01*
X41881551Y-39661117D01*
X41850808Y-39506559D01*
X41839114Y-39468007D01*
X41778808Y-39322416D01*
X41759818Y-39286888D01*
X41759807Y-39286871D01*
X41672274Y-39155868D01*
X41672270Y-39155863D01*
X41646711Y-39124720D01*
X41535279Y-39013288D01*
X41523197Y-39003372D01*
X41504140Y-38987732D01*
X41504136Y-38987729D01*
X41504131Y-38987725D01*
X41373128Y-38900192D01*
X41373120Y-38900187D01*
X41373112Y-38900182D01*
X41337584Y-38881192D01*
X41337577Y-38881189D01*
X41191997Y-38820887D01*
X41153442Y-38809192D01*
X40998884Y-38778449D01*
X40998885Y-38778449D01*
X40987428Y-38777320D01*
X40958793Y-38774500D01*
X40240218Y-38774500D01*
X40240214Y-38774500D01*
X40161582Y-38790140D01*
X40161566Y-38790145D01*
X40088074Y-38820586D01*
X40021397Y-38865139D01*
X39965139Y-38921397D01*
X39920586Y-38988074D01*
X39890145Y-39061566D01*
X39890140Y-39061582D01*
X39874500Y-39140214D01*
X39874500Y-40419785D01*
X39890140Y-40498417D01*
X39890145Y-40498433D01*
X39920586Y-40571925D01*
X39920588Y-40571929D01*
X39920590Y-40571932D01*
X39965138Y-40638601D01*
X40021399Y-40694862D01*
X40088068Y-40739410D01*
X40088071Y-40739411D01*
X40088074Y-40739413D01*
X40130331Y-40756916D01*
X40184735Y-40800756D01*
X40206800Y-40867050D01*
X40189521Y-40934750D01*
X40170560Y-40959158D01*
X39484731Y-41644986D01*
X39484727Y-41644991D01*
X39438587Y-41724909D01*
X39438586Y-41724912D01*
X39414700Y-41814056D01*
X23965231Y-41814056D01*
X23877139Y-41682218D01*
X23877136Y-41682214D01*
X23737785Y-41542863D01*
X23737781Y-41542860D01*
X23573920Y-41433371D01*
X23573907Y-41433364D01*
X23391839Y-41357950D01*
X23391829Y-41357947D01*
X23198543Y-41319500D01*
X23198541Y-41319500D01*
X23001459Y-41319500D01*
X23001457Y-41319500D01*
X22808170Y-41357947D01*
X22808160Y-41357950D01*
X22626092Y-41433364D01*
X22626079Y-41433371D01*
X22462218Y-41542860D01*
X22462214Y-41542863D01*
X22322863Y-41682214D01*
X22322860Y-41682218D01*
X22213371Y-41846079D01*
X22213364Y-41846092D01*
X22137950Y-42028160D01*
X22137947Y-42028170D01*
X22099500Y-42221456D01*
X22099500Y-42221459D01*
X22099500Y-42418541D01*
X22099500Y-42418543D01*
X22099499Y-42418543D01*
X20500500Y-42418543D01*
X20500500Y-39701208D01*
X21995000Y-39701208D01*
X21995000Y-39858791D01*
X22000858Y-39918281D01*
X22000858Y-39918285D01*
X22031601Y-40072848D01*
X22048960Y-40130072D01*
X22109266Y-40275661D01*
X22137449Y-40328387D01*
X22137455Y-40328397D01*
X22190048Y-40407107D01*
X22631980Y-39965176D01*
X22634075Y-39972993D01*
X22699901Y-40087007D01*
X22792993Y-40180099D01*
X22907007Y-40245925D01*
X22914823Y-40248019D01*
X22472890Y-40689951D01*
X22551602Y-40742544D01*
X22551612Y-40742550D01*
X22604338Y-40770733D01*
X22749927Y-40831039D01*
X22807151Y-40848398D01*
X22961716Y-40879141D01*
X23021209Y-40885000D01*
X23739768Y-40885000D01*
X23746826Y-40884918D01*
X23856497Y-40861784D01*
X23886510Y-40849352D01*
X23285177Y-40248019D01*
X23292993Y-40245925D01*
X23407007Y-40180099D01*
X23500099Y-40087007D01*
X23565925Y-39972993D01*
X23568019Y-39965177D01*
X24169352Y-40566510D01*
X24181781Y-40536505D01*
X24184402Y-40529963D01*
X24205000Y-40419779D01*
X24205000Y-39140232D01*
X24204918Y-39133173D01*
X24181785Y-39023504D01*
X24169352Y-38993489D01*
X23568019Y-39594822D01*
X23565925Y-39587007D01*
X23500099Y-39472993D01*
X23407007Y-39379901D01*
X23292993Y-39314075D01*
X23285177Y-39311980D01*
X23886510Y-38710647D01*
X23886509Y-38710645D01*
X23856524Y-38698226D01*
X23849967Y-38695598D01*
X23849963Y-38695597D01*
X23739780Y-38675000D01*
X23021209Y-38675000D01*
X22961718Y-38680858D01*
X22961714Y-38680858D01*
X22807151Y-38711601D01*
X22749927Y-38728960D01*
X22604338Y-38789266D01*
X22551607Y-38817452D01*
X22472891Y-38870048D01*
X22472890Y-38870048D01*
X22914823Y-39311980D01*
X22907007Y-39314075D01*
X22792993Y-39379901D01*
X22699901Y-39472993D01*
X22634075Y-39587007D01*
X22631980Y-39594822D01*
X22190048Y-39152890D01*
X22190048Y-39152891D01*
X22137452Y-39231607D01*
X22109266Y-39284338D01*
X22048960Y-39429927D01*
X22031601Y-39487151D01*
X22000858Y-39641714D01*
X22000858Y-39641718D01*
X21995000Y-39701208D01*
X20500500Y-39701208D01*
X20500500Y-37338543D01*
X22099499Y-37338543D01*
X22137947Y-37531829D01*
X22137950Y-37531839D01*
X22213364Y-37713907D01*
X22213371Y-37713920D01*
X22322860Y-37877781D01*
X22322863Y-37877785D01*
X22462214Y-38017136D01*
X22462218Y-38017139D01*
X22626079Y-38126628D01*
X22626092Y-38126635D01*
X22808160Y-38202049D01*
X22808165Y-38202051D01*
X22808169Y-38202051D01*
X22808170Y-38202052D01*
X23001456Y-38240500D01*
X23001459Y-38240500D01*
X23198543Y-38240500D01*
X23328582Y-38214632D01*
X23391835Y-38202051D01*
X23573914Y-38126632D01*
X23737782Y-38017139D01*
X23877139Y-37877782D01*
X23986632Y-37713914D01*
X24062051Y-37531835D01*
X24100500Y-37338543D01*
X39879499Y-37338543D01*
X39917947Y-37531829D01*
X39917950Y-37531839D01*
X39993364Y-37713907D01*
X39993371Y-37713920D01*
X40102860Y-37877781D01*
X40102863Y-37877785D01*
X40242214Y-38017136D01*
X40242218Y-38017139D01*
X40406079Y-38126628D01*
X40406092Y-38126635D01*
X40588160Y-38202049D01*
X40588165Y-38202051D01*
X40588169Y-38202051D01*
X40588170Y-38202052D01*
X40781456Y-38240500D01*
X40781459Y-38240500D01*
X40978543Y-38240500D01*
X41108582Y-38214632D01*
X41171835Y-38202051D01*
X41353914Y-38126632D01*
X41517782Y-38017139D01*
X41657139Y-37877782D01*
X41766632Y-37713914D01*
X41842051Y-37531835D01*
X41880500Y-37338541D01*
X41880500Y-37141459D01*
X41880500Y-37141456D01*
X41842052Y-36948170D01*
X41842051Y-36948169D01*
X41842051Y-36948165D01*
X41842049Y-36948160D01*
X41766635Y-36766092D01*
X41766628Y-36766079D01*
X41657139Y-36602218D01*
X41657136Y-36602214D01*
X41517785Y-36462863D01*
X41517781Y-36462860D01*
X41353920Y-36353371D01*
X41353907Y-36353364D01*
X41171839Y-36277950D01*
X41171829Y-36277947D01*
X40978543Y-36239500D01*
X40978541Y-36239500D01*
X40781459Y-36239500D01*
X40781457Y-36239500D01*
X40588170Y-36277947D01*
X40588160Y-36277950D01*
X40406092Y-36353364D01*
X40406079Y-36353371D01*
X40242218Y-36462860D01*
X40242214Y-36462863D01*
X40102863Y-36602214D01*
X40102860Y-36602218D01*
X39993371Y-36766079D01*
X39993364Y-36766092D01*
X39917950Y-36948160D01*
X39917947Y-36948170D01*
X39879500Y-37141456D01*
X39879500Y-37141459D01*
X39879500Y-37338541D01*
X39879500Y-37338543D01*
X39879499Y-37338543D01*
X24100500Y-37338543D01*
X24100500Y-37338541D01*
X24100500Y-37141459D01*
X24100500Y-37141456D01*
X24062052Y-36948170D01*
X24062051Y-36948169D01*
X24062051Y-36948165D01*
X24062049Y-36948160D01*
X23986635Y-36766092D01*
X23986628Y-36766079D01*
X23877139Y-36602218D01*
X23877136Y-36602214D01*
X23737785Y-36462863D01*
X23737781Y-36462860D01*
X23573920Y-36353371D01*
X23573907Y-36353364D01*
X23391839Y-36277950D01*
X23391829Y-36277947D01*
X23198543Y-36239500D01*
X23198541Y-36239500D01*
X23001459Y-36239500D01*
X23001457Y-36239500D01*
X22808170Y-36277947D01*
X22808160Y-36277950D01*
X22626092Y-36353364D01*
X22626079Y-36353371D01*
X22462218Y-36462860D01*
X22462214Y-36462863D01*
X22322863Y-36602214D01*
X22322860Y-36602218D01*
X22213371Y-36766079D01*
X22213364Y-36766092D01*
X22137950Y-36948160D01*
X22137947Y-36948170D01*
X22099500Y-37141456D01*
X22099500Y-37141459D01*
X22099500Y-37338541D01*
X22099500Y-37338543D01*
X22099499Y-37338543D01*
X20500500Y-37338543D01*
X20500500Y-34798543D01*
X22099499Y-34798543D01*
X22137947Y-34991829D01*
X22137950Y-34991839D01*
X22213364Y-35173907D01*
X22213371Y-35173920D01*
X22322860Y-35337781D01*
X22322863Y-35337785D01*
X22462214Y-35477136D01*
X22462218Y-35477139D01*
X22626079Y-35586628D01*
X22626092Y-35586635D01*
X22808160Y-35662049D01*
X22808165Y-35662051D01*
X22808169Y-35662051D01*
X22808170Y-35662052D01*
X23001456Y-35700500D01*
X23001459Y-35700500D01*
X23198543Y-35700500D01*
X23328582Y-35674632D01*
X23391835Y-35662051D01*
X23573914Y-35586632D01*
X23737782Y-35477139D01*
X23877139Y-35337782D01*
X23986632Y-35173914D01*
X24062051Y-34991835D01*
X24100500Y-34798543D01*
X39879499Y-34798543D01*
X39917947Y-34991829D01*
X39917950Y-34991839D01*
X39993364Y-35173907D01*
X39993371Y-35173920D01*
X40102860Y-35337781D01*
X40102863Y-35337785D01*
X40242214Y-35477136D01*
X40242218Y-35477139D01*
X40406079Y-35586628D01*
X40406092Y-35586635D01*
X40588160Y-35662049D01*
X40588165Y-35662051D01*
X40588169Y-35662051D01*
X40588170Y-35662052D01*
X40781456Y-35700500D01*
X40781459Y-35700500D01*
X40978543Y-35700500D01*
X41108582Y-35674632D01*
X41171835Y-35662051D01*
X41353914Y-35586632D01*
X41517782Y-35477139D01*
X41657139Y-35337782D01*
X41766632Y-35173914D01*
X41842051Y-34991835D01*
X41880500Y-34798541D01*
X41880500Y-34601459D01*
X41880500Y-34601456D01*
X41842052Y-34408170D01*
X41842051Y-34408169D01*
X41842051Y-34408165D01*
X41842049Y-34408160D01*
X41766635Y-34226092D01*
X41766628Y-34226079D01*
X41657139Y-34062218D01*
X41657136Y-34062214D01*
X41517785Y-33922863D01*
X41517781Y-33922860D01*
X41353920Y-33813371D01*
X41353907Y-33813364D01*
X41171839Y-33737950D01*
X41171829Y-33737947D01*
X40978543Y-33699500D01*
X40978541Y-33699500D01*
X40781459Y-33699500D01*
X40781457Y-33699500D01*
X40588170Y-33737947D01*
X40588160Y-33737950D01*
X40406092Y-33813364D01*
X40406079Y-33813371D01*
X40242218Y-33922860D01*
X40242214Y-33922863D01*
X40102863Y-34062214D01*
X40102860Y-34062218D01*
X39993371Y-34226079D01*
X39993364Y-34226092D01*
X39917950Y-34408160D01*
X39917947Y-34408170D01*
X39879500Y-34601456D01*
X39879500Y-34601459D01*
X39879500Y-34798541D01*
X39879500Y-34798543D01*
X39879499Y-34798543D01*
X24100500Y-34798543D01*
X24100500Y-34798541D01*
X24100500Y-34601459D01*
X24100500Y-34601456D01*
X24062052Y-34408170D01*
X24062051Y-34408169D01*
X24062051Y-34408165D01*
X24062049Y-34408160D01*
X23986635Y-34226092D01*
X23986628Y-34226079D01*
X23877139Y-34062218D01*
X23877136Y-34062214D01*
X23737785Y-33922863D01*
X23737781Y-33922860D01*
X23573920Y-33813371D01*
X23573907Y-33813364D01*
X23391839Y-33737950D01*
X23391829Y-33737947D01*
X23198543Y-33699500D01*
X23198541Y-33699500D01*
X23001459Y-33699500D01*
X23001457Y-33699500D01*
X22808170Y-33737947D01*
X22808160Y-33737950D01*
X22626092Y-33813364D01*
X22626079Y-33813371D01*
X22462218Y-33922860D01*
X22462214Y-33922863D01*
X22322863Y-34062214D01*
X22322860Y-34062218D01*
X22213371Y-34226079D01*
X22213364Y-34226092D01*
X22137950Y-34408160D01*
X22137947Y-34408170D01*
X22099500Y-34601456D01*
X22099500Y-34601459D01*
X22099500Y-34798541D01*
X22099500Y-34798543D01*
X22099499Y-34798543D01*
X20500500Y-34798543D01*
X20500500Y-32258543D01*
X22099499Y-32258543D01*
X22137947Y-32451829D01*
X22137950Y-32451839D01*
X22213364Y-32633907D01*
X22213371Y-32633920D01*
X22322860Y-32797781D01*
X22322863Y-32797785D01*
X22462214Y-32937136D01*
X22462218Y-32937139D01*
X22626079Y-33046628D01*
X22626092Y-33046635D01*
X22808160Y-33122049D01*
X22808165Y-33122051D01*
X22808169Y-33122051D01*
X22808170Y-33122052D01*
X23001456Y-33160500D01*
X23001459Y-33160500D01*
X23198543Y-33160500D01*
X23328582Y-33134632D01*
X23391835Y-33122051D01*
X23573914Y-33046632D01*
X23737782Y-32937139D01*
X23877139Y-32797782D01*
X23986632Y-32633914D01*
X24062051Y-32451835D01*
X24100500Y-32258543D01*
X39879499Y-32258543D01*
X39917947Y-32451829D01*
X39917950Y-32451839D01*
X39993364Y-32633907D01*
X39993371Y-32633920D01*
X40102860Y-32797781D01*
X40102863Y-32797785D01*
X40242214Y-32937136D01*
X40242218Y-32937139D01*
X40406079Y-33046628D01*
X40406092Y-33046635D01*
X40588160Y-33122049D01*
X40588165Y-33122051D01*
X40588169Y-33122051D01*
X40588170Y-33122052D01*
X40781456Y-33160500D01*
X40781459Y-33160500D01*
X40978543Y-33160500D01*
X41108582Y-33134632D01*
X41171835Y-33122051D01*
X41353914Y-33046632D01*
X41517782Y-32937139D01*
X41657139Y-32797782D01*
X41766632Y-32633914D01*
X41842051Y-32451835D01*
X41880500Y-32258541D01*
X41880500Y-32061459D01*
X41880500Y-32061456D01*
X41842052Y-31868170D01*
X41842051Y-31868169D01*
X41842051Y-31868165D01*
X41842049Y-31868160D01*
X41766635Y-31686092D01*
X41766628Y-31686079D01*
X41657139Y-31522218D01*
X41657136Y-31522214D01*
X41517785Y-31382863D01*
X41517781Y-31382860D01*
X41353920Y-31273371D01*
X41353907Y-31273364D01*
X41171839Y-31197950D01*
X41171829Y-31197947D01*
X40978543Y-31159500D01*
X40978541Y-31159500D01*
X40781459Y-31159500D01*
X40781457Y-31159500D01*
X40588170Y-31197947D01*
X40588160Y-31197950D01*
X40406092Y-31273364D01*
X40406079Y-31273371D01*
X40242218Y-31382860D01*
X40242214Y-31382863D01*
X40102863Y-31522214D01*
X40102860Y-31522218D01*
X39993371Y-31686079D01*
X39993364Y-31686092D01*
X39917950Y-31868160D01*
X39917947Y-31868170D01*
X39879500Y-32061456D01*
X39879500Y-32061459D01*
X39879500Y-32258541D01*
X39879500Y-32258543D01*
X39879499Y-32258543D01*
X24100500Y-32258543D01*
X24100500Y-32258541D01*
X24100500Y-32061459D01*
X24100500Y-32061456D01*
X24062052Y-31868170D01*
X24062051Y-31868169D01*
X24062051Y-31868165D01*
X24062049Y-31868160D01*
X23986635Y-31686092D01*
X23986628Y-31686079D01*
X23877139Y-31522218D01*
X23877136Y-31522214D01*
X23737785Y-31382863D01*
X23737781Y-31382860D01*
X23573920Y-31273371D01*
X23573907Y-31273364D01*
X23391839Y-31197950D01*
X23391829Y-31197947D01*
X23198543Y-31159500D01*
X23198541Y-31159500D01*
X23001459Y-31159500D01*
X23001457Y-31159500D01*
X22808170Y-31197947D01*
X22808160Y-31197950D01*
X22626092Y-31273364D01*
X22626079Y-31273371D01*
X22462218Y-31382860D01*
X22462214Y-31382863D01*
X22322863Y-31522214D01*
X22322860Y-31522218D01*
X22213371Y-31686079D01*
X22213364Y-31686092D01*
X22137950Y-31868160D01*
X22137947Y-31868170D01*
X22099500Y-32061456D01*
X22099500Y-32061459D01*
X22099500Y-32258541D01*
X22099500Y-32258543D01*
X22099499Y-32258543D01*
X20500500Y-32258543D01*
X20500500Y-29718543D01*
X22099499Y-29718543D01*
X22137947Y-29911829D01*
X22137950Y-29911839D01*
X22213364Y-30093907D01*
X22213371Y-30093920D01*
X22322860Y-30257781D01*
X22322863Y-30257785D01*
X22462214Y-30397136D01*
X22462218Y-30397139D01*
X22626079Y-30506628D01*
X22626092Y-30506635D01*
X22808160Y-30582049D01*
X22808165Y-30582051D01*
X22808169Y-30582051D01*
X22808170Y-30582052D01*
X23001456Y-30620500D01*
X23001459Y-30620500D01*
X23198543Y-30620500D01*
X23328582Y-30594632D01*
X23391835Y-30582051D01*
X23573914Y-30506632D01*
X23737782Y-30397139D01*
X23877139Y-30257782D01*
X23986632Y-30093914D01*
X24062051Y-29911835D01*
X24100500Y-29718543D01*
X39879499Y-29718543D01*
X39917947Y-29911829D01*
X39917950Y-29911839D01*
X39993364Y-30093907D01*
X39993371Y-30093920D01*
X40102860Y-30257781D01*
X40102863Y-30257785D01*
X40242214Y-30397136D01*
X40242218Y-30397139D01*
X40406079Y-30506628D01*
X40406092Y-30506635D01*
X40588160Y-30582049D01*
X40588165Y-30582051D01*
X40588169Y-30582051D01*
X40588170Y-30582052D01*
X40781456Y-30620500D01*
X40781459Y-30620500D01*
X40978543Y-30620500D01*
X41108582Y-30594632D01*
X41171835Y-30582051D01*
X41353914Y-30506632D01*
X41517782Y-30397139D01*
X41657139Y-30257782D01*
X41766632Y-30093914D01*
X41842051Y-29911835D01*
X41880500Y-29718541D01*
X41880500Y-29521459D01*
X41880500Y-29521456D01*
X41842052Y-29328170D01*
X41842051Y-29328169D01*
X41842051Y-29328165D01*
X41842049Y-29328160D01*
X41766635Y-29146092D01*
X41766628Y-29146079D01*
X41657139Y-28982218D01*
X41657136Y-28982214D01*
X41517785Y-28842863D01*
X41517781Y-28842860D01*
X41353920Y-28733371D01*
X41353907Y-28733364D01*
X41171839Y-28657950D01*
X41171829Y-28657947D01*
X40978543Y-28619500D01*
X40978541Y-28619500D01*
X40781459Y-28619500D01*
X40781457Y-28619500D01*
X40588170Y-28657947D01*
X40588160Y-28657950D01*
X40406092Y-28733364D01*
X40406079Y-28733371D01*
X40242218Y-28842860D01*
X40242214Y-28842863D01*
X40102863Y-28982214D01*
X40102860Y-28982218D01*
X39993371Y-29146079D01*
X39993364Y-29146092D01*
X39917950Y-29328160D01*
X39917947Y-29328170D01*
X39879500Y-29521456D01*
X39879500Y-29521459D01*
X39879500Y-29718541D01*
X39879500Y-29718543D01*
X39879499Y-29718543D01*
X24100500Y-29718543D01*
X24100500Y-29718541D01*
X24100500Y-29521459D01*
X24100500Y-29521456D01*
X24062052Y-29328170D01*
X24062051Y-29328169D01*
X24062051Y-29328165D01*
X24062049Y-29328160D01*
X23986635Y-29146092D01*
X23986628Y-29146079D01*
X23877139Y-28982218D01*
X23877136Y-28982214D01*
X23737785Y-28842863D01*
X23737781Y-28842860D01*
X23573920Y-28733371D01*
X23573907Y-28733364D01*
X23391839Y-28657950D01*
X23391829Y-28657947D01*
X23198543Y-28619500D01*
X23198541Y-28619500D01*
X23001459Y-28619500D01*
X23001457Y-28619500D01*
X22808170Y-28657947D01*
X22808160Y-28657950D01*
X22626092Y-28733364D01*
X22626079Y-28733371D01*
X22462218Y-28842860D01*
X22462214Y-28842863D01*
X22322863Y-28982214D01*
X22322860Y-28982218D01*
X22213371Y-29146079D01*
X22213364Y-29146092D01*
X22137950Y-29328160D01*
X22137947Y-29328170D01*
X22099500Y-29521456D01*
X22099500Y-29521459D01*
X22099500Y-29718541D01*
X22099500Y-29718543D01*
X22099499Y-29718543D01*
X20500500Y-29718543D01*
X20500500Y-27001208D01*
X21995000Y-27001208D01*
X21995000Y-27158791D01*
X22000858Y-27218281D01*
X22000858Y-27218285D01*
X22031601Y-27372848D01*
X22048960Y-27430072D01*
X22109266Y-27575661D01*
X22137449Y-27628387D01*
X22137455Y-27628397D01*
X22190048Y-27707107D01*
X22631980Y-27265176D01*
X22634075Y-27272993D01*
X22699901Y-27387007D01*
X22792993Y-27480099D01*
X22907007Y-27545925D01*
X22914823Y-27548019D01*
X22472890Y-27989951D01*
X22551602Y-28042544D01*
X22551612Y-28042550D01*
X22604338Y-28070733D01*
X22749927Y-28131039D01*
X22807151Y-28148398D01*
X22961716Y-28179141D01*
X23021209Y-28185000D01*
X23739768Y-28185000D01*
X23746826Y-28184918D01*
X23856497Y-28161784D01*
X23886510Y-28149352D01*
X23285177Y-27548019D01*
X23292993Y-27545925D01*
X23407007Y-27480099D01*
X23500099Y-27387007D01*
X23565925Y-27272993D01*
X23568019Y-27265177D01*
X24169352Y-27866510D01*
X24181781Y-27836505D01*
X24184402Y-27829963D01*
X24205000Y-27719779D01*
X24205000Y-26440245D01*
X24205000Y-26440220D01*
X39775000Y-26440220D01*
X39775000Y-27719767D01*
X39775081Y-27726826D01*
X39798216Y-27836500D01*
X39798216Y-27836502D01*
X39810645Y-27866509D01*
X39810647Y-27866510D01*
X40411980Y-27265176D01*
X40414075Y-27272993D01*
X40479901Y-27387007D01*
X40572993Y-27480099D01*
X40687007Y-27545925D01*
X40694823Y-27548019D01*
X40093489Y-28149353D01*
X40123462Y-28161768D01*
X40130035Y-28164402D01*
X40240220Y-28185000D01*
X40958791Y-28185000D01*
X41018281Y-28179141D01*
X41018285Y-28179141D01*
X41172848Y-28148398D01*
X41230072Y-28131039D01*
X41375661Y-28070733D01*
X41428387Y-28042550D01*
X41428397Y-28042544D01*
X41507108Y-27989951D01*
X41065176Y-27548019D01*
X41072993Y-27545925D01*
X41187007Y-27480099D01*
X41280099Y-27387007D01*
X41345925Y-27272993D01*
X41348019Y-27265176D01*
X41789951Y-27707108D01*
X41842544Y-27628397D01*
X41842550Y-27628387D01*
X41870733Y-27575661D01*
X41931039Y-27430072D01*
X41948398Y-27372848D01*
X41979141Y-27218285D01*
X41979141Y-27218281D01*
X41985000Y-27158791D01*
X41985000Y-27001208D01*
X41979141Y-26941718D01*
X41979141Y-26941714D01*
X41948398Y-26787151D01*
X41931039Y-26729927D01*
X41870733Y-26584338D01*
X41842550Y-26531612D01*
X41842544Y-26531602D01*
X41789951Y-26452890D01*
X41348019Y-26894822D01*
X41345925Y-26887007D01*
X41280099Y-26772993D01*
X41187007Y-26679901D01*
X41072993Y-26614075D01*
X41065176Y-26611980D01*
X41507107Y-26170048D01*
X41428397Y-26117455D01*
X41428387Y-26117449D01*
X41375661Y-26089266D01*
X41230072Y-26028960D01*
X41172848Y-26011601D01*
X41018283Y-25980858D01*
X40958791Y-25975000D01*
X40240232Y-25975000D01*
X40233173Y-25975081D01*
X40123500Y-25998216D01*
X40093488Y-26010645D01*
X40093488Y-26010646D01*
X40694823Y-26611980D01*
X40687007Y-26614075D01*
X40572993Y-26679901D01*
X40479901Y-26772993D01*
X40414075Y-26887007D01*
X40411980Y-26894822D01*
X39810646Y-26293488D01*
X39810645Y-26293488D01*
X39798226Y-26323474D01*
X39795597Y-26330035D01*
X39795597Y-26330036D01*
X39775000Y-26440220D01*
X24205000Y-26440220D01*
X24204950Y-26435918D01*
X24204951Y-26435911D01*
X24204950Y-26435903D01*
X24204918Y-26433172D01*
X24181785Y-26323504D01*
X24169352Y-26293489D01*
X23568019Y-26894822D01*
X23565925Y-26887007D01*
X23500099Y-26772993D01*
X23407007Y-26679901D01*
X23292993Y-26614075D01*
X23285177Y-26611980D01*
X23886510Y-26010647D01*
X23886509Y-26010645D01*
X23856524Y-25998226D01*
X23849967Y-25995598D01*
X23849963Y-25995597D01*
X23739780Y-25975000D01*
X23021209Y-25975000D01*
X22961718Y-25980858D01*
X22961714Y-25980858D01*
X22807151Y-26011601D01*
X22749927Y-26028960D01*
X22604338Y-26089266D01*
X22551607Y-26117452D01*
X22472891Y-26170048D01*
X22472890Y-26170048D01*
X22914823Y-26611980D01*
X22907007Y-26614075D01*
X22792993Y-26679901D01*
X22699901Y-26772993D01*
X22634075Y-26887007D01*
X22631980Y-26894822D01*
X22190048Y-26452890D01*
X22190048Y-26452891D01*
X22137452Y-26531607D01*
X22109266Y-26584338D01*
X22048960Y-26729927D01*
X22031601Y-26787151D01*
X22000858Y-26941714D01*
X22000858Y-26941718D01*
X21995000Y-27001208D01*
X20500500Y-27001208D01*
X20500500Y-24638543D01*
X22099499Y-24638543D01*
X22137947Y-24831829D01*
X22137950Y-24831839D01*
X22213364Y-25013907D01*
X22213371Y-25013920D01*
X22322860Y-25177781D01*
X22322863Y-25177785D01*
X22462214Y-25317136D01*
X22462218Y-25317139D01*
X22626079Y-25426628D01*
X22626092Y-25426635D01*
X22808160Y-25502049D01*
X22808165Y-25502051D01*
X22808169Y-25502051D01*
X22808170Y-25502052D01*
X23001456Y-25540500D01*
X23001459Y-25540500D01*
X23198543Y-25540500D01*
X23328582Y-25514632D01*
X23391835Y-25502051D01*
X23573914Y-25426632D01*
X23737782Y-25317139D01*
X23877139Y-25177782D01*
X23986632Y-25013914D01*
X24062051Y-24831835D01*
X24100500Y-24638543D01*
X39879499Y-24638543D01*
X39917947Y-24831829D01*
X39917950Y-24831839D01*
X39993364Y-25013907D01*
X39993371Y-25013920D01*
X40102860Y-25177781D01*
X40102863Y-25177785D01*
X40242214Y-25317136D01*
X40242218Y-25317139D01*
X40406079Y-25426628D01*
X40406092Y-25426635D01*
X40588160Y-25502049D01*
X40588165Y-25502051D01*
X40588169Y-25502051D01*
X40588170Y-25502052D01*
X40781456Y-25540500D01*
X40781459Y-25540500D01*
X40978543Y-25540500D01*
X41108582Y-25514632D01*
X41171835Y-25502051D01*
X41353914Y-25426632D01*
X41517782Y-25317139D01*
X41657139Y-25177782D01*
X41766632Y-25013914D01*
X41842051Y-24831835D01*
X41880500Y-24638541D01*
X41880500Y-24441459D01*
X41880500Y-24441456D01*
X41842052Y-24248170D01*
X41842051Y-24248169D01*
X41842051Y-24248165D01*
X41842049Y-24248160D01*
X41766635Y-24066092D01*
X41766628Y-24066079D01*
X41657139Y-23902218D01*
X41657136Y-23902214D01*
X41517785Y-23762863D01*
X41517781Y-23762860D01*
X41353920Y-23653371D01*
X41353907Y-23653364D01*
X41171839Y-23577950D01*
X41171829Y-23577947D01*
X40978543Y-23539500D01*
X40978541Y-23539500D01*
X40781459Y-23539500D01*
X40781457Y-23539500D01*
X40588170Y-23577947D01*
X40588160Y-23577950D01*
X40406092Y-23653364D01*
X40406079Y-23653371D01*
X40242218Y-23762860D01*
X40242214Y-23762863D01*
X40102863Y-23902214D01*
X40102860Y-23902218D01*
X39993371Y-24066079D01*
X39993364Y-24066092D01*
X39917950Y-24248160D01*
X39917947Y-24248170D01*
X39879500Y-24441456D01*
X39879500Y-24441459D01*
X39879500Y-24638541D01*
X39879500Y-24638543D01*
X39879499Y-24638543D01*
X24100500Y-24638543D01*
X24100500Y-24638541D01*
X24100500Y-24441459D01*
X24100500Y-24441456D01*
X24062052Y-24248170D01*
X24062051Y-24248169D01*
X24062051Y-24248165D01*
X24062049Y-24248160D01*
X23986635Y-24066092D01*
X23986628Y-24066079D01*
X23877139Y-23902218D01*
X23877136Y-23902214D01*
X23737785Y-23762863D01*
X23737781Y-23762860D01*
X23573920Y-23653371D01*
X23573907Y-23653364D01*
X23391839Y-23577950D01*
X23391829Y-23577947D01*
X23198543Y-23539500D01*
X23198541Y-23539500D01*
X23001459Y-23539500D01*
X23001457Y-23539500D01*
X22808170Y-23577947D01*
X22808160Y-23577950D01*
X22626092Y-23653364D01*
X22626079Y-23653371D01*
X22462218Y-23762860D01*
X22462214Y-23762863D01*
X22322863Y-23902214D01*
X22322860Y-23902218D01*
X22213371Y-24066079D01*
X22213364Y-24066092D01*
X22137950Y-24248160D01*
X22137947Y-24248170D01*
X22099500Y-24441456D01*
X22099500Y-24441459D01*
X22099500Y-24638541D01*
X22099500Y-24638543D01*
X22099499Y-24638543D01*
X20500500Y-24638543D01*
X20500500Y-21368475D01*
X22099500Y-21368475D01*
X22099500Y-22631517D01*
X22107099Y-22679497D01*
X22114354Y-22725304D01*
X22171950Y-22838342D01*
X22171952Y-22838344D01*
X22171954Y-22838347D01*
X22261652Y-22928045D01*
X22261654Y-22928046D01*
X22261658Y-22928050D01*
X22374694Y-22985645D01*
X22374698Y-22985647D01*
X22468475Y-23000499D01*
X22468481Y-23000500D01*
X23731518Y-23000499D01*
X23825304Y-22985646D01*
X23938342Y-22928050D01*
X24028050Y-22838342D01*
X24085646Y-22725304D01*
X24085646Y-22725302D01*
X24085647Y-22725301D01*
X24096282Y-22658147D01*
X24100500Y-22631519D01*
X24100500Y-22098543D01*
X39879499Y-22098543D01*
X39917947Y-22291829D01*
X39917950Y-22291839D01*
X39993364Y-22473907D01*
X39993371Y-22473920D01*
X40102860Y-22637781D01*
X40102863Y-22637785D01*
X40242214Y-22777136D01*
X40242218Y-22777139D01*
X40406079Y-22886628D01*
X40406092Y-22886635D01*
X40588160Y-22962049D01*
X40588165Y-22962051D01*
X40588169Y-22962051D01*
X40588170Y-22962052D01*
X40781456Y-23000500D01*
X40781459Y-23000500D01*
X40978543Y-23000500D01*
X41108582Y-22974632D01*
X41171835Y-22962051D01*
X41353914Y-22886632D01*
X41517782Y-22777139D01*
X41581940Y-22712980D01*
X41643259Y-22679497D01*
X41712951Y-22684481D01*
X41757300Y-22712982D01*
X50912488Y-31868170D01*
X59754138Y-40709819D01*
X59787623Y-40771142D01*
X59782639Y-40840834D01*
X59740767Y-40896767D01*
X59675303Y-40921184D01*
X59610163Y-40907985D01*
X59479838Y-40841582D01*
X59292705Y-40780778D01*
X59098382Y-40750000D01*
X58901618Y-40750000D01*
X58707294Y-40780778D01*
X58520164Y-40841581D01*
X58344855Y-40930905D01*
X58344846Y-40930911D01*
X58268919Y-40986075D01*
X58268918Y-40986076D01*
X58776686Y-41493844D01*
X58662292Y-41559890D01*
X58559890Y-41662292D01*
X58493844Y-41776686D01*
X57986076Y-41268918D01*
X57986075Y-41268919D01*
X57930911Y-41344846D01*
X57930905Y-41344855D01*
X57841581Y-41520164D01*
X57780778Y-41707294D01*
X57750000Y-41901617D01*
X57750000Y-42098382D01*
X57780778Y-42292705D01*
X57841581Y-42479835D01*
X57930904Y-42655143D01*
X57986076Y-42731079D01*
X57986077Y-42731080D01*
X58493844Y-42223312D01*
X58559890Y-42337708D01*
X58662292Y-42440110D01*
X58776686Y-42506154D01*
X58268918Y-43013922D01*
X58344856Y-43069095D01*
X58520164Y-43158418D01*
X58707294Y-43219221D01*
X58901618Y-43250000D01*
X59098382Y-43250000D01*
X59292705Y-43219221D01*
X59479835Y-43158418D01*
X59655143Y-43069095D01*
X59731079Y-43013922D01*
X59731080Y-43013921D01*
X59223313Y-42506154D01*
X59337708Y-42440110D01*
X59440110Y-42337708D01*
X59506155Y-42223313D01*
X60013922Y-42731080D01*
X60013922Y-42731079D01*
X60069095Y-42655143D01*
X60158418Y-42479835D01*
X60204378Y-42338387D01*
X60243815Y-42280712D01*
X60308174Y-42253513D01*
X60377020Y-42265428D01*
X60428496Y-42312672D01*
X60440240Y-42338387D01*
X60473787Y-42441636D01*
X60473788Y-42441639D01*
X60556006Y-42602997D01*
X60662441Y-42749494D01*
X60662445Y-42749499D01*
X60790500Y-42877554D01*
X60790505Y-42877558D01*
X60900924Y-42957781D01*
X60937006Y-42983996D01*
X61023818Y-43028229D01*
X61098360Y-43066211D01*
X61098363Y-43066212D01*
X61184476Y-43094191D01*
X61270591Y-43122171D01*
X61353429Y-43135291D01*
X61449449Y-43150500D01*
X61449454Y-43150500D01*
X61630551Y-43150500D01*
X61717259Y-43136765D01*
X61809409Y-43122171D01*
X61981639Y-43066211D01*
X62142994Y-42983996D01*
X62289501Y-42877553D01*
X62417553Y-42749501D01*
X62523996Y-42602994D01*
X62606211Y-42441639D01*
X62662171Y-42269409D01*
X62679954Y-42157131D01*
X62690500Y-42090551D01*
X62690500Y-41909448D01*
X65469500Y-41909448D01*
X65469500Y-42090551D01*
X65497829Y-42269410D01*
X65553787Y-42441636D01*
X65553788Y-42441639D01*
X65636006Y-42602997D01*
X65742441Y-42749494D01*
X65742445Y-42749499D01*
X65870500Y-42877554D01*
X65870505Y-42877558D01*
X65980924Y-42957781D01*
X66017006Y-42983996D01*
X66103818Y-43028229D01*
X66178360Y-43066211D01*
X66178363Y-43066212D01*
X66264476Y-43094191D01*
X66350591Y-43122171D01*
X66433429Y-43135291D01*
X66529449Y-43150500D01*
X66529454Y-43150500D01*
X66710551Y-43150500D01*
X66797259Y-43136765D01*
X66889409Y-43122171D01*
X67061639Y-43066211D01*
X67222994Y-42983996D01*
X67369501Y-42877553D01*
X67497553Y-42749501D01*
X67603996Y-42602994D01*
X67686211Y-42441639D01*
X67719759Y-42338388D01*
X67759196Y-42280712D01*
X67823554Y-42253513D01*
X67892401Y-42265427D01*
X67943877Y-42312671D01*
X67955621Y-42338386D01*
X68001582Y-42479837D01*
X68090904Y-42655143D01*
X68146076Y-42731079D01*
X68146077Y-42731080D01*
X68653844Y-42223312D01*
X68719890Y-42337708D01*
X68822292Y-42440110D01*
X68936686Y-42506154D01*
X68428918Y-43013922D01*
X68504856Y-43069095D01*
X68680164Y-43158418D01*
X68867294Y-43219221D01*
X69061618Y-43250000D01*
X69258382Y-43250000D01*
X69452705Y-43219221D01*
X69639835Y-43158418D01*
X69815143Y-43069095D01*
X69891079Y-43013922D01*
X69891080Y-43013921D01*
X69383313Y-42506154D01*
X69497708Y-42440110D01*
X69600110Y-42337708D01*
X69666154Y-42223313D01*
X70173921Y-42731080D01*
X70173922Y-42731079D01*
X70229095Y-42655143D01*
X70318418Y-42479835D01*
X70364378Y-42338387D01*
X70403815Y-42280712D01*
X70468174Y-42253513D01*
X70537020Y-42265428D01*
X70588496Y-42312672D01*
X70600240Y-42338387D01*
X70633787Y-42441636D01*
X70633788Y-42441639D01*
X70716006Y-42602997D01*
X70822441Y-42749494D01*
X70822445Y-42749499D01*
X70950500Y-42877554D01*
X70950505Y-42877558D01*
X71060924Y-42957781D01*
X71097006Y-42983996D01*
X71183818Y-43028229D01*
X71258360Y-43066211D01*
X71258363Y-43066212D01*
X71344476Y-43094191D01*
X71430591Y-43122171D01*
X71513429Y-43135291D01*
X71609449Y-43150500D01*
X71609454Y-43150500D01*
X71790551Y-43150500D01*
X71877259Y-43136765D01*
X71969409Y-43122171D01*
X72141639Y-43066211D01*
X72302994Y-42983996D01*
X72449501Y-42877553D01*
X72577553Y-42749501D01*
X72683996Y-42602994D01*
X72766211Y-42441639D01*
X72822171Y-42269409D01*
X72839954Y-42157131D01*
X72850500Y-42090551D01*
X72850500Y-41909448D01*
X72831217Y-41787708D01*
X72822171Y-41730591D01*
X72766211Y-41558361D01*
X72766211Y-41558360D01*
X72721491Y-41470594D01*
X72683996Y-41397006D01*
X72590936Y-41268919D01*
X72577558Y-41250505D01*
X72577554Y-41250500D01*
X72449499Y-41122445D01*
X72449494Y-41122441D01*
X72302997Y-41016006D01*
X72302996Y-41016005D01*
X72302994Y-41016004D01*
X72244257Y-40986076D01*
X72141639Y-40933788D01*
X72141636Y-40933787D01*
X71969410Y-40877829D01*
X71790551Y-40849500D01*
X71790546Y-40849500D01*
X71609454Y-40849500D01*
X71609449Y-40849500D01*
X71430589Y-40877829D01*
X71258363Y-40933787D01*
X71258360Y-40933788D01*
X71097002Y-41016006D01*
X70950505Y-41122441D01*
X70950500Y-41122445D01*
X70822445Y-41250500D01*
X70822441Y-41250505D01*
X70716006Y-41397002D01*
X70633788Y-41558360D01*
X70633787Y-41558363D01*
X70600240Y-41661612D01*
X70560802Y-41719288D01*
X70496444Y-41746486D01*
X70427597Y-41734571D01*
X70376122Y-41687327D01*
X70364378Y-41661612D01*
X70318418Y-41520164D01*
X70229095Y-41344856D01*
X70173922Y-41268919D01*
X70173922Y-41268918D01*
X69666154Y-41776686D01*
X69600110Y-41662292D01*
X69497708Y-41559890D01*
X69383312Y-41493844D01*
X69891080Y-40986077D01*
X69891079Y-40986076D01*
X69815143Y-40930904D01*
X69639835Y-40841581D01*
X69452705Y-40780778D01*
X69258382Y-40750000D01*
X69061618Y-40750000D01*
X68867294Y-40780778D01*
X68680164Y-40841581D01*
X68504855Y-40930905D01*
X68504846Y-40930911D01*
X68428919Y-40986075D01*
X68428918Y-40986076D01*
X68936687Y-41493844D01*
X68822292Y-41559890D01*
X68719890Y-41662292D01*
X68653844Y-41776686D01*
X68146076Y-41268918D01*
X68146075Y-41268919D01*
X68090911Y-41344846D01*
X68090905Y-41344855D01*
X68001581Y-41520162D01*
X67955621Y-41661613D01*
X67916183Y-41719288D01*
X67851824Y-41746486D01*
X67782978Y-41734571D01*
X67731502Y-41687327D01*
X67719759Y-41661611D01*
X67686213Y-41558366D01*
X67686211Y-41558360D01*
X67641491Y-41470594D01*
X67603996Y-41397006D01*
X67510936Y-41268919D01*
X67497558Y-41250505D01*
X67497554Y-41250500D01*
X67369499Y-41122445D01*
X67369494Y-41122441D01*
X67222997Y-41016006D01*
X67222996Y-41016005D01*
X67222994Y-41016004D01*
X67164257Y-40986076D01*
X67061639Y-40933788D01*
X67061636Y-40933787D01*
X66889410Y-40877829D01*
X66710551Y-40849500D01*
X66710546Y-40849500D01*
X66529454Y-40849500D01*
X66529449Y-40849500D01*
X66350589Y-40877829D01*
X66178363Y-40933787D01*
X66178360Y-40933788D01*
X66017002Y-41016006D01*
X65870505Y-41122441D01*
X65870500Y-41122445D01*
X65742445Y-41250500D01*
X65742441Y-41250505D01*
X65636006Y-41397002D01*
X65553788Y-41558360D01*
X65553787Y-41558363D01*
X65497829Y-41730589D01*
X65469500Y-41909448D01*
X62690500Y-41909448D01*
X62671217Y-41787708D01*
X62662171Y-41730591D01*
X62606211Y-41558361D01*
X62606211Y-41558360D01*
X62561491Y-41470594D01*
X62523996Y-41397006D01*
X62430936Y-41268919D01*
X62417558Y-41250505D01*
X62417554Y-41250500D01*
X62289499Y-41122445D01*
X62289494Y-41122441D01*
X62142997Y-41016006D01*
X62142996Y-41016005D01*
X62142994Y-41016004D01*
X62084257Y-40986076D01*
X61981639Y-40933788D01*
X61981636Y-40933787D01*
X61809410Y-40877829D01*
X61630551Y-40849500D01*
X61630546Y-40849500D01*
X61449454Y-40849500D01*
X61449449Y-40849500D01*
X61270589Y-40877829D01*
X61098363Y-40933787D01*
X61098352Y-40933792D01*
X61093242Y-40936396D01*
X61024572Y-40949289D01*
X60959833Y-40923010D01*
X60949271Y-40913590D01*
X41893032Y-21857350D01*
X41859547Y-21796027D01*
X41859125Y-21794006D01*
X41842051Y-21708165D01*
X41823196Y-21662645D01*
X41766635Y-21526092D01*
X41766628Y-21526079D01*
X41657139Y-21362218D01*
X41657136Y-21362214D01*
X41517785Y-21222863D01*
X41517781Y-21222860D01*
X41353920Y-21113371D01*
X41353907Y-21113364D01*
X41171839Y-21037950D01*
X41171829Y-21037947D01*
X40978543Y-20999500D01*
X40978541Y-20999500D01*
X40781459Y-20999500D01*
X40781457Y-20999500D01*
X40588170Y-21037947D01*
X40588160Y-21037950D01*
X40406092Y-21113364D01*
X40406079Y-21113371D01*
X40242218Y-21222860D01*
X40242214Y-21222863D01*
X40102863Y-21362214D01*
X40102860Y-21362218D01*
X39993371Y-21526079D01*
X39993364Y-21526092D01*
X39917950Y-21708160D01*
X39917947Y-21708170D01*
X39879500Y-21901456D01*
X39879500Y-21901459D01*
X39879500Y-22098541D01*
X39879500Y-22098543D01*
X39879499Y-22098543D01*
X24100500Y-22098543D01*
X24100499Y-21368482D01*
X24085646Y-21274696D01*
X24028050Y-21161658D01*
X24028046Y-21161654D01*
X24028045Y-21161652D01*
X23938347Y-21071954D01*
X23938344Y-21071952D01*
X23938342Y-21071950D01*
X23861517Y-21032805D01*
X23825301Y-21014352D01*
X23731524Y-20999500D01*
X22468482Y-20999500D01*
X22387519Y-21012323D01*
X22374696Y-21014354D01*
X22261658Y-21071950D01*
X22261657Y-21071951D01*
X22261652Y-21071954D01*
X22171954Y-21161652D01*
X22171951Y-21161657D01*
X22114352Y-21274698D01*
X22099500Y-21368475D01*
X20500500Y-21368475D01*
X20500500Y-20624500D01*
X20520185Y-20557461D01*
X20572989Y-20511706D01*
X20624500Y-20500500D01*
X74375500Y-20500500D01*
X74442539Y-20520185D01*
G37*
%TD.AperFunction*%
%TD*%
M02*
