%TF.GenerationSoftware,KiCad,Pcbnew,10.0.4*%
%TF.CreationDate,2026-07-21T20:45:19-03:00*%
%TF.ProjectId,pong-retrosc,706f6e67-2d72-4657-9472-6f73632e6b69,rev?*%
%TF.SameCoordinates,Original*%
%TF.FileFunction,Legend,Bot*%
%TF.FilePolarity,Positive*%
%FSLAX46Y46*%
G04 Gerber Fmt 4.6, Leading zero omitted, Abs format (unit mm)*
G04 Created by KiCad (PCBNEW 10.0.4) date 2026-07-21 20:45:19*
%MOMM*%
%LPD*%
G01*
G04 APERTURE LIST*
G04 Aperture macros list*
%AMRoundRect*
0 Rectangle with rounded corners*
0 $1 Rounding radius*
0 $2 $3 $4 $5 $6 $7 $8 $9 X,Y pos of 4 corners*
0 Add a 4 corners polygon primitive as box body*
4,1,4,$2,$3,$4,$5,$6,$7,$8,$9,$2,$3,0*
0 Add four circle primitives for the rounded corners*
1,1,$1+$1,$2,$3*
1,1,$1+$1,$4,$5*
1,1,$1+$1,$6,$7*
1,1,$1+$1,$8,$9*
0 Add four rect primitives between the rounded corners*
20,1,$1+$1,$2,$3,$4,$5,0*
20,1,$1+$1,$4,$5,$6,$7,0*
20,1,$1+$1,$6,$7,$8,$9,0*
20,1,$1+$1,$8,$9,$2,$3,0*%
%AMFreePoly0*
4,1,37,0.603843,0.796157,0.639018,0.796157,0.711114,0.766294,0.766294,0.711114,0.796157,0.639018,0.796157,0.603843,0.800000,0.600000,0.800000,-0.600000,0.796157,-0.603843,0.796157,-0.639018,0.766294,-0.711114,0.711114,-0.766294,0.639018,-0.796157,0.603843,-0.796157,0.600000,-0.800000,0.000000,-0.800000,0.000000,-0.796148,-0.078414,-0.796148,-0.232228,-0.765552,-0.377117,-0.705537,
-0.507515,-0.618408,-0.618408,-0.507515,-0.705537,-0.377117,-0.765552,-0.232228,-0.796148,-0.078414,-0.796148,0.078414,-0.765552,0.232228,-0.705537,0.377117,-0.618408,0.507515,-0.507515,0.618408,-0.377117,0.705537,-0.232228,0.765552,-0.078414,0.796148,0.000000,0.796148,0.000000,0.800000,0.600000,0.800000,0.603843,0.796157,0.603843,0.796157,$1*%
%AMFreePoly1*
4,1,37,0.000000,0.796148,0.078414,0.796148,0.232228,0.765552,0.377117,0.705537,0.507515,0.618408,0.618408,0.507515,0.705537,0.377117,0.765552,0.232228,0.796148,0.078414,0.796148,-0.078414,0.765552,-0.232228,0.705537,-0.377117,0.618408,-0.507515,0.507515,-0.618408,0.377117,-0.705537,0.232228,-0.765552,0.078414,-0.796148,0.000000,-0.796148,0.000000,-0.800000,-0.600000,-0.800000,
-0.603843,-0.796157,-0.639018,-0.796157,-0.711114,-0.766294,-0.766294,-0.711114,-0.796157,-0.639018,-0.796157,-0.603843,-0.800000,-0.600000,-0.800000,0.600000,-0.796157,0.603843,-0.796157,0.639018,-0.766294,0.711114,-0.711114,0.766294,-0.639018,0.796157,-0.603843,0.796157,-0.600000,0.800000,0.000000,0.800000,0.000000,0.796148,0.000000,0.796148,$1*%
G04 Aperture macros list end*
%ADD10C,3.200000*%
%ADD11C,2.600000*%
%ADD12O,2.300000X3.400000*%
%ADD13O,3.400000X2.300000*%
%ADD14C,1.600000*%
%ADD15R,1.900000X1.900000*%
%ADD16C,1.900000*%
%ADD17RoundRect,0.200000X0.600000X-0.600000X0.600000X0.600000X-0.600000X0.600000X-0.600000X-0.600000X0*%
%ADD18FreePoly0,90.000000*%
%ADD19FreePoly1,90.000000*%
%ADD20R,1.700000X1.700000*%
%ADD21C,1.700000*%
%ADD22RoundRect,0.250000X0.550000X0.550000X-0.550000X0.550000X-0.550000X-0.550000X0.550000X-0.550000X0*%
G04 APERTURE END LIST*
%LPC*%
D10*
%TO.C,H2*%
X24000000Y-76000000D03*
%TD*%
D11*
%TO.C,J1*%
X104000000Y-27000000D03*
D12*
X99000000Y-27000000D03*
D13*
X104000000Y-22000000D03*
D12*
X109000000Y-27000000D03*
%TD*%
D14*
%TO.C,C3*%
X64000000Y-26000000D03*
X69000000Y-26000000D03*
%TD*%
D10*
%TO.C,H4*%
X112000000Y-70000000D03*
%TD*%
D15*
%TO.C,U2*%
X30000000Y-65000000D03*
D16*
X32540000Y-65000000D03*
X35080000Y-65000000D03*
X37620000Y-65000000D03*
X40160000Y-65000000D03*
X42700000Y-65000000D03*
X45240000Y-65000000D03*
X47780000Y-65000000D03*
X50320000Y-65000000D03*
%TD*%
D14*
%TO.C,R4*%
X62000000Y-60500000D03*
X62000000Y-70660000D03*
%TD*%
%TO.C,C1*%
X58000000Y-57000000D03*
X58000000Y-62000000D03*
%TD*%
%TO.C,R3*%
X72000000Y-57000000D03*
X61840000Y-57000000D03*
%TD*%
D11*
%TO.C,J9*%
X48000000Y-27000000D03*
D12*
X43000000Y-27000000D03*
D13*
X48000000Y-22000000D03*
D12*
X53000000Y-27000000D03*
%TD*%
D17*
%TO.C,U1*%
X27740000Y-50780000D03*
D14*
X30280000Y-50780000D03*
D18*
X32820000Y-50780000D03*
D14*
X35360000Y-50780000D03*
X37900000Y-50780000D03*
X40440000Y-50780000D03*
X42980000Y-50780000D03*
D18*
X45520000Y-50780000D03*
D14*
X48060000Y-50780000D03*
X50600000Y-50780000D03*
X53140000Y-50780000D03*
X55680000Y-50780000D03*
D18*
X58220000Y-50780000D03*
D14*
X60760000Y-50780000D03*
X63300000Y-50780000D03*
X65840000Y-50780000D03*
X68380000Y-50780000D03*
D18*
X70920000Y-50780000D03*
D14*
X73460000Y-50780000D03*
X76000000Y-50780000D03*
X76000000Y-33000000D03*
X73460000Y-33000000D03*
D19*
X70920000Y-33000000D03*
D14*
X68380000Y-33000000D03*
X65840000Y-33000000D03*
X63300000Y-33000000D03*
X60760000Y-33000000D03*
D19*
X58220000Y-33000000D03*
D14*
X55680000Y-33000000D03*
X53140000Y-33000000D03*
X50600000Y-33000000D03*
X48060000Y-33000000D03*
D19*
X45520000Y-33000000D03*
D14*
X42980000Y-33000000D03*
X40440000Y-33000000D03*
X37900000Y-33000000D03*
X35360000Y-33000000D03*
D19*
X32820000Y-33000000D03*
D14*
X30280000Y-33000000D03*
X27740000Y-33000000D03*
%TD*%
D11*
%TO.C,J8*%
X32000000Y-27000000D03*
D12*
X27000000Y-27000000D03*
D13*
X32000000Y-22000000D03*
D12*
X37000000Y-27000000D03*
%TD*%
D10*
%TO.C,H1*%
X94000000Y-25000000D03*
%TD*%
D14*
%TO.C,R2*%
X82000000Y-34000000D03*
X92160000Y-34000000D03*
%TD*%
%TO.C,R1*%
X82000000Y-30000000D03*
X92160000Y-30000000D03*
%TD*%
D20*
%TO.C,J4*%
X30000000Y-75000000D03*
D21*
X32540000Y-75000000D03*
X35080000Y-75000000D03*
X37620000Y-75000000D03*
X40160000Y-75000000D03*
X42700000Y-75000000D03*
%TD*%
D10*
%TO.C,H3*%
X112000000Y-48000000D03*
%TD*%
D22*
%TO.C,C2*%
X54000000Y-57000000D03*
D14*
X51500000Y-57000000D03*
%TD*%
%TO.C,R6*%
X46000000Y-61000000D03*
X35840000Y-61000000D03*
%TD*%
D20*
%TO.C,J5*%
X54000000Y-75000000D03*
D21*
X56540000Y-75000000D03*
X59080000Y-75000000D03*
%TD*%
D20*
%TO.C,J7*%
X71000000Y-75000000D03*
D21*
X73540000Y-75000000D03*
%TD*%
D14*
%TO.C,R5*%
X66000000Y-65000000D03*
X66000000Y-75160000D03*
%TD*%
%TO.C,C4*%
X72000000Y-26000000D03*
X77000000Y-26000000D03*
%TD*%
D20*
%TO.C,J6*%
X80000000Y-75000000D03*
D21*
X82540000Y-75000000D03*
X85080000Y-75000000D03*
%TD*%
D14*
%TO.C,R7*%
X77000000Y-60500000D03*
X66840000Y-60500000D03*
%TD*%
%LPD*%
M02*
