%TF.GenerationSoftware,KiCad,Pcbnew,10.0.4*%
%TF.CreationDate,2026-08-19T00:55:53-03:00*%
%TF.ProjectId,pong-retrosc,706f6e67-2d72-4657-9472-6f73632e6b69,rev?*%
%TF.SameCoordinates,Original*%
%TF.FileFunction,Drillmap*%
%TF.FilePolarity,Positive*%
%FSLAX45Y45*%
G04 Gerber Fmt 4.5, Leading zero omitted, Abs format (unit mm)*
G04 Created by KiCad (PCBNEW 10.0.4) date 2026-08-19 00:55:53*
%MOMM*%
%LPD*%
G01*
G04 APERTURE LIST*
%ADD10C,0.100000*%
%ADD11C,0.200000*%
%ADD12C,0.110000*%
%ADD13C,0.130000*%
%ADD14C,0.150000*%
%ADD15C,0.320000*%
G04 APERTURE END LIST*
D10*
X2000000Y-2000000D02*
X10000000Y-2000000D01*
X2000000Y-8600000D02*
X2000000Y-2000000D01*
X10000000Y-2000000D02*
X10000000Y-8600000D01*
X10000000Y-8600000D02*
X2000000Y-8600000D01*
D11*
D10*
X4240900Y-6600140D02*
X4275900Y-6635140D01*
X4275900Y-6600140D02*
X4240900Y-6635140D01*
X4599680Y-7124300D02*
X4634680Y-7159300D01*
X4634680Y-7124300D02*
X4599680Y-7159300D01*
X4640000Y-3000000D02*
G75*
G02*
X4560000Y-3000000I-40000J0D01*
G01*
X4560000Y-3000000D02*
G75*
G02*
X4640000Y-3000000I40000J0D01*
G01*
X4640000Y-3600000D02*
G75*
G02*
X4560000Y-3600000I-40000J0D01*
G01*
X4560000Y-3600000D02*
G75*
G02*
X4640000Y-3600000I40000J0D01*
G01*
X4640000Y-4200000D02*
G75*
G02*
X4560000Y-4200000I-40000J0D01*
G01*
X4560000Y-4200000D02*
G75*
G02*
X4640000Y-4200000I40000J0D01*
G01*
X4640000Y-4800000D02*
G75*
G02*
X4560000Y-4800000I-40000J0D01*
G01*
X4560000Y-4800000D02*
G75*
G02*
X4640000Y-4800000I40000J0D01*
G01*
X4640000Y-5400000D02*
G75*
G02*
X4560000Y-5400000I-40000J0D01*
G01*
X4560000Y-5400000D02*
G75*
G02*
X4640000Y-5400000I40000J0D01*
G01*
X4640000Y-6000000D02*
G75*
G02*
X4560000Y-6000000I-40000J0D01*
G01*
X4560000Y-6000000D02*
G75*
G02*
X4640000Y-6000000I40000J0D01*
G01*
X4894000Y-4200000D02*
G75*
G02*
X4814000Y-4200000I-40000J0D01*
G01*
X4814000Y-4200000D02*
G75*
G02*
X4894000Y-4200000I40000J0D01*
G01*
X4894000Y-4800000D02*
G75*
G02*
X4814000Y-4800000I-40000J0D01*
G01*
X4814000Y-4800000D02*
G75*
G02*
X4894000Y-4800000I40000J0D01*
G01*
X4894000Y-5400000D02*
G75*
G02*
X4814000Y-5400000I-40000J0D01*
G01*
X4814000Y-5400000D02*
G75*
G02*
X4894000Y-5400000I40000J0D01*
G01*
X5140000Y-3000000D02*
G75*
G02*
X5060000Y-3000000I-40000J0D01*
G01*
X5060000Y-3000000D02*
G75*
G02*
X5140000Y-3000000I40000J0D01*
G01*
X5140000Y-3600000D02*
G75*
G02*
X5060000Y-3600000I-40000J0D01*
G01*
X5060000Y-3600000D02*
G75*
G02*
X5140000Y-3600000I40000J0D01*
G01*
X5140000Y-6000000D02*
G75*
G02*
X5060000Y-6000000I-40000J0D01*
G01*
X5060000Y-6000000D02*
G75*
G02*
X5140000Y-6000000I40000J0D01*
G01*
X5640000Y-3100000D02*
G75*
G02*
X5560000Y-3100000I-40000J0D01*
G01*
X5560000Y-3100000D02*
G75*
G02*
X5640000Y-3100000I40000J0D01*
G01*
X5640000Y-3800000D02*
G75*
G02*
X5560000Y-3800000I-40000J0D01*
G01*
X5560000Y-3800000D02*
G75*
G02*
X5640000Y-3800000I40000J0D01*
G01*
X5640000Y-4400000D02*
G75*
G02*
X5560000Y-4400000I-40000J0D01*
G01*
X5560000Y-4400000D02*
G75*
G02*
X5640000Y-4400000I40000J0D01*
G01*
X5640000Y-5000000D02*
G75*
G02*
X5560000Y-5000000I-40000J0D01*
G01*
X5560000Y-5000000D02*
G75*
G02*
X5640000Y-5000000I40000J0D01*
G01*
X5640000Y-5600000D02*
G75*
G02*
X5560000Y-5600000I-40000J0D01*
G01*
X5560000Y-5600000D02*
G75*
G02*
X5640000Y-5600000I40000J0D01*
G01*
X5890000Y-3100000D02*
G75*
G02*
X5810000Y-3100000I-40000J0D01*
G01*
X5810000Y-3100000D02*
G75*
G02*
X5890000Y-3100000I40000J0D01*
G01*
X5894000Y-3800000D02*
G75*
G02*
X5814000Y-3800000I-40000J0D01*
G01*
X5814000Y-3800000D02*
G75*
G02*
X5894000Y-3800000I40000J0D01*
G01*
X5894000Y-4400000D02*
G75*
G02*
X5814000Y-4400000I-40000J0D01*
G01*
X5814000Y-4400000D02*
G75*
G02*
X5894000Y-4400000I40000J0D01*
G01*
X5894000Y-5000000D02*
G75*
G02*
X5814000Y-5000000I-40000J0D01*
G01*
X5814000Y-5000000D02*
G75*
G02*
X5894000Y-5000000I40000J0D01*
G01*
X5894000Y-5600000D02*
G75*
G02*
X5814000Y-5600000I-40000J0D01*
G01*
X5814000Y-5600000D02*
G75*
G02*
X5894000Y-5600000I40000J0D01*
G01*
X2200000Y-7950000D02*
X2200000Y-8050000D01*
X2150000Y-8000000D02*
X2250000Y-8000000D01*
X2310000Y-2150000D02*
X2310000Y-2250000D01*
X2260000Y-2200000D02*
X2360000Y-2200000D01*
X2310000Y-2404000D02*
X2310000Y-2504000D01*
X2260000Y-2454000D02*
X2360000Y-2454000D01*
X2310000Y-2658000D02*
X2310000Y-2758000D01*
X2260000Y-2708000D02*
X2360000Y-2708000D01*
X2310000Y-2912000D02*
X2310000Y-3012000D01*
X2260000Y-2962000D02*
X2360000Y-2962000D01*
X2310000Y-3166000D02*
X2310000Y-3266000D01*
X2260000Y-3216000D02*
X2360000Y-3216000D01*
X2310000Y-3420000D02*
X2310000Y-3520000D01*
X2260000Y-3470000D02*
X2360000Y-3470000D01*
X2310000Y-3674000D02*
X2310000Y-3774000D01*
X2260000Y-3724000D02*
X2360000Y-3724000D01*
X2310000Y-3928000D02*
X2310000Y-4028000D01*
X2260000Y-3978000D02*
X2360000Y-3978000D01*
X2310000Y-4182000D02*
X2310000Y-4282000D01*
X2260000Y-4232000D02*
X2360000Y-4232000D01*
X2310000Y-4436000D02*
X2310000Y-4536000D01*
X2260000Y-4486000D02*
X2360000Y-4486000D01*
X2310000Y-4690000D02*
X2310000Y-4790000D01*
X2260000Y-4740000D02*
X2360000Y-4740000D01*
X2310000Y-4944000D02*
X2310000Y-5044000D01*
X2260000Y-4994000D02*
X2360000Y-4994000D01*
X2310000Y-5198000D02*
X2310000Y-5298000D01*
X2260000Y-5248000D02*
X2360000Y-5248000D01*
X2310000Y-5452000D02*
X2310000Y-5552000D01*
X2260000Y-5502000D02*
X2360000Y-5502000D01*
X2310000Y-5706000D02*
X2310000Y-5806000D01*
X2260000Y-5756000D02*
X2360000Y-5756000D01*
X2310000Y-5960000D02*
X2310000Y-6060000D01*
X2260000Y-6010000D02*
X2360000Y-6010000D01*
X2310000Y-6214000D02*
X2310000Y-6314000D01*
X2260000Y-6264000D02*
X2360000Y-6264000D01*
X2310000Y-6468000D02*
X2310000Y-6568000D01*
X2260000Y-6518000D02*
X2360000Y-6518000D01*
X2310000Y-6722000D02*
X2310000Y-6822000D01*
X2260000Y-6772000D02*
X2360000Y-6772000D01*
X2310000Y-6976000D02*
X2310000Y-7076000D01*
X2260000Y-7026000D02*
X2360000Y-7026000D01*
X2454000Y-7950000D02*
X2454000Y-8050000D01*
X2404000Y-8000000D02*
X2504000Y-8000000D01*
X2708000Y-7950000D02*
X2708000Y-8050000D01*
X2658000Y-8000000D02*
X2758000Y-8000000D01*
X2962000Y-7950000D02*
X2962000Y-8050000D01*
X2912000Y-8000000D02*
X3012000Y-8000000D01*
X3216000Y-7950000D02*
X3216000Y-8050000D01*
X3166000Y-8000000D02*
X3266000Y-8000000D01*
X3470000Y-7950000D02*
X3470000Y-8050000D01*
X3420000Y-8000000D02*
X3520000Y-8000000D01*
X4088000Y-2150000D02*
X4088000Y-2250000D01*
X4038000Y-2200000D02*
X4138000Y-2200000D01*
X4088000Y-2404000D02*
X4088000Y-2504000D01*
X4038000Y-2454000D02*
X4138000Y-2454000D01*
X4088000Y-2658000D02*
X4088000Y-2758000D01*
X4038000Y-2708000D02*
X4138000Y-2708000D01*
X4088000Y-2912000D02*
X4088000Y-3012000D01*
X4038000Y-2962000D02*
X4138000Y-2962000D01*
X4088000Y-3166000D02*
X4088000Y-3266000D01*
X4038000Y-3216000D02*
X4138000Y-3216000D01*
X4088000Y-3420000D02*
X4088000Y-3520000D01*
X4038000Y-3470000D02*
X4138000Y-3470000D01*
X4088000Y-3674000D02*
X4088000Y-3774000D01*
X4038000Y-3724000D02*
X4138000Y-3724000D01*
X4088000Y-3928000D02*
X4088000Y-4028000D01*
X4038000Y-3978000D02*
X4138000Y-3978000D01*
X4088000Y-4182000D02*
X4088000Y-4282000D01*
X4038000Y-4232000D02*
X4138000Y-4232000D01*
X4088000Y-4436000D02*
X4088000Y-4536000D01*
X4038000Y-4486000D02*
X4138000Y-4486000D01*
X4088000Y-4690000D02*
X4088000Y-4790000D01*
X4038000Y-4740000D02*
X4138000Y-4740000D01*
X4088000Y-4944000D02*
X4088000Y-5044000D01*
X4038000Y-4994000D02*
X4138000Y-4994000D01*
X4088000Y-5198000D02*
X4088000Y-5298000D01*
X4038000Y-5248000D02*
X4138000Y-5248000D01*
X4088000Y-5452000D02*
X4088000Y-5552000D01*
X4038000Y-5502000D02*
X4138000Y-5502000D01*
X4088000Y-5706000D02*
X4088000Y-5806000D01*
X4038000Y-5756000D02*
X4138000Y-5756000D01*
X4088000Y-5960000D02*
X4088000Y-6060000D01*
X4038000Y-6010000D02*
X4138000Y-6010000D01*
X4088000Y-6214000D02*
X4088000Y-6314000D01*
X4038000Y-6264000D02*
X4138000Y-6264000D01*
X4088000Y-6468000D02*
X4088000Y-6568000D01*
X4038000Y-6518000D02*
X4138000Y-6518000D01*
X4088000Y-6722000D02*
X4088000Y-6822000D01*
X4038000Y-6772000D02*
X4138000Y-6772000D01*
X4088000Y-6976000D02*
X4088000Y-7076000D01*
X4038000Y-7026000D02*
X4138000Y-7026000D01*
X4600000Y-7950000D02*
X4600000Y-8050000D01*
X4550000Y-8000000D02*
X4650000Y-8000000D01*
X4854000Y-7950000D02*
X4854000Y-8050000D01*
X4804000Y-8000000D02*
X4904000Y-8000000D01*
X6700000Y-7950000D02*
X6700000Y-8050000D01*
X6650000Y-8000000D02*
X6750000Y-8000000D01*
X6954000Y-7950000D02*
X6954000Y-8050000D01*
X6904000Y-8000000D02*
X7004000Y-8000000D01*
X7208000Y-7950000D02*
X7208000Y-8050000D01*
X7158000Y-8000000D02*
X7258000Y-8000000D01*
X7716000Y-7950000D02*
X7716000Y-8050000D01*
X7666000Y-8000000D02*
X7766000Y-8000000D01*
X7970000Y-7950000D02*
X7970000Y-8050000D01*
X7920000Y-8000000D02*
X8020000Y-8000000D01*
X8224000Y-7950000D02*
X8224000Y-8050000D01*
X8174000Y-8000000D02*
X8274000Y-8000000D01*
D12*
X6738891Y-4238891D02*
X6738891Y-4161109D01*
X6661109Y-4161109D01*
X6661109Y-4238891D01*
X6738891Y-4238891D01*
X6992891Y-4238891D02*
X6992891Y-4161109D01*
X6915109Y-4161109D01*
X6915109Y-4238891D01*
X6992891Y-4238891D01*
X7246891Y-4238891D02*
X7246891Y-4161109D01*
X7169109Y-4161109D01*
X7169109Y-4238891D01*
X7246891Y-4238891D01*
X7500891Y-4238891D02*
X7500891Y-4161109D01*
X7423109Y-4161109D01*
X7423109Y-4238891D01*
X7500891Y-4238891D01*
X8008891Y-4238891D02*
X8008891Y-4161109D01*
X7931109Y-4161109D01*
X7931109Y-4238891D01*
X8008891Y-4238891D01*
X8262891Y-4238891D02*
X8262891Y-4161109D01*
X8185109Y-4161109D01*
X8185109Y-4238891D01*
X8262891Y-4238891D01*
X8770891Y-4238891D02*
X8770891Y-4161109D01*
X8693109Y-4161109D01*
X8693109Y-4238891D01*
X8770891Y-4238891D01*
X9024891Y-4238891D02*
X9024891Y-4161109D01*
X8947109Y-4161109D01*
X8947109Y-4238891D01*
X9024891Y-4238891D01*
X9278891Y-4238891D02*
X9278891Y-4161109D01*
X9201109Y-4161109D01*
X9201109Y-4238891D01*
X9278891Y-4238891D01*
D13*
X9250000Y-4865000D02*
X9315000Y-4800000D01*
X9250000Y-4735000D01*
X9185000Y-4800000D01*
X9250000Y-4865000D01*
D10*
X9195000Y-4865000D02*
X9305000Y-4865000D01*
X9305000Y-4735000D02*
G75*
G02*
X9305000Y-4865000I0J-65000D01*
G01*
X9305000Y-4735000D02*
X9195000Y-4735000D01*
X9195000Y-4735000D02*
G75*
G03*
X9195000Y-4865000I0J-65000D01*
G01*
D13*
X9250000Y-5865000D02*
X9315000Y-5800000D01*
X9250000Y-5735000D01*
X9185000Y-5800000D01*
X9250000Y-5865000D01*
D10*
X9195000Y-5865000D02*
X9305000Y-5865000D01*
X9305000Y-5735000D02*
G75*
G02*
X9305000Y-5865000I0J-65000D01*
G01*
X9305000Y-5735000D02*
X9195000Y-5735000D01*
X9195000Y-5735000D02*
G75*
G03*
X9195000Y-5865000I0J-65000D01*
G01*
D13*
X9250000Y-6165000D02*
X9315000Y-6100000D01*
X9250000Y-6035000D01*
X9185000Y-6100000D01*
X9250000Y-6165000D01*
D10*
X9195000Y-6165000D02*
X9305000Y-6165000D01*
X9305000Y-6035000D02*
G75*
G02*
X9305000Y-6165000I0J-65000D01*
G01*
X9305000Y-6035000D02*
X9195000Y-6035000D01*
X9195000Y-6035000D02*
G75*
G03*
X9195000Y-6165000I0J-65000D01*
G01*
D13*
X9250000Y-7165000D02*
X9315000Y-7100000D01*
X9250000Y-7035000D01*
X9185000Y-7100000D01*
X9250000Y-7165000D01*
D10*
X9195000Y-7165000D02*
X9305000Y-7165000D01*
X9305000Y-7035000D02*
G75*
G02*
X9305000Y-7165000I0J-65000D01*
G01*
X9305000Y-7035000D02*
X9195000Y-7035000D01*
X9195000Y-7035000D02*
G75*
G03*
X9195000Y-7165000I0J-65000D01*
G01*
D13*
X9250000Y-7465000D02*
X9315000Y-7400000D01*
X9250000Y-7335000D01*
X9185000Y-7400000D01*
X9250000Y-7465000D01*
D10*
X9195000Y-7465000D02*
X9305000Y-7465000D01*
X9305000Y-7335000D02*
G75*
G02*
X9305000Y-7465000I0J-65000D01*
G01*
X9305000Y-7335000D02*
X9195000Y-7335000D01*
X9195000Y-7335000D02*
G75*
G03*
X9195000Y-7465000I0J-65000D01*
G01*
D13*
X9250000Y-8465000D02*
X9315000Y-8400000D01*
X9250000Y-8335000D01*
X9185000Y-8400000D01*
X9250000Y-8465000D01*
D10*
X9195000Y-8465000D02*
X9305000Y-8465000D01*
X9305000Y-8335000D02*
G75*
G02*
X9305000Y-8465000I0J-65000D01*
G01*
X9305000Y-8335000D02*
X9195000Y-8335000D01*
X9195000Y-8335000D02*
G75*
G03*
X9195000Y-8465000I0J-65000D01*
G01*
D13*
X9750000Y-5365000D02*
X9815000Y-5300000D01*
X9750000Y-5235000D01*
X9685000Y-5300000D01*
X9750000Y-5365000D01*
D10*
X9685000Y-5245000D02*
X9685000Y-5355000D01*
X9815000Y-5355000D02*
G75*
G02*
X9685000Y-5355000I-65000J0D01*
G01*
X9815000Y-5355000D02*
X9815000Y-5245000D01*
X9815000Y-5245000D02*
G75*
G03*
X9685000Y-5245000I-65000J0D01*
G01*
D13*
X9750000Y-6665000D02*
X9815000Y-6600000D01*
X9750000Y-6535000D01*
X9685000Y-6600000D01*
X9750000Y-6665000D01*
D10*
X9685000Y-6545000D02*
X9685000Y-6655000D01*
X9815000Y-6655000D02*
G75*
G02*
X9685000Y-6655000I-65000J0D01*
G01*
X9815000Y-6655000D02*
X9815000Y-6545000D01*
X9815000Y-6545000D02*
G75*
G03*
X9685000Y-6545000I-65000J0D01*
G01*
D13*
X9750000Y-7965000D02*
X9815000Y-7900000D01*
X9750000Y-7835000D01*
X9685000Y-7900000D01*
X9750000Y-7965000D01*
D10*
X9685000Y-7845000D02*
X9685000Y-7955000D01*
X9815000Y-7955000D02*
G75*
G02*
X9685000Y-7955000I-65000J0D01*
G01*
X9815000Y-7955000D02*
X9815000Y-7845000D01*
X9815000Y-7845000D02*
G75*
G03*
X9685000Y-7845000I-65000J0D01*
G01*
D14*
X9175000Y-5225000D02*
X9325000Y-5375000D01*
X9325000Y-5225000D02*
X9175000Y-5375000D01*
X9325000Y-5300000D02*
G75*
G02*
X9175000Y-5300000I-75000J0D01*
G01*
X9175000Y-5300000D02*
G75*
G02*
X9325000Y-5300000I75000J0D01*
G01*
X9175000Y-6525000D02*
X9325000Y-6675000D01*
X9325000Y-6525000D02*
X9175000Y-6675000D01*
X9325000Y-6600000D02*
G75*
G02*
X9175000Y-6600000I-75000J0D01*
G01*
X9175000Y-6600000D02*
G75*
G02*
X9325000Y-6600000I75000J0D01*
G01*
X9175000Y-7825000D02*
X9325000Y-7975000D01*
X9325000Y-7825000D02*
X9175000Y-7975000D01*
X9325000Y-7900000D02*
G75*
G02*
X9175000Y-7900000I-75000J0D01*
G01*
X9175000Y-7900000D02*
G75*
G02*
X9325000Y-7900000I75000J0D01*
G01*
D15*
X5840000Y-2240000D02*
X6160000Y-2560000D01*
X6160000Y-2240000D02*
X5840000Y-2560000D01*
X6000000Y-2240000D02*
X6000000Y-2560000D01*
X5840000Y-2400000D02*
X6160000Y-2400000D01*
X5840000Y-8040000D02*
X6160000Y-8360000D01*
X6160000Y-8040000D02*
X5840000Y-8360000D01*
X6000000Y-8040000D02*
X6000000Y-8360000D01*
X5840000Y-8200000D02*
X6160000Y-8200000D01*
D11*
X2255777Y-8916484D02*
X2255777Y-8716484D01*
X2255777Y-8716484D02*
X2303396Y-8716484D01*
X2303396Y-8716484D02*
X2331967Y-8726008D01*
X2331967Y-8726008D02*
X2351015Y-8745055D01*
X2351015Y-8745055D02*
X2360539Y-8764103D01*
X2360539Y-8764103D02*
X2370063Y-8802198D01*
X2370063Y-8802198D02*
X2370063Y-8830770D01*
X2370063Y-8830770D02*
X2360539Y-8868865D01*
X2360539Y-8868865D02*
X2351015Y-8887912D01*
X2351015Y-8887912D02*
X2331967Y-8906960D01*
X2331967Y-8906960D02*
X2303396Y-8916484D01*
X2303396Y-8916484D02*
X2255777Y-8916484D01*
X2455777Y-8916484D02*
X2455777Y-8783150D01*
X2455777Y-8821246D02*
X2465301Y-8802198D01*
X2465301Y-8802198D02*
X2474824Y-8792674D01*
X2474824Y-8792674D02*
X2493872Y-8783150D01*
X2493872Y-8783150D02*
X2512920Y-8783150D01*
X2579586Y-8916484D02*
X2579586Y-8783150D01*
X2579586Y-8716484D02*
X2570063Y-8726008D01*
X2570063Y-8726008D02*
X2579586Y-8735531D01*
X2579586Y-8735531D02*
X2589110Y-8726008D01*
X2589110Y-8726008D02*
X2579586Y-8716484D01*
X2579586Y-8716484D02*
X2579586Y-8735531D01*
X2703396Y-8916484D02*
X2684348Y-8906960D01*
X2684348Y-8906960D02*
X2674824Y-8887912D01*
X2674824Y-8887912D02*
X2674824Y-8716484D01*
X2808158Y-8916484D02*
X2789110Y-8906960D01*
X2789110Y-8906960D02*
X2779586Y-8887912D01*
X2779586Y-8887912D02*
X2779586Y-8716484D01*
X3036729Y-8916484D02*
X3036729Y-8716484D01*
X3036729Y-8716484D02*
X3103396Y-8859341D01*
X3103396Y-8859341D02*
X3170062Y-8716484D01*
X3170062Y-8716484D02*
X3170062Y-8916484D01*
X3351015Y-8916484D02*
X3351015Y-8811722D01*
X3351015Y-8811722D02*
X3341491Y-8792674D01*
X3341491Y-8792674D02*
X3322443Y-8783150D01*
X3322443Y-8783150D02*
X3284348Y-8783150D01*
X3284348Y-8783150D02*
X3265301Y-8792674D01*
X3351015Y-8906960D02*
X3331967Y-8916484D01*
X3331967Y-8916484D02*
X3284348Y-8916484D01*
X3284348Y-8916484D02*
X3265301Y-8906960D01*
X3265301Y-8906960D02*
X3255777Y-8887912D01*
X3255777Y-8887912D02*
X3255777Y-8868865D01*
X3255777Y-8868865D02*
X3265301Y-8849817D01*
X3265301Y-8849817D02*
X3284348Y-8840293D01*
X3284348Y-8840293D02*
X3331967Y-8840293D01*
X3331967Y-8840293D02*
X3351015Y-8830770D01*
X3446253Y-8783150D02*
X3446253Y-8983150D01*
X3446253Y-8792674D02*
X3465301Y-8783150D01*
X3465301Y-8783150D02*
X3503396Y-8783150D01*
X3503396Y-8783150D02*
X3522443Y-8792674D01*
X3522443Y-8792674D02*
X3531967Y-8802198D01*
X3531967Y-8802198D02*
X3541491Y-8821246D01*
X3541491Y-8821246D02*
X3541491Y-8878389D01*
X3541491Y-8878389D02*
X3531967Y-8897436D01*
X3531967Y-8897436D02*
X3522443Y-8906960D01*
X3522443Y-8906960D02*
X3503396Y-8916484D01*
X3503396Y-8916484D02*
X3465301Y-8916484D01*
X3465301Y-8916484D02*
X3446253Y-8906960D01*
X3627205Y-8897436D02*
X3636729Y-8906960D01*
X3636729Y-8906960D02*
X3627205Y-8916484D01*
X3627205Y-8916484D02*
X3617682Y-8906960D01*
X3617682Y-8906960D02*
X3627205Y-8897436D01*
X3627205Y-8897436D02*
X3627205Y-8916484D01*
X3627205Y-8792674D02*
X3636729Y-8802198D01*
X3636729Y-8802198D02*
X3627205Y-8811722D01*
X3627205Y-8811722D02*
X3617682Y-8802198D01*
X3617682Y-8802198D02*
X3627205Y-8792674D01*
X3627205Y-8792674D02*
X3627205Y-8811722D01*
D10*
X1960000Y-9227500D02*
X1995000Y-9262500D01*
X1995000Y-9227500D02*
X1960000Y-9262500D01*
D11*
X2293872Y-9136484D02*
X2312920Y-9136484D01*
X2312920Y-9136484D02*
X2331967Y-9146008D01*
X2331967Y-9146008D02*
X2341491Y-9155531D01*
X2341491Y-9155531D02*
X2351015Y-9174579D01*
X2351015Y-9174579D02*
X2360539Y-9212674D01*
X2360539Y-9212674D02*
X2360539Y-9260293D01*
X2360539Y-9260293D02*
X2351015Y-9298389D01*
X2351015Y-9298389D02*
X2341491Y-9317436D01*
X2341491Y-9317436D02*
X2331967Y-9326960D01*
X2331967Y-9326960D02*
X2312920Y-9336484D01*
X2312920Y-9336484D02*
X2293872Y-9336484D01*
X2293872Y-9336484D02*
X2274824Y-9326960D01*
X2274824Y-9326960D02*
X2265301Y-9317436D01*
X2265301Y-9317436D02*
X2255777Y-9298389D01*
X2255777Y-9298389D02*
X2246253Y-9260293D01*
X2246253Y-9260293D02*
X2246253Y-9212674D01*
X2246253Y-9212674D02*
X2255777Y-9174579D01*
X2255777Y-9174579D02*
X2265301Y-9155531D01*
X2265301Y-9155531D02*
X2274824Y-9146008D01*
X2274824Y-9146008D02*
X2293872Y-9136484D01*
X2455777Y-9326960D02*
X2455777Y-9336484D01*
X2455777Y-9336484D02*
X2446253Y-9355531D01*
X2446253Y-9355531D02*
X2436729Y-9365055D01*
X2522444Y-9136484D02*
X2646253Y-9136484D01*
X2646253Y-9136484D02*
X2579586Y-9212674D01*
X2579586Y-9212674D02*
X2608158Y-9212674D01*
X2608158Y-9212674D02*
X2627205Y-9222198D01*
X2627205Y-9222198D02*
X2636729Y-9231722D01*
X2636729Y-9231722D02*
X2646253Y-9250770D01*
X2646253Y-9250770D02*
X2646253Y-9298389D01*
X2646253Y-9298389D02*
X2636729Y-9317436D01*
X2636729Y-9317436D02*
X2627205Y-9326960D01*
X2627205Y-9326960D02*
X2608158Y-9336484D01*
X2608158Y-9336484D02*
X2551015Y-9336484D01*
X2551015Y-9336484D02*
X2531967Y-9326960D01*
X2531967Y-9326960D02*
X2522444Y-9317436D01*
X2827205Y-9136484D02*
X2731967Y-9136484D01*
X2731967Y-9136484D02*
X2722444Y-9231722D01*
X2722444Y-9231722D02*
X2731967Y-9222198D01*
X2731967Y-9222198D02*
X2751015Y-9212674D01*
X2751015Y-9212674D02*
X2798634Y-9212674D01*
X2798634Y-9212674D02*
X2817682Y-9222198D01*
X2817682Y-9222198D02*
X2827205Y-9231722D01*
X2827205Y-9231722D02*
X2836729Y-9250770D01*
X2836729Y-9250770D02*
X2836729Y-9298389D01*
X2836729Y-9298389D02*
X2827205Y-9317436D01*
X2827205Y-9317436D02*
X2817682Y-9326960D01*
X2817682Y-9326960D02*
X2798634Y-9336484D01*
X2798634Y-9336484D02*
X2751015Y-9336484D01*
X2751015Y-9336484D02*
X2731967Y-9326960D01*
X2731967Y-9326960D02*
X2722444Y-9317436D01*
X2960539Y-9136484D02*
X2979586Y-9136484D01*
X2979586Y-9136484D02*
X2998634Y-9146008D01*
X2998634Y-9146008D02*
X3008158Y-9155531D01*
X3008158Y-9155531D02*
X3017682Y-9174579D01*
X3017682Y-9174579D02*
X3027205Y-9212674D01*
X3027205Y-9212674D02*
X3027205Y-9260293D01*
X3027205Y-9260293D02*
X3017682Y-9298389D01*
X3017682Y-9298389D02*
X3008158Y-9317436D01*
X3008158Y-9317436D02*
X2998634Y-9326960D01*
X2998634Y-9326960D02*
X2979586Y-9336484D01*
X2979586Y-9336484D02*
X2960539Y-9336484D01*
X2960539Y-9336484D02*
X2941491Y-9326960D01*
X2941491Y-9326960D02*
X2931967Y-9317436D01*
X2931967Y-9317436D02*
X2922443Y-9298389D01*
X2922443Y-9298389D02*
X2912920Y-9260293D01*
X2912920Y-9260293D02*
X2912920Y-9212674D01*
X2912920Y-9212674D02*
X2922443Y-9174579D01*
X2922443Y-9174579D02*
X2931967Y-9155531D01*
X2931967Y-9155531D02*
X2941491Y-9146008D01*
X2941491Y-9146008D02*
X2960539Y-9136484D01*
X3112920Y-9336484D02*
X3112920Y-9203150D01*
X3112920Y-9222198D02*
X3122443Y-9212674D01*
X3122443Y-9212674D02*
X3141491Y-9203150D01*
X3141491Y-9203150D02*
X3170063Y-9203150D01*
X3170063Y-9203150D02*
X3189110Y-9212674D01*
X3189110Y-9212674D02*
X3198634Y-9231722D01*
X3198634Y-9231722D02*
X3198634Y-9336484D01*
X3198634Y-9231722D02*
X3208158Y-9212674D01*
X3208158Y-9212674D02*
X3227205Y-9203150D01*
X3227205Y-9203150D02*
X3255777Y-9203150D01*
X3255777Y-9203150D02*
X3274824Y-9212674D01*
X3274824Y-9212674D02*
X3284348Y-9231722D01*
X3284348Y-9231722D02*
X3284348Y-9336484D01*
X3379586Y-9336484D02*
X3379586Y-9203150D01*
X3379586Y-9222198D02*
X3389110Y-9212674D01*
X3389110Y-9212674D02*
X3408158Y-9203150D01*
X3408158Y-9203150D02*
X3436729Y-9203150D01*
X3436729Y-9203150D02*
X3455777Y-9212674D01*
X3455777Y-9212674D02*
X3465301Y-9231722D01*
X3465301Y-9231722D02*
X3465301Y-9336484D01*
X3465301Y-9231722D02*
X3474824Y-9212674D01*
X3474824Y-9212674D02*
X3493872Y-9203150D01*
X3493872Y-9203150D02*
X3522443Y-9203150D01*
X3522443Y-9203150D02*
X3541491Y-9212674D01*
X3541491Y-9212674D02*
X3551015Y-9231722D01*
X3551015Y-9231722D02*
X3551015Y-9336484D01*
X3941491Y-9126960D02*
X3770063Y-9384103D01*
X4198634Y-9136484D02*
X4217682Y-9136484D01*
X4217682Y-9136484D02*
X4236729Y-9146008D01*
X4236729Y-9146008D02*
X4246253Y-9155531D01*
X4246253Y-9155531D02*
X4255777Y-9174579D01*
X4255777Y-9174579D02*
X4265301Y-9212674D01*
X4265301Y-9212674D02*
X4265301Y-9260293D01*
X4265301Y-9260293D02*
X4255777Y-9298389D01*
X4255777Y-9298389D02*
X4246253Y-9317436D01*
X4246253Y-9317436D02*
X4236729Y-9326960D01*
X4236729Y-9326960D02*
X4217682Y-9336484D01*
X4217682Y-9336484D02*
X4198634Y-9336484D01*
X4198634Y-9336484D02*
X4179586Y-9326960D01*
X4179586Y-9326960D02*
X4170063Y-9317436D01*
X4170063Y-9317436D02*
X4160539Y-9298389D01*
X4160539Y-9298389D02*
X4151015Y-9260293D01*
X4151015Y-9260293D02*
X4151015Y-9212674D01*
X4151015Y-9212674D02*
X4160539Y-9174579D01*
X4160539Y-9174579D02*
X4170063Y-9155531D01*
X4170063Y-9155531D02*
X4179586Y-9146008D01*
X4179586Y-9146008D02*
X4198634Y-9136484D01*
X4360539Y-9326960D02*
X4360539Y-9336484D01*
X4360539Y-9336484D02*
X4351015Y-9355531D01*
X4351015Y-9355531D02*
X4341491Y-9365055D01*
X4484348Y-9136484D02*
X4503396Y-9136484D01*
X4503396Y-9136484D02*
X4522444Y-9146008D01*
X4522444Y-9146008D02*
X4531968Y-9155531D01*
X4531968Y-9155531D02*
X4541491Y-9174579D01*
X4541491Y-9174579D02*
X4551015Y-9212674D01*
X4551015Y-9212674D02*
X4551015Y-9260293D01*
X4551015Y-9260293D02*
X4541491Y-9298389D01*
X4541491Y-9298389D02*
X4531968Y-9317436D01*
X4531968Y-9317436D02*
X4522444Y-9326960D01*
X4522444Y-9326960D02*
X4503396Y-9336484D01*
X4503396Y-9336484D02*
X4484348Y-9336484D01*
X4484348Y-9336484D02*
X4465301Y-9326960D01*
X4465301Y-9326960D02*
X4455777Y-9317436D01*
X4455777Y-9317436D02*
X4446253Y-9298389D01*
X4446253Y-9298389D02*
X4436729Y-9260293D01*
X4436729Y-9260293D02*
X4436729Y-9212674D01*
X4436729Y-9212674D02*
X4446253Y-9174579D01*
X4446253Y-9174579D02*
X4455777Y-9155531D01*
X4455777Y-9155531D02*
X4465301Y-9146008D01*
X4465301Y-9146008D02*
X4484348Y-9136484D01*
X4741491Y-9336484D02*
X4627206Y-9336484D01*
X4684348Y-9336484D02*
X4684348Y-9136484D01*
X4684348Y-9136484D02*
X4665301Y-9165055D01*
X4665301Y-9165055D02*
X4646253Y-9184103D01*
X4646253Y-9184103D02*
X4627206Y-9193627D01*
X4808158Y-9136484D02*
X4931968Y-9136484D01*
X4931968Y-9136484D02*
X4865301Y-9212674D01*
X4865301Y-9212674D02*
X4893872Y-9212674D01*
X4893872Y-9212674D02*
X4912920Y-9222198D01*
X4912920Y-9222198D02*
X4922444Y-9231722D01*
X4922444Y-9231722D02*
X4931968Y-9250770D01*
X4931968Y-9250770D02*
X4931968Y-9298389D01*
X4931968Y-9298389D02*
X4922444Y-9317436D01*
X4922444Y-9317436D02*
X4912920Y-9326960D01*
X4912920Y-9326960D02*
X4893872Y-9336484D01*
X4893872Y-9336484D02*
X4836729Y-9336484D01*
X4836729Y-9336484D02*
X4817682Y-9326960D01*
X4817682Y-9326960D02*
X4808158Y-9317436D01*
X5046253Y-9222198D02*
X5027206Y-9212674D01*
X5027206Y-9212674D02*
X5017682Y-9203150D01*
X5017682Y-9203150D02*
X5008158Y-9184103D01*
X5008158Y-9184103D02*
X5008158Y-9174579D01*
X5008158Y-9174579D02*
X5017682Y-9155531D01*
X5017682Y-9155531D02*
X5027206Y-9146008D01*
X5027206Y-9146008D02*
X5046253Y-9136484D01*
X5046253Y-9136484D02*
X5084349Y-9136484D01*
X5084349Y-9136484D02*
X5103396Y-9146008D01*
X5103396Y-9146008D02*
X5112920Y-9155531D01*
X5112920Y-9155531D02*
X5122444Y-9174579D01*
X5122444Y-9174579D02*
X5122444Y-9184103D01*
X5122444Y-9184103D02*
X5112920Y-9203150D01*
X5112920Y-9203150D02*
X5103396Y-9212674D01*
X5103396Y-9212674D02*
X5084349Y-9222198D01*
X5084349Y-9222198D02*
X5046253Y-9222198D01*
X5046253Y-9222198D02*
X5027206Y-9231722D01*
X5027206Y-9231722D02*
X5017682Y-9241246D01*
X5017682Y-9241246D02*
X5008158Y-9260293D01*
X5008158Y-9260293D02*
X5008158Y-9298389D01*
X5008158Y-9298389D02*
X5017682Y-9317436D01*
X5017682Y-9317436D02*
X5027206Y-9326960D01*
X5027206Y-9326960D02*
X5046253Y-9336484D01*
X5046253Y-9336484D02*
X5084349Y-9336484D01*
X5084349Y-9336484D02*
X5103396Y-9326960D01*
X5103396Y-9326960D02*
X5112920Y-9317436D01*
X5112920Y-9317436D02*
X5122444Y-9298389D01*
X5122444Y-9298389D02*
X5122444Y-9260293D01*
X5122444Y-9260293D02*
X5112920Y-9241246D01*
X5112920Y-9241246D02*
X5103396Y-9231722D01*
X5103396Y-9231722D02*
X5084349Y-9222198D01*
X5198634Y-9136484D02*
X5198634Y-9174579D01*
X5274825Y-9136484D02*
X5274825Y-9174579D01*
X5570063Y-9412674D02*
X5560539Y-9403150D01*
X5560539Y-9403150D02*
X5541491Y-9374579D01*
X5541491Y-9374579D02*
X5531968Y-9355531D01*
X5531968Y-9355531D02*
X5522444Y-9326960D01*
X5522444Y-9326960D02*
X5512920Y-9279341D01*
X5512920Y-9279341D02*
X5512920Y-9241246D01*
X5512920Y-9241246D02*
X5522444Y-9193627D01*
X5522444Y-9193627D02*
X5531968Y-9165055D01*
X5531968Y-9165055D02*
X5541491Y-9146008D01*
X5541491Y-9146008D02*
X5560539Y-9117436D01*
X5560539Y-9117436D02*
X5570063Y-9107912D01*
X5636729Y-9155531D02*
X5646253Y-9146008D01*
X5646253Y-9146008D02*
X5665301Y-9136484D01*
X5665301Y-9136484D02*
X5712920Y-9136484D01*
X5712920Y-9136484D02*
X5731968Y-9146008D01*
X5731968Y-9146008D02*
X5741491Y-9155531D01*
X5741491Y-9155531D02*
X5751015Y-9174579D01*
X5751015Y-9174579D02*
X5751015Y-9193627D01*
X5751015Y-9193627D02*
X5741491Y-9222198D01*
X5741491Y-9222198D02*
X5627206Y-9336484D01*
X5627206Y-9336484D02*
X5751015Y-9336484D01*
X5989110Y-9336484D02*
X5989110Y-9136484D01*
X6074825Y-9336484D02*
X6074825Y-9231722D01*
X6074825Y-9231722D02*
X6065301Y-9212674D01*
X6065301Y-9212674D02*
X6046253Y-9203150D01*
X6046253Y-9203150D02*
X6017682Y-9203150D01*
X6017682Y-9203150D02*
X5998634Y-9212674D01*
X5998634Y-9212674D02*
X5989110Y-9222198D01*
X6198634Y-9336484D02*
X6179587Y-9326960D01*
X6179587Y-9326960D02*
X6170063Y-9317436D01*
X6170063Y-9317436D02*
X6160539Y-9298389D01*
X6160539Y-9298389D02*
X6160539Y-9241246D01*
X6160539Y-9241246D02*
X6170063Y-9222198D01*
X6170063Y-9222198D02*
X6179587Y-9212674D01*
X6179587Y-9212674D02*
X6198634Y-9203150D01*
X6198634Y-9203150D02*
X6227206Y-9203150D01*
X6227206Y-9203150D02*
X6246253Y-9212674D01*
X6246253Y-9212674D02*
X6255777Y-9222198D01*
X6255777Y-9222198D02*
X6265301Y-9241246D01*
X6265301Y-9241246D02*
X6265301Y-9298389D01*
X6265301Y-9298389D02*
X6255777Y-9317436D01*
X6255777Y-9317436D02*
X6246253Y-9326960D01*
X6246253Y-9326960D02*
X6227206Y-9336484D01*
X6227206Y-9336484D02*
X6198634Y-9336484D01*
X6379587Y-9336484D02*
X6360539Y-9326960D01*
X6360539Y-9326960D02*
X6351015Y-9307912D01*
X6351015Y-9307912D02*
X6351015Y-9136484D01*
X6531968Y-9326960D02*
X6512920Y-9336484D01*
X6512920Y-9336484D02*
X6474825Y-9336484D01*
X6474825Y-9336484D02*
X6455777Y-9326960D01*
X6455777Y-9326960D02*
X6446253Y-9307912D01*
X6446253Y-9307912D02*
X6446253Y-9231722D01*
X6446253Y-9231722D02*
X6455777Y-9212674D01*
X6455777Y-9212674D02*
X6474825Y-9203150D01*
X6474825Y-9203150D02*
X6512920Y-9203150D01*
X6512920Y-9203150D02*
X6531968Y-9212674D01*
X6531968Y-9212674D02*
X6541491Y-9231722D01*
X6541491Y-9231722D02*
X6541491Y-9250770D01*
X6541491Y-9250770D02*
X6446253Y-9269817D01*
X6617682Y-9326960D02*
X6636730Y-9336484D01*
X6636730Y-9336484D02*
X6674825Y-9336484D01*
X6674825Y-9336484D02*
X6693872Y-9326960D01*
X6693872Y-9326960D02*
X6703396Y-9307912D01*
X6703396Y-9307912D02*
X6703396Y-9298389D01*
X6703396Y-9298389D02*
X6693872Y-9279341D01*
X6693872Y-9279341D02*
X6674825Y-9269817D01*
X6674825Y-9269817D02*
X6646253Y-9269817D01*
X6646253Y-9269817D02*
X6627206Y-9260293D01*
X6627206Y-9260293D02*
X6617682Y-9241246D01*
X6617682Y-9241246D02*
X6617682Y-9231722D01*
X6617682Y-9231722D02*
X6627206Y-9212674D01*
X6627206Y-9212674D02*
X6646253Y-9203150D01*
X6646253Y-9203150D02*
X6674825Y-9203150D01*
X6674825Y-9203150D02*
X6693872Y-9212674D01*
X6770063Y-9412674D02*
X6779587Y-9403150D01*
X6779587Y-9403150D02*
X6798634Y-9374579D01*
X6798634Y-9374579D02*
X6808158Y-9355531D01*
X6808158Y-9355531D02*
X6817682Y-9326960D01*
X6817682Y-9326960D02*
X6827206Y-9279341D01*
X6827206Y-9279341D02*
X6827206Y-9241246D01*
X6827206Y-9241246D02*
X6817682Y-9193627D01*
X6817682Y-9193627D02*
X6808158Y-9165055D01*
X6808158Y-9165055D02*
X6798634Y-9146008D01*
X6798634Y-9146008D02*
X6779587Y-9117436D01*
X6779587Y-9117436D02*
X6770063Y-9107912D01*
D10*
X1995000Y-9509000D02*
G75*
G02*
X1915000Y-9509000I-40000J0D01*
G01*
X1915000Y-9509000D02*
G75*
G02*
X1995000Y-9509000I40000J0D01*
G01*
D11*
X2293872Y-9400484D02*
X2312920Y-9400484D01*
X2312920Y-9400484D02*
X2331967Y-9410008D01*
X2331967Y-9410008D02*
X2341491Y-9419531D01*
X2341491Y-9419531D02*
X2351015Y-9438579D01*
X2351015Y-9438579D02*
X2360539Y-9476674D01*
X2360539Y-9476674D02*
X2360539Y-9524293D01*
X2360539Y-9524293D02*
X2351015Y-9562389D01*
X2351015Y-9562389D02*
X2341491Y-9581436D01*
X2341491Y-9581436D02*
X2331967Y-9590960D01*
X2331967Y-9590960D02*
X2312920Y-9600484D01*
X2312920Y-9600484D02*
X2293872Y-9600484D01*
X2293872Y-9600484D02*
X2274824Y-9590960D01*
X2274824Y-9590960D02*
X2265301Y-9581436D01*
X2265301Y-9581436D02*
X2255777Y-9562389D01*
X2255777Y-9562389D02*
X2246253Y-9524293D01*
X2246253Y-9524293D02*
X2246253Y-9476674D01*
X2246253Y-9476674D02*
X2255777Y-9438579D01*
X2255777Y-9438579D02*
X2265301Y-9419531D01*
X2265301Y-9419531D02*
X2274824Y-9410008D01*
X2274824Y-9410008D02*
X2293872Y-9400484D01*
X2455777Y-9590960D02*
X2455777Y-9600484D01*
X2455777Y-9600484D02*
X2446253Y-9619531D01*
X2446253Y-9619531D02*
X2436729Y-9629055D01*
X2570063Y-9486198D02*
X2551015Y-9476674D01*
X2551015Y-9476674D02*
X2541491Y-9467150D01*
X2541491Y-9467150D02*
X2531967Y-9448103D01*
X2531967Y-9448103D02*
X2531967Y-9438579D01*
X2531967Y-9438579D02*
X2541491Y-9419531D01*
X2541491Y-9419531D02*
X2551015Y-9410008D01*
X2551015Y-9410008D02*
X2570063Y-9400484D01*
X2570063Y-9400484D02*
X2608158Y-9400484D01*
X2608158Y-9400484D02*
X2627205Y-9410008D01*
X2627205Y-9410008D02*
X2636729Y-9419531D01*
X2636729Y-9419531D02*
X2646253Y-9438579D01*
X2646253Y-9438579D02*
X2646253Y-9448103D01*
X2646253Y-9448103D02*
X2636729Y-9467150D01*
X2636729Y-9467150D02*
X2627205Y-9476674D01*
X2627205Y-9476674D02*
X2608158Y-9486198D01*
X2608158Y-9486198D02*
X2570063Y-9486198D01*
X2570063Y-9486198D02*
X2551015Y-9495722D01*
X2551015Y-9495722D02*
X2541491Y-9505246D01*
X2541491Y-9505246D02*
X2531967Y-9524293D01*
X2531967Y-9524293D02*
X2531967Y-9562389D01*
X2531967Y-9562389D02*
X2541491Y-9581436D01*
X2541491Y-9581436D02*
X2551015Y-9590960D01*
X2551015Y-9590960D02*
X2570063Y-9600484D01*
X2570063Y-9600484D02*
X2608158Y-9600484D01*
X2608158Y-9600484D02*
X2627205Y-9590960D01*
X2627205Y-9590960D02*
X2636729Y-9581436D01*
X2636729Y-9581436D02*
X2646253Y-9562389D01*
X2646253Y-9562389D02*
X2646253Y-9524293D01*
X2646253Y-9524293D02*
X2636729Y-9505246D01*
X2636729Y-9505246D02*
X2627205Y-9495722D01*
X2627205Y-9495722D02*
X2608158Y-9486198D01*
X2770063Y-9400484D02*
X2789110Y-9400484D01*
X2789110Y-9400484D02*
X2808158Y-9410008D01*
X2808158Y-9410008D02*
X2817682Y-9419531D01*
X2817682Y-9419531D02*
X2827205Y-9438579D01*
X2827205Y-9438579D02*
X2836729Y-9476674D01*
X2836729Y-9476674D02*
X2836729Y-9524293D01*
X2836729Y-9524293D02*
X2827205Y-9562389D01*
X2827205Y-9562389D02*
X2817682Y-9581436D01*
X2817682Y-9581436D02*
X2808158Y-9590960D01*
X2808158Y-9590960D02*
X2789110Y-9600484D01*
X2789110Y-9600484D02*
X2770063Y-9600484D01*
X2770063Y-9600484D02*
X2751015Y-9590960D01*
X2751015Y-9590960D02*
X2741491Y-9581436D01*
X2741491Y-9581436D02*
X2731967Y-9562389D01*
X2731967Y-9562389D02*
X2722444Y-9524293D01*
X2722444Y-9524293D02*
X2722444Y-9476674D01*
X2722444Y-9476674D02*
X2731967Y-9438579D01*
X2731967Y-9438579D02*
X2741491Y-9419531D01*
X2741491Y-9419531D02*
X2751015Y-9410008D01*
X2751015Y-9410008D02*
X2770063Y-9400484D01*
X2960539Y-9400484D02*
X2979586Y-9400484D01*
X2979586Y-9400484D02*
X2998634Y-9410008D01*
X2998634Y-9410008D02*
X3008158Y-9419531D01*
X3008158Y-9419531D02*
X3017682Y-9438579D01*
X3017682Y-9438579D02*
X3027205Y-9476674D01*
X3027205Y-9476674D02*
X3027205Y-9524293D01*
X3027205Y-9524293D02*
X3017682Y-9562389D01*
X3017682Y-9562389D02*
X3008158Y-9581436D01*
X3008158Y-9581436D02*
X2998634Y-9590960D01*
X2998634Y-9590960D02*
X2979586Y-9600484D01*
X2979586Y-9600484D02*
X2960539Y-9600484D01*
X2960539Y-9600484D02*
X2941491Y-9590960D01*
X2941491Y-9590960D02*
X2931967Y-9581436D01*
X2931967Y-9581436D02*
X2922443Y-9562389D01*
X2922443Y-9562389D02*
X2912920Y-9524293D01*
X2912920Y-9524293D02*
X2912920Y-9476674D01*
X2912920Y-9476674D02*
X2922443Y-9438579D01*
X2922443Y-9438579D02*
X2931967Y-9419531D01*
X2931967Y-9419531D02*
X2941491Y-9410008D01*
X2941491Y-9410008D02*
X2960539Y-9400484D01*
X3112920Y-9600484D02*
X3112920Y-9467150D01*
X3112920Y-9486198D02*
X3122443Y-9476674D01*
X3122443Y-9476674D02*
X3141491Y-9467150D01*
X3141491Y-9467150D02*
X3170063Y-9467150D01*
X3170063Y-9467150D02*
X3189110Y-9476674D01*
X3189110Y-9476674D02*
X3198634Y-9495722D01*
X3198634Y-9495722D02*
X3198634Y-9600484D01*
X3198634Y-9495722D02*
X3208158Y-9476674D01*
X3208158Y-9476674D02*
X3227205Y-9467150D01*
X3227205Y-9467150D02*
X3255777Y-9467150D01*
X3255777Y-9467150D02*
X3274824Y-9476674D01*
X3274824Y-9476674D02*
X3284348Y-9495722D01*
X3284348Y-9495722D02*
X3284348Y-9600484D01*
X3379586Y-9600484D02*
X3379586Y-9467150D01*
X3379586Y-9486198D02*
X3389110Y-9476674D01*
X3389110Y-9476674D02*
X3408158Y-9467150D01*
X3408158Y-9467150D02*
X3436729Y-9467150D01*
X3436729Y-9467150D02*
X3455777Y-9476674D01*
X3455777Y-9476674D02*
X3465301Y-9495722D01*
X3465301Y-9495722D02*
X3465301Y-9600484D01*
X3465301Y-9495722D02*
X3474824Y-9476674D01*
X3474824Y-9476674D02*
X3493872Y-9467150D01*
X3493872Y-9467150D02*
X3522443Y-9467150D01*
X3522443Y-9467150D02*
X3541491Y-9476674D01*
X3541491Y-9476674D02*
X3551015Y-9495722D01*
X3551015Y-9495722D02*
X3551015Y-9600484D01*
X3941491Y-9390960D02*
X3770063Y-9648103D01*
X4198634Y-9400484D02*
X4217682Y-9400484D01*
X4217682Y-9400484D02*
X4236729Y-9410008D01*
X4236729Y-9410008D02*
X4246253Y-9419531D01*
X4246253Y-9419531D02*
X4255777Y-9438579D01*
X4255777Y-9438579D02*
X4265301Y-9476674D01*
X4265301Y-9476674D02*
X4265301Y-9524293D01*
X4265301Y-9524293D02*
X4255777Y-9562389D01*
X4255777Y-9562389D02*
X4246253Y-9581436D01*
X4246253Y-9581436D02*
X4236729Y-9590960D01*
X4236729Y-9590960D02*
X4217682Y-9600484D01*
X4217682Y-9600484D02*
X4198634Y-9600484D01*
X4198634Y-9600484D02*
X4179586Y-9590960D01*
X4179586Y-9590960D02*
X4170063Y-9581436D01*
X4170063Y-9581436D02*
X4160539Y-9562389D01*
X4160539Y-9562389D02*
X4151015Y-9524293D01*
X4151015Y-9524293D02*
X4151015Y-9476674D01*
X4151015Y-9476674D02*
X4160539Y-9438579D01*
X4160539Y-9438579D02*
X4170063Y-9419531D01*
X4170063Y-9419531D02*
X4179586Y-9410008D01*
X4179586Y-9410008D02*
X4198634Y-9400484D01*
X4360539Y-9590960D02*
X4360539Y-9600484D01*
X4360539Y-9600484D02*
X4351015Y-9619531D01*
X4351015Y-9619531D02*
X4341491Y-9629055D01*
X4484348Y-9400484D02*
X4503396Y-9400484D01*
X4503396Y-9400484D02*
X4522444Y-9410008D01*
X4522444Y-9410008D02*
X4531968Y-9419531D01*
X4531968Y-9419531D02*
X4541491Y-9438579D01*
X4541491Y-9438579D02*
X4551015Y-9476674D01*
X4551015Y-9476674D02*
X4551015Y-9524293D01*
X4551015Y-9524293D02*
X4541491Y-9562389D01*
X4541491Y-9562389D02*
X4531968Y-9581436D01*
X4531968Y-9581436D02*
X4522444Y-9590960D01*
X4522444Y-9590960D02*
X4503396Y-9600484D01*
X4503396Y-9600484D02*
X4484348Y-9600484D01*
X4484348Y-9600484D02*
X4465301Y-9590960D01*
X4465301Y-9590960D02*
X4455777Y-9581436D01*
X4455777Y-9581436D02*
X4446253Y-9562389D01*
X4446253Y-9562389D02*
X4436729Y-9524293D01*
X4436729Y-9524293D02*
X4436729Y-9476674D01*
X4436729Y-9476674D02*
X4446253Y-9438579D01*
X4446253Y-9438579D02*
X4455777Y-9419531D01*
X4455777Y-9419531D02*
X4465301Y-9410008D01*
X4465301Y-9410008D02*
X4484348Y-9400484D01*
X4617682Y-9400484D02*
X4741491Y-9400484D01*
X4741491Y-9400484D02*
X4674825Y-9476674D01*
X4674825Y-9476674D02*
X4703396Y-9476674D01*
X4703396Y-9476674D02*
X4722444Y-9486198D01*
X4722444Y-9486198D02*
X4731968Y-9495722D01*
X4731968Y-9495722D02*
X4741491Y-9514770D01*
X4741491Y-9514770D02*
X4741491Y-9562389D01*
X4741491Y-9562389D02*
X4731968Y-9581436D01*
X4731968Y-9581436D02*
X4722444Y-9590960D01*
X4722444Y-9590960D02*
X4703396Y-9600484D01*
X4703396Y-9600484D02*
X4646253Y-9600484D01*
X4646253Y-9600484D02*
X4627206Y-9590960D01*
X4627206Y-9590960D02*
X4617682Y-9581436D01*
X4931968Y-9600484D02*
X4817682Y-9600484D01*
X4874825Y-9600484D02*
X4874825Y-9400484D01*
X4874825Y-9400484D02*
X4855777Y-9429055D01*
X4855777Y-9429055D02*
X4836729Y-9448103D01*
X4836729Y-9448103D02*
X4817682Y-9457627D01*
X5112920Y-9400484D02*
X5017682Y-9400484D01*
X5017682Y-9400484D02*
X5008158Y-9495722D01*
X5008158Y-9495722D02*
X5017682Y-9486198D01*
X5017682Y-9486198D02*
X5036729Y-9476674D01*
X5036729Y-9476674D02*
X5084349Y-9476674D01*
X5084349Y-9476674D02*
X5103396Y-9486198D01*
X5103396Y-9486198D02*
X5112920Y-9495722D01*
X5112920Y-9495722D02*
X5122444Y-9514770D01*
X5122444Y-9514770D02*
X5122444Y-9562389D01*
X5122444Y-9562389D02*
X5112920Y-9581436D01*
X5112920Y-9581436D02*
X5103396Y-9590960D01*
X5103396Y-9590960D02*
X5084349Y-9600484D01*
X5084349Y-9600484D02*
X5036729Y-9600484D01*
X5036729Y-9600484D02*
X5017682Y-9590960D01*
X5017682Y-9590960D02*
X5008158Y-9581436D01*
X5198634Y-9400484D02*
X5198634Y-9438579D01*
X5274825Y-9400484D02*
X5274825Y-9438579D01*
X5570063Y-9676674D02*
X5560539Y-9667150D01*
X5560539Y-9667150D02*
X5541491Y-9638579D01*
X5541491Y-9638579D02*
X5531968Y-9619531D01*
X5531968Y-9619531D02*
X5522444Y-9590960D01*
X5522444Y-9590960D02*
X5512920Y-9543341D01*
X5512920Y-9543341D02*
X5512920Y-9505246D01*
X5512920Y-9505246D02*
X5522444Y-9457627D01*
X5522444Y-9457627D02*
X5531968Y-9429055D01*
X5531968Y-9429055D02*
X5541491Y-9410008D01*
X5541491Y-9410008D02*
X5560539Y-9381436D01*
X5560539Y-9381436D02*
X5570063Y-9371912D01*
X5636729Y-9419531D02*
X5646253Y-9410008D01*
X5646253Y-9410008D02*
X5665301Y-9400484D01*
X5665301Y-9400484D02*
X5712920Y-9400484D01*
X5712920Y-9400484D02*
X5731968Y-9410008D01*
X5731968Y-9410008D02*
X5741491Y-9419531D01*
X5741491Y-9419531D02*
X5751015Y-9438579D01*
X5751015Y-9438579D02*
X5751015Y-9457627D01*
X5751015Y-9457627D02*
X5741491Y-9486198D01*
X5741491Y-9486198D02*
X5627206Y-9600484D01*
X5627206Y-9600484D02*
X5751015Y-9600484D01*
X5827206Y-9419531D02*
X5836729Y-9410008D01*
X5836729Y-9410008D02*
X5855777Y-9400484D01*
X5855777Y-9400484D02*
X5903396Y-9400484D01*
X5903396Y-9400484D02*
X5922444Y-9410008D01*
X5922444Y-9410008D02*
X5931968Y-9419531D01*
X5931968Y-9419531D02*
X5941491Y-9438579D01*
X5941491Y-9438579D02*
X5941491Y-9457627D01*
X5941491Y-9457627D02*
X5931968Y-9486198D01*
X5931968Y-9486198D02*
X5817682Y-9600484D01*
X5817682Y-9600484D02*
X5941491Y-9600484D01*
X6179587Y-9600484D02*
X6179587Y-9400484D01*
X6265301Y-9600484D02*
X6265301Y-9495722D01*
X6265301Y-9495722D02*
X6255777Y-9476674D01*
X6255777Y-9476674D02*
X6236730Y-9467150D01*
X6236730Y-9467150D02*
X6208158Y-9467150D01*
X6208158Y-9467150D02*
X6189110Y-9476674D01*
X6189110Y-9476674D02*
X6179587Y-9486198D01*
X6389110Y-9600484D02*
X6370063Y-9590960D01*
X6370063Y-9590960D02*
X6360539Y-9581436D01*
X6360539Y-9581436D02*
X6351015Y-9562389D01*
X6351015Y-9562389D02*
X6351015Y-9505246D01*
X6351015Y-9505246D02*
X6360539Y-9486198D01*
X6360539Y-9486198D02*
X6370063Y-9476674D01*
X6370063Y-9476674D02*
X6389110Y-9467150D01*
X6389110Y-9467150D02*
X6417682Y-9467150D01*
X6417682Y-9467150D02*
X6436730Y-9476674D01*
X6436730Y-9476674D02*
X6446253Y-9486198D01*
X6446253Y-9486198D02*
X6455777Y-9505246D01*
X6455777Y-9505246D02*
X6455777Y-9562389D01*
X6455777Y-9562389D02*
X6446253Y-9581436D01*
X6446253Y-9581436D02*
X6436730Y-9590960D01*
X6436730Y-9590960D02*
X6417682Y-9600484D01*
X6417682Y-9600484D02*
X6389110Y-9600484D01*
X6570063Y-9600484D02*
X6551015Y-9590960D01*
X6551015Y-9590960D02*
X6541491Y-9571912D01*
X6541491Y-9571912D02*
X6541491Y-9400484D01*
X6722444Y-9590960D02*
X6703396Y-9600484D01*
X6703396Y-9600484D02*
X6665301Y-9600484D01*
X6665301Y-9600484D02*
X6646253Y-9590960D01*
X6646253Y-9590960D02*
X6636730Y-9571912D01*
X6636730Y-9571912D02*
X6636730Y-9495722D01*
X6636730Y-9495722D02*
X6646253Y-9476674D01*
X6646253Y-9476674D02*
X6665301Y-9467150D01*
X6665301Y-9467150D02*
X6703396Y-9467150D01*
X6703396Y-9467150D02*
X6722444Y-9476674D01*
X6722444Y-9476674D02*
X6731968Y-9495722D01*
X6731968Y-9495722D02*
X6731968Y-9514770D01*
X6731968Y-9514770D02*
X6636730Y-9533817D01*
X6808158Y-9590960D02*
X6827206Y-9600484D01*
X6827206Y-9600484D02*
X6865301Y-9600484D01*
X6865301Y-9600484D02*
X6884349Y-9590960D01*
X6884349Y-9590960D02*
X6893872Y-9571912D01*
X6893872Y-9571912D02*
X6893872Y-9562389D01*
X6893872Y-9562389D02*
X6884349Y-9543341D01*
X6884349Y-9543341D02*
X6865301Y-9533817D01*
X6865301Y-9533817D02*
X6836730Y-9533817D01*
X6836730Y-9533817D02*
X6817682Y-9524293D01*
X6817682Y-9524293D02*
X6808158Y-9505246D01*
X6808158Y-9505246D02*
X6808158Y-9495722D01*
X6808158Y-9495722D02*
X6817682Y-9476674D01*
X6817682Y-9476674D02*
X6836730Y-9467150D01*
X6836730Y-9467150D02*
X6865301Y-9467150D01*
X6865301Y-9467150D02*
X6884349Y-9476674D01*
X6960539Y-9676674D02*
X6970063Y-9667150D01*
X6970063Y-9667150D02*
X6989111Y-9638579D01*
X6989111Y-9638579D02*
X6998634Y-9619531D01*
X6998634Y-9619531D02*
X7008158Y-9590960D01*
X7008158Y-9590960D02*
X7017682Y-9543341D01*
X7017682Y-9543341D02*
X7017682Y-9505246D01*
X7017682Y-9505246D02*
X7008158Y-9457627D01*
X7008158Y-9457627D02*
X6998634Y-9429055D01*
X6998634Y-9429055D02*
X6989111Y-9410008D01*
X6989111Y-9410008D02*
X6970063Y-9381436D01*
X6970063Y-9381436D02*
X6960539Y-9371912D01*
D10*
X1945000Y-9723000D02*
X1945000Y-9823000D01*
X1895000Y-9773000D02*
X1995000Y-9773000D01*
D11*
X2360539Y-9864484D02*
X2246253Y-9864484D01*
X2303396Y-9864484D02*
X2303396Y-9664484D01*
X2303396Y-9664484D02*
X2284348Y-9693055D01*
X2284348Y-9693055D02*
X2265301Y-9712103D01*
X2265301Y-9712103D02*
X2246253Y-9721627D01*
X2455777Y-9854960D02*
X2455777Y-9864484D01*
X2455777Y-9864484D02*
X2446253Y-9883531D01*
X2446253Y-9883531D02*
X2436729Y-9893055D01*
X2579586Y-9664484D02*
X2598634Y-9664484D01*
X2598634Y-9664484D02*
X2617682Y-9674008D01*
X2617682Y-9674008D02*
X2627205Y-9683531D01*
X2627205Y-9683531D02*
X2636729Y-9702579D01*
X2636729Y-9702579D02*
X2646253Y-9740674D01*
X2646253Y-9740674D02*
X2646253Y-9788293D01*
X2646253Y-9788293D02*
X2636729Y-9826389D01*
X2636729Y-9826389D02*
X2627205Y-9845436D01*
X2627205Y-9845436D02*
X2617682Y-9854960D01*
X2617682Y-9854960D02*
X2598634Y-9864484D01*
X2598634Y-9864484D02*
X2579586Y-9864484D01*
X2579586Y-9864484D02*
X2560539Y-9854960D01*
X2560539Y-9854960D02*
X2551015Y-9845436D01*
X2551015Y-9845436D02*
X2541491Y-9826389D01*
X2541491Y-9826389D02*
X2531967Y-9788293D01*
X2531967Y-9788293D02*
X2531967Y-9740674D01*
X2531967Y-9740674D02*
X2541491Y-9702579D01*
X2541491Y-9702579D02*
X2551015Y-9683531D01*
X2551015Y-9683531D02*
X2560539Y-9674008D01*
X2560539Y-9674008D02*
X2579586Y-9664484D01*
X2770063Y-9664484D02*
X2789110Y-9664484D01*
X2789110Y-9664484D02*
X2808158Y-9674008D01*
X2808158Y-9674008D02*
X2817682Y-9683531D01*
X2817682Y-9683531D02*
X2827205Y-9702579D01*
X2827205Y-9702579D02*
X2836729Y-9740674D01*
X2836729Y-9740674D02*
X2836729Y-9788293D01*
X2836729Y-9788293D02*
X2827205Y-9826389D01*
X2827205Y-9826389D02*
X2817682Y-9845436D01*
X2817682Y-9845436D02*
X2808158Y-9854960D01*
X2808158Y-9854960D02*
X2789110Y-9864484D01*
X2789110Y-9864484D02*
X2770063Y-9864484D01*
X2770063Y-9864484D02*
X2751015Y-9854960D01*
X2751015Y-9854960D02*
X2741491Y-9845436D01*
X2741491Y-9845436D02*
X2731967Y-9826389D01*
X2731967Y-9826389D02*
X2722444Y-9788293D01*
X2722444Y-9788293D02*
X2722444Y-9740674D01*
X2722444Y-9740674D02*
X2731967Y-9702579D01*
X2731967Y-9702579D02*
X2741491Y-9683531D01*
X2741491Y-9683531D02*
X2751015Y-9674008D01*
X2751015Y-9674008D02*
X2770063Y-9664484D01*
X2960539Y-9664484D02*
X2979586Y-9664484D01*
X2979586Y-9664484D02*
X2998634Y-9674008D01*
X2998634Y-9674008D02*
X3008158Y-9683531D01*
X3008158Y-9683531D02*
X3017682Y-9702579D01*
X3017682Y-9702579D02*
X3027205Y-9740674D01*
X3027205Y-9740674D02*
X3027205Y-9788293D01*
X3027205Y-9788293D02*
X3017682Y-9826389D01*
X3017682Y-9826389D02*
X3008158Y-9845436D01*
X3008158Y-9845436D02*
X2998634Y-9854960D01*
X2998634Y-9854960D02*
X2979586Y-9864484D01*
X2979586Y-9864484D02*
X2960539Y-9864484D01*
X2960539Y-9864484D02*
X2941491Y-9854960D01*
X2941491Y-9854960D02*
X2931967Y-9845436D01*
X2931967Y-9845436D02*
X2922443Y-9826389D01*
X2922443Y-9826389D02*
X2912920Y-9788293D01*
X2912920Y-9788293D02*
X2912920Y-9740674D01*
X2912920Y-9740674D02*
X2922443Y-9702579D01*
X2922443Y-9702579D02*
X2931967Y-9683531D01*
X2931967Y-9683531D02*
X2941491Y-9674008D01*
X2941491Y-9674008D02*
X2960539Y-9664484D01*
X3112920Y-9864484D02*
X3112920Y-9731150D01*
X3112920Y-9750198D02*
X3122443Y-9740674D01*
X3122443Y-9740674D02*
X3141491Y-9731150D01*
X3141491Y-9731150D02*
X3170063Y-9731150D01*
X3170063Y-9731150D02*
X3189110Y-9740674D01*
X3189110Y-9740674D02*
X3198634Y-9759722D01*
X3198634Y-9759722D02*
X3198634Y-9864484D01*
X3198634Y-9759722D02*
X3208158Y-9740674D01*
X3208158Y-9740674D02*
X3227205Y-9731150D01*
X3227205Y-9731150D02*
X3255777Y-9731150D01*
X3255777Y-9731150D02*
X3274824Y-9740674D01*
X3274824Y-9740674D02*
X3284348Y-9759722D01*
X3284348Y-9759722D02*
X3284348Y-9864484D01*
X3379586Y-9864484D02*
X3379586Y-9731150D01*
X3379586Y-9750198D02*
X3389110Y-9740674D01*
X3389110Y-9740674D02*
X3408158Y-9731150D01*
X3408158Y-9731150D02*
X3436729Y-9731150D01*
X3436729Y-9731150D02*
X3455777Y-9740674D01*
X3455777Y-9740674D02*
X3465301Y-9759722D01*
X3465301Y-9759722D02*
X3465301Y-9864484D01*
X3465301Y-9759722D02*
X3474824Y-9740674D01*
X3474824Y-9740674D02*
X3493872Y-9731150D01*
X3493872Y-9731150D02*
X3522443Y-9731150D01*
X3522443Y-9731150D02*
X3541491Y-9740674D01*
X3541491Y-9740674D02*
X3551015Y-9759722D01*
X3551015Y-9759722D02*
X3551015Y-9864484D01*
X3941491Y-9654960D02*
X3770063Y-9912103D01*
X4198634Y-9664484D02*
X4217682Y-9664484D01*
X4217682Y-9664484D02*
X4236729Y-9674008D01*
X4236729Y-9674008D02*
X4246253Y-9683531D01*
X4246253Y-9683531D02*
X4255777Y-9702579D01*
X4255777Y-9702579D02*
X4265301Y-9740674D01*
X4265301Y-9740674D02*
X4265301Y-9788293D01*
X4265301Y-9788293D02*
X4255777Y-9826389D01*
X4255777Y-9826389D02*
X4246253Y-9845436D01*
X4246253Y-9845436D02*
X4236729Y-9854960D01*
X4236729Y-9854960D02*
X4217682Y-9864484D01*
X4217682Y-9864484D02*
X4198634Y-9864484D01*
X4198634Y-9864484D02*
X4179586Y-9854960D01*
X4179586Y-9854960D02*
X4170063Y-9845436D01*
X4170063Y-9845436D02*
X4160539Y-9826389D01*
X4160539Y-9826389D02*
X4151015Y-9788293D01*
X4151015Y-9788293D02*
X4151015Y-9740674D01*
X4151015Y-9740674D02*
X4160539Y-9702579D01*
X4160539Y-9702579D02*
X4170063Y-9683531D01*
X4170063Y-9683531D02*
X4179586Y-9674008D01*
X4179586Y-9674008D02*
X4198634Y-9664484D01*
X4360539Y-9854960D02*
X4360539Y-9864484D01*
X4360539Y-9864484D02*
X4351015Y-9883531D01*
X4351015Y-9883531D02*
X4341491Y-9893055D01*
X4484348Y-9664484D02*
X4503396Y-9664484D01*
X4503396Y-9664484D02*
X4522444Y-9674008D01*
X4522444Y-9674008D02*
X4531968Y-9683531D01*
X4531968Y-9683531D02*
X4541491Y-9702579D01*
X4541491Y-9702579D02*
X4551015Y-9740674D01*
X4551015Y-9740674D02*
X4551015Y-9788293D01*
X4551015Y-9788293D02*
X4541491Y-9826389D01*
X4541491Y-9826389D02*
X4531968Y-9845436D01*
X4531968Y-9845436D02*
X4522444Y-9854960D01*
X4522444Y-9854960D02*
X4503396Y-9864484D01*
X4503396Y-9864484D02*
X4484348Y-9864484D01*
X4484348Y-9864484D02*
X4465301Y-9854960D01*
X4465301Y-9854960D02*
X4455777Y-9845436D01*
X4455777Y-9845436D02*
X4446253Y-9826389D01*
X4446253Y-9826389D02*
X4436729Y-9788293D01*
X4436729Y-9788293D02*
X4436729Y-9740674D01*
X4436729Y-9740674D02*
X4446253Y-9702579D01*
X4446253Y-9702579D02*
X4455777Y-9683531D01*
X4455777Y-9683531D02*
X4465301Y-9674008D01*
X4465301Y-9674008D02*
X4484348Y-9664484D01*
X4617682Y-9664484D02*
X4741491Y-9664484D01*
X4741491Y-9664484D02*
X4674825Y-9740674D01*
X4674825Y-9740674D02*
X4703396Y-9740674D01*
X4703396Y-9740674D02*
X4722444Y-9750198D01*
X4722444Y-9750198D02*
X4731968Y-9759722D01*
X4731968Y-9759722D02*
X4741491Y-9778770D01*
X4741491Y-9778770D02*
X4741491Y-9826389D01*
X4741491Y-9826389D02*
X4731968Y-9845436D01*
X4731968Y-9845436D02*
X4722444Y-9854960D01*
X4722444Y-9854960D02*
X4703396Y-9864484D01*
X4703396Y-9864484D02*
X4646253Y-9864484D01*
X4646253Y-9864484D02*
X4627206Y-9854960D01*
X4627206Y-9854960D02*
X4617682Y-9845436D01*
X4836729Y-9864484D02*
X4874825Y-9864484D01*
X4874825Y-9864484D02*
X4893872Y-9854960D01*
X4893872Y-9854960D02*
X4903396Y-9845436D01*
X4903396Y-9845436D02*
X4922444Y-9816865D01*
X4922444Y-9816865D02*
X4931968Y-9778770D01*
X4931968Y-9778770D02*
X4931968Y-9702579D01*
X4931968Y-9702579D02*
X4922444Y-9683531D01*
X4922444Y-9683531D02*
X4912920Y-9674008D01*
X4912920Y-9674008D02*
X4893872Y-9664484D01*
X4893872Y-9664484D02*
X4855777Y-9664484D01*
X4855777Y-9664484D02*
X4836729Y-9674008D01*
X4836729Y-9674008D02*
X4827206Y-9683531D01*
X4827206Y-9683531D02*
X4817682Y-9702579D01*
X4817682Y-9702579D02*
X4817682Y-9750198D01*
X4817682Y-9750198D02*
X4827206Y-9769246D01*
X4827206Y-9769246D02*
X4836729Y-9778770D01*
X4836729Y-9778770D02*
X4855777Y-9788293D01*
X4855777Y-9788293D02*
X4893872Y-9788293D01*
X4893872Y-9788293D02*
X4912920Y-9778770D01*
X4912920Y-9778770D02*
X4922444Y-9769246D01*
X4922444Y-9769246D02*
X4931968Y-9750198D01*
X5103396Y-9731150D02*
X5103396Y-9864484D01*
X5055777Y-9654960D02*
X5008158Y-9797817D01*
X5008158Y-9797817D02*
X5131968Y-9797817D01*
X5198634Y-9664484D02*
X5198634Y-9702579D01*
X5274825Y-9664484D02*
X5274825Y-9702579D01*
X5570063Y-9940674D02*
X5560539Y-9931150D01*
X5560539Y-9931150D02*
X5541491Y-9902579D01*
X5541491Y-9902579D02*
X5531968Y-9883531D01*
X5531968Y-9883531D02*
X5522444Y-9854960D01*
X5522444Y-9854960D02*
X5512920Y-9807341D01*
X5512920Y-9807341D02*
X5512920Y-9769246D01*
X5512920Y-9769246D02*
X5522444Y-9721627D01*
X5522444Y-9721627D02*
X5531968Y-9693055D01*
X5531968Y-9693055D02*
X5541491Y-9674008D01*
X5541491Y-9674008D02*
X5560539Y-9645436D01*
X5560539Y-9645436D02*
X5570063Y-9635912D01*
X5741491Y-9664484D02*
X5646253Y-9664484D01*
X5646253Y-9664484D02*
X5636729Y-9759722D01*
X5636729Y-9759722D02*
X5646253Y-9750198D01*
X5646253Y-9750198D02*
X5665301Y-9740674D01*
X5665301Y-9740674D02*
X5712920Y-9740674D01*
X5712920Y-9740674D02*
X5731968Y-9750198D01*
X5731968Y-9750198D02*
X5741491Y-9759722D01*
X5741491Y-9759722D02*
X5751015Y-9778770D01*
X5751015Y-9778770D02*
X5751015Y-9826389D01*
X5751015Y-9826389D02*
X5741491Y-9845436D01*
X5741491Y-9845436D02*
X5731968Y-9854960D01*
X5731968Y-9854960D02*
X5712920Y-9864484D01*
X5712920Y-9864484D02*
X5665301Y-9864484D01*
X5665301Y-9864484D02*
X5646253Y-9854960D01*
X5646253Y-9854960D02*
X5636729Y-9845436D01*
X5922444Y-9731150D02*
X5922444Y-9864484D01*
X5874825Y-9654960D02*
X5827206Y-9797817D01*
X5827206Y-9797817D02*
X5951015Y-9797817D01*
X6179587Y-9864484D02*
X6179587Y-9664484D01*
X6265301Y-9864484D02*
X6265301Y-9759722D01*
X6265301Y-9759722D02*
X6255777Y-9740674D01*
X6255777Y-9740674D02*
X6236730Y-9731150D01*
X6236730Y-9731150D02*
X6208158Y-9731150D01*
X6208158Y-9731150D02*
X6189110Y-9740674D01*
X6189110Y-9740674D02*
X6179587Y-9750198D01*
X6389110Y-9864484D02*
X6370063Y-9854960D01*
X6370063Y-9854960D02*
X6360539Y-9845436D01*
X6360539Y-9845436D02*
X6351015Y-9826389D01*
X6351015Y-9826389D02*
X6351015Y-9769246D01*
X6351015Y-9769246D02*
X6360539Y-9750198D01*
X6360539Y-9750198D02*
X6370063Y-9740674D01*
X6370063Y-9740674D02*
X6389110Y-9731150D01*
X6389110Y-9731150D02*
X6417682Y-9731150D01*
X6417682Y-9731150D02*
X6436730Y-9740674D01*
X6436730Y-9740674D02*
X6446253Y-9750198D01*
X6446253Y-9750198D02*
X6455777Y-9769246D01*
X6455777Y-9769246D02*
X6455777Y-9826389D01*
X6455777Y-9826389D02*
X6446253Y-9845436D01*
X6446253Y-9845436D02*
X6436730Y-9854960D01*
X6436730Y-9854960D02*
X6417682Y-9864484D01*
X6417682Y-9864484D02*
X6389110Y-9864484D01*
X6570063Y-9864484D02*
X6551015Y-9854960D01*
X6551015Y-9854960D02*
X6541491Y-9835912D01*
X6541491Y-9835912D02*
X6541491Y-9664484D01*
X6722444Y-9854960D02*
X6703396Y-9864484D01*
X6703396Y-9864484D02*
X6665301Y-9864484D01*
X6665301Y-9864484D02*
X6646253Y-9854960D01*
X6646253Y-9854960D02*
X6636730Y-9835912D01*
X6636730Y-9835912D02*
X6636730Y-9759722D01*
X6636730Y-9759722D02*
X6646253Y-9740674D01*
X6646253Y-9740674D02*
X6665301Y-9731150D01*
X6665301Y-9731150D02*
X6703396Y-9731150D01*
X6703396Y-9731150D02*
X6722444Y-9740674D01*
X6722444Y-9740674D02*
X6731968Y-9759722D01*
X6731968Y-9759722D02*
X6731968Y-9778770D01*
X6731968Y-9778770D02*
X6636730Y-9797817D01*
X6808158Y-9854960D02*
X6827206Y-9864484D01*
X6827206Y-9864484D02*
X6865301Y-9864484D01*
X6865301Y-9864484D02*
X6884349Y-9854960D01*
X6884349Y-9854960D02*
X6893872Y-9835912D01*
X6893872Y-9835912D02*
X6893872Y-9826389D01*
X6893872Y-9826389D02*
X6884349Y-9807341D01*
X6884349Y-9807341D02*
X6865301Y-9797817D01*
X6865301Y-9797817D02*
X6836730Y-9797817D01*
X6836730Y-9797817D02*
X6817682Y-9788293D01*
X6817682Y-9788293D02*
X6808158Y-9769246D01*
X6808158Y-9769246D02*
X6808158Y-9759722D01*
X6808158Y-9759722D02*
X6817682Y-9740674D01*
X6817682Y-9740674D02*
X6836730Y-9731150D01*
X6836730Y-9731150D02*
X6865301Y-9731150D01*
X6865301Y-9731150D02*
X6884349Y-9740674D01*
X6960539Y-9940674D02*
X6970063Y-9931150D01*
X6970063Y-9931150D02*
X6989111Y-9902579D01*
X6989111Y-9902579D02*
X6998634Y-9883531D01*
X6998634Y-9883531D02*
X7008158Y-9854960D01*
X7008158Y-9854960D02*
X7017682Y-9807341D01*
X7017682Y-9807341D02*
X7017682Y-9769246D01*
X7017682Y-9769246D02*
X7008158Y-9721627D01*
X7008158Y-9721627D02*
X6998634Y-9693055D01*
X6998634Y-9693055D02*
X6989111Y-9674008D01*
X6989111Y-9674008D02*
X6970063Y-9645436D01*
X6970063Y-9645436D02*
X6960539Y-9635912D01*
D12*
X1978891Y-10075891D02*
X1978891Y-9998109D01*
X1901109Y-9998109D01*
X1901109Y-10075891D01*
X1978891Y-10075891D01*
D11*
X2360539Y-10128484D02*
X2246253Y-10128484D01*
X2303396Y-10128484D02*
X2303396Y-9928484D01*
X2303396Y-9928484D02*
X2284348Y-9957055D01*
X2284348Y-9957055D02*
X2265301Y-9976103D01*
X2265301Y-9976103D02*
X2246253Y-9985627D01*
X2455777Y-10118960D02*
X2455777Y-10128484D01*
X2455777Y-10128484D02*
X2446253Y-10147531D01*
X2446253Y-10147531D02*
X2436729Y-10157055D01*
X2646253Y-10128484D02*
X2531967Y-10128484D01*
X2589110Y-10128484D02*
X2589110Y-9928484D01*
X2589110Y-9928484D02*
X2570063Y-9957055D01*
X2570063Y-9957055D02*
X2551015Y-9976103D01*
X2551015Y-9976103D02*
X2531967Y-9985627D01*
X2770063Y-9928484D02*
X2789110Y-9928484D01*
X2789110Y-9928484D02*
X2808158Y-9938008D01*
X2808158Y-9938008D02*
X2817682Y-9947531D01*
X2817682Y-9947531D02*
X2827205Y-9966579D01*
X2827205Y-9966579D02*
X2836729Y-10004674D01*
X2836729Y-10004674D02*
X2836729Y-10052293D01*
X2836729Y-10052293D02*
X2827205Y-10090389D01*
X2827205Y-10090389D02*
X2817682Y-10109436D01*
X2817682Y-10109436D02*
X2808158Y-10118960D01*
X2808158Y-10118960D02*
X2789110Y-10128484D01*
X2789110Y-10128484D02*
X2770063Y-10128484D01*
X2770063Y-10128484D02*
X2751015Y-10118960D01*
X2751015Y-10118960D02*
X2741491Y-10109436D01*
X2741491Y-10109436D02*
X2731967Y-10090389D01*
X2731967Y-10090389D02*
X2722444Y-10052293D01*
X2722444Y-10052293D02*
X2722444Y-10004674D01*
X2722444Y-10004674D02*
X2731967Y-9966579D01*
X2731967Y-9966579D02*
X2741491Y-9947531D01*
X2741491Y-9947531D02*
X2751015Y-9938008D01*
X2751015Y-9938008D02*
X2770063Y-9928484D01*
X2960539Y-9928484D02*
X2979586Y-9928484D01*
X2979586Y-9928484D02*
X2998634Y-9938008D01*
X2998634Y-9938008D02*
X3008158Y-9947531D01*
X3008158Y-9947531D02*
X3017682Y-9966579D01*
X3017682Y-9966579D02*
X3027205Y-10004674D01*
X3027205Y-10004674D02*
X3027205Y-10052293D01*
X3027205Y-10052293D02*
X3017682Y-10090389D01*
X3017682Y-10090389D02*
X3008158Y-10109436D01*
X3008158Y-10109436D02*
X2998634Y-10118960D01*
X2998634Y-10118960D02*
X2979586Y-10128484D01*
X2979586Y-10128484D02*
X2960539Y-10128484D01*
X2960539Y-10128484D02*
X2941491Y-10118960D01*
X2941491Y-10118960D02*
X2931967Y-10109436D01*
X2931967Y-10109436D02*
X2922443Y-10090389D01*
X2922443Y-10090389D02*
X2912920Y-10052293D01*
X2912920Y-10052293D02*
X2912920Y-10004674D01*
X2912920Y-10004674D02*
X2922443Y-9966579D01*
X2922443Y-9966579D02*
X2931967Y-9947531D01*
X2931967Y-9947531D02*
X2941491Y-9938008D01*
X2941491Y-9938008D02*
X2960539Y-9928484D01*
X3112920Y-10128484D02*
X3112920Y-9995150D01*
X3112920Y-10014198D02*
X3122443Y-10004674D01*
X3122443Y-10004674D02*
X3141491Y-9995150D01*
X3141491Y-9995150D02*
X3170063Y-9995150D01*
X3170063Y-9995150D02*
X3189110Y-10004674D01*
X3189110Y-10004674D02*
X3198634Y-10023722D01*
X3198634Y-10023722D02*
X3198634Y-10128484D01*
X3198634Y-10023722D02*
X3208158Y-10004674D01*
X3208158Y-10004674D02*
X3227205Y-9995150D01*
X3227205Y-9995150D02*
X3255777Y-9995150D01*
X3255777Y-9995150D02*
X3274824Y-10004674D01*
X3274824Y-10004674D02*
X3284348Y-10023722D01*
X3284348Y-10023722D02*
X3284348Y-10128484D01*
X3379586Y-10128484D02*
X3379586Y-9995150D01*
X3379586Y-10014198D02*
X3389110Y-10004674D01*
X3389110Y-10004674D02*
X3408158Y-9995150D01*
X3408158Y-9995150D02*
X3436729Y-9995150D01*
X3436729Y-9995150D02*
X3455777Y-10004674D01*
X3455777Y-10004674D02*
X3465301Y-10023722D01*
X3465301Y-10023722D02*
X3465301Y-10128484D01*
X3465301Y-10023722D02*
X3474824Y-10004674D01*
X3474824Y-10004674D02*
X3493872Y-9995150D01*
X3493872Y-9995150D02*
X3522443Y-9995150D01*
X3522443Y-9995150D02*
X3541491Y-10004674D01*
X3541491Y-10004674D02*
X3551015Y-10023722D01*
X3551015Y-10023722D02*
X3551015Y-10128484D01*
X3941491Y-9918960D02*
X3770063Y-10176103D01*
X4198634Y-9928484D02*
X4217682Y-9928484D01*
X4217682Y-9928484D02*
X4236729Y-9938008D01*
X4236729Y-9938008D02*
X4246253Y-9947531D01*
X4246253Y-9947531D02*
X4255777Y-9966579D01*
X4255777Y-9966579D02*
X4265301Y-10004674D01*
X4265301Y-10004674D02*
X4265301Y-10052293D01*
X4265301Y-10052293D02*
X4255777Y-10090389D01*
X4255777Y-10090389D02*
X4246253Y-10109436D01*
X4246253Y-10109436D02*
X4236729Y-10118960D01*
X4236729Y-10118960D02*
X4217682Y-10128484D01*
X4217682Y-10128484D02*
X4198634Y-10128484D01*
X4198634Y-10128484D02*
X4179586Y-10118960D01*
X4179586Y-10118960D02*
X4170063Y-10109436D01*
X4170063Y-10109436D02*
X4160539Y-10090389D01*
X4160539Y-10090389D02*
X4151015Y-10052293D01*
X4151015Y-10052293D02*
X4151015Y-10004674D01*
X4151015Y-10004674D02*
X4160539Y-9966579D01*
X4160539Y-9966579D02*
X4170063Y-9947531D01*
X4170063Y-9947531D02*
X4179586Y-9938008D01*
X4179586Y-9938008D02*
X4198634Y-9928484D01*
X4360539Y-10118960D02*
X4360539Y-10128484D01*
X4360539Y-10128484D02*
X4351015Y-10147531D01*
X4351015Y-10147531D02*
X4341491Y-10157055D01*
X4484348Y-9928484D02*
X4503396Y-9928484D01*
X4503396Y-9928484D02*
X4522444Y-9938008D01*
X4522444Y-9938008D02*
X4531968Y-9947531D01*
X4531968Y-9947531D02*
X4541491Y-9966579D01*
X4541491Y-9966579D02*
X4551015Y-10004674D01*
X4551015Y-10004674D02*
X4551015Y-10052293D01*
X4551015Y-10052293D02*
X4541491Y-10090389D01*
X4541491Y-10090389D02*
X4531968Y-10109436D01*
X4531968Y-10109436D02*
X4522444Y-10118960D01*
X4522444Y-10118960D02*
X4503396Y-10128484D01*
X4503396Y-10128484D02*
X4484348Y-10128484D01*
X4484348Y-10128484D02*
X4465301Y-10118960D01*
X4465301Y-10118960D02*
X4455777Y-10109436D01*
X4455777Y-10109436D02*
X4446253Y-10090389D01*
X4446253Y-10090389D02*
X4436729Y-10052293D01*
X4436729Y-10052293D02*
X4436729Y-10004674D01*
X4436729Y-10004674D02*
X4446253Y-9966579D01*
X4446253Y-9966579D02*
X4455777Y-9947531D01*
X4455777Y-9947531D02*
X4465301Y-9938008D01*
X4465301Y-9938008D02*
X4484348Y-9928484D01*
X4722444Y-9995150D02*
X4722444Y-10128484D01*
X4674825Y-9918960D02*
X4627206Y-10061817D01*
X4627206Y-10061817D02*
X4751015Y-10061817D01*
X4808158Y-9928484D02*
X4931968Y-9928484D01*
X4931968Y-9928484D02*
X4865301Y-10004674D01*
X4865301Y-10004674D02*
X4893872Y-10004674D01*
X4893872Y-10004674D02*
X4912920Y-10014198D01*
X4912920Y-10014198D02*
X4922444Y-10023722D01*
X4922444Y-10023722D02*
X4931968Y-10042770D01*
X4931968Y-10042770D02*
X4931968Y-10090389D01*
X4931968Y-10090389D02*
X4922444Y-10109436D01*
X4922444Y-10109436D02*
X4912920Y-10118960D01*
X4912920Y-10118960D02*
X4893872Y-10128484D01*
X4893872Y-10128484D02*
X4836729Y-10128484D01*
X4836729Y-10128484D02*
X4817682Y-10118960D01*
X4817682Y-10118960D02*
X4808158Y-10109436D01*
X4998634Y-9928484D02*
X5122444Y-9928484D01*
X5122444Y-9928484D02*
X5055777Y-10004674D01*
X5055777Y-10004674D02*
X5084349Y-10004674D01*
X5084349Y-10004674D02*
X5103396Y-10014198D01*
X5103396Y-10014198D02*
X5112920Y-10023722D01*
X5112920Y-10023722D02*
X5122444Y-10042770D01*
X5122444Y-10042770D02*
X5122444Y-10090389D01*
X5122444Y-10090389D02*
X5112920Y-10109436D01*
X5112920Y-10109436D02*
X5103396Y-10118960D01*
X5103396Y-10118960D02*
X5084349Y-10128484D01*
X5084349Y-10128484D02*
X5027206Y-10128484D01*
X5027206Y-10128484D02*
X5008158Y-10118960D01*
X5008158Y-10118960D02*
X4998634Y-10109436D01*
X5198634Y-9928484D02*
X5198634Y-9966579D01*
X5274825Y-9928484D02*
X5274825Y-9966579D01*
X5570063Y-10204674D02*
X5560539Y-10195150D01*
X5560539Y-10195150D02*
X5541491Y-10166579D01*
X5541491Y-10166579D02*
X5531968Y-10147531D01*
X5531968Y-10147531D02*
X5522444Y-10118960D01*
X5522444Y-10118960D02*
X5512920Y-10071341D01*
X5512920Y-10071341D02*
X5512920Y-10033246D01*
X5512920Y-10033246D02*
X5522444Y-9985627D01*
X5522444Y-9985627D02*
X5531968Y-9957055D01*
X5531968Y-9957055D02*
X5541491Y-9938008D01*
X5541491Y-9938008D02*
X5560539Y-9909436D01*
X5560539Y-9909436D02*
X5570063Y-9899912D01*
X5655777Y-10128484D02*
X5693872Y-10128484D01*
X5693872Y-10128484D02*
X5712920Y-10118960D01*
X5712920Y-10118960D02*
X5722444Y-10109436D01*
X5722444Y-10109436D02*
X5741491Y-10080865D01*
X5741491Y-10080865D02*
X5751015Y-10042770D01*
X5751015Y-10042770D02*
X5751015Y-9966579D01*
X5751015Y-9966579D02*
X5741491Y-9947531D01*
X5741491Y-9947531D02*
X5731968Y-9938008D01*
X5731968Y-9938008D02*
X5712920Y-9928484D01*
X5712920Y-9928484D02*
X5674825Y-9928484D01*
X5674825Y-9928484D02*
X5655777Y-9938008D01*
X5655777Y-9938008D02*
X5646253Y-9947531D01*
X5646253Y-9947531D02*
X5636729Y-9966579D01*
X5636729Y-9966579D02*
X5636729Y-10014198D01*
X5636729Y-10014198D02*
X5646253Y-10033246D01*
X5646253Y-10033246D02*
X5655777Y-10042770D01*
X5655777Y-10042770D02*
X5674825Y-10052293D01*
X5674825Y-10052293D02*
X5712920Y-10052293D01*
X5712920Y-10052293D02*
X5731968Y-10042770D01*
X5731968Y-10042770D02*
X5741491Y-10033246D01*
X5741491Y-10033246D02*
X5751015Y-10014198D01*
X5989110Y-10128484D02*
X5989110Y-9928484D01*
X6074825Y-10128484D02*
X6074825Y-10023722D01*
X6074825Y-10023722D02*
X6065301Y-10004674D01*
X6065301Y-10004674D02*
X6046253Y-9995150D01*
X6046253Y-9995150D02*
X6017682Y-9995150D01*
X6017682Y-9995150D02*
X5998634Y-10004674D01*
X5998634Y-10004674D02*
X5989110Y-10014198D01*
X6198634Y-10128484D02*
X6179587Y-10118960D01*
X6179587Y-10118960D02*
X6170063Y-10109436D01*
X6170063Y-10109436D02*
X6160539Y-10090389D01*
X6160539Y-10090389D02*
X6160539Y-10033246D01*
X6160539Y-10033246D02*
X6170063Y-10014198D01*
X6170063Y-10014198D02*
X6179587Y-10004674D01*
X6179587Y-10004674D02*
X6198634Y-9995150D01*
X6198634Y-9995150D02*
X6227206Y-9995150D01*
X6227206Y-9995150D02*
X6246253Y-10004674D01*
X6246253Y-10004674D02*
X6255777Y-10014198D01*
X6255777Y-10014198D02*
X6265301Y-10033246D01*
X6265301Y-10033246D02*
X6265301Y-10090389D01*
X6265301Y-10090389D02*
X6255777Y-10109436D01*
X6255777Y-10109436D02*
X6246253Y-10118960D01*
X6246253Y-10118960D02*
X6227206Y-10128484D01*
X6227206Y-10128484D02*
X6198634Y-10128484D01*
X6379587Y-10128484D02*
X6360539Y-10118960D01*
X6360539Y-10118960D02*
X6351015Y-10099912D01*
X6351015Y-10099912D02*
X6351015Y-9928484D01*
X6531968Y-10118960D02*
X6512920Y-10128484D01*
X6512920Y-10128484D02*
X6474825Y-10128484D01*
X6474825Y-10128484D02*
X6455777Y-10118960D01*
X6455777Y-10118960D02*
X6446253Y-10099912D01*
X6446253Y-10099912D02*
X6446253Y-10023722D01*
X6446253Y-10023722D02*
X6455777Y-10004674D01*
X6455777Y-10004674D02*
X6474825Y-9995150D01*
X6474825Y-9995150D02*
X6512920Y-9995150D01*
X6512920Y-9995150D02*
X6531968Y-10004674D01*
X6531968Y-10004674D02*
X6541491Y-10023722D01*
X6541491Y-10023722D02*
X6541491Y-10042770D01*
X6541491Y-10042770D02*
X6446253Y-10061817D01*
X6617682Y-10118960D02*
X6636730Y-10128484D01*
X6636730Y-10128484D02*
X6674825Y-10128484D01*
X6674825Y-10128484D02*
X6693872Y-10118960D01*
X6693872Y-10118960D02*
X6703396Y-10099912D01*
X6703396Y-10099912D02*
X6703396Y-10090389D01*
X6703396Y-10090389D02*
X6693872Y-10071341D01*
X6693872Y-10071341D02*
X6674825Y-10061817D01*
X6674825Y-10061817D02*
X6646253Y-10061817D01*
X6646253Y-10061817D02*
X6627206Y-10052293D01*
X6627206Y-10052293D02*
X6617682Y-10033246D01*
X6617682Y-10033246D02*
X6617682Y-10023722D01*
X6617682Y-10023722D02*
X6627206Y-10004674D01*
X6627206Y-10004674D02*
X6646253Y-9995150D01*
X6646253Y-9995150D02*
X6674825Y-9995150D01*
X6674825Y-9995150D02*
X6693872Y-10004674D01*
X6770063Y-10204674D02*
X6779587Y-10195150D01*
X6779587Y-10195150D02*
X6798634Y-10166579D01*
X6798634Y-10166579D02*
X6808158Y-10147531D01*
X6808158Y-10147531D02*
X6817682Y-10118960D01*
X6817682Y-10118960D02*
X6827206Y-10071341D01*
X6827206Y-10071341D02*
X6827206Y-10033246D01*
X6827206Y-10033246D02*
X6817682Y-9985627D01*
X6817682Y-9985627D02*
X6808158Y-9957055D01*
X6808158Y-9957055D02*
X6798634Y-9938008D01*
X6798634Y-9938008D02*
X6779587Y-9909436D01*
X6779587Y-9909436D02*
X6770063Y-9899912D01*
D13*
X1930000Y-10366000D02*
X1995000Y-10301000D01*
X1930000Y-10236000D01*
X1865000Y-10301000D01*
X1930000Y-10366000D01*
D11*
X2360539Y-10392484D02*
X2246253Y-10392484D01*
X2303396Y-10392484D02*
X2303396Y-10192484D01*
X2303396Y-10192484D02*
X2284348Y-10221055D01*
X2284348Y-10221055D02*
X2265301Y-10240103D01*
X2265301Y-10240103D02*
X2246253Y-10249627D01*
X2455777Y-10382960D02*
X2455777Y-10392484D01*
X2455777Y-10392484D02*
X2446253Y-10411531D01*
X2446253Y-10411531D02*
X2436729Y-10421055D01*
X2522444Y-10192484D02*
X2646253Y-10192484D01*
X2646253Y-10192484D02*
X2579586Y-10268674D01*
X2579586Y-10268674D02*
X2608158Y-10268674D01*
X2608158Y-10268674D02*
X2627205Y-10278198D01*
X2627205Y-10278198D02*
X2636729Y-10287722D01*
X2636729Y-10287722D02*
X2646253Y-10306770D01*
X2646253Y-10306770D02*
X2646253Y-10354389D01*
X2646253Y-10354389D02*
X2636729Y-10373436D01*
X2636729Y-10373436D02*
X2627205Y-10382960D01*
X2627205Y-10382960D02*
X2608158Y-10392484D01*
X2608158Y-10392484D02*
X2551015Y-10392484D01*
X2551015Y-10392484D02*
X2531967Y-10382960D01*
X2531967Y-10382960D02*
X2522444Y-10373436D01*
X2770063Y-10192484D02*
X2789110Y-10192484D01*
X2789110Y-10192484D02*
X2808158Y-10202008D01*
X2808158Y-10202008D02*
X2817682Y-10211531D01*
X2817682Y-10211531D02*
X2827205Y-10230579D01*
X2827205Y-10230579D02*
X2836729Y-10268674D01*
X2836729Y-10268674D02*
X2836729Y-10316293D01*
X2836729Y-10316293D02*
X2827205Y-10354389D01*
X2827205Y-10354389D02*
X2817682Y-10373436D01*
X2817682Y-10373436D02*
X2808158Y-10382960D01*
X2808158Y-10382960D02*
X2789110Y-10392484D01*
X2789110Y-10392484D02*
X2770063Y-10392484D01*
X2770063Y-10392484D02*
X2751015Y-10382960D01*
X2751015Y-10382960D02*
X2741491Y-10373436D01*
X2741491Y-10373436D02*
X2731967Y-10354389D01*
X2731967Y-10354389D02*
X2722444Y-10316293D01*
X2722444Y-10316293D02*
X2722444Y-10268674D01*
X2722444Y-10268674D02*
X2731967Y-10230579D01*
X2731967Y-10230579D02*
X2741491Y-10211531D01*
X2741491Y-10211531D02*
X2751015Y-10202008D01*
X2751015Y-10202008D02*
X2770063Y-10192484D01*
X2960539Y-10192484D02*
X2979586Y-10192484D01*
X2979586Y-10192484D02*
X2998634Y-10202008D01*
X2998634Y-10202008D02*
X3008158Y-10211531D01*
X3008158Y-10211531D02*
X3017682Y-10230579D01*
X3017682Y-10230579D02*
X3027205Y-10268674D01*
X3027205Y-10268674D02*
X3027205Y-10316293D01*
X3027205Y-10316293D02*
X3017682Y-10354389D01*
X3017682Y-10354389D02*
X3008158Y-10373436D01*
X3008158Y-10373436D02*
X2998634Y-10382960D01*
X2998634Y-10382960D02*
X2979586Y-10392484D01*
X2979586Y-10392484D02*
X2960539Y-10392484D01*
X2960539Y-10392484D02*
X2941491Y-10382960D01*
X2941491Y-10382960D02*
X2931967Y-10373436D01*
X2931967Y-10373436D02*
X2922443Y-10354389D01*
X2922443Y-10354389D02*
X2912920Y-10316293D01*
X2912920Y-10316293D02*
X2912920Y-10268674D01*
X2912920Y-10268674D02*
X2922443Y-10230579D01*
X2922443Y-10230579D02*
X2931967Y-10211531D01*
X2931967Y-10211531D02*
X2941491Y-10202008D01*
X2941491Y-10202008D02*
X2960539Y-10192484D01*
X3112920Y-10392484D02*
X3112920Y-10259150D01*
X3112920Y-10278198D02*
X3122443Y-10268674D01*
X3122443Y-10268674D02*
X3141491Y-10259150D01*
X3141491Y-10259150D02*
X3170063Y-10259150D01*
X3170063Y-10259150D02*
X3189110Y-10268674D01*
X3189110Y-10268674D02*
X3198634Y-10287722D01*
X3198634Y-10287722D02*
X3198634Y-10392484D01*
X3198634Y-10287722D02*
X3208158Y-10268674D01*
X3208158Y-10268674D02*
X3227205Y-10259150D01*
X3227205Y-10259150D02*
X3255777Y-10259150D01*
X3255777Y-10259150D02*
X3274824Y-10268674D01*
X3274824Y-10268674D02*
X3284348Y-10287722D01*
X3284348Y-10287722D02*
X3284348Y-10392484D01*
X3379586Y-10392484D02*
X3379586Y-10259150D01*
X3379586Y-10278198D02*
X3389110Y-10268674D01*
X3389110Y-10268674D02*
X3408158Y-10259150D01*
X3408158Y-10259150D02*
X3436729Y-10259150D01*
X3436729Y-10259150D02*
X3455777Y-10268674D01*
X3455777Y-10268674D02*
X3465301Y-10287722D01*
X3465301Y-10287722D02*
X3465301Y-10392484D01*
X3465301Y-10287722D02*
X3474824Y-10268674D01*
X3474824Y-10268674D02*
X3493872Y-10259150D01*
X3493872Y-10259150D02*
X3522443Y-10259150D01*
X3522443Y-10259150D02*
X3541491Y-10268674D01*
X3541491Y-10268674D02*
X3551015Y-10287722D01*
X3551015Y-10287722D02*
X3551015Y-10392484D01*
X3941491Y-10182960D02*
X3770063Y-10440103D01*
X4198634Y-10192484D02*
X4217682Y-10192484D01*
X4217682Y-10192484D02*
X4236729Y-10202008D01*
X4236729Y-10202008D02*
X4246253Y-10211531D01*
X4246253Y-10211531D02*
X4255777Y-10230579D01*
X4255777Y-10230579D02*
X4265301Y-10268674D01*
X4265301Y-10268674D02*
X4265301Y-10316293D01*
X4265301Y-10316293D02*
X4255777Y-10354389D01*
X4255777Y-10354389D02*
X4246253Y-10373436D01*
X4246253Y-10373436D02*
X4236729Y-10382960D01*
X4236729Y-10382960D02*
X4217682Y-10392484D01*
X4217682Y-10392484D02*
X4198634Y-10392484D01*
X4198634Y-10392484D02*
X4179586Y-10382960D01*
X4179586Y-10382960D02*
X4170063Y-10373436D01*
X4170063Y-10373436D02*
X4160539Y-10354389D01*
X4160539Y-10354389D02*
X4151015Y-10316293D01*
X4151015Y-10316293D02*
X4151015Y-10268674D01*
X4151015Y-10268674D02*
X4160539Y-10230579D01*
X4160539Y-10230579D02*
X4170063Y-10211531D01*
X4170063Y-10211531D02*
X4179586Y-10202008D01*
X4179586Y-10202008D02*
X4198634Y-10192484D01*
X4360539Y-10382960D02*
X4360539Y-10392484D01*
X4360539Y-10392484D02*
X4351015Y-10411531D01*
X4351015Y-10411531D02*
X4341491Y-10421055D01*
X4484348Y-10192484D02*
X4503396Y-10192484D01*
X4503396Y-10192484D02*
X4522444Y-10202008D01*
X4522444Y-10202008D02*
X4531968Y-10211531D01*
X4531968Y-10211531D02*
X4541491Y-10230579D01*
X4541491Y-10230579D02*
X4551015Y-10268674D01*
X4551015Y-10268674D02*
X4551015Y-10316293D01*
X4551015Y-10316293D02*
X4541491Y-10354389D01*
X4541491Y-10354389D02*
X4531968Y-10373436D01*
X4531968Y-10373436D02*
X4522444Y-10382960D01*
X4522444Y-10382960D02*
X4503396Y-10392484D01*
X4503396Y-10392484D02*
X4484348Y-10392484D01*
X4484348Y-10392484D02*
X4465301Y-10382960D01*
X4465301Y-10382960D02*
X4455777Y-10373436D01*
X4455777Y-10373436D02*
X4446253Y-10354389D01*
X4446253Y-10354389D02*
X4436729Y-10316293D01*
X4436729Y-10316293D02*
X4436729Y-10268674D01*
X4436729Y-10268674D02*
X4446253Y-10230579D01*
X4446253Y-10230579D02*
X4455777Y-10211531D01*
X4455777Y-10211531D02*
X4465301Y-10202008D01*
X4465301Y-10202008D02*
X4484348Y-10192484D01*
X4731968Y-10192484D02*
X4636729Y-10192484D01*
X4636729Y-10192484D02*
X4627206Y-10287722D01*
X4627206Y-10287722D02*
X4636729Y-10278198D01*
X4636729Y-10278198D02*
X4655777Y-10268674D01*
X4655777Y-10268674D02*
X4703396Y-10268674D01*
X4703396Y-10268674D02*
X4722444Y-10278198D01*
X4722444Y-10278198D02*
X4731968Y-10287722D01*
X4731968Y-10287722D02*
X4741491Y-10306770D01*
X4741491Y-10306770D02*
X4741491Y-10354389D01*
X4741491Y-10354389D02*
X4731968Y-10373436D01*
X4731968Y-10373436D02*
X4722444Y-10382960D01*
X4722444Y-10382960D02*
X4703396Y-10392484D01*
X4703396Y-10392484D02*
X4655777Y-10392484D01*
X4655777Y-10392484D02*
X4636729Y-10382960D01*
X4636729Y-10382960D02*
X4627206Y-10373436D01*
X4931968Y-10392484D02*
X4817682Y-10392484D01*
X4874825Y-10392484D02*
X4874825Y-10192484D01*
X4874825Y-10192484D02*
X4855777Y-10221055D01*
X4855777Y-10221055D02*
X4836729Y-10240103D01*
X4836729Y-10240103D02*
X4817682Y-10249627D01*
X5008158Y-10211531D02*
X5017682Y-10202008D01*
X5017682Y-10202008D02*
X5036729Y-10192484D01*
X5036729Y-10192484D02*
X5084349Y-10192484D01*
X5084349Y-10192484D02*
X5103396Y-10202008D01*
X5103396Y-10202008D02*
X5112920Y-10211531D01*
X5112920Y-10211531D02*
X5122444Y-10230579D01*
X5122444Y-10230579D02*
X5122444Y-10249627D01*
X5122444Y-10249627D02*
X5112920Y-10278198D01*
X5112920Y-10278198D02*
X4998634Y-10392484D01*
X4998634Y-10392484D02*
X5122444Y-10392484D01*
X5198634Y-10192484D02*
X5198634Y-10230579D01*
X5274825Y-10192484D02*
X5274825Y-10230579D01*
X5570063Y-10468674D02*
X5560539Y-10459150D01*
X5560539Y-10459150D02*
X5541491Y-10430579D01*
X5541491Y-10430579D02*
X5531968Y-10411531D01*
X5531968Y-10411531D02*
X5522444Y-10382960D01*
X5522444Y-10382960D02*
X5512920Y-10335341D01*
X5512920Y-10335341D02*
X5512920Y-10297246D01*
X5512920Y-10297246D02*
X5522444Y-10249627D01*
X5522444Y-10249627D02*
X5531968Y-10221055D01*
X5531968Y-10221055D02*
X5541491Y-10202008D01*
X5541491Y-10202008D02*
X5560539Y-10173436D01*
X5560539Y-10173436D02*
X5570063Y-10163912D01*
X5684348Y-10192484D02*
X5703396Y-10192484D01*
X5703396Y-10192484D02*
X5722444Y-10202008D01*
X5722444Y-10202008D02*
X5731968Y-10211531D01*
X5731968Y-10211531D02*
X5741491Y-10230579D01*
X5741491Y-10230579D02*
X5751015Y-10268674D01*
X5751015Y-10268674D02*
X5751015Y-10316293D01*
X5751015Y-10316293D02*
X5741491Y-10354389D01*
X5741491Y-10354389D02*
X5731968Y-10373436D01*
X5731968Y-10373436D02*
X5722444Y-10382960D01*
X5722444Y-10382960D02*
X5703396Y-10392484D01*
X5703396Y-10392484D02*
X5684348Y-10392484D01*
X5684348Y-10392484D02*
X5665301Y-10382960D01*
X5665301Y-10382960D02*
X5655777Y-10373436D01*
X5655777Y-10373436D02*
X5646253Y-10354389D01*
X5646253Y-10354389D02*
X5636729Y-10316293D01*
X5636729Y-10316293D02*
X5636729Y-10268674D01*
X5636729Y-10268674D02*
X5646253Y-10230579D01*
X5646253Y-10230579D02*
X5655777Y-10211531D01*
X5655777Y-10211531D02*
X5665301Y-10202008D01*
X5665301Y-10202008D02*
X5684348Y-10192484D01*
X5989110Y-10392484D02*
X5989110Y-10192484D01*
X6074825Y-10392484D02*
X6074825Y-10287722D01*
X6074825Y-10287722D02*
X6065301Y-10268674D01*
X6065301Y-10268674D02*
X6046253Y-10259150D01*
X6046253Y-10259150D02*
X6017682Y-10259150D01*
X6017682Y-10259150D02*
X5998634Y-10268674D01*
X5998634Y-10268674D02*
X5989110Y-10278198D01*
X6198634Y-10392484D02*
X6179587Y-10382960D01*
X6179587Y-10382960D02*
X6170063Y-10373436D01*
X6170063Y-10373436D02*
X6160539Y-10354389D01*
X6160539Y-10354389D02*
X6160539Y-10297246D01*
X6160539Y-10297246D02*
X6170063Y-10278198D01*
X6170063Y-10278198D02*
X6179587Y-10268674D01*
X6179587Y-10268674D02*
X6198634Y-10259150D01*
X6198634Y-10259150D02*
X6227206Y-10259150D01*
X6227206Y-10259150D02*
X6246253Y-10268674D01*
X6246253Y-10268674D02*
X6255777Y-10278198D01*
X6255777Y-10278198D02*
X6265301Y-10297246D01*
X6265301Y-10297246D02*
X6265301Y-10354389D01*
X6265301Y-10354389D02*
X6255777Y-10373436D01*
X6255777Y-10373436D02*
X6246253Y-10382960D01*
X6246253Y-10382960D02*
X6227206Y-10392484D01*
X6227206Y-10392484D02*
X6198634Y-10392484D01*
X6379587Y-10392484D02*
X6360539Y-10382960D01*
X6360539Y-10382960D02*
X6351015Y-10363912D01*
X6351015Y-10363912D02*
X6351015Y-10192484D01*
X6531968Y-10382960D02*
X6512920Y-10392484D01*
X6512920Y-10392484D02*
X6474825Y-10392484D01*
X6474825Y-10392484D02*
X6455777Y-10382960D01*
X6455777Y-10382960D02*
X6446253Y-10363912D01*
X6446253Y-10363912D02*
X6446253Y-10287722D01*
X6446253Y-10287722D02*
X6455777Y-10268674D01*
X6455777Y-10268674D02*
X6474825Y-10259150D01*
X6474825Y-10259150D02*
X6512920Y-10259150D01*
X6512920Y-10259150D02*
X6531968Y-10268674D01*
X6531968Y-10268674D02*
X6541491Y-10287722D01*
X6541491Y-10287722D02*
X6541491Y-10306770D01*
X6541491Y-10306770D02*
X6446253Y-10325817D01*
X6617682Y-10382960D02*
X6636730Y-10392484D01*
X6636730Y-10392484D02*
X6674825Y-10392484D01*
X6674825Y-10392484D02*
X6693872Y-10382960D01*
X6693872Y-10382960D02*
X6703396Y-10363912D01*
X6703396Y-10363912D02*
X6703396Y-10354389D01*
X6703396Y-10354389D02*
X6693872Y-10335341D01*
X6693872Y-10335341D02*
X6674825Y-10325817D01*
X6674825Y-10325817D02*
X6646253Y-10325817D01*
X6646253Y-10325817D02*
X6627206Y-10316293D01*
X6627206Y-10316293D02*
X6617682Y-10297246D01*
X6617682Y-10297246D02*
X6617682Y-10287722D01*
X6617682Y-10287722D02*
X6627206Y-10268674D01*
X6627206Y-10268674D02*
X6646253Y-10259150D01*
X6646253Y-10259150D02*
X6674825Y-10259150D01*
X6674825Y-10259150D02*
X6693872Y-10268674D01*
X6941492Y-10316293D02*
X7093873Y-10316293D01*
X7017682Y-10392484D02*
X7017682Y-10240103D01*
X7351015Y-10392484D02*
X7389111Y-10392484D01*
X7389111Y-10392484D02*
X7408158Y-10382960D01*
X7408158Y-10382960D02*
X7417682Y-10373436D01*
X7417682Y-10373436D02*
X7436730Y-10344865D01*
X7436730Y-10344865D02*
X7446253Y-10306770D01*
X7446253Y-10306770D02*
X7446253Y-10230579D01*
X7446253Y-10230579D02*
X7436730Y-10211531D01*
X7436730Y-10211531D02*
X7427206Y-10202008D01*
X7427206Y-10202008D02*
X7408158Y-10192484D01*
X7408158Y-10192484D02*
X7370063Y-10192484D01*
X7370063Y-10192484D02*
X7351015Y-10202008D01*
X7351015Y-10202008D02*
X7341492Y-10211531D01*
X7341492Y-10211531D02*
X7331968Y-10230579D01*
X7331968Y-10230579D02*
X7331968Y-10278198D01*
X7331968Y-10278198D02*
X7341492Y-10297246D01*
X7341492Y-10297246D02*
X7351015Y-10306770D01*
X7351015Y-10306770D02*
X7370063Y-10316293D01*
X7370063Y-10316293D02*
X7408158Y-10316293D01*
X7408158Y-10316293D02*
X7427206Y-10306770D01*
X7427206Y-10306770D02*
X7436730Y-10297246D01*
X7436730Y-10297246D02*
X7446253Y-10278198D01*
X7674825Y-10382960D02*
X7693873Y-10392484D01*
X7693873Y-10392484D02*
X7731968Y-10392484D01*
X7731968Y-10392484D02*
X7751015Y-10382960D01*
X7751015Y-10382960D02*
X7760539Y-10363912D01*
X7760539Y-10363912D02*
X7760539Y-10354389D01*
X7760539Y-10354389D02*
X7751015Y-10335341D01*
X7751015Y-10335341D02*
X7731968Y-10325817D01*
X7731968Y-10325817D02*
X7703396Y-10325817D01*
X7703396Y-10325817D02*
X7684349Y-10316293D01*
X7684349Y-10316293D02*
X7674825Y-10297246D01*
X7674825Y-10297246D02*
X7674825Y-10287722D01*
X7674825Y-10287722D02*
X7684349Y-10268674D01*
X7684349Y-10268674D02*
X7703396Y-10259150D01*
X7703396Y-10259150D02*
X7731968Y-10259150D01*
X7731968Y-10259150D02*
X7751015Y-10268674D01*
X7874825Y-10392484D02*
X7855777Y-10382960D01*
X7855777Y-10382960D02*
X7846254Y-10363912D01*
X7846254Y-10363912D02*
X7846254Y-10192484D01*
X7979587Y-10392484D02*
X7960539Y-10382960D01*
X7960539Y-10382960D02*
X7951015Y-10373436D01*
X7951015Y-10373436D02*
X7941492Y-10354389D01*
X7941492Y-10354389D02*
X7941492Y-10297246D01*
X7941492Y-10297246D02*
X7951015Y-10278198D01*
X7951015Y-10278198D02*
X7960539Y-10268674D01*
X7960539Y-10268674D02*
X7979587Y-10259150D01*
X7979587Y-10259150D02*
X8008158Y-10259150D01*
X8008158Y-10259150D02*
X8027206Y-10268674D01*
X8027206Y-10268674D02*
X8036730Y-10278198D01*
X8036730Y-10278198D02*
X8046254Y-10297246D01*
X8046254Y-10297246D02*
X8046254Y-10354389D01*
X8046254Y-10354389D02*
X8036730Y-10373436D01*
X8036730Y-10373436D02*
X8027206Y-10382960D01*
X8027206Y-10382960D02*
X8008158Y-10392484D01*
X8008158Y-10392484D02*
X7979587Y-10392484D01*
X8103396Y-10259150D02*
X8179587Y-10259150D01*
X8131968Y-10192484D02*
X8131968Y-10363912D01*
X8131968Y-10363912D02*
X8141492Y-10382960D01*
X8141492Y-10382960D02*
X8160539Y-10392484D01*
X8160539Y-10392484D02*
X8179587Y-10392484D01*
X8236730Y-10382960D02*
X8255777Y-10392484D01*
X8255777Y-10392484D02*
X8293873Y-10392484D01*
X8293873Y-10392484D02*
X8312920Y-10382960D01*
X8312920Y-10382960D02*
X8322444Y-10363912D01*
X8322444Y-10363912D02*
X8322444Y-10354389D01*
X8322444Y-10354389D02*
X8312920Y-10335341D01*
X8312920Y-10335341D02*
X8293873Y-10325817D01*
X8293873Y-10325817D02*
X8265301Y-10325817D01*
X8265301Y-10325817D02*
X8246254Y-10316293D01*
X8246254Y-10316293D02*
X8236730Y-10297246D01*
X8236730Y-10297246D02*
X8236730Y-10287722D01*
X8236730Y-10287722D02*
X8246254Y-10268674D01*
X8246254Y-10268674D02*
X8265301Y-10259150D01*
X8265301Y-10259150D02*
X8293873Y-10259150D01*
X8293873Y-10259150D02*
X8312920Y-10268674D01*
X8389111Y-10468674D02*
X8398635Y-10459150D01*
X8398635Y-10459150D02*
X8417682Y-10430579D01*
X8417682Y-10430579D02*
X8427206Y-10411531D01*
X8427206Y-10411531D02*
X8436730Y-10382960D01*
X8436730Y-10382960D02*
X8446254Y-10335341D01*
X8446254Y-10335341D02*
X8446254Y-10297246D01*
X8446254Y-10297246D02*
X8436730Y-10249627D01*
X8436730Y-10249627D02*
X8427206Y-10221055D01*
X8427206Y-10221055D02*
X8417682Y-10202008D01*
X8417682Y-10202008D02*
X8398635Y-10173436D01*
X8398635Y-10173436D02*
X8389111Y-10163912D01*
D14*
X1845000Y-10490000D02*
X1995000Y-10640000D01*
X1995000Y-10490000D02*
X1845000Y-10640000D01*
X1995000Y-10565000D02*
G75*
G02*
X1845000Y-10565000I-75000J0D01*
G01*
X1845000Y-10565000D02*
G75*
G02*
X1995000Y-10565000I75000J0D01*
G01*
D11*
X2360539Y-10656484D02*
X2246253Y-10656484D01*
X2303396Y-10656484D02*
X2303396Y-10456484D01*
X2303396Y-10456484D02*
X2284348Y-10485055D01*
X2284348Y-10485055D02*
X2265301Y-10504103D01*
X2265301Y-10504103D02*
X2246253Y-10513627D01*
X2455777Y-10646960D02*
X2455777Y-10656484D01*
X2455777Y-10656484D02*
X2446253Y-10675531D01*
X2446253Y-10675531D02*
X2436729Y-10685055D01*
X2636729Y-10456484D02*
X2541491Y-10456484D01*
X2541491Y-10456484D02*
X2531967Y-10551722D01*
X2531967Y-10551722D02*
X2541491Y-10542198D01*
X2541491Y-10542198D02*
X2560539Y-10532674D01*
X2560539Y-10532674D02*
X2608158Y-10532674D01*
X2608158Y-10532674D02*
X2627205Y-10542198D01*
X2627205Y-10542198D02*
X2636729Y-10551722D01*
X2636729Y-10551722D02*
X2646253Y-10570770D01*
X2646253Y-10570770D02*
X2646253Y-10618389D01*
X2646253Y-10618389D02*
X2636729Y-10637436D01*
X2636729Y-10637436D02*
X2627205Y-10646960D01*
X2627205Y-10646960D02*
X2608158Y-10656484D01*
X2608158Y-10656484D02*
X2560539Y-10656484D01*
X2560539Y-10656484D02*
X2541491Y-10646960D01*
X2541491Y-10646960D02*
X2531967Y-10637436D01*
X2770063Y-10456484D02*
X2789110Y-10456484D01*
X2789110Y-10456484D02*
X2808158Y-10466008D01*
X2808158Y-10466008D02*
X2817682Y-10475531D01*
X2817682Y-10475531D02*
X2827205Y-10494579D01*
X2827205Y-10494579D02*
X2836729Y-10532674D01*
X2836729Y-10532674D02*
X2836729Y-10580293D01*
X2836729Y-10580293D02*
X2827205Y-10618389D01*
X2827205Y-10618389D02*
X2817682Y-10637436D01*
X2817682Y-10637436D02*
X2808158Y-10646960D01*
X2808158Y-10646960D02*
X2789110Y-10656484D01*
X2789110Y-10656484D02*
X2770063Y-10656484D01*
X2770063Y-10656484D02*
X2751015Y-10646960D01*
X2751015Y-10646960D02*
X2741491Y-10637436D01*
X2741491Y-10637436D02*
X2731967Y-10618389D01*
X2731967Y-10618389D02*
X2722444Y-10580293D01*
X2722444Y-10580293D02*
X2722444Y-10532674D01*
X2722444Y-10532674D02*
X2731967Y-10494579D01*
X2731967Y-10494579D02*
X2741491Y-10475531D01*
X2741491Y-10475531D02*
X2751015Y-10466008D01*
X2751015Y-10466008D02*
X2770063Y-10456484D01*
X2960539Y-10456484D02*
X2979586Y-10456484D01*
X2979586Y-10456484D02*
X2998634Y-10466008D01*
X2998634Y-10466008D02*
X3008158Y-10475531D01*
X3008158Y-10475531D02*
X3017682Y-10494579D01*
X3017682Y-10494579D02*
X3027205Y-10532674D01*
X3027205Y-10532674D02*
X3027205Y-10580293D01*
X3027205Y-10580293D02*
X3017682Y-10618389D01*
X3017682Y-10618389D02*
X3008158Y-10637436D01*
X3008158Y-10637436D02*
X2998634Y-10646960D01*
X2998634Y-10646960D02*
X2979586Y-10656484D01*
X2979586Y-10656484D02*
X2960539Y-10656484D01*
X2960539Y-10656484D02*
X2941491Y-10646960D01*
X2941491Y-10646960D02*
X2931967Y-10637436D01*
X2931967Y-10637436D02*
X2922443Y-10618389D01*
X2922443Y-10618389D02*
X2912920Y-10580293D01*
X2912920Y-10580293D02*
X2912920Y-10532674D01*
X2912920Y-10532674D02*
X2922443Y-10494579D01*
X2922443Y-10494579D02*
X2931967Y-10475531D01*
X2931967Y-10475531D02*
X2941491Y-10466008D01*
X2941491Y-10466008D02*
X2960539Y-10456484D01*
X3112920Y-10656484D02*
X3112920Y-10523150D01*
X3112920Y-10542198D02*
X3122443Y-10532674D01*
X3122443Y-10532674D02*
X3141491Y-10523150D01*
X3141491Y-10523150D02*
X3170063Y-10523150D01*
X3170063Y-10523150D02*
X3189110Y-10532674D01*
X3189110Y-10532674D02*
X3198634Y-10551722D01*
X3198634Y-10551722D02*
X3198634Y-10656484D01*
X3198634Y-10551722D02*
X3208158Y-10532674D01*
X3208158Y-10532674D02*
X3227205Y-10523150D01*
X3227205Y-10523150D02*
X3255777Y-10523150D01*
X3255777Y-10523150D02*
X3274824Y-10532674D01*
X3274824Y-10532674D02*
X3284348Y-10551722D01*
X3284348Y-10551722D02*
X3284348Y-10656484D01*
X3379586Y-10656484D02*
X3379586Y-10523150D01*
X3379586Y-10542198D02*
X3389110Y-10532674D01*
X3389110Y-10532674D02*
X3408158Y-10523150D01*
X3408158Y-10523150D02*
X3436729Y-10523150D01*
X3436729Y-10523150D02*
X3455777Y-10532674D01*
X3455777Y-10532674D02*
X3465301Y-10551722D01*
X3465301Y-10551722D02*
X3465301Y-10656484D01*
X3465301Y-10551722D02*
X3474824Y-10532674D01*
X3474824Y-10532674D02*
X3493872Y-10523150D01*
X3493872Y-10523150D02*
X3522443Y-10523150D01*
X3522443Y-10523150D02*
X3541491Y-10532674D01*
X3541491Y-10532674D02*
X3551015Y-10551722D01*
X3551015Y-10551722D02*
X3551015Y-10656484D01*
X3941491Y-10446960D02*
X3770063Y-10704103D01*
X4198634Y-10456484D02*
X4217682Y-10456484D01*
X4217682Y-10456484D02*
X4236729Y-10466008D01*
X4236729Y-10466008D02*
X4246253Y-10475531D01*
X4246253Y-10475531D02*
X4255777Y-10494579D01*
X4255777Y-10494579D02*
X4265301Y-10532674D01*
X4265301Y-10532674D02*
X4265301Y-10580293D01*
X4265301Y-10580293D02*
X4255777Y-10618389D01*
X4255777Y-10618389D02*
X4246253Y-10637436D01*
X4246253Y-10637436D02*
X4236729Y-10646960D01*
X4236729Y-10646960D02*
X4217682Y-10656484D01*
X4217682Y-10656484D02*
X4198634Y-10656484D01*
X4198634Y-10656484D02*
X4179586Y-10646960D01*
X4179586Y-10646960D02*
X4170063Y-10637436D01*
X4170063Y-10637436D02*
X4160539Y-10618389D01*
X4160539Y-10618389D02*
X4151015Y-10580293D01*
X4151015Y-10580293D02*
X4151015Y-10532674D01*
X4151015Y-10532674D02*
X4160539Y-10494579D01*
X4160539Y-10494579D02*
X4170063Y-10475531D01*
X4170063Y-10475531D02*
X4179586Y-10466008D01*
X4179586Y-10466008D02*
X4198634Y-10456484D01*
X4360539Y-10646960D02*
X4360539Y-10656484D01*
X4360539Y-10656484D02*
X4351015Y-10675531D01*
X4351015Y-10675531D02*
X4341491Y-10685055D01*
X4484348Y-10456484D02*
X4503396Y-10456484D01*
X4503396Y-10456484D02*
X4522444Y-10466008D01*
X4522444Y-10466008D02*
X4531968Y-10475531D01*
X4531968Y-10475531D02*
X4541491Y-10494579D01*
X4541491Y-10494579D02*
X4551015Y-10532674D01*
X4551015Y-10532674D02*
X4551015Y-10580293D01*
X4551015Y-10580293D02*
X4541491Y-10618389D01*
X4541491Y-10618389D02*
X4531968Y-10637436D01*
X4531968Y-10637436D02*
X4522444Y-10646960D01*
X4522444Y-10646960D02*
X4503396Y-10656484D01*
X4503396Y-10656484D02*
X4484348Y-10656484D01*
X4484348Y-10656484D02*
X4465301Y-10646960D01*
X4465301Y-10646960D02*
X4455777Y-10637436D01*
X4455777Y-10637436D02*
X4446253Y-10618389D01*
X4446253Y-10618389D02*
X4436729Y-10580293D01*
X4436729Y-10580293D02*
X4436729Y-10532674D01*
X4436729Y-10532674D02*
X4446253Y-10494579D01*
X4446253Y-10494579D02*
X4455777Y-10475531D01*
X4455777Y-10475531D02*
X4465301Y-10466008D01*
X4465301Y-10466008D02*
X4484348Y-10456484D01*
X4731968Y-10456484D02*
X4636729Y-10456484D01*
X4636729Y-10456484D02*
X4627206Y-10551722D01*
X4627206Y-10551722D02*
X4636729Y-10542198D01*
X4636729Y-10542198D02*
X4655777Y-10532674D01*
X4655777Y-10532674D02*
X4703396Y-10532674D01*
X4703396Y-10532674D02*
X4722444Y-10542198D01*
X4722444Y-10542198D02*
X4731968Y-10551722D01*
X4731968Y-10551722D02*
X4741491Y-10570770D01*
X4741491Y-10570770D02*
X4741491Y-10618389D01*
X4741491Y-10618389D02*
X4731968Y-10637436D01*
X4731968Y-10637436D02*
X4722444Y-10646960D01*
X4722444Y-10646960D02*
X4703396Y-10656484D01*
X4703396Y-10656484D02*
X4655777Y-10656484D01*
X4655777Y-10656484D02*
X4636729Y-10646960D01*
X4636729Y-10646960D02*
X4627206Y-10637436D01*
X4836729Y-10656484D02*
X4874825Y-10656484D01*
X4874825Y-10656484D02*
X4893872Y-10646960D01*
X4893872Y-10646960D02*
X4903396Y-10637436D01*
X4903396Y-10637436D02*
X4922444Y-10608865D01*
X4922444Y-10608865D02*
X4931968Y-10570770D01*
X4931968Y-10570770D02*
X4931968Y-10494579D01*
X4931968Y-10494579D02*
X4922444Y-10475531D01*
X4922444Y-10475531D02*
X4912920Y-10466008D01*
X4912920Y-10466008D02*
X4893872Y-10456484D01*
X4893872Y-10456484D02*
X4855777Y-10456484D01*
X4855777Y-10456484D02*
X4836729Y-10466008D01*
X4836729Y-10466008D02*
X4827206Y-10475531D01*
X4827206Y-10475531D02*
X4817682Y-10494579D01*
X4817682Y-10494579D02*
X4817682Y-10542198D01*
X4817682Y-10542198D02*
X4827206Y-10561246D01*
X4827206Y-10561246D02*
X4836729Y-10570770D01*
X4836729Y-10570770D02*
X4855777Y-10580293D01*
X4855777Y-10580293D02*
X4893872Y-10580293D01*
X4893872Y-10580293D02*
X4912920Y-10570770D01*
X4912920Y-10570770D02*
X4922444Y-10561246D01*
X4922444Y-10561246D02*
X4931968Y-10542198D01*
X5122444Y-10656484D02*
X5008158Y-10656484D01*
X5065301Y-10656484D02*
X5065301Y-10456484D01*
X5065301Y-10456484D02*
X5046253Y-10485055D01*
X5046253Y-10485055D02*
X5027206Y-10504103D01*
X5027206Y-10504103D02*
X5008158Y-10513627D01*
X5198634Y-10456484D02*
X5198634Y-10494579D01*
X5274825Y-10456484D02*
X5274825Y-10494579D01*
X5570063Y-10732674D02*
X5560539Y-10723150D01*
X5560539Y-10723150D02*
X5541491Y-10694579D01*
X5541491Y-10694579D02*
X5531968Y-10675531D01*
X5531968Y-10675531D02*
X5522444Y-10646960D01*
X5522444Y-10646960D02*
X5512920Y-10599341D01*
X5512920Y-10599341D02*
X5512920Y-10561246D01*
X5512920Y-10561246D02*
X5522444Y-10513627D01*
X5522444Y-10513627D02*
X5531968Y-10485055D01*
X5531968Y-10485055D02*
X5541491Y-10466008D01*
X5541491Y-10466008D02*
X5560539Y-10437436D01*
X5560539Y-10437436D02*
X5570063Y-10427912D01*
X5627206Y-10456484D02*
X5751015Y-10456484D01*
X5751015Y-10456484D02*
X5684348Y-10532674D01*
X5684348Y-10532674D02*
X5712920Y-10532674D01*
X5712920Y-10532674D02*
X5731968Y-10542198D01*
X5731968Y-10542198D02*
X5741491Y-10551722D01*
X5741491Y-10551722D02*
X5751015Y-10570770D01*
X5751015Y-10570770D02*
X5751015Y-10618389D01*
X5751015Y-10618389D02*
X5741491Y-10637436D01*
X5741491Y-10637436D02*
X5731968Y-10646960D01*
X5731968Y-10646960D02*
X5712920Y-10656484D01*
X5712920Y-10656484D02*
X5655777Y-10656484D01*
X5655777Y-10656484D02*
X5636729Y-10646960D01*
X5636729Y-10646960D02*
X5627206Y-10637436D01*
X5989110Y-10656484D02*
X5989110Y-10456484D01*
X6074825Y-10656484D02*
X6074825Y-10551722D01*
X6074825Y-10551722D02*
X6065301Y-10532674D01*
X6065301Y-10532674D02*
X6046253Y-10523150D01*
X6046253Y-10523150D02*
X6017682Y-10523150D01*
X6017682Y-10523150D02*
X5998634Y-10532674D01*
X5998634Y-10532674D02*
X5989110Y-10542198D01*
X6198634Y-10656484D02*
X6179587Y-10646960D01*
X6179587Y-10646960D02*
X6170063Y-10637436D01*
X6170063Y-10637436D02*
X6160539Y-10618389D01*
X6160539Y-10618389D02*
X6160539Y-10561246D01*
X6160539Y-10561246D02*
X6170063Y-10542198D01*
X6170063Y-10542198D02*
X6179587Y-10532674D01*
X6179587Y-10532674D02*
X6198634Y-10523150D01*
X6198634Y-10523150D02*
X6227206Y-10523150D01*
X6227206Y-10523150D02*
X6246253Y-10532674D01*
X6246253Y-10532674D02*
X6255777Y-10542198D01*
X6255777Y-10542198D02*
X6265301Y-10561246D01*
X6265301Y-10561246D02*
X6265301Y-10618389D01*
X6265301Y-10618389D02*
X6255777Y-10637436D01*
X6255777Y-10637436D02*
X6246253Y-10646960D01*
X6246253Y-10646960D02*
X6227206Y-10656484D01*
X6227206Y-10656484D02*
X6198634Y-10656484D01*
X6379587Y-10656484D02*
X6360539Y-10646960D01*
X6360539Y-10646960D02*
X6351015Y-10627912D01*
X6351015Y-10627912D02*
X6351015Y-10456484D01*
X6531968Y-10646960D02*
X6512920Y-10656484D01*
X6512920Y-10656484D02*
X6474825Y-10656484D01*
X6474825Y-10656484D02*
X6455777Y-10646960D01*
X6455777Y-10646960D02*
X6446253Y-10627912D01*
X6446253Y-10627912D02*
X6446253Y-10551722D01*
X6446253Y-10551722D02*
X6455777Y-10532674D01*
X6455777Y-10532674D02*
X6474825Y-10523150D01*
X6474825Y-10523150D02*
X6512920Y-10523150D01*
X6512920Y-10523150D02*
X6531968Y-10532674D01*
X6531968Y-10532674D02*
X6541491Y-10551722D01*
X6541491Y-10551722D02*
X6541491Y-10570770D01*
X6541491Y-10570770D02*
X6446253Y-10589817D01*
X6617682Y-10646960D02*
X6636730Y-10656484D01*
X6636730Y-10656484D02*
X6674825Y-10656484D01*
X6674825Y-10656484D02*
X6693872Y-10646960D01*
X6693872Y-10646960D02*
X6703396Y-10627912D01*
X6703396Y-10627912D02*
X6703396Y-10618389D01*
X6703396Y-10618389D02*
X6693872Y-10599341D01*
X6693872Y-10599341D02*
X6674825Y-10589817D01*
X6674825Y-10589817D02*
X6646253Y-10589817D01*
X6646253Y-10589817D02*
X6627206Y-10580293D01*
X6627206Y-10580293D02*
X6617682Y-10561246D01*
X6617682Y-10561246D02*
X6617682Y-10551722D01*
X6617682Y-10551722D02*
X6627206Y-10532674D01*
X6627206Y-10532674D02*
X6646253Y-10523150D01*
X6646253Y-10523150D02*
X6674825Y-10523150D01*
X6674825Y-10523150D02*
X6693872Y-10532674D01*
X6770063Y-10732674D02*
X6779587Y-10723150D01*
X6779587Y-10723150D02*
X6798634Y-10694579D01*
X6798634Y-10694579D02*
X6808158Y-10675531D01*
X6808158Y-10675531D02*
X6817682Y-10646960D01*
X6817682Y-10646960D02*
X6827206Y-10599341D01*
X6827206Y-10599341D02*
X6827206Y-10561246D01*
X6827206Y-10561246D02*
X6817682Y-10513627D01*
X6817682Y-10513627D02*
X6808158Y-10485055D01*
X6808158Y-10485055D02*
X6798634Y-10466008D01*
X6798634Y-10466008D02*
X6779587Y-10437436D01*
X6779587Y-10437436D02*
X6770063Y-10427912D01*
X1795000Y-10735000D02*
X1995000Y-10935000D01*
X1995000Y-10735000D02*
X1795000Y-10935000D01*
X1895000Y-10735000D02*
X1895000Y-10935000D01*
X1795000Y-10835000D02*
X1995000Y-10835000D01*
X2236729Y-10726484D02*
X2360539Y-10726484D01*
X2360539Y-10726484D02*
X2293872Y-10802674D01*
X2293872Y-10802674D02*
X2322444Y-10802674D01*
X2322444Y-10802674D02*
X2341491Y-10812198D01*
X2341491Y-10812198D02*
X2351015Y-10821722D01*
X2351015Y-10821722D02*
X2360539Y-10840770D01*
X2360539Y-10840770D02*
X2360539Y-10888389D01*
X2360539Y-10888389D02*
X2351015Y-10907436D01*
X2351015Y-10907436D02*
X2341491Y-10916960D01*
X2341491Y-10916960D02*
X2322444Y-10926484D01*
X2322444Y-10926484D02*
X2265301Y-10926484D01*
X2265301Y-10926484D02*
X2246253Y-10916960D01*
X2246253Y-10916960D02*
X2236729Y-10907436D01*
X2455777Y-10916960D02*
X2455777Y-10926484D01*
X2455777Y-10926484D02*
X2446253Y-10945531D01*
X2446253Y-10945531D02*
X2436729Y-10955055D01*
X2531967Y-10745531D02*
X2541491Y-10736008D01*
X2541491Y-10736008D02*
X2560539Y-10726484D01*
X2560539Y-10726484D02*
X2608158Y-10726484D01*
X2608158Y-10726484D02*
X2627205Y-10736008D01*
X2627205Y-10736008D02*
X2636729Y-10745531D01*
X2636729Y-10745531D02*
X2646253Y-10764579D01*
X2646253Y-10764579D02*
X2646253Y-10783627D01*
X2646253Y-10783627D02*
X2636729Y-10812198D01*
X2636729Y-10812198D02*
X2522444Y-10926484D01*
X2522444Y-10926484D02*
X2646253Y-10926484D01*
X2770063Y-10726484D02*
X2789110Y-10726484D01*
X2789110Y-10726484D02*
X2808158Y-10736008D01*
X2808158Y-10736008D02*
X2817682Y-10745531D01*
X2817682Y-10745531D02*
X2827205Y-10764579D01*
X2827205Y-10764579D02*
X2836729Y-10802674D01*
X2836729Y-10802674D02*
X2836729Y-10850293D01*
X2836729Y-10850293D02*
X2827205Y-10888389D01*
X2827205Y-10888389D02*
X2817682Y-10907436D01*
X2817682Y-10907436D02*
X2808158Y-10916960D01*
X2808158Y-10916960D02*
X2789110Y-10926484D01*
X2789110Y-10926484D02*
X2770063Y-10926484D01*
X2770063Y-10926484D02*
X2751015Y-10916960D01*
X2751015Y-10916960D02*
X2741491Y-10907436D01*
X2741491Y-10907436D02*
X2731967Y-10888389D01*
X2731967Y-10888389D02*
X2722444Y-10850293D01*
X2722444Y-10850293D02*
X2722444Y-10802674D01*
X2722444Y-10802674D02*
X2731967Y-10764579D01*
X2731967Y-10764579D02*
X2741491Y-10745531D01*
X2741491Y-10745531D02*
X2751015Y-10736008D01*
X2751015Y-10736008D02*
X2770063Y-10726484D01*
X2960539Y-10726484D02*
X2979586Y-10726484D01*
X2979586Y-10726484D02*
X2998634Y-10736008D01*
X2998634Y-10736008D02*
X3008158Y-10745531D01*
X3008158Y-10745531D02*
X3017682Y-10764579D01*
X3017682Y-10764579D02*
X3027205Y-10802674D01*
X3027205Y-10802674D02*
X3027205Y-10850293D01*
X3027205Y-10850293D02*
X3017682Y-10888389D01*
X3017682Y-10888389D02*
X3008158Y-10907436D01*
X3008158Y-10907436D02*
X2998634Y-10916960D01*
X2998634Y-10916960D02*
X2979586Y-10926484D01*
X2979586Y-10926484D02*
X2960539Y-10926484D01*
X2960539Y-10926484D02*
X2941491Y-10916960D01*
X2941491Y-10916960D02*
X2931967Y-10907436D01*
X2931967Y-10907436D02*
X2922443Y-10888389D01*
X2922443Y-10888389D02*
X2912920Y-10850293D01*
X2912920Y-10850293D02*
X2912920Y-10802674D01*
X2912920Y-10802674D02*
X2922443Y-10764579D01*
X2922443Y-10764579D02*
X2931967Y-10745531D01*
X2931967Y-10745531D02*
X2941491Y-10736008D01*
X2941491Y-10736008D02*
X2960539Y-10726484D01*
X3112920Y-10926484D02*
X3112920Y-10793150D01*
X3112920Y-10812198D02*
X3122443Y-10802674D01*
X3122443Y-10802674D02*
X3141491Y-10793150D01*
X3141491Y-10793150D02*
X3170063Y-10793150D01*
X3170063Y-10793150D02*
X3189110Y-10802674D01*
X3189110Y-10802674D02*
X3198634Y-10821722D01*
X3198634Y-10821722D02*
X3198634Y-10926484D01*
X3198634Y-10821722D02*
X3208158Y-10802674D01*
X3208158Y-10802674D02*
X3227205Y-10793150D01*
X3227205Y-10793150D02*
X3255777Y-10793150D01*
X3255777Y-10793150D02*
X3274824Y-10802674D01*
X3274824Y-10802674D02*
X3284348Y-10821722D01*
X3284348Y-10821722D02*
X3284348Y-10926484D01*
X3379586Y-10926484D02*
X3379586Y-10793150D01*
X3379586Y-10812198D02*
X3389110Y-10802674D01*
X3389110Y-10802674D02*
X3408158Y-10793150D01*
X3408158Y-10793150D02*
X3436729Y-10793150D01*
X3436729Y-10793150D02*
X3455777Y-10802674D01*
X3455777Y-10802674D02*
X3465301Y-10821722D01*
X3465301Y-10821722D02*
X3465301Y-10926484D01*
X3465301Y-10821722D02*
X3474824Y-10802674D01*
X3474824Y-10802674D02*
X3493872Y-10793150D01*
X3493872Y-10793150D02*
X3522443Y-10793150D01*
X3522443Y-10793150D02*
X3541491Y-10802674D01*
X3541491Y-10802674D02*
X3551015Y-10821722D01*
X3551015Y-10821722D02*
X3551015Y-10926484D01*
X3941491Y-10716960D02*
X3770063Y-10974103D01*
X4198634Y-10726484D02*
X4217682Y-10726484D01*
X4217682Y-10726484D02*
X4236729Y-10736008D01*
X4236729Y-10736008D02*
X4246253Y-10745531D01*
X4246253Y-10745531D02*
X4255777Y-10764579D01*
X4255777Y-10764579D02*
X4265301Y-10802674D01*
X4265301Y-10802674D02*
X4265301Y-10850293D01*
X4265301Y-10850293D02*
X4255777Y-10888389D01*
X4255777Y-10888389D02*
X4246253Y-10907436D01*
X4246253Y-10907436D02*
X4236729Y-10916960D01*
X4236729Y-10916960D02*
X4217682Y-10926484D01*
X4217682Y-10926484D02*
X4198634Y-10926484D01*
X4198634Y-10926484D02*
X4179586Y-10916960D01*
X4179586Y-10916960D02*
X4170063Y-10907436D01*
X4170063Y-10907436D02*
X4160539Y-10888389D01*
X4160539Y-10888389D02*
X4151015Y-10850293D01*
X4151015Y-10850293D02*
X4151015Y-10802674D01*
X4151015Y-10802674D02*
X4160539Y-10764579D01*
X4160539Y-10764579D02*
X4170063Y-10745531D01*
X4170063Y-10745531D02*
X4179586Y-10736008D01*
X4179586Y-10736008D02*
X4198634Y-10726484D01*
X4360539Y-10916960D02*
X4360539Y-10926484D01*
X4360539Y-10926484D02*
X4351015Y-10945531D01*
X4351015Y-10945531D02*
X4341491Y-10955055D01*
X4551015Y-10926484D02*
X4436729Y-10926484D01*
X4493872Y-10926484D02*
X4493872Y-10726484D01*
X4493872Y-10726484D02*
X4474825Y-10755055D01*
X4474825Y-10755055D02*
X4455777Y-10774103D01*
X4455777Y-10774103D02*
X4436729Y-10783627D01*
X4627206Y-10745531D02*
X4636729Y-10736008D01*
X4636729Y-10736008D02*
X4655777Y-10726484D01*
X4655777Y-10726484D02*
X4703396Y-10726484D01*
X4703396Y-10726484D02*
X4722444Y-10736008D01*
X4722444Y-10736008D02*
X4731968Y-10745531D01*
X4731968Y-10745531D02*
X4741491Y-10764579D01*
X4741491Y-10764579D02*
X4741491Y-10783627D01*
X4741491Y-10783627D02*
X4731968Y-10812198D01*
X4731968Y-10812198D02*
X4617682Y-10926484D01*
X4617682Y-10926484D02*
X4741491Y-10926484D01*
X4912920Y-10726484D02*
X4874825Y-10726484D01*
X4874825Y-10726484D02*
X4855777Y-10736008D01*
X4855777Y-10736008D02*
X4846253Y-10745531D01*
X4846253Y-10745531D02*
X4827206Y-10774103D01*
X4827206Y-10774103D02*
X4817682Y-10812198D01*
X4817682Y-10812198D02*
X4817682Y-10888389D01*
X4817682Y-10888389D02*
X4827206Y-10907436D01*
X4827206Y-10907436D02*
X4836729Y-10916960D01*
X4836729Y-10916960D02*
X4855777Y-10926484D01*
X4855777Y-10926484D02*
X4893872Y-10926484D01*
X4893872Y-10926484D02*
X4912920Y-10916960D01*
X4912920Y-10916960D02*
X4922444Y-10907436D01*
X4922444Y-10907436D02*
X4931968Y-10888389D01*
X4931968Y-10888389D02*
X4931968Y-10840770D01*
X4931968Y-10840770D02*
X4922444Y-10821722D01*
X4922444Y-10821722D02*
X4912920Y-10812198D01*
X4912920Y-10812198D02*
X4893872Y-10802674D01*
X4893872Y-10802674D02*
X4855777Y-10802674D01*
X4855777Y-10802674D02*
X4836729Y-10812198D01*
X4836729Y-10812198D02*
X4827206Y-10821722D01*
X4827206Y-10821722D02*
X4817682Y-10840770D01*
X5055777Y-10726484D02*
X5074825Y-10726484D01*
X5074825Y-10726484D02*
X5093872Y-10736008D01*
X5093872Y-10736008D02*
X5103396Y-10745531D01*
X5103396Y-10745531D02*
X5112920Y-10764579D01*
X5112920Y-10764579D02*
X5122444Y-10802674D01*
X5122444Y-10802674D02*
X5122444Y-10850293D01*
X5122444Y-10850293D02*
X5112920Y-10888389D01*
X5112920Y-10888389D02*
X5103396Y-10907436D01*
X5103396Y-10907436D02*
X5093872Y-10916960D01*
X5093872Y-10916960D02*
X5074825Y-10926484D01*
X5074825Y-10926484D02*
X5055777Y-10926484D01*
X5055777Y-10926484D02*
X5036729Y-10916960D01*
X5036729Y-10916960D02*
X5027206Y-10907436D01*
X5027206Y-10907436D02*
X5017682Y-10888389D01*
X5017682Y-10888389D02*
X5008158Y-10850293D01*
X5008158Y-10850293D02*
X5008158Y-10802674D01*
X5008158Y-10802674D02*
X5017682Y-10764579D01*
X5017682Y-10764579D02*
X5027206Y-10745531D01*
X5027206Y-10745531D02*
X5036729Y-10736008D01*
X5036729Y-10736008D02*
X5055777Y-10726484D01*
X5198634Y-10726484D02*
X5198634Y-10764579D01*
X5274825Y-10726484D02*
X5274825Y-10764579D01*
X5570063Y-11002674D02*
X5560539Y-10993150D01*
X5560539Y-10993150D02*
X5541491Y-10964579D01*
X5541491Y-10964579D02*
X5531968Y-10945531D01*
X5531968Y-10945531D02*
X5522444Y-10916960D01*
X5522444Y-10916960D02*
X5512920Y-10869341D01*
X5512920Y-10869341D02*
X5512920Y-10831246D01*
X5512920Y-10831246D02*
X5522444Y-10783627D01*
X5522444Y-10783627D02*
X5531968Y-10755055D01*
X5531968Y-10755055D02*
X5541491Y-10736008D01*
X5541491Y-10736008D02*
X5560539Y-10707436D01*
X5560539Y-10707436D02*
X5570063Y-10697912D01*
X5636729Y-10745531D02*
X5646253Y-10736008D01*
X5646253Y-10736008D02*
X5665301Y-10726484D01*
X5665301Y-10726484D02*
X5712920Y-10726484D01*
X5712920Y-10726484D02*
X5731968Y-10736008D01*
X5731968Y-10736008D02*
X5741491Y-10745531D01*
X5741491Y-10745531D02*
X5751015Y-10764579D01*
X5751015Y-10764579D02*
X5751015Y-10783627D01*
X5751015Y-10783627D02*
X5741491Y-10812198D01*
X5741491Y-10812198D02*
X5627206Y-10926484D01*
X5627206Y-10926484D02*
X5751015Y-10926484D01*
X5989110Y-10926484D02*
X5989110Y-10726484D01*
X6074825Y-10926484D02*
X6074825Y-10821722D01*
X6074825Y-10821722D02*
X6065301Y-10802674D01*
X6065301Y-10802674D02*
X6046253Y-10793150D01*
X6046253Y-10793150D02*
X6017682Y-10793150D01*
X6017682Y-10793150D02*
X5998634Y-10802674D01*
X5998634Y-10802674D02*
X5989110Y-10812198D01*
X6198634Y-10926484D02*
X6179587Y-10916960D01*
X6179587Y-10916960D02*
X6170063Y-10907436D01*
X6170063Y-10907436D02*
X6160539Y-10888389D01*
X6160539Y-10888389D02*
X6160539Y-10831246D01*
X6160539Y-10831246D02*
X6170063Y-10812198D01*
X6170063Y-10812198D02*
X6179587Y-10802674D01*
X6179587Y-10802674D02*
X6198634Y-10793150D01*
X6198634Y-10793150D02*
X6227206Y-10793150D01*
X6227206Y-10793150D02*
X6246253Y-10802674D01*
X6246253Y-10802674D02*
X6255777Y-10812198D01*
X6255777Y-10812198D02*
X6265301Y-10831246D01*
X6265301Y-10831246D02*
X6265301Y-10888389D01*
X6265301Y-10888389D02*
X6255777Y-10907436D01*
X6255777Y-10907436D02*
X6246253Y-10916960D01*
X6246253Y-10916960D02*
X6227206Y-10926484D01*
X6227206Y-10926484D02*
X6198634Y-10926484D01*
X6379587Y-10926484D02*
X6360539Y-10916960D01*
X6360539Y-10916960D02*
X6351015Y-10897912D01*
X6351015Y-10897912D02*
X6351015Y-10726484D01*
X6531968Y-10916960D02*
X6512920Y-10926484D01*
X6512920Y-10926484D02*
X6474825Y-10926484D01*
X6474825Y-10926484D02*
X6455777Y-10916960D01*
X6455777Y-10916960D02*
X6446253Y-10897912D01*
X6446253Y-10897912D02*
X6446253Y-10821722D01*
X6446253Y-10821722D02*
X6455777Y-10802674D01*
X6455777Y-10802674D02*
X6474825Y-10793150D01*
X6474825Y-10793150D02*
X6512920Y-10793150D01*
X6512920Y-10793150D02*
X6531968Y-10802674D01*
X6531968Y-10802674D02*
X6541491Y-10821722D01*
X6541491Y-10821722D02*
X6541491Y-10840770D01*
X6541491Y-10840770D02*
X6446253Y-10859817D01*
X6617682Y-10916960D02*
X6636730Y-10926484D01*
X6636730Y-10926484D02*
X6674825Y-10926484D01*
X6674825Y-10926484D02*
X6693872Y-10916960D01*
X6693872Y-10916960D02*
X6703396Y-10897912D01*
X6703396Y-10897912D02*
X6703396Y-10888389D01*
X6703396Y-10888389D02*
X6693872Y-10869341D01*
X6693872Y-10869341D02*
X6674825Y-10859817D01*
X6674825Y-10859817D02*
X6646253Y-10859817D01*
X6646253Y-10859817D02*
X6627206Y-10850293D01*
X6627206Y-10850293D02*
X6617682Y-10831246D01*
X6617682Y-10831246D02*
X6617682Y-10821722D01*
X6617682Y-10821722D02*
X6627206Y-10802674D01*
X6627206Y-10802674D02*
X6646253Y-10793150D01*
X6646253Y-10793150D02*
X6674825Y-10793150D01*
X6674825Y-10793150D02*
X6693872Y-10802674D01*
X6770063Y-11002674D02*
X6779587Y-10993150D01*
X6779587Y-10993150D02*
X6798634Y-10964579D01*
X6798634Y-10964579D02*
X6808158Y-10945531D01*
X6808158Y-10945531D02*
X6817682Y-10916960D01*
X6817682Y-10916960D02*
X6827206Y-10869341D01*
X6827206Y-10869341D02*
X6827206Y-10831246D01*
X6827206Y-10831246D02*
X6817682Y-10783627D01*
X6817682Y-10783627D02*
X6808158Y-10755055D01*
X6808158Y-10755055D02*
X6798634Y-10736008D01*
X6798634Y-10736008D02*
X6779587Y-10707436D01*
X6779587Y-10707436D02*
X6770063Y-10697912D01*
X7131968Y-11002674D02*
X7122444Y-10993150D01*
X7122444Y-10993150D02*
X7103396Y-10964579D01*
X7103396Y-10964579D02*
X7093872Y-10945531D01*
X7093872Y-10945531D02*
X7084349Y-10916960D01*
X7084349Y-10916960D02*
X7074825Y-10869341D01*
X7074825Y-10869341D02*
X7074825Y-10831246D01*
X7074825Y-10831246D02*
X7084349Y-10783627D01*
X7084349Y-10783627D02*
X7093872Y-10755055D01*
X7093872Y-10755055D02*
X7103396Y-10736008D01*
X7103396Y-10736008D02*
X7122444Y-10707436D01*
X7122444Y-10707436D02*
X7131968Y-10697912D01*
X7208158Y-10793150D02*
X7208158Y-10926484D01*
X7208158Y-10812198D02*
X7217682Y-10802674D01*
X7217682Y-10802674D02*
X7236730Y-10793150D01*
X7236730Y-10793150D02*
X7265301Y-10793150D01*
X7265301Y-10793150D02*
X7284349Y-10802674D01*
X7284349Y-10802674D02*
X7293872Y-10821722D01*
X7293872Y-10821722D02*
X7293872Y-10926484D01*
X7417682Y-10926484D02*
X7398634Y-10916960D01*
X7398634Y-10916960D02*
X7389111Y-10907436D01*
X7389111Y-10907436D02*
X7379587Y-10888389D01*
X7379587Y-10888389D02*
X7379587Y-10831246D01*
X7379587Y-10831246D02*
X7389111Y-10812198D01*
X7389111Y-10812198D02*
X7398634Y-10802674D01*
X7398634Y-10802674D02*
X7417682Y-10793150D01*
X7417682Y-10793150D02*
X7446253Y-10793150D01*
X7446253Y-10793150D02*
X7465301Y-10802674D01*
X7465301Y-10802674D02*
X7474825Y-10812198D01*
X7474825Y-10812198D02*
X7484349Y-10831246D01*
X7484349Y-10831246D02*
X7484349Y-10888389D01*
X7484349Y-10888389D02*
X7474825Y-10907436D01*
X7474825Y-10907436D02*
X7465301Y-10916960D01*
X7465301Y-10916960D02*
X7446253Y-10926484D01*
X7446253Y-10926484D02*
X7417682Y-10926484D01*
X7541492Y-10793150D02*
X7617682Y-10793150D01*
X7570063Y-10726484D02*
X7570063Y-10897912D01*
X7570063Y-10897912D02*
X7579587Y-10916960D01*
X7579587Y-10916960D02*
X7598634Y-10926484D01*
X7598634Y-10926484D02*
X7617682Y-10926484D01*
X7836730Y-10793150D02*
X7836730Y-10993150D01*
X7836730Y-10802674D02*
X7855777Y-10793150D01*
X7855777Y-10793150D02*
X7893873Y-10793150D01*
X7893873Y-10793150D02*
X7912920Y-10802674D01*
X7912920Y-10802674D02*
X7922444Y-10812198D01*
X7922444Y-10812198D02*
X7931968Y-10831246D01*
X7931968Y-10831246D02*
X7931968Y-10888389D01*
X7931968Y-10888389D02*
X7922444Y-10907436D01*
X7922444Y-10907436D02*
X7912920Y-10916960D01*
X7912920Y-10916960D02*
X7893873Y-10926484D01*
X7893873Y-10926484D02*
X7855777Y-10926484D01*
X7855777Y-10926484D02*
X7836730Y-10916960D01*
X8046253Y-10926484D02*
X8027206Y-10916960D01*
X8027206Y-10916960D02*
X8017682Y-10897912D01*
X8017682Y-10897912D02*
X8017682Y-10726484D01*
X8208158Y-10926484D02*
X8208158Y-10821722D01*
X8208158Y-10821722D02*
X8198634Y-10802674D01*
X8198634Y-10802674D02*
X8179587Y-10793150D01*
X8179587Y-10793150D02*
X8141492Y-10793150D01*
X8141492Y-10793150D02*
X8122444Y-10802674D01*
X8208158Y-10916960D02*
X8189111Y-10926484D01*
X8189111Y-10926484D02*
X8141492Y-10926484D01*
X8141492Y-10926484D02*
X8122444Y-10916960D01*
X8122444Y-10916960D02*
X8112920Y-10897912D01*
X8112920Y-10897912D02*
X8112920Y-10878865D01*
X8112920Y-10878865D02*
X8122444Y-10859817D01*
X8122444Y-10859817D02*
X8141492Y-10850293D01*
X8141492Y-10850293D02*
X8189111Y-10850293D01*
X8189111Y-10850293D02*
X8208158Y-10840770D01*
X8274825Y-10793150D02*
X8351015Y-10793150D01*
X8303396Y-10726484D02*
X8303396Y-10897912D01*
X8303396Y-10897912D02*
X8312920Y-10916960D01*
X8312920Y-10916960D02*
X8331968Y-10926484D01*
X8331968Y-10926484D02*
X8351015Y-10926484D01*
X8493873Y-10916960D02*
X8474825Y-10926484D01*
X8474825Y-10926484D02*
X8436730Y-10926484D01*
X8436730Y-10926484D02*
X8417682Y-10916960D01*
X8417682Y-10916960D02*
X8408158Y-10897912D01*
X8408158Y-10897912D02*
X8408158Y-10821722D01*
X8408158Y-10821722D02*
X8417682Y-10802674D01*
X8417682Y-10802674D02*
X8436730Y-10793150D01*
X8436730Y-10793150D02*
X8474825Y-10793150D01*
X8474825Y-10793150D02*
X8493873Y-10802674D01*
X8493873Y-10802674D02*
X8503396Y-10821722D01*
X8503396Y-10821722D02*
X8503396Y-10840770D01*
X8503396Y-10840770D02*
X8408158Y-10859817D01*
X8674825Y-10926484D02*
X8674825Y-10726484D01*
X8674825Y-10916960D02*
X8655777Y-10926484D01*
X8655777Y-10926484D02*
X8617682Y-10926484D01*
X8617682Y-10926484D02*
X8598635Y-10916960D01*
X8598635Y-10916960D02*
X8589111Y-10907436D01*
X8589111Y-10907436D02*
X8579587Y-10888389D01*
X8579587Y-10888389D02*
X8579587Y-10831246D01*
X8579587Y-10831246D02*
X8589111Y-10812198D01*
X8589111Y-10812198D02*
X8598635Y-10802674D01*
X8598635Y-10802674D02*
X8617682Y-10793150D01*
X8617682Y-10793150D02*
X8655777Y-10793150D01*
X8655777Y-10793150D02*
X8674825Y-10802674D01*
X8751016Y-11002674D02*
X8760539Y-10993150D01*
X8760539Y-10993150D02*
X8779587Y-10964579D01*
X8779587Y-10964579D02*
X8789111Y-10945531D01*
X8789111Y-10945531D02*
X8798635Y-10916960D01*
X8798635Y-10916960D02*
X8808158Y-10869341D01*
X8808158Y-10869341D02*
X8808158Y-10831246D01*
X8808158Y-10831246D02*
X8798635Y-10783627D01*
X8798635Y-10783627D02*
X8789111Y-10755055D01*
X8789111Y-10755055D02*
X8779587Y-10736008D01*
X8779587Y-10736008D02*
X8760539Y-10707436D01*
X8760539Y-10707436D02*
X8751016Y-10697912D01*
M02*
