%TF.GenerationSoftware,KiCad,Pcbnew,10.0.4*%
%TF.CreationDate,2026-07-21T20:45:19-03:00*%
%TF.ProjectId,pong-retrosc,706f6e67-2d72-4657-9472-6f73632e6b69,rev?*%
%TF.SameCoordinates,Original*%
%TF.FileFunction,Legend,Top*%
%TF.FilePolarity,Positive*%
%FSLAX46Y46*%
G04 Gerber Fmt 4.6, Leading zero omitted, Abs format (unit mm)*
G04 Created by KiCad (PCBNEW 10.0.4) date 2026-07-21 20:45:19*
%MOMM*%
%LPD*%
G01*
G04 APERTURE LIST*
G04 Aperture macros list*
%AMRoundRect*
0 Rectangle with rounded corners*
0 $1 Rounding radius*
0 $2 $3 $4 $5 $6 $7 $8 $9 X,Y pos of 4 corners*
0 Add a 4 corners polygon primitive as box body*
4,1,4,$2,$3,$4,$5,$6,$7,$8,$9,$2,$3,0*
0 Add four circle primitives for the rounded corners*
1,1,$1+$1,$2,$3*
1,1,$1+$1,$4,$5*
1,1,$1+$1,$6,$7*
1,1,$1+$1,$8,$9*
0 Add four rect primitives between the rounded corners*
20,1,$1+$1,$2,$3,$4,$5,0*
20,1,$1+$1,$4,$5,$6,$7,0*
20,1,$1+$1,$6,$7,$8,$9,0*
20,1,$1+$1,$8,$9,$2,$3,0*%
%AMFreePoly0*
4,1,37,0.603843,0.796157,0.639018,0.796157,0.711114,0.766294,0.766294,0.711114,0.796157,0.639018,0.796157,0.603843,0.800000,0.600000,0.800000,-0.600000,0.796157,-0.603843,0.796157,-0.639018,0.766294,-0.711114,0.711114,-0.766294,0.639018,-0.796157,0.603843,-0.796157,0.600000,-0.800000,0.000000,-0.800000,0.000000,-0.796148,-0.078414,-0.796148,-0.232228,-0.765552,-0.377117,-0.705537,
-0.507515,-0.618408,-0.618408,-0.507515,-0.705537,-0.377117,-0.765552,-0.232228,-0.796148,-0.078414,-0.796148,0.078414,-0.765552,0.232228,-0.705537,0.377117,-0.618408,0.507515,-0.507515,0.618408,-0.377117,0.705537,-0.232228,0.765552,-0.078414,0.796148,0.000000,0.796148,0.000000,0.800000,0.600000,0.800000,0.603843,0.796157,0.603843,0.796157,$1*%
%AMFreePoly1*
4,1,37,0.000000,0.796148,0.078414,0.796148,0.232228,0.765552,0.377117,0.705537,0.507515,0.618408,0.618408,0.507515,0.705537,0.377117,0.765552,0.232228,0.796148,0.078414,0.796148,-0.078414,0.765552,-0.232228,0.705537,-0.377117,0.618408,-0.507515,0.507515,-0.618408,0.377117,-0.705537,0.232228,-0.765552,0.078414,-0.796148,0.000000,-0.796148,0.000000,-0.800000,-0.600000,-0.800000,
-0.603843,-0.796157,-0.639018,-0.796157,-0.711114,-0.766294,-0.766294,-0.711114,-0.796157,-0.639018,-0.796157,-0.603843,-0.800000,-0.600000,-0.800000,0.600000,-0.796157,0.603843,-0.796157,0.639018,-0.766294,0.711114,-0.711114,0.766294,-0.639018,0.796157,-0.603843,0.796157,-0.600000,0.800000,0.000000,0.800000,0.000000,0.796148,0.000000,0.796148,$1*%
G04 Aperture macros list end*
%ADD10C,0.187500*%
%ADD11C,0.150000*%
%ADD12C,0.120000*%
%ADD13C,3.200000*%
%ADD14C,2.600000*%
%ADD15O,2.300000X3.400000*%
%ADD16O,3.400000X2.300000*%
%ADD17C,1.600000*%
%ADD18R,1.900000X1.900000*%
%ADD19C,1.900000*%
%ADD20RoundRect,0.200000X0.600000X-0.600000X0.600000X0.600000X-0.600000X0.600000X-0.600000X-0.600000X0*%
%ADD21FreePoly0,90.000000*%
%ADD22FreePoly1,90.000000*%
%ADD23R,1.700000X1.700000*%
%ADD24C,1.700000*%
%ADD25RoundRect,0.250000X0.550000X0.550000X-0.550000X0.550000X-0.550000X-0.550000X0.550000X-0.550000X0*%
G04 APERTURE END LIST*
D10*
X84500000Y-70684178D02*
X84000000Y-69969892D01*
X83642857Y-70684178D02*
X83642857Y-69184178D01*
X83642857Y-69184178D02*
X84214286Y-69184178D01*
X84214286Y-69184178D02*
X84357143Y-69255607D01*
X84357143Y-69255607D02*
X84428572Y-69327035D01*
X84428572Y-69327035D02*
X84500000Y-69469892D01*
X84500000Y-69469892D02*
X84500000Y-69684178D01*
X84500000Y-69684178D02*
X84428572Y-69827035D01*
X84428572Y-69827035D02*
X84357143Y-69898464D01*
X84357143Y-69898464D02*
X84214286Y-69969892D01*
X84214286Y-69969892D02*
X83642857Y-69969892D01*
X85714286Y-70612750D02*
X85571429Y-70684178D01*
X85571429Y-70684178D02*
X85285715Y-70684178D01*
X85285715Y-70684178D02*
X85142857Y-70612750D01*
X85142857Y-70612750D02*
X85071429Y-70469892D01*
X85071429Y-70469892D02*
X85071429Y-69898464D01*
X85071429Y-69898464D02*
X85142857Y-69755607D01*
X85142857Y-69755607D02*
X85285715Y-69684178D01*
X85285715Y-69684178D02*
X85571429Y-69684178D01*
X85571429Y-69684178D02*
X85714286Y-69755607D01*
X85714286Y-69755607D02*
X85785715Y-69898464D01*
X85785715Y-69898464D02*
X85785715Y-70041321D01*
X85785715Y-70041321D02*
X85071429Y-70184178D01*
X86214286Y-69684178D02*
X86785714Y-69684178D01*
X86428571Y-69184178D02*
X86428571Y-70469892D01*
X86428571Y-70469892D02*
X86500000Y-70612750D01*
X86500000Y-70612750D02*
X86642857Y-70684178D01*
X86642857Y-70684178D02*
X86785714Y-70684178D01*
X87285714Y-70684178D02*
X87285714Y-69684178D01*
X87285714Y-69969892D02*
X87357143Y-69827035D01*
X87357143Y-69827035D02*
X87428572Y-69755607D01*
X87428572Y-69755607D02*
X87571429Y-69684178D01*
X87571429Y-69684178D02*
X87714286Y-69684178D01*
X88428571Y-70684178D02*
X88285714Y-70612750D01*
X88285714Y-70612750D02*
X88214285Y-70541321D01*
X88214285Y-70541321D02*
X88142857Y-70398464D01*
X88142857Y-70398464D02*
X88142857Y-69969892D01*
X88142857Y-69969892D02*
X88214285Y-69827035D01*
X88214285Y-69827035D02*
X88285714Y-69755607D01*
X88285714Y-69755607D02*
X88428571Y-69684178D01*
X88428571Y-69684178D02*
X88642857Y-69684178D01*
X88642857Y-69684178D02*
X88785714Y-69755607D01*
X88785714Y-69755607D02*
X88857143Y-69827035D01*
X88857143Y-69827035D02*
X88928571Y-69969892D01*
X88928571Y-69969892D02*
X88928571Y-70398464D01*
X88928571Y-70398464D02*
X88857143Y-70541321D01*
X88857143Y-70541321D02*
X88785714Y-70612750D01*
X88785714Y-70612750D02*
X88642857Y-70684178D01*
X88642857Y-70684178D02*
X88428571Y-70684178D01*
X89500000Y-70612750D02*
X89714286Y-70684178D01*
X89714286Y-70684178D02*
X90071428Y-70684178D01*
X90071428Y-70684178D02*
X90214286Y-70612750D01*
X90214286Y-70612750D02*
X90285714Y-70541321D01*
X90285714Y-70541321D02*
X90357143Y-70398464D01*
X90357143Y-70398464D02*
X90357143Y-70255607D01*
X90357143Y-70255607D02*
X90285714Y-70112750D01*
X90285714Y-70112750D02*
X90214286Y-70041321D01*
X90214286Y-70041321D02*
X90071428Y-69969892D01*
X90071428Y-69969892D02*
X89785714Y-69898464D01*
X89785714Y-69898464D02*
X89642857Y-69827035D01*
X89642857Y-69827035D02*
X89571428Y-69755607D01*
X89571428Y-69755607D02*
X89500000Y-69612750D01*
X89500000Y-69612750D02*
X89500000Y-69469892D01*
X89500000Y-69469892D02*
X89571428Y-69327035D01*
X89571428Y-69327035D02*
X89642857Y-69255607D01*
X89642857Y-69255607D02*
X89785714Y-69184178D01*
X89785714Y-69184178D02*
X90142857Y-69184178D01*
X90142857Y-69184178D02*
X90357143Y-69255607D01*
X91857142Y-70541321D02*
X91785714Y-70612750D01*
X91785714Y-70612750D02*
X91571428Y-70684178D01*
X91571428Y-70684178D02*
X91428571Y-70684178D01*
X91428571Y-70684178D02*
X91214285Y-70612750D01*
X91214285Y-70612750D02*
X91071428Y-70469892D01*
X91071428Y-70469892D02*
X90999999Y-70327035D01*
X90999999Y-70327035D02*
X90928571Y-70041321D01*
X90928571Y-70041321D02*
X90928571Y-69827035D01*
X90928571Y-69827035D02*
X90999999Y-69541321D01*
X90999999Y-69541321D02*
X91071428Y-69398464D01*
X91071428Y-69398464D02*
X91214285Y-69255607D01*
X91214285Y-69255607D02*
X91428571Y-69184178D01*
X91428571Y-69184178D02*
X91571428Y-69184178D01*
X91571428Y-69184178D02*
X91785714Y-69255607D01*
X91785714Y-69255607D02*
X91857142Y-69327035D01*
X93642856Y-70684178D02*
X93642856Y-69184178D01*
X93642856Y-69184178D02*
X94214285Y-69184178D01*
X94214285Y-69184178D02*
X94357142Y-69255607D01*
X94357142Y-69255607D02*
X94428571Y-69327035D01*
X94428571Y-69327035D02*
X94499999Y-69469892D01*
X94499999Y-69469892D02*
X94499999Y-69684178D01*
X94499999Y-69684178D02*
X94428571Y-69827035D01*
X94428571Y-69827035D02*
X94357142Y-69898464D01*
X94357142Y-69898464D02*
X94214285Y-69969892D01*
X94214285Y-69969892D02*
X93642856Y-69969892D01*
X95357142Y-70684178D02*
X95214285Y-70612750D01*
X95214285Y-70612750D02*
X95142856Y-70541321D01*
X95142856Y-70541321D02*
X95071428Y-70398464D01*
X95071428Y-70398464D02*
X95071428Y-69969892D01*
X95071428Y-69969892D02*
X95142856Y-69827035D01*
X95142856Y-69827035D02*
X95214285Y-69755607D01*
X95214285Y-69755607D02*
X95357142Y-69684178D01*
X95357142Y-69684178D02*
X95571428Y-69684178D01*
X95571428Y-69684178D02*
X95714285Y-69755607D01*
X95714285Y-69755607D02*
X95785714Y-69827035D01*
X95785714Y-69827035D02*
X95857142Y-69969892D01*
X95857142Y-69969892D02*
X95857142Y-70398464D01*
X95857142Y-70398464D02*
X95785714Y-70541321D01*
X95785714Y-70541321D02*
X95714285Y-70612750D01*
X95714285Y-70612750D02*
X95571428Y-70684178D01*
X95571428Y-70684178D02*
X95357142Y-70684178D01*
X96499999Y-69684178D02*
X96499999Y-70684178D01*
X96499999Y-69827035D02*
X96571428Y-69755607D01*
X96571428Y-69755607D02*
X96714285Y-69684178D01*
X96714285Y-69684178D02*
X96928571Y-69684178D01*
X96928571Y-69684178D02*
X97071428Y-69755607D01*
X97071428Y-69755607D02*
X97142857Y-69898464D01*
X97142857Y-69898464D02*
X97142857Y-70684178D01*
X98500000Y-69684178D02*
X98500000Y-70898464D01*
X98500000Y-70898464D02*
X98428571Y-71041321D01*
X98428571Y-71041321D02*
X98357142Y-71112750D01*
X98357142Y-71112750D02*
X98214285Y-71184178D01*
X98214285Y-71184178D02*
X98000000Y-71184178D01*
X98000000Y-71184178D02*
X97857142Y-71112750D01*
X98500000Y-70612750D02*
X98357142Y-70684178D01*
X98357142Y-70684178D02*
X98071428Y-70684178D01*
X98071428Y-70684178D02*
X97928571Y-70612750D01*
X97928571Y-70612750D02*
X97857142Y-70541321D01*
X97857142Y-70541321D02*
X97785714Y-70398464D01*
X97785714Y-70398464D02*
X97785714Y-69969892D01*
X97785714Y-69969892D02*
X97857142Y-69827035D01*
X97857142Y-69827035D02*
X97928571Y-69755607D01*
X97928571Y-69755607D02*
X98071428Y-69684178D01*
X98071428Y-69684178D02*
X98357142Y-69684178D01*
X98357142Y-69684178D02*
X98500000Y-69755607D01*
X100214285Y-69684178D02*
X100571428Y-70684178D01*
X100571428Y-70684178D02*
X100928571Y-69684178D01*
X102285714Y-70684178D02*
X101428571Y-70684178D01*
X101857142Y-70684178D02*
X101857142Y-69184178D01*
X101857142Y-69184178D02*
X101714285Y-69398464D01*
X101714285Y-69398464D02*
X101571428Y-69541321D01*
X101571428Y-69541321D02*
X101428571Y-69612750D01*
X102928570Y-70541321D02*
X102999999Y-70612750D01*
X102999999Y-70612750D02*
X102928570Y-70684178D01*
X102928570Y-70684178D02*
X102857142Y-70612750D01*
X102857142Y-70612750D02*
X102928570Y-70541321D01*
X102928570Y-70541321D02*
X102928570Y-70684178D01*
X103928571Y-69184178D02*
X104071428Y-69184178D01*
X104071428Y-69184178D02*
X104214285Y-69255607D01*
X104214285Y-69255607D02*
X104285714Y-69327035D01*
X104285714Y-69327035D02*
X104357142Y-69469892D01*
X104357142Y-69469892D02*
X104428571Y-69755607D01*
X104428571Y-69755607D02*
X104428571Y-70112750D01*
X104428571Y-70112750D02*
X104357142Y-70398464D01*
X104357142Y-70398464D02*
X104285714Y-70541321D01*
X104285714Y-70541321D02*
X104214285Y-70612750D01*
X104214285Y-70612750D02*
X104071428Y-70684178D01*
X104071428Y-70684178D02*
X103928571Y-70684178D01*
X103928571Y-70684178D02*
X103785714Y-70612750D01*
X103785714Y-70612750D02*
X103714285Y-70541321D01*
X103714285Y-70541321D02*
X103642856Y-70398464D01*
X103642856Y-70398464D02*
X103571428Y-70112750D01*
X103571428Y-70112750D02*
X103571428Y-69755607D01*
X103571428Y-69755607D02*
X103642856Y-69469892D01*
X103642856Y-69469892D02*
X103714285Y-69327035D01*
X103714285Y-69327035D02*
X103785714Y-69255607D01*
X103785714Y-69255607D02*
X103928571Y-69184178D01*
D11*
X23238095Y-72304819D02*
X23238095Y-71304819D01*
X23238095Y-71781009D02*
X23809523Y-71781009D01*
X23809523Y-72304819D02*
X23809523Y-71304819D01*
X24238095Y-71400057D02*
X24285714Y-71352438D01*
X24285714Y-71352438D02*
X24380952Y-71304819D01*
X24380952Y-71304819D02*
X24619047Y-71304819D01*
X24619047Y-71304819D02*
X24714285Y-71352438D01*
X24714285Y-71352438D02*
X24761904Y-71400057D01*
X24761904Y-71400057D02*
X24809523Y-71495295D01*
X24809523Y-71495295D02*
X24809523Y-71590533D01*
X24809523Y-71590533D02*
X24761904Y-71733390D01*
X24761904Y-71733390D02*
X24190476Y-72304819D01*
X24190476Y-72304819D02*
X24809523Y-72304819D01*
X103666666Y-25454819D02*
X103666666Y-26169104D01*
X103666666Y-26169104D02*
X103619047Y-26311961D01*
X103619047Y-26311961D02*
X103523809Y-26407200D01*
X103523809Y-26407200D02*
X103380952Y-26454819D01*
X103380952Y-26454819D02*
X103285714Y-26454819D01*
X104666666Y-26454819D02*
X104095238Y-26454819D01*
X104380952Y-26454819D02*
X104380952Y-25454819D01*
X104380952Y-25454819D02*
X104285714Y-25597676D01*
X104285714Y-25597676D02*
X104190476Y-25692914D01*
X104190476Y-25692914D02*
X104095238Y-25740533D01*
X66333333Y-23859580D02*
X66285714Y-23907200D01*
X66285714Y-23907200D02*
X66142857Y-23954819D01*
X66142857Y-23954819D02*
X66047619Y-23954819D01*
X66047619Y-23954819D02*
X65904762Y-23907200D01*
X65904762Y-23907200D02*
X65809524Y-23811961D01*
X65809524Y-23811961D02*
X65761905Y-23716723D01*
X65761905Y-23716723D02*
X65714286Y-23526247D01*
X65714286Y-23526247D02*
X65714286Y-23383390D01*
X65714286Y-23383390D02*
X65761905Y-23192914D01*
X65761905Y-23192914D02*
X65809524Y-23097676D01*
X65809524Y-23097676D02*
X65904762Y-23002438D01*
X65904762Y-23002438D02*
X66047619Y-22954819D01*
X66047619Y-22954819D02*
X66142857Y-22954819D01*
X66142857Y-22954819D02*
X66285714Y-23002438D01*
X66285714Y-23002438D02*
X66333333Y-23050057D01*
X66666667Y-22954819D02*
X67285714Y-22954819D01*
X67285714Y-22954819D02*
X66952381Y-23335771D01*
X66952381Y-23335771D02*
X67095238Y-23335771D01*
X67095238Y-23335771D02*
X67190476Y-23383390D01*
X67190476Y-23383390D02*
X67238095Y-23431009D01*
X67238095Y-23431009D02*
X67285714Y-23526247D01*
X67285714Y-23526247D02*
X67285714Y-23764342D01*
X67285714Y-23764342D02*
X67238095Y-23859580D01*
X67238095Y-23859580D02*
X67190476Y-23907200D01*
X67190476Y-23907200D02*
X67095238Y-23954819D01*
X67095238Y-23954819D02*
X66809524Y-23954819D01*
X66809524Y-23954819D02*
X66714286Y-23907200D01*
X66714286Y-23907200D02*
X66666667Y-23859580D01*
X111238095Y-66304819D02*
X111238095Y-65304819D01*
X111238095Y-65781009D02*
X111809523Y-65781009D01*
X111809523Y-66304819D02*
X111809523Y-65304819D01*
X112714285Y-65638152D02*
X112714285Y-66304819D01*
X112476190Y-65257200D02*
X112238095Y-65971485D01*
X112238095Y-65971485D02*
X112857142Y-65971485D01*
X29238095Y-63454819D02*
X29238095Y-64264342D01*
X29238095Y-64264342D02*
X29285714Y-64359580D01*
X29285714Y-64359580D02*
X29333333Y-64407200D01*
X29333333Y-64407200D02*
X29428571Y-64454819D01*
X29428571Y-64454819D02*
X29619047Y-64454819D01*
X29619047Y-64454819D02*
X29714285Y-64407200D01*
X29714285Y-64407200D02*
X29761904Y-64359580D01*
X29761904Y-64359580D02*
X29809523Y-64264342D01*
X29809523Y-64264342D02*
X29809523Y-63454819D01*
X30238095Y-63550057D02*
X30285714Y-63502438D01*
X30285714Y-63502438D02*
X30380952Y-63454819D01*
X30380952Y-63454819D02*
X30619047Y-63454819D01*
X30619047Y-63454819D02*
X30714285Y-63502438D01*
X30714285Y-63502438D02*
X30761904Y-63550057D01*
X30761904Y-63550057D02*
X30809523Y-63645295D01*
X30809523Y-63645295D02*
X30809523Y-63740533D01*
X30809523Y-63740533D02*
X30761904Y-63883390D01*
X30761904Y-63883390D02*
X30190476Y-64454819D01*
X30190476Y-64454819D02*
X30809523Y-64454819D01*
D12*
X34902857Y-62163855D02*
X34902857Y-61363855D01*
X34902857Y-61363855D02*
X35207619Y-61363855D01*
X35207619Y-61363855D02*
X35283809Y-61401950D01*
X35283809Y-61401950D02*
X35321904Y-61440045D01*
X35321904Y-61440045D02*
X35360000Y-61516236D01*
X35360000Y-61516236D02*
X35360000Y-61630521D01*
X35360000Y-61630521D02*
X35321904Y-61706712D01*
X35321904Y-61706712D02*
X35283809Y-61744807D01*
X35283809Y-61744807D02*
X35207619Y-61782902D01*
X35207619Y-61782902D02*
X34902857Y-61782902D01*
X35664761Y-61935283D02*
X36045714Y-61935283D01*
X35588571Y-62163855D02*
X35855238Y-61363855D01*
X35855238Y-61363855D02*
X36121904Y-62163855D01*
X36388571Y-62163855D02*
X36388571Y-61363855D01*
X36388571Y-61363855D02*
X36655237Y-61935283D01*
X36655237Y-61935283D02*
X36921904Y-61363855D01*
X36921904Y-61363855D02*
X36921904Y-62163855D01*
X37417142Y-61706712D02*
X37340952Y-61668617D01*
X37340952Y-61668617D02*
X37302857Y-61630521D01*
X37302857Y-61630521D02*
X37264761Y-61554331D01*
X37264761Y-61554331D02*
X37264761Y-61516236D01*
X37264761Y-61516236D02*
X37302857Y-61440045D01*
X37302857Y-61440045D02*
X37340952Y-61401950D01*
X37340952Y-61401950D02*
X37417142Y-61363855D01*
X37417142Y-61363855D02*
X37569523Y-61363855D01*
X37569523Y-61363855D02*
X37645714Y-61401950D01*
X37645714Y-61401950D02*
X37683809Y-61440045D01*
X37683809Y-61440045D02*
X37721904Y-61516236D01*
X37721904Y-61516236D02*
X37721904Y-61554331D01*
X37721904Y-61554331D02*
X37683809Y-61630521D01*
X37683809Y-61630521D02*
X37645714Y-61668617D01*
X37645714Y-61668617D02*
X37569523Y-61706712D01*
X37569523Y-61706712D02*
X37417142Y-61706712D01*
X37417142Y-61706712D02*
X37340952Y-61744807D01*
X37340952Y-61744807D02*
X37302857Y-61782902D01*
X37302857Y-61782902D02*
X37264761Y-61859093D01*
X37264761Y-61859093D02*
X37264761Y-62011474D01*
X37264761Y-62011474D02*
X37302857Y-62087664D01*
X37302857Y-62087664D02*
X37340952Y-62125760D01*
X37340952Y-62125760D02*
X37417142Y-62163855D01*
X37417142Y-62163855D02*
X37569523Y-62163855D01*
X37569523Y-62163855D02*
X37645714Y-62125760D01*
X37645714Y-62125760D02*
X37683809Y-62087664D01*
X37683809Y-62087664D02*
X37721904Y-62011474D01*
X37721904Y-62011474D02*
X37721904Y-61859093D01*
X37721904Y-61859093D02*
X37683809Y-61782902D01*
X37683809Y-61782902D02*
X37645714Y-61744807D01*
X37645714Y-61744807D02*
X37569523Y-61706712D01*
X38407619Y-61630521D02*
X38407619Y-62163855D01*
X38217143Y-61325760D02*
X38026666Y-61897188D01*
X38026666Y-61897188D02*
X38521905Y-61897188D01*
X38979048Y-61363855D02*
X39055238Y-61363855D01*
X39055238Y-61363855D02*
X39131429Y-61401950D01*
X39131429Y-61401950D02*
X39169524Y-61440045D01*
X39169524Y-61440045D02*
X39207619Y-61516236D01*
X39207619Y-61516236D02*
X39245714Y-61668617D01*
X39245714Y-61668617D02*
X39245714Y-61859093D01*
X39245714Y-61859093D02*
X39207619Y-62011474D01*
X39207619Y-62011474D02*
X39169524Y-62087664D01*
X39169524Y-62087664D02*
X39131429Y-62125760D01*
X39131429Y-62125760D02*
X39055238Y-62163855D01*
X39055238Y-62163855D02*
X38979048Y-62163855D01*
X38979048Y-62163855D02*
X38902857Y-62125760D01*
X38902857Y-62125760D02*
X38864762Y-62087664D01*
X38864762Y-62087664D02*
X38826667Y-62011474D01*
X38826667Y-62011474D02*
X38788571Y-61859093D01*
X38788571Y-61859093D02*
X38788571Y-61668617D01*
X38788571Y-61668617D02*
X38826667Y-61516236D01*
X38826667Y-61516236D02*
X38864762Y-61440045D01*
X38864762Y-61440045D02*
X38902857Y-61401950D01*
X38902857Y-61401950D02*
X38979048Y-61363855D01*
X39512381Y-61363855D02*
X40007619Y-61363855D01*
X40007619Y-61363855D02*
X39740953Y-61668617D01*
X39740953Y-61668617D02*
X39855238Y-61668617D01*
X39855238Y-61668617D02*
X39931429Y-61706712D01*
X39931429Y-61706712D02*
X39969524Y-61744807D01*
X39969524Y-61744807D02*
X40007619Y-61820998D01*
X40007619Y-61820998D02*
X40007619Y-62011474D01*
X40007619Y-62011474D02*
X39969524Y-62087664D01*
X39969524Y-62087664D02*
X39931429Y-62125760D01*
X39931429Y-62125760D02*
X39855238Y-62163855D01*
X39855238Y-62163855D02*
X39626667Y-62163855D01*
X39626667Y-62163855D02*
X39550476Y-62125760D01*
X39550476Y-62125760D02*
X39512381Y-62087664D01*
X41188572Y-62468617D02*
X41150477Y-62430521D01*
X41150477Y-62430521D02*
X41074286Y-62316236D01*
X41074286Y-62316236D02*
X41036191Y-62240045D01*
X41036191Y-62240045D02*
X40998096Y-62125760D01*
X40998096Y-62125760D02*
X40960001Y-61935283D01*
X40960001Y-61935283D02*
X40960001Y-61782902D01*
X40960001Y-61782902D02*
X40998096Y-61592426D01*
X40998096Y-61592426D02*
X41036191Y-61478140D01*
X41036191Y-61478140D02*
X41074286Y-61401950D01*
X41074286Y-61401950D02*
X41150477Y-61287664D01*
X41150477Y-61287664D02*
X41188572Y-61249569D01*
X41798096Y-62125760D02*
X41721905Y-62163855D01*
X41721905Y-62163855D02*
X41569524Y-62163855D01*
X41569524Y-62163855D02*
X41493334Y-62125760D01*
X41493334Y-62125760D02*
X41455238Y-62049569D01*
X41455238Y-62049569D02*
X41455238Y-61744807D01*
X41455238Y-61744807D02*
X41493334Y-61668617D01*
X41493334Y-61668617D02*
X41569524Y-61630521D01*
X41569524Y-61630521D02*
X41721905Y-61630521D01*
X41721905Y-61630521D02*
X41798096Y-61668617D01*
X41798096Y-61668617D02*
X41836191Y-61744807D01*
X41836191Y-61744807D02*
X41836191Y-61820998D01*
X41836191Y-61820998D02*
X41455238Y-61897188D01*
X42179048Y-62163855D02*
X42179048Y-61630521D01*
X42179048Y-61706712D02*
X42217143Y-61668617D01*
X42217143Y-61668617D02*
X42293333Y-61630521D01*
X42293333Y-61630521D02*
X42407619Y-61630521D01*
X42407619Y-61630521D02*
X42483810Y-61668617D01*
X42483810Y-61668617D02*
X42521905Y-61744807D01*
X42521905Y-61744807D02*
X42521905Y-62163855D01*
X42521905Y-61744807D02*
X42560000Y-61668617D01*
X42560000Y-61668617D02*
X42636191Y-61630521D01*
X42636191Y-61630521D02*
X42750476Y-61630521D01*
X42750476Y-61630521D02*
X42826667Y-61668617D01*
X42826667Y-61668617D02*
X42864762Y-61744807D01*
X42864762Y-61744807D02*
X42864762Y-62163855D01*
X43855239Y-61630521D02*
X43855239Y-62430521D01*
X43855239Y-61668617D02*
X43931429Y-61630521D01*
X43931429Y-61630521D02*
X44083810Y-61630521D01*
X44083810Y-61630521D02*
X44160001Y-61668617D01*
X44160001Y-61668617D02*
X44198096Y-61706712D01*
X44198096Y-61706712D02*
X44236191Y-61782902D01*
X44236191Y-61782902D02*
X44236191Y-62011474D01*
X44236191Y-62011474D02*
X44198096Y-62087664D01*
X44198096Y-62087664D02*
X44160001Y-62125760D01*
X44160001Y-62125760D02*
X44083810Y-62163855D01*
X44083810Y-62163855D02*
X43931429Y-62163855D01*
X43931429Y-62163855D02*
X43855239Y-62125760D01*
X44883811Y-62125760D02*
X44807620Y-62163855D01*
X44807620Y-62163855D02*
X44655239Y-62163855D01*
X44655239Y-62163855D02*
X44579049Y-62125760D01*
X44579049Y-62125760D02*
X44540953Y-62049569D01*
X44540953Y-62049569D02*
X44540953Y-61744807D01*
X44540953Y-61744807D02*
X44579049Y-61668617D01*
X44579049Y-61668617D02*
X44655239Y-61630521D01*
X44655239Y-61630521D02*
X44807620Y-61630521D01*
X44807620Y-61630521D02*
X44883811Y-61668617D01*
X44883811Y-61668617D02*
X44921906Y-61744807D01*
X44921906Y-61744807D02*
X44921906Y-61820998D01*
X44921906Y-61820998D02*
X44540953Y-61897188D01*
X45188572Y-62468617D02*
X45226667Y-62430521D01*
X45226667Y-62430521D02*
X45302858Y-62316236D01*
X45302858Y-62316236D02*
X45340953Y-62240045D01*
X45340953Y-62240045D02*
X45379048Y-62125760D01*
X45379048Y-62125760D02*
X45417144Y-61935283D01*
X45417144Y-61935283D02*
X45417144Y-61782902D01*
X45417144Y-61782902D02*
X45379048Y-61592426D01*
X45379048Y-61592426D02*
X45340953Y-61478140D01*
X45340953Y-61478140D02*
X45302858Y-61401950D01*
X45302858Y-61401950D02*
X45226667Y-61287664D01*
X45226667Y-61287664D02*
X45188572Y-61249569D01*
D11*
X64824819Y-65746666D02*
X64348628Y-66079999D01*
X64824819Y-66318094D02*
X63824819Y-66318094D01*
X63824819Y-66318094D02*
X63824819Y-65937142D01*
X63824819Y-65937142D02*
X63872438Y-65841904D01*
X63872438Y-65841904D02*
X63920057Y-65794285D01*
X63920057Y-65794285D02*
X64015295Y-65746666D01*
X64015295Y-65746666D02*
X64158152Y-65746666D01*
X64158152Y-65746666D02*
X64253390Y-65794285D01*
X64253390Y-65794285D02*
X64301009Y-65841904D01*
X64301009Y-65841904D02*
X64348628Y-65937142D01*
X64348628Y-65937142D02*
X64348628Y-66318094D01*
X64158152Y-64889523D02*
X64824819Y-64889523D01*
X63777200Y-65127618D02*
X64491485Y-65365713D01*
X64491485Y-65365713D02*
X64491485Y-64746666D01*
X60859580Y-59666666D02*
X60907200Y-59714285D01*
X60907200Y-59714285D02*
X60954819Y-59857142D01*
X60954819Y-59857142D02*
X60954819Y-59952380D01*
X60954819Y-59952380D02*
X60907200Y-60095237D01*
X60907200Y-60095237D02*
X60811961Y-60190475D01*
X60811961Y-60190475D02*
X60716723Y-60238094D01*
X60716723Y-60238094D02*
X60526247Y-60285713D01*
X60526247Y-60285713D02*
X60383390Y-60285713D01*
X60383390Y-60285713D02*
X60192914Y-60238094D01*
X60192914Y-60238094D02*
X60097676Y-60190475D01*
X60097676Y-60190475D02*
X60002438Y-60095237D01*
X60002438Y-60095237D02*
X59954819Y-59952380D01*
X59954819Y-59952380D02*
X59954819Y-59857142D01*
X59954819Y-59857142D02*
X60002438Y-59714285D01*
X60002438Y-59714285D02*
X60050057Y-59666666D01*
X60954819Y-58714285D02*
X60954819Y-59285713D01*
X60954819Y-58999999D02*
X59954819Y-58999999D01*
X59954819Y-58999999D02*
X60097676Y-59095237D01*
X60097676Y-59095237D02*
X60192914Y-59190475D01*
X60192914Y-59190475D02*
X60240533Y-59285713D01*
X66753333Y-59824819D02*
X66420000Y-59348628D01*
X66181905Y-59824819D02*
X66181905Y-58824819D01*
X66181905Y-58824819D02*
X66562857Y-58824819D01*
X66562857Y-58824819D02*
X66658095Y-58872438D01*
X66658095Y-58872438D02*
X66705714Y-58920057D01*
X66705714Y-58920057D02*
X66753333Y-59015295D01*
X66753333Y-59015295D02*
X66753333Y-59158152D01*
X66753333Y-59158152D02*
X66705714Y-59253390D01*
X66705714Y-59253390D02*
X66658095Y-59301009D01*
X66658095Y-59301009D02*
X66562857Y-59348628D01*
X66562857Y-59348628D02*
X66181905Y-59348628D01*
X67086667Y-58824819D02*
X67705714Y-58824819D01*
X67705714Y-58824819D02*
X67372381Y-59205771D01*
X67372381Y-59205771D02*
X67515238Y-59205771D01*
X67515238Y-59205771D02*
X67610476Y-59253390D01*
X67610476Y-59253390D02*
X67658095Y-59301009D01*
X67658095Y-59301009D02*
X67705714Y-59396247D01*
X67705714Y-59396247D02*
X67705714Y-59634342D01*
X67705714Y-59634342D02*
X67658095Y-59729580D01*
X67658095Y-59729580D02*
X67610476Y-59777200D01*
X67610476Y-59777200D02*
X67515238Y-59824819D01*
X67515238Y-59824819D02*
X67229524Y-59824819D01*
X67229524Y-59824819D02*
X67134286Y-59777200D01*
X67134286Y-59777200D02*
X67086667Y-59729580D01*
X47666666Y-25454819D02*
X47666666Y-26169104D01*
X47666666Y-26169104D02*
X47619047Y-26311961D01*
X47619047Y-26311961D02*
X47523809Y-26407200D01*
X47523809Y-26407200D02*
X47380952Y-26454819D01*
X47380952Y-26454819D02*
X47285714Y-26454819D01*
X48190476Y-26454819D02*
X48380952Y-26454819D01*
X48380952Y-26454819D02*
X48476190Y-26407200D01*
X48476190Y-26407200D02*
X48523809Y-26359580D01*
X48523809Y-26359580D02*
X48619047Y-26216723D01*
X48619047Y-26216723D02*
X48666666Y-26026247D01*
X48666666Y-26026247D02*
X48666666Y-25645295D01*
X48666666Y-25645295D02*
X48619047Y-25550057D01*
X48619047Y-25550057D02*
X48571428Y-25502438D01*
X48571428Y-25502438D02*
X48476190Y-25454819D01*
X48476190Y-25454819D02*
X48285714Y-25454819D01*
X48285714Y-25454819D02*
X48190476Y-25502438D01*
X48190476Y-25502438D02*
X48142857Y-25550057D01*
X48142857Y-25550057D02*
X48095238Y-25645295D01*
X48095238Y-25645295D02*
X48095238Y-25883390D01*
X48095238Y-25883390D02*
X48142857Y-25978628D01*
X48142857Y-25978628D02*
X48190476Y-26026247D01*
X48190476Y-26026247D02*
X48285714Y-26073866D01*
X48285714Y-26073866D02*
X48476190Y-26073866D01*
X48476190Y-26073866D02*
X48571428Y-26026247D01*
X48571428Y-26026247D02*
X48619047Y-25978628D01*
X48619047Y-25978628D02*
X48666666Y-25883390D01*
X76089819Y-29805720D02*
X76899342Y-29805720D01*
X76899342Y-29805720D02*
X76994580Y-29758101D01*
X76994580Y-29758101D02*
X77042200Y-29710482D01*
X77042200Y-29710482D02*
X77089819Y-29615244D01*
X77089819Y-29615244D02*
X77089819Y-29424768D01*
X77089819Y-29424768D02*
X77042200Y-29329530D01*
X77042200Y-29329530D02*
X76994580Y-29281911D01*
X76994580Y-29281911D02*
X76899342Y-29234292D01*
X76899342Y-29234292D02*
X76089819Y-29234292D01*
X77089819Y-28234292D02*
X77089819Y-28805720D01*
X77089819Y-28520006D02*
X76089819Y-28520006D01*
X76089819Y-28520006D02*
X76232676Y-28615244D01*
X76232676Y-28615244D02*
X76327914Y-28710482D01*
X76327914Y-28710482D02*
X76375533Y-28805720D01*
X31666666Y-25454819D02*
X31666666Y-26169104D01*
X31666666Y-26169104D02*
X31619047Y-26311961D01*
X31619047Y-26311961D02*
X31523809Y-26407200D01*
X31523809Y-26407200D02*
X31380952Y-26454819D01*
X31380952Y-26454819D02*
X31285714Y-26454819D01*
X32285714Y-25883390D02*
X32190476Y-25835771D01*
X32190476Y-25835771D02*
X32142857Y-25788152D01*
X32142857Y-25788152D02*
X32095238Y-25692914D01*
X32095238Y-25692914D02*
X32095238Y-25645295D01*
X32095238Y-25645295D02*
X32142857Y-25550057D01*
X32142857Y-25550057D02*
X32190476Y-25502438D01*
X32190476Y-25502438D02*
X32285714Y-25454819D01*
X32285714Y-25454819D02*
X32476190Y-25454819D01*
X32476190Y-25454819D02*
X32571428Y-25502438D01*
X32571428Y-25502438D02*
X32619047Y-25550057D01*
X32619047Y-25550057D02*
X32666666Y-25645295D01*
X32666666Y-25645295D02*
X32666666Y-25692914D01*
X32666666Y-25692914D02*
X32619047Y-25788152D01*
X32619047Y-25788152D02*
X32571428Y-25835771D01*
X32571428Y-25835771D02*
X32476190Y-25883390D01*
X32476190Y-25883390D02*
X32285714Y-25883390D01*
X32285714Y-25883390D02*
X32190476Y-25931009D01*
X32190476Y-25931009D02*
X32142857Y-25978628D01*
X32142857Y-25978628D02*
X32095238Y-26073866D01*
X32095238Y-26073866D02*
X32095238Y-26264342D01*
X32095238Y-26264342D02*
X32142857Y-26359580D01*
X32142857Y-26359580D02*
X32190476Y-26407200D01*
X32190476Y-26407200D02*
X32285714Y-26454819D01*
X32285714Y-26454819D02*
X32476190Y-26454819D01*
X32476190Y-26454819D02*
X32571428Y-26407200D01*
X32571428Y-26407200D02*
X32619047Y-26359580D01*
X32619047Y-26359580D02*
X32666666Y-26264342D01*
X32666666Y-26264342D02*
X32666666Y-26073866D01*
X32666666Y-26073866D02*
X32619047Y-25978628D01*
X32619047Y-25978628D02*
X32571428Y-25931009D01*
X32571428Y-25931009D02*
X32476190Y-25883390D01*
X93238095Y-21304819D02*
X93238095Y-20304819D01*
X93238095Y-20781009D02*
X93809523Y-20781009D01*
X93809523Y-21304819D02*
X93809523Y-20304819D01*
X94809523Y-21304819D02*
X94238095Y-21304819D01*
X94523809Y-21304819D02*
X94523809Y-20304819D01*
X94523809Y-20304819D02*
X94428571Y-20447676D01*
X94428571Y-20447676D02*
X94333333Y-20542914D01*
X94333333Y-20542914D02*
X94238095Y-20590533D01*
X86913333Y-32084819D02*
X86580000Y-31608628D01*
X86341905Y-32084819D02*
X86341905Y-31084819D01*
X86341905Y-31084819D02*
X86722857Y-31084819D01*
X86722857Y-31084819D02*
X86818095Y-31132438D01*
X86818095Y-31132438D02*
X86865714Y-31180057D01*
X86865714Y-31180057D02*
X86913333Y-31275295D01*
X86913333Y-31275295D02*
X86913333Y-31418152D01*
X86913333Y-31418152D02*
X86865714Y-31513390D01*
X86865714Y-31513390D02*
X86818095Y-31561009D01*
X86818095Y-31561009D02*
X86722857Y-31608628D01*
X86722857Y-31608628D02*
X86341905Y-31608628D01*
X87294286Y-31180057D02*
X87341905Y-31132438D01*
X87341905Y-31132438D02*
X87437143Y-31084819D01*
X87437143Y-31084819D02*
X87675238Y-31084819D01*
X87675238Y-31084819D02*
X87770476Y-31132438D01*
X87770476Y-31132438D02*
X87818095Y-31180057D01*
X87818095Y-31180057D02*
X87865714Y-31275295D01*
X87865714Y-31275295D02*
X87865714Y-31370533D01*
X87865714Y-31370533D02*
X87818095Y-31513390D01*
X87818095Y-31513390D02*
X87246667Y-32084819D01*
X87246667Y-32084819D02*
X87865714Y-32084819D01*
X86913333Y-28084819D02*
X86580000Y-27608628D01*
X86341905Y-28084819D02*
X86341905Y-27084819D01*
X86341905Y-27084819D02*
X86722857Y-27084819D01*
X86722857Y-27084819D02*
X86818095Y-27132438D01*
X86818095Y-27132438D02*
X86865714Y-27180057D01*
X86865714Y-27180057D02*
X86913333Y-27275295D01*
X86913333Y-27275295D02*
X86913333Y-27418152D01*
X86913333Y-27418152D02*
X86865714Y-27513390D01*
X86865714Y-27513390D02*
X86818095Y-27561009D01*
X86818095Y-27561009D02*
X86722857Y-27608628D01*
X86722857Y-27608628D02*
X86341905Y-27608628D01*
X87865714Y-28084819D02*
X87294286Y-28084819D01*
X87580000Y-28084819D02*
X87580000Y-27084819D01*
X87580000Y-27084819D02*
X87484762Y-27227676D01*
X87484762Y-27227676D02*
X87389524Y-27322914D01*
X87389524Y-27322914D02*
X87294286Y-27370533D01*
X27074819Y-75333333D02*
X27789104Y-75333333D01*
X27789104Y-75333333D02*
X27931961Y-75380952D01*
X27931961Y-75380952D02*
X28027200Y-75476190D01*
X28027200Y-75476190D02*
X28074819Y-75619047D01*
X28074819Y-75619047D02*
X28074819Y-75714285D01*
X27408152Y-74428571D02*
X28074819Y-74428571D01*
X27027200Y-74666666D02*
X27741485Y-74904761D01*
X27741485Y-74904761D02*
X27741485Y-74285714D01*
X111238095Y-44304819D02*
X111238095Y-43304819D01*
X111238095Y-43781009D02*
X111809523Y-43781009D01*
X111809523Y-44304819D02*
X111809523Y-43304819D01*
X112190476Y-43304819D02*
X112809523Y-43304819D01*
X112809523Y-43304819D02*
X112476190Y-43685771D01*
X112476190Y-43685771D02*
X112619047Y-43685771D01*
X112619047Y-43685771D02*
X112714285Y-43733390D01*
X112714285Y-43733390D02*
X112761904Y-43781009D01*
X112761904Y-43781009D02*
X112809523Y-43876247D01*
X112809523Y-43876247D02*
X112809523Y-44114342D01*
X112809523Y-44114342D02*
X112761904Y-44209580D01*
X112761904Y-44209580D02*
X112714285Y-44257200D01*
X112714285Y-44257200D02*
X112619047Y-44304819D01*
X112619047Y-44304819D02*
X112333333Y-44304819D01*
X112333333Y-44304819D02*
X112238095Y-44257200D01*
X112238095Y-44257200D02*
X112190476Y-44209580D01*
X52583333Y-61109580D02*
X52535714Y-61157200D01*
X52535714Y-61157200D02*
X52392857Y-61204819D01*
X52392857Y-61204819D02*
X52297619Y-61204819D01*
X52297619Y-61204819D02*
X52154762Y-61157200D01*
X52154762Y-61157200D02*
X52059524Y-61061961D01*
X52059524Y-61061961D02*
X52011905Y-60966723D01*
X52011905Y-60966723D02*
X51964286Y-60776247D01*
X51964286Y-60776247D02*
X51964286Y-60633390D01*
X51964286Y-60633390D02*
X52011905Y-60442914D01*
X52011905Y-60442914D02*
X52059524Y-60347676D01*
X52059524Y-60347676D02*
X52154762Y-60252438D01*
X52154762Y-60252438D02*
X52297619Y-60204819D01*
X52297619Y-60204819D02*
X52392857Y-60204819D01*
X52392857Y-60204819D02*
X52535714Y-60252438D01*
X52535714Y-60252438D02*
X52583333Y-60300057D01*
X52964286Y-60300057D02*
X53011905Y-60252438D01*
X53011905Y-60252438D02*
X53107143Y-60204819D01*
X53107143Y-60204819D02*
X53345238Y-60204819D01*
X53345238Y-60204819D02*
X53440476Y-60252438D01*
X53440476Y-60252438D02*
X53488095Y-60300057D01*
X53488095Y-60300057D02*
X53535714Y-60395295D01*
X53535714Y-60395295D02*
X53535714Y-60490533D01*
X53535714Y-60490533D02*
X53488095Y-60633390D01*
X53488095Y-60633390D02*
X52916667Y-61204819D01*
X52916667Y-61204819D02*
X53535714Y-61204819D01*
X40753333Y-63824819D02*
X40420000Y-63348628D01*
X40181905Y-63824819D02*
X40181905Y-62824819D01*
X40181905Y-62824819D02*
X40562857Y-62824819D01*
X40562857Y-62824819D02*
X40658095Y-62872438D01*
X40658095Y-62872438D02*
X40705714Y-62920057D01*
X40705714Y-62920057D02*
X40753333Y-63015295D01*
X40753333Y-63015295D02*
X40753333Y-63158152D01*
X40753333Y-63158152D02*
X40705714Y-63253390D01*
X40705714Y-63253390D02*
X40658095Y-63301009D01*
X40658095Y-63301009D02*
X40562857Y-63348628D01*
X40562857Y-63348628D02*
X40181905Y-63348628D01*
X41610476Y-62824819D02*
X41420000Y-62824819D01*
X41420000Y-62824819D02*
X41324762Y-62872438D01*
X41324762Y-62872438D02*
X41277143Y-62920057D01*
X41277143Y-62920057D02*
X41181905Y-63062914D01*
X41181905Y-63062914D02*
X41134286Y-63253390D01*
X41134286Y-63253390D02*
X41134286Y-63634342D01*
X41134286Y-63634342D02*
X41181905Y-63729580D01*
X41181905Y-63729580D02*
X41229524Y-63777200D01*
X41229524Y-63777200D02*
X41324762Y-63824819D01*
X41324762Y-63824819D02*
X41515238Y-63824819D01*
X41515238Y-63824819D02*
X41610476Y-63777200D01*
X41610476Y-63777200D02*
X41658095Y-63729580D01*
X41658095Y-63729580D02*
X41705714Y-63634342D01*
X41705714Y-63634342D02*
X41705714Y-63396247D01*
X41705714Y-63396247D02*
X41658095Y-63301009D01*
X41658095Y-63301009D02*
X41610476Y-63253390D01*
X41610476Y-63253390D02*
X41515238Y-63205771D01*
X41515238Y-63205771D02*
X41324762Y-63205771D01*
X41324762Y-63205771D02*
X41229524Y-63253390D01*
X41229524Y-63253390D02*
X41181905Y-63301009D01*
X41181905Y-63301009D02*
X41134286Y-63396247D01*
X51074819Y-75333333D02*
X51789104Y-75333333D01*
X51789104Y-75333333D02*
X51931961Y-75380952D01*
X51931961Y-75380952D02*
X52027200Y-75476190D01*
X52027200Y-75476190D02*
X52074819Y-75619047D01*
X52074819Y-75619047D02*
X52074819Y-75714285D01*
X51074819Y-74380952D02*
X51074819Y-74857142D01*
X51074819Y-74857142D02*
X51551009Y-74904761D01*
X51551009Y-74904761D02*
X51503390Y-74857142D01*
X51503390Y-74857142D02*
X51455771Y-74761904D01*
X51455771Y-74761904D02*
X51455771Y-74523809D01*
X51455771Y-74523809D02*
X51503390Y-74428571D01*
X51503390Y-74428571D02*
X51551009Y-74380952D01*
X51551009Y-74380952D02*
X51646247Y-74333333D01*
X51646247Y-74333333D02*
X51884342Y-74333333D01*
X51884342Y-74333333D02*
X51979580Y-74380952D01*
X51979580Y-74380952D02*
X52027200Y-74428571D01*
X52027200Y-74428571D02*
X52074819Y-74523809D01*
X52074819Y-74523809D02*
X52074819Y-74761904D01*
X52074819Y-74761904D02*
X52027200Y-74857142D01*
X52027200Y-74857142D02*
X51979580Y-74904761D01*
X68074819Y-75333333D02*
X68789104Y-75333333D01*
X68789104Y-75333333D02*
X68931961Y-75380952D01*
X68931961Y-75380952D02*
X69027200Y-75476190D01*
X69027200Y-75476190D02*
X69074819Y-75619047D01*
X69074819Y-75619047D02*
X69074819Y-75714285D01*
X68074819Y-74952380D02*
X68074819Y-74285714D01*
X68074819Y-74285714D02*
X69074819Y-74714285D01*
X68824819Y-70246666D02*
X68348628Y-70579999D01*
X68824819Y-70818094D02*
X67824819Y-70818094D01*
X67824819Y-70818094D02*
X67824819Y-70437142D01*
X67824819Y-70437142D02*
X67872438Y-70341904D01*
X67872438Y-70341904D02*
X67920057Y-70294285D01*
X67920057Y-70294285D02*
X68015295Y-70246666D01*
X68015295Y-70246666D02*
X68158152Y-70246666D01*
X68158152Y-70246666D02*
X68253390Y-70294285D01*
X68253390Y-70294285D02*
X68301009Y-70341904D01*
X68301009Y-70341904D02*
X68348628Y-70437142D01*
X68348628Y-70437142D02*
X68348628Y-70818094D01*
X67824819Y-69341904D02*
X67824819Y-69818094D01*
X67824819Y-69818094D02*
X68301009Y-69865713D01*
X68301009Y-69865713D02*
X68253390Y-69818094D01*
X68253390Y-69818094D02*
X68205771Y-69722856D01*
X68205771Y-69722856D02*
X68205771Y-69484761D01*
X68205771Y-69484761D02*
X68253390Y-69389523D01*
X68253390Y-69389523D02*
X68301009Y-69341904D01*
X68301009Y-69341904D02*
X68396247Y-69294285D01*
X68396247Y-69294285D02*
X68634342Y-69294285D01*
X68634342Y-69294285D02*
X68729580Y-69341904D01*
X68729580Y-69341904D02*
X68777200Y-69389523D01*
X68777200Y-69389523D02*
X68824819Y-69484761D01*
X68824819Y-69484761D02*
X68824819Y-69722856D01*
X68824819Y-69722856D02*
X68777200Y-69818094D01*
X68777200Y-69818094D02*
X68729580Y-69865713D01*
X74333333Y-23859580D02*
X74285714Y-23907200D01*
X74285714Y-23907200D02*
X74142857Y-23954819D01*
X74142857Y-23954819D02*
X74047619Y-23954819D01*
X74047619Y-23954819D02*
X73904762Y-23907200D01*
X73904762Y-23907200D02*
X73809524Y-23811961D01*
X73809524Y-23811961D02*
X73761905Y-23716723D01*
X73761905Y-23716723D02*
X73714286Y-23526247D01*
X73714286Y-23526247D02*
X73714286Y-23383390D01*
X73714286Y-23383390D02*
X73761905Y-23192914D01*
X73761905Y-23192914D02*
X73809524Y-23097676D01*
X73809524Y-23097676D02*
X73904762Y-23002438D01*
X73904762Y-23002438D02*
X74047619Y-22954819D01*
X74047619Y-22954819D02*
X74142857Y-22954819D01*
X74142857Y-22954819D02*
X74285714Y-23002438D01*
X74285714Y-23002438D02*
X74333333Y-23050057D01*
X75190476Y-23288152D02*
X75190476Y-23954819D01*
X74952381Y-22907200D02*
X74714286Y-23621485D01*
X74714286Y-23621485D02*
X75333333Y-23621485D01*
X77074819Y-75333333D02*
X77789104Y-75333333D01*
X77789104Y-75333333D02*
X77931961Y-75380952D01*
X77931961Y-75380952D02*
X78027200Y-75476190D01*
X78027200Y-75476190D02*
X78074819Y-75619047D01*
X78074819Y-75619047D02*
X78074819Y-75714285D01*
X77074819Y-74428571D02*
X77074819Y-74619047D01*
X77074819Y-74619047D02*
X77122438Y-74714285D01*
X77122438Y-74714285D02*
X77170057Y-74761904D01*
X77170057Y-74761904D02*
X77312914Y-74857142D01*
X77312914Y-74857142D02*
X77503390Y-74904761D01*
X77503390Y-74904761D02*
X77884342Y-74904761D01*
X77884342Y-74904761D02*
X77979580Y-74857142D01*
X77979580Y-74857142D02*
X78027200Y-74809523D01*
X78027200Y-74809523D02*
X78074819Y-74714285D01*
X78074819Y-74714285D02*
X78074819Y-74523809D01*
X78074819Y-74523809D02*
X78027200Y-74428571D01*
X78027200Y-74428571D02*
X77979580Y-74380952D01*
X77979580Y-74380952D02*
X77884342Y-74333333D01*
X77884342Y-74333333D02*
X77646247Y-74333333D01*
X77646247Y-74333333D02*
X77551009Y-74380952D01*
X77551009Y-74380952D02*
X77503390Y-74428571D01*
X77503390Y-74428571D02*
X77455771Y-74523809D01*
X77455771Y-74523809D02*
X77455771Y-74714285D01*
X77455771Y-74714285D02*
X77503390Y-74809523D01*
X77503390Y-74809523D02*
X77551009Y-74857142D01*
X77551009Y-74857142D02*
X77646247Y-74904761D01*
X71753333Y-63324819D02*
X71420000Y-62848628D01*
X71181905Y-63324819D02*
X71181905Y-62324819D01*
X71181905Y-62324819D02*
X71562857Y-62324819D01*
X71562857Y-62324819D02*
X71658095Y-62372438D01*
X71658095Y-62372438D02*
X71705714Y-62420057D01*
X71705714Y-62420057D02*
X71753333Y-62515295D01*
X71753333Y-62515295D02*
X71753333Y-62658152D01*
X71753333Y-62658152D02*
X71705714Y-62753390D01*
X71705714Y-62753390D02*
X71658095Y-62801009D01*
X71658095Y-62801009D02*
X71562857Y-62848628D01*
X71562857Y-62848628D02*
X71181905Y-62848628D01*
X72086667Y-62324819D02*
X72753333Y-62324819D01*
X72753333Y-62324819D02*
X72324762Y-63324819D01*
%TO.C,J1*%
D12*
X98000000Y-20000000D02*
X110000000Y-20000000D01*
X98000000Y-30000000D02*
X98000000Y-20000000D01*
X99800000Y-20000000D02*
X99800000Y-11000000D01*
X108200000Y-20000000D02*
X108200000Y-11000000D01*
X110000000Y-20000000D02*
X110000000Y-30000000D01*
X110000000Y-30000000D02*
X98000000Y-30000000D01*
%TO.C,C3*%
X63880000Y-24630000D02*
X69120000Y-24630000D01*
X63880000Y-24967000D02*
X63880000Y-24630000D01*
X63880000Y-27370000D02*
X63880000Y-27033000D01*
X69120000Y-24630000D02*
X69120000Y-24967000D01*
X69120000Y-27033000D02*
X69120000Y-27370000D01*
X69120000Y-27370000D02*
X63880000Y-27370000D01*
%TO.C,U2*%
X25410000Y-63200000D02*
X54910000Y-63200000D01*
X25410000Y-66800000D02*
X25410000Y-63200000D01*
X54910000Y-63200000D02*
X54910000Y-66800000D01*
X54910000Y-66800000D02*
X25410000Y-66800000D01*
%TO.C,R4*%
X62000000Y-61540000D02*
X62000000Y-62310000D01*
X62000000Y-69620000D02*
X62000000Y-68850000D01*
X60630000Y-62310000D02*
X63370000Y-62310000D01*
X63370000Y-68850000D01*
X60630000Y-68850000D01*
X60630000Y-62310000D01*
%TO.C,C1*%
X56630000Y-56880000D02*
X56967000Y-56880000D01*
X56630000Y-62120000D02*
X56630000Y-56880000D01*
X56967000Y-62120000D02*
X56630000Y-62120000D01*
X59033000Y-56880000D02*
X59370000Y-56880000D01*
X59370000Y-56880000D02*
X59370000Y-62120000D01*
X59370000Y-62120000D02*
X59033000Y-62120000D01*
%TO.C,R3*%
X62880000Y-57000000D02*
X63650000Y-57000000D01*
X70960000Y-57000000D02*
X70190000Y-57000000D01*
X63650000Y-55630000D02*
X70190000Y-55630000D01*
X70190000Y-58370000D01*
X63650000Y-58370000D01*
X63650000Y-55630000D01*
%TO.C,J9*%
X42000000Y-20000000D02*
X54000000Y-20000000D01*
X42000000Y-30000000D02*
X42000000Y-20000000D01*
X43800000Y-20000000D02*
X43800000Y-11000000D01*
X52200000Y-20000000D02*
X52200000Y-11000000D01*
X54000000Y-20000000D02*
X54000000Y-30000000D01*
X54000000Y-30000000D02*
X42000000Y-30000000D01*
%TO.C,U1*%
X24960000Y-37780000D02*
X25780000Y-37780000D01*
X24960000Y-46000000D02*
X24960000Y-37780000D01*
X24960000Y-46000000D02*
X25780000Y-46000000D01*
X25780000Y-37780000D02*
X25780000Y-37990000D01*
X25780000Y-37990000D02*
X27176000Y-37990000D01*
X25780000Y-45790000D02*
X27176000Y-45790000D01*
X25780000Y-46000000D02*
X25780000Y-45790000D01*
X26260000Y-31890000D02*
X26260000Y-34380000D01*
X26260000Y-34380000D02*
X27173520Y-34380000D01*
X26260000Y-35727939D02*
X26260000Y-34380000D01*
X26260000Y-37655000D02*
X26260000Y-36652061D01*
X26260000Y-46125000D02*
X26260000Y-37655000D01*
X26260000Y-47127939D02*
X26260000Y-46125000D01*
X26260000Y-49400000D02*
X26260000Y-48052060D01*
X26260000Y-49400000D02*
X27173520Y-49400000D01*
X26260000Y-51890000D02*
X26260000Y-49400000D01*
X26323000Y-52160000D02*
X77417000Y-52160000D01*
X26870000Y-31280000D02*
X76870000Y-31280000D01*
X26870000Y-52500000D02*
X76870000Y-52500000D01*
X28540000Y-52820000D02*
X26940000Y-52820000D01*
X29564000Y-37990000D02*
X30780000Y-37990000D01*
X29564000Y-45790000D02*
X30780000Y-45790000D01*
X29566480Y-34380000D02*
X74173520Y-34380000D01*
X29566480Y-49400000D02*
X74173520Y-49400000D01*
X30780000Y-37990000D02*
X30780000Y-45790000D01*
X76566480Y-34380000D02*
X77480000Y-34380000D01*
X76566480Y-49400000D02*
X77480000Y-49400000D01*
X77417000Y-31620000D02*
X26323000Y-31620000D01*
X77480000Y-35727939D02*
X77480000Y-31890000D01*
X77480000Y-36652061D02*
X77480000Y-38290000D01*
X77480000Y-38290000D02*
X77480000Y-45490000D01*
X77480000Y-45490000D02*
X77480000Y-47127939D01*
X77480000Y-51890000D02*
X77480000Y-48052061D01*
X26260000Y-31890000D02*
G75*
G02*
X26870000Y-31280000I610000J0D01*
G01*
X26870000Y-52500000D02*
G75*
G02*
X26260000Y-51890000I0J610000D01*
G01*
X76870000Y-31280000D02*
G75*
G02*
X77480000Y-31890000I0J-610000D01*
G01*
X77480000Y-51890000D02*
G75*
G02*
X76870000Y-52500000I-609901J-99D01*
G01*
%TO.C,J8*%
X26000000Y-20000000D02*
X38000000Y-20000000D01*
X26000000Y-30000000D02*
X26000000Y-20000000D01*
X27800000Y-20000000D02*
X27800000Y-11000000D01*
X36200000Y-20000000D02*
X36200000Y-11000000D01*
X38000000Y-20000000D02*
X38000000Y-30000000D01*
X38000000Y-30000000D02*
X26000000Y-30000000D01*
%TO.C,R2*%
X83040000Y-34000000D02*
X83810000Y-34000000D01*
X91120000Y-34000000D02*
X90350000Y-34000000D01*
X83810000Y-32630000D02*
X90350000Y-32630000D01*
X90350000Y-35370000D01*
X83810000Y-35370000D01*
X83810000Y-32630000D01*
%TO.C,R1*%
X83040000Y-30000000D02*
X83810000Y-30000000D01*
X91120000Y-30000000D02*
X90350000Y-30000000D01*
X83810000Y-28630000D02*
X90350000Y-28630000D01*
X90350000Y-31370000D01*
X83810000Y-31370000D01*
X83810000Y-28630000D01*
%TO.C,J4*%
X28620000Y-76380000D02*
X28620000Y-75000000D01*
X30000000Y-76380000D02*
X28620000Y-76380000D01*
X31270000Y-73620000D02*
X44080000Y-73620000D01*
X31270000Y-76380000D02*
X31270000Y-73620000D01*
X31270000Y-76380000D02*
X44080000Y-76380000D01*
X44080000Y-76380000D02*
X44080000Y-73620000D01*
%TO.C,C2*%
X50150000Y-57283000D02*
X50150000Y-56717000D01*
X50190000Y-57517000D02*
X50190000Y-56483000D01*
X50230000Y-57677000D02*
X50230000Y-56323000D01*
X50270000Y-57805000D02*
X50270000Y-56195000D01*
X50310000Y-57914000D02*
X50310000Y-56086000D01*
X50350000Y-58011000D02*
X50350000Y-55989000D01*
X50390000Y-58098000D02*
X50390000Y-55902000D01*
X50430000Y-58177000D02*
X50430000Y-55823000D01*
X50470000Y-55960000D02*
X50470000Y-55749000D01*
X50470000Y-58251000D02*
X50470000Y-58040000D01*
X50510000Y-55960000D02*
X50510000Y-55681000D01*
X50510000Y-58319000D02*
X50510000Y-58040000D01*
X50550000Y-55960000D02*
X50550000Y-55617000D01*
X50550000Y-58383000D02*
X50550000Y-58040000D01*
X50590000Y-55960000D02*
X50590000Y-55557000D01*
X50590000Y-58443000D02*
X50590000Y-58040000D01*
X50630000Y-55960000D02*
X50630000Y-55501000D01*
X50630000Y-58499000D02*
X50630000Y-58040000D01*
X50670000Y-55960000D02*
X50670000Y-55447000D01*
X50670000Y-58553000D02*
X50670000Y-58040000D01*
X50710000Y-55960000D02*
X50710000Y-55396000D01*
X50710000Y-58604000D02*
X50710000Y-58040000D01*
X50750000Y-55960000D02*
X50750000Y-55348000D01*
X50750000Y-58652000D02*
X50750000Y-58040000D01*
X50790000Y-55960000D02*
X50790000Y-55301000D01*
X50790000Y-58699000D02*
X50790000Y-58040000D01*
X50830000Y-55960000D02*
X50830000Y-55257000D01*
X50830000Y-58743000D02*
X50830000Y-58040000D01*
X50870000Y-55960000D02*
X50870000Y-55215000D01*
X50870000Y-58785000D02*
X50870000Y-58040000D01*
X50910000Y-55960000D02*
X50910000Y-55175000D01*
X50910000Y-58825000D02*
X50910000Y-58040000D01*
X50950000Y-55960000D02*
X50950000Y-55136000D01*
X50950000Y-58864000D02*
X50950000Y-58040000D01*
X50990000Y-55960000D02*
X50990000Y-55099000D01*
X50990000Y-58901000D02*
X50990000Y-58040000D01*
X51030000Y-55960000D02*
X51030000Y-55064000D01*
X51030000Y-58936000D02*
X51030000Y-58040000D01*
X51070000Y-55960000D02*
X51070000Y-55030000D01*
X51070000Y-58970000D02*
X51070000Y-58040000D01*
X51110000Y-55960000D02*
X51110000Y-54997000D01*
X51110000Y-59003000D02*
X51110000Y-58040000D01*
X51150000Y-55960000D02*
X51150000Y-54965000D01*
X51150000Y-59035000D02*
X51150000Y-58040000D01*
X51190000Y-55960000D02*
X51190000Y-54935000D01*
X51190000Y-59065000D02*
X51190000Y-58040000D01*
X51230000Y-55960000D02*
X51230000Y-54906000D01*
X51230000Y-59094000D02*
X51230000Y-58040000D01*
X51270000Y-55960000D02*
X51270000Y-54878000D01*
X51270000Y-59122000D02*
X51270000Y-58040000D01*
X51310000Y-55960000D02*
X51310000Y-54851000D01*
X51310000Y-59149000D02*
X51310000Y-58040000D01*
X51350000Y-55960000D02*
X51350000Y-54825000D01*
X51350000Y-59175000D02*
X51350000Y-58040000D01*
X51390000Y-55960000D02*
X51390000Y-54801000D01*
X51390000Y-59199000D02*
X51390000Y-58040000D01*
X51430000Y-55960000D02*
X51430000Y-54777000D01*
X51430000Y-59223000D02*
X51430000Y-58040000D01*
X51470000Y-55960000D02*
X51470000Y-54754000D01*
X51470000Y-59246000D02*
X51470000Y-58040000D01*
X51510000Y-55960000D02*
X51510000Y-54732000D01*
X51510000Y-59268000D02*
X51510000Y-58040000D01*
X51550000Y-55960000D02*
X51550000Y-54711000D01*
X51550000Y-59289000D02*
X51550000Y-58040000D01*
X51590000Y-55960000D02*
X51590000Y-54691000D01*
X51590000Y-59309000D02*
X51590000Y-58040000D01*
X51630000Y-55960000D02*
X51630000Y-54671000D01*
X51630000Y-59329000D02*
X51630000Y-58040000D01*
X51670000Y-55960000D02*
X51670000Y-54653000D01*
X51670000Y-59347000D02*
X51670000Y-58040000D01*
X51710000Y-55960000D02*
X51710000Y-54635000D01*
X51710000Y-59365000D02*
X51710000Y-58040000D01*
X51750000Y-55960000D02*
X51750000Y-54618000D01*
X51750000Y-59382000D02*
X51750000Y-58040000D01*
X51790000Y-55960000D02*
X51790000Y-54602000D01*
X51790000Y-59398000D02*
X51790000Y-58040000D01*
X51830000Y-55960000D02*
X51830000Y-54587000D01*
X51830000Y-59413000D02*
X51830000Y-58040000D01*
X51870000Y-55960000D02*
X51870000Y-54572000D01*
X51870000Y-59428000D02*
X51870000Y-58040000D01*
X51910000Y-55960000D02*
X51910000Y-54558000D01*
X51910000Y-59442000D02*
X51910000Y-58040000D01*
X51950000Y-55960000D02*
X51950000Y-54545000D01*
X51950000Y-59455000D02*
X51950000Y-58040000D01*
X51990000Y-55960000D02*
X51990000Y-54533000D01*
X51990000Y-59467000D02*
X51990000Y-58040000D01*
X52030000Y-55960000D02*
X52030000Y-54521000D01*
X52030000Y-59479000D02*
X52030000Y-58040000D01*
X52070000Y-55960000D02*
X52070000Y-54510000D01*
X52070000Y-59490000D02*
X52070000Y-58040000D01*
X52110000Y-55960000D02*
X52110000Y-54499000D01*
X52110000Y-59501000D02*
X52110000Y-58040000D01*
X52150000Y-55960000D02*
X52150000Y-54490000D01*
X52150000Y-59510000D02*
X52150000Y-58040000D01*
X52190000Y-55960000D02*
X52190000Y-54481000D01*
X52190000Y-59519000D02*
X52190000Y-58040000D01*
X52230000Y-55960000D02*
X52230000Y-54472000D01*
X52230000Y-59528000D02*
X52230000Y-58040000D01*
X52270000Y-55960000D02*
X52270000Y-54464000D01*
X52270000Y-59536000D02*
X52270000Y-58040000D01*
X52310000Y-55960000D02*
X52310000Y-54457000D01*
X52310000Y-59543000D02*
X52310000Y-58040000D01*
X52350000Y-55960000D02*
X52350000Y-54451000D01*
X52350000Y-59549000D02*
X52350000Y-58040000D01*
X52390000Y-55960000D02*
X52390000Y-54445000D01*
X52390000Y-59555000D02*
X52390000Y-58040000D01*
X52430000Y-55960000D02*
X52430000Y-54440000D01*
X52430000Y-59560000D02*
X52430000Y-58040000D01*
X52470000Y-55960000D02*
X52470000Y-54435000D01*
X52470000Y-59565000D02*
X52470000Y-58040000D01*
X52510000Y-55960000D02*
X52510000Y-54431000D01*
X52510000Y-59569000D02*
X52510000Y-58040000D01*
X52550000Y-59572000D02*
X52550000Y-54428000D01*
X52590000Y-59575000D02*
X52590000Y-54425000D01*
X52630000Y-59577000D02*
X52630000Y-54423000D01*
X52670000Y-59579000D02*
X52670000Y-54421000D01*
X52710000Y-59580000D02*
X52710000Y-54420000D01*
X52750000Y-59580000D02*
X52750000Y-54420000D01*
X55304775Y-58725000D02*
X55304775Y-58225000D01*
X55554775Y-58475000D02*
X55054775Y-58475000D01*
X55370000Y-57000000D02*
G75*
G02*
X50130000Y-57000000I-2620000J0D01*
G01*
X50130000Y-57000000D02*
G75*
G02*
X55370000Y-57000000I2620000J0D01*
G01*
%TO.C,R6*%
X36880000Y-61000000D02*
X37650000Y-61000000D01*
X44960000Y-61000000D02*
X44190000Y-61000000D01*
X37650000Y-59630000D02*
X44190000Y-59630000D01*
X44190000Y-62370000D01*
X37650000Y-62370000D01*
X37650000Y-59630000D01*
%TO.C,J5*%
X52620000Y-76380000D02*
X52620000Y-75000000D01*
X54000000Y-76380000D02*
X52620000Y-76380000D01*
X55270000Y-73620000D02*
X60460000Y-73620000D01*
X55270000Y-76380000D02*
X55270000Y-73620000D01*
X55270000Y-76380000D02*
X60460000Y-76380000D01*
X60460000Y-76380000D02*
X60460000Y-73620000D01*
%TO.C,J7*%
X69620000Y-76380000D02*
X69620000Y-75000000D01*
X71000000Y-76380000D02*
X69620000Y-76380000D01*
X72270000Y-73620000D02*
X74920000Y-73620000D01*
X72270000Y-76380000D02*
X72270000Y-73620000D01*
X72270000Y-76380000D02*
X74920000Y-76380000D01*
X74920000Y-76380000D02*
X74920000Y-73620000D01*
%TO.C,R5*%
X66000000Y-66040000D02*
X66000000Y-66810000D01*
X66000000Y-74120000D02*
X66000000Y-73350000D01*
X64630000Y-66810000D02*
X67370000Y-66810000D01*
X67370000Y-73350000D01*
X64630000Y-73350000D01*
X64630000Y-66810000D01*
%TO.C,C4*%
X71880000Y-24630000D02*
X77120000Y-24630000D01*
X71880000Y-24967000D02*
X71880000Y-24630000D01*
X71880000Y-27370000D02*
X71880000Y-27033000D01*
X77120000Y-24630000D02*
X77120000Y-24967000D01*
X77120000Y-27033000D02*
X77120000Y-27370000D01*
X77120000Y-27370000D02*
X71880000Y-27370000D01*
%TO.C,J6*%
X78620000Y-76380000D02*
X78620000Y-75000000D01*
X80000000Y-76380000D02*
X78620000Y-76380000D01*
X81270000Y-73620000D02*
X86460000Y-73620000D01*
X81270000Y-76380000D02*
X81270000Y-73620000D01*
X81270000Y-76380000D02*
X86460000Y-76380000D01*
X86460000Y-76380000D02*
X86460000Y-73620000D01*
%TO.C,R7*%
X67880000Y-60500000D02*
X68650000Y-60500000D01*
X75960000Y-60500000D02*
X75190000Y-60500000D01*
X68650000Y-59130000D02*
X75190000Y-59130000D01*
X75190000Y-61870000D01*
X68650000Y-61870000D01*
X68650000Y-59130000D01*
%TD*%
%LPC*%
D13*
%TO.C,H2*%
X24000000Y-76000000D03*
%TD*%
D14*
%TO.C,J1*%
X104000000Y-27000000D03*
D15*
X99000000Y-27000000D03*
D16*
X104000000Y-22000000D03*
D15*
X109000000Y-27000000D03*
%TD*%
D17*
%TO.C,C3*%
X64000000Y-26000000D03*
X69000000Y-26000000D03*
%TD*%
D13*
%TO.C,H4*%
X112000000Y-70000000D03*
%TD*%
D18*
%TO.C,U2*%
X30000000Y-65000000D03*
D19*
X32540000Y-65000000D03*
X35080000Y-65000000D03*
X37620000Y-65000000D03*
X40160000Y-65000000D03*
X42700000Y-65000000D03*
X45240000Y-65000000D03*
X47780000Y-65000000D03*
X50320000Y-65000000D03*
%TD*%
D17*
%TO.C,R4*%
X62000000Y-60500000D03*
X62000000Y-70660000D03*
%TD*%
%TO.C,C1*%
X58000000Y-57000000D03*
X58000000Y-62000000D03*
%TD*%
%TO.C,R3*%
X72000000Y-57000000D03*
X61840000Y-57000000D03*
%TD*%
D14*
%TO.C,J9*%
X48000000Y-27000000D03*
D15*
X43000000Y-27000000D03*
D16*
X48000000Y-22000000D03*
D15*
X53000000Y-27000000D03*
%TD*%
D20*
%TO.C,U1*%
X27740000Y-50780000D03*
D17*
X30280000Y-50780000D03*
D21*
X32820000Y-50780000D03*
D17*
X35360000Y-50780000D03*
X37900000Y-50780000D03*
X40440000Y-50780000D03*
X42980000Y-50780000D03*
D21*
X45520000Y-50780000D03*
D17*
X48060000Y-50780000D03*
X50600000Y-50780000D03*
X53140000Y-50780000D03*
X55680000Y-50780000D03*
D21*
X58220000Y-50780000D03*
D17*
X60760000Y-50780000D03*
X63300000Y-50780000D03*
X65840000Y-50780000D03*
X68380000Y-50780000D03*
D21*
X70920000Y-50780000D03*
D17*
X73460000Y-50780000D03*
X76000000Y-50780000D03*
X76000000Y-33000000D03*
X73460000Y-33000000D03*
D22*
X70920000Y-33000000D03*
D17*
X68380000Y-33000000D03*
X65840000Y-33000000D03*
X63300000Y-33000000D03*
X60760000Y-33000000D03*
D22*
X58220000Y-33000000D03*
D17*
X55680000Y-33000000D03*
X53140000Y-33000000D03*
X50600000Y-33000000D03*
X48060000Y-33000000D03*
D22*
X45520000Y-33000000D03*
D17*
X42980000Y-33000000D03*
X40440000Y-33000000D03*
X37900000Y-33000000D03*
X35360000Y-33000000D03*
D22*
X32820000Y-33000000D03*
D17*
X30280000Y-33000000D03*
X27740000Y-33000000D03*
%TD*%
D14*
%TO.C,J8*%
X32000000Y-27000000D03*
D15*
X27000000Y-27000000D03*
D16*
X32000000Y-22000000D03*
D15*
X37000000Y-27000000D03*
%TD*%
D13*
%TO.C,H1*%
X94000000Y-25000000D03*
%TD*%
D17*
%TO.C,R2*%
X82000000Y-34000000D03*
X92160000Y-34000000D03*
%TD*%
%TO.C,R1*%
X82000000Y-30000000D03*
X92160000Y-30000000D03*
%TD*%
D23*
%TO.C,J4*%
X30000000Y-75000000D03*
D24*
X32540000Y-75000000D03*
X35080000Y-75000000D03*
X37620000Y-75000000D03*
X40160000Y-75000000D03*
X42700000Y-75000000D03*
%TD*%
D13*
%TO.C,H3*%
X112000000Y-48000000D03*
%TD*%
D25*
%TO.C,C2*%
X54000000Y-57000000D03*
D17*
X51500000Y-57000000D03*
%TD*%
%TO.C,R6*%
X46000000Y-61000000D03*
X35840000Y-61000000D03*
%TD*%
D23*
%TO.C,J5*%
X54000000Y-75000000D03*
D24*
X56540000Y-75000000D03*
X59080000Y-75000000D03*
%TD*%
D23*
%TO.C,J7*%
X71000000Y-75000000D03*
D24*
X73540000Y-75000000D03*
%TD*%
D17*
%TO.C,R5*%
X66000000Y-65000000D03*
X66000000Y-75160000D03*
%TD*%
%TO.C,C4*%
X72000000Y-26000000D03*
X77000000Y-26000000D03*
%TD*%
D23*
%TO.C,J6*%
X80000000Y-75000000D03*
D24*
X82540000Y-75000000D03*
X85080000Y-75000000D03*
%TD*%
D17*
%TO.C,R7*%
X77000000Y-60500000D03*
X66840000Y-60500000D03*
%TD*%
%LPD*%
M02*
