%TF.GenerationSoftware,KiCad,Pcbnew,10.0.4*%
%TF.CreationDate,2026-07-21T20:45:19-03:00*%
%TF.ProjectId,pong-retrosc,706f6e67-2d72-4657-9472-6f73632e6b69,rev?*%
%TF.SameCoordinates,Original*%
%TF.FileFunction,Copper,L2,Bot*%
%TF.FilePolarity,Positive*%
%FSLAX46Y46*%
G04 Gerber Fmt 4.6, Leading zero omitted, Abs format (unit mm)*
G04 Created by KiCad (PCBNEW 10.0.4) date 2026-07-21 20:45:19*
%MOMM*%
%LPD*%
G01*
G04 APERTURE LIST*
G04 Aperture macros list*
%AMRoundRect*
0 Rectangle with rounded corners*
0 $1 Rounding radius*
0 $2 $3 $4 $5 $6 $7 $8 $9 X,Y pos of 4 corners*
0 Add a 4 corners polygon primitive as box body*
4,1,4,$2,$3,$4,$5,$6,$7,$8,$9,$2,$3,0*
0 Add four circle primitives for the rounded corners*
1,1,$1+$1,$2,$3*
1,1,$1+$1,$4,$5*
1,1,$1+$1,$6,$7*
1,1,$1+$1,$8,$9*
0 Add four rect primitives between the rounded corners*
20,1,$1+$1,$2,$3,$4,$5,0*
20,1,$1+$1,$4,$5,$6,$7,0*
20,1,$1+$1,$6,$7,$8,$9,0*
20,1,$1+$1,$8,$9,$2,$3,0*%
%AMFreePoly0*
4,1,37,0.603843,0.796157,0.639018,0.796157,0.711114,0.766294,0.766294,0.711114,0.796157,0.639018,0.796157,0.603843,0.800000,0.600000,0.800000,-0.600000,0.796157,-0.603843,0.796157,-0.639018,0.766294,-0.711114,0.711114,-0.766294,0.639018,-0.796157,0.603843,-0.796157,0.600000,-0.800000,0.000000,-0.800000,0.000000,-0.796148,-0.078414,-0.796148,-0.232228,-0.765552,-0.377117,-0.705537,
-0.507515,-0.618408,-0.618408,-0.507515,-0.705537,-0.377117,-0.765552,-0.232228,-0.796148,-0.078414,-0.796148,0.078414,-0.765552,0.232228,-0.705537,0.377117,-0.618408,0.507515,-0.507515,0.618408,-0.377117,0.705537,-0.232228,0.765552,-0.078414,0.796148,0.000000,0.796148,0.000000,0.800000,0.600000,0.800000,0.603843,0.796157,0.603843,0.796157,$1*%
%AMFreePoly1*
4,1,37,0.000000,0.796148,0.078414,0.796148,0.232228,0.765552,0.377117,0.705537,0.507515,0.618408,0.618408,0.507515,0.705537,0.377117,0.765552,0.232228,0.796148,0.078414,0.796148,-0.078414,0.765552,-0.232228,0.705537,-0.377117,0.618408,-0.507515,0.507515,-0.618408,0.377117,-0.705537,0.232228,-0.765552,0.078414,-0.796148,0.000000,-0.796148,0.000000,-0.800000,-0.600000,-0.800000,
-0.603843,-0.796157,-0.639018,-0.796157,-0.711114,-0.766294,-0.766294,-0.711114,-0.796157,-0.639018,-0.796157,-0.603843,-0.800000,-0.600000,-0.800000,0.600000,-0.796157,0.603843,-0.796157,0.639018,-0.766294,0.711114,-0.711114,0.766294,-0.639018,0.796157,-0.603843,0.796157,-0.600000,0.800000,0.000000,0.800000,0.000000,0.796148,0.000000,0.796148,$1*%
G04 Aperture macros list end*
%TA.AperFunction,ComponentPad*%
%ADD10C,2.600000*%
%TD*%
%TA.AperFunction,ComponentPad*%
%ADD11O,2.300000X3.400000*%
%TD*%
%TA.AperFunction,ComponentPad*%
%ADD12O,3.400000X2.300000*%
%TD*%
%TA.AperFunction,ComponentPad*%
%ADD13C,1.600000*%
%TD*%
%TA.AperFunction,ComponentPad*%
%ADD14R,1.900000X1.900000*%
%TD*%
%TA.AperFunction,ComponentPad*%
%ADD15C,1.900000*%
%TD*%
%TA.AperFunction,ComponentPad*%
%ADD16RoundRect,0.200000X0.600000X-0.600000X0.600000X0.600000X-0.600000X0.600000X-0.600000X-0.600000X0*%
%TD*%
%TA.AperFunction,ComponentPad*%
%ADD17FreePoly0,90.000000*%
%TD*%
%TA.AperFunction,ComponentPad*%
%ADD18FreePoly1,90.000000*%
%TD*%
%TA.AperFunction,ComponentPad*%
%ADD19R,1.700000X1.700000*%
%TD*%
%TA.AperFunction,ComponentPad*%
%ADD20C,1.700000*%
%TD*%
%TA.AperFunction,ComponentPad*%
%ADD21RoundRect,0.250000X0.550000X0.550000X-0.550000X0.550000X-0.550000X-0.550000X0.550000X-0.550000X0*%
%TD*%
%TA.AperFunction,Conductor*%
%ADD22C,0.300000*%
%TD*%
G04 APERTURE END LIST*
D10*
%TO.P,J1,1*%
%TO.N,COMPOSITE*%
X104000000Y-27000000D03*
D11*
%TO.P,J1,2*%
%TO.N,GND*%
X99000000Y-27000000D03*
D12*
X104000000Y-22000000D03*
D11*
X109000000Y-27000000D03*
%TD*%
D13*
%TO.P,C3,1*%
%TO.N,POT1*%
X64000000Y-26000000D03*
%TO.P,C3,2*%
%TO.N,AGND*%
X69000000Y-26000000D03*
%TD*%
D14*
%TO.P,U2,1*%
%TO.N,N/C*%
X30000000Y-65000000D03*
D15*
%TO.P,U2,2*%
X32540000Y-65000000D03*
%TO.P,U2,3*%
%TO.N,LOUT_P*%
X35080000Y-65000000D03*
%TO.P,U2,4*%
%TO.N,LOUT_N*%
X37620000Y-65000000D03*
%TO.P,U2,5*%
%TO.N,GND*%
X40160000Y-65000000D03*
%TO.P,U2,6*%
%TO.N,+5V*%
X42700000Y-65000000D03*
%TO.P,U2,7*%
%TO.N,AMP_L*%
X45240000Y-65000000D03*
%TO.P,U2,8*%
%TO.N,GND*%
X47780000Y-65000000D03*
%TO.P,U2,9*%
%TO.N,AMP_R*%
X50320000Y-65000000D03*
%TD*%
D13*
%TO.P,R4,1*%
%TO.N,AUD_C*%
X62000000Y-60500000D03*
%TO.P,R4,2*%
%TO.N,LINHA*%
X62000000Y-70660000D03*
%TD*%
%TO.P,C1,1*%
%TO.N,AUD_F*%
X58000000Y-57000000D03*
%TO.P,C1,2*%
%TO.N,GND*%
X58000000Y-62000000D03*
%TD*%
%TO.P,R3,1*%
%TO.N,AUDIO_PWM*%
X72000000Y-57000000D03*
%TO.P,R3,2*%
%TO.N,AUD_F*%
X61840000Y-57000000D03*
%TD*%
D10*
%TO.P,J9,1*%
%TO.N,RCA_C*%
X48000000Y-27000000D03*
D11*
%TO.P,J9,2*%
%TO.N,RCA_S*%
X43000000Y-27000000D03*
D12*
X48000000Y-22000000D03*
D11*
X53000000Y-27000000D03*
%TD*%
D16*
%TO.P,U1,1*%
%TO.N,N/C*%
X27740000Y-50780000D03*
D13*
%TO.P,U1,2*%
X30280000Y-50780000D03*
D17*
%TO.P,U1,3*%
%TO.N,GND*%
X32820000Y-50780000D03*
D13*
%TO.P,U1,4*%
%TO.N,N/C*%
X35360000Y-50780000D03*
%TO.P,U1,5*%
X37900000Y-50780000D03*
%TO.P,U1,6*%
X40440000Y-50780000D03*
%TO.P,U1,7*%
X42980000Y-50780000D03*
D17*
%TO.P,U1,8*%
%TO.N,GND*%
X45520000Y-50780000D03*
D13*
%TO.P,U1,9*%
%TO.N,N/C*%
X48060000Y-50780000D03*
%TO.P,U1,10*%
X50600000Y-50780000D03*
%TO.P,U1,11*%
X53140000Y-50780000D03*
%TO.P,U1,12*%
X55680000Y-50780000D03*
D17*
%TO.P,U1,13*%
%TO.N,GND*%
X58220000Y-50780000D03*
D13*
%TO.P,U1,14*%
%TO.N,N/C*%
X60760000Y-50780000D03*
%TO.P,U1,15*%
X63300000Y-50780000D03*
%TO.P,U1,16*%
X65840000Y-50780000D03*
%TO.P,U1,17*%
X68380000Y-50780000D03*
D17*
%TO.P,U1,18*%
%TO.N,GND*%
X70920000Y-50780000D03*
D13*
%TO.P,U1,19*%
%TO.N,N/C*%
X73460000Y-50780000D03*
%TO.P,U1,20*%
X76000000Y-50780000D03*
%TO.P,U1,21*%
%TO.N,SYNC*%
X76000000Y-33000000D03*
%TO.P,U1,22*%
%TO.N,VIDEO*%
X73460000Y-33000000D03*
D18*
%TO.P,U1,23*%
%TO.N,GND*%
X70920000Y-33000000D03*
D13*
%TO.P,U1,24*%
%TO.N,AUDIO_PWM*%
X68380000Y-33000000D03*
%TO.P,U1,25*%
%TO.N,N/C*%
X65840000Y-33000000D03*
%TO.P,U1,26*%
X63300000Y-33000000D03*
%TO.P,U1,27*%
X60760000Y-33000000D03*
D18*
%TO.P,U1,28*%
%TO.N,GND*%
X58220000Y-33000000D03*
D13*
%TO.P,U1,29*%
%TO.N,START*%
X55680000Y-33000000D03*
%TO.P,U1,30*%
%TO.N,N/C*%
X53140000Y-33000000D03*
%TO.P,U1,31*%
%TO.N,POT1*%
X50600000Y-33000000D03*
%TO.P,U1,32*%
%TO.N,POT2*%
X48060000Y-33000000D03*
D18*
%TO.P,U1,33*%
%TO.N,AGND*%
X45520000Y-33000000D03*
D13*
%TO.P,U1,34*%
%TO.N,N/C*%
X42980000Y-33000000D03*
%TO.P,U1,35*%
X40440000Y-33000000D03*
%TO.P,U1,36*%
%TO.N,+3V3*%
X37900000Y-33000000D03*
%TO.P,U1,37*%
%TO.N,N/C*%
X35360000Y-33000000D03*
D18*
%TO.P,U1,38*%
%TO.N,GND*%
X32820000Y-33000000D03*
D13*
%TO.P,U1,39*%
%TO.N,N/C*%
X30280000Y-33000000D03*
%TO.P,U1,40*%
%TO.N,+5V*%
X27740000Y-33000000D03*
%TD*%
D10*
%TO.P,J8,1*%
%TO.N,RCA_C*%
X32000000Y-27000000D03*
D11*
%TO.P,J8,2*%
%TO.N,RCA_S*%
X27000000Y-27000000D03*
D12*
X32000000Y-22000000D03*
D11*
X37000000Y-27000000D03*
%TD*%
D13*
%TO.P,R2,1*%
%TO.N,VIDEO*%
X82000000Y-34000000D03*
%TO.P,R2,2*%
%TO.N,COMPOSITE*%
X92160000Y-34000000D03*
%TD*%
%TO.P,R1,1*%
%TO.N,SYNC*%
X82000000Y-30000000D03*
%TO.P,R1,2*%
%TO.N,COMPOSITE*%
X92160000Y-30000000D03*
%TD*%
D19*
%TO.P,J4,1*%
%TO.N,RCA_C*%
X30000000Y-75000000D03*
D20*
%TO.P,J4,2*%
%TO.N,RCA_S*%
X32540000Y-75000000D03*
%TO.P,J4,3*%
%TO.N,LINHA*%
X35080000Y-75000000D03*
%TO.P,J4,4*%
%TO.N,GND*%
X37620000Y-75000000D03*
%TO.P,J4,5*%
%TO.N,LOUT_P*%
X40160000Y-75000000D03*
%TO.P,J4,6*%
%TO.N,LOUT_N*%
X42700000Y-75000000D03*
%TD*%
D21*
%TO.P,C2,1*%
%TO.N,AUD_F*%
X54000000Y-57000000D03*
D13*
%TO.P,C2,2*%
%TO.N,AUD_C*%
X51500000Y-57000000D03*
%TD*%
%TO.P,R6,1*%
%TO.N,AUD_C*%
X46000000Y-61000000D03*
%TO.P,R6,2*%
%TO.N,AMP_L*%
X35840000Y-61000000D03*
%TD*%
D19*
%TO.P,J5,1*%
%TO.N,+3V3*%
X54000000Y-75000000D03*
D20*
%TO.P,J5,2*%
%TO.N,POT1*%
X56540000Y-75000000D03*
%TO.P,J5,3*%
%TO.N,AGND*%
X59080000Y-75000000D03*
%TD*%
D19*
%TO.P,J7,1*%
%TO.N,START*%
X71000000Y-75000000D03*
D20*
%TO.P,J7,2*%
%TO.N,GND*%
X73540000Y-75000000D03*
%TD*%
D13*
%TO.P,R5,1*%
%TO.N,LINHA*%
X66000000Y-65000000D03*
%TO.P,R5,2*%
%TO.N,GND*%
X66000000Y-75160000D03*
%TD*%
%TO.P,C4,1*%
%TO.N,POT2*%
X72000000Y-26000000D03*
%TO.P,C4,2*%
%TO.N,AGND*%
X77000000Y-26000000D03*
%TD*%
D19*
%TO.P,J6,1*%
%TO.N,+3V3*%
X80000000Y-75000000D03*
D20*
%TO.P,J6,2*%
%TO.N,POT2*%
X82540000Y-75000000D03*
%TO.P,J6,3*%
%TO.N,AGND*%
X85080000Y-75000000D03*
%TD*%
D13*
%TO.P,R7,1*%
%TO.N,AUD_C*%
X77000000Y-60500000D03*
%TO.P,R7,2*%
%TO.N,AMP_R*%
X66840000Y-60500000D03*
%TD*%
%TO.N,COMPOSITE*%
D22*
X92160000Y-30000000D02*
X92160000Y-34000000D01*
%TO.N,POT1*%
X54410000Y-55038700D02*
X54410000Y-36810000D01*
X54410000Y-36810000D02*
X52718200Y-35118100D01*
X56540000Y-75000000D02*
X57767300Y-76227300D01*
X52718200Y-35118100D02*
X50600000Y-33000000D01*
X54500200Y-32546500D02*
X61046700Y-26000000D01*
X61046700Y-26000000D02*
X64000000Y-26000000D01*
X57767300Y-76227300D02*
X59641400Y-76227300D01*
X54500200Y-33336100D02*
X54500200Y-32546500D01*
X59641400Y-76227300D02*
X60286200Y-75582500D01*
X60286200Y-75582500D02*
X60286200Y-60914900D01*
X52718200Y-35118100D02*
X54500200Y-33336100D01*
X60286200Y-60914900D02*
X54410000Y-55038700D01*
%TO.N,AGND*%
X59080000Y-75000000D02*
X52749600Y-68669600D01*
X51870000Y-53552500D02*
X51870000Y-39350000D01*
X52749600Y-68669600D02*
X52749600Y-54432100D01*
X52749600Y-54432100D02*
X51870000Y-53552500D01*
X51870000Y-39350000D02*
X45520000Y-33000000D01*
%TO.N,LOUT_P*%
X35080000Y-69920000D02*
X35080000Y-65000000D01*
X40160000Y-75000000D02*
X35080000Y-69920000D01*
%TO.N,LOUT_N*%
X37620000Y-69920000D02*
X37620000Y-65000000D01*
X42700000Y-75000000D02*
X37620000Y-69920000D01*
%TO.N,+5V*%
X36630000Y-58930000D02*
X36630000Y-41890000D01*
X36630000Y-41890000D02*
X27740000Y-33000000D01*
X42700000Y-65000000D02*
X36630000Y-58930000D01*
%TO.N,LINHA*%
X62000000Y-69000000D02*
X62000000Y-70660000D01*
X66000000Y-65000000D02*
X62000000Y-69000000D01*
%TO.N,AUDIO_PWM*%
X69650100Y-50344500D02*
X68380000Y-49074400D01*
X69650100Y-54650100D02*
X69650100Y-50344500D01*
X72000000Y-57000000D02*
X69650100Y-54650100D01*
X68380000Y-49074400D02*
X68380000Y-33000000D01*
%TO.N,RCA_C*%
X25444700Y-69243000D02*
X25444700Y-25814100D01*
X30000000Y-75000000D02*
X30000000Y-73798300D01*
X29946400Y-24946400D02*
X32000000Y-27000000D01*
X26312400Y-24946400D02*
X29946400Y-24946400D01*
X25444700Y-25814100D02*
X26312400Y-24946400D01*
X30000000Y-73798300D02*
X25444700Y-69243000D01*
%TO.N,RCA_S*%
X32000000Y-23501700D02*
X35498300Y-27000000D01*
X32000000Y-22000000D02*
X32000000Y-23501700D01*
X48000000Y-22750800D02*
X48000000Y-22950100D01*
X48000000Y-22950100D02*
X44501700Y-26448400D01*
X26062600Y-29989100D02*
X26062600Y-68522600D01*
X27000000Y-27000000D02*
X27000000Y-29051700D01*
X44501700Y-26448400D02*
X44501700Y-27000000D01*
X27000000Y-29051700D02*
X26062600Y-29989100D01*
X26062600Y-68522600D02*
X32540000Y-75000000D01*
X48000000Y-22000000D02*
X48000000Y-22750800D01*
X51498300Y-27000000D02*
X48000000Y-23501700D01*
X48000000Y-22950100D02*
X48000000Y-23501700D01*
X37000000Y-27000000D02*
X35498300Y-27000000D01*
X43000000Y-27000000D02*
X44501700Y-27000000D01*
X53000000Y-27000000D02*
X51498300Y-27000000D01*
%TO.N,SYNC*%
X79000000Y-30000000D02*
X76000000Y-33000000D01*
X82000000Y-30000000D02*
X79000000Y-30000000D01*
%TO.N,START*%
X71000000Y-62500000D02*
X62030000Y-53530000D01*
X62030000Y-39350000D02*
X55680000Y-33000000D01*
X62030000Y-53530000D02*
X62030000Y-39350000D01*
X71000000Y-75000000D02*
X71000000Y-62500000D01*
%TO.N,POT2*%
X82540000Y-41172900D02*
X82540000Y-75000000D01*
X74730000Y-28730000D02*
X74730000Y-33362900D01*
X74730000Y-33362900D02*
X82540000Y-41172900D01*
X72000000Y-26000000D02*
X74730000Y-28730000D01*
%TO.N,+3V3*%
X54000000Y-75000000D02*
X54000000Y-73798300D01*
X44147000Y-39247000D02*
X37900000Y-33000000D01*
X54000000Y-73798300D02*
X52111700Y-71910000D01*
X52111700Y-61220600D02*
X44147000Y-53255900D01*
X44147000Y-53255900D02*
X44147000Y-39247000D01*
X52111700Y-71910000D02*
X52111700Y-61220600D01*
%TD*%
%TA.AperFunction,Conductor*%
%TO.N,GND*%
G36*
X26718303Y-33438916D02*
G01*
X26747585Y-33476335D01*
X26798766Y-33576786D01*
X26799323Y-33577552D01*
X26900586Y-33716928D01*
X27023072Y-33839414D01*
X27163212Y-33941232D01*
X27317555Y-34019873D01*
X27482299Y-34073402D01*
X27653389Y-34100500D01*
X27653390Y-34100500D01*
X27826610Y-34100500D01*
X27826611Y-34100500D01*
X27997701Y-34073402D01*
X28060231Y-34053083D01*
X28130070Y-34051087D01*
X28186230Y-34083333D01*
X36143181Y-42040284D01*
X36176666Y-42101607D01*
X36179500Y-42127965D01*
X36179500Y-49771744D01*
X36159815Y-49838783D01*
X36107011Y-49884538D01*
X36037853Y-49894482D01*
X35982615Y-49872063D01*
X35936787Y-49838767D01*
X35782447Y-49760128D01*
X35782446Y-49760127D01*
X35782445Y-49760127D01*
X35617701Y-49706598D01*
X35617699Y-49706597D01*
X35617698Y-49706597D01*
X35486271Y-49685781D01*
X35446611Y-49679500D01*
X35273389Y-49679500D01*
X35233728Y-49685781D01*
X35102302Y-49706597D01*
X35099200Y-49707605D01*
X34950097Y-49756052D01*
X34937552Y-49760128D01*
X34783211Y-49838768D01*
X34705070Y-49895542D01*
X34643072Y-49940586D01*
X34643070Y-49940588D01*
X34643069Y-49940588D01*
X34520588Y-50063069D01*
X34520588Y-50063070D01*
X34520586Y-50063072D01*
X34513725Y-50072516D01*
X34418768Y-50203211D01*
X34359485Y-50319562D01*
X34311511Y-50370358D01*
X34243690Y-50387153D01*
X34177555Y-50364616D01*
X34134103Y-50309901D01*
X34125000Y-50263267D01*
X34125000Y-50140214D01*
X34122106Y-50086237D01*
X34122106Y-50086235D01*
X34086558Y-49946960D01*
X34063136Y-49890415D01*
X34063135Y-49890415D01*
X33302962Y-50650589D01*
X33285925Y-50587007D01*
X33220099Y-50472993D01*
X33127007Y-50379901D01*
X33012993Y-50314075D01*
X32949410Y-50297037D01*
X33709583Y-49536863D01*
X33709583Y-49536862D01*
X33653052Y-49513447D01*
X33653035Y-49513440D01*
X33602053Y-49495455D01*
X33459780Y-49475000D01*
X32180214Y-49475000D01*
X32126237Y-49477893D01*
X32126235Y-49477893D01*
X31986969Y-49513438D01*
X31986956Y-49513442D01*
X31930415Y-49536862D01*
X32690590Y-50297037D01*
X32627007Y-50314075D01*
X32512993Y-50379901D01*
X32419901Y-50472993D01*
X32354075Y-50587007D01*
X32337037Y-50650590D01*
X31576862Y-49890415D01*
X31553449Y-49946940D01*
X31535455Y-49997946D01*
X31515000Y-50140219D01*
X31515000Y-50263267D01*
X31495315Y-50330306D01*
X31442511Y-50376061D01*
X31373353Y-50386005D01*
X31309797Y-50356980D01*
X31280515Y-50319562D01*
X31221231Y-50203211D01*
X31197548Y-50170614D01*
X31119414Y-50063072D01*
X30996928Y-49940586D01*
X30856788Y-49838768D01*
X30824766Y-49822452D01*
X30702447Y-49760128D01*
X30702446Y-49760127D01*
X30702445Y-49760127D01*
X30537701Y-49706598D01*
X30537699Y-49706597D01*
X30537698Y-49706597D01*
X30496990Y-49700150D01*
X30489541Y-49698970D01*
X30366611Y-49679500D01*
X30193389Y-49679500D01*
X30153728Y-49685781D01*
X30022302Y-49706597D01*
X30019200Y-49707605D01*
X29870097Y-49756052D01*
X29857552Y-49760128D01*
X29703211Y-49838768D01*
X29625070Y-49895542D01*
X29563072Y-49940586D01*
X29563070Y-49940588D01*
X29563069Y-49940588D01*
X29440588Y-50063069D01*
X29440588Y-50063070D01*
X29440586Y-50063072D01*
X29433725Y-50072516D01*
X29338768Y-50203211D01*
X29260128Y-50357552D01*
X29206597Y-50522302D01*
X29196349Y-50587007D01*
X29179500Y-50693389D01*
X29179500Y-50866611D01*
X29206598Y-51037701D01*
X29260127Y-51202445D01*
X29338768Y-51356788D01*
X29440586Y-51496928D01*
X29563072Y-51619414D01*
X29703212Y-51721232D01*
X29857555Y-51799873D01*
X30022299Y-51853402D01*
X30193389Y-51880500D01*
X30193390Y-51880500D01*
X30366610Y-51880500D01*
X30366611Y-51880500D01*
X30537701Y-51853402D01*
X30702445Y-51799873D01*
X30856788Y-51721232D01*
X30996928Y-51619414D01*
X31119414Y-51496928D01*
X31221232Y-51356788D01*
X31299873Y-51202445D01*
X31324264Y-51127375D01*
X31363700Y-51069703D01*
X31428058Y-51042504D01*
X31496905Y-51054418D01*
X31548381Y-51101662D01*
X31560855Y-51129700D01*
X31584187Y-51206614D01*
X31644490Y-51352198D01*
X31691158Y-51439506D01*
X31737533Y-51508912D01*
X31737534Y-51508913D01*
X32337037Y-50909409D01*
X32354075Y-50972993D01*
X32419901Y-51087007D01*
X32512993Y-51180099D01*
X32627007Y-51245925D01*
X32690590Y-51262962D01*
X32091085Y-51862465D01*
X32160493Y-51908841D01*
X32247801Y-51955509D01*
X32393387Y-52015814D01*
X32488135Y-52044555D01*
X32642699Y-52075298D01*
X32741210Y-52085000D01*
X32898790Y-52085000D01*
X32997299Y-52075298D01*
X32997302Y-52075298D01*
X33151864Y-52044555D01*
X33246612Y-52015814D01*
X33392198Y-51955509D01*
X33479501Y-51908844D01*
X33479511Y-51908838D01*
X33548912Y-51862465D01*
X32949409Y-51262962D01*
X33012993Y-51245925D01*
X33127007Y-51180099D01*
X33220099Y-51087007D01*
X33285925Y-50972993D01*
X33302962Y-50909409D01*
X33902465Y-51508912D01*
X33948838Y-51439511D01*
X33948844Y-51439501D01*
X33995509Y-51352198D01*
X34055815Y-51206609D01*
X34079144Y-51129702D01*
X34117441Y-51071263D01*
X34181253Y-51042806D01*
X34250320Y-51053365D01*
X34302714Y-51099589D01*
X34315735Y-51127375D01*
X34327239Y-51162782D01*
X34340128Y-51202449D01*
X34416429Y-51352198D01*
X34418768Y-51356788D01*
X34520586Y-51496928D01*
X34643072Y-51619414D01*
X34783212Y-51721232D01*
X34937555Y-51799873D01*
X35102299Y-51853402D01*
X35273389Y-51880500D01*
X35273390Y-51880500D01*
X35446610Y-51880500D01*
X35446611Y-51880500D01*
X35617701Y-51853402D01*
X35782445Y-51799873D01*
X35936788Y-51721232D01*
X35982614Y-51687936D01*
X36048420Y-51664457D01*
X36116474Y-51680282D01*
X36165169Y-51730388D01*
X36179500Y-51788255D01*
X36179500Y-58989308D01*
X36203712Y-59079672D01*
X36210200Y-59103885D01*
X36210200Y-59103886D01*
X36210201Y-59103887D01*
X36269511Y-59206614D01*
X36269513Y-59206616D01*
X40406798Y-63343901D01*
X40440283Y-63405224D01*
X40435299Y-63474916D01*
X40393427Y-63530849D01*
X40327963Y-63555266D01*
X40299720Y-63554055D01*
X40274117Y-63550000D01*
X40045884Y-63550000D01*
X39820455Y-63585704D01*
X39603395Y-63656230D01*
X39400035Y-63759848D01*
X39400033Y-63759849D01*
X39326689Y-63813135D01*
X39326689Y-63813136D01*
X39989766Y-64476212D01*
X39947708Y-64487482D01*
X39822292Y-64559890D01*
X39719890Y-64662292D01*
X39647482Y-64787708D01*
X39636212Y-64829765D01*
X38973136Y-64166689D01*
X38973135Y-64166689D01*
X38919849Y-64240033D01*
X38919845Y-64240040D01*
X38885454Y-64307536D01*
X38837480Y-64358331D01*
X38769659Y-64375126D01*
X38703524Y-64352588D01*
X38674652Y-64324126D01*
X38573828Y-64185354D01*
X38434646Y-64046172D01*
X38275405Y-63930476D01*
X38214611Y-63899500D01*
X38100029Y-63841117D01*
X37912826Y-63780290D01*
X37718422Y-63749500D01*
X37718417Y-63749500D01*
X37521583Y-63749500D01*
X37521578Y-63749500D01*
X37327173Y-63780290D01*
X37139970Y-63841117D01*
X36964594Y-63930476D01*
X36896255Y-63980128D01*
X36805354Y-64046172D01*
X36805352Y-64046174D01*
X36805351Y-64046174D01*
X36666174Y-64185351D01*
X36666174Y-64185352D01*
X36666172Y-64185354D01*
X36666168Y-64185360D01*
X36550476Y-64344594D01*
X36460485Y-64521213D01*
X36412511Y-64572009D01*
X36344690Y-64588804D01*
X36278555Y-64566267D01*
X36239515Y-64521213D01*
X36189581Y-64423212D01*
X36149524Y-64344595D01*
X36033828Y-64185354D01*
X35894646Y-64046172D01*
X35735405Y-63930476D01*
X35674611Y-63899500D01*
X35560029Y-63841117D01*
X35372826Y-63780290D01*
X35178422Y-63749500D01*
X35178417Y-63749500D01*
X34981583Y-63749500D01*
X34981578Y-63749500D01*
X34787173Y-63780290D01*
X34599970Y-63841117D01*
X34424594Y-63930476D01*
X34356255Y-63980128D01*
X34265354Y-64046172D01*
X34265352Y-64046174D01*
X34265351Y-64046174D01*
X34126174Y-64185351D01*
X34126174Y-64185352D01*
X34126172Y-64185354D01*
X34126168Y-64185360D01*
X34010476Y-64344594D01*
X33920485Y-64521213D01*
X33872511Y-64572009D01*
X33804690Y-64588804D01*
X33738555Y-64566267D01*
X33699515Y-64521213D01*
X33649581Y-64423212D01*
X33609524Y-64344595D01*
X33493828Y-64185354D01*
X33354646Y-64046172D01*
X33195405Y-63930476D01*
X33134611Y-63899500D01*
X33020029Y-63841117D01*
X32832826Y-63780290D01*
X32638422Y-63749500D01*
X32638417Y-63749500D01*
X32441583Y-63749500D01*
X32441578Y-63749500D01*
X32247173Y-63780290D01*
X32059970Y-63841117D01*
X31884594Y-63930476D01*
X31816255Y-63980128D01*
X31725354Y-64046172D01*
X31725352Y-64046174D01*
X31725351Y-64046174D01*
X31586173Y-64185352D01*
X31474817Y-64338620D01*
X31419486Y-64381285D01*
X31349873Y-64387264D01*
X31288078Y-64354658D01*
X31253721Y-64293819D01*
X31250499Y-64265734D01*
X31250499Y-64005143D01*
X31250499Y-64005136D01*
X31247599Y-63980127D01*
X31247586Y-63980012D01*
X31247585Y-63980010D01*
X31247585Y-63980009D01*
X31202206Y-63877235D01*
X31122765Y-63797794D01*
X31122380Y-63797624D01*
X31019992Y-63752415D01*
X30994865Y-63749500D01*
X29005143Y-63749500D01*
X29005117Y-63749502D01*
X28980012Y-63752413D01*
X28980008Y-63752415D01*
X28877235Y-63797793D01*
X28797794Y-63877234D01*
X28752415Y-63980006D01*
X28752415Y-63980008D01*
X28749500Y-64005131D01*
X28749500Y-65994856D01*
X28749502Y-65994882D01*
X28752413Y-66019987D01*
X28752415Y-66019991D01*
X28797793Y-66122764D01*
X28797794Y-66122765D01*
X28877235Y-66202206D01*
X28980009Y-66247585D01*
X29005135Y-66250500D01*
X30994864Y-66250499D01*
X30994879Y-66250497D01*
X30994882Y-66250497D01*
X31019987Y-66247586D01*
X31019988Y-66247585D01*
X31019991Y-66247585D01*
X31122765Y-66202206D01*
X31202206Y-66122765D01*
X31247585Y-66019991D01*
X31250500Y-65994865D01*
X31250499Y-65734263D01*
X31270183Y-65667227D01*
X31322987Y-65621472D01*
X31392146Y-65611528D01*
X31455701Y-65640553D01*
X31474817Y-65661380D01*
X31586172Y-65814646D01*
X31725354Y-65953828D01*
X31884595Y-66069524D01*
X31945389Y-66100500D01*
X32059970Y-66158882D01*
X32059972Y-66158882D01*
X32059975Y-66158884D01*
X32146082Y-66186862D01*
X32247173Y-66219709D01*
X32441578Y-66250500D01*
X32441583Y-66250500D01*
X32638422Y-66250500D01*
X32832826Y-66219709D01*
X32886697Y-66202205D01*
X33020025Y-66158884D01*
X33195405Y-66069524D01*
X33354646Y-65953828D01*
X33493828Y-65814646D01*
X33609524Y-65655405D01*
X33698884Y-65480025D01*
X33699515Y-65478787D01*
X33747489Y-65427990D01*
X33815310Y-65411195D01*
X33881445Y-65433732D01*
X33920485Y-65478787D01*
X34010474Y-65655403D01*
X34037401Y-65692464D01*
X34126172Y-65814646D01*
X34265354Y-65953828D01*
X34377235Y-66035115D01*
X34424596Y-66069525D01*
X34561794Y-66139430D01*
X34612591Y-66187404D01*
X34629500Y-66249915D01*
X34629500Y-69979309D01*
X34645555Y-70039227D01*
X34660199Y-70093885D01*
X34676021Y-70121288D01*
X34719511Y-70196614D01*
X34719513Y-70196616D01*
X37987098Y-73464201D01*
X38020583Y-73525524D01*
X38015599Y-73595216D01*
X37973727Y-73651149D01*
X37908263Y-73675566D01*
X37880019Y-73674355D01*
X37726246Y-73650000D01*
X37513754Y-73650000D01*
X37303872Y-73683242D01*
X37303869Y-73683242D01*
X37101782Y-73748904D01*
X36912439Y-73845380D01*
X36858282Y-73884727D01*
X36858282Y-73884728D01*
X37490591Y-74517037D01*
X37427007Y-74534075D01*
X37312993Y-74599901D01*
X37219901Y-74692993D01*
X37154075Y-74807007D01*
X37137037Y-74870591D01*
X36504728Y-74238282D01*
X36504727Y-74238282D01*
X36465380Y-74292439D01*
X36368905Y-74481781D01*
X36359506Y-74510708D01*
X36320068Y-74568383D01*
X36255709Y-74595581D01*
X36186862Y-74583666D01*
X36135387Y-74536421D01*
X36131090Y-74528684D01*
X36107191Y-74481781D01*
X36063996Y-74397006D01*
X36050396Y-74378287D01*
X35957558Y-74250505D01*
X35957554Y-74250500D01*
X35829499Y-74122445D01*
X35829494Y-74122441D01*
X35682997Y-74016006D01*
X35682996Y-74016005D01*
X35682994Y-74016004D01*
X35606906Y-73977235D01*
X35521639Y-73933788D01*
X35521636Y-73933787D01*
X35349410Y-73877829D01*
X35170551Y-73849500D01*
X35170546Y-73849500D01*
X34989454Y-73849500D01*
X34989449Y-73849500D01*
X34810589Y-73877829D01*
X34638363Y-73933787D01*
X34638360Y-73933788D01*
X34477002Y-74016006D01*
X34330505Y-74122441D01*
X34330500Y-74122445D01*
X34202445Y-74250500D01*
X34202441Y-74250505D01*
X34096006Y-74397002D01*
X34013788Y-74558360D01*
X34013787Y-74558363D01*
X33957829Y-74730589D01*
X33932473Y-74890678D01*
X33902544Y-74953813D01*
X33843232Y-74990744D01*
X33773369Y-74989746D01*
X33715137Y-74951136D01*
X33687527Y-74890678D01*
X33666829Y-74760000D01*
X33662171Y-74730591D01*
X33621605Y-74605739D01*
X33606212Y-74558363D01*
X33606211Y-74558360D01*
X33567191Y-74481781D01*
X33523996Y-74397006D01*
X33510396Y-74378287D01*
X33417558Y-74250505D01*
X33417554Y-74250500D01*
X33289499Y-74122445D01*
X33289494Y-74122441D01*
X33142997Y-74016006D01*
X33142996Y-74016005D01*
X33142994Y-74016004D01*
X33066906Y-73977235D01*
X32981639Y-73933788D01*
X32981636Y-73933787D01*
X32809410Y-73877829D01*
X32630551Y-73849500D01*
X32630546Y-73849500D01*
X32449454Y-73849500D01*
X32449449Y-73849500D01*
X32270592Y-73877828D01*
X32180084Y-73907235D01*
X32110243Y-73909229D01*
X32054087Y-73876984D01*
X26549419Y-68372316D01*
X26515934Y-68310993D01*
X26513100Y-68284635D01*
X26513100Y-60913389D01*
X34739500Y-60913389D01*
X34739500Y-61086610D01*
X34760140Y-61216930D01*
X34766598Y-61257701D01*
X34820127Y-61422445D01*
X34898768Y-61576788D01*
X35000586Y-61716928D01*
X35123072Y-61839414D01*
X35263212Y-61941232D01*
X35417555Y-62019873D01*
X35582299Y-62073402D01*
X35753389Y-62100500D01*
X35753390Y-62100500D01*
X35926610Y-62100500D01*
X35926611Y-62100500D01*
X36097701Y-62073402D01*
X36262445Y-62019873D01*
X36416788Y-61941232D01*
X36556928Y-61839414D01*
X36679414Y-61716928D01*
X36781232Y-61576788D01*
X36859873Y-61422445D01*
X36913402Y-61257701D01*
X36940500Y-61086611D01*
X36940500Y-60913389D01*
X36913402Y-60742299D01*
X36859873Y-60577555D01*
X36781232Y-60423212D01*
X36679414Y-60283072D01*
X36556928Y-60160586D01*
X36416788Y-60058768D01*
X36262445Y-59980127D01*
X36097701Y-59926598D01*
X36097699Y-59926597D01*
X36097698Y-59926597D01*
X35966271Y-59905781D01*
X35926611Y-59899500D01*
X35753389Y-59899500D01*
X35713728Y-59905781D01*
X35582302Y-59926597D01*
X35417552Y-59980128D01*
X35263211Y-60058768D01*
X35183256Y-60116859D01*
X35123072Y-60160586D01*
X35123070Y-60160588D01*
X35123069Y-60160588D01*
X35000588Y-60283069D01*
X35000588Y-60283070D01*
X35000586Y-60283072D01*
X34972265Y-60322052D01*
X34898768Y-60423211D01*
X34820128Y-60577552D01*
X34766597Y-60742302D01*
X34739500Y-60913389D01*
X26513100Y-60913389D01*
X26513100Y-51750292D01*
X26532785Y-51683253D01*
X26585589Y-51637498D01*
X26654747Y-51627554D01*
X26718303Y-51656579D01*
X26736364Y-51675977D01*
X26782454Y-51737546D01*
X26806156Y-51755289D01*
X26897664Y-51823793D01*
X26897671Y-51823797D01*
X27032517Y-51874091D01*
X27032516Y-51874091D01*
X27039444Y-51874835D01*
X27092127Y-51880500D01*
X28387872Y-51880499D01*
X28447483Y-51874091D01*
X28582331Y-51823796D01*
X28697546Y-51737546D01*
X28783796Y-51622331D01*
X28834091Y-51487483D01*
X28840500Y-51427873D01*
X28840499Y-50132128D01*
X28834091Y-50072517D01*
X28830568Y-50063072D01*
X28783797Y-49937671D01*
X28783793Y-49937664D01*
X28697547Y-49822455D01*
X28697544Y-49822452D01*
X28582335Y-49736206D01*
X28582328Y-49736202D01*
X28447482Y-49685908D01*
X28447483Y-49685908D01*
X28387883Y-49679501D01*
X28387881Y-49679500D01*
X28387873Y-49679500D01*
X28387864Y-49679500D01*
X27092129Y-49679500D01*
X27092123Y-49679501D01*
X27032516Y-49685908D01*
X26897671Y-49736202D01*
X26897664Y-49736206D01*
X26782455Y-49822452D01*
X26736366Y-49884019D01*
X26680432Y-49925889D01*
X26610740Y-49930873D01*
X26549418Y-49897387D01*
X26515933Y-49836063D01*
X26513100Y-49809707D01*
X26513100Y-33532629D01*
X26532785Y-33465590D01*
X26585589Y-33419835D01*
X26654747Y-33409891D01*
X26718303Y-33438916D01*
G37*
%TD.AperFunction*%
%TA.AperFunction,Conductor*%
G36*
X55305703Y-56571952D02*
G01*
X55312167Y-56577971D01*
X57477594Y-58743397D01*
X59799381Y-61065184D01*
X59832866Y-61126507D01*
X59835700Y-61152865D01*
X59835700Y-73891461D01*
X59816015Y-73958500D01*
X59763211Y-74004255D01*
X59694053Y-74014199D01*
X59655405Y-74001946D01*
X59521639Y-73933789D01*
X59521636Y-73933787D01*
X59349410Y-73877829D01*
X59170551Y-73849500D01*
X59170546Y-73849500D01*
X58989454Y-73849500D01*
X58989449Y-73849500D01*
X58810592Y-73877828D01*
X58720084Y-73907235D01*
X58650243Y-73909229D01*
X58594087Y-73876984D01*
X53236419Y-68519316D01*
X53202934Y-68457993D01*
X53200100Y-68431635D01*
X53200100Y-61897682D01*
X56700000Y-61897682D01*
X56700000Y-62102317D01*
X56732009Y-62304417D01*
X56795244Y-62499031D01*
X56888141Y-62681350D01*
X56888147Y-62681359D01*
X56920523Y-62725921D01*
X56920524Y-62725922D01*
X57600000Y-62046446D01*
X57600000Y-62052661D01*
X57627259Y-62154394D01*
X57679920Y-62245606D01*
X57754394Y-62320080D01*
X57845606Y-62372741D01*
X57947339Y-62400000D01*
X57953553Y-62400000D01*
X57274076Y-63079474D01*
X57318650Y-63111859D01*
X57500968Y-63204755D01*
X57695582Y-63267990D01*
X57897683Y-63300000D01*
X58102317Y-63300000D01*
X58304417Y-63267990D01*
X58499031Y-63204755D01*
X58681349Y-63111859D01*
X58725921Y-63079474D01*
X58046447Y-62400000D01*
X58052661Y-62400000D01*
X58154394Y-62372741D01*
X58245606Y-62320080D01*
X58320080Y-62245606D01*
X58372741Y-62154394D01*
X58400000Y-62052661D01*
X58400000Y-62046447D01*
X59079474Y-62725921D01*
X59111859Y-62681349D01*
X59204755Y-62499031D01*
X59267990Y-62304417D01*
X59300000Y-62102317D01*
X59300000Y-61897682D01*
X59267990Y-61695582D01*
X59204755Y-61500968D01*
X59111859Y-61318650D01*
X59079474Y-61274077D01*
X59079474Y-61274076D01*
X58400000Y-61953551D01*
X58400000Y-61947339D01*
X58372741Y-61845606D01*
X58320080Y-61754394D01*
X58245606Y-61679920D01*
X58154394Y-61627259D01*
X58052661Y-61600000D01*
X58046446Y-61600000D01*
X58725922Y-60920524D01*
X58725921Y-60920523D01*
X58681359Y-60888147D01*
X58681350Y-60888141D01*
X58499031Y-60795244D01*
X58304417Y-60732009D01*
X58102317Y-60700000D01*
X57897683Y-60700000D01*
X57695582Y-60732009D01*
X57500968Y-60795244D01*
X57318644Y-60888143D01*
X57274077Y-60920523D01*
X57274077Y-60920524D01*
X57953554Y-61600000D01*
X57947339Y-61600000D01*
X57845606Y-61627259D01*
X57754394Y-61679920D01*
X57679920Y-61754394D01*
X57627259Y-61845606D01*
X57600000Y-61947339D01*
X57600000Y-61953553D01*
X56920524Y-61274077D01*
X56920523Y-61274077D01*
X56888143Y-61318644D01*
X56795244Y-61500968D01*
X56732009Y-61695582D01*
X56700000Y-61897682D01*
X53200100Y-61897682D01*
X53200100Y-58215448D01*
X53219785Y-58148409D01*
X53272589Y-58102654D01*
X53338882Y-58092332D01*
X53406898Y-58100500D01*
X53406904Y-58100500D01*
X54593097Y-58100500D01*
X54593102Y-58100500D01*
X54681564Y-58089877D01*
X54822342Y-58034361D01*
X54942922Y-57942922D01*
X55034361Y-57822342D01*
X55089877Y-57681564D01*
X55100500Y-57593102D01*
X55100500Y-56665665D01*
X55120185Y-56598626D01*
X55172989Y-56552871D01*
X55242147Y-56542927D01*
X55305703Y-56571952D01*
G37*
%TD.AperFunction*%
%TA.AperFunction,Conductor*%
G36*
X54841864Y-33734052D02*
G01*
X54886211Y-33762553D01*
X54963072Y-33839414D01*
X55103212Y-33941232D01*
X55257555Y-34019873D01*
X55422299Y-34073402D01*
X55593389Y-34100500D01*
X55593390Y-34100500D01*
X55766610Y-34100500D01*
X55766611Y-34100500D01*
X55937701Y-34073402D01*
X56000231Y-34053083D01*
X56070070Y-34051087D01*
X56126230Y-34083333D01*
X61543181Y-39500284D01*
X61576666Y-39561607D01*
X61579500Y-39587965D01*
X61579500Y-49771744D01*
X61559815Y-49838783D01*
X61507011Y-49884538D01*
X61437853Y-49894482D01*
X61382615Y-49872063D01*
X61336787Y-49838767D01*
X61182447Y-49760128D01*
X61182446Y-49760127D01*
X61182445Y-49760127D01*
X61017701Y-49706598D01*
X61017699Y-49706597D01*
X61017698Y-49706597D01*
X60886271Y-49685781D01*
X60846611Y-49679500D01*
X60673389Y-49679500D01*
X60633728Y-49685781D01*
X60502302Y-49706597D01*
X60499200Y-49707605D01*
X60350097Y-49756052D01*
X60337552Y-49760128D01*
X60183211Y-49838768D01*
X60105070Y-49895542D01*
X60043072Y-49940586D01*
X60043070Y-49940588D01*
X60043069Y-49940588D01*
X59920588Y-50063069D01*
X59920588Y-50063070D01*
X59920586Y-50063072D01*
X59913725Y-50072516D01*
X59818768Y-50203211D01*
X59759485Y-50319562D01*
X59711511Y-50370358D01*
X59643690Y-50387153D01*
X59577555Y-50364616D01*
X59534103Y-50309901D01*
X59525000Y-50263267D01*
X59525000Y-50140214D01*
X59522106Y-50086237D01*
X59522106Y-50086235D01*
X59486558Y-49946960D01*
X59463136Y-49890415D01*
X59463135Y-49890415D01*
X58702962Y-50650589D01*
X58685925Y-50587007D01*
X58620099Y-50472993D01*
X58527007Y-50379901D01*
X58412993Y-50314075D01*
X58349410Y-50297037D01*
X59109583Y-49536863D01*
X59109583Y-49536862D01*
X59053052Y-49513447D01*
X59053035Y-49513440D01*
X59002053Y-49495455D01*
X58859780Y-49475000D01*
X57580214Y-49475000D01*
X57526237Y-49477893D01*
X57526235Y-49477893D01*
X57386969Y-49513438D01*
X57386956Y-49513442D01*
X57330415Y-49536862D01*
X58090590Y-50297037D01*
X58027007Y-50314075D01*
X57912993Y-50379901D01*
X57819901Y-50472993D01*
X57754075Y-50587007D01*
X57737037Y-50650590D01*
X56976862Y-49890415D01*
X56953449Y-49946940D01*
X56935455Y-49997946D01*
X56915000Y-50140219D01*
X56915000Y-50263267D01*
X56895315Y-50330306D01*
X56842511Y-50376061D01*
X56773353Y-50386005D01*
X56709797Y-50356980D01*
X56680515Y-50319562D01*
X56621231Y-50203211D01*
X56597548Y-50170614D01*
X56519414Y-50063072D01*
X56396928Y-49940586D01*
X56256788Y-49838768D01*
X56224766Y-49822452D01*
X56102447Y-49760128D01*
X56102446Y-49760127D01*
X56102445Y-49760127D01*
X55937701Y-49706598D01*
X55937699Y-49706597D01*
X55937698Y-49706597D01*
X55896990Y-49700150D01*
X55889541Y-49698970D01*
X55766611Y-49679500D01*
X55593389Y-49679500D01*
X55553728Y-49685781D01*
X55422302Y-49706597D01*
X55419200Y-49707605D01*
X55270097Y-49756052D01*
X55257552Y-49760128D01*
X55103212Y-49838767D01*
X55057385Y-49872063D01*
X54991578Y-49895542D01*
X54923524Y-49879716D01*
X54874830Y-49829610D01*
X54860500Y-49771744D01*
X54860500Y-36780358D01*
X54860501Y-36750704D01*
X54860500Y-36750700D01*
X54860500Y-36750691D01*
X54842639Y-36684035D01*
X54831341Y-36641866D01*
X54830274Y-36636937D01*
X54827824Y-36632694D01*
X54827823Y-36632692D01*
X54802278Y-36588446D01*
X54802277Y-36588444D01*
X54772334Y-36536579D01*
X54770994Y-36534090D01*
X54770504Y-36533410D01*
X54770497Y-36533397D01*
X54770491Y-36533391D01*
X54770489Y-36533387D01*
X54736676Y-36499574D01*
X54736674Y-36499571D01*
X54736674Y-36499572D01*
X53442967Y-35205788D01*
X53409485Y-35144466D01*
X53414472Y-35074774D01*
X53442969Y-35030432D01*
X54710851Y-33762551D01*
X54772172Y-33729068D01*
X54841864Y-33734052D01*
G37*
%TD.AperFunction*%
%TA.AperFunction,Conductor*%
G36*
X30748475Y-20520185D02*
G01*
X30794230Y-20572989D01*
X30804174Y-20642147D01*
X30775149Y-20705703D01*
X30737731Y-20734984D01*
X30725052Y-20741445D01*
X30689771Y-20759421D01*
X30505061Y-20893622D01*
X30343622Y-21055061D01*
X30209421Y-21239771D01*
X30105770Y-21443196D01*
X30035215Y-21660339D01*
X29999500Y-21885837D01*
X29999500Y-22114162D01*
X30035215Y-22339660D01*
X30105770Y-22556803D01*
X30144787Y-22633377D01*
X30209421Y-22760228D01*
X30343621Y-22944937D01*
X30505063Y-23106379D01*
X30689772Y-23240579D01*
X30785884Y-23289550D01*
X30893196Y-23344229D01*
X30893198Y-23344229D01*
X30893201Y-23344231D01*
X31009592Y-23382049D01*
X31110339Y-23414784D01*
X31335838Y-23450500D01*
X31335843Y-23450500D01*
X31426206Y-23450500D01*
X31493245Y-23470185D01*
X31539000Y-23522989D01*
X31549144Y-23558309D01*
X31549498Y-23561003D01*
X31573712Y-23651372D01*
X31580200Y-23675585D01*
X31580200Y-23675586D01*
X31580201Y-23675587D01*
X31639511Y-23778314D01*
X35221686Y-27360489D01*
X35246448Y-27374785D01*
X35246447Y-27374785D01*
X35246450Y-27374786D01*
X35324408Y-27419796D01*
X35324409Y-27419797D01*
X35324411Y-27419797D01*
X35324414Y-27419799D01*
X35438991Y-27450500D01*
X35438998Y-27450500D01*
X35441679Y-27450853D01*
X35443781Y-27451782D01*
X35446842Y-27452603D01*
X35446714Y-27453080D01*
X35505577Y-27479117D01*
X35544051Y-27537439D01*
X35549500Y-27573793D01*
X35549500Y-27664162D01*
X35585215Y-27889660D01*
X35655770Y-28106803D01*
X35713852Y-28220794D01*
X35759421Y-28310228D01*
X35893621Y-28494937D01*
X36055063Y-28656379D01*
X36239772Y-28790579D01*
X36335884Y-28839550D01*
X36443196Y-28894229D01*
X36443198Y-28894229D01*
X36443201Y-28894231D01*
X36501440Y-28913154D01*
X36660339Y-28964784D01*
X36885838Y-29000500D01*
X36885843Y-29000500D01*
X37114162Y-29000500D01*
X37339660Y-28964784D01*
X37358729Y-28958588D01*
X37556799Y-28894231D01*
X37563598Y-28890767D01*
X37564268Y-28890425D01*
X37760228Y-28790579D01*
X37944937Y-28656379D01*
X38106379Y-28494937D01*
X38240579Y-28310228D01*
X38344231Y-28106799D01*
X38414784Y-27889660D01*
X38422832Y-27838845D01*
X38450500Y-27664162D01*
X38450500Y-26335837D01*
X38414784Y-26110339D01*
X38361098Y-25945112D01*
X38344231Y-25893201D01*
X38344229Y-25893198D01*
X38344229Y-25893196D01*
X38267343Y-25742299D01*
X38240579Y-25689772D01*
X38106379Y-25505063D01*
X37944937Y-25343621D01*
X37760228Y-25209421D01*
X37724948Y-25191445D01*
X37556803Y-25105770D01*
X37339660Y-25035215D01*
X37114162Y-24999500D01*
X37114157Y-24999500D01*
X36885843Y-24999500D01*
X36885838Y-24999500D01*
X36660339Y-25035215D01*
X36443196Y-25105770D01*
X36239771Y-25209421D01*
X36055061Y-25343622D01*
X35893622Y-25505061D01*
X35759421Y-25689771D01*
X35655770Y-25893196D01*
X35585216Y-26110338D01*
X35576870Y-26163031D01*
X35546940Y-26226166D01*
X35487628Y-26263096D01*
X35417766Y-26262098D01*
X35366716Y-26231313D01*
X32768686Y-23633283D01*
X32735201Y-23571960D01*
X32740185Y-23502268D01*
X32782057Y-23446335D01*
X32836965Y-23423129D01*
X32889660Y-23414784D01*
X33106799Y-23344231D01*
X33310228Y-23240579D01*
X33494937Y-23106379D01*
X33656379Y-22944937D01*
X33790579Y-22760228D01*
X33894231Y-22556799D01*
X33964784Y-22339660D01*
X33978985Y-22250000D01*
X34000500Y-22114162D01*
X34000500Y-21885837D01*
X33964784Y-21660339D01*
X33894229Y-21443196D01*
X33790578Y-21239771D01*
X33714608Y-21135208D01*
X33656379Y-21055063D01*
X33494937Y-20893621D01*
X33310228Y-20759421D01*
X33262268Y-20734984D01*
X33211473Y-20687011D01*
X33194678Y-20619190D01*
X33217215Y-20553055D01*
X33271930Y-20509603D01*
X33318564Y-20500500D01*
X46681436Y-20500500D01*
X46748475Y-20520185D01*
X46794230Y-20572989D01*
X46804174Y-20642147D01*
X46775149Y-20705703D01*
X46737731Y-20734984D01*
X46725052Y-20741445D01*
X46689771Y-20759421D01*
X46505061Y-20893622D01*
X46343622Y-21055061D01*
X46209421Y-21239771D01*
X46105770Y-21443196D01*
X46035215Y-21660339D01*
X45999500Y-21885837D01*
X45999500Y-22114162D01*
X46035215Y-22339660D01*
X46105770Y-22556803D01*
X46144787Y-22633377D01*
X46209421Y-22760228D01*
X46343621Y-22944937D01*
X46505063Y-23106379D01*
X46607991Y-23181161D01*
X46689773Y-23240580D01*
X46725042Y-23258550D01*
X46791189Y-23292253D01*
X46841985Y-23340227D01*
X46858781Y-23408048D01*
X46836244Y-23474183D01*
X46822576Y-23490419D01*
X44490419Y-25822576D01*
X44429096Y-25856061D01*
X44359404Y-25851077D01*
X44303471Y-25809205D01*
X44292253Y-25791189D01*
X44240580Y-25689773D01*
X44171712Y-25594986D01*
X44106379Y-25505063D01*
X43944937Y-25343621D01*
X43760228Y-25209421D01*
X43724948Y-25191445D01*
X43556803Y-25105770D01*
X43339660Y-25035215D01*
X43114162Y-24999500D01*
X43114157Y-24999500D01*
X42885843Y-24999500D01*
X42885838Y-24999500D01*
X42660339Y-25035215D01*
X42443196Y-25105770D01*
X42239771Y-25209421D01*
X42055061Y-25343622D01*
X41893622Y-25505061D01*
X41759421Y-25689771D01*
X41655770Y-25893196D01*
X41585215Y-26110339D01*
X41549500Y-26335837D01*
X41549500Y-27664162D01*
X41585215Y-27889660D01*
X41655770Y-28106803D01*
X41713852Y-28220794D01*
X41759421Y-28310228D01*
X41893621Y-28494937D01*
X42055063Y-28656379D01*
X42239772Y-28790579D01*
X42335884Y-28839550D01*
X42443196Y-28894229D01*
X42443198Y-28894229D01*
X42443201Y-28894231D01*
X42501440Y-28913154D01*
X42660339Y-28964784D01*
X42885838Y-29000500D01*
X42885843Y-29000500D01*
X43114162Y-29000500D01*
X43339660Y-28964784D01*
X43358729Y-28958588D01*
X43556799Y-28894231D01*
X43563598Y-28890767D01*
X43564268Y-28890425D01*
X43760228Y-28790579D01*
X43944937Y-28656379D01*
X44106379Y-28494937D01*
X44240579Y-28310228D01*
X44344231Y-28106799D01*
X44414784Y-27889660D01*
X44422832Y-27838845D01*
X44450500Y-27664162D01*
X44450500Y-27573793D01*
X44470185Y-27506754D01*
X44522989Y-27460999D01*
X44558321Y-27450853D01*
X44561001Y-27450500D01*
X44561009Y-27450500D01*
X44675586Y-27419799D01*
X44778313Y-27360489D01*
X44862189Y-27276613D01*
X44921499Y-27173886D01*
X44952200Y-27059309D01*
X44952200Y-26874038D01*
X46399500Y-26874038D01*
X46399500Y-27125962D01*
X46419146Y-27250000D01*
X46438910Y-27374785D01*
X46438909Y-27374785D01*
X46516760Y-27614383D01*
X46631132Y-27838848D01*
X46779201Y-28042649D01*
X46779205Y-28042654D01*
X46957345Y-28220794D01*
X46957350Y-28220798D01*
X47080441Y-28310228D01*
X47161155Y-28368870D01*
X47304184Y-28441747D01*
X47385616Y-28483239D01*
X47385618Y-28483239D01*
X47385621Y-28483241D01*
X47625215Y-28561090D01*
X47874038Y-28600500D01*
X47874039Y-28600500D01*
X48125961Y-28600500D01*
X48125962Y-28600500D01*
X48374785Y-28561090D01*
X48614379Y-28483241D01*
X48838845Y-28368870D01*
X49042656Y-28220793D01*
X49220793Y-28042656D01*
X49368870Y-27838845D01*
X49483241Y-27614379D01*
X49561090Y-27374785D01*
X49600500Y-27125962D01*
X49600500Y-26874038D01*
X49561090Y-26625215D01*
X49483241Y-26385621D01*
X49483239Y-26385618D01*
X49483239Y-26385616D01*
X49419439Y-26260402D01*
X49368870Y-26161155D01*
X49314710Y-26086610D01*
X49220798Y-25957350D01*
X49220794Y-25957345D01*
X49042654Y-25779205D01*
X49042649Y-25779201D01*
X48838848Y-25631132D01*
X48838847Y-25631131D01*
X48838845Y-25631130D01*
X48738891Y-25580201D01*
X48614383Y-25516760D01*
X48374785Y-25438910D01*
X48275685Y-25423214D01*
X48125962Y-25399500D01*
X47874038Y-25399500D01*
X47749626Y-25419205D01*
X47625214Y-25438910D01*
X47385616Y-25516760D01*
X47161151Y-25631132D01*
X46957350Y-25779201D01*
X46957345Y-25779205D01*
X46779205Y-25957345D01*
X46779201Y-25957350D01*
X46631132Y-26161151D01*
X46516760Y-26385616D01*
X46438910Y-26625214D01*
X46429225Y-26686365D01*
X46399500Y-26874038D01*
X44952200Y-26874038D01*
X44952200Y-26686365D01*
X44971885Y-26619326D01*
X44988519Y-26598684D01*
X47636519Y-23950684D01*
X47697842Y-23917199D01*
X47767534Y-23922183D01*
X47811881Y-23950684D01*
X51221686Y-27360489D01*
X51246448Y-27374785D01*
X51246447Y-27374785D01*
X51246450Y-27374786D01*
X51324408Y-27419796D01*
X51324409Y-27419797D01*
X51324411Y-27419797D01*
X51324414Y-27419799D01*
X51438991Y-27450500D01*
X51438998Y-27450500D01*
X51441679Y-27450853D01*
X51443781Y-27451782D01*
X51446842Y-27452603D01*
X51446714Y-27453080D01*
X51505577Y-27479117D01*
X51544051Y-27537439D01*
X51549500Y-27573793D01*
X51549500Y-27664162D01*
X51585215Y-27889660D01*
X51655770Y-28106803D01*
X51713852Y-28220794D01*
X51759421Y-28310228D01*
X51893621Y-28494937D01*
X52055063Y-28656379D01*
X52239772Y-28790579D01*
X52335884Y-28839550D01*
X52443196Y-28894229D01*
X52443198Y-28894229D01*
X52443201Y-28894231D01*
X52501440Y-28913154D01*
X52660339Y-28964784D01*
X52885838Y-29000500D01*
X52885843Y-29000500D01*
X53114162Y-29000500D01*
X53339660Y-28964784D01*
X53358729Y-28958588D01*
X53556799Y-28894231D01*
X53563598Y-28890767D01*
X53564268Y-28890425D01*
X53760228Y-28790579D01*
X53944937Y-28656379D01*
X54106379Y-28494937D01*
X54240579Y-28310228D01*
X54344231Y-28106799D01*
X54414784Y-27889660D01*
X54422832Y-27838845D01*
X54450500Y-27664162D01*
X54450500Y-26335837D01*
X54414784Y-26110339D01*
X54361098Y-25945112D01*
X54344231Y-25893201D01*
X54344229Y-25893198D01*
X54344229Y-25893196D01*
X54267343Y-25742299D01*
X54240579Y-25689772D01*
X54106379Y-25505063D01*
X53944937Y-25343621D01*
X53760228Y-25209421D01*
X53724948Y-25191445D01*
X53556803Y-25105770D01*
X53339660Y-25035215D01*
X53114162Y-24999500D01*
X53114157Y-24999500D01*
X52885843Y-24999500D01*
X52885838Y-24999500D01*
X52660339Y-25035215D01*
X52443196Y-25105770D01*
X52239771Y-25209421D01*
X52055061Y-25343622D01*
X51893622Y-25505061D01*
X51759421Y-25689771D01*
X51655770Y-25893196D01*
X51585216Y-26110338D01*
X51576870Y-26163031D01*
X51546940Y-26226166D01*
X51487628Y-26263096D01*
X51417766Y-26262098D01*
X51366716Y-26231313D01*
X50014114Y-24878711D01*
X92149500Y-24878711D01*
X92149500Y-25121288D01*
X92181161Y-25361785D01*
X92243947Y-25596104D01*
X92309678Y-25754791D01*
X92336776Y-25820212D01*
X92458064Y-26030289D01*
X92458066Y-26030292D01*
X92458067Y-26030293D01*
X92605733Y-26222736D01*
X92605739Y-26222743D01*
X92777256Y-26394260D01*
X92777263Y-26394266D01*
X92844984Y-26446230D01*
X92969711Y-26541936D01*
X93179788Y-26663224D01*
X93403900Y-26756054D01*
X93638211Y-26818838D01*
X93794504Y-26839414D01*
X93878711Y-26850500D01*
X93878712Y-26850500D01*
X94121289Y-26850500D01*
X94169388Y-26844167D01*
X94361789Y-26818838D01*
X94596100Y-26756054D01*
X94820212Y-26663224D01*
X95030289Y-26541936D01*
X95222738Y-26394265D01*
X95296861Y-26320142D01*
X97350000Y-26320142D01*
X97350000Y-26750000D01*
X98350000Y-26750000D01*
X98350000Y-27250000D01*
X97350000Y-27250000D01*
X97350000Y-27679857D01*
X97390629Y-27936377D01*
X97470883Y-28183377D01*
X97588796Y-28414791D01*
X97741445Y-28624896D01*
X97741449Y-28624901D01*
X97925098Y-28808550D01*
X97925103Y-28808554D01*
X98135208Y-28961203D01*
X98366622Y-29079116D01*
X98613622Y-29159370D01*
X98750000Y-29180971D01*
X98750000Y-28150001D01*
X98810402Y-28175021D01*
X98935981Y-28200000D01*
X99064019Y-28200000D01*
X99189598Y-28175021D01*
X99250000Y-28150001D01*
X99250000Y-29180970D01*
X99386377Y-29159370D01*
X99633377Y-29079116D01*
X99864791Y-28961203D01*
X100074896Y-28808554D01*
X100074901Y-28808550D01*
X100258550Y-28624901D01*
X100258554Y-28624896D01*
X100411203Y-28414791D01*
X100529116Y-28183377D01*
X100609370Y-27936377D01*
X100650000Y-27679857D01*
X100650000Y-27250000D01*
X99650000Y-27250000D01*
X99650000Y-26874038D01*
X102399500Y-26874038D01*
X102399500Y-27125962D01*
X102419146Y-27250000D01*
X102438910Y-27374785D01*
X102438909Y-27374785D01*
X102516760Y-27614383D01*
X102631132Y-27838848D01*
X102779201Y-28042649D01*
X102779205Y-28042654D01*
X102957345Y-28220794D01*
X102957350Y-28220798D01*
X103080441Y-28310228D01*
X103161155Y-28368870D01*
X103304184Y-28441747D01*
X103385616Y-28483239D01*
X103385618Y-28483239D01*
X103385621Y-28483241D01*
X103625215Y-28561090D01*
X103874038Y-28600500D01*
X103874039Y-28600500D01*
X104125961Y-28600500D01*
X104125962Y-28600500D01*
X104374785Y-28561090D01*
X104614379Y-28483241D01*
X104838845Y-28368870D01*
X105042656Y-28220793D01*
X105220793Y-28042656D01*
X105368870Y-27838845D01*
X105483241Y-27614379D01*
X105561090Y-27374785D01*
X105600500Y-27125962D01*
X105600500Y-26874038D01*
X105561090Y-26625215D01*
X105483241Y-26385621D01*
X105483238Y-26385617D01*
X105483238Y-26385614D01*
X105476080Y-26371566D01*
X105476079Y-26371565D01*
X105449922Y-26320229D01*
X105449878Y-26320142D01*
X107350000Y-26320142D01*
X107350000Y-26750000D01*
X108350000Y-26750000D01*
X108350000Y-27250000D01*
X107350000Y-27250000D01*
X107350000Y-27679857D01*
X107390629Y-27936377D01*
X107470883Y-28183377D01*
X107588796Y-28414791D01*
X107741445Y-28624896D01*
X107741449Y-28624901D01*
X107925098Y-28808550D01*
X107925103Y-28808554D01*
X108135208Y-28961203D01*
X108366622Y-29079116D01*
X108613622Y-29159370D01*
X108750000Y-29180971D01*
X108750000Y-28150001D01*
X108810402Y-28175021D01*
X108935981Y-28200000D01*
X109064019Y-28200000D01*
X109189598Y-28175021D01*
X109250000Y-28150001D01*
X109250000Y-29180970D01*
X109386377Y-29159370D01*
X109633377Y-29079116D01*
X109864791Y-28961203D01*
X110074896Y-28808554D01*
X110074901Y-28808550D01*
X110258550Y-28624901D01*
X110258554Y-28624896D01*
X110411203Y-28414791D01*
X110529116Y-28183377D01*
X110609370Y-27936377D01*
X110650000Y-27679857D01*
X110650000Y-27250000D01*
X109650000Y-27250000D01*
X109650000Y-26750000D01*
X110650000Y-26750000D01*
X110650000Y-26320142D01*
X110609370Y-26063622D01*
X110529116Y-25816622D01*
X110411203Y-25585208D01*
X110258554Y-25375103D01*
X110258550Y-25375098D01*
X110074901Y-25191449D01*
X110074896Y-25191445D01*
X109864791Y-25038796D01*
X109633375Y-24920882D01*
X109386374Y-24840628D01*
X109250000Y-24819028D01*
X109250000Y-25849998D01*
X109189598Y-25824979D01*
X109064019Y-25800000D01*
X108935981Y-25800000D01*
X108810402Y-25824979D01*
X108750000Y-25849998D01*
X108750000Y-24819028D01*
X108749999Y-24819028D01*
X108613625Y-24840628D01*
X108366624Y-24920882D01*
X108135208Y-25038796D01*
X107925103Y-25191445D01*
X107925098Y-25191449D01*
X107741449Y-25375098D01*
X107741445Y-25375103D01*
X107588796Y-25585208D01*
X107470883Y-25816622D01*
X107390629Y-26063622D01*
X107350000Y-26320142D01*
X105449878Y-26320142D01*
X105368870Y-26161155D01*
X105314710Y-26086610D01*
X105220798Y-25957350D01*
X105220794Y-25957345D01*
X105042654Y-25779205D01*
X105042649Y-25779201D01*
X104838848Y-25631132D01*
X104838847Y-25631131D01*
X104838845Y-25631130D01*
X104738891Y-25580201D01*
X104614383Y-25516760D01*
X104374785Y-25438910D01*
X104275685Y-25423214D01*
X104125962Y-25399500D01*
X103874038Y-25399500D01*
X103749626Y-25419205D01*
X103625214Y-25438910D01*
X103385616Y-25516760D01*
X103161151Y-25631132D01*
X102957350Y-25779201D01*
X102957345Y-25779205D01*
X102779205Y-25957345D01*
X102779201Y-25957350D01*
X102631132Y-26161151D01*
X102516760Y-26385616D01*
X102438910Y-26625214D01*
X102429225Y-26686365D01*
X102399500Y-26874038D01*
X99650000Y-26874038D01*
X99650000Y-26750000D01*
X100650000Y-26750000D01*
X100650000Y-26320142D01*
X100609370Y-26063622D01*
X100529116Y-25816622D01*
X100411203Y-25585208D01*
X100258554Y-25375103D01*
X100258550Y-25375098D01*
X100074901Y-25191449D01*
X100074896Y-25191445D01*
X99864791Y-25038796D01*
X99633375Y-24920882D01*
X99386374Y-24840628D01*
X99250000Y-24819028D01*
X99250000Y-25849998D01*
X99189598Y-25824979D01*
X99064019Y-25800000D01*
X98935981Y-25800000D01*
X98810402Y-25824979D01*
X98750000Y-25849998D01*
X98750000Y-24819028D01*
X98749999Y-24819028D01*
X98613625Y-24840628D01*
X98366624Y-24920882D01*
X98135208Y-25038796D01*
X97925103Y-25191445D01*
X97925098Y-25191449D01*
X97741449Y-25375098D01*
X97741445Y-25375103D01*
X97588796Y-25585208D01*
X97470883Y-25816622D01*
X97390629Y-26063622D01*
X97350000Y-26320142D01*
X95296861Y-26320142D01*
X95304644Y-26312359D01*
X95389415Y-26227589D01*
X95394260Y-26222743D01*
X95394265Y-26222738D01*
X95541936Y-26030289D01*
X95663224Y-25820212D01*
X95756054Y-25596100D01*
X95818838Y-25361789D01*
X95850500Y-25121288D01*
X95850500Y-24878712D01*
X95818838Y-24638211D01*
X95756054Y-24403900D01*
X95663224Y-24179788D01*
X95541936Y-23969711D01*
X95395072Y-23778314D01*
X95394266Y-23777263D01*
X95394260Y-23777256D01*
X95222743Y-23605739D01*
X95222736Y-23605733D01*
X95030293Y-23458067D01*
X95030292Y-23458066D01*
X95030289Y-23458064D01*
X94858661Y-23358974D01*
X94820214Y-23336777D01*
X94820205Y-23336773D01*
X94596104Y-23243947D01*
X94361785Y-23181161D01*
X94121289Y-23149500D01*
X94121288Y-23149500D01*
X93878712Y-23149500D01*
X93878711Y-23149500D01*
X93638214Y-23181161D01*
X93403895Y-23243947D01*
X93179794Y-23336773D01*
X93179785Y-23336777D01*
X92969706Y-23458067D01*
X92777263Y-23605733D01*
X92777256Y-23605739D01*
X92605739Y-23777256D01*
X92605733Y-23777263D01*
X92458067Y-23969706D01*
X92336777Y-24179785D01*
X92336773Y-24179794D01*
X92243947Y-24403895D01*
X92181161Y-24638214D01*
X92149500Y-24878711D01*
X50014114Y-24878711D01*
X48768686Y-23633283D01*
X48735201Y-23571960D01*
X48740185Y-23502268D01*
X48782057Y-23446335D01*
X48836965Y-23423129D01*
X48889660Y-23414784D01*
X49106799Y-23344231D01*
X49310228Y-23240579D01*
X49494937Y-23106379D01*
X49656379Y-22944937D01*
X49790579Y-22760228D01*
X49894231Y-22556799D01*
X49964784Y-22339660D01*
X49978985Y-22250000D01*
X49987928Y-22193539D01*
X50000500Y-22114162D01*
X50000500Y-21885837D01*
X49964784Y-21660339D01*
X49894229Y-21443196D01*
X49790578Y-21239771D01*
X49714608Y-21135208D01*
X49656379Y-21055063D01*
X49494937Y-20893621D01*
X49310228Y-20759421D01*
X49262268Y-20734984D01*
X49211473Y-20687011D01*
X49194678Y-20619190D01*
X49217215Y-20553055D01*
X49271930Y-20509603D01*
X49318564Y-20500500D01*
X102325104Y-20500500D01*
X102392143Y-20520185D01*
X102437898Y-20572989D01*
X102447842Y-20642147D01*
X102418817Y-20705703D01*
X102397989Y-20724818D01*
X102375103Y-20741445D01*
X102375098Y-20741449D01*
X102191449Y-20925098D01*
X102191445Y-20925103D01*
X102038796Y-21135208D01*
X101920883Y-21366622D01*
X101840629Y-21613622D01*
X101819029Y-21750000D01*
X102849999Y-21750000D01*
X102824979Y-21810402D01*
X102800000Y-21935981D01*
X102800000Y-22064019D01*
X102824979Y-22189598D01*
X102849999Y-22250000D01*
X101819029Y-22250000D01*
X101840629Y-22386377D01*
X101920883Y-22633377D01*
X102038796Y-22864791D01*
X102191445Y-23074896D01*
X102191449Y-23074901D01*
X102375098Y-23258550D01*
X102375103Y-23258554D01*
X102585208Y-23411203D01*
X102816622Y-23529116D01*
X103063622Y-23609370D01*
X103320143Y-23650000D01*
X103750000Y-23650000D01*
X103750000Y-22650000D01*
X104250000Y-22650000D01*
X104250000Y-23650000D01*
X104679857Y-23650000D01*
X104936377Y-23609370D01*
X105183377Y-23529116D01*
X105414791Y-23411203D01*
X105624896Y-23258554D01*
X105624901Y-23258550D01*
X105808550Y-23074901D01*
X105808554Y-23074896D01*
X105961203Y-22864791D01*
X106079116Y-22633377D01*
X106159370Y-22386377D01*
X106180971Y-22250000D01*
X105150001Y-22250000D01*
X105175021Y-22189598D01*
X105200000Y-22064019D01*
X105200000Y-21935981D01*
X105175021Y-21810402D01*
X105150001Y-21750000D01*
X106180971Y-21750000D01*
X106159370Y-21613622D01*
X106079116Y-21366622D01*
X105961203Y-21135208D01*
X105808554Y-20925103D01*
X105808550Y-20925098D01*
X105624901Y-20741449D01*
X105624896Y-20741445D01*
X105602011Y-20724818D01*
X105559345Y-20669488D01*
X105553366Y-20599875D01*
X105585972Y-20538080D01*
X105646810Y-20503723D01*
X105674896Y-20500500D01*
X119375500Y-20500500D01*
X119442539Y-20520185D01*
X119488294Y-20572989D01*
X119499500Y-20624500D01*
X119499500Y-79375500D01*
X119479815Y-79442539D01*
X119427011Y-79488294D01*
X119375500Y-79499500D01*
X20624500Y-79499500D01*
X20557461Y-79479815D01*
X20511706Y-79427011D01*
X20500500Y-79375500D01*
X20500500Y-75878711D01*
X22149500Y-75878711D01*
X22149500Y-76121288D01*
X22181161Y-76361785D01*
X22243947Y-76596104D01*
X22277787Y-76677800D01*
X22336776Y-76820212D01*
X22458064Y-77030289D01*
X22458066Y-77030292D01*
X22458067Y-77030293D01*
X22605733Y-77222736D01*
X22605739Y-77222743D01*
X22777256Y-77394260D01*
X22777262Y-77394265D01*
X22969711Y-77541936D01*
X23179788Y-77663224D01*
X23403900Y-77756054D01*
X23638211Y-77818838D01*
X23818586Y-77842584D01*
X23878711Y-77850500D01*
X23878712Y-77850500D01*
X24121289Y-77850500D01*
X24169388Y-77844167D01*
X24361789Y-77818838D01*
X24596100Y-77756054D01*
X24820212Y-77663224D01*
X25030289Y-77541936D01*
X25222738Y-77394265D01*
X25394265Y-77222738D01*
X25541936Y-77030289D01*
X25663224Y-76820212D01*
X25756054Y-76596100D01*
X25818838Y-76361789D01*
X25850500Y-76121288D01*
X25850500Y-75878712D01*
X25850347Y-75877553D01*
X25835277Y-75763080D01*
X25818838Y-75638211D01*
X25756054Y-75403900D01*
X25663224Y-75179788D01*
X25541936Y-74969711D01*
X25394265Y-74777262D01*
X25394260Y-74777256D01*
X25222743Y-74605739D01*
X25222736Y-74605733D01*
X25030293Y-74458067D01*
X25030292Y-74458066D01*
X25030289Y-74458064D01*
X24820212Y-74336776D01*
X24820205Y-74336773D01*
X24596104Y-74243947D01*
X24361785Y-74181161D01*
X24121289Y-74149500D01*
X24121288Y-74149500D01*
X23878712Y-74149500D01*
X23878711Y-74149500D01*
X23638214Y-74181161D01*
X23403895Y-74243947D01*
X23179794Y-74336773D01*
X23179785Y-74336777D01*
X22969706Y-74458067D01*
X22777263Y-74605733D01*
X22777256Y-74605739D01*
X22605739Y-74777256D01*
X22605733Y-74777263D01*
X22458067Y-74969706D01*
X22336777Y-75179785D01*
X22336773Y-75179794D01*
X22243947Y-75403895D01*
X22181161Y-75638214D01*
X22149500Y-75878711D01*
X20500500Y-75878711D01*
X20500500Y-25754791D01*
X24994200Y-25754791D01*
X24994200Y-69302309D01*
X25000267Y-69324952D01*
X25018412Y-69392672D01*
X25024900Y-69416885D01*
X25024900Y-69416886D01*
X25049967Y-69460303D01*
X25084211Y-69519614D01*
X25084213Y-69519616D01*
X29202416Y-73637819D01*
X29235901Y-73699142D01*
X29230917Y-73768834D01*
X29189045Y-73824767D01*
X29123581Y-73849184D01*
X29114744Y-73849500D01*
X29105148Y-73849500D01*
X29105117Y-73849502D01*
X29080012Y-73852413D01*
X29080008Y-73852415D01*
X28977235Y-73897793D01*
X28897794Y-73977234D01*
X28852415Y-74080006D01*
X28852415Y-74080008D01*
X28849500Y-74105131D01*
X28849500Y-75894856D01*
X28849502Y-75894882D01*
X28852413Y-75919987D01*
X28852415Y-75919991D01*
X28897793Y-76022764D01*
X28897794Y-76022765D01*
X28977235Y-76102206D01*
X29080009Y-76147585D01*
X29105135Y-76150500D01*
X30894864Y-76150499D01*
X30894879Y-76150497D01*
X30894882Y-76150497D01*
X30919987Y-76147586D01*
X30919988Y-76147585D01*
X30919991Y-76147585D01*
X31022765Y-76102206D01*
X31102206Y-76022765D01*
X31147585Y-75919991D01*
X31150500Y-75894865D01*
X31150499Y-75157126D01*
X31170183Y-75090089D01*
X31222987Y-75044334D01*
X31292146Y-75034390D01*
X31355702Y-75063415D01*
X31393476Y-75122193D01*
X31396972Y-75137729D01*
X31417829Y-75269410D01*
X31473787Y-75441636D01*
X31473788Y-75441639D01*
X31556006Y-75602997D01*
X31662441Y-75749494D01*
X31662445Y-75749499D01*
X31790500Y-75877554D01*
X31790505Y-75877558D01*
X31914565Y-75967692D01*
X31937006Y-75983996D01*
X32013094Y-76022765D01*
X32098360Y-76066211D01*
X32098363Y-76066212D01*
X32173947Y-76090770D01*
X32270591Y-76122171D01*
X32353429Y-76135291D01*
X32449449Y-76150500D01*
X32449454Y-76150500D01*
X32630551Y-76150500D01*
X32717259Y-76136765D01*
X32809409Y-76122171D01*
X32981639Y-76066211D01*
X33142994Y-75983996D01*
X33289501Y-75877553D01*
X33417553Y-75749501D01*
X33523996Y-75602994D01*
X33606211Y-75441639D01*
X33662171Y-75269409D01*
X33676422Y-75179425D01*
X33687527Y-75109321D01*
X33717456Y-75046186D01*
X33776768Y-75009255D01*
X33846630Y-75010253D01*
X33904863Y-75048863D01*
X33932473Y-75109321D01*
X33957829Y-75269410D01*
X34013787Y-75441636D01*
X34013788Y-75441639D01*
X34096006Y-75602997D01*
X34202441Y-75749494D01*
X34202445Y-75749499D01*
X34330500Y-75877554D01*
X34330505Y-75877558D01*
X34454565Y-75967692D01*
X34477006Y-75983996D01*
X34553094Y-76022765D01*
X34638360Y-76066211D01*
X34638363Y-76066212D01*
X34713947Y-76090770D01*
X34810591Y-76122171D01*
X34893429Y-76135291D01*
X34989449Y-76150500D01*
X34989454Y-76150500D01*
X35170551Y-76150500D01*
X35257259Y-76136765D01*
X35349409Y-76122171D01*
X35521639Y-76066211D01*
X35682994Y-75983996D01*
X35805669Y-75894868D01*
X35829495Y-75877558D01*
X35829497Y-75877555D01*
X35829501Y-75877553D01*
X35957553Y-75749501D01*
X36063996Y-75602994D01*
X36131090Y-75471314D01*
X36179065Y-75420519D01*
X36246886Y-75403724D01*
X36313021Y-75426262D01*
X36356472Y-75480977D01*
X36359506Y-75489292D01*
X36368904Y-75518217D01*
X36465375Y-75707550D01*
X36504728Y-75761716D01*
X37137037Y-75129408D01*
X37154075Y-75192993D01*
X37219901Y-75307007D01*
X37312993Y-75400099D01*
X37427007Y-75465925D01*
X37490590Y-75482962D01*
X36858282Y-76115269D01*
X36858282Y-76115270D01*
X36912449Y-76154624D01*
X37101782Y-76251095D01*
X37303870Y-76316757D01*
X37513754Y-76350000D01*
X37726246Y-76350000D01*
X37936127Y-76316757D01*
X37936130Y-76316757D01*
X38138217Y-76251095D01*
X38327554Y-76154622D01*
X38381716Y-76115270D01*
X38381717Y-76115270D01*
X37749408Y-75482962D01*
X37812993Y-75465925D01*
X37927007Y-75400099D01*
X38020099Y-75307007D01*
X38085925Y-75192993D01*
X38102962Y-75129408D01*
X38735270Y-75761717D01*
X38735270Y-75761716D01*
X38774622Y-75707554D01*
X38871095Y-75518217D01*
X38880492Y-75489295D01*
X38919928Y-75431618D01*
X38984286Y-75404419D01*
X39053133Y-75416331D01*
X39104610Y-75463574D01*
X39108908Y-75471314D01*
X39176004Y-75602995D01*
X39282441Y-75749494D01*
X39282445Y-75749499D01*
X39410500Y-75877554D01*
X39410505Y-75877558D01*
X39534565Y-75967692D01*
X39557006Y-75983996D01*
X39633094Y-76022765D01*
X39718360Y-76066211D01*
X39718363Y-76066212D01*
X39793947Y-76090770D01*
X39890591Y-76122171D01*
X39973429Y-76135291D01*
X40069449Y-76150500D01*
X40069454Y-76150500D01*
X40250551Y-76150500D01*
X40337259Y-76136765D01*
X40429409Y-76122171D01*
X40601639Y-76066211D01*
X40762994Y-75983996D01*
X40909501Y-75877553D01*
X41037553Y-75749501D01*
X41143996Y-75602994D01*
X41226211Y-75441639D01*
X41282171Y-75269409D01*
X41296422Y-75179425D01*
X41307527Y-75109321D01*
X41337456Y-75046186D01*
X41396768Y-75009255D01*
X41466630Y-75010253D01*
X41524863Y-75048863D01*
X41552473Y-75109321D01*
X41577829Y-75269410D01*
X41633787Y-75441636D01*
X41633788Y-75441639D01*
X41716006Y-75602997D01*
X41822441Y-75749494D01*
X41822445Y-75749499D01*
X41950500Y-75877554D01*
X41950505Y-75877558D01*
X42074565Y-75967692D01*
X42097006Y-75983996D01*
X42173094Y-76022765D01*
X42258360Y-76066211D01*
X42258363Y-76066212D01*
X42333947Y-76090770D01*
X42430591Y-76122171D01*
X42513429Y-76135291D01*
X42609449Y-76150500D01*
X42609454Y-76150500D01*
X42790551Y-76150500D01*
X42877259Y-76136765D01*
X42969409Y-76122171D01*
X43141639Y-76066211D01*
X43302994Y-75983996D01*
X43449501Y-75877553D01*
X43577553Y-75749501D01*
X43683996Y-75602994D01*
X43766211Y-75441639D01*
X43822171Y-75269409D01*
X43836765Y-75177259D01*
X43850500Y-75090551D01*
X43850500Y-74909448D01*
X43829562Y-74777256D01*
X43822171Y-74730591D01*
X43781605Y-74605739D01*
X43766212Y-74558363D01*
X43766211Y-74558360D01*
X43727191Y-74481781D01*
X43683996Y-74397006D01*
X43670396Y-74378287D01*
X43577558Y-74250505D01*
X43577554Y-74250500D01*
X43449499Y-74122445D01*
X43449494Y-74122441D01*
X43302997Y-74016006D01*
X43302996Y-74016005D01*
X43302994Y-74016004D01*
X43226906Y-73977235D01*
X43141639Y-73933788D01*
X43141636Y-73933787D01*
X42969410Y-73877829D01*
X42790551Y-73849500D01*
X42790546Y-73849500D01*
X42609454Y-73849500D01*
X42609449Y-73849500D01*
X42430592Y-73877828D01*
X42340084Y-73907235D01*
X42270243Y-73909229D01*
X42214087Y-73876984D01*
X38106819Y-69769716D01*
X38073334Y-69708393D01*
X38070500Y-69682035D01*
X38070500Y-66249915D01*
X38074050Y-66237824D01*
X38072974Y-66225270D01*
X38083707Y-66204935D01*
X38090185Y-66182876D01*
X38100486Y-66173148D01*
X38105590Y-66163480D01*
X38129022Y-66146201D01*
X38133543Y-66141933D01*
X38135855Y-66140627D01*
X38275405Y-66069524D01*
X38434646Y-65953828D01*
X38573828Y-65814646D01*
X38674652Y-65675873D01*
X38729982Y-65633208D01*
X38799595Y-65627229D01*
X38861390Y-65659835D01*
X38885455Y-65692464D01*
X38919851Y-65759969D01*
X38973135Y-65833309D01*
X38973137Y-65833309D01*
X39636212Y-65170234D01*
X39647482Y-65212292D01*
X39719890Y-65337708D01*
X39822292Y-65440110D01*
X39947708Y-65512518D01*
X39989765Y-65523787D01*
X39326688Y-66186862D01*
X39326689Y-66186863D01*
X39400030Y-66240148D01*
X39603395Y-66343769D01*
X39820455Y-66414295D01*
X40045884Y-66450000D01*
X40274116Y-66450000D01*
X40499544Y-66414295D01*
X40716604Y-66343769D01*
X40919966Y-66240150D01*
X40993309Y-66186862D01*
X40993310Y-66186862D01*
X40330234Y-65523787D01*
X40372292Y-65512518D01*
X40497708Y-65440110D01*
X40600110Y-65337708D01*
X40672518Y-65212292D01*
X40683787Y-65170234D01*
X41346862Y-65833310D01*
X41346862Y-65833309D01*
X41400152Y-65759964D01*
X41434544Y-65692465D01*
X41482518Y-65641669D01*
X41550338Y-65624873D01*
X41616474Y-65647410D01*
X41645346Y-65675872D01*
X41746172Y-65814646D01*
X41885354Y-65953828D01*
X42044595Y-66069524D01*
X42105389Y-66100500D01*
X42219970Y-66158882D01*
X42219972Y-66158882D01*
X42219975Y-66158884D01*
X42306082Y-66186862D01*
X42407173Y-66219709D01*
X42601578Y-66250500D01*
X42601583Y-66250500D01*
X42798422Y-66250500D01*
X42992826Y-66219709D01*
X43046697Y-66202205D01*
X43180025Y-66158884D01*
X43355405Y-66069524D01*
X43514646Y-65953828D01*
X43653828Y-65814646D01*
X43769524Y-65655405D01*
X43858884Y-65480025D01*
X43859515Y-65478787D01*
X43907489Y-65427990D01*
X43975310Y-65411195D01*
X44041445Y-65433732D01*
X44080485Y-65478787D01*
X44170474Y-65655403D01*
X44197401Y-65692464D01*
X44286172Y-65814646D01*
X44425354Y-65953828D01*
X44584595Y-66069524D01*
X44645389Y-66100500D01*
X44759970Y-66158882D01*
X44759972Y-66158882D01*
X44759975Y-66158884D01*
X44846082Y-66186862D01*
X44947173Y-66219709D01*
X45141578Y-66250500D01*
X45141583Y-66250500D01*
X45338422Y-66250500D01*
X45532826Y-66219709D01*
X45586697Y-66202205D01*
X45720025Y-66158884D01*
X45895405Y-66069524D01*
X46054646Y-65953828D01*
X46193828Y-65814646D01*
X46294652Y-65675873D01*
X46349982Y-65633208D01*
X46419595Y-65627229D01*
X46481390Y-65659835D01*
X46505455Y-65692464D01*
X46539851Y-65759969D01*
X46593135Y-65833309D01*
X46593137Y-65833309D01*
X47256212Y-65170234D01*
X47267482Y-65212292D01*
X47339890Y-65337708D01*
X47442292Y-65440110D01*
X47567708Y-65512518D01*
X47609765Y-65523787D01*
X46946688Y-66186862D01*
X46946689Y-66186863D01*
X47020030Y-66240148D01*
X47223395Y-66343769D01*
X47440455Y-66414295D01*
X47665884Y-66450000D01*
X47894116Y-66450000D01*
X48119544Y-66414295D01*
X48336604Y-66343769D01*
X48539966Y-66240150D01*
X48613309Y-66186862D01*
X48613310Y-66186862D01*
X47950234Y-65523787D01*
X47992292Y-65512518D01*
X48117708Y-65440110D01*
X48220110Y-65337708D01*
X48292518Y-65212292D01*
X48303787Y-65170234D01*
X48966862Y-65833310D01*
X48966862Y-65833309D01*
X49020152Y-65759964D01*
X49054544Y-65692465D01*
X49102518Y-65641669D01*
X49170338Y-65624873D01*
X49236474Y-65647410D01*
X49265346Y-65675872D01*
X49366172Y-65814646D01*
X49505354Y-65953828D01*
X49664595Y-66069524D01*
X49725389Y-66100500D01*
X49839970Y-66158882D01*
X49839972Y-66158882D01*
X49839975Y-66158884D01*
X49926082Y-66186862D01*
X50027173Y-66219709D01*
X50221578Y-66250500D01*
X50221583Y-66250500D01*
X50418422Y-66250500D01*
X50612826Y-66219709D01*
X50666697Y-66202205D01*
X50800025Y-66158884D01*
X50975405Y-66069524D01*
X51134646Y-65953828D01*
X51273828Y-65814646D01*
X51389524Y-65655405D01*
X51426715Y-65582412D01*
X51474689Y-65531617D01*
X51542510Y-65514822D01*
X51608645Y-65537359D01*
X51652097Y-65592074D01*
X51661200Y-65638708D01*
X51661200Y-71969308D01*
X51685412Y-72059672D01*
X51691900Y-72083885D01*
X51691900Y-72083886D01*
X51691901Y-72083887D01*
X51751211Y-72186614D01*
X51751213Y-72186616D01*
X53202416Y-73637819D01*
X53235901Y-73699142D01*
X53230917Y-73768834D01*
X53189045Y-73824767D01*
X53123581Y-73849184D01*
X53114744Y-73849500D01*
X53105148Y-73849500D01*
X53105117Y-73849502D01*
X53080012Y-73852413D01*
X53080008Y-73852415D01*
X52977235Y-73897793D01*
X52897794Y-73977234D01*
X52852415Y-74080006D01*
X52852415Y-74080008D01*
X52849500Y-74105131D01*
X52849500Y-75894856D01*
X52849502Y-75894882D01*
X52852413Y-75919987D01*
X52852415Y-75919991D01*
X52897793Y-76022764D01*
X52897794Y-76022765D01*
X52977235Y-76102206D01*
X53080009Y-76147585D01*
X53105135Y-76150500D01*
X54894864Y-76150499D01*
X54894879Y-76150497D01*
X54894882Y-76150497D01*
X54919987Y-76147586D01*
X54919988Y-76147585D01*
X54919991Y-76147585D01*
X55022765Y-76102206D01*
X55102206Y-76022765D01*
X55147585Y-75919991D01*
X55150500Y-75894865D01*
X55150499Y-75157125D01*
X55170183Y-75090089D01*
X55222987Y-75044334D01*
X55292146Y-75034390D01*
X55355702Y-75063415D01*
X55393476Y-75122193D01*
X55396972Y-75137729D01*
X55417829Y-75269410D01*
X55473787Y-75441636D01*
X55473788Y-75441639D01*
X55556006Y-75602997D01*
X55662441Y-75749494D01*
X55662445Y-75749499D01*
X55790500Y-75877554D01*
X55790505Y-75877558D01*
X55914565Y-75967692D01*
X55937006Y-75983996D01*
X56013094Y-76022765D01*
X56098360Y-76066211D01*
X56098363Y-76066212D01*
X56173947Y-76090770D01*
X56270591Y-76122171D01*
X56353429Y-76135291D01*
X56449449Y-76150500D01*
X56449454Y-76150500D01*
X56630551Y-76150500D01*
X56717259Y-76136765D01*
X56809409Y-76122171D01*
X56899913Y-76092765D01*
X56969754Y-76090770D01*
X57025912Y-76123015D01*
X57490686Y-76587789D01*
X57490687Y-76587790D01*
X57490689Y-76587791D01*
X57549993Y-76622029D01*
X57549996Y-76622032D01*
X57584237Y-76641800D01*
X57593414Y-76647099D01*
X57707991Y-76677800D01*
X57707994Y-76677800D01*
X59700708Y-76677800D01*
X59700709Y-76677800D01*
X59791073Y-76653586D01*
X59815287Y-76647099D01*
X59918014Y-76587789D01*
X60646689Y-75859114D01*
X60705999Y-75756387D01*
X60712485Y-75732175D01*
X60712486Y-75732175D01*
X60712486Y-75732171D01*
X60736700Y-75641809D01*
X60736700Y-75057682D01*
X64700000Y-75057682D01*
X64700000Y-75262317D01*
X64732009Y-75464417D01*
X64795244Y-75659031D01*
X64888141Y-75841350D01*
X64888147Y-75841359D01*
X64920523Y-75885921D01*
X64920524Y-75885922D01*
X65600000Y-75206446D01*
X65600000Y-75212661D01*
X65627259Y-75314394D01*
X65679920Y-75405606D01*
X65754394Y-75480080D01*
X65845606Y-75532741D01*
X65947339Y-75560000D01*
X65953553Y-75560000D01*
X65274076Y-76239474D01*
X65318650Y-76271859D01*
X65500968Y-76364755D01*
X65695582Y-76427990D01*
X65897683Y-76460000D01*
X66102317Y-76460000D01*
X66304417Y-76427990D01*
X66499031Y-76364755D01*
X66681349Y-76271859D01*
X66725921Y-76239474D01*
X66046447Y-75560000D01*
X66052661Y-75560000D01*
X66154394Y-75532741D01*
X66245606Y-75480080D01*
X66320080Y-75405606D01*
X66372741Y-75314394D01*
X66400000Y-75212661D01*
X66400000Y-75206447D01*
X67079474Y-75885921D01*
X67111859Y-75841349D01*
X67204755Y-75659031D01*
X67267990Y-75464417D01*
X67300000Y-75262317D01*
X67300000Y-75057682D01*
X67267990Y-74855582D01*
X67204755Y-74660968D01*
X67111859Y-74478650D01*
X67079474Y-74434077D01*
X67079474Y-74434076D01*
X66400000Y-75113551D01*
X66400000Y-75107339D01*
X66372741Y-75005606D01*
X66320080Y-74914394D01*
X66245606Y-74839920D01*
X66154394Y-74787259D01*
X66052661Y-74760000D01*
X66046446Y-74760000D01*
X66725922Y-74080524D01*
X66725921Y-74080523D01*
X66681359Y-74048147D01*
X66681350Y-74048141D01*
X66499031Y-73955244D01*
X66304417Y-73892009D01*
X66102317Y-73860000D01*
X65897683Y-73860000D01*
X65695582Y-73892009D01*
X65500968Y-73955244D01*
X65318644Y-74048143D01*
X65274077Y-74080523D01*
X65274077Y-74080524D01*
X65953554Y-74760000D01*
X65947339Y-74760000D01*
X65845606Y-74787259D01*
X65754394Y-74839920D01*
X65679920Y-74914394D01*
X65627259Y-75005606D01*
X65600000Y-75107339D01*
X65600000Y-75113553D01*
X64920524Y-74434077D01*
X64920523Y-74434077D01*
X64888143Y-74478644D01*
X64795244Y-74660968D01*
X64732009Y-74855582D01*
X64700000Y-75057682D01*
X60736700Y-75057682D01*
X60736700Y-71116157D01*
X60756385Y-71049118D01*
X60809189Y-71003363D01*
X60878347Y-70993419D01*
X60941903Y-71022444D01*
X60978630Y-71077840D01*
X60980127Y-71082445D01*
X60980128Y-71082448D01*
X60997304Y-71116157D01*
X61058768Y-71236788D01*
X61160586Y-71376928D01*
X61283072Y-71499414D01*
X61423212Y-71601232D01*
X61577555Y-71679873D01*
X61742299Y-71733402D01*
X61913389Y-71760500D01*
X61913390Y-71760500D01*
X62086610Y-71760500D01*
X62086611Y-71760500D01*
X62257701Y-71733402D01*
X62422445Y-71679873D01*
X62576788Y-71601232D01*
X62716928Y-71499414D01*
X62839414Y-71376928D01*
X62941232Y-71236788D01*
X63019873Y-71082445D01*
X63073402Y-70917701D01*
X63100500Y-70746611D01*
X63100500Y-70573389D01*
X63073402Y-70402299D01*
X63019873Y-70237555D01*
X62941232Y-70083212D01*
X62839414Y-69943072D01*
X62716928Y-69820586D01*
X62576788Y-69718768D01*
X62576787Y-69718767D01*
X62576785Y-69718766D01*
X62518204Y-69688917D01*
X62467409Y-69640943D01*
X62450500Y-69578433D01*
X62450500Y-69237964D01*
X62470185Y-69170925D01*
X62486814Y-69150288D01*
X65553770Y-66083331D01*
X65615091Y-66049848D01*
X65679764Y-66053082D01*
X65742299Y-66073402D01*
X65913389Y-66100500D01*
X65913390Y-66100500D01*
X66086610Y-66100500D01*
X66086611Y-66100500D01*
X66257701Y-66073402D01*
X66422445Y-66019873D01*
X66576788Y-65941232D01*
X66716928Y-65839414D01*
X66839414Y-65716928D01*
X66941232Y-65576788D01*
X67019873Y-65422445D01*
X67073402Y-65257701D01*
X67100500Y-65086611D01*
X67100500Y-64913389D01*
X67073402Y-64742299D01*
X67019873Y-64577555D01*
X66941232Y-64423212D01*
X66839414Y-64283072D01*
X66716928Y-64160586D01*
X66576788Y-64058768D01*
X66422445Y-63980127D01*
X66257701Y-63926598D01*
X66257699Y-63926597D01*
X66257698Y-63926597D01*
X66126271Y-63905781D01*
X66086611Y-63899500D01*
X65913389Y-63899500D01*
X65873728Y-63905781D01*
X65742302Y-63926597D01*
X65577552Y-63980128D01*
X65423211Y-64058768D01*
X65343256Y-64116859D01*
X65283072Y-64160586D01*
X65283070Y-64160588D01*
X65283069Y-64160588D01*
X65160588Y-64283069D01*
X65160588Y-64283070D01*
X65160586Y-64283072D01*
X65120228Y-64338620D01*
X65058768Y-64423211D01*
X64980128Y-64577552D01*
X64926597Y-64742302D01*
X64899500Y-64913389D01*
X64899500Y-65086610D01*
X64926597Y-65257698D01*
X64926598Y-65257702D01*
X64946915Y-65320232D01*
X64948910Y-65390073D01*
X64916665Y-65446230D01*
X61639513Y-68723383D01*
X61639509Y-68723389D01*
X61580201Y-68826112D01*
X61580200Y-68826117D01*
X61549500Y-68940691D01*
X61549500Y-69578433D01*
X61529815Y-69645472D01*
X61481796Y-69688917D01*
X61423214Y-69718766D01*
X61353142Y-69769677D01*
X61283072Y-69820586D01*
X61283070Y-69820588D01*
X61283069Y-69820588D01*
X61160588Y-69943069D01*
X61160588Y-69943070D01*
X61160586Y-69943072D01*
X61134258Y-69979309D01*
X61058768Y-70083211D01*
X60980128Y-70237550D01*
X60979359Y-70239917D01*
X60978629Y-70242162D01*
X60939193Y-70299836D01*
X60874834Y-70327034D01*
X60805988Y-70315119D01*
X60754512Y-70267875D01*
X60736700Y-70203842D01*
X60736700Y-60956157D01*
X60756385Y-60889118D01*
X60809189Y-60843363D01*
X60878347Y-60833419D01*
X60941903Y-60862444D01*
X60978630Y-60917840D01*
X60979503Y-60920524D01*
X60980128Y-60922448D01*
X61058768Y-61076788D01*
X61160586Y-61216928D01*
X61283072Y-61339414D01*
X61423212Y-61441232D01*
X61577555Y-61519873D01*
X61742299Y-61573402D01*
X61913389Y-61600500D01*
X61913390Y-61600500D01*
X62086610Y-61600500D01*
X62086611Y-61600500D01*
X62257701Y-61573402D01*
X62422445Y-61519873D01*
X62576788Y-61441232D01*
X62716928Y-61339414D01*
X62839414Y-61216928D01*
X62941232Y-61076788D01*
X63019873Y-60922445D01*
X63073402Y-60757701D01*
X63100500Y-60586611D01*
X63100500Y-60413389D01*
X63073402Y-60242299D01*
X63019873Y-60077555D01*
X62941232Y-59923212D01*
X62839414Y-59783072D01*
X62716928Y-59660586D01*
X62576788Y-59558768D01*
X62422445Y-59480127D01*
X62257701Y-59426598D01*
X62257699Y-59426597D01*
X62257698Y-59426597D01*
X62116298Y-59404202D01*
X62086611Y-59399500D01*
X61913389Y-59399500D01*
X61883702Y-59404202D01*
X61742302Y-59426597D01*
X61577552Y-59480128D01*
X61423211Y-59558768D01*
X61343256Y-59616859D01*
X61283072Y-59660586D01*
X61283070Y-59660588D01*
X61283069Y-59660588D01*
X61160588Y-59783069D01*
X61160588Y-59783070D01*
X61160586Y-59783072D01*
X61116859Y-59843256D01*
X61058768Y-59923211D01*
X60980128Y-60077552D01*
X60926597Y-60242302D01*
X60899500Y-60413389D01*
X60899500Y-60586611D01*
X60901689Y-60600436D01*
X60892731Y-60669729D01*
X60847733Y-60723179D01*
X60780980Y-60743815D01*
X60713667Y-60725087D01*
X60671828Y-60681827D01*
X60646690Y-60638286D01*
X58268024Y-58259620D01*
X58234539Y-58198297D01*
X58239523Y-58128605D01*
X58281395Y-58072672D01*
X58317383Y-58054009D01*
X58422445Y-58019873D01*
X58576788Y-57941232D01*
X58716928Y-57839414D01*
X58839414Y-57716928D01*
X58941232Y-57576788D01*
X59019873Y-57422445D01*
X59073402Y-57257701D01*
X59100500Y-57086611D01*
X59100500Y-56913389D01*
X60739500Y-56913389D01*
X60739500Y-57086611D01*
X60766598Y-57257701D01*
X60820127Y-57422445D01*
X60898768Y-57576788D01*
X61000586Y-57716928D01*
X61123072Y-57839414D01*
X61263212Y-57941232D01*
X61417555Y-58019873D01*
X61582299Y-58073402D01*
X61753389Y-58100500D01*
X61753390Y-58100500D01*
X61926610Y-58100500D01*
X61926611Y-58100500D01*
X62097701Y-58073402D01*
X62262445Y-58019873D01*
X62416788Y-57941232D01*
X62556928Y-57839414D01*
X62679414Y-57716928D01*
X62781232Y-57576788D01*
X62859873Y-57422445D01*
X62913402Y-57257701D01*
X62940500Y-57086611D01*
X62940500Y-56913389D01*
X62913402Y-56742299D01*
X62859873Y-56577555D01*
X62781232Y-56423212D01*
X62679414Y-56283072D01*
X62556928Y-56160586D01*
X62416788Y-56058768D01*
X62262445Y-55980127D01*
X62097701Y-55926598D01*
X62097699Y-55926597D01*
X62097698Y-55926597D01*
X61961589Y-55905040D01*
X61926611Y-55899500D01*
X61753389Y-55899500D01*
X61718411Y-55905040D01*
X61582302Y-55926597D01*
X61417552Y-55980128D01*
X61263211Y-56058768D01*
X61220614Y-56089717D01*
X61123072Y-56160586D01*
X61123070Y-56160588D01*
X61123069Y-56160588D01*
X61000588Y-56283069D01*
X61000588Y-56283070D01*
X61000586Y-56283072D01*
X60956859Y-56343256D01*
X60898768Y-56423211D01*
X60820128Y-56577552D01*
X60766597Y-56742302D01*
X60742548Y-56894144D01*
X60739500Y-56913389D01*
X59100500Y-56913389D01*
X59073402Y-56742299D01*
X59019873Y-56577555D01*
X58941232Y-56423212D01*
X58839414Y-56283072D01*
X58716928Y-56160586D01*
X58576788Y-56058768D01*
X58422445Y-55980127D01*
X58257701Y-55926598D01*
X58257699Y-55926597D01*
X58257698Y-55926597D01*
X58121589Y-55905040D01*
X58086611Y-55899500D01*
X57913389Y-55899500D01*
X57878411Y-55905040D01*
X57742302Y-55926597D01*
X57577552Y-55980128D01*
X57423211Y-56058768D01*
X57380614Y-56089717D01*
X57283072Y-56160586D01*
X57283070Y-56160588D01*
X57283069Y-56160588D01*
X57160588Y-56283069D01*
X57160588Y-56283070D01*
X57160586Y-56283072D01*
X57116859Y-56343256D01*
X57058768Y-56423211D01*
X56980128Y-56577550D01*
X56945991Y-56682613D01*
X56906553Y-56740288D01*
X56842194Y-56767486D01*
X56773347Y-56755571D01*
X56740379Y-56731975D01*
X54896819Y-54888415D01*
X54863334Y-54827092D01*
X54860500Y-54800734D01*
X54860500Y-51788255D01*
X54880185Y-51721216D01*
X54932989Y-51675461D01*
X55002147Y-51665517D01*
X55057384Y-51687936D01*
X55103212Y-51721232D01*
X55257555Y-51799873D01*
X55422299Y-51853402D01*
X55593389Y-51880500D01*
X55593390Y-51880500D01*
X55766610Y-51880500D01*
X55766611Y-51880500D01*
X55937701Y-51853402D01*
X56102445Y-51799873D01*
X56256788Y-51721232D01*
X56396928Y-51619414D01*
X56519414Y-51496928D01*
X56621232Y-51356788D01*
X56699873Y-51202445D01*
X56724264Y-51127375D01*
X56763700Y-51069703D01*
X56828058Y-51042504D01*
X56896905Y-51054418D01*
X56948381Y-51101662D01*
X56960855Y-51129700D01*
X56984187Y-51206614D01*
X57044490Y-51352198D01*
X57091158Y-51439506D01*
X57137533Y-51508912D01*
X57137534Y-51508913D01*
X57737037Y-50909409D01*
X57754075Y-50972993D01*
X57819901Y-51087007D01*
X57912993Y-51180099D01*
X58027007Y-51245925D01*
X58090590Y-51262962D01*
X57491085Y-51862465D01*
X57560493Y-51908841D01*
X57647801Y-51955509D01*
X57793387Y-52015814D01*
X57888135Y-52044555D01*
X58042699Y-52075298D01*
X58141210Y-52085000D01*
X58298790Y-52085000D01*
X58397299Y-52075298D01*
X58397302Y-52075298D01*
X58551864Y-52044555D01*
X58646612Y-52015814D01*
X58792198Y-51955509D01*
X58879501Y-51908844D01*
X58879511Y-51908838D01*
X58948912Y-51862465D01*
X58349409Y-51262962D01*
X58412993Y-51245925D01*
X58527007Y-51180099D01*
X58620099Y-51087007D01*
X58685925Y-50972993D01*
X58702962Y-50909409D01*
X59302465Y-51508912D01*
X59348838Y-51439511D01*
X59348844Y-51439501D01*
X59395509Y-51352198D01*
X59455815Y-51206609D01*
X59479144Y-51129702D01*
X59517441Y-51071263D01*
X59581253Y-51042806D01*
X59650320Y-51053365D01*
X59702714Y-51099589D01*
X59715735Y-51127375D01*
X59727239Y-51162782D01*
X59740128Y-51202449D01*
X59816429Y-51352198D01*
X59818768Y-51356788D01*
X59920586Y-51496928D01*
X60043072Y-51619414D01*
X60183212Y-51721232D01*
X60337555Y-51799873D01*
X60502299Y-51853402D01*
X60673389Y-51880500D01*
X60673390Y-51880500D01*
X60846610Y-51880500D01*
X60846611Y-51880500D01*
X61017701Y-51853402D01*
X61182445Y-51799873D01*
X61336788Y-51721232D01*
X61382614Y-51687936D01*
X61448420Y-51664457D01*
X61516474Y-51680282D01*
X61565169Y-51730388D01*
X61579500Y-51788255D01*
X61579500Y-53589308D01*
X61602647Y-53675697D01*
X61610200Y-53703886D01*
X61610201Y-53703887D01*
X61669511Y-53806614D01*
X61669513Y-53806616D01*
X67055733Y-59192837D01*
X67089218Y-59254160D01*
X67084234Y-59323852D01*
X67042362Y-59379785D01*
X66976898Y-59404202D01*
X66948659Y-59402992D01*
X66926611Y-59399500D01*
X66753389Y-59399500D01*
X66723702Y-59404202D01*
X66582302Y-59426597D01*
X66417552Y-59480128D01*
X66263211Y-59558768D01*
X66183256Y-59616859D01*
X66123072Y-59660586D01*
X66123070Y-59660588D01*
X66123069Y-59660588D01*
X66000588Y-59783069D01*
X66000588Y-59783070D01*
X66000586Y-59783072D01*
X65956859Y-59843256D01*
X65898768Y-59923211D01*
X65820128Y-60077552D01*
X65766597Y-60242302D01*
X65760140Y-60283072D01*
X65739500Y-60413389D01*
X65739500Y-60586611D01*
X65741690Y-60600436D01*
X65764398Y-60743815D01*
X65766598Y-60757701D01*
X65820127Y-60922445D01*
X65898768Y-61076788D01*
X66000586Y-61216928D01*
X66123072Y-61339414D01*
X66263212Y-61441232D01*
X66417555Y-61519873D01*
X66582299Y-61573402D01*
X66753389Y-61600500D01*
X66753390Y-61600500D01*
X66926610Y-61600500D01*
X66926611Y-61600500D01*
X67097701Y-61573402D01*
X67262445Y-61519873D01*
X67416788Y-61441232D01*
X67556928Y-61339414D01*
X67679414Y-61216928D01*
X67781232Y-61076788D01*
X67859873Y-60922445D01*
X67913402Y-60757701D01*
X67940500Y-60586611D01*
X67940500Y-60413389D01*
X67937008Y-60391343D01*
X67945962Y-60322052D01*
X67990958Y-60268599D01*
X68057709Y-60247959D01*
X68125023Y-60266683D01*
X68147162Y-60284265D01*
X70513181Y-62650284D01*
X70546666Y-62711607D01*
X70549500Y-62737965D01*
X70549500Y-73725500D01*
X70529815Y-73792539D01*
X70477011Y-73838294D01*
X70425500Y-73849500D01*
X70105143Y-73849500D01*
X70105117Y-73849502D01*
X70080012Y-73852413D01*
X70080008Y-73852415D01*
X69977235Y-73897793D01*
X69897794Y-73977234D01*
X69852415Y-74080006D01*
X69852415Y-74080008D01*
X69849500Y-74105131D01*
X69849500Y-75894856D01*
X69849502Y-75894882D01*
X69852413Y-75919987D01*
X69852415Y-75919991D01*
X69897793Y-76022764D01*
X69897794Y-76022765D01*
X69977235Y-76102206D01*
X70080009Y-76147585D01*
X70105135Y-76150500D01*
X71894864Y-76150499D01*
X71894879Y-76150497D01*
X71894882Y-76150497D01*
X71919987Y-76147586D01*
X71919988Y-76147585D01*
X71919991Y-76147585D01*
X72022765Y-76102206D01*
X72102206Y-76022765D01*
X72147585Y-75919991D01*
X72150500Y-75894865D01*
X72150499Y-75763076D01*
X72170183Y-75696040D01*
X72222987Y-75650285D01*
X72292145Y-75640341D01*
X72355701Y-75669365D01*
X72382495Y-75703600D01*
X72382829Y-75703396D01*
X72384607Y-75706297D01*
X72384977Y-75706770D01*
X72385373Y-75707547D01*
X72424728Y-75761716D01*
X73057037Y-75129408D01*
X73074075Y-75192993D01*
X73139901Y-75307007D01*
X73232993Y-75400099D01*
X73347007Y-75465925D01*
X73410590Y-75482962D01*
X72778282Y-76115269D01*
X72778282Y-76115270D01*
X72832449Y-76154624D01*
X73021782Y-76251095D01*
X73223870Y-76316757D01*
X73433754Y-76350000D01*
X73646246Y-76350000D01*
X73856127Y-76316757D01*
X73856130Y-76316757D01*
X74058217Y-76251095D01*
X74247554Y-76154622D01*
X74301716Y-76115270D01*
X74301717Y-76115270D01*
X73669408Y-75482962D01*
X73732993Y-75465925D01*
X73847007Y-75400099D01*
X73940099Y-75307007D01*
X74005925Y-75192993D01*
X74022962Y-75129408D01*
X74655270Y-75761717D01*
X74655270Y-75761716D01*
X74694622Y-75707554D01*
X74791095Y-75518217D01*
X74856757Y-75316130D01*
X74856757Y-75316127D01*
X74890000Y-75106246D01*
X74890000Y-74893753D01*
X74856757Y-74683872D01*
X74856757Y-74683869D01*
X74791095Y-74481782D01*
X74694624Y-74292449D01*
X74655270Y-74238282D01*
X74655269Y-74238282D01*
X74022962Y-74870590D01*
X74005925Y-74807007D01*
X73940099Y-74692993D01*
X73847007Y-74599901D01*
X73732993Y-74534075D01*
X73669409Y-74517037D01*
X74301716Y-73884728D01*
X74247550Y-73845375D01*
X74058217Y-73748904D01*
X73856129Y-73683242D01*
X73646246Y-73650000D01*
X73433754Y-73650000D01*
X73223872Y-73683242D01*
X73223869Y-73683242D01*
X73021782Y-73748904D01*
X72832439Y-73845380D01*
X72778282Y-73884727D01*
X72778282Y-73884728D01*
X73410591Y-74517037D01*
X73347007Y-74534075D01*
X73232993Y-74599901D01*
X73139901Y-74692993D01*
X73074075Y-74807007D01*
X73057037Y-74870591D01*
X72424728Y-74238282D01*
X72424727Y-74238282D01*
X72385380Y-74292440D01*
X72385377Y-74292445D01*
X72384981Y-74293223D01*
X72384752Y-74293464D01*
X72382838Y-74296590D01*
X72382180Y-74296187D01*
X72337004Y-74344017D01*
X72269183Y-74360809D01*
X72203049Y-74338268D01*
X72159600Y-74283551D01*
X72150499Y-74236923D01*
X72150499Y-74105143D01*
X72150499Y-74105136D01*
X72147645Y-74080523D01*
X72147586Y-74080012D01*
X72147585Y-74080011D01*
X72147585Y-74080009D01*
X72102206Y-73977235D01*
X72022765Y-73897794D01*
X72008422Y-73891461D01*
X71919992Y-73852415D01*
X71894868Y-73849500D01*
X71894865Y-73849500D01*
X71574500Y-73849500D01*
X71507461Y-73829815D01*
X71461706Y-73777011D01*
X71450500Y-73725500D01*
X71450500Y-62440693D01*
X71450500Y-62440691D01*
X71419799Y-62326114D01*
X71419799Y-62326113D01*
X71419799Y-62326112D01*
X71360492Y-62223389D01*
X71360488Y-62223384D01*
X69550493Y-60413389D01*
X75899500Y-60413389D01*
X75899500Y-60586611D01*
X75901690Y-60600436D01*
X75924398Y-60743815D01*
X75926598Y-60757701D01*
X75980127Y-60922445D01*
X76058768Y-61076788D01*
X76160586Y-61216928D01*
X76283072Y-61339414D01*
X76423212Y-61441232D01*
X76577555Y-61519873D01*
X76742299Y-61573402D01*
X76913389Y-61600500D01*
X76913390Y-61600500D01*
X77086610Y-61600500D01*
X77086611Y-61600500D01*
X77257701Y-61573402D01*
X77422445Y-61519873D01*
X77576788Y-61441232D01*
X77716928Y-61339414D01*
X77839414Y-61216928D01*
X77941232Y-61076788D01*
X78019873Y-60922445D01*
X78073402Y-60757701D01*
X78100500Y-60586611D01*
X78100500Y-60413389D01*
X78073402Y-60242299D01*
X78019873Y-60077555D01*
X77941232Y-59923212D01*
X77839414Y-59783072D01*
X77716928Y-59660586D01*
X77576788Y-59558768D01*
X77422445Y-59480127D01*
X77257701Y-59426598D01*
X77257699Y-59426597D01*
X77257698Y-59426597D01*
X77116298Y-59404202D01*
X77086611Y-59399500D01*
X76913389Y-59399500D01*
X76883702Y-59404202D01*
X76742302Y-59426597D01*
X76577552Y-59480128D01*
X76423211Y-59558768D01*
X76343256Y-59616859D01*
X76283072Y-59660586D01*
X76283070Y-59660588D01*
X76283069Y-59660588D01*
X76160588Y-59783069D01*
X76160588Y-59783070D01*
X76160586Y-59783072D01*
X76116859Y-59843256D01*
X76058768Y-59923211D01*
X75980128Y-60077552D01*
X75926597Y-60242302D01*
X75920140Y-60283072D01*
X75899500Y-60413389D01*
X69550493Y-60413389D01*
X62516819Y-53379715D01*
X62483334Y-53318392D01*
X62480500Y-53292034D01*
X62480500Y-51788255D01*
X62500185Y-51721216D01*
X62552989Y-51675461D01*
X62622147Y-51665517D01*
X62677384Y-51687936D01*
X62723212Y-51721232D01*
X62877555Y-51799873D01*
X63042299Y-51853402D01*
X63213389Y-51880500D01*
X63213390Y-51880500D01*
X63386610Y-51880500D01*
X63386611Y-51880500D01*
X63557701Y-51853402D01*
X63722445Y-51799873D01*
X63876788Y-51721232D01*
X64016928Y-51619414D01*
X64139414Y-51496928D01*
X64241232Y-51356788D01*
X64319873Y-51202445D01*
X64373402Y-51037701D01*
X64400500Y-50866611D01*
X64400500Y-50693389D01*
X64739500Y-50693389D01*
X64739500Y-50866611D01*
X64766598Y-51037701D01*
X64820127Y-51202445D01*
X64898768Y-51356788D01*
X65000586Y-51496928D01*
X65123072Y-51619414D01*
X65263212Y-51721232D01*
X65417555Y-51799873D01*
X65582299Y-51853402D01*
X65753389Y-51880500D01*
X65753390Y-51880500D01*
X65926610Y-51880500D01*
X65926611Y-51880500D01*
X66097701Y-51853402D01*
X66262445Y-51799873D01*
X66416788Y-51721232D01*
X66556928Y-51619414D01*
X66679414Y-51496928D01*
X66781232Y-51356788D01*
X66859873Y-51202445D01*
X66913402Y-51037701D01*
X66940500Y-50866611D01*
X66940500Y-50693389D01*
X66913402Y-50522299D01*
X66859873Y-50357555D01*
X66781232Y-50203212D01*
X66679414Y-50063072D01*
X66556928Y-49940586D01*
X66416788Y-49838768D01*
X66384766Y-49822452D01*
X66262447Y-49760128D01*
X66262446Y-49760127D01*
X66262445Y-49760127D01*
X66097701Y-49706598D01*
X66097699Y-49706597D01*
X66097698Y-49706597D01*
X65966271Y-49685781D01*
X65926611Y-49679500D01*
X65753389Y-49679500D01*
X65713728Y-49685781D01*
X65582302Y-49706597D01*
X65579200Y-49707605D01*
X65430097Y-49756052D01*
X65417552Y-49760128D01*
X65263211Y-49838768D01*
X65185070Y-49895542D01*
X65123072Y-49940586D01*
X65123070Y-49940588D01*
X65123069Y-49940588D01*
X65000588Y-50063069D01*
X65000588Y-50063070D01*
X65000586Y-50063072D01*
X64993725Y-50072516D01*
X64898768Y-50203211D01*
X64820128Y-50357552D01*
X64766597Y-50522302D01*
X64756349Y-50587007D01*
X64739500Y-50693389D01*
X64400500Y-50693389D01*
X64373402Y-50522299D01*
X64319873Y-50357555D01*
X64241232Y-50203212D01*
X64139414Y-50063072D01*
X64016928Y-49940586D01*
X63876788Y-49838768D01*
X63844766Y-49822452D01*
X63722447Y-49760128D01*
X63722446Y-49760127D01*
X63722445Y-49760127D01*
X63557701Y-49706598D01*
X63557699Y-49706597D01*
X63557698Y-49706597D01*
X63426271Y-49685781D01*
X63386611Y-49679500D01*
X63213389Y-49679500D01*
X63173728Y-49685781D01*
X63042302Y-49706597D01*
X63039200Y-49707605D01*
X62890097Y-49756052D01*
X62877552Y-49760128D01*
X62723212Y-49838767D01*
X62677385Y-49872063D01*
X62611578Y-49895542D01*
X62543524Y-49879716D01*
X62494830Y-49829610D01*
X62480500Y-49771744D01*
X62480500Y-39290693D01*
X62480500Y-39290691D01*
X62449799Y-39176114D01*
X62449799Y-39176113D01*
X62390489Y-39073386D01*
X57833784Y-34516681D01*
X57800299Y-34455358D01*
X57805283Y-34385666D01*
X57847155Y-34329733D01*
X57912619Y-34305316D01*
X57921465Y-34305000D01*
X58859786Y-34305000D01*
X58913762Y-34302106D01*
X58913764Y-34302106D01*
X59053023Y-34266563D01*
X59053035Y-34266559D01*
X59109582Y-34243135D01*
X58349409Y-33482962D01*
X58412993Y-33465925D01*
X58527007Y-33400099D01*
X58620099Y-33307007D01*
X58685925Y-33192993D01*
X58702962Y-33129409D01*
X59463135Y-33889582D01*
X59463137Y-33889582D01*
X59486552Y-33833053D01*
X59504544Y-33782053D01*
X59524999Y-33639780D01*
X59525000Y-33639779D01*
X59525000Y-33516732D01*
X59544685Y-33449693D01*
X59597489Y-33403938D01*
X59666647Y-33393994D01*
X59730203Y-33423019D01*
X59759485Y-33460438D01*
X59818766Y-33576786D01*
X59819323Y-33577552D01*
X59920586Y-33716928D01*
X60043072Y-33839414D01*
X60183212Y-33941232D01*
X60337555Y-34019873D01*
X60502299Y-34073402D01*
X60673389Y-34100500D01*
X60673390Y-34100500D01*
X60846610Y-34100500D01*
X60846611Y-34100500D01*
X61017701Y-34073402D01*
X61182445Y-34019873D01*
X61336788Y-33941232D01*
X61476928Y-33839414D01*
X61599414Y-33716928D01*
X61701232Y-33576788D01*
X61779873Y-33422445D01*
X61833402Y-33257701D01*
X61860500Y-33086611D01*
X61860500Y-32913389D01*
X62199500Y-32913389D01*
X62199500Y-33086610D01*
X62226597Y-33257697D01*
X62226597Y-33257699D01*
X62226598Y-33257701D01*
X62278369Y-33417035D01*
X62280128Y-33422447D01*
X62304407Y-33470098D01*
X62358768Y-33576788D01*
X62460586Y-33716928D01*
X62583072Y-33839414D01*
X62723212Y-33941232D01*
X62877555Y-34019873D01*
X63042299Y-34073402D01*
X63213389Y-34100500D01*
X63213390Y-34100500D01*
X63386610Y-34100500D01*
X63386611Y-34100500D01*
X63557701Y-34073402D01*
X63722445Y-34019873D01*
X63876788Y-33941232D01*
X64016928Y-33839414D01*
X64139414Y-33716928D01*
X64241232Y-33576788D01*
X64319873Y-33422445D01*
X64373402Y-33257701D01*
X64400500Y-33086611D01*
X64400500Y-32913389D01*
X64739500Y-32913389D01*
X64739500Y-33086610D01*
X64766597Y-33257697D01*
X64766597Y-33257699D01*
X64766598Y-33257701D01*
X64818369Y-33417035D01*
X64820128Y-33422447D01*
X64844407Y-33470098D01*
X64898768Y-33576788D01*
X65000586Y-33716928D01*
X65123072Y-33839414D01*
X65263212Y-33941232D01*
X65417555Y-34019873D01*
X65582299Y-34073402D01*
X65753389Y-34100500D01*
X65753390Y-34100500D01*
X65926610Y-34100500D01*
X65926611Y-34100500D01*
X66097701Y-34073402D01*
X66262445Y-34019873D01*
X66416788Y-33941232D01*
X66556928Y-33839414D01*
X66679414Y-33716928D01*
X66781232Y-33576788D01*
X66859873Y-33422445D01*
X66913402Y-33257701D01*
X66940500Y-33086611D01*
X66940500Y-32913389D01*
X67279500Y-32913389D01*
X67279500Y-33086610D01*
X67306597Y-33257697D01*
X67306597Y-33257699D01*
X67306598Y-33257701D01*
X67358369Y-33417035D01*
X67360128Y-33422447D01*
X67384407Y-33470098D01*
X67438768Y-33576788D01*
X67540586Y-33716928D01*
X67663072Y-33839414D01*
X67736518Y-33892776D01*
X67803207Y-33941229D01*
X67803211Y-33941231D01*
X67803212Y-33941232D01*
X67861795Y-33971081D01*
X67912590Y-34019053D01*
X67929500Y-34081565D01*
X67929500Y-49133708D01*
X67953354Y-49222737D01*
X67960199Y-49248283D01*
X67960200Y-49248286D01*
X67960201Y-49248287D01*
X68019511Y-49351014D01*
X68019513Y-49351016D01*
X68170017Y-49501520D01*
X68203502Y-49562843D01*
X68198518Y-49632535D01*
X68156646Y-49688468D01*
X68120655Y-49707132D01*
X67957550Y-49760128D01*
X67803211Y-49838768D01*
X67725070Y-49895542D01*
X67663072Y-49940586D01*
X67663070Y-49940588D01*
X67663069Y-49940588D01*
X67540588Y-50063069D01*
X67540588Y-50063070D01*
X67540586Y-50063072D01*
X67533725Y-50072516D01*
X67438768Y-50203211D01*
X67360128Y-50357552D01*
X67306597Y-50522302D01*
X67296349Y-50587007D01*
X67279500Y-50693389D01*
X67279500Y-50866611D01*
X67306598Y-51037701D01*
X67360127Y-51202445D01*
X67438768Y-51356788D01*
X67540586Y-51496928D01*
X67663072Y-51619414D01*
X67803212Y-51721232D01*
X67957555Y-51799873D01*
X68122299Y-51853402D01*
X68293389Y-51880500D01*
X68293390Y-51880500D01*
X68466610Y-51880500D01*
X68466611Y-51880500D01*
X68637701Y-51853402D01*
X68802445Y-51799873D01*
X68956788Y-51721232D01*
X68967722Y-51713287D01*
X69002714Y-51687865D01*
X69068520Y-51664384D01*
X69136574Y-51680209D01*
X69185269Y-51730314D01*
X69199600Y-51788182D01*
X69199600Y-54709409D01*
X69213715Y-54762086D01*
X69230301Y-54823987D01*
X69289611Y-54926714D01*
X69289613Y-54926716D01*
X70916665Y-56553768D01*
X70950150Y-56615091D01*
X70946915Y-56679767D01*
X70926598Y-56742294D01*
X70926598Y-56742297D01*
X70924496Y-56755571D01*
X70899500Y-56913389D01*
X70899500Y-57086611D01*
X70926598Y-57257701D01*
X70980127Y-57422445D01*
X71058768Y-57576788D01*
X71160586Y-57716928D01*
X71283072Y-57839414D01*
X71423212Y-57941232D01*
X71577555Y-58019873D01*
X71742299Y-58073402D01*
X71913389Y-58100500D01*
X71913390Y-58100500D01*
X72086610Y-58100500D01*
X72086611Y-58100500D01*
X72257701Y-58073402D01*
X72422445Y-58019873D01*
X72576788Y-57941232D01*
X72716928Y-57839414D01*
X72839414Y-57716928D01*
X72941232Y-57576788D01*
X73019873Y-57422445D01*
X73073402Y-57257701D01*
X73100500Y-57086611D01*
X73100500Y-56913389D01*
X73073402Y-56742299D01*
X73019873Y-56577555D01*
X72941232Y-56423212D01*
X72839414Y-56283072D01*
X72716928Y-56160586D01*
X72576788Y-56058768D01*
X72422445Y-55980127D01*
X72257701Y-55926598D01*
X72257699Y-55926597D01*
X72257698Y-55926597D01*
X72121589Y-55905040D01*
X72086611Y-55899500D01*
X71913389Y-55899500D01*
X71878411Y-55905040D01*
X71742297Y-55926598D01*
X71742294Y-55926598D01*
X71679767Y-55946915D01*
X71609926Y-55948910D01*
X71553768Y-55916665D01*
X70136919Y-54499816D01*
X70103434Y-54438493D01*
X70100600Y-54412135D01*
X70100600Y-52030258D01*
X70120285Y-51963219D01*
X70173089Y-51917464D01*
X70242247Y-51907520D01*
X70283055Y-51920901D01*
X70347796Y-51955507D01*
X70347799Y-51955508D01*
X70493387Y-52015814D01*
X70588135Y-52044555D01*
X70742699Y-52075298D01*
X70841210Y-52085000D01*
X70998790Y-52085000D01*
X71097299Y-52075298D01*
X71097302Y-52075298D01*
X71251864Y-52044555D01*
X71346612Y-52015814D01*
X71492198Y-51955509D01*
X71579501Y-51908844D01*
X71579511Y-51908838D01*
X71648912Y-51862465D01*
X71049409Y-51262962D01*
X71112993Y-51245925D01*
X71227007Y-51180099D01*
X71320099Y-51087007D01*
X71385925Y-50972993D01*
X71402962Y-50909409D01*
X72002465Y-51508912D01*
X72048838Y-51439511D01*
X72048844Y-51439501D01*
X72095509Y-51352198D01*
X72155815Y-51206609D01*
X72179144Y-51129702D01*
X72217441Y-51071263D01*
X72281253Y-51042806D01*
X72350320Y-51053365D01*
X72402714Y-51099589D01*
X72415735Y-51127375D01*
X72427239Y-51162782D01*
X72440128Y-51202449D01*
X72516429Y-51352198D01*
X72518768Y-51356788D01*
X72620586Y-51496928D01*
X72743072Y-51619414D01*
X72883212Y-51721232D01*
X73037555Y-51799873D01*
X73202299Y-51853402D01*
X73373389Y-51880500D01*
X73373390Y-51880500D01*
X73546610Y-51880500D01*
X73546611Y-51880500D01*
X73717701Y-51853402D01*
X73882445Y-51799873D01*
X74036788Y-51721232D01*
X74176928Y-51619414D01*
X74299414Y-51496928D01*
X74401232Y-51356788D01*
X74479873Y-51202445D01*
X74533402Y-51037701D01*
X74560500Y-50866611D01*
X74560500Y-50693389D01*
X74899500Y-50693389D01*
X74899500Y-50866611D01*
X74926598Y-51037701D01*
X74980127Y-51202445D01*
X75058768Y-51356788D01*
X75160586Y-51496928D01*
X75283072Y-51619414D01*
X75423212Y-51721232D01*
X75577555Y-51799873D01*
X75742299Y-51853402D01*
X75913389Y-51880500D01*
X75913390Y-51880500D01*
X76086610Y-51880500D01*
X76086611Y-51880500D01*
X76257701Y-51853402D01*
X76422445Y-51799873D01*
X76576788Y-51721232D01*
X76716928Y-51619414D01*
X76839414Y-51496928D01*
X76941232Y-51356788D01*
X77019873Y-51202445D01*
X77073402Y-51037701D01*
X77100500Y-50866611D01*
X77100500Y-50693389D01*
X77073402Y-50522299D01*
X77019873Y-50357555D01*
X76941232Y-50203212D01*
X76839414Y-50063072D01*
X76716928Y-49940586D01*
X76576788Y-49838768D01*
X76544766Y-49822452D01*
X76422447Y-49760128D01*
X76422446Y-49760127D01*
X76422445Y-49760127D01*
X76257701Y-49706598D01*
X76257699Y-49706597D01*
X76257698Y-49706597D01*
X76126271Y-49685781D01*
X76086611Y-49679500D01*
X75913389Y-49679500D01*
X75873728Y-49685781D01*
X75742302Y-49706597D01*
X75739200Y-49707605D01*
X75590097Y-49756052D01*
X75577552Y-49760128D01*
X75423211Y-49838768D01*
X75345070Y-49895542D01*
X75283072Y-49940586D01*
X75283070Y-49940588D01*
X75283069Y-49940588D01*
X75160588Y-50063069D01*
X75160588Y-50063070D01*
X75160586Y-50063072D01*
X75153725Y-50072516D01*
X75058768Y-50203211D01*
X74980128Y-50357552D01*
X74926597Y-50522302D01*
X74916349Y-50587007D01*
X74899500Y-50693389D01*
X74560500Y-50693389D01*
X74533402Y-50522299D01*
X74479873Y-50357555D01*
X74401232Y-50203212D01*
X74299414Y-50063072D01*
X74176928Y-49940586D01*
X74036788Y-49838768D01*
X74004766Y-49822452D01*
X73882447Y-49760128D01*
X73882446Y-49760127D01*
X73882445Y-49760127D01*
X73717701Y-49706598D01*
X73717699Y-49706597D01*
X73717698Y-49706597D01*
X73586271Y-49685781D01*
X73546611Y-49679500D01*
X73373389Y-49679500D01*
X73333728Y-49685781D01*
X73202302Y-49706597D01*
X73199200Y-49707605D01*
X73050097Y-49756052D01*
X73037552Y-49760128D01*
X72883211Y-49838768D01*
X72805070Y-49895542D01*
X72743072Y-49940586D01*
X72743070Y-49940588D01*
X72743069Y-49940588D01*
X72620588Y-50063069D01*
X72620588Y-50063070D01*
X72620586Y-50063072D01*
X72613725Y-50072516D01*
X72518768Y-50203211D01*
X72459485Y-50319562D01*
X72411511Y-50370358D01*
X72343690Y-50387153D01*
X72277555Y-50364616D01*
X72234103Y-50309901D01*
X72225000Y-50263267D01*
X72225000Y-50140214D01*
X72222106Y-50086237D01*
X72222106Y-50086235D01*
X72186558Y-49946960D01*
X72163136Y-49890415D01*
X72163135Y-49890415D01*
X71402962Y-50650589D01*
X71385925Y-50587007D01*
X71320099Y-50472993D01*
X71227007Y-50379901D01*
X71112993Y-50314075D01*
X71049410Y-50297037D01*
X71809583Y-49536863D01*
X71809583Y-49536862D01*
X71753052Y-49513447D01*
X71753035Y-49513440D01*
X71702053Y-49495455D01*
X71559780Y-49475000D01*
X70280214Y-49475000D01*
X70226237Y-49477893D01*
X70226235Y-49477893D01*
X70086969Y-49513438D01*
X70086956Y-49513442D01*
X70030415Y-49536862D01*
X70790590Y-50297037D01*
X70727007Y-50314075D01*
X70612993Y-50379901D01*
X70519901Y-50472993D01*
X70454075Y-50587007D01*
X70437037Y-50650590D01*
X70134694Y-50348247D01*
X70128371Y-50338219D01*
X70121840Y-50333152D01*
X70111639Y-50311683D01*
X70105463Y-50301888D01*
X70100600Y-50288129D01*
X70100600Y-50285191D01*
X70069899Y-50170614D01*
X70047679Y-50132128D01*
X70021185Y-50086237D01*
X70010592Y-50067889D01*
X70010588Y-50067884D01*
X69144385Y-49201681D01*
X69110900Y-49140358D01*
X69115884Y-49070666D01*
X69157756Y-49014733D01*
X69223220Y-48990316D01*
X69232066Y-48990000D01*
X73209895Y-48990000D01*
X76822662Y-44337944D01*
X76879328Y-44297069D01*
X76920598Y-44290000D01*
X77870000Y-44290000D01*
X77870000Y-39490000D01*
X76920598Y-39490000D01*
X76853559Y-39470315D01*
X76822662Y-39442056D01*
X73209895Y-34790000D01*
X68954500Y-34790000D01*
X68887461Y-34770315D01*
X68841706Y-34717511D01*
X68830500Y-34666000D01*
X68830500Y-34081565D01*
X68850185Y-34014526D01*
X68898204Y-33971081D01*
X68956788Y-33941232D01*
X69096928Y-33839414D01*
X69219414Y-33716928D01*
X69321232Y-33576788D01*
X69375593Y-33470098D01*
X69380515Y-33460438D01*
X69428489Y-33409641D01*
X69496310Y-33392846D01*
X69562445Y-33415383D01*
X69605897Y-33470098D01*
X69615000Y-33516732D01*
X69615000Y-33639785D01*
X69617893Y-33693762D01*
X69617893Y-33693764D01*
X69653438Y-33833030D01*
X69653440Y-33833037D01*
X69676863Y-33889583D01*
X70437037Y-33129409D01*
X70454075Y-33192993D01*
X70519901Y-33307007D01*
X70612993Y-33400099D01*
X70727007Y-33465925D01*
X70790590Y-33482962D01*
X70030415Y-34243135D01*
X70030415Y-34243136D01*
X70086946Y-34266552D01*
X70137946Y-34284544D01*
X70280219Y-34304999D01*
X70280221Y-34305000D01*
X71559786Y-34305000D01*
X71613762Y-34302106D01*
X71613764Y-34302106D01*
X71753023Y-34266563D01*
X71753035Y-34266559D01*
X71809582Y-34243135D01*
X71049409Y-33482962D01*
X71112993Y-33465925D01*
X71227007Y-33400099D01*
X71320099Y-33307007D01*
X71385925Y-33192993D01*
X71402962Y-33129409D01*
X72163135Y-33889582D01*
X72163137Y-33889582D01*
X72186552Y-33833053D01*
X72204544Y-33782053D01*
X72224999Y-33639780D01*
X72225000Y-33639779D01*
X72225000Y-33516732D01*
X72244685Y-33449693D01*
X72297489Y-33403938D01*
X72366647Y-33393994D01*
X72430203Y-33423019D01*
X72459485Y-33460438D01*
X72518766Y-33576786D01*
X72519323Y-33577552D01*
X72620586Y-33716928D01*
X72743072Y-33839414D01*
X72883212Y-33941232D01*
X73037555Y-34019873D01*
X73202299Y-34073402D01*
X73373389Y-34100500D01*
X73373390Y-34100500D01*
X73546610Y-34100500D01*
X73546611Y-34100500D01*
X73717701Y-34073402D01*
X73882445Y-34019873D01*
X74036788Y-33941232D01*
X74176928Y-33839414D01*
X74285491Y-33730850D01*
X74346810Y-33697368D01*
X74416502Y-33702352D01*
X74460850Y-33730853D01*
X82053181Y-41323184D01*
X82086666Y-41384507D01*
X82089500Y-41410865D01*
X82089500Y-73862316D01*
X82069815Y-73929355D01*
X82021796Y-73972800D01*
X81937004Y-74016004D01*
X81790505Y-74122441D01*
X81790500Y-74122445D01*
X81662445Y-74250500D01*
X81662441Y-74250505D01*
X81556006Y-74397002D01*
X81473788Y-74558360D01*
X81473787Y-74558363D01*
X81417829Y-74730589D01*
X81396972Y-74862271D01*
X81367042Y-74925405D01*
X81307731Y-74962336D01*
X81237868Y-74961338D01*
X81179636Y-74922728D01*
X81151522Y-74858764D01*
X81150499Y-74842872D01*
X81150499Y-74105143D01*
X81150499Y-74105136D01*
X81147645Y-74080523D01*
X81147586Y-74080012D01*
X81147585Y-74080010D01*
X81147585Y-74080009D01*
X81102206Y-73977235D01*
X81022765Y-73897794D01*
X81008422Y-73891461D01*
X80919992Y-73852415D01*
X80894865Y-73849500D01*
X79105143Y-73849500D01*
X79105117Y-73849502D01*
X79080012Y-73852413D01*
X79080008Y-73852415D01*
X78977235Y-73897793D01*
X78897794Y-73977234D01*
X78852415Y-74080006D01*
X78852415Y-74080008D01*
X78849500Y-74105131D01*
X78849500Y-75894856D01*
X78849502Y-75894882D01*
X78852413Y-75919987D01*
X78852415Y-75919991D01*
X78897793Y-76022764D01*
X78897794Y-76022765D01*
X78977235Y-76102206D01*
X79080009Y-76147585D01*
X79105135Y-76150500D01*
X80894864Y-76150499D01*
X80894879Y-76150497D01*
X80894882Y-76150497D01*
X80919987Y-76147586D01*
X80919988Y-76147585D01*
X80919991Y-76147585D01*
X81022765Y-76102206D01*
X81102206Y-76022765D01*
X81147585Y-75919991D01*
X81150500Y-75894865D01*
X81150499Y-75157125D01*
X81170183Y-75090089D01*
X81222987Y-75044334D01*
X81292146Y-75034390D01*
X81355702Y-75063415D01*
X81393476Y-75122193D01*
X81396972Y-75137729D01*
X81417829Y-75269410D01*
X81473787Y-75441636D01*
X81473788Y-75441639D01*
X81556006Y-75602997D01*
X81662441Y-75749494D01*
X81662445Y-75749499D01*
X81790500Y-75877554D01*
X81790505Y-75877558D01*
X81914565Y-75967692D01*
X81937006Y-75983996D01*
X82013094Y-76022765D01*
X82098360Y-76066211D01*
X82098363Y-76066212D01*
X82173947Y-76090770D01*
X82270591Y-76122171D01*
X82353429Y-76135291D01*
X82449449Y-76150500D01*
X82449454Y-76150500D01*
X82630551Y-76150500D01*
X82717259Y-76136765D01*
X82809409Y-76122171D01*
X82981639Y-76066211D01*
X83142994Y-75983996D01*
X83289501Y-75877553D01*
X83417553Y-75749501D01*
X83523996Y-75602994D01*
X83606211Y-75441639D01*
X83662171Y-75269409D01*
X83676422Y-75179425D01*
X83687527Y-75109321D01*
X83717456Y-75046186D01*
X83776768Y-75009255D01*
X83846630Y-75010253D01*
X83904863Y-75048863D01*
X83932473Y-75109321D01*
X83957829Y-75269410D01*
X84013787Y-75441636D01*
X84013788Y-75441639D01*
X84096006Y-75602997D01*
X84202441Y-75749494D01*
X84202445Y-75749499D01*
X84330500Y-75877554D01*
X84330505Y-75877558D01*
X84454565Y-75967692D01*
X84477006Y-75983996D01*
X84553094Y-76022765D01*
X84638360Y-76066211D01*
X84638363Y-76066212D01*
X84713947Y-76090770D01*
X84810591Y-76122171D01*
X84893429Y-76135291D01*
X84989449Y-76150500D01*
X84989454Y-76150500D01*
X85170551Y-76150500D01*
X85257259Y-76136765D01*
X85349409Y-76122171D01*
X85521639Y-76066211D01*
X85682994Y-75983996D01*
X85829501Y-75877553D01*
X85957553Y-75749501D01*
X86063996Y-75602994D01*
X86146211Y-75441639D01*
X86202171Y-75269409D01*
X86216765Y-75177259D01*
X86230500Y-75090551D01*
X86230500Y-74909448D01*
X86209562Y-74777256D01*
X86202171Y-74730591D01*
X86161605Y-74605739D01*
X86146212Y-74558363D01*
X86146211Y-74558360D01*
X86107191Y-74481781D01*
X86063996Y-74397006D01*
X86050396Y-74378287D01*
X85957558Y-74250505D01*
X85957554Y-74250500D01*
X85829499Y-74122445D01*
X85829494Y-74122441D01*
X85682997Y-74016006D01*
X85682996Y-74016005D01*
X85682994Y-74016004D01*
X85606906Y-73977235D01*
X85521639Y-73933788D01*
X85521636Y-73933787D01*
X85349410Y-73877829D01*
X85170551Y-73849500D01*
X85170546Y-73849500D01*
X84989454Y-73849500D01*
X84989449Y-73849500D01*
X84810589Y-73877829D01*
X84638363Y-73933787D01*
X84638360Y-73933788D01*
X84477002Y-74016006D01*
X84330505Y-74122441D01*
X84330500Y-74122445D01*
X84202445Y-74250500D01*
X84202441Y-74250505D01*
X84096006Y-74397002D01*
X84013788Y-74558360D01*
X84013787Y-74558363D01*
X83957829Y-74730589D01*
X83932473Y-74890678D01*
X83902544Y-74953813D01*
X83843232Y-74990744D01*
X83773369Y-74989746D01*
X83715137Y-74951136D01*
X83687527Y-74890678D01*
X83666829Y-74760000D01*
X83662171Y-74730591D01*
X83621605Y-74605739D01*
X83606212Y-74558363D01*
X83606211Y-74558360D01*
X83567191Y-74481781D01*
X83523996Y-74397006D01*
X83510396Y-74378287D01*
X83417558Y-74250505D01*
X83417554Y-74250500D01*
X83289499Y-74122445D01*
X83289494Y-74122441D01*
X83142995Y-74016004D01*
X83058204Y-73972800D01*
X83007409Y-73924826D01*
X82990500Y-73862316D01*
X82990500Y-69878711D01*
X110149500Y-69878711D01*
X110149500Y-70121288D01*
X110181161Y-70361785D01*
X110243947Y-70596104D01*
X110336773Y-70820205D01*
X110336776Y-70820212D01*
X110458064Y-71030289D01*
X110458066Y-71030292D01*
X110458067Y-71030293D01*
X110605733Y-71222736D01*
X110605739Y-71222743D01*
X110777256Y-71394260D01*
X110777262Y-71394265D01*
X110969711Y-71541936D01*
X111179788Y-71663224D01*
X111403900Y-71756054D01*
X111638211Y-71818838D01*
X111818586Y-71842584D01*
X111878711Y-71850500D01*
X111878712Y-71850500D01*
X112121289Y-71850500D01*
X112169388Y-71844167D01*
X112361789Y-71818838D01*
X112596100Y-71756054D01*
X112820212Y-71663224D01*
X113030289Y-71541936D01*
X113222738Y-71394265D01*
X113394265Y-71222738D01*
X113541936Y-71030289D01*
X113663224Y-70820212D01*
X113756054Y-70596100D01*
X113818838Y-70361789D01*
X113850500Y-70121288D01*
X113850500Y-69878712D01*
X113818838Y-69638211D01*
X113756054Y-69403900D01*
X113663224Y-69179788D01*
X113541936Y-68969711D01*
X113431753Y-68826117D01*
X113394266Y-68777263D01*
X113394260Y-68777256D01*
X113222743Y-68605739D01*
X113222736Y-68605733D01*
X113030293Y-68458067D01*
X113030292Y-68458066D01*
X113030289Y-68458064D01*
X112820212Y-68336776D01*
X112820205Y-68336773D01*
X112596104Y-68243947D01*
X112361785Y-68181161D01*
X112121289Y-68149500D01*
X112121288Y-68149500D01*
X111878712Y-68149500D01*
X111878711Y-68149500D01*
X111638214Y-68181161D01*
X111403895Y-68243947D01*
X111179794Y-68336773D01*
X111179785Y-68336777D01*
X110969706Y-68458067D01*
X110777263Y-68605733D01*
X110777256Y-68605739D01*
X110605739Y-68777256D01*
X110605733Y-68777263D01*
X110458067Y-68969706D01*
X110336777Y-69179785D01*
X110336773Y-69179794D01*
X110243947Y-69403895D01*
X110181161Y-69638214D01*
X110149500Y-69878711D01*
X82990500Y-69878711D01*
X82990500Y-47878711D01*
X110149500Y-47878711D01*
X110149500Y-48121288D01*
X110181161Y-48361785D01*
X110243947Y-48596104D01*
X110336773Y-48820205D01*
X110336776Y-48820212D01*
X110458064Y-49030289D01*
X110458066Y-49030292D01*
X110458067Y-49030293D01*
X110605733Y-49222736D01*
X110605739Y-49222743D01*
X110777256Y-49394260D01*
X110777262Y-49394265D01*
X110969711Y-49541936D01*
X111179788Y-49663224D01*
X111403900Y-49756054D01*
X111638211Y-49818838D01*
X111789711Y-49838783D01*
X111878711Y-49850500D01*
X111878712Y-49850500D01*
X112121289Y-49850500D01*
X112169388Y-49844167D01*
X112361789Y-49818838D01*
X112596100Y-49756054D01*
X112820212Y-49663224D01*
X113030289Y-49541936D01*
X113222738Y-49394265D01*
X113394265Y-49222738D01*
X113541936Y-49030289D01*
X113663224Y-48820212D01*
X113756054Y-48596100D01*
X113818838Y-48361789D01*
X113850500Y-48121288D01*
X113850500Y-47878712D01*
X113818838Y-47638211D01*
X113756054Y-47403900D01*
X113663224Y-47179788D01*
X113541936Y-46969711D01*
X113394265Y-46777262D01*
X113394260Y-46777256D01*
X113222743Y-46605739D01*
X113222736Y-46605733D01*
X113030293Y-46458067D01*
X113030292Y-46458066D01*
X113030289Y-46458064D01*
X112820212Y-46336776D01*
X112820205Y-46336773D01*
X112596104Y-46243947D01*
X112361785Y-46181161D01*
X112121289Y-46149500D01*
X112121288Y-46149500D01*
X111878712Y-46149500D01*
X111878711Y-46149500D01*
X111638214Y-46181161D01*
X111403895Y-46243947D01*
X111179794Y-46336773D01*
X111179785Y-46336777D01*
X110969706Y-46458067D01*
X110777263Y-46605733D01*
X110777256Y-46605739D01*
X110605739Y-46777256D01*
X110605733Y-46777263D01*
X110458067Y-46969706D01*
X110336777Y-47179785D01*
X110336773Y-47179794D01*
X110243947Y-47403895D01*
X110181161Y-47638214D01*
X110149500Y-47878711D01*
X82990500Y-47878711D01*
X82990500Y-41113593D01*
X82990500Y-41113591D01*
X82959799Y-40999014D01*
X82959799Y-40999013D01*
X82900489Y-40896286D01*
X76264853Y-34260650D01*
X76231368Y-34199327D01*
X76236352Y-34129635D01*
X76278224Y-34073702D01*
X76314210Y-34055040D01*
X76422445Y-34019873D01*
X76576788Y-33941232D01*
X76615110Y-33913389D01*
X80899500Y-33913389D01*
X80899500Y-34086610D01*
X80913401Y-34174382D01*
X80926598Y-34257701D01*
X80980127Y-34422445D01*
X81058768Y-34576788D01*
X81160586Y-34716928D01*
X81283072Y-34839414D01*
X81423212Y-34941232D01*
X81577555Y-35019873D01*
X81742299Y-35073402D01*
X81913389Y-35100500D01*
X81913390Y-35100500D01*
X82086610Y-35100500D01*
X82086611Y-35100500D01*
X82257701Y-35073402D01*
X82422445Y-35019873D01*
X82576788Y-34941232D01*
X82716928Y-34839414D01*
X82839414Y-34716928D01*
X82941232Y-34576788D01*
X83019873Y-34422445D01*
X83073402Y-34257701D01*
X83100500Y-34086611D01*
X83100500Y-33913389D01*
X83073402Y-33742299D01*
X83019873Y-33577555D01*
X82941232Y-33423212D01*
X82839414Y-33283072D01*
X82716928Y-33160586D01*
X82576788Y-33058768D01*
X82422445Y-32980127D01*
X82257701Y-32926598D01*
X82257699Y-32926597D01*
X82257698Y-32926597D01*
X82126271Y-32905781D01*
X82086611Y-32899500D01*
X81913389Y-32899500D01*
X81873728Y-32905781D01*
X81742302Y-32926597D01*
X81577552Y-32980128D01*
X81423211Y-33058768D01*
X81343256Y-33116859D01*
X81283072Y-33160586D01*
X81283070Y-33160588D01*
X81283069Y-33160588D01*
X81160588Y-33283069D01*
X81160588Y-33283070D01*
X81160586Y-33283072D01*
X81143196Y-33307007D01*
X81058768Y-33423211D01*
X80980128Y-33577552D01*
X80926597Y-33742302D01*
X80899500Y-33913389D01*
X76615110Y-33913389D01*
X76716928Y-33839414D01*
X76839414Y-33716928D01*
X76941232Y-33576788D01*
X77019873Y-33422445D01*
X77073402Y-33257701D01*
X77100500Y-33086611D01*
X77100500Y-32913389D01*
X77073402Y-32742299D01*
X77053082Y-32679764D01*
X77051087Y-32609927D01*
X77083331Y-32553770D01*
X79150285Y-30486819D01*
X79211608Y-30453334D01*
X79237966Y-30450500D01*
X80918435Y-30450500D01*
X80985474Y-30470185D01*
X81028918Y-30518204D01*
X81045373Y-30550499D01*
X81058766Y-30576785D01*
X81058770Y-30576792D01*
X81101100Y-30635053D01*
X81160586Y-30716928D01*
X81283072Y-30839414D01*
X81423212Y-30941232D01*
X81577555Y-31019873D01*
X81742299Y-31073402D01*
X81913389Y-31100500D01*
X81913390Y-31100500D01*
X82086610Y-31100500D01*
X82086611Y-31100500D01*
X82257701Y-31073402D01*
X82422445Y-31019873D01*
X82576788Y-30941232D01*
X82716928Y-30839414D01*
X82839414Y-30716928D01*
X82941232Y-30576788D01*
X83019873Y-30422445D01*
X83073402Y-30257701D01*
X83100500Y-30086611D01*
X83100500Y-29913389D01*
X91059500Y-29913389D01*
X91059500Y-30086610D01*
X91081745Y-30227065D01*
X91086598Y-30257701D01*
X91140127Y-30422445D01*
X91218768Y-30576788D01*
X91320586Y-30716928D01*
X91443072Y-30839414D01*
X91522186Y-30896894D01*
X91583207Y-30941229D01*
X91583211Y-30941231D01*
X91583212Y-30941232D01*
X91641795Y-30971081D01*
X91692590Y-31019053D01*
X91709500Y-31081565D01*
X91709500Y-32918433D01*
X91689815Y-32985472D01*
X91641796Y-33028917D01*
X91583214Y-33058766D01*
X91513142Y-33109677D01*
X91443072Y-33160586D01*
X91443070Y-33160588D01*
X91443069Y-33160588D01*
X91320588Y-33283069D01*
X91320588Y-33283070D01*
X91320586Y-33283072D01*
X91303196Y-33307007D01*
X91218768Y-33423211D01*
X91140128Y-33577552D01*
X91086597Y-33742302D01*
X91059500Y-33913389D01*
X91059500Y-34086610D01*
X91073401Y-34174382D01*
X91086598Y-34257701D01*
X91140127Y-34422445D01*
X91218768Y-34576788D01*
X91320586Y-34716928D01*
X91443072Y-34839414D01*
X91583212Y-34941232D01*
X91737555Y-35019873D01*
X91902299Y-35073402D01*
X92073389Y-35100500D01*
X92073390Y-35100500D01*
X92246610Y-35100500D01*
X92246611Y-35100500D01*
X92417701Y-35073402D01*
X92582445Y-35019873D01*
X92736788Y-34941232D01*
X92876928Y-34839414D01*
X92999414Y-34716928D01*
X93101232Y-34576788D01*
X93179873Y-34422445D01*
X93233402Y-34257701D01*
X93260500Y-34086611D01*
X93260500Y-33913389D01*
X93233402Y-33742299D01*
X93179873Y-33577555D01*
X93101232Y-33423212D01*
X92999414Y-33283072D01*
X92876928Y-33160586D01*
X92736788Y-33058768D01*
X92736787Y-33058767D01*
X92736785Y-33058766D01*
X92678204Y-33028917D01*
X92627409Y-32980943D01*
X92610500Y-32918433D01*
X92610500Y-31081565D01*
X92630185Y-31014526D01*
X92678204Y-30971081D01*
X92736788Y-30941232D01*
X92876928Y-30839414D01*
X92999414Y-30716928D01*
X93101232Y-30576788D01*
X93179873Y-30422445D01*
X93233402Y-30257701D01*
X93260500Y-30086611D01*
X93260500Y-29913389D01*
X93233402Y-29742299D01*
X93179873Y-29577555D01*
X93101232Y-29423212D01*
X92999414Y-29283072D01*
X92876928Y-29160586D01*
X92736788Y-29058768D01*
X92582445Y-28980127D01*
X92417701Y-28926598D01*
X92417699Y-28926597D01*
X92417698Y-28926597D01*
X92286271Y-28905781D01*
X92246611Y-28899500D01*
X92073389Y-28899500D01*
X92033728Y-28905781D01*
X91902302Y-28926597D01*
X91902299Y-28926598D01*
X91774986Y-28967965D01*
X91737552Y-28980128D01*
X91583211Y-29058768D01*
X91555205Y-29079116D01*
X91443072Y-29160586D01*
X91443070Y-29160588D01*
X91443069Y-29160588D01*
X91320588Y-29283069D01*
X91320588Y-29283070D01*
X91320586Y-29283072D01*
X91287721Y-29328307D01*
X91218768Y-29423211D01*
X91140128Y-29577552D01*
X91086597Y-29742302D01*
X91059500Y-29913389D01*
X83100500Y-29913389D01*
X83073402Y-29742299D01*
X83019873Y-29577555D01*
X82941232Y-29423212D01*
X82839414Y-29283072D01*
X82716928Y-29160586D01*
X82576788Y-29058768D01*
X82422445Y-28980127D01*
X82257701Y-28926598D01*
X82257699Y-28926597D01*
X82257698Y-28926597D01*
X82126271Y-28905781D01*
X82086611Y-28899500D01*
X81913389Y-28899500D01*
X81873728Y-28905781D01*
X81742302Y-28926597D01*
X81742299Y-28926598D01*
X81614986Y-28967965D01*
X81577552Y-28980128D01*
X81423211Y-29058768D01*
X81395205Y-29079116D01*
X81283072Y-29160586D01*
X81283070Y-29160588D01*
X81283069Y-29160588D01*
X81160588Y-29283069D01*
X81160588Y-29283070D01*
X81160586Y-29283072D01*
X81135040Y-29318232D01*
X81058770Y-29423207D01*
X81058766Y-29423214D01*
X81040000Y-29460046D01*
X81028918Y-29481795D01*
X80980947Y-29532590D01*
X80918435Y-29549500D01*
X78940691Y-29549500D01*
X78850325Y-29573713D01*
X78850324Y-29573712D01*
X78826115Y-29580200D01*
X78826106Y-29580204D01*
X78723392Y-29639505D01*
X78723384Y-29639511D01*
X76446230Y-31916665D01*
X76384907Y-31950150D01*
X76320232Y-31946915D01*
X76257702Y-31926598D01*
X76257698Y-31926597D01*
X76124020Y-31905425D01*
X76086611Y-31899500D01*
X75913389Y-31899500D01*
X75875980Y-31905425D01*
X75742302Y-31926597D01*
X75577552Y-31980128D01*
X75423212Y-32058767D01*
X75377385Y-32092063D01*
X75311578Y-32115542D01*
X75243524Y-32099716D01*
X75194830Y-32049610D01*
X75180500Y-31991744D01*
X75180500Y-28670692D01*
X75156286Y-28580325D01*
X75156286Y-28580324D01*
X75151132Y-28561089D01*
X75149799Y-28556113D01*
X75090489Y-28453386D01*
X73083333Y-26446230D01*
X73049848Y-26384907D01*
X73053083Y-26320231D01*
X73073402Y-26257701D01*
X73100500Y-26086611D01*
X73100500Y-25913389D01*
X75899500Y-25913389D01*
X75899500Y-26086610D01*
X75926597Y-26257697D01*
X75926597Y-26257699D01*
X75926598Y-26257701D01*
X75980127Y-26422445D01*
X76058768Y-26576788D01*
X76160586Y-26716928D01*
X76283072Y-26839414D01*
X76423212Y-26941232D01*
X76577555Y-27019873D01*
X76742299Y-27073402D01*
X76913389Y-27100500D01*
X76913390Y-27100500D01*
X77086610Y-27100500D01*
X77086611Y-27100500D01*
X77194999Y-27083333D01*
X77240257Y-27076165D01*
X77243435Y-27075661D01*
X77257701Y-27073402D01*
X77422445Y-27019873D01*
X77576788Y-26941232D01*
X77716928Y-26839414D01*
X77839414Y-26716928D01*
X77941232Y-26576788D01*
X78019873Y-26422445D01*
X78073402Y-26257701D01*
X78100500Y-26086611D01*
X78100500Y-25913389D01*
X78073402Y-25742299D01*
X78019873Y-25577555D01*
X77941232Y-25423212D01*
X77839414Y-25283072D01*
X77716928Y-25160586D01*
X77576788Y-25058768D01*
X77422445Y-24980127D01*
X77257701Y-24926598D01*
X77257699Y-24926597D01*
X77257698Y-24926597D01*
X77126271Y-24905781D01*
X77086611Y-24899500D01*
X76913389Y-24899500D01*
X76873728Y-24905781D01*
X76742302Y-24926597D01*
X76577552Y-24980128D01*
X76423211Y-25058768D01*
X76343256Y-25116859D01*
X76283072Y-25160586D01*
X76283070Y-25160588D01*
X76283069Y-25160588D01*
X76160588Y-25283069D01*
X76160588Y-25283070D01*
X76160586Y-25283072D01*
X76116859Y-25343256D01*
X76058768Y-25423211D01*
X75980128Y-25577552D01*
X75926597Y-25742302D01*
X75899500Y-25913389D01*
X73100500Y-25913389D01*
X73073402Y-25742299D01*
X73019873Y-25577555D01*
X72941232Y-25423212D01*
X72839414Y-25283072D01*
X72716928Y-25160586D01*
X72576788Y-25058768D01*
X72422445Y-24980127D01*
X72257701Y-24926598D01*
X72257699Y-24926597D01*
X72257698Y-24926597D01*
X72126271Y-24905781D01*
X72086611Y-24899500D01*
X71913389Y-24899500D01*
X71873728Y-24905781D01*
X71742302Y-24926597D01*
X71577552Y-24980128D01*
X71423211Y-25058768D01*
X71343256Y-25116859D01*
X71283072Y-25160586D01*
X71283070Y-25160588D01*
X71283069Y-25160588D01*
X71160588Y-25283069D01*
X71160588Y-25283070D01*
X71160586Y-25283072D01*
X71116859Y-25343256D01*
X71058768Y-25423211D01*
X70980128Y-25577552D01*
X70926597Y-25742302D01*
X70899500Y-25913389D01*
X70899500Y-26086610D01*
X70926597Y-26257697D01*
X70926597Y-26257699D01*
X70926598Y-26257701D01*
X70980127Y-26422445D01*
X71058768Y-26576788D01*
X71160586Y-26716928D01*
X71283072Y-26839414D01*
X71423212Y-26941232D01*
X71577555Y-27019873D01*
X71742299Y-27073402D01*
X71913389Y-27100500D01*
X71913390Y-27100500D01*
X72086610Y-27100500D01*
X72086611Y-27100500D01*
X72257701Y-27073402D01*
X72320231Y-27053083D01*
X72390070Y-27051087D01*
X72446230Y-27083333D01*
X74243181Y-28880284D01*
X74276666Y-28941607D01*
X74279500Y-28967965D01*
X74279500Y-31991744D01*
X74259815Y-32058783D01*
X74207011Y-32104538D01*
X74137853Y-32114482D01*
X74082615Y-32092063D01*
X74036787Y-32058767D01*
X73882447Y-31980128D01*
X73882446Y-31980127D01*
X73882445Y-31980127D01*
X73717701Y-31926598D01*
X73717699Y-31926597D01*
X73717698Y-31926597D01*
X73584020Y-31905425D01*
X73546611Y-31899500D01*
X73373389Y-31899500D01*
X73335980Y-31905425D01*
X73202302Y-31926597D01*
X73037552Y-31980128D01*
X72883211Y-32058768D01*
X72805070Y-32115542D01*
X72743072Y-32160586D01*
X72743070Y-32160588D01*
X72743069Y-32160588D01*
X72620588Y-32283069D01*
X72620588Y-32283070D01*
X72620586Y-32283072D01*
X72610142Y-32297447D01*
X72518768Y-32423211D01*
X72440128Y-32577550D01*
X72415736Y-32652622D01*
X72376298Y-32710297D01*
X72311939Y-32737495D01*
X72243092Y-32725580D01*
X72191617Y-32678335D01*
X72179144Y-32650298D01*
X72155814Y-32573387D01*
X72095509Y-32427801D01*
X72048841Y-32340493D01*
X72002465Y-32271086D01*
X72002465Y-32271085D01*
X71402962Y-32870589D01*
X71385925Y-32807007D01*
X71320099Y-32692993D01*
X71227007Y-32599901D01*
X71112993Y-32534075D01*
X71049410Y-32517037D01*
X71648913Y-31917534D01*
X71648912Y-31917533D01*
X71579506Y-31871158D01*
X71492198Y-31824490D01*
X71346612Y-31764185D01*
X71251864Y-31735444D01*
X71097300Y-31704701D01*
X70998790Y-31695000D01*
X70841210Y-31695000D01*
X70742700Y-31704701D01*
X70742697Y-31704701D01*
X70588135Y-31735444D01*
X70493387Y-31764185D01*
X70347801Y-31824490D01*
X70260488Y-31871161D01*
X70191086Y-31917532D01*
X70191085Y-31917533D01*
X70790590Y-32517037D01*
X70727007Y-32534075D01*
X70612993Y-32599901D01*
X70519901Y-32692993D01*
X70454075Y-32807007D01*
X70437037Y-32870589D01*
X69837533Y-32271085D01*
X69837532Y-32271086D01*
X69791161Y-32340488D01*
X69744490Y-32427801D01*
X69684183Y-32573394D01*
X69660854Y-32650299D01*
X69622557Y-32708737D01*
X69558744Y-32737194D01*
X69489677Y-32726633D01*
X69437284Y-32680408D01*
X69424265Y-32652625D01*
X69399873Y-32577555D01*
X69321232Y-32423212D01*
X69219414Y-32283072D01*
X69096928Y-32160586D01*
X68964073Y-32064061D01*
X68964073Y-32064060D01*
X68956790Y-32058769D01*
X68802447Y-31980128D01*
X68802446Y-31980127D01*
X68802445Y-31980127D01*
X68637701Y-31926598D01*
X68637699Y-31926597D01*
X68637698Y-31926597D01*
X68504020Y-31905425D01*
X68466611Y-31899500D01*
X68293389Y-31899500D01*
X68255980Y-31905425D01*
X68122302Y-31926597D01*
X67957552Y-31980128D01*
X67803211Y-32058768D01*
X67725070Y-32115542D01*
X67663072Y-32160586D01*
X67663070Y-32160588D01*
X67663069Y-32160588D01*
X67540588Y-32283069D01*
X67540588Y-32283070D01*
X67540586Y-32283072D01*
X67530142Y-32297447D01*
X67438768Y-32423211D01*
X67360128Y-32577552D01*
X67306597Y-32742302D01*
X67279500Y-32913389D01*
X66940500Y-32913389D01*
X66913402Y-32742299D01*
X66859873Y-32577555D01*
X66781232Y-32423212D01*
X66679414Y-32283072D01*
X66556928Y-32160586D01*
X66416788Y-32058768D01*
X66262445Y-31980127D01*
X66097701Y-31926598D01*
X66097699Y-31926597D01*
X66097698Y-31926597D01*
X65964020Y-31905425D01*
X65926611Y-31899500D01*
X65753389Y-31899500D01*
X65715980Y-31905425D01*
X65582302Y-31926597D01*
X65417552Y-31980128D01*
X65263211Y-32058768D01*
X65185070Y-32115542D01*
X65123072Y-32160586D01*
X65123070Y-32160588D01*
X65123069Y-32160588D01*
X65000588Y-32283069D01*
X65000588Y-32283070D01*
X65000586Y-32283072D01*
X64990142Y-32297447D01*
X64898768Y-32423211D01*
X64820128Y-32577552D01*
X64766597Y-32742302D01*
X64739500Y-32913389D01*
X64400500Y-32913389D01*
X64373402Y-32742299D01*
X64319873Y-32577555D01*
X64241232Y-32423212D01*
X64139414Y-32283072D01*
X64016928Y-32160586D01*
X63876788Y-32058768D01*
X63722445Y-31980127D01*
X63557701Y-31926598D01*
X63557699Y-31926597D01*
X63557698Y-31926597D01*
X63424020Y-31905425D01*
X63386611Y-31899500D01*
X63213389Y-31899500D01*
X63175980Y-31905425D01*
X63042302Y-31926597D01*
X62877552Y-31980128D01*
X62723211Y-32058768D01*
X62645070Y-32115542D01*
X62583072Y-32160586D01*
X62583070Y-32160588D01*
X62583069Y-32160588D01*
X62460588Y-32283069D01*
X62460588Y-32283070D01*
X62460586Y-32283072D01*
X62450142Y-32297447D01*
X62358768Y-32423211D01*
X62280128Y-32577552D01*
X62226597Y-32742302D01*
X62199500Y-32913389D01*
X61860500Y-32913389D01*
X61833402Y-32742299D01*
X61779873Y-32577555D01*
X61701232Y-32423212D01*
X61599414Y-32283072D01*
X61476928Y-32160586D01*
X61336788Y-32058768D01*
X61182445Y-31980127D01*
X61017701Y-31926598D01*
X61017699Y-31926597D01*
X61017698Y-31926597D01*
X60884020Y-31905425D01*
X60846611Y-31899500D01*
X60673389Y-31899500D01*
X60635980Y-31905425D01*
X60502302Y-31926597D01*
X60337552Y-31980128D01*
X60183211Y-32058768D01*
X60105070Y-32115542D01*
X60043072Y-32160586D01*
X60043070Y-32160588D01*
X60043069Y-32160588D01*
X59920588Y-32283069D01*
X59920588Y-32283070D01*
X59920586Y-32283072D01*
X59910142Y-32297447D01*
X59818768Y-32423211D01*
X59740128Y-32577550D01*
X59715736Y-32652622D01*
X59676298Y-32710297D01*
X59611939Y-32737495D01*
X59543092Y-32725580D01*
X59491617Y-32678335D01*
X59479144Y-32650298D01*
X59455814Y-32573387D01*
X59395509Y-32427801D01*
X59348841Y-32340493D01*
X59302465Y-32271086D01*
X59302465Y-32271085D01*
X58702962Y-32870589D01*
X58685925Y-32807007D01*
X58620099Y-32692993D01*
X58527007Y-32599901D01*
X58412993Y-32534075D01*
X58349410Y-32517037D01*
X58948913Y-31917534D01*
X58948912Y-31917533D01*
X58879506Y-31871158D01*
X58792198Y-31824490D01*
X58646612Y-31764185D01*
X58551864Y-31735444D01*
X58397300Y-31704701D01*
X58298790Y-31695000D01*
X58141210Y-31695000D01*
X58042700Y-31704701D01*
X58042697Y-31704701D01*
X57888135Y-31735444D01*
X57793387Y-31764185D01*
X57647801Y-31824490D01*
X57560488Y-31871161D01*
X57491086Y-31917532D01*
X57491085Y-31917533D01*
X58090590Y-32517037D01*
X58027007Y-32534075D01*
X57912993Y-32599901D01*
X57819901Y-32692993D01*
X57754075Y-32807007D01*
X57737037Y-32870590D01*
X57137533Y-32271085D01*
X57137532Y-32271086D01*
X57091161Y-32340488D01*
X57044490Y-32427801D01*
X56984183Y-32573394D01*
X56960854Y-32650299D01*
X56922557Y-32708737D01*
X56858744Y-32737194D01*
X56789677Y-32726633D01*
X56737284Y-32680408D01*
X56724265Y-32652625D01*
X56699873Y-32577555D01*
X56621232Y-32423212D01*
X56519414Y-32283072D01*
X56396928Y-32160586D01*
X56264073Y-32064061D01*
X56264073Y-32064060D01*
X56256790Y-32058769D01*
X56102447Y-31980128D01*
X56102446Y-31980127D01*
X56102445Y-31980127D01*
X55993911Y-31944862D01*
X55936237Y-31905425D01*
X55909039Y-31841067D01*
X55920954Y-31772220D01*
X55944547Y-31739254D01*
X61196984Y-26486819D01*
X61258307Y-26453334D01*
X61284665Y-26450500D01*
X62918435Y-26450500D01*
X62985474Y-26470185D01*
X63028918Y-26518204D01*
X63041008Y-26541932D01*
X63058766Y-26576785D01*
X63058770Y-26576792D01*
X63074676Y-26598684D01*
X63160586Y-26716928D01*
X63283072Y-26839414D01*
X63423212Y-26941232D01*
X63577555Y-27019873D01*
X63742299Y-27073402D01*
X63913389Y-27100500D01*
X63913390Y-27100500D01*
X64086610Y-27100500D01*
X64086611Y-27100500D01*
X64257701Y-27073402D01*
X64422445Y-27019873D01*
X64576788Y-26941232D01*
X64716928Y-26839414D01*
X64839414Y-26716928D01*
X64941232Y-26576788D01*
X65019873Y-26422445D01*
X65073402Y-26257701D01*
X65100500Y-26086611D01*
X65100500Y-25913389D01*
X67899500Y-25913389D01*
X67899500Y-26086610D01*
X67926597Y-26257697D01*
X67926597Y-26257699D01*
X67926598Y-26257701D01*
X67980127Y-26422445D01*
X68058768Y-26576788D01*
X68160586Y-26716928D01*
X68283072Y-26839414D01*
X68423212Y-26941232D01*
X68577555Y-27019873D01*
X68742299Y-27073402D01*
X68913389Y-27100500D01*
X68913390Y-27100500D01*
X69086610Y-27100500D01*
X69086611Y-27100500D01*
X69257701Y-27073402D01*
X69422445Y-27019873D01*
X69576788Y-26941232D01*
X69716928Y-26839414D01*
X69839414Y-26716928D01*
X69941232Y-26576788D01*
X70019873Y-26422445D01*
X70073402Y-26257701D01*
X70100500Y-26086611D01*
X70100500Y-25913389D01*
X70073402Y-25742299D01*
X70019873Y-25577555D01*
X69941232Y-25423212D01*
X69839414Y-25283072D01*
X69716928Y-25160586D01*
X69576788Y-25058768D01*
X69422445Y-24980127D01*
X69257701Y-24926598D01*
X69257699Y-24926597D01*
X69257698Y-24926597D01*
X69126271Y-24905781D01*
X69086611Y-24899500D01*
X68913389Y-24899500D01*
X68873728Y-24905781D01*
X68742302Y-24926597D01*
X68577552Y-24980128D01*
X68423211Y-25058768D01*
X68343256Y-25116859D01*
X68283072Y-25160586D01*
X68283070Y-25160588D01*
X68283069Y-25160588D01*
X68160588Y-25283069D01*
X68160588Y-25283070D01*
X68160586Y-25283072D01*
X68116859Y-25343256D01*
X68058768Y-25423211D01*
X67980128Y-25577552D01*
X67926597Y-25742302D01*
X67899500Y-25913389D01*
X65100500Y-25913389D01*
X65073402Y-25742299D01*
X65019873Y-25577555D01*
X64941232Y-25423212D01*
X64839414Y-25283072D01*
X64716928Y-25160586D01*
X64576788Y-25058768D01*
X64422445Y-24980127D01*
X64257701Y-24926598D01*
X64257699Y-24926597D01*
X64257698Y-24926597D01*
X64126271Y-24905781D01*
X64086611Y-24899500D01*
X63913389Y-24899500D01*
X63873728Y-24905781D01*
X63742302Y-24926597D01*
X63577552Y-24980128D01*
X63423211Y-25058768D01*
X63343256Y-25116859D01*
X63283072Y-25160586D01*
X63283070Y-25160588D01*
X63283069Y-25160588D01*
X63160588Y-25283069D01*
X63160588Y-25283070D01*
X63160586Y-25283072D01*
X63135040Y-25318232D01*
X63058770Y-25423207D01*
X63058766Y-25423214D01*
X63040062Y-25459926D01*
X63028918Y-25481795D01*
X62980947Y-25532590D01*
X62918435Y-25549500D01*
X60987391Y-25549500D01*
X60897025Y-25573713D01*
X60897024Y-25573712D01*
X60872816Y-25580199D01*
X60872813Y-25580200D01*
X60770086Y-25639511D01*
X60770083Y-25639513D01*
X54140650Y-32268946D01*
X54079327Y-32302431D01*
X54009635Y-32297447D01*
X53965288Y-32268946D01*
X53856930Y-32160588D01*
X53856928Y-32160586D01*
X53716788Y-32058768D01*
X53562445Y-31980127D01*
X53397701Y-31926598D01*
X53397699Y-31926597D01*
X53397698Y-31926597D01*
X53264020Y-31905425D01*
X53226611Y-31899500D01*
X53053389Y-31899500D01*
X53015980Y-31905425D01*
X52882302Y-31926597D01*
X52717552Y-31980128D01*
X52563211Y-32058768D01*
X52485070Y-32115542D01*
X52423072Y-32160586D01*
X52423070Y-32160588D01*
X52423069Y-32160588D01*
X52300588Y-32283069D01*
X52300588Y-32283070D01*
X52300586Y-32283072D01*
X52290142Y-32297447D01*
X52198768Y-32423211D01*
X52120128Y-32577552D01*
X52066597Y-32742302D01*
X52039500Y-32913389D01*
X52039500Y-33086610D01*
X52066597Y-33257697D01*
X52066597Y-33257699D01*
X52066598Y-33257701D01*
X52118369Y-33417035D01*
X52120128Y-33422447D01*
X52144407Y-33470098D01*
X52198768Y-33576788D01*
X52295094Y-33709369D01*
X52318574Y-33775174D01*
X52303880Y-33838361D01*
X52307417Y-33837042D01*
X52329688Y-33824466D01*
X52339611Y-33825033D01*
X52348924Y-33821560D01*
X52373911Y-33826994D01*
X52399443Y-33828455D01*
X52412641Y-33835419D01*
X52417197Y-33836410D01*
X52430655Y-33844924D01*
X52563212Y-33941232D01*
X52717555Y-34019873D01*
X52873635Y-34070587D01*
X52931310Y-34110024D01*
X52958508Y-34174382D01*
X52946593Y-34243229D01*
X52922997Y-34276198D01*
X52805871Y-34393324D01*
X52744548Y-34426809D01*
X52674856Y-34421825D01*
X52630511Y-34393326D01*
X52480407Y-34243229D01*
X52270093Y-34032925D01*
X52257837Y-34010483D01*
X52242222Y-33990232D01*
X52241371Y-33980329D01*
X52236607Y-33971605D01*
X52238431Y-33946093D01*
X52236243Y-33920618D01*
X52240881Y-33911827D01*
X52241590Y-33901913D01*
X52248428Y-33892776D01*
X52184165Y-33905799D01*
X52119056Y-33880450D01*
X52107097Y-33869937D01*
X51683345Y-33446205D01*
X51649858Y-33384883D01*
X51653093Y-33320204D01*
X51657381Y-33307007D01*
X51673402Y-33257701D01*
X51700500Y-33086611D01*
X51700500Y-32913389D01*
X51673402Y-32742299D01*
X51619873Y-32577555D01*
X51541232Y-32423212D01*
X51439414Y-32283072D01*
X51316928Y-32160586D01*
X51176788Y-32058768D01*
X51022445Y-31980127D01*
X50857701Y-31926598D01*
X50857699Y-31926597D01*
X50857698Y-31926597D01*
X50724020Y-31905425D01*
X50686611Y-31899500D01*
X50513389Y-31899500D01*
X50475980Y-31905425D01*
X50342302Y-31926597D01*
X50177552Y-31980128D01*
X50023211Y-32058768D01*
X49945070Y-32115542D01*
X49883072Y-32160586D01*
X49883070Y-32160588D01*
X49883069Y-32160588D01*
X49760588Y-32283069D01*
X49760588Y-32283070D01*
X49760586Y-32283072D01*
X49750142Y-32297447D01*
X49658768Y-32423211D01*
X49580128Y-32577552D01*
X49526597Y-32742302D01*
X49499500Y-32913389D01*
X49499500Y-33086610D01*
X49526597Y-33257697D01*
X49526597Y-33257699D01*
X49526598Y-33257701D01*
X49578369Y-33417035D01*
X49580128Y-33422447D01*
X49604407Y-33470098D01*
X49658768Y-33576788D01*
X49760586Y-33716928D01*
X49883072Y-33839414D01*
X50023212Y-33941232D01*
X50177555Y-34019873D01*
X50342299Y-34073402D01*
X50513389Y-34100500D01*
X50513390Y-34100500D01*
X50686610Y-34100500D01*
X50686611Y-34100500D01*
X50857701Y-34073402D01*
X50920259Y-34053074D01*
X50990098Y-34051080D01*
X51046255Y-34083323D01*
X52404190Y-35441194D01*
X52404193Y-35441200D01*
X52404195Y-35441199D01*
X53923185Y-36960277D01*
X53956667Y-37021600D01*
X53959500Y-37047955D01*
X53959500Y-49771744D01*
X53939815Y-49838783D01*
X53887011Y-49884538D01*
X53817853Y-49894482D01*
X53762615Y-49872063D01*
X53716787Y-49838767D01*
X53562447Y-49760128D01*
X53562446Y-49760127D01*
X53562445Y-49760127D01*
X53397701Y-49706598D01*
X53397699Y-49706597D01*
X53397698Y-49706597D01*
X53266271Y-49685781D01*
X53226611Y-49679500D01*
X53053389Y-49679500D01*
X53013728Y-49685781D01*
X52882302Y-49706597D01*
X52879200Y-49707605D01*
X52730097Y-49756052D01*
X52717552Y-49760128D01*
X52563212Y-49838767D01*
X52517385Y-49872063D01*
X52451578Y-49895542D01*
X52383524Y-49879716D01*
X52334830Y-49829610D01*
X52320500Y-49771744D01*
X52320500Y-39290693D01*
X52320500Y-39290691D01*
X52289799Y-39176114D01*
X52289799Y-39176113D01*
X52230489Y-39073386D01*
X46661819Y-33504716D01*
X46628334Y-33443393D01*
X46625500Y-33417035D01*
X46625500Y-32921209D01*
X46624730Y-32913389D01*
X46959500Y-32913389D01*
X46959500Y-33086610D01*
X46986597Y-33257697D01*
X46986597Y-33257699D01*
X46986598Y-33257701D01*
X47038369Y-33417035D01*
X47040128Y-33422447D01*
X47064407Y-33470098D01*
X47118768Y-33576788D01*
X47220586Y-33716928D01*
X47343072Y-33839414D01*
X47483212Y-33941232D01*
X47637555Y-34019873D01*
X47802299Y-34073402D01*
X47973389Y-34100500D01*
X47973390Y-34100500D01*
X48146610Y-34100500D01*
X48146611Y-34100500D01*
X48317701Y-34073402D01*
X48482445Y-34019873D01*
X48636788Y-33941232D01*
X48776928Y-33839414D01*
X48899414Y-33716928D01*
X49001232Y-33576788D01*
X49079873Y-33422445D01*
X49133402Y-33257701D01*
X49160500Y-33086611D01*
X49160500Y-32913389D01*
X49133402Y-32742299D01*
X49079873Y-32577555D01*
X49001232Y-32423212D01*
X48899414Y-32283072D01*
X48776928Y-32160586D01*
X48636788Y-32058768D01*
X48482445Y-31980127D01*
X48317701Y-31926598D01*
X48317699Y-31926597D01*
X48317698Y-31926597D01*
X48184020Y-31905425D01*
X48146611Y-31899500D01*
X47973389Y-31899500D01*
X47935980Y-31905425D01*
X47802302Y-31926597D01*
X47637552Y-31980128D01*
X47483211Y-32058768D01*
X47405070Y-32115542D01*
X47343072Y-32160586D01*
X47343070Y-32160588D01*
X47343069Y-32160588D01*
X47220588Y-32283069D01*
X47220588Y-32283070D01*
X47220586Y-32283072D01*
X47210142Y-32297447D01*
X47118768Y-32423211D01*
X47040128Y-32577552D01*
X46986597Y-32742302D01*
X46959500Y-32913389D01*
X46624730Y-32913389D01*
X46619631Y-32861620D01*
X46619631Y-32861617D01*
X46619630Y-32861615D01*
X46619630Y-32861608D01*
X46588887Y-32707050D01*
X46571502Y-32649739D01*
X46570138Y-32646447D01*
X46519280Y-32523665D01*
X46511196Y-32504148D01*
X46482965Y-32451331D01*
X46482961Y-32451325D01*
X46482957Y-32451318D01*
X46424727Y-32364171D01*
X46395415Y-32320303D01*
X46357422Y-32274009D01*
X46357421Y-32274008D01*
X46357417Y-32274003D01*
X46245996Y-32162582D01*
X46240160Y-32157793D01*
X46199697Y-32124585D01*
X46162478Y-32099716D01*
X46068681Y-32037042D01*
X46068674Y-32037038D01*
X46068671Y-32037036D01*
X46068669Y-32037035D01*
X46015852Y-32008804D01*
X46015845Y-32008801D01*
X45870266Y-31948499D01*
X45848108Y-31941778D01*
X45812950Y-31931113D01*
X45658392Y-31900370D01*
X45658388Y-31900369D01*
X45658380Y-31900368D01*
X45610354Y-31895638D01*
X45598793Y-31894500D01*
X45441207Y-31894500D01*
X45429645Y-31895638D01*
X45381620Y-31900368D01*
X45381617Y-31900368D01*
X45356194Y-31905425D01*
X45227050Y-31931113D01*
X45204897Y-31937832D01*
X45169733Y-31948499D01*
X45024154Y-32008801D01*
X45024140Y-32008808D01*
X44971325Y-32037038D01*
X44971318Y-32037042D01*
X44840311Y-32124579D01*
X44840298Y-32124589D01*
X44794003Y-32162582D01*
X44682582Y-32274003D01*
X44644589Y-32320298D01*
X44644579Y-32320311D01*
X44557042Y-32451318D01*
X44557038Y-32451325D01*
X44528808Y-32504140D01*
X44528801Y-32504154D01*
X44468499Y-32649733D01*
X44459389Y-32679768D01*
X44451113Y-32707050D01*
X44451112Y-32707054D01*
X44451112Y-32707055D01*
X44420368Y-32861617D01*
X44420368Y-32861620D01*
X44414500Y-32921209D01*
X44414500Y-33639769D01*
X44414581Y-33646838D01*
X44437753Y-33756690D01*
X44437754Y-33756691D01*
X44468183Y-33830156D01*
X44470977Y-33836687D01*
X44470978Y-33836689D01*
X44534427Y-33929312D01*
X44590688Y-33985573D01*
X44595456Y-33990232D01*
X44595737Y-33990507D01*
X44689796Y-34051795D01*
X44689801Y-34051798D01*
X44763310Y-34082246D01*
X44769859Y-34084870D01*
X44880218Y-34105500D01*
X45937035Y-34105500D01*
X46004074Y-34125185D01*
X46024716Y-34141819D01*
X51383181Y-39500284D01*
X51416666Y-39561607D01*
X51419500Y-39587965D01*
X51419500Y-49771744D01*
X51399815Y-49838783D01*
X51347011Y-49884538D01*
X51277853Y-49894482D01*
X51222615Y-49872063D01*
X51176787Y-49838767D01*
X51022447Y-49760128D01*
X51022446Y-49760127D01*
X51022445Y-49760127D01*
X50857701Y-49706598D01*
X50857699Y-49706597D01*
X50857698Y-49706597D01*
X50726271Y-49685781D01*
X50686611Y-49679500D01*
X50513389Y-49679500D01*
X50473728Y-49685781D01*
X50342302Y-49706597D01*
X50339200Y-49707605D01*
X50190097Y-49756052D01*
X50177552Y-49760128D01*
X50023211Y-49838768D01*
X49945070Y-49895542D01*
X49883072Y-49940586D01*
X49883070Y-49940588D01*
X49883069Y-49940588D01*
X49760588Y-50063069D01*
X49760588Y-50063070D01*
X49760586Y-50063072D01*
X49753725Y-50072516D01*
X49658768Y-50203211D01*
X49580128Y-50357552D01*
X49526597Y-50522302D01*
X49516349Y-50587007D01*
X49499500Y-50693389D01*
X49499500Y-50866611D01*
X49526598Y-51037701D01*
X49580127Y-51202445D01*
X49658768Y-51356788D01*
X49760586Y-51496928D01*
X49883072Y-51619414D01*
X50023212Y-51721232D01*
X50177555Y-51799873D01*
X50342299Y-51853402D01*
X50513389Y-51880500D01*
X50513390Y-51880500D01*
X50686610Y-51880500D01*
X50686611Y-51880500D01*
X50857701Y-51853402D01*
X51022445Y-51799873D01*
X51176788Y-51721232D01*
X51222614Y-51687936D01*
X51288420Y-51664457D01*
X51356474Y-51680282D01*
X51405169Y-51730388D01*
X51419500Y-51788255D01*
X51419500Y-53611808D01*
X51443712Y-53702172D01*
X51450200Y-53726385D01*
X51450200Y-53726386D01*
X51450201Y-53726387D01*
X51509511Y-53829114D01*
X51509513Y-53829116D01*
X52262781Y-54582384D01*
X52296266Y-54643707D01*
X52299100Y-54670065D01*
X52299100Y-55976923D01*
X52279415Y-56043962D01*
X52226611Y-56089717D01*
X52157453Y-56099661D01*
X52102215Y-56077241D01*
X52076792Y-56058770D01*
X51922447Y-55980128D01*
X51922446Y-55980127D01*
X51922445Y-55980127D01*
X51757701Y-55926598D01*
X51757699Y-55926597D01*
X51757698Y-55926597D01*
X51621589Y-55905040D01*
X51586611Y-55899500D01*
X51413389Y-55899500D01*
X51378411Y-55905040D01*
X51242302Y-55926597D01*
X51077552Y-55980128D01*
X50923211Y-56058768D01*
X50880614Y-56089717D01*
X50783072Y-56160586D01*
X50783070Y-56160588D01*
X50783069Y-56160588D01*
X50660588Y-56283069D01*
X50660588Y-56283070D01*
X50660586Y-56283072D01*
X50616859Y-56343256D01*
X50558768Y-56423211D01*
X50480128Y-56577552D01*
X50426597Y-56742302D01*
X50402548Y-56894144D01*
X50399500Y-56913389D01*
X50399500Y-57086611D01*
X50426598Y-57257701D01*
X50480127Y-57422445D01*
X50558768Y-57576788D01*
X50660586Y-57716928D01*
X50783072Y-57839414D01*
X50923212Y-57941232D01*
X51077555Y-58019873D01*
X51242299Y-58073402D01*
X51413389Y-58100500D01*
X51413390Y-58100500D01*
X51586610Y-58100500D01*
X51586611Y-58100500D01*
X51757701Y-58073402D01*
X51922445Y-58019873D01*
X52076788Y-57941232D01*
X52102214Y-57922758D01*
X52168019Y-57899278D01*
X52236073Y-57915102D01*
X52284769Y-57965207D01*
X52299100Y-58023076D01*
X52299100Y-60471534D01*
X52279415Y-60538573D01*
X52226611Y-60584328D01*
X52157453Y-60594272D01*
X52093897Y-60565247D01*
X52087419Y-60559215D01*
X44633819Y-53105615D01*
X44600334Y-53044292D01*
X44597500Y-53017934D01*
X44597500Y-51965103D01*
X44617185Y-51898064D01*
X44669989Y-51852309D01*
X44739147Y-51842365D01*
X44790391Y-51862001D01*
X44860488Y-51908838D01*
X44860498Y-51908844D01*
X44947801Y-51955509D01*
X45093387Y-52015814D01*
X45188135Y-52044555D01*
X45342699Y-52075298D01*
X45441210Y-52085000D01*
X45598790Y-52085000D01*
X45697299Y-52075298D01*
X45697302Y-52075298D01*
X45851864Y-52044555D01*
X45946612Y-52015814D01*
X46092198Y-51955509D01*
X46179501Y-51908844D01*
X46179511Y-51908838D01*
X46248912Y-51862465D01*
X45649409Y-51262962D01*
X45712993Y-51245925D01*
X45827007Y-51180099D01*
X45920099Y-51087007D01*
X45985925Y-50972993D01*
X46002962Y-50909409D01*
X46602465Y-51508912D01*
X46648838Y-51439511D01*
X46648844Y-51439501D01*
X46695509Y-51352198D01*
X46755815Y-51206609D01*
X46779144Y-51129702D01*
X46817441Y-51071263D01*
X46881253Y-51042806D01*
X46950320Y-51053365D01*
X47002714Y-51099589D01*
X47015735Y-51127375D01*
X47027239Y-51162782D01*
X47040128Y-51202449D01*
X47116429Y-51352198D01*
X47118768Y-51356788D01*
X47220586Y-51496928D01*
X47343072Y-51619414D01*
X47483212Y-51721232D01*
X47637555Y-51799873D01*
X47802299Y-51853402D01*
X47973389Y-51880500D01*
X47973390Y-51880500D01*
X48146610Y-51880500D01*
X48146611Y-51880500D01*
X48317701Y-51853402D01*
X48482445Y-51799873D01*
X48636788Y-51721232D01*
X48776928Y-51619414D01*
X48899414Y-51496928D01*
X49001232Y-51356788D01*
X49079873Y-51202445D01*
X49133402Y-51037701D01*
X49160500Y-50866611D01*
X49160500Y-50693389D01*
X49133402Y-50522299D01*
X49079873Y-50357555D01*
X49001232Y-50203212D01*
X48899414Y-50063072D01*
X48776928Y-49940586D01*
X48636788Y-49838768D01*
X48604766Y-49822452D01*
X48482447Y-49760128D01*
X48482446Y-49760127D01*
X48482445Y-49760127D01*
X48317701Y-49706598D01*
X48317699Y-49706597D01*
X48317698Y-49706597D01*
X48186271Y-49685781D01*
X48146611Y-49679500D01*
X47973389Y-49679500D01*
X47933728Y-49685781D01*
X47802302Y-49706597D01*
X47799200Y-49707605D01*
X47650097Y-49756052D01*
X47637552Y-49760128D01*
X47483211Y-49838768D01*
X47405070Y-49895542D01*
X47343072Y-49940586D01*
X47343070Y-49940588D01*
X47343069Y-49940588D01*
X47220588Y-50063069D01*
X47220588Y-50063070D01*
X47220586Y-50063072D01*
X47213725Y-50072516D01*
X47118768Y-50203211D01*
X47059485Y-50319562D01*
X47011511Y-50370358D01*
X46943690Y-50387153D01*
X46877555Y-50364616D01*
X46834103Y-50309901D01*
X46825000Y-50263267D01*
X46825000Y-50140214D01*
X46822106Y-50086237D01*
X46822106Y-50086235D01*
X46786558Y-49946960D01*
X46763136Y-49890415D01*
X46763135Y-49890415D01*
X46002962Y-50650589D01*
X45985925Y-50587007D01*
X45920099Y-50472993D01*
X45827007Y-50379901D01*
X45712993Y-50314075D01*
X45649409Y-50297037D01*
X46409583Y-49536863D01*
X46409583Y-49536862D01*
X46353052Y-49513447D01*
X46353035Y-49513440D01*
X46302053Y-49495455D01*
X46159780Y-49475000D01*
X44880214Y-49475000D01*
X44826237Y-49477893D01*
X44826232Y-49477893D01*
X44752165Y-49496798D01*
X44682340Y-49494304D01*
X44624948Y-49454456D01*
X44598210Y-49389904D01*
X44597500Y-49376650D01*
X44597500Y-39187693D01*
X44597500Y-39187691D01*
X44566799Y-39073114D01*
X44566799Y-39073113D01*
X44507489Y-38970386D01*
X38983333Y-33446230D01*
X38949848Y-33384907D01*
X38953083Y-33320231D01*
X38973402Y-33257701D01*
X39000500Y-33086611D01*
X39000500Y-32913389D01*
X39339500Y-32913389D01*
X39339500Y-33086610D01*
X39366597Y-33257697D01*
X39366597Y-33257699D01*
X39366598Y-33257701D01*
X39418369Y-33417035D01*
X39420128Y-33422447D01*
X39444407Y-33470098D01*
X39498768Y-33576788D01*
X39600586Y-33716928D01*
X39723072Y-33839414D01*
X39863212Y-33941232D01*
X40017555Y-34019873D01*
X40182299Y-34073402D01*
X40353389Y-34100500D01*
X40353390Y-34100500D01*
X40526610Y-34100500D01*
X40526611Y-34100500D01*
X40697701Y-34073402D01*
X40862445Y-34019873D01*
X41016788Y-33941232D01*
X41156928Y-33839414D01*
X41279414Y-33716928D01*
X41381232Y-33576788D01*
X41459873Y-33422445D01*
X41513402Y-33257701D01*
X41540500Y-33086611D01*
X41540500Y-32913389D01*
X41879500Y-32913389D01*
X41879500Y-33086610D01*
X41906597Y-33257697D01*
X41906597Y-33257699D01*
X41906598Y-33257701D01*
X41958369Y-33417035D01*
X41960128Y-33422447D01*
X41984407Y-33470098D01*
X42038768Y-33576788D01*
X42140586Y-33716928D01*
X42263072Y-33839414D01*
X42403212Y-33941232D01*
X42557555Y-34019873D01*
X42722299Y-34073402D01*
X42893389Y-34100500D01*
X42893390Y-34100500D01*
X43066610Y-34100500D01*
X43066611Y-34100500D01*
X43237701Y-34073402D01*
X43402445Y-34019873D01*
X43556788Y-33941232D01*
X43696928Y-33839414D01*
X43819414Y-33716928D01*
X43921232Y-33576788D01*
X43999873Y-33422445D01*
X44053402Y-33257701D01*
X44080500Y-33086611D01*
X44080500Y-32913389D01*
X44053402Y-32742299D01*
X43999873Y-32577555D01*
X43921232Y-32423212D01*
X43819414Y-32283072D01*
X43696928Y-32160586D01*
X43556788Y-32058768D01*
X43402445Y-31980127D01*
X43237701Y-31926598D01*
X43237699Y-31926597D01*
X43237698Y-31926597D01*
X43104020Y-31905425D01*
X43066611Y-31899500D01*
X42893389Y-31899500D01*
X42855980Y-31905425D01*
X42722302Y-31926597D01*
X42557552Y-31980128D01*
X42403211Y-32058768D01*
X42325070Y-32115542D01*
X42263072Y-32160586D01*
X42263070Y-32160588D01*
X42263069Y-32160588D01*
X42140588Y-32283069D01*
X42140588Y-32283070D01*
X42140586Y-32283072D01*
X42130142Y-32297447D01*
X42038768Y-32423211D01*
X41960128Y-32577552D01*
X41906597Y-32742302D01*
X41879500Y-32913389D01*
X41540500Y-32913389D01*
X41513402Y-32742299D01*
X41459873Y-32577555D01*
X41381232Y-32423212D01*
X41279414Y-32283072D01*
X41156928Y-32160586D01*
X41016788Y-32058768D01*
X40862445Y-31980127D01*
X40697701Y-31926598D01*
X40697699Y-31926597D01*
X40697698Y-31926597D01*
X40564020Y-31905425D01*
X40526611Y-31899500D01*
X40353389Y-31899500D01*
X40315980Y-31905425D01*
X40182302Y-31926597D01*
X40017552Y-31980128D01*
X39863211Y-32058768D01*
X39785070Y-32115542D01*
X39723072Y-32160586D01*
X39723070Y-32160588D01*
X39723069Y-32160588D01*
X39600588Y-32283069D01*
X39600588Y-32283070D01*
X39600586Y-32283072D01*
X39590142Y-32297447D01*
X39498768Y-32423211D01*
X39420128Y-32577552D01*
X39366597Y-32742302D01*
X39339500Y-32913389D01*
X39000500Y-32913389D01*
X38973402Y-32742299D01*
X38919873Y-32577555D01*
X38841232Y-32423212D01*
X38739414Y-32283072D01*
X38616928Y-32160586D01*
X38476788Y-32058768D01*
X38322445Y-31980127D01*
X38157701Y-31926598D01*
X38157699Y-31926597D01*
X38157698Y-31926597D01*
X38024020Y-31905425D01*
X37986611Y-31899500D01*
X37813389Y-31899500D01*
X37775980Y-31905425D01*
X37642302Y-31926597D01*
X37477552Y-31980128D01*
X37323211Y-32058768D01*
X37245070Y-32115542D01*
X37183072Y-32160586D01*
X37183070Y-32160588D01*
X37183069Y-32160588D01*
X37060588Y-32283069D01*
X37060588Y-32283070D01*
X37060586Y-32283072D01*
X37050142Y-32297447D01*
X36958768Y-32423211D01*
X36880128Y-32577552D01*
X36826597Y-32742302D01*
X36799500Y-32913389D01*
X36799500Y-33086610D01*
X36826597Y-33257697D01*
X36826597Y-33257699D01*
X36826598Y-33257701D01*
X36878369Y-33417035D01*
X36880128Y-33422447D01*
X36904407Y-33470098D01*
X36958768Y-33576788D01*
X37060586Y-33716928D01*
X37183072Y-33839414D01*
X37323212Y-33941232D01*
X37477555Y-34019873D01*
X37642299Y-34073402D01*
X37813389Y-34100500D01*
X37813390Y-34100500D01*
X37986610Y-34100500D01*
X37986611Y-34100500D01*
X38157701Y-34073402D01*
X38220231Y-34053083D01*
X38290070Y-34051087D01*
X38346230Y-34083333D01*
X43660181Y-39397284D01*
X43693666Y-39458607D01*
X43696500Y-39484965D01*
X43696500Y-49707605D01*
X43676815Y-49774644D01*
X43624011Y-49820399D01*
X43554853Y-49830343D01*
X43516206Y-49818090D01*
X43402450Y-49760129D01*
X43402447Y-49760128D01*
X43402445Y-49760127D01*
X43237701Y-49706598D01*
X43237699Y-49706597D01*
X43237698Y-49706597D01*
X43106271Y-49685781D01*
X43066611Y-49679500D01*
X42893389Y-49679500D01*
X42853728Y-49685781D01*
X42722302Y-49706597D01*
X42719200Y-49707605D01*
X42570097Y-49756052D01*
X42557552Y-49760128D01*
X42403211Y-49838768D01*
X42325070Y-49895542D01*
X42263072Y-49940586D01*
X42263070Y-49940588D01*
X42263069Y-49940588D01*
X42140588Y-50063069D01*
X42140588Y-50063070D01*
X42140586Y-50063072D01*
X42133725Y-50072516D01*
X42038768Y-50203211D01*
X41960128Y-50357552D01*
X41906597Y-50522302D01*
X41896349Y-50587007D01*
X41879500Y-50693389D01*
X41879500Y-50866611D01*
X41906598Y-51037701D01*
X41960127Y-51202445D01*
X42038768Y-51356788D01*
X42140586Y-51496928D01*
X42263072Y-51619414D01*
X42403212Y-51721232D01*
X42557555Y-51799873D01*
X42722299Y-51853402D01*
X42893389Y-51880500D01*
X42893390Y-51880500D01*
X43066610Y-51880500D01*
X43066611Y-51880500D01*
X43237701Y-51853402D01*
X43402445Y-51799873D01*
X43516207Y-51741908D01*
X43584874Y-51729013D01*
X43649614Y-51755289D01*
X43689872Y-51812395D01*
X43696500Y-51852394D01*
X43696500Y-53315209D01*
X43713489Y-53378613D01*
X43727201Y-53429787D01*
X43786511Y-53532514D01*
X43786513Y-53532516D01*
X51624881Y-61370884D01*
X51658366Y-61432207D01*
X51661200Y-61458565D01*
X51661200Y-64361291D01*
X51641515Y-64428330D01*
X51588711Y-64474085D01*
X51519553Y-64484029D01*
X51455997Y-64455004D01*
X51426715Y-64417586D01*
X51398031Y-64361291D01*
X51389524Y-64344595D01*
X51273828Y-64185354D01*
X51134646Y-64046172D01*
X50975405Y-63930476D01*
X50914611Y-63899500D01*
X50800029Y-63841117D01*
X50612826Y-63780290D01*
X50418422Y-63749500D01*
X50418417Y-63749500D01*
X50221583Y-63749500D01*
X50221578Y-63749500D01*
X50027173Y-63780290D01*
X49839970Y-63841117D01*
X49664594Y-63930476D01*
X49596255Y-63980128D01*
X49505354Y-64046172D01*
X49505352Y-64046174D01*
X49505351Y-64046174D01*
X49366174Y-64185351D01*
X49366167Y-64185360D01*
X49265346Y-64324126D01*
X49210016Y-64366792D01*
X49140403Y-64372770D01*
X49078608Y-64340164D01*
X49054544Y-64307534D01*
X49020150Y-64240032D01*
X48966863Y-64166689D01*
X48966862Y-64166688D01*
X48303787Y-64829764D01*
X48292518Y-64787708D01*
X48220110Y-64662292D01*
X48117708Y-64559890D01*
X47992292Y-64487482D01*
X47950233Y-64476212D01*
X48613309Y-63813137D01*
X48613309Y-63813135D01*
X48539969Y-63759851D01*
X48336604Y-63656230D01*
X48119544Y-63585704D01*
X47894116Y-63550000D01*
X47665884Y-63550000D01*
X47440455Y-63585704D01*
X47223395Y-63656230D01*
X47020035Y-63759848D01*
X47020033Y-63759849D01*
X46946689Y-63813135D01*
X46946689Y-63813136D01*
X47609766Y-64476212D01*
X47567708Y-64487482D01*
X47442292Y-64559890D01*
X47339890Y-64662292D01*
X47267482Y-64787708D01*
X47256212Y-64829765D01*
X46593136Y-64166689D01*
X46593135Y-64166689D01*
X46539849Y-64240033D01*
X46539845Y-64240040D01*
X46505454Y-64307536D01*
X46457480Y-64358331D01*
X46389659Y-64375126D01*
X46323524Y-64352588D01*
X46294652Y-64324126D01*
X46193828Y-64185354D01*
X46054646Y-64046172D01*
X45895405Y-63930476D01*
X45834611Y-63899500D01*
X45720029Y-63841117D01*
X45532826Y-63780290D01*
X45338422Y-63749500D01*
X45338417Y-63749500D01*
X45141583Y-63749500D01*
X45141578Y-63749500D01*
X44947173Y-63780290D01*
X44759970Y-63841117D01*
X44584594Y-63930476D01*
X44516255Y-63980128D01*
X44425354Y-64046172D01*
X44425352Y-64046174D01*
X44425351Y-64046174D01*
X44286174Y-64185351D01*
X44286174Y-64185352D01*
X44286172Y-64185354D01*
X44286168Y-64185360D01*
X44170476Y-64344594D01*
X44080485Y-64521213D01*
X44032511Y-64572009D01*
X43964690Y-64588804D01*
X43898555Y-64566267D01*
X43859515Y-64521213D01*
X43809581Y-64423212D01*
X43769524Y-64344595D01*
X43653828Y-64185354D01*
X43514646Y-64046172D01*
X43355405Y-63930476D01*
X43294611Y-63899500D01*
X43180029Y-63841117D01*
X42992826Y-63780290D01*
X42798422Y-63749500D01*
X42798417Y-63749500D01*
X42601583Y-63749500D01*
X42601578Y-63749500D01*
X42407172Y-63780291D01*
X42407169Y-63780291D01*
X42260726Y-63827874D01*
X42190885Y-63829869D01*
X42134727Y-63797624D01*
X39250492Y-60913389D01*
X44899500Y-60913389D01*
X44899500Y-61086610D01*
X44920140Y-61216930D01*
X44926598Y-61257701D01*
X44980127Y-61422445D01*
X45058768Y-61576788D01*
X45160586Y-61716928D01*
X45283072Y-61839414D01*
X45423212Y-61941232D01*
X45577555Y-62019873D01*
X45742299Y-62073402D01*
X45913389Y-62100500D01*
X45913390Y-62100500D01*
X46086610Y-62100500D01*
X46086611Y-62100500D01*
X46257701Y-62073402D01*
X46422445Y-62019873D01*
X46576788Y-61941232D01*
X46716928Y-61839414D01*
X46839414Y-61716928D01*
X46941232Y-61576788D01*
X47019873Y-61422445D01*
X47073402Y-61257701D01*
X47100500Y-61086611D01*
X47100500Y-60913389D01*
X47073402Y-60742299D01*
X47019873Y-60577555D01*
X46941232Y-60423212D01*
X46839414Y-60283072D01*
X46716928Y-60160586D01*
X46576788Y-60058768D01*
X46422445Y-59980127D01*
X46257701Y-59926598D01*
X46257699Y-59926597D01*
X46257698Y-59926597D01*
X46126271Y-59905781D01*
X46086611Y-59899500D01*
X45913389Y-59899500D01*
X45873728Y-59905781D01*
X45742302Y-59926597D01*
X45577552Y-59980128D01*
X45423211Y-60058768D01*
X45343256Y-60116859D01*
X45283072Y-60160586D01*
X45283070Y-60160588D01*
X45283069Y-60160588D01*
X45160588Y-60283069D01*
X45160588Y-60283070D01*
X45160586Y-60283072D01*
X45132265Y-60322052D01*
X45058768Y-60423211D01*
X44980128Y-60577552D01*
X44926597Y-60742302D01*
X44899500Y-60913389D01*
X39250492Y-60913389D01*
X37116819Y-58779716D01*
X37083334Y-58718393D01*
X37080500Y-58692035D01*
X37080500Y-51788255D01*
X37100185Y-51721216D01*
X37152989Y-51675461D01*
X37222147Y-51665517D01*
X37277384Y-51687936D01*
X37323212Y-51721232D01*
X37477555Y-51799873D01*
X37642299Y-51853402D01*
X37813389Y-51880500D01*
X37813390Y-51880500D01*
X37986610Y-51880500D01*
X37986611Y-51880500D01*
X38157701Y-51853402D01*
X38322445Y-51799873D01*
X38476788Y-51721232D01*
X38616928Y-51619414D01*
X38739414Y-51496928D01*
X38841232Y-51356788D01*
X38919873Y-51202445D01*
X38973402Y-51037701D01*
X39000500Y-50866611D01*
X39000500Y-50693389D01*
X39339500Y-50693389D01*
X39339500Y-50866611D01*
X39366598Y-51037701D01*
X39420127Y-51202445D01*
X39498768Y-51356788D01*
X39600586Y-51496928D01*
X39723072Y-51619414D01*
X39863212Y-51721232D01*
X40017555Y-51799873D01*
X40182299Y-51853402D01*
X40353389Y-51880500D01*
X40353390Y-51880500D01*
X40526610Y-51880500D01*
X40526611Y-51880500D01*
X40697701Y-51853402D01*
X40862445Y-51799873D01*
X41016788Y-51721232D01*
X41156928Y-51619414D01*
X41279414Y-51496928D01*
X41381232Y-51356788D01*
X41459873Y-51202445D01*
X41513402Y-51037701D01*
X41540500Y-50866611D01*
X41540500Y-50693389D01*
X41513402Y-50522299D01*
X41459873Y-50357555D01*
X41381232Y-50203212D01*
X41279414Y-50063072D01*
X41156928Y-49940586D01*
X41016788Y-49838768D01*
X40984766Y-49822452D01*
X40862447Y-49760128D01*
X40862446Y-49760127D01*
X40862445Y-49760127D01*
X40697701Y-49706598D01*
X40697699Y-49706597D01*
X40697698Y-49706597D01*
X40566271Y-49685781D01*
X40526611Y-49679500D01*
X40353389Y-49679500D01*
X40313728Y-49685781D01*
X40182302Y-49706597D01*
X40179200Y-49707605D01*
X40030097Y-49756052D01*
X40017552Y-49760128D01*
X39863211Y-49838768D01*
X39785070Y-49895542D01*
X39723072Y-49940586D01*
X39723070Y-49940588D01*
X39723069Y-49940588D01*
X39600588Y-50063069D01*
X39600588Y-50063070D01*
X39600586Y-50063072D01*
X39593725Y-50072516D01*
X39498768Y-50203211D01*
X39420128Y-50357552D01*
X39366597Y-50522302D01*
X39356349Y-50587007D01*
X39339500Y-50693389D01*
X39000500Y-50693389D01*
X38973402Y-50522299D01*
X38919873Y-50357555D01*
X38841232Y-50203212D01*
X38739414Y-50063072D01*
X38616928Y-49940586D01*
X38476788Y-49838768D01*
X38444766Y-49822452D01*
X38322447Y-49760128D01*
X38322446Y-49760127D01*
X38322445Y-49760127D01*
X38157701Y-49706598D01*
X38157699Y-49706597D01*
X38157698Y-49706597D01*
X38026271Y-49685781D01*
X37986611Y-49679500D01*
X37813389Y-49679500D01*
X37773728Y-49685781D01*
X37642302Y-49706597D01*
X37639200Y-49707605D01*
X37490097Y-49756052D01*
X37477552Y-49760128D01*
X37323212Y-49838767D01*
X37277385Y-49872063D01*
X37211578Y-49895542D01*
X37143524Y-49879716D01*
X37094830Y-49829610D01*
X37080500Y-49771744D01*
X37080500Y-41830693D01*
X37080500Y-41830691D01*
X37049799Y-41716114D01*
X36990490Y-41613386D01*
X28823332Y-33446229D01*
X28789848Y-33384907D01*
X28793083Y-33320231D01*
X28813402Y-33257701D01*
X28840500Y-33086611D01*
X28840500Y-32913389D01*
X29179500Y-32913389D01*
X29179500Y-33086610D01*
X29206597Y-33257697D01*
X29206597Y-33257699D01*
X29206598Y-33257701D01*
X29258369Y-33417035D01*
X29260128Y-33422447D01*
X29284407Y-33470098D01*
X29338768Y-33576788D01*
X29440586Y-33716928D01*
X29563072Y-33839414D01*
X29703212Y-33941232D01*
X29857555Y-34019873D01*
X30022299Y-34073402D01*
X30193389Y-34100500D01*
X30193390Y-34100500D01*
X30366610Y-34100500D01*
X30366611Y-34100500D01*
X30537701Y-34073402D01*
X30702445Y-34019873D01*
X30856788Y-33941232D01*
X30996928Y-33839414D01*
X31119414Y-33716928D01*
X31221232Y-33576788D01*
X31275593Y-33470098D01*
X31280515Y-33460438D01*
X31328489Y-33409641D01*
X31396310Y-33392846D01*
X31462445Y-33415383D01*
X31505897Y-33470098D01*
X31515000Y-33516732D01*
X31515000Y-33639785D01*
X31517893Y-33693762D01*
X31517893Y-33693764D01*
X31553438Y-33833030D01*
X31553440Y-33833037D01*
X31576863Y-33889583D01*
X32337037Y-33129409D01*
X32354075Y-33192993D01*
X32419901Y-33307007D01*
X32512993Y-33400099D01*
X32627007Y-33465925D01*
X32690590Y-33482962D01*
X31930415Y-34243135D01*
X31930415Y-34243136D01*
X31986946Y-34266552D01*
X32037946Y-34284544D01*
X32180219Y-34304999D01*
X32180221Y-34305000D01*
X33459786Y-34305000D01*
X33513762Y-34302106D01*
X33513764Y-34302106D01*
X33653023Y-34266563D01*
X33653035Y-34266559D01*
X33709582Y-34243135D01*
X32949409Y-33482962D01*
X33012993Y-33465925D01*
X33127007Y-33400099D01*
X33220099Y-33307007D01*
X33285925Y-33192993D01*
X33302962Y-33129409D01*
X34063135Y-33889582D01*
X34063137Y-33889582D01*
X34086552Y-33833053D01*
X34104544Y-33782053D01*
X34124999Y-33639780D01*
X34125000Y-33639779D01*
X34125000Y-33516732D01*
X34144685Y-33449693D01*
X34197489Y-33403938D01*
X34266647Y-33393994D01*
X34330203Y-33423019D01*
X34359485Y-33460438D01*
X34418766Y-33576786D01*
X34419323Y-33577552D01*
X34520586Y-33716928D01*
X34643072Y-33839414D01*
X34783212Y-33941232D01*
X34937555Y-34019873D01*
X35102299Y-34073402D01*
X35273389Y-34100500D01*
X35273390Y-34100500D01*
X35446610Y-34100500D01*
X35446611Y-34100500D01*
X35617701Y-34073402D01*
X35782445Y-34019873D01*
X35936788Y-33941232D01*
X36076928Y-33839414D01*
X36199414Y-33716928D01*
X36301232Y-33576788D01*
X36379873Y-33422445D01*
X36433402Y-33257701D01*
X36460500Y-33086611D01*
X36460500Y-32913389D01*
X36433402Y-32742299D01*
X36379873Y-32577555D01*
X36301232Y-32423212D01*
X36199414Y-32283072D01*
X36076928Y-32160586D01*
X35936788Y-32058768D01*
X35782445Y-31980127D01*
X35617701Y-31926598D01*
X35617699Y-31926597D01*
X35617698Y-31926597D01*
X35484020Y-31905425D01*
X35446611Y-31899500D01*
X35273389Y-31899500D01*
X35235980Y-31905425D01*
X35102302Y-31926597D01*
X34937552Y-31980128D01*
X34783211Y-32058768D01*
X34705070Y-32115542D01*
X34643072Y-32160586D01*
X34643070Y-32160588D01*
X34643069Y-32160588D01*
X34520588Y-32283069D01*
X34520588Y-32283070D01*
X34520586Y-32283072D01*
X34510142Y-32297447D01*
X34418768Y-32423211D01*
X34340128Y-32577550D01*
X34315736Y-32652622D01*
X34276298Y-32710297D01*
X34211939Y-32737495D01*
X34143092Y-32725580D01*
X34091617Y-32678335D01*
X34079144Y-32650298D01*
X34055814Y-32573387D01*
X33995509Y-32427801D01*
X33948841Y-32340493D01*
X33902465Y-32271086D01*
X33902465Y-32271085D01*
X33302962Y-32870589D01*
X33285925Y-32807007D01*
X33220099Y-32692993D01*
X33127007Y-32599901D01*
X33012993Y-32534075D01*
X32949410Y-32517037D01*
X33548913Y-31917534D01*
X33548912Y-31917533D01*
X33479506Y-31871158D01*
X33392198Y-31824490D01*
X33246612Y-31764185D01*
X33151864Y-31735444D01*
X32997300Y-31704701D01*
X32898790Y-31695000D01*
X32741210Y-31695000D01*
X32642700Y-31704701D01*
X32642697Y-31704701D01*
X32488135Y-31735444D01*
X32393387Y-31764185D01*
X32247801Y-31824490D01*
X32160488Y-31871161D01*
X32091086Y-31917532D01*
X32091085Y-31917533D01*
X32690590Y-32517037D01*
X32627007Y-32534075D01*
X32512993Y-32599901D01*
X32419901Y-32692993D01*
X32354075Y-32807007D01*
X32337037Y-32870589D01*
X31737533Y-32271085D01*
X31737532Y-32271086D01*
X31691161Y-32340488D01*
X31644490Y-32427801D01*
X31584183Y-32573394D01*
X31560854Y-32650299D01*
X31522557Y-32708737D01*
X31458744Y-32737194D01*
X31389677Y-32726633D01*
X31337284Y-32680408D01*
X31324265Y-32652625D01*
X31299873Y-32577555D01*
X31221232Y-32423212D01*
X31119414Y-32283072D01*
X30996928Y-32160586D01*
X30864073Y-32064061D01*
X30864073Y-32064060D01*
X30856790Y-32058769D01*
X30702447Y-31980128D01*
X30702446Y-31980127D01*
X30702445Y-31980127D01*
X30537701Y-31926598D01*
X30537699Y-31926597D01*
X30537698Y-31926597D01*
X30404020Y-31905425D01*
X30366611Y-31899500D01*
X30193389Y-31899500D01*
X30155980Y-31905425D01*
X30022302Y-31926597D01*
X29857552Y-31980128D01*
X29703211Y-32058768D01*
X29625070Y-32115542D01*
X29563072Y-32160586D01*
X29563070Y-32160588D01*
X29563069Y-32160588D01*
X29440588Y-32283069D01*
X29440588Y-32283070D01*
X29440586Y-32283072D01*
X29430142Y-32297447D01*
X29338768Y-32423211D01*
X29260128Y-32577552D01*
X29206597Y-32742302D01*
X29179500Y-32913389D01*
X28840500Y-32913389D01*
X28813402Y-32742299D01*
X28759873Y-32577555D01*
X28681232Y-32423212D01*
X28579414Y-32283072D01*
X28456928Y-32160586D01*
X28316788Y-32058768D01*
X28162445Y-31980127D01*
X27997701Y-31926598D01*
X27997699Y-31926597D01*
X27997698Y-31926597D01*
X27864020Y-31905425D01*
X27826611Y-31899500D01*
X27653389Y-31899500D01*
X27615980Y-31905425D01*
X27482302Y-31926597D01*
X27317552Y-31980128D01*
X27163211Y-32058768D01*
X27085070Y-32115542D01*
X27023072Y-32160586D01*
X27023070Y-32160588D01*
X27023069Y-32160588D01*
X26900588Y-32283069D01*
X26900588Y-32283070D01*
X26900586Y-32283072D01*
X26890142Y-32297447D01*
X26798768Y-32423211D01*
X26747585Y-32523665D01*
X26699611Y-32574461D01*
X26631790Y-32591256D01*
X26565655Y-32568719D01*
X26522203Y-32514004D01*
X26513100Y-32467370D01*
X26513100Y-30227065D01*
X26532785Y-30160026D01*
X26549419Y-30139384D01*
X26775414Y-29913389D01*
X27360490Y-29328314D01*
X27372383Y-29307714D01*
X27419796Y-29225593D01*
X27419796Y-29225591D01*
X27419799Y-29225587D01*
X27431754Y-29180971D01*
X27431881Y-29180498D01*
X27438695Y-29155063D01*
X27450500Y-29111009D01*
X27450500Y-29018860D01*
X27470185Y-28951821D01*
X27522989Y-28906066D01*
X27536169Y-28900933D01*
X27556799Y-28894231D01*
X27760228Y-28790579D01*
X27944937Y-28656379D01*
X28106379Y-28494937D01*
X28240579Y-28310228D01*
X28344231Y-28106799D01*
X28414784Y-27889660D01*
X28422832Y-27838845D01*
X28450500Y-27664162D01*
X28450500Y-26335837D01*
X28414784Y-26110339D01*
X28361098Y-25945112D01*
X28344231Y-25893201D01*
X28344229Y-25893198D01*
X28344229Y-25893196D01*
X28267343Y-25742299D01*
X28240579Y-25689772D01*
X28170839Y-25593784D01*
X28147360Y-25527980D01*
X28163185Y-25459926D01*
X28213290Y-25411231D01*
X28271158Y-25396900D01*
X29708435Y-25396900D01*
X29775474Y-25416585D01*
X29796116Y-25433219D01*
X30531282Y-26168385D01*
X30564767Y-26229708D01*
X30559783Y-26299400D01*
X30554086Y-26312359D01*
X30516760Y-26385616D01*
X30516758Y-26385622D01*
X30438910Y-26625210D01*
X30438910Y-26625213D01*
X30419146Y-26750000D01*
X30399500Y-26874038D01*
X30399500Y-27125962D01*
X30419146Y-27250000D01*
X30438910Y-27374785D01*
X30438909Y-27374785D01*
X30516760Y-27614383D01*
X30631132Y-27838848D01*
X30779201Y-28042649D01*
X30779205Y-28042654D01*
X30957345Y-28220794D01*
X30957350Y-28220798D01*
X31080441Y-28310228D01*
X31161155Y-28368870D01*
X31304184Y-28441747D01*
X31385616Y-28483239D01*
X31385618Y-28483239D01*
X31385621Y-28483241D01*
X31625215Y-28561090D01*
X31874038Y-28600500D01*
X31874039Y-28600500D01*
X32125961Y-28600500D01*
X32125962Y-28600500D01*
X32374785Y-28561090D01*
X32614379Y-28483241D01*
X32838845Y-28368870D01*
X33042656Y-28220793D01*
X33220793Y-28042656D01*
X33368870Y-27838845D01*
X33483241Y-27614379D01*
X33561090Y-27374785D01*
X33600500Y-27125962D01*
X33600500Y-26874038D01*
X33561090Y-26625215D01*
X33483241Y-26385621D01*
X33483239Y-26385618D01*
X33483239Y-26385616D01*
X33419439Y-26260402D01*
X33368870Y-26161155D01*
X33314710Y-26086610D01*
X33220798Y-25957350D01*
X33220794Y-25957345D01*
X33042654Y-25779205D01*
X33042649Y-25779201D01*
X32838848Y-25631132D01*
X32838847Y-25631131D01*
X32838845Y-25631130D01*
X32738891Y-25580201D01*
X32614383Y-25516760D01*
X32374785Y-25438910D01*
X32275685Y-25423214D01*
X32125962Y-25399500D01*
X31874038Y-25399500D01*
X31799972Y-25411231D01*
X31625213Y-25438910D01*
X31625210Y-25438910D01*
X31385622Y-25516758D01*
X31385616Y-25516760D01*
X31312359Y-25554086D01*
X31243690Y-25566982D01*
X31178950Y-25540705D01*
X31168385Y-25531282D01*
X30223016Y-24585913D01*
X30223014Y-24585911D01*
X30171650Y-24556256D01*
X30120288Y-24526601D01*
X30108180Y-24523357D01*
X30096073Y-24520113D01*
X30096070Y-24520112D01*
X30057878Y-24509878D01*
X30005709Y-24495900D01*
X26253091Y-24495900D01*
X26162725Y-24520113D01*
X26162724Y-24520112D01*
X26138516Y-24526599D01*
X26138513Y-24526600D01*
X26035786Y-24585911D01*
X26035783Y-24585913D01*
X25084213Y-25537483D01*
X25084209Y-25537489D01*
X25024901Y-25640212D01*
X25024901Y-25640213D01*
X25024901Y-25640214D01*
X24994200Y-25754791D01*
X20500500Y-25754791D01*
X20500500Y-20624500D01*
X20520185Y-20557461D01*
X20572989Y-20511706D01*
X20624500Y-20500500D01*
X30681436Y-20500500D01*
X30748475Y-20520185D01*
G37*
%TD.AperFunction*%
%TD*%
M02*
