M48
; DRILL file KiCad 10.0.4 date 2026-08-19T01:19:38
; FORMAT={-:-/ absolute / metric / decimal}
; #@! TF.CreationDate,2026-08-19T01:19:38-03:00
; #@! TF.GenerationSoftware,Kicad,Pcbnew,10.0.4
; #@! TF.FileFunction,MixedPlating,1,2
FMAT,2
METRIC
; #@! TA.AperFunction,Plated,PTH,ViaDrill
T1C0.350
; #@! TA.AperFunction,Plated,PTH,ComponentDrill
T2C0.800
; #@! TA.AperFunction,Plated,PTH,ComponentDrill
T3C1.000
; #@! TA.AperFunction,Plated,PTH,ComponentDrill
T4C1.100
; #@! TA.AperFunction,Plated,PTH,ComponentDrill
T5C1.300
; #@! TA.AperFunction,Plated,PTH,ComponentDrill
T6C1.500
; #@! TA.AperFunction,NonPlated,NPTH,ComponentDrill
T7C3.200
%
G90
G05
T1
X42.584Y-66.176
X46.172Y-71.418
T2
X46.0Y-30.0
X46.0Y-36.0
X46.0Y-42.0
X46.0Y-48.0
X46.0Y-54.0
X46.0Y-60.0
X48.54Y-42.0
X48.54Y-48.0
X48.54Y-54.0
X51.0Y-30.0
X51.0Y-36.0
X51.0Y-60.0
X56.0Y-31.0
X56.0Y-38.0
X56.0Y-44.0
X56.0Y-50.0
X56.0Y-56.0
X58.5Y-31.0
X58.54Y-38.0
X58.54Y-44.0
X58.54Y-50.0
X58.54Y-56.0
T3
X22.0Y-80.0
X23.1Y-22.0
X23.1Y-24.54
X23.1Y-27.08
X23.1Y-29.62
X23.1Y-32.16
X23.1Y-34.7
X23.1Y-37.24
X23.1Y-39.78
X23.1Y-42.32
X23.1Y-44.86
X23.1Y-47.4
X23.1Y-49.94
X23.1Y-52.48
X23.1Y-55.02
X23.1Y-57.56
X23.1Y-60.1
X23.1Y-62.64
X23.1Y-65.18
X23.1Y-67.72
X23.1Y-70.26
X24.54Y-80.0
X27.08Y-80.0
X29.62Y-80.0
X32.16Y-80.0
X34.7Y-80.0
X40.88Y-22.0
X40.88Y-24.54
X40.88Y-27.08
X40.88Y-29.62
X40.88Y-32.16
X40.88Y-34.7
X40.88Y-37.24
X40.88Y-39.78
X40.88Y-42.32
X40.88Y-44.86
X40.88Y-47.4
X40.88Y-49.94
X40.88Y-52.48
X40.88Y-55.02
X40.88Y-57.56
X40.88Y-60.1
X40.88Y-62.64
X40.88Y-65.18
X40.88Y-67.72
X40.88Y-70.26
X46.0Y-80.0
X48.54Y-80.0
X67.0Y-80.0
X69.54Y-80.0
X72.08Y-80.0
X77.16Y-80.0
X79.7Y-80.0
X82.24Y-80.0
T4
X67.0Y-42.0
X69.54Y-42.0
X72.08Y-42.0
X74.62Y-42.0
X79.7Y-42.0
X82.24Y-42.0
X87.32Y-42.0
X89.86Y-42.0
X92.4Y-42.0
T6
X92.5Y-53.0
X92.5Y-66.0
X92.5Y-79.0
T7
X60.0Y-24.0
X60.0Y-82.0
T5
X91.95Y-48.0G85X93.05Y-48.0
G05
X91.95Y-58.0G85X93.05Y-58.0
G05
X91.95Y-61.0G85X93.05Y-61.0
G05
X91.95Y-71.0G85X93.05Y-71.0
G05
X91.95Y-74.0G85X93.05Y-74.0
G05
X91.95Y-84.0G85X93.05Y-84.0
G05
X97.5Y-52.45G85X97.5Y-53.55
G05
X97.5Y-65.45G85X97.5Y-66.55
G05
X97.5Y-78.45G85X97.5Y-79.55
G05
M30
